# Wavefront OBJ: SM_PlasticStool
o SM_PlasticStool
v -0.150000 0.282000 0.120000
v -0.150000 0.282000 0.150000
v -0.150000 0.300000 0.120000
v -0.150000 0.300000 0.150000
v 0.150000 0.282000 0.120000
v 0.150000 0.282000 0.150000
v 0.150000 0.300000 0.120000
v 0.150000 0.300000 0.150000
v -0.150000 0.282000 -0.150000
v -0.150000 0.282000 -0.120000
v -0.150000 0.300000 -0.150000
v -0.150000 0.300000 -0.120000
v 0.150000 0.282000 -0.150000
v 0.150000 0.282000 -0.120000
v 0.150000 0.300000 -0.150000
v 0.150000 0.300000 -0.120000
v -0.150000 0.282000 -0.120000
v -0.150000 0.282000 0.120000
v -0.150000 0.300000 -0.120000
v -0.150000 0.300000 0.120000
v -0.120000 0.282000 -0.120000
v -0.120000 0.282000 0.120000
v -0.120000 0.300000 -0.120000
v -0.120000 0.300000 0.120000
v 0.120000 0.282000 -0.120000
v 0.120000 0.282000 0.120000
v 0.120000 0.300000 -0.120000
v 0.120000 0.300000 0.120000
v 0.150000 0.282000 -0.120000
v 0.150000 0.282000 0.120000
v 0.150000 0.300000 -0.120000
v 0.150000 0.300000 0.120000
v -0.120000 0.282000 -0.120000
v -0.120000 0.282000 0.120000
v -0.120000 0.294000 -0.120000
v -0.120000 0.294000 0.120000
v -0.040000 0.282000 -0.120000
v -0.040000 0.282000 0.120000
v -0.040000 0.294000 -0.120000
v -0.040000 0.294000 0.120000
v 0.040000 0.282000 -0.120000
v 0.040000 0.282000 0.120000
v 0.040000 0.294000 -0.120000
v 0.040000 0.294000 0.120000
v 0.120000 0.282000 -0.120000
v 0.120000 0.282000 0.120000
v 0.120000 0.294000 -0.120000
v 0.120000 0.294000 0.120000
v -0.040000 0.282000 0.040000
v -0.040000 0.282000 0.120000
v -0.040000 0.294000 0.040000
v -0.040000 0.294000 0.120000
v 0.040000 0.282000 0.040000
v 0.040000 0.282000 0.120000
v 0.040000 0.294000 0.040000
v 0.040000 0.294000 0.120000
v -0.040000 0.282000 -0.120000
v -0.040000 0.282000 -0.040000
v -0.040000 0.294000 -0.120000
v -0.040000 0.294000 -0.040000
v 0.040000 0.282000 -0.120000
v 0.040000 0.282000 -0.040000
v 0.040000 0.294000 -0.120000
v 0.040000 0.294000 -0.040000
v -0.135000 -0.000637 -0.123017
v -0.120000 0.281363 -0.108017
v -0.127957 -0.000889 -0.125325
v -0.112957 0.281111 -0.110325
v -0.123603 -0.000801 -0.131329
v -0.108603 0.281199 -0.116329
v -0.123603 -0.000408 -0.138735
v -0.108603 0.281592 -0.123735
v -0.127957 0.000142 -0.144714
v -0.112957 0.282142 -0.129714
v -0.135000 0.000637 -0.146983
v -0.120000 0.282637 -0.131983
v -0.142043 0.000889 -0.144675
v -0.127043 0.282889 -0.129675
v -0.146397 0.000801 -0.138671
v -0.131397 0.282801 -0.123671
v -0.146397 0.000408 -0.131265
v -0.131397 0.282408 -0.116265
v -0.142043 -0.000142 -0.125286
v -0.127043 0.281858 -0.110286
v -0.135000 0.000637 0.146983
v -0.120000 0.282637 0.131983
v -0.127957 0.000142 0.144714
v -0.112957 0.282142 0.129714
v -0.123603 -0.000408 0.138735
v -0.108603 0.281592 0.123735
v -0.123603 -0.000801 0.131329
v -0.108603 0.281199 0.116329
v -0.127957 -0.000889 0.125325
v -0.112957 0.281111 0.110325
v -0.135000 -0.000637 0.123017
v -0.120000 0.281363 0.108017
v -0.142043 -0.000142 0.125286
v -0.127043 0.281858 0.110286
v -0.146397 0.000408 0.131265
v -0.131397 0.282408 0.116265
v -0.146397 0.000801 0.138671
v -0.131397 0.282801 0.123671
v -0.142043 0.000889 0.144675
v -0.127043 0.282889 0.129675
v 0.135000 -0.000637 -0.123017
v 0.120000 0.281363 -0.108017
v 0.142043 -0.000142 -0.125286
v 0.127043 0.281858 -0.110286
v 0.146397 0.000408 -0.131265
v 0.131397 0.282408 -0.116265
v 0.146397 0.000801 -0.138671
v 0.131397 0.282801 -0.123671
v 0.142043 0.000889 -0.144675
v 0.127043 0.282889 -0.129675
v 0.135000 0.000637 -0.146983
v 0.120000 0.282637 -0.131983
v 0.127957 0.000142 -0.144714
v 0.112957 0.282142 -0.129714
v 0.123603 -0.000408 -0.138735
v 0.108603 0.281592 -0.123735
v 0.123603 -0.000801 -0.131329
v 0.108603 0.281199 -0.116329
v 0.127957 -0.000889 -0.125325
v 0.112957 0.281111 -0.110325
v 0.135000 0.000637 0.146983
v 0.120000 0.282637 0.131983
v 0.142043 0.000889 0.144675
v 0.127043 0.282889 0.129675
v 0.146397 0.000801 0.138671
v 0.131397 0.282801 0.123671
v 0.146397 0.000408 0.131265
v 0.131397 0.282408 0.116265
v 0.142043 -0.000142 0.125286
v 0.127043 0.281858 0.110286
v 0.135000 -0.000637 0.123017
v 0.120000 0.281363 0.108017
v 0.127957 -0.000889 0.125325
v 0.112957 0.281111 0.110325
v 0.123603 -0.000801 0.131329
v 0.108603 0.281199 0.116329
v 0.123603 -0.000408 0.138735
v 0.108603 0.281592 0.123735
v 0.127957 0.000142 0.144714
v 0.112957 0.282142 0.129714
v -0.120000 0.220000 -0.007000
v 0.120000 0.220000 -0.007000
v -0.120000 0.224950 -0.004950
v 0.120000 0.224950 -0.004950
v -0.120000 0.227000 -0.000000
v 0.120000 0.227000 -0.000000
v -0.120000 0.224950 0.004950
v 0.120000 0.224950 0.004950
v -0.120000 0.220000 0.007000
v 0.120000 0.220000 0.007000
v -0.120000 0.215050 0.004950
v 0.120000 0.215050 0.004950
v -0.120000 0.213000 0.000000
v 0.120000 0.213000 0.000000
v -0.120000 0.215050 -0.004950
v 0.120000 0.215050 -0.004950
v 0.007000 0.220000 -0.120000
v 0.007000 0.220000 0.120000
v 0.004950 0.224950 -0.120000
v 0.004950 0.224950 0.120000
v 0.000000 0.227000 -0.120000
v 0.000000 0.227000 0.120000
v -0.004950 0.224950 -0.120000
v -0.004950 0.224950 0.120000
v -0.007000 0.220000 -0.120000
v -0.007000 0.220000 0.120000
v -0.004950 0.215050 -0.120000
v -0.004950 0.215050 0.120000
v -0.000000 0.213000 -0.120000
v -0.000000 0.213000 0.120000
v 0.004950 0.215050 -0.120000
v 0.004950 0.215050 0.120000
vt 0.000000 0.000000
vt 0.300000 0.000000
vt 0.300000 0.018000
vt 0.000000 0.018000
vt 0.000000 0.000000
vt 0.300000 0.000000
vt 0.300000 0.018000
vt 0.000000 0.018000
vt 0.000000 0.000000
vt 0.300000 0.000000
vt 0.300000 0.030000
vt 0.000000 0.030000
vt 0.000000 0.000000
vt 0.300000 0.000000
vt 0.300000 0.030000
vt 0.000000 0.030000
vt 0.000000 0.000000
vt 0.030000 0.000000
vt 0.030000 0.018000
vt 0.000000 0.018000
vt 0.000000 0.000000
vt 0.030000 0.000000
vt 0.030000 0.018000
vt 0.000000 0.018000
vt 0.000000 0.000000
vt 0.300000 0.000000
vt 0.300000 0.018000
vt 0.000000 0.018000
vt 0.000000 0.000000
vt 0.300000 0.000000
vt 0.300000 0.018000
vt 0.000000 0.018000
vt 0.000000 0.000000
vt 0.300000 0.000000
vt 0.300000 0.030000
vt 0.000000 0.030000
vt 0.000000 0.000000
vt 0.300000 0.000000
vt 0.300000 0.030000
vt 0.000000 0.030000
vt 0.000000 0.000000
vt 0.030000 0.000000
vt 0.030000 0.018000
vt 0.000000 0.018000
vt 0.000000 0.000000
vt 0.030000 0.000000
vt 0.030000 0.018000
vt 0.000000 0.018000
vt 0.000000 0.000000
vt 0.030000 0.000000
vt 0.030000 0.018000
vt 0.000000 0.018000
vt 0.000000 0.000000
vt 0.030000 0.000000
vt 0.030000 0.018000
vt 0.000000 0.018000
vt 0.000000 0.000000
vt 0.030000 0.000000
vt 0.030000 0.240000
vt 0.000000 0.240000
vt 0.000000 0.000000
vt 0.030000 0.000000
vt 0.030000 0.240000
vt 0.000000 0.240000
vt 0.000000 0.000000
vt 0.240000 0.000000
vt 0.240000 0.018000
vt 0.000000 0.018000
vt 0.000000 0.000000
vt 0.240000 0.000000
vt 0.240000 0.018000
vt 0.000000 0.018000
vt 0.000000 0.000000
vt 0.030000 0.000000
vt 0.030000 0.018000
vt 0.000000 0.018000
vt 0.000000 0.000000
vt 0.030000 0.000000
vt 0.030000 0.018000
vt 0.000000 0.018000
vt 0.000000 0.000000
vt 0.030000 0.000000
vt 0.030000 0.240000
vt 0.000000 0.240000
vt 0.000000 0.000000
vt 0.030000 0.000000
vt 0.030000 0.240000
vt 0.000000 0.240000
vt 0.000000 0.000000
vt 0.240000 0.000000
vt 0.240000 0.018000
vt 0.000000 0.018000
vt 0.000000 0.000000
vt 0.240000 0.000000
vt 0.240000 0.018000
vt 0.000000 0.018000
vt 0.000000 0.000000
vt 0.080000 0.000000
vt 0.080000 0.012000
vt 0.000000 0.012000
vt 0.000000 0.000000
vt 0.080000 0.000000
vt 0.080000 0.012000
vt 0.000000 0.012000
vt 0.000000 0.000000
vt 0.080000 0.000000
vt 0.080000 0.240000
vt 0.000000 0.240000
vt 0.000000 0.000000
vt 0.080000 0.000000
vt 0.080000 0.240000
vt 0.000000 0.240000
vt 0.000000 0.000000
vt 0.240000 0.000000
vt 0.240000 0.012000
vt 0.000000 0.012000
vt 0.000000 0.000000
vt 0.240000 0.000000
vt 0.240000 0.012000
vt 0.000000 0.012000
vt 0.000000 0.000000
vt 0.080000 0.000000
vt 0.080000 0.012000
vt 0.000000 0.012000
vt 0.000000 0.000000
vt 0.080000 0.000000
vt 0.080000 0.012000
vt 0.000000 0.012000
vt 0.000000 0.000000
vt 0.080000 0.000000
vt 0.080000 0.240000
vt 0.000000 0.240000
vt 0.000000 0.000000
vt 0.080000 0.000000
vt 0.080000 0.240000
vt 0.000000 0.240000
vt 0.000000 0.000000
vt 0.240000 0.000000
vt 0.240000 0.012000
vt 0.000000 0.012000
vt 0.000000 0.000000
vt 0.240000 0.000000
vt 0.240000 0.012000
vt 0.000000 0.012000
vt 0.000000 0.000000
vt 0.080000 0.000000
vt 0.080000 0.012000
vt 0.000000 0.012000
vt 0.000000 0.000000
vt 0.080000 0.000000
vt 0.080000 0.012000
vt 0.000000 0.012000
vt 0.000000 0.000000
vt 0.080000 0.000000
vt 0.080000 0.080000
vt 0.000000 0.080000
vt 0.000000 0.000000
vt 0.080000 0.000000
vt 0.080000 0.080000
vt 0.000000 0.080000
vt 0.000000 0.000000
vt 0.080000 0.000000
vt 0.080000 0.012000
vt 0.000000 0.012000
vt 0.000000 0.000000
vt 0.080000 0.000000
vt 0.080000 0.012000
vt 0.000000 0.012000
vt 0.000000 0.000000
vt 0.080000 0.000000
vt 0.080000 0.012000
vt 0.000000 0.012000
vt 0.000000 0.000000
vt 0.080000 0.000000
vt 0.080000 0.012000
vt 0.000000 0.012000
vt 0.000000 0.000000
vt 0.080000 0.000000
vt 0.080000 0.080000
vt 0.000000 0.080000
vt 0.000000 0.000000
vt 0.080000 0.000000
vt 0.080000 0.080000
vt 0.000000 0.080000
vt 0.000000 0.000000
vt 0.080000 0.000000
vt 0.080000 0.012000
vt 0.000000 0.012000
vt 0.000000 0.000000
vt 0.080000 0.000000
vt 0.080000 0.012000
vt 0.000000 0.012000
vt 0.000000 0.000000
vt 0.100000 0.000000
vt 0.100000 0.282797
vt 0.000000 0.282797
vt 0.100000 0.000000
vt 0.200000 0.000000
vt 0.200000 0.282797
vt 0.100000 0.282797
vt 0.200000 0.000000
vt 0.300000 0.000000
vt 0.300000 0.282797
vt 0.200000 0.282797
vt 0.300000 0.000000
vt 0.400000 0.000000
vt 0.400000 0.282797
vt 0.300000 0.282797
vt 0.400000 0.000000
vt 0.500000 0.000000
vt 0.500000 0.282797
vt 0.400000 0.282797
vt 0.500000 0.000000
vt 0.600000 0.000000
vt 0.600000 0.282797
vt 0.500000 0.282797
vt 0.600000 0.000000
vt 0.700000 0.000000
vt 0.700000 0.282797
vt 0.600000 0.282797
vt 0.700000 0.000000
vt 0.800000 0.000000
vt 0.800000 0.282797
vt 0.700000 0.282797
vt 0.800000 0.000000
vt 0.900000 0.000000
vt 0.900000 0.282797
vt 0.800000 0.282797
vt 0.900000 0.000000
vt 1.000000 0.000000
vt 1.000000 0.282797
vt 0.900000 0.282797
vt 0.000000 0.000000
vt 0.100000 0.000000
vt 0.100000 0.282797
vt 0.000000 0.282797
vt 0.100000 0.000000
vt 0.200000 0.000000
vt 0.200000 0.282797
vt 0.100000 0.282797
vt 0.200000 0.000000
vt 0.300000 0.000000
vt 0.300000 0.282797
vt 0.200000 0.282797
vt 0.300000 0.000000
vt 0.400000 0.000000
vt 0.400000 0.282797
vt 0.300000 0.282797
vt 0.400000 0.000000
vt 0.500000 0.000000
vt 0.500000 0.282797
vt 0.400000 0.282797
vt 0.500000 0.000000
vt 0.600000 0.000000
vt 0.600000 0.282797
vt 0.500000 0.282797
vt 0.600000 0.000000
vt 0.700000 0.000000
vt 0.700000 0.282797
vt 0.600000 0.282797
vt 0.700000 0.000000
vt 0.800000 0.000000
vt 0.800000 0.282797
vt 0.700000 0.282797
vt 0.800000 0.000000
vt 0.900000 0.000000
vt 0.900000 0.282797
vt 0.800000 0.282797
vt 0.900000 0.000000
vt 1.000000 0.000000
vt 1.000000 0.282797
vt 0.900000 0.282797
vt 0.000000 0.000000
vt 0.100000 0.000000
vt 0.100000 0.282797
vt 0.000000 0.282797
vt 0.100000 0.000000
vt 0.200000 0.000000
vt 0.200000 0.282797
vt 0.100000 0.282797
vt 0.200000 0.000000
vt 0.300000 0.000000
vt 0.300000 0.282797
vt 0.200000 0.282797
vt 0.300000 0.000000
vt 0.400000 0.000000
vt 0.400000 0.282797
vt 0.300000 0.282797
vt 0.400000 0.000000
vt 0.500000 0.000000
vt 0.500000 0.282797
vt 0.400000 0.282797
vt 0.500000 0.000000
vt 0.600000 0.000000
vt 0.600000 0.282797
vt 0.500000 0.282797
vt 0.600000 0.000000
vt 0.700000 0.000000
vt 0.700000 0.282797
vt 0.600000 0.282797
vt 0.700000 0.000000
vt 0.800000 0.000000
vt 0.800000 0.282797
vt 0.700000 0.282797
vt 0.800000 0.000000
vt 0.900000 0.000000
vt 0.900000 0.282797
vt 0.800000 0.282797
vt 0.900000 0.000000
vt 1.000000 0.000000
vt 1.000000 0.282797
vt 0.900000 0.282797
vt 0.000000 0.000000
vt 0.100000 0.000000
vt 0.100000 0.282797
vt 0.000000 0.282797
vt 0.100000 0.000000
vt 0.200000 0.000000
vt 0.200000 0.282797
vt 0.100000 0.282797
vt 0.200000 0.000000
vt 0.300000 0.000000
vt 0.300000 0.282797
vt 0.200000 0.282797
vt 0.300000 0.000000
vt 0.400000 0.000000
vt 0.400000 0.282797
vt 0.300000 0.282797
vt 0.400000 0.000000
vt 0.500000 0.000000
vt 0.500000 0.282797
vt 0.400000 0.282797
vt 0.500000 0.000000
vt 0.600000 0.000000
vt 0.600000 0.282797
vt 0.500000 0.282797
vt 0.600000 0.000000
vt 0.700000 0.000000
vt 0.700000 0.282797
vt 0.600000 0.282797
vt 0.700000 0.000000
vt 0.800000 0.000000
vt 0.800000 0.282797
vt 0.700000 0.282797
vt 0.800000 0.000000
vt 0.900000 0.000000
vt 0.900000 0.282797
vt 0.800000 0.282797
vt 0.900000 0.000000
vt 1.000000 0.000000
vt 1.000000 0.282797
vt 0.900000 0.282797
vt 0.000000 0.000000
vt 0.125000 0.000000
vt 0.125000 0.240000
vt 0.000000 0.240000
vt 0.125000 0.000000
vt 0.250000 0.000000
vt 0.250000 0.240000
vt 0.125000 0.240000
vt 0.250000 0.000000
vt 0.375000 0.000000
vt 0.375000 0.240000
vt 0.250000 0.240000
vt 0.375000 0.000000
vt 0.500000 0.000000
vt 0.500000 0.240000
vt 0.375000 0.240000
vt 0.500000 0.000000
vt 0.625000 0.000000
vt 0.625000 0.240000
vt 0.500000 0.240000
vt 0.625000 0.000000
vt 0.750000 0.000000
vt 0.750000 0.240000
vt 0.625000 0.240000
vt 0.750000 0.000000
vt 0.875000 0.000000
vt 0.875000 0.240000
vt 0.750000 0.240000
vt 0.875000 0.000000
vt 1.000000 0.000000
vt 1.000000 0.240000
vt 0.875000 0.240000
vt 0.000000 0.000000
vt 0.125000 0.000000
vt 0.125000 0.240000
vt 0.000000 0.240000
vt 0.125000 0.000000
vt 0.250000 0.000000
vt 0.250000 0.240000
vt 0.125000 0.240000
vt 0.250000 0.000000
vt 0.375000 0.000000
vt 0.375000 0.240000
vt 0.250000 0.240000
vt 0.375000 0.000000
vt 0.500000 0.000000
vt 0.500000 0.240000
vt 0.375000 0.240000
vt 0.500000 0.000000
vt 0.625000 0.000000
vt 0.625000 0.240000
vt 0.500000 0.240000
vt 0.625000 0.000000
vt 0.750000 0.000000
vt 0.750000 0.240000
vt 0.625000 0.240000
vt 0.750000 0.000000
vt 0.875000 0.000000
vt 0.875000 0.240000
vt 0.750000 0.240000
vt 0.875000 0.000000
vt 1.000000 0.000000
vt 1.000000 0.240000
vt 0.875000 0.240000
vn 0.000000 0.000000 1.000000
vn 0.000000 0.000000 -1.000000
vn 0.000000 1.000000 0.000000
vn 0.000000 -1.000000 0.000000
vn 1.000000 0.000000 0.000000
vn -1.000000 0.000000 0.000000
vn 0.000000 0.000000 1.000000
vn 0.000000 0.000000 -1.000000
vn 0.000000 1.000000 0.000000
vn 0.000000 -1.000000 0.000000
vn 1.000000 0.000000 0.000000
vn -1.000000 0.000000 0.000000
vn 0.000000 0.000000 1.000000
vn 0.000000 0.000000 -1.000000
vn 0.000000 1.000000 0.000000
vn 0.000000 -1.000000 0.000000
vn 1.000000 0.000000 0.000000
vn -1.000000 0.000000 0.000000
vn 0.000000 0.000000 1.000000
vn 0.000000 0.000000 -1.000000
vn 0.000000 1.000000 0.000000
vn 0.000000 -1.000000 0.000000
vn 1.000000 0.000000 0.000000
vn -1.000000 0.000000 0.000000
vn 0.000000 0.000000 1.000000
vn 0.000000 0.000000 -1.000000
vn 0.000000 1.000000 0.000000
vn 0.000000 -1.000000 0.000000
vn 1.000000 0.000000 0.000000
vn -1.000000 0.000000 0.000000
vn 0.000000 0.000000 1.000000
vn 0.000000 0.000000 -1.000000
vn 0.000000 1.000000 0.000000
vn 0.000000 -1.000000 0.000000
vn 1.000000 0.000000 0.000000
vn -1.000000 0.000000 0.000000
vn 0.000000 0.000000 1.000000
vn 0.000000 0.000000 -1.000000
vn 0.000000 1.000000 0.000000
vn 0.000000 -1.000000 0.000000
vn 1.000000 0.000000 0.000000
vn -1.000000 0.000000 0.000000
vn 0.000000 0.000000 1.000000
vn 0.000000 0.000000 -1.000000
vn 0.000000 1.000000 0.000000
vn 0.000000 -1.000000 0.000000
vn 1.000000 0.000000 0.000000
vn -1.000000 0.000000 0.000000
vn 0.000000 -0.053116 0.998588
vn 0.586958 -0.074105 0.806219
vn 0.586958 -0.074105 0.806219
vn 0.949718 -0.066788 0.305901
vn 0.949718 -0.066788 0.305901
vn 0.949718 -0.033961 -0.311260
vn 0.949718 -0.033961 -0.311260
vn 0.586958 0.011839 -0.809531
vn 0.586958 0.011839 -0.809531
vn 0.000000 0.053116 -0.998588
vn 0.000000 0.053116 -0.998588
vn -0.586958 0.074105 -0.806219
vn -0.586958 0.074105 -0.806219
vn -0.949718 0.066788 -0.305901
vn -0.949718 0.066788 -0.305901
vn -0.949718 0.033961 0.311260
vn -0.949718 0.033961 0.311260
vn -0.586958 -0.011839 0.809531
vn -0.586958 -0.011839 0.809531
vn 0.000000 -0.053116 0.998588
vn 0.000000 0.053116 0.998588
vn 0.586958 0.011839 0.809531
vn 0.586958 0.011839 0.809531
vn 0.949718 -0.033961 0.311260
vn 0.949718 -0.033961 0.311260
vn 0.949718 -0.066788 -0.305901
vn 0.949718 -0.066788 -0.305901
vn 0.586958 -0.074105 -0.806219
vn 0.586958 -0.074105 -0.806219
vn 0.000000 -0.053116 -0.998588
vn 0.000000 -0.053116 -0.998588
vn -0.586958 -0.011839 -0.809531
vn -0.586958 -0.011839 -0.809531
vn -0.949718 0.033961 -0.311260
vn -0.949718 0.033961 -0.311260
vn -0.949718 0.066788 0.305901
vn -0.949718 0.066788 0.305901
vn -0.586958 0.074105 0.806219
vn -0.586958 0.074105 0.806219
vn 0.000000 0.053116 0.998588
vn 0.000000 -0.053116 0.998588
vn 0.586958 -0.011839 0.809531
vn 0.586958 -0.011839 0.809531
vn 0.949718 0.033961 0.311260
vn 0.949718 0.033961 0.311260
vn 0.949718 0.066788 -0.305901
vn 0.949718 0.066788 -0.305901
vn 0.586958 0.074105 -0.806219
vn 0.586958 0.074105 -0.806219
vn 0.000000 0.053116 -0.998588
vn 0.000000 0.053116 -0.998588
vn -0.586958 0.011839 -0.809531
vn -0.586958 0.011839 -0.809531
vn -0.949718 -0.033961 -0.311260
vn -0.949718 -0.033961 -0.311260
vn -0.949718 -0.066788 0.305901
vn -0.949718 -0.066788 0.305901
vn -0.586958 -0.074105 0.806219
vn -0.586958 -0.074105 0.806219
vn 0.000000 -0.053116 0.998588
vn 0.000000 0.053116 0.998588
vn 0.586958 0.074105 0.806219
vn 0.586958 0.074105 0.806219
vn 0.949718 0.066788 0.305901
vn 0.949718 0.066788 0.305901
vn 0.949718 0.033961 -0.311260
vn 0.949718 0.033961 -0.311260
vn 0.586958 -0.011839 -0.809531
vn 0.586958 -0.011839 -0.809531
vn 0.000000 -0.053116 -0.998588
vn 0.000000 -0.053116 -0.998588
vn -0.586958 -0.074105 -0.806219
vn -0.586958 -0.074105 -0.806219
vn -0.949718 -0.066788 -0.305901
vn -0.949718 -0.066788 -0.305901
vn -0.949718 -0.033961 0.311260
vn -0.949718 -0.033961 0.311260
vn -0.586958 0.011839 0.809531
vn -0.586958 0.011839 0.809531
vn 0.000000 0.053116 0.998588
vn 0.000000 0.000000 -1.000000
vn 0.000000 0.707107 -0.707107
vn 0.000000 0.707107 -0.707107
vn 0.000000 1.000000 -0.000000
vn 0.000000 1.000000 -0.000000
vn -0.000000 0.707107 0.707107
vn -0.000000 0.707107 0.707107
vn -0.000000 0.000000 1.000000
vn -0.000000 0.000000 1.000000
vn 0.000000 -0.707107 0.707107
vn 0.000000 -0.707107 0.707107
vn 0.000000 -1.000000 0.000000
vn 0.000000 -1.000000 0.000000
vn 0.000000 -0.707107 -0.707107
vn 0.000000 -0.707107 -0.707107
vn 0.000000 0.000000 -1.000000
vn 1.000000 0.000000 0.000000
vn 0.707107 0.707107 0.000000
vn 0.707107 0.707107 0.000000
vn 0.000000 1.000000 0.000000
vn 0.000000 1.000000 0.000000
vn -0.707107 0.707107 0.000000
vn -0.707107 0.707107 0.000000
vn -1.000000 0.000000 0.000000
vn -1.000000 0.000000 0.000000
vn -0.707107 -0.707107 -0.000000
vn -0.707107 -0.707107 -0.000000
vn -0.000000 -1.000000 -0.000000
vn -0.000000 -1.000000 -0.000000
vn 0.707107 -0.707107 0.000000
vn 0.707107 -0.707107 0.000000
vn 1.000000 0.000000 0.000000
s 1
f 2/1/1 6/2/1 8/3/1
f 2/1/1 8/3/1 4/4/1
f 5/5/2 1/6/2 3/7/2
f 5/5/2 3/7/2 7/8/2
f 4/9/3 8/10/3 7/11/3
f 4/9/3 7/11/3 3/12/3
f 1/13/4 5/14/4 6/15/4
f 1/13/4 6/15/4 2/16/4
f 6/17/5 5/18/5 7/19/5
f 6/17/5 7/19/5 8/20/5
f 1/21/6 2/22/6 4/23/6
f 1/21/6 4/23/6 3/24/6
f 10/25/7 14/26/7 16/27/7
f 10/25/7 16/27/7 12/28/7
f 13/29/8 9/30/8 11/31/8
f 13/29/8 11/31/8 15/32/8
f 12/33/9 16/34/9 15/35/9
f 12/33/9 15/35/9 11/36/9
f 9/37/10 13/38/10 14/39/10
f 9/37/10 14/39/10 10/40/10
f 14/41/11 13/42/11 15/43/11
f 14/41/11 15/43/11 16/44/11
f 9/45/12 10/46/12 12/47/12
f 9/45/12 12/47/12 11/48/12
f 18/49/13 22/50/13 24/51/13
f 18/49/13 24/51/13 20/52/13
f 21/53/14 17/54/14 19/55/14
f 21/53/14 19/55/14 23/56/14
f 20/57/15 24/58/15 23/59/15
f 20/57/15 23/59/15 19/60/15
f 17/61/16 21/62/16 22/63/16
f 17/61/16 22/63/16 18/64/16
f 22/65/17 21/66/17 23/67/17
f 22/65/17 23/67/17 24/68/17
f 17/69/18 18/70/18 20/71/18
f 17/69/18 20/71/18 19/72/18
f 26/73/19 30/74/19 32/75/19
f 26/73/19 32/75/19 28/76/19
f 29/77/20 25/78/20 27/79/20
f 29/77/20 27/79/20 31/80/20
f 28/81/21 32/82/21 31/83/21
f 28/81/21 31/83/21 27/84/21
f 25/85/22 29/86/22 30/87/22
f 25/85/22 30/87/22 26/88/22
f 30/89/23 29/90/23 31/91/23
f 30/89/23 31/91/23 32/92/23
f 25/93/24 26/94/24 28/95/24
f 25/93/24 28/95/24 27/96/24
f 34/97/25 38/98/25 40/99/25
f 34/97/25 40/99/25 36/100/25
f 37/101/26 33/102/26 35/103/26
f 37/101/26 35/103/26 39/104/26
f 36/105/27 40/106/27 39/107/27
f 36/105/27 39/107/27 35/108/27
f 33/109/28 37/110/28 38/111/28
f 33/109/28 38/111/28 34/112/28
f 38/113/29 37/114/29 39/115/29
f 38/113/29 39/115/29 40/116/29
f 33/117/30 34/118/30 36/119/30
f 33/117/30 36/119/30 35/120/30
f 42/121/31 46/122/31 48/123/31
f 42/121/31 48/123/31 44/124/31
f 45/125/32 41/126/32 43/127/32
f 45/125/32 43/127/32 47/128/32
f 44/129/33 48/130/33 47/131/33
f 44/129/33 47/131/33 43/132/33
f 41/133/34 45/134/34 46/135/34
f 41/133/34 46/135/34 42/136/34
f 46/137/35 45/138/35 47/139/35
f 46/137/35 47/139/35 48/140/35
f 41/141/36 42/142/36 44/143/36
f 41/141/36 44/143/36 43/144/36
f 50/145/37 54/146/37 56/147/37
f 50/145/37 56/147/37 52/148/37
f 53/149/38 49/150/38 51/151/38
f 53/149/38 51/151/38 55/152/38
f 52/153/39 56/154/39 55/155/39
f 52/153/39 55/155/39 51/156/39
f 49/157/40 53/158/40 54/159/40
f 49/157/40 54/159/40 50/160/40
f 54/161/41 53/162/41 55/163/41
f 54/161/41 55/163/41 56/164/41
f 49/165/42 50/166/42 52/167/42
f 49/165/42 52/167/42 51/168/42
f 58/169/43 62/170/43 64/171/43
f 58/169/43 64/171/43 60/172/43
f 61/173/44 57/174/44 59/175/44
f 61/173/44 59/175/44 63/176/44
f 60/177/45 64/178/45 63/179/45
f 60/177/45 63/179/45 59/180/45
f 57/181/46 61/182/46 62/183/46
f 57/181/46 62/183/46 58/184/46
f 62/185/47 61/186/47 63/187/47
f 62/185/47 63/187/47 64/188/47
f 57/189/48 58/190/48 60/191/48
f 57/189/48 60/191/48 59/192/48
f 65/193/49 67/194/50 68/195/50
f 65/193/49 68/195/50 66/196/49
f 67/197/51 69/198/52 70/199/52
f 67/197/51 70/199/52 68/200/51
f 69/201/53 71/202/54 72/203/54
f 69/201/53 72/203/54 70/204/53
f 71/205/55 73/206/56 74/207/56
f 71/205/55 74/207/56 72/208/55
f 73/209/57 75/210/58 76/211/58
f 73/209/57 76/211/58 74/212/57
f 75/213/59 77/214/60 78/215/60
f 75/213/59 78/215/60 76/216/59
f 77/217/61 79/218/62 80/219/62
f 77/217/61 80/219/62 78/220/61
f 79/221/63 81/222/64 82/223/64
f 79/221/63 82/223/64 80/224/63
f 81/225/65 83/226/66 84/227/66
f 81/225/65 84/227/66 82/228/65
f 83/229/67 65/230/68 66/231/68
f 83/229/67 66/231/68 84/232/67
f 85/233/69 87/234/70 88/235/70
f 85/233/69 88/235/70 86/236/69
f 87/237/71 89/238/72 90/239/72
f 87/237/71 90/239/72 88/240/71
f 89/241/73 91/242/74 92/243/74
f 89/241/73 92/243/74 90/244/73
f 91/245/75 93/246/76 94/247/76
f 91/245/75 94/247/76 92/248/75
f 93/249/77 95/250/78 96/251/78
f 93/249/77 96/251/78 94/252/77
f 95/253/79 97/254/80 98/255/80
f 95/253/79 98/255/80 96/256/79
f 97/257/81 99/258/82 100/259/82
f 97/257/81 100/259/82 98/260/81
f 99/261/83 101/262/84 102/263/84
f 99/261/83 102/263/84 100/264/83
f 101/265/85 103/266/86 104/267/86
f 101/265/85 104/267/86 102/268/85
f 103/269/87 85/270/88 86/271/88
f 103/269/87 86/271/88 104/272/87
f 105/273/89 107/274/90 108/275/90
f 105/273/89 108/275/90 106/276/89
f 107/277/91 109/278/92 110/279/92
f 107/277/91 110/279/92 108/280/91
f 109/281/93 111/282/94 112/283/94
f 109/281/93 112/283/94 110/284/93
f 111/285/95 113/286/96 114/287/96
f 111/285/95 114/287/96 112/288/95
f 113/289/97 115/290/98 116/291/98
f 113/289/97 116/291/98 114/292/97
f 115/293/99 117/294/100 118/295/100
f 115/293/99 118/295/100 116/296/99
f 117/297/101 119/298/102 120/299/102
f 117/297/101 120/299/102 118/300/101
f 119/301/103 121/302/104 122/303/104
f 119/301/103 122/303/104 120/304/103
f 121/305/105 123/306/106 124/307/106
f 121/305/105 124/307/106 122/308/105
f 123/309/107 105/310/108 106/311/108
f 123/309/107 106/311/108 124/312/107
f 125/313/109 127/314/110 128/315/110
f 125/313/109 128/315/110 126/316/109
f 127/317/111 129/318/112 130/319/112
f 127/317/111 130/319/112 128/320/111
f 129/321/113 131/322/114 132/323/114
f 129/321/113 132/323/114 130/324/113
f 131/325/115 133/326/116 134/327/116
f 131/325/115 134/327/116 132/328/115
f 133/329/117 135/330/118 136/331/118
f 133/329/117 136/331/118 134/332/117
f 135/333/119 137/334/120 138/335/120
f 135/333/119 138/335/120 136/336/119
f 137/337/121 139/338/122 140/339/122
f 137/337/121 140/339/122 138/340/121
f 139/341/123 141/342/124 142/343/124
f 139/341/123 142/343/124 140/344/123
f 141/345/125 143/346/126 144/347/126
f 141/345/125 144/347/126 142/348/125
f 143/349/127 125/350/128 126/351/128
f 143/349/127 126/351/128 144/352/127
f 145/353/129 147/354/130 148/355/130
f 145/353/129 148/355/130 146/356/129
f 147/357/131 149/358/132 150/359/132
f 147/357/131 150/359/132 148/360/131
f 149/361/133 151/362/134 152/363/134
f 149/361/133 152/363/134 150/364/133
f 151/365/135 153/366/136 154/367/136
f 151/365/135 154/367/136 152/368/135
f 153/369/137 155/370/138 156/371/138
f 153/369/137 156/371/138 154/372/137
f 155/373/139 157/374/140 158/375/140
f 155/373/139 158/375/140 156/376/139
f 157/377/141 159/378/142 160/379/142
f 157/377/141 160/379/142 158/380/141
f 159/381/143 145/382/144 146/383/144
f 159/381/143 146/383/144 160/384/143
f 161/385/145 163/386/146 164/387/146
f 161/385/145 164/387/146 162/388/145
f 163/389/147 165/390/148 166/391/148
f 163/389/147 166/391/148 164/392/147
f 165/393/149 167/394/150 168/395/150
f 165/393/149 168/395/150 166/396/149
f 167/397/151 169/398/152 170/399/152
f 167/397/151 170/399/152 168/400/151
f 169/401/153 171/402/154 172/403/154
f 169/401/153 172/403/154 170/404/153
f 171/405/155 173/406/156 174/407/156
f 171/405/155 174/407/156 172/408/155
f 173/409/157 175/410/158 176/411/158
f 173/409/157 176/411/158 174/412/157
f 175/413/159 161/414/160 162/415/160
f 175/413/159 162/415/160 176/416/159
