# Wavefront OBJ: SM_StainlessTray
o SM_StainlessTray
v -0.185000 0.000000 -0.135000
v -0.185000 0.000000 0.135000
v -0.185000 0.002000 -0.135000
v -0.185000 0.002000 0.135000
v 0.185000 0.000000 -0.135000
v 0.185000 0.000000 0.135000
v 0.185000 0.002000 -0.135000
v 0.185000 0.002000 0.135000
v -0.200000 0.002000 0.135000
v -0.200000 0.002000 0.150000
v -0.200000 0.022000 0.135000
v -0.200000 0.022000 0.150000
v 0.200000 0.002000 0.135000
v 0.200000 0.002000 0.150000
v 0.200000 0.022000 0.135000
v 0.200000 0.022000 0.150000
v -0.200000 0.002000 -0.150000
v -0.200000 0.002000 -0.135000
v -0.200000 0.022000 -0.150000
v -0.200000 0.022000 -0.135000
v 0.200000 0.002000 -0.150000
v 0.200000 0.002000 -0.135000
v 0.200000 0.022000 -0.150000
v 0.200000 0.022000 -0.135000
v -0.200000 0.002000 -0.135000
v -0.200000 0.002000 0.135000
v -0.200000 0.022000 -0.135000
v -0.200000 0.022000 0.135000
v -0.185000 0.002000 -0.135000
v -0.185000 0.002000 0.135000
v -0.185000 0.022000 -0.135000
v -0.185000 0.022000 0.135000
v 0.185000 0.002000 -0.135000
v 0.185000 0.002000 0.135000
v 0.185000 0.022000 -0.135000
v 0.185000 0.022000 0.135000
v 0.200000 0.002000 -0.135000
v 0.200000 0.002000 0.135000
v 0.200000 0.022000 -0.135000
v 0.200000 0.022000 0.135000
v -0.200000 0.022000 0.146000
v 0.200000 0.022000 0.146000
v -0.200000 0.024828 0.147172
v 0.200000 0.024828 0.147172
v -0.200000 0.026000 0.150000
v 0.200000 0.026000 0.150000
v -0.200000 0.024828 0.152828
v 0.200000 0.024828 0.152828
v -0.200000 0.022000 0.154000
v 0.200000 0.022000 0.154000
v -0.200000 0.019172 0.152828
v 0.200000 0.019172 0.152828
v -0.200000 0.018000 0.150000
v 0.200000 0.018000 0.150000
v -0.200000 0.019172 0.147172
v 0.200000 0.019172 0.147172
v -0.200000 0.022000 -0.154000
v 0.200000 0.022000 -0.154000
v -0.200000 0.024828 -0.152828
v 0.200000 0.024828 -0.152828
v -0.200000 0.026000 -0.150000
v 0.200000 0.026000 -0.150000
v -0.200000 0.024828 -0.147172
v 0.200000 0.024828 -0.147172
v -0.200000 0.022000 -0.146000
v 0.200000 0.022000 -0.146000
v -0.200000 0.019172 -0.147172
v 0.200000 0.019172 -0.147172
v -0.200000 0.018000 -0.150000
v 0.200000 0.018000 -0.150000
v -0.200000 0.019172 -0.152828
v 0.200000 0.019172 -0.152828
v -0.196000 0.022000 -0.150000
v -0.196000 0.022000 0.150000
v -0.197172 0.024828 -0.150000
v -0.197172 0.024828 0.150000
v -0.200000 0.026000 -0.150000
v -0.200000 0.026000 0.150000
v -0.202828 0.024828 -0.150000
v -0.202828 0.024828 0.150000
v -0.204000 0.022000 -0.150000
v -0.204000 0.022000 0.150000
v -0.202828 0.019172 -0.150000
v -0.202828 0.019172 0.150000
v -0.200000 0.018000 -0.150000
v -0.200000 0.018000 0.150000
v -0.197172 0.019172 -0.150000
v -0.197172 0.019172 0.150000
v 0.204000 0.022000 -0.150000
v 0.204000 0.022000 0.150000
v 0.202828 0.024828 -0.150000
v 0.202828 0.024828 0.150000
v 0.200000 0.026000 -0.150000
v 0.200000 0.026000 0.150000
v 0.197172 0.024828 -0.150000
v 0.197172 0.024828 0.150000
v 0.196000 0.022000 -0.150000
v 0.196000 0.022000 0.150000
v 0.197172 0.019172 -0.150000
v 0.197172 0.019172 0.150000
v 0.200000 0.018000 -0.150000
v 0.200000 0.018000 0.150000
v 0.202828 0.019172 -0.150000
v 0.202828 0.019172 0.150000
vt 0.000000 0.000000
vt 0.370000 0.000000
vt 0.370000 0.002000
vt 0.000000 0.002000
vt 0.000000 0.000000
vt 0.370000 0.000000
vt 0.370000 0.002000
vt 0.000000 0.002000
vt 0.000000 0.000000
vt 0.370000 0.000000
vt 0.370000 0.270000
vt 0.000000 0.270000
vt 0.000000 0.000000
vt 0.370000 0.000000
vt 0.370000 0.270000
vt 0.000000 0.270000
vt 0.000000 0.000000
vt 0.270000 0.000000
vt 0.270000 0.002000
vt 0.000000 0.002000
vt 0.000000 0.000000
vt 0.270000 0.000000
vt 0.270000 0.002000
vt 0.000000 0.002000
vt 0.000000 0.000000
vt 0.400000 0.000000
vt 0.400000 0.020000
vt 0.000000 0.020000
vt 0.000000 0.000000
vt 0.400000 0.000000
vt 0.400000 0.020000
vt 0.000000 0.020000
vt 0.000000 0.000000
vt 0.400000 0.000000
vt 0.400000 0.015000
vt 0.000000 0.015000
vt 0.000000 0.000000
vt 0.400000 0.000000
vt 0.400000 0.015000
vt 0.000000 0.015000
vt 0.000000 0.000000
vt 0.015000 0.000000
vt 0.015000 0.020000
vt 0.000000 0.020000
vt 0.000000 0.000000
vt 0.015000 0.000000
vt 0.015000 0.020000
vt 0.000000 0.020000
vt 0.000000 0.000000
vt 0.400000 0.000000
vt 0.400000 0.020000
vt 0.000000 0.020000
vt 0.000000 0.000000
vt 0.400000 0.000000
vt 0.400000 0.020000
vt 0.000000 0.020000
vt 0.000000 0.000000
vt 0.400000 0.000000
vt 0.400000 0.015000
vt 0.000000 0.015000
vt 0.000000 0.000000
vt 0.400000 0.000000
vt 0.400000 0.015000
vt 0.000000 0.015000
vt 0.000000 0.000000
vt 0.015000 0.000000
vt 0.015000 0.020000
vt 0.000000 0.020000
vt 0.000000 0.000000
vt 0.015000 0.000000
vt 0.015000 0.020000
vt 0.000000 0.020000
vt 0.000000 0.000000
vt 0.015000 0.000000
vt 0.015000 0.020000
vt 0.000000 0.020000
vt 0.000000 0.000000
vt 0.015000 0.000000
vt 0.015000 0.020000
vt 0.000000 0.020000
vt 0.000000 0.000000
vt 0.015000 0.000000
vt 0.015000 0.270000
vt 0.000000 0.270000
vt 0.000000 0.000000
vt 0.015000 0.000000
vt 0.015000 0.270000
vt 0.000000 0.270000
vt 0.000000 0.000000
vt 0.270000 0.000000
vt 0.270000 0.020000
vt 0.000000 0.020000
vt 0.000000 0.000000
vt 0.270000 0.000000
vt 0.270000 0.020000
vt 0.000000 0.020000
vt 0.000000 0.000000
vt 0.015000 0.000000
vt 0.015000 0.020000
vt 0.000000 0.020000
vt 0.000000 0.000000
vt 0.015000 0.000000
vt 0.015000 0.020000
vt 0.000000 0.020000
vt 0.000000 0.000000
vt 0.015000 0.000000
vt 0.015000 0.270000
vt 0.000000 0.270000
vt 0.000000 0.000000
vt 0.015000 0.000000
vt 0.015000 0.270000
vt 0.000000 0.270000
vt 0.000000 0.000000
vt 0.270000 0.000000
vt 0.270000 0.020000
vt 0.000000 0.020000
vt 0.000000 0.000000
vt 0.270000 0.000000
vt 0.270000 0.020000
vt 0.000000 0.020000
vt 0.000000 0.000000
vt 0.125000 0.000000
vt 0.125000 0.400000
vt 0.000000 0.400000
vt 0.125000 0.000000
vt 0.250000 0.000000
vt 0.250000 0.400000
vt 0.125000 0.400000
vt 0.250000 0.000000
vt 0.375000 0.000000
vt 0.375000 0.400000
vt 0.250000 0.400000
vt 0.375000 0.000000
vt 0.500000 0.000000
vt 0.500000 0.400000
vt 0.375000 0.400000
vt 0.500000 0.000000
vt 0.625000 0.000000
vt 0.625000 0.400000
vt 0.500000 0.400000
vt 0.625000 0.000000
vt 0.750000 0.000000
vt 0.750000 0.400000
vt 0.625000 0.400000
vt 0.750000 0.000000
vt 0.875000 0.000000
vt 0.875000 0.400000
vt 0.750000 0.400000
vt 0.875000 0.000000
vt 1.000000 0.000000
vt 1.000000 0.400000
vt 0.875000 0.400000
vt 0.000000 0.000000
vt 0.125000 0.000000
vt 0.125000 0.400000
vt 0.000000 0.400000
vt 0.125000 0.000000
vt 0.250000 0.000000
vt 0.250000 0.400000
vt 0.125000 0.400000
vt 0.250000 0.000000
vt 0.375000 0.000000
vt 0.375000 0.400000
vt 0.250000 0.400000
vt 0.375000 0.000000
vt 0.500000 0.000000
vt 0.500000 0.400000
vt 0.375000 0.400000
vt 0.500000 0.000000
vt 0.625000 0.000000
vt 0.625000 0.400000
vt 0.500000 0.400000
vt 0.625000 0.000000
vt 0.750000 0.000000
vt 0.750000 0.400000
vt 0.625000 0.400000
vt 0.750000 0.000000
vt 0.875000 0.000000
vt 0.875000 0.400000
vt 0.750000 0.400000
vt 0.875000 0.000000
vt 1.000000 0.000000
vt 1.000000 0.400000
vt 0.875000 0.400000
vt 0.000000 0.000000
vt 0.125000 0.000000
vt 0.125000 0.300000
vt 0.000000 0.300000
vt 0.125000 0.000000
vt 0.250000 0.000000
vt 0.250000 0.300000
vt 0.125000 0.300000
vt 0.250000 0.000000
vt 0.375000 0.000000
vt 0.375000 0.300000
vt 0.250000 0.300000
vt 0.375000 0.000000
vt 0.500000 0.000000
vt 0.500000 0.300000
vt 0.375000 0.300000
vt 0.500000 0.000000
vt 0.625000 0.000000
vt 0.625000 0.300000
vt 0.500000 0.300000
vt 0.625000 0.000000
vt 0.750000 0.000000
vt 0.750000 0.300000
vt 0.625000 0.300000
vt 0.750000 0.000000
vt 0.875000 0.000000
vt 0.875000 0.300000
vt 0.750000 0.300000
vt 0.875000 0.000000
vt 1.000000 0.000000
vt 1.000000 0.300000
vt 0.875000 0.300000
vt 0.000000 0.000000
vt 0.125000 0.000000
vt 0.125000 0.300000
vt 0.000000 0.300000
vt 0.125000 0.000000
vt 0.250000 0.000000
vt 0.250000 0.300000
vt 0.125000 0.300000
vt 0.250000 0.000000
vt 0.375000 0.000000
vt 0.375000 0.300000
vt 0.250000 0.300000
vt 0.375000 0.000000
vt 0.500000 0.000000
vt 0.500000 0.300000
vt 0.375000 0.300000
vt 0.500000 0.000000
vt 0.625000 0.000000
vt 0.625000 0.300000
vt 0.500000 0.300000
vt 0.625000 0.000000
vt 0.750000 0.000000
vt 0.750000 0.300000
vt 0.625000 0.300000
vt 0.750000 0.000000
vt 0.875000 0.000000
vt 0.875000 0.300000
vt 0.750000 0.300000
vt 0.875000 0.000000
vt 1.000000 0.000000
vt 1.000000 0.300000
vt 0.875000 0.300000
vn 0.000000 0.000000 1.000000
vn 0.000000 0.000000 -1.000000
vn 0.000000 1.000000 0.000000
vn 0.000000 -1.000000 0.000000
vn 1.000000 0.000000 0.000000
vn -1.000000 0.000000 0.000000
vn 0.000000 0.000000 1.000000
vn 0.000000 0.000000 -1.000000
vn 0.000000 1.000000 0.000000
vn 0.000000 -1.000000 0.000000
vn 1.000000 0.000000 0.000000
vn -1.000000 0.000000 0.000000
vn 0.000000 0.000000 1.000000
vn 0.000000 0.000000 -1.000000
vn 0.000000 1.000000 0.000000
vn 0.000000 -1.000000 0.000000
vn 1.000000 0.000000 0.000000
vn -1.000000 0.000000 0.000000
vn 0.000000 0.000000 1.000000
vn 0.000000 0.000000 -1.000000
vn 0.000000 1.000000 0.000000
vn 0.000000 -1.000000 0.000000
vn 1.000000 0.000000 0.000000
vn -1.000000 0.000000 0.000000
vn 0.000000 0.000000 1.000000
vn 0.000000 0.000000 -1.000000
vn 0.000000 1.000000 0.000000
vn 0.000000 -1.000000 0.000000
vn 1.000000 0.000000 0.000000
vn -1.000000 0.000000 0.000000
vn 0.000000 0.000000 -1.000000
vn 0.000000 0.707107 -0.707107
vn 0.000000 0.707107 -0.707107
vn 0.000000 1.000000 -0.000000
vn 0.000000 1.000000 -0.000000
vn -0.000000 0.707107 0.707107
vn -0.000000 0.707107 0.707107
vn -0.000000 0.000000 1.000000
vn -0.000000 0.000000 1.000000
vn 0.000000 -0.707107 0.707107
vn 0.000000 -0.707107 0.707107
vn 0.000000 -1.000000 0.000000
vn 0.000000 -1.000000 0.000000
vn 0.000000 -0.707107 -0.707107
vn 0.000000 -0.707107 -0.707107
vn 0.000000 0.000000 -1.000000
vn 0.000000 0.000000 -1.000000
vn 0.000000 0.707107 -0.707107
vn 0.000000 0.707107 -0.707107
vn 0.000000 1.000000 -0.000000
vn 0.000000 1.000000 -0.000000
vn -0.000000 0.707107 0.707107
vn -0.000000 0.707107 0.707107
vn -0.000000 0.000000 1.000000
vn -0.000000 0.000000 1.000000
vn 0.000000 -0.707107 0.707107
vn 0.000000 -0.707107 0.707107
vn 0.000000 -1.000000 0.000000
vn 0.000000 -1.000000 0.000000
vn 0.000000 -0.707107 -0.707107
vn 0.000000 -0.707107 -0.707107
vn 0.000000 0.000000 -1.000000
vn 1.000000 0.000000 0.000000
vn 0.707107 0.707107 0.000000
vn 0.707107 0.707107 0.000000
vn 0.000000 1.000000 0.000000
vn 0.000000 1.000000 0.000000
vn -0.707107 0.707107 0.000000
vn -0.707107 0.707107 0.000000
vn -1.000000 0.000000 0.000000
vn -1.000000 0.000000 0.000000
vn -0.707107 -0.707107 -0.000000
vn -0.707107 -0.707107 -0.000000
vn -0.000000 -1.000000 -0.000000
vn -0.000000 -1.000000 -0.000000
vn 0.707107 -0.707107 0.000000
vn 0.707107 -0.707107 0.000000
vn 1.000000 0.000000 0.000000
vn 1.000000 0.000000 0.000000
vn 0.707107 0.707107 0.000000
vn 0.707107 0.707107 0.000000
vn 0.000000 1.000000 0.000000
vn 0.000000 1.000000 0.000000
vn -0.707107 0.707107 0.000000
vn -0.707107 0.707107 0.000000
vn -1.000000 0.000000 0.000000
vn -1.000000 0.000000 0.000000
vn -0.707107 -0.707107 -0.000000
vn -0.707107 -0.707107 -0.000000
vn -0.000000 -1.000000 -0.000000
vn -0.000000 -1.000000 -0.000000
vn 0.707107 -0.707107 0.000000
vn 0.707107 -0.707107 0.000000
vn 1.000000 0.000000 0.000000
s 1
f 2/1/1 6/2/1 8/3/1
f 2/1/1 8/3/1 4/4/1
f 5/5/2 1/6/2 3/7/2
f 5/5/2 3/7/2 7/8/2
f 4/9/3 8/10/3 7/11/3
f 4/9/3 7/11/3 3/12/3
f 1/13/4 5/14/4 6/15/4
f 1/13/4 6/15/4 2/16/4
f 6/17/5 5/18/5 7/19/5
f 6/17/5 7/19/5 8/20/5
f 1/21/6 2/22/6 4/23/6
f 1/21/6 4/23/6 3/24/6
f 10/25/7 14/26/7 16/27/7
f 10/25/7 16/27/7 12/28/7
f 13/29/8 9/30/8 11/31/8
f 13/29/8 11/31/8 15/32/8
f 12/33/9 16/34/9 15/35/9
f 12/33/9 15/35/9 11/36/9
f 9/37/10 13/38/10 14/39/10
f 9/37/10 14/39/10 10/40/10
f 14/41/11 13/42/11 15/43/11
f 14/41/11 15/43/11 16/44/11
f 9/45/12 10/46/12 12/47/12
f 9/45/12 12/47/12 11/48/12
f 18/49/13 22/50/13 24/51/13
f 18/49/13 24/51/13 20/52/13
f 21/53/14 17/54/14 19/55/14
f 21/53/14 19/55/14 23/56/14
f 20/57/15 24/58/15 23/59/15
f 20/57/15 23/59/15 19/60/15
f 17/61/16 21/62/16 22/63/16
f 17/61/16 22/63/16 18/64/16
f 22/65/17 21/66/17 23/67/17
f 22/65/17 23/67/17 24/68/17
f 17/69/18 18/70/18 20/71/18
f 17/69/18 20/71/18 19/72/18
f 26/73/19 30/74/19 32/75/19
f 26/73/19 32/75/19 28/76/19
f 29/77/20 25/78/20 27/79/20
f 29/77/20 27/79/20 31/80/20
f 28/81/21 32/82/21 31/83/21
f 28/81/21 31/83/21 27/84/21
f 25/85/22 29/86/22 30/87/22
f 25/85/22 30/87/22 26/88/22
f 30/89/23 29/90/23 31/91/23
f 30/89/23 31/91/23 32/92/23
f 25/93/24 26/94/24 28/95/24
f 25/93/24 28/95/24 27/96/24
f 34/97/25 38/98/25 40/99/25
f 34/97/25 40/99/25 36/100/25
f 37/101/26 33/102/26 35/103/26
f 37/101/26 35/103/26 39/104/26
f 36/105/27 40/106/27 39/107/27
f 36/105/27 39/107/27 35/108/27
f 33/109/28 37/110/28 38/111/28
f 33/109/28 38/111/28 34/112/28
f 38/113/29 37/114/29 39/115/29
f 38/113/29 39/115/29 40/116/29
f 33/117/30 34/118/30 36/119/30
f 33/117/30 36/119/30 35/120/30
f 41/121/31 43/122/32 44/123/32
f 41/121/31 44/123/32 42/124/31
f 43/125/33 45/126/34 46/127/34
f 43/125/33 46/127/34 44/128/33
f 45/129/35 47/130/36 48/131/36
f 45/129/35 48/131/36 46/132/35
f 47/133/37 49/134/38 50/135/38
f 47/133/37 50/135/38 48/136/37
f 49/137/39 51/138/40 52/139/40
f 49/137/39 52/139/40 50/140/39
f 51/141/41 53/142/42 54/143/42
f 51/141/41 54/143/42 52/144/41
f 53/145/43 55/146/44 56/147/44
f 53/145/43 56/147/44 54/148/43
f 55/149/45 41/150/46 42/151/46
f 55/149/45 42/151/46 56/152/45
f 57/153/47 59/154/48 60/155/48
f 57/153/47 60/155/48 58/156/47
f 59/157/49 61/158/50 62/159/50
f 59/157/49 62/159/50 60/160/49
f 61/161/51 63/162/52 64/163/52
f 61/161/51 64/163/52 62/164/51
f 63/165/53 65/166/54 66/167/54
f 63/165/53 66/167/54 64/168/53
f 65/169/55 67/170/56 68/171/56
f 65/169/55 68/171/56 66/172/55
f 67/173/57 69/174/58 70/175/58
f 67/173/57 70/175/58 68/176/57
f 69/177/59 71/178/60 72/179/60
f 69/177/59 72/179/60 70/180/59
f 71/181/61 57/182/62 58/183/62
f 71/181/61 58/183/62 72/184/61
f 73/185/63 75/186/64 76/187/64
f 73/185/63 76/187/64 74/188/63
f 75/189/65 77/190/66 78/191/66
f 75/189/65 78/191/66 76/192/65
f 77/193/67 79/194/68 80/195/68
f 77/193/67 80/195/68 78/196/67
f 79/197/69 81/198/70 82/199/70
f 79/197/69 82/199/70 80/200/69
f 81/201/71 83/202/72 84/203/72
f 81/201/71 84/203/72 82/204/71
f 83/205/73 85/206/74 86/207/74
f 83/205/73 86/207/74 84/208/73
f 85/209/75 87/210/76 88/211/76
f 85/209/75 88/211/76 86/212/75
f 87/213/77 73/214/78 74/215/78
f 87/213/77 74/215/78 88/216/77
f 89/217/79 91/218/80 92/219/80
f 89/217/79 92/219/80 90/220/79
f 91/221/81 93/222/82 94/223/82
f 91/221/81 94/223/82 92/224/81
f 93/225/83 95/226/84 96/227/84
f 93/225/83 96/227/84 94/228/83
f 95/229/85 97/230/86 98/231/86
f 95/229/85 98/231/86 96/232/85
f 97/233/87 99/234/88 100/235/88
f 97/233/87 100/235/88 98/236/87
f 99/237/89 101/238/90 102/239/90
f 99/237/89 102/239/90 100/240/89
f 101/241/91 103/242/92 104/243/92
f 101/241/91 104/243/92 102/244/91
f 103/245/93 89/246/94 90/247/94
f 103/245/93 90/247/94 104/248/93
