# Wavefront OBJ: SM_YellowCrateTable
o SM_YellowCrateTable
v -0.225000 0.305000 -0.175000
v -0.225000 0.305000 0.175000
v -0.225000 0.320000 -0.175000
v -0.225000 0.320000 0.175000
v 0.225000 0.305000 -0.175000
v 0.225000 0.305000 0.175000
v 0.225000 0.320000 -0.175000
v 0.225000 0.320000 0.175000
v -0.225000 0.000000 -0.175000
v -0.225000 0.000000 -0.135000
v -0.225000 0.305000 -0.175000
v -0.225000 0.305000 -0.135000
v -0.185000 0.000000 -0.175000
v -0.185000 0.000000 -0.135000
v -0.185000 0.305000 -0.175000
v -0.185000 0.305000 -0.135000
v -0.225000 0.000000 0.135000
v -0.225000 0.000000 0.175000
v -0.225000 0.305000 0.135000
v -0.225000 0.305000 0.175000
v -0.185000 0.000000 0.135000
v -0.185000 0.000000 0.175000
v -0.185000 0.305000 0.135000
v -0.185000 0.305000 0.175000
v 0.185000 0.000000 -0.175000
v 0.185000 0.000000 -0.135000
v 0.185000 0.305000 -0.175000
v 0.185000 0.305000 -0.135000
v 0.225000 0.000000 -0.175000
v 0.225000 0.000000 -0.135000
v 0.225000 0.305000 -0.175000
v 0.225000 0.305000 -0.135000
v 0.185000 0.000000 0.135000
v 0.185000 0.000000 0.175000
v 0.185000 0.305000 0.135000
v 0.185000 0.305000 0.175000
v 0.225000 0.000000 0.135000
v 0.225000 0.000000 0.175000
v 0.225000 0.305000 0.135000
v 0.225000 0.305000 0.175000
v -0.225000 0.000000 0.160000
v -0.225000 0.000000 0.175000
v -0.225000 0.022500 0.160000
v -0.225000 0.022500 0.175000
v 0.225000 0.000000 0.160000
v 0.225000 0.000000 0.175000
v 0.225000 0.022500 0.160000
v 0.225000 0.022500 0.175000
v -0.225000 0.000000 -0.175000
v -0.225000 0.000000 -0.160000
v -0.225000 0.022500 -0.175000
v -0.225000 0.022500 -0.160000
v 0.225000 0.000000 -0.175000
v 0.225000 0.000000 -0.160000
v 0.225000 0.022500 -0.175000
v 0.225000 0.022500 -0.160000
v -0.225000 0.000000 -0.160000
v -0.225000 0.000000 0.160000
v -0.225000 0.022500 -0.160000
v -0.225000 0.022500 0.160000
v -0.210000 0.000000 -0.160000
v -0.210000 0.000000 0.160000
v -0.210000 0.022500 -0.160000
v -0.210000 0.022500 0.160000
v 0.210000 0.000000 -0.160000
v 0.210000 0.000000 0.160000
v 0.210000 0.022500 -0.160000
v 0.210000 0.022500 0.160000
v 0.225000 0.000000 -0.160000
v 0.225000 0.000000 0.160000
v 0.225000 0.022500 -0.160000
v 0.225000 0.022500 0.160000
v -0.225000 0.144000 0.160000
v -0.225000 0.144000 0.175000
v -0.225000 0.159000 0.160000
v -0.225000 0.159000 0.175000
v 0.225000 0.144000 0.160000
v 0.225000 0.144000 0.175000
v 0.225000 0.159000 0.160000
v 0.225000 0.159000 0.175000
v -0.225000 0.144000 -0.175000
v -0.225000 0.144000 -0.160000
v -0.225000 0.159000 -0.175000
v -0.225000 0.159000 -0.160000
v 0.225000 0.144000 -0.175000
v 0.225000 0.144000 -0.160000
v 0.225000 0.159000 -0.175000
v 0.225000 0.159000 -0.160000
v -0.225000 0.144000 -0.160000
v -0.225000 0.144000 0.160000
v -0.225000 0.159000 -0.160000
v -0.225000 0.159000 0.160000
v -0.210000 0.144000 -0.160000
v -0.210000 0.144000 0.160000
v -0.210000 0.159000 -0.160000
v -0.210000 0.159000 0.160000
v 0.210000 0.144000 -0.160000
v 0.210000 0.144000 0.160000
v 0.210000 0.159000 -0.160000
v 0.210000 0.159000 0.160000
v 0.225000 0.144000 -0.160000
v 0.225000 0.144000 0.160000
v 0.225000 0.159000 -0.160000
v 0.225000 0.159000 0.160000
v -0.170000 0.022500 0.160000
v -0.170000 0.022500 0.175000
v -0.170000 0.305000 0.160000
v -0.170000 0.305000 0.175000
v -0.160000 0.022500 0.160000
v -0.160000 0.022500 0.175000
v -0.160000 0.305000 0.160000
v -0.160000 0.305000 0.175000
v -0.170000 0.022500 -0.175000
v -0.170000 0.022500 -0.160000
v -0.170000 0.305000 -0.175000
v -0.170000 0.305000 -0.160000
v -0.160000 0.022500 -0.175000
v -0.160000 0.022500 -0.160000
v -0.160000 0.305000 -0.175000
v -0.160000 0.305000 -0.160000
v -0.115000 0.022500 0.160000
v -0.115000 0.022500 0.175000
v -0.115000 0.305000 0.160000
v -0.115000 0.305000 0.175000
v -0.105000 0.022500 0.160000
v -0.105000 0.022500 0.175000
v -0.105000 0.305000 0.160000
v -0.105000 0.305000 0.175000
v -0.115000 0.022500 -0.175000
v -0.115000 0.022500 -0.160000
v -0.115000 0.305000 -0.175000
v -0.115000 0.305000 -0.160000
v -0.105000 0.022500 -0.175000
v -0.105000 0.022500 -0.160000
v -0.105000 0.305000 -0.175000
v -0.105000 0.305000 -0.160000
v -0.060000 0.022500 0.160000
v -0.060000 0.022500 0.175000
v -0.060000 0.305000 0.160000
v -0.060000 0.305000 0.175000
v -0.050000 0.022500 0.160000
v -0.050000 0.022500 0.175000
v -0.050000 0.305000 0.160000
v -0.050000 0.305000 0.175000
v -0.060000 0.022500 -0.175000
v -0.060000 0.022500 -0.160000
v -0.060000 0.305000 -0.175000
v -0.060000 0.305000 -0.160000
v -0.050000 0.022500 -0.175000
v -0.050000 0.022500 -0.160000
v -0.050000 0.305000 -0.175000
v -0.050000 0.305000 -0.160000
v -0.005000 0.022500 0.160000
v -0.005000 0.022500 0.175000
v -0.005000 0.305000 0.160000
v -0.005000 0.305000 0.175000
v 0.005000 0.022500 0.160000
v 0.005000 0.022500 0.175000
v 0.005000 0.305000 0.160000
v 0.005000 0.305000 0.175000
v -0.005000 0.022500 -0.175000
v -0.005000 0.022500 -0.160000
v -0.005000 0.305000 -0.175000
v -0.005000 0.305000 -0.160000
v 0.005000 0.022500 -0.175000
v 0.005000 0.022500 -0.160000
v 0.005000 0.305000 -0.175000
v 0.005000 0.305000 -0.160000
v 0.050000 0.022500 0.160000
v 0.050000 0.022500 0.175000
v 0.050000 0.305000 0.160000
v 0.050000 0.305000 0.175000
v 0.060000 0.022500 0.160000
v 0.060000 0.022500 0.175000
v 0.060000 0.305000 0.160000
v 0.060000 0.305000 0.175000
v 0.050000 0.022500 -0.175000
v 0.050000 0.022500 -0.160000
v 0.050000 0.305000 -0.175000
v 0.050000 0.305000 -0.160000
v 0.060000 0.022500 -0.175000
v 0.060000 0.022500 -0.160000
v 0.060000 0.305000 -0.175000
v 0.060000 0.305000 -0.160000
v 0.105000 0.022500 0.160000
v 0.105000 0.022500 0.175000
v 0.105000 0.305000 0.160000
v 0.105000 0.305000 0.175000
v 0.115000 0.022500 0.160000
v 0.115000 0.022500 0.175000
v 0.115000 0.305000 0.160000
v 0.115000 0.305000 0.175000
v 0.105000 0.022500 -0.175000
v 0.105000 0.022500 -0.160000
v 0.105000 0.305000 -0.175000
v 0.105000 0.305000 -0.160000
v 0.115000 0.022500 -0.175000
v 0.115000 0.022500 -0.160000
v 0.115000 0.305000 -0.175000
v 0.115000 0.305000 -0.160000
v 0.160000 0.022500 0.160000
v 0.160000 0.022500 0.175000
v 0.160000 0.305000 0.160000
v 0.160000 0.305000 0.175000
v 0.170000 0.022500 0.160000
v 0.170000 0.022500 0.175000
v 0.170000 0.305000 0.160000
v 0.170000 0.305000 0.175000
v 0.160000 0.022500 -0.175000
v 0.160000 0.022500 -0.160000
v 0.160000 0.305000 -0.175000
v 0.160000 0.305000 -0.160000
v 0.170000 0.022500 -0.175000
v 0.170000 0.022500 -0.160000
v 0.170000 0.305000 -0.175000
v 0.170000 0.305000 -0.160000
vt 0.000000 0.000000
vt 0.450000 0.000000
vt 0.450000 0.015000
vt 0.000000 0.015000
vt 0.000000 0.000000
vt 0.450000 0.000000
vt 0.450000 0.015000
vt 0.000000 0.015000
vt 0.000000 0.000000
vt 0.450000 0.000000
vt 0.450000 0.350000
vt 0.000000 0.350000
vt 0.000000 0.000000
vt 0.450000 0.000000
vt 0.450000 0.350000
vt 0.000000 0.350000
vt 0.000000 0.000000
vt 0.350000 0.000000
vt 0.350000 0.015000
vt 0.000000 0.015000
vt 0.000000 0.000000
vt 0.350000 0.000000
vt 0.350000 0.015000
vt 0.000000 0.015000
vt 0.000000 0.000000
vt 0.040000 0.000000
vt 0.040000 0.305000
vt 0.000000 0.305000
vt 0.000000 0.000000
vt 0.040000 0.000000
vt 0.040000 0.305000
vt 0.000000 0.305000
vt 0.000000 0.000000
vt 0.040000 0.000000
vt 0.040000 0.040000
vt 0.000000 0.040000
vt 0.000000 0.000000
vt 0.040000 0.000000
vt 0.040000 0.040000
vt 0.000000 0.040000
vt 0.000000 0.000000
vt 0.040000 0.000000
vt 0.040000 0.305000
vt 0.000000 0.305000
vt 0.000000 0.000000
vt 0.040000 0.000000
vt 0.040000 0.305000
vt 0.000000 0.305000
vt 0.000000 0.000000
vt 0.040000 0.000000
vt 0.040000 0.305000
vt 0.000000 0.305000
vt 0.000000 0.000000
vt 0.040000 0.000000
vt 0.040000 0.305000
vt 0.000000 0.305000
vt 0.000000 0.000000
vt 0.040000 0.000000
vt 0.040000 0.040000
vt 0.000000 0.040000
vt 0.000000 0.000000
vt 0.040000 0.000000
vt 0.040000 0.040000
vt 0.000000 0.040000
vt 0.000000 0.000000
vt 0.040000 0.000000
vt 0.040000 0.305000
vt 0.000000 0.305000
vt 0.000000 0.000000
vt 0.040000 0.000000
vt 0.040000 0.305000
vt 0.000000 0.305000
vt 0.000000 0.000000
vt 0.040000 0.000000
vt 0.040000 0.305000
vt 0.000000 0.305000
vt 0.000000 0.000000
vt 0.040000 0.000000
vt 0.040000 0.305000
vt 0.000000 0.305000
vt 0.000000 0.000000
vt 0.040000 0.000000
vt 0.040000 0.040000
vt 0.000000 0.040000
vt 0.000000 0.000000
vt 0.040000 0.000000
vt 0.040000 0.040000
vt 0.000000 0.040000
vt 0.000000 0.000000
vt 0.040000 0.000000
vt 0.040000 0.305000
vt 0.000000 0.305000
vt 0.000000 0.000000
vt 0.040000 0.000000
vt 0.040000 0.305000
vt 0.000000 0.305000
vt 0.000000 0.000000
vt 0.040000 0.000000
vt 0.040000 0.305000
vt 0.000000 0.305000
vt 0.000000 0.000000
vt 0.040000 0.000000
vt 0.040000 0.305000
vt 0.000000 0.305000
vt 0.000000 0.000000
vt 0.040000 0.000000
vt 0.040000 0.040000
vt 0.000000 0.040000
vt 0.000000 0.000000
vt 0.040000 0.000000
vt 0.040000 0.040000
vt 0.000000 0.040000
vt 0.000000 0.000000
vt 0.040000 0.000000
vt 0.040000 0.305000
vt 0.000000 0.305000
vt 0.000000 0.000000
vt 0.040000 0.000000
vt 0.040000 0.305000
vt 0.000000 0.305000
vt 0.000000 0.000000
vt 0.450000 0.000000
vt 0.450000 0.022500
vt 0.000000 0.022500
vt 0.000000 0.000000
vt 0.450000 0.000000
vt 0.450000 0.022500
vt 0.000000 0.022500
vt 0.000000 0.000000
vt 0.450000 0.000000
vt 0.450000 0.015000
vt 0.000000 0.015000
vt 0.000000 0.000000
vt 0.450000 0.000000
vt 0.450000 0.015000
vt 0.000000 0.015000
vt 0.000000 0.000000
vt 0.015000 0.000000
vt 0.015000 0.022500
vt 0.000000 0.022500
vt 0.000000 0.000000
vt 0.015000 0.000000
vt 0.015000 0.022500
vt 0.000000 0.022500
vt 0.000000 0.000000
vt 0.450000 0.000000
vt 0.450000 0.022500
vt 0.000000 0.022500
vt 0.000000 0.000000
vt 0.450000 0.000000
vt 0.450000 0.022500
vt 0.000000 0.022500
vt 0.000000 0.000000
vt 0.450000 0.000000
vt 0.450000 0.015000
vt 0.000000 0.015000
vt 0.000000 0.000000
vt 0.450000 0.000000
vt 0.450000 0.015000
vt 0.000000 0.015000
vt 0.000000 0.000000
vt 0.015000 0.000000
vt 0.015000 0.022500
vt 0.000000 0.022500
vt 0.000000 0.000000
vt 0.015000 0.000000
vt 0.015000 0.022500
vt 0.000000 0.022500
vt 0.000000 0.000000
vt 0.015000 0.000000
vt 0.015000 0.022500
vt 0.000000 0.022500
vt 0.000000 0.000000
vt 0.015000 0.000000
vt 0.015000 0.022500
vt 0.000000 0.022500
vt 0.000000 0.000000
vt 0.015000 0.000000
vt 0.015000 0.320000
vt 0.000000 0.320000
vt 0.000000 0.000000
vt 0.015000 0.000000
vt 0.015000 0.320000
vt 0.000000 0.320000
vt 0.000000 0.000000
vt 0.320000 0.000000
vt 0.320000 0.022500
vt 0.000000 0.022500
vt 0.000000 0.000000
vt 0.320000 0.000000
vt 0.320000 0.022500
vt 0.000000 0.022500
vt 0.000000 0.000000
vt 0.015000 0.000000
vt 0.015000 0.022500
vt 0.000000 0.022500
vt 0.000000 0.000000
vt 0.015000 0.000000
vt 0.015000 0.022500
vt 0.000000 0.022500
vt 0.000000 0.000000
vt 0.015000 0.000000
vt 0.015000 0.320000
vt 0.000000 0.320000
vt 0.000000 0.000000
vt 0.015000 0.000000
vt 0.015000 0.320000
vt 0.000000 0.320000
vt 0.000000 0.000000
vt 0.320000 0.000000
vt 0.320000 0.022500
vt 0.000000 0.022500
vt 0.000000 0.000000
vt 0.320000 0.000000
vt 0.320000 0.022500
vt 0.000000 0.022500
vt 0.000000 0.000000
vt 0.450000 0.000000
vt 0.450000 0.015000
vt 0.000000 0.015000
vt 0.000000 0.000000
vt 0.450000 0.000000
vt 0.450000 0.015000
vt 0.000000 0.015000
vt 0.000000 0.000000
vt 0.450000 0.000000
vt 0.450000 0.015000
vt 0.000000 0.015000
vt 0.000000 0.000000
vt 0.450000 0.000000
vt 0.450000 0.015000
vt 0.000000 0.015000
vt 0.000000 0.000000
vt 0.015000 0.000000
vt 0.015000 0.015000
vt 0.000000 0.015000
vt 0.000000 0.000000
vt 0.015000 0.000000
vt 0.015000 0.015000
vt 0.000000 0.015000
vt 0.000000 0.000000
vt 0.450000 0.000000
vt 0.450000 0.015000
vt 0.000000 0.015000
vt 0.000000 0.000000
vt 0.450000 0.000000
vt 0.450000 0.015000
vt 0.000000 0.015000
vt 0.000000 0.000000
vt 0.450000 0.000000
vt 0.450000 0.015000
vt 0.000000 0.015000
vt 0.000000 0.000000
vt 0.450000 0.000000
vt 0.450000 0.015000
vt 0.000000 0.015000
vt 0.000000 0.000000
vt 0.015000 0.000000
vt 0.015000 0.015000
vt 0.000000 0.015000
vt 0.000000 0.000000
vt 0.015000 0.000000
vt 0.015000 0.015000
vt 0.000000 0.015000
vt 0.000000 0.000000
vt 0.015000 0.000000
vt 0.015000 0.015000
vt 0.000000 0.015000
vt 0.000000 0.000000
vt 0.015000 0.000000
vt 0.015000 0.015000
vt 0.000000 0.015000
vt 0.000000 0.000000
vt 0.015000 0.000000
vt 0.015000 0.320000
vt 0.000000 0.320000
vt 0.000000 0.000000
vt 0.015000 0.000000
vt 0.015000 0.320000
vt 0.000000 0.320000
vt 0.000000 0.000000
vt 0.320000 0.000000
vt 0.320000 0.015000
vt 0.000000 0.015000
vt 0.000000 0.000000
vt 0.320000 0.000000
vt 0.320000 0.015000
vt 0.000000 0.015000
vt 0.000000 0.000000
vt 0.015000 0.000000
vt 0.015000 0.015000
vt 0.000000 0.015000
vt 0.000000 0.000000
vt 0.015000 0.000000
vt 0.015000 0.015000
vt 0.000000 0.015000
vt 0.000000 0.000000
vt 0.015000 0.000000
vt 0.015000 0.320000
vt 0.000000 0.320000
vt 0.000000 0.000000
vt 0.015000 0.000000
vt 0.015000 0.320000
vt 0.000000 0.320000
vt 0.000000 0.000000
vt 0.320000 0.000000
vt 0.320000 0.015000
vt 0.000000 0.015000
vt 0.000000 0.000000
vt 0.320000 0.000000
vt 0.320000 0.015000
vt 0.000000 0.015000
vt 0.000000 0.000000
vt 0.010000 0.000000
vt 0.010000 0.282500
vt 0.000000 0.282500
vt 0.000000 0.000000
vt 0.010000 0.000000
vt 0.010000 0.282500
vt 0.000000 0.282500
vt 0.000000 0.000000
vt 0.010000 0.000000
vt 0.010000 0.015000
vt 0.000000 0.015000
vt 0.000000 0.000000
vt 0.010000 0.000000
vt 0.010000 0.015000
vt 0.000000 0.015000
vt 0.000000 0.000000
vt 0.015000 0.000000
vt 0.015000 0.282500
vt 0.000000 0.282500
vt 0.000000 0.000000
vt 0.015000 0.000000
vt 0.015000 0.282500
vt 0.000000 0.282500
vt 0.000000 0.000000
vt 0.010000 0.000000
vt 0.010000 0.282500
vt 0.000000 0.282500
vt 0.000000 0.000000
vt 0.010000 0.000000
vt 0.010000 0.282500
vt 0.000000 0.282500
vt 0.000000 0.000000
vt 0.010000 0.000000
vt 0.010000 0.015000
vt 0.000000 0.015000
vt 0.000000 0.000000
vt 0.010000 0.000000
vt 0.010000 0.015000
vt 0.000000 0.015000
vt 0.000000 0.000000
vt 0.015000 0.000000
vt 0.015000 0.282500
vt 0.000000 0.282500
vt 0.000000 0.000000
vt 0.015000 0.000000
vt 0.015000 0.282500
vt 0.000000 0.282500
vt 0.000000 0.000000
vt 0.010000 0.000000
vt 0.010000 0.282500
vt 0.000000 0.282500
vt 0.000000 0.000000
vt 0.010000 0.000000
vt 0.010000 0.282500
vt 0.000000 0.282500
vt 0.000000 0.000000
vt 0.010000 0.000000
vt 0.010000 0.015000
vt 0.000000 0.015000
vt 0.000000 0.000000
vt 0.010000 0.000000
vt 0.010000 0.015000
vt 0.000000 0.015000
vt 0.000000 0.000000
vt 0.015000 0.000000
vt 0.015000 0.282500
vt 0.000000 0.282500
vt 0.000000 0.000000
vt 0.015000 0.000000
vt 0.015000 0.282500
vt 0.000000 0.282500
vt 0.000000 0.000000
vt 0.010000 0.000000
vt 0.010000 0.282500
vt 0.000000 0.282500
vt 0.000000 0.000000
vt 0.010000 0.000000
vt 0.010000 0.282500
vt 0.000000 0.282500
vt 0.000000 0.000000
vt 0.010000 0.000000
vt 0.010000 0.015000
vt 0.000000 0.015000
vt 0.000000 0.000000
vt 0.010000 0.000000
vt 0.010000 0.015000
vt 0.000000 0.015000
vt 0.000000 0.000000
vt 0.015000 0.000000
vt 0.015000 0.282500
vt 0.000000 0.282500
vt 0.000000 0.000000
vt 0.015000 0.000000
vt 0.015000 0.282500
vt 0.000000 0.282500
vt 0.000000 0.000000
vt 0.010000 0.000000
vt 0.010000 0.282500
vt 0.000000 0.282500
vt 0.000000 0.000000
vt 0.010000 0.000000
vt 0.010000 0.282500
vt 0.000000 0.282500
vt 0.000000 0.000000
vt 0.010000 0.000000
vt 0.010000 0.015000
vt 0.000000 0.015000
vt 0.000000 0.000000
vt 0.010000 0.000000
vt 0.010000 0.015000
vt 0.000000 0.015000
vt 0.000000 0.000000
vt 0.015000 0.000000
vt 0.015000 0.282500
vt 0.000000 0.282500
vt 0.000000 0.000000
vt 0.015000 0.000000
vt 0.015000 0.282500
vt 0.000000 0.282500
vt 0.000000 0.000000
vt 0.010000 0.000000
vt 0.010000 0.282500
vt 0.000000 0.282500
vt 0.000000 0.000000
vt 0.010000 0.000000
vt 0.010000 0.282500
vt 0.000000 0.282500
vt 0.000000 0.000000
vt 0.010000 0.000000
vt 0.010000 0.015000
vt 0.000000 0.015000
vt 0.000000 0.000000
vt 0.010000 0.000000
vt 0.010000 0.015000
vt 0.000000 0.015000
vt 0.000000 0.000000
vt 0.015000 0.000000
vt 0.015000 0.282500
vt 0.000000 0.282500
vt 0.000000 0.000000
vt 0.015000 0.000000
vt 0.015000 0.282500
vt 0.000000 0.282500
vt 0.000000 0.000000
vt 0.010000 0.000000
vt 0.010000 0.282500
vt 0.000000 0.282500
vt 0.000000 0.000000
vt 0.010000 0.000000
vt 0.010000 0.282500
vt 0.000000 0.282500
vt 0.000000 0.000000
vt 0.010000 0.000000
vt 0.010000 0.015000
vt 0.000000 0.015000
vt 0.000000 0.000000
vt 0.010000 0.000000
vt 0.010000 0.015000
vt 0.000000 0.015000
vt 0.000000 0.000000
vt 0.015000 0.000000
vt 0.015000 0.282500
vt 0.000000 0.282500
vt 0.000000 0.000000
vt 0.015000 0.000000
vt 0.015000 0.282500
vt 0.000000 0.282500
vt 0.000000 0.000000
vt 0.010000 0.000000
vt 0.010000 0.282500
vt 0.000000 0.282500
vt 0.000000 0.000000
vt 0.010000 0.000000
vt 0.010000 0.282500
vt 0.000000 0.282500
vt 0.000000 0.000000
vt 0.010000 0.000000
vt 0.010000 0.015000
vt 0.000000 0.015000
vt 0.000000 0.000000
vt 0.010000 0.000000
vt 0.010000 0.015000
vt 0.000000 0.015000
vt 0.000000 0.000000
vt 0.015000 0.000000
vt 0.015000 0.282500
vt 0.000000 0.282500
vt 0.000000 0.000000
vt 0.015000 0.000000
vt 0.015000 0.282500
vt 0.000000 0.282500
vt 0.000000 0.000000
vt 0.010000 0.000000
vt 0.010000 0.282500
vt 0.000000 0.282500
vt 0.000000 0.000000
vt 0.010000 0.000000
vt 0.010000 0.282500
vt 0.000000 0.282500
vt 0.000000 0.000000
vt 0.010000 0.000000
vt 0.010000 0.015000
vt 0.000000 0.015000
vt 0.000000 0.000000
vt 0.010000 0.000000
vt 0.010000 0.015000
vt 0.000000 0.015000
vt 0.000000 0.000000
vt 0.015000 0.000000
vt 0.015000 0.282500
vt 0.000000 0.282500
vt 0.000000 0.000000
vt 0.015000 0.000000
vt 0.015000 0.282500
vt 0.000000 0.282500
vt 0.000000 0.000000
vt 0.010000 0.000000
vt 0.010000 0.282500
vt 0.000000 0.282500
vt 0.000000 0.000000
vt 0.010000 0.000000
vt 0.010000 0.282500
vt 0.000000 0.282500
vt 0.000000 0.000000
vt 0.010000 0.000000
vt 0.010000 0.015000
vt 0.000000 0.015000
vt 0.000000 0.000000
vt 0.010000 0.000000
vt 0.010000 0.015000
vt 0.000000 0.015000
vt 0.000000 0.000000
vt 0.015000 0.000000
vt 0.015000 0.282500
vt 0.000000 0.282500
vt 0.000000 0.000000
vt 0.015000 0.000000
vt 0.015000 0.282500
vt 0.000000 0.282500
vt 0.000000 0.000000
vt 0.010000 0.000000
vt 0.010000 0.282500
vt 0.000000 0.282500
vt 0.000000 0.000000
vt 0.010000 0.000000
vt 0.010000 0.282500
vt 0.000000 0.282500
vt 0.000000 0.000000
vt 0.010000 0.000000
vt 0.010000 0.015000
vt 0.000000 0.015000
vt 0.000000 0.000000
vt 0.010000 0.000000
vt 0.010000 0.015000
vt 0.000000 0.015000
vt 0.000000 0.000000
vt 0.015000 0.000000
vt 0.015000 0.282500
vt 0.000000 0.282500
vt 0.000000 0.000000
vt 0.015000 0.000000
vt 0.015000 0.282500
vt 0.000000 0.282500
vt 0.000000 0.000000
vt 0.010000 0.000000
vt 0.010000 0.282500
vt 0.000000 0.282500
vt 0.000000 0.000000
vt 0.010000 0.000000
vt 0.010000 0.282500
vt 0.000000 0.282500
vt 0.000000 0.000000
vt 0.010000 0.000000
vt 0.010000 0.015000
vt 0.000000 0.015000
vt 0.000000 0.000000
vt 0.010000 0.000000
vt 0.010000 0.015000
vt 0.000000 0.015000
vt 0.000000 0.000000
vt 0.015000 0.000000
vt 0.015000 0.282500
vt 0.000000 0.282500
vt 0.000000 0.000000
vt 0.015000 0.000000
vt 0.015000 0.282500
vt 0.000000 0.282500
vt 0.000000 0.000000
vt 0.010000 0.000000
vt 0.010000 0.282500
vt 0.000000 0.282500
vt 0.000000 0.000000
vt 0.010000 0.000000
vt 0.010000 0.282500
vt 0.000000 0.282500
vt 0.000000 0.000000
vt 0.010000 0.000000
vt 0.010000 0.015000
vt 0.000000 0.015000
vt 0.000000 0.000000
vt 0.010000 0.000000
vt 0.010000 0.015000
vt 0.000000 0.015000
vt 0.000000 0.000000
vt 0.015000 0.000000
vt 0.015000 0.282500
vt 0.000000 0.282500
vt 0.000000 0.000000
vt 0.015000 0.000000
vt 0.015000 0.282500
vt 0.000000 0.282500
vt 0.000000 0.000000
vt 0.010000 0.000000
vt 0.010000 0.282500
vt 0.000000 0.282500
vt 0.000000 0.000000
vt 0.010000 0.000000
vt 0.010000 0.282500
vt 0.000000 0.282500
vt 0.000000 0.000000
vt 0.010000 0.000000
vt 0.010000 0.015000
vt 0.000000 0.015000
vt 0.000000 0.000000
vt 0.010000 0.000000
vt 0.010000 0.015000
vt 0.000000 0.015000
vt 0.000000 0.000000
vt 0.015000 0.000000
vt 0.015000 0.282500
vt 0.000000 0.282500
vt 0.000000 0.000000
vt 0.015000 0.000000
vt 0.015000 0.282500
vt 0.000000 0.282500
vn 0.000000 0.000000 1.000000
vn 0.000000 0.000000 -1.000000
vn 0.000000 1.000000 0.000000
vn 0.000000 -1.000000 0.000000
vn 1.000000 0.000000 0.000000
vn -1.000000 0.000000 0.000000
vn 0.000000 0.000000 1.000000
vn 0.000000 0.000000 -1.000000
vn 0.000000 1.000000 0.000000
vn 0.000000 -1.000000 0.000000
vn 1.000000 0.000000 0.000000
vn -1.000000 0.000000 0.000000
vn 0.000000 0.000000 1.000000
vn 0.000000 0.000000 -1.000000
vn 0.000000 1.000000 0.000000
vn 0.000000 -1.000000 0.000000
vn 1.000000 0.000000 0.000000
vn -1.000000 0.000000 0.000000
vn 0.000000 0.000000 1.000000
vn 0.000000 0.000000 -1.000000
vn 0.000000 1.000000 0.000000
vn 0.000000 -1.000000 0.000000
vn 1.000000 0.000000 0.000000
vn -1.000000 0.000000 0.000000
vn 0.000000 0.000000 1.000000
vn 0.000000 0.000000 -1.000000
vn 0.000000 1.000000 0.000000
vn 0.000000 -1.000000 0.000000
vn 1.000000 0.000000 0.000000
vn -1.000000 0.000000 0.000000
vn 0.000000 0.000000 1.000000
vn 0.000000 0.000000 -1.000000
vn 0.000000 1.000000 0.000000
vn 0.000000 -1.000000 0.000000
vn 1.000000 0.000000 0.000000
vn -1.000000 0.000000 0.000000
vn 0.000000 0.000000 1.000000
vn 0.000000 0.000000 -1.000000
vn 0.000000 1.000000 0.000000
vn 0.000000 -1.000000 0.000000
vn 1.000000 0.000000 0.000000
vn -1.000000 0.000000 0.000000
vn 0.000000 0.000000 1.000000
vn 0.000000 0.000000 -1.000000
vn 0.000000 1.000000 0.000000
vn 0.000000 -1.000000 0.000000
vn 1.000000 0.000000 0.000000
vn -1.000000 0.000000 0.000000
vn 0.000000 0.000000 1.000000
vn 0.000000 0.000000 -1.000000
vn 0.000000 1.000000 0.000000
vn 0.000000 -1.000000 0.000000
vn 1.000000 0.000000 0.000000
vn -1.000000 0.000000 0.000000
vn 0.000000 0.000000 1.000000
vn 0.000000 0.000000 -1.000000
vn 0.000000 1.000000 0.000000
vn 0.000000 -1.000000 0.000000
vn 1.000000 0.000000 0.000000
vn -1.000000 0.000000 0.000000
vn 0.000000 0.000000 1.000000
vn 0.000000 0.000000 -1.000000
vn 0.000000 1.000000 0.000000
vn 0.000000 -1.000000 0.000000
vn 1.000000 0.000000 0.000000
vn -1.000000 0.000000 0.000000
vn 0.000000 0.000000 1.000000
vn 0.000000 0.000000 -1.000000
vn 0.000000 1.000000 0.000000
vn 0.000000 -1.000000 0.000000
vn 1.000000 0.000000 0.000000
vn -1.000000 0.000000 0.000000
vn 0.000000 0.000000 1.000000
vn 0.000000 0.000000 -1.000000
vn 0.000000 1.000000 0.000000
vn 0.000000 -1.000000 0.000000
vn 1.000000 0.000000 0.000000
vn -1.000000 0.000000 0.000000
vn 0.000000 0.000000 1.000000
vn 0.000000 0.000000 -1.000000
vn 0.000000 1.000000 0.000000
vn 0.000000 -1.000000 0.000000
vn 1.000000 0.000000 0.000000
vn -1.000000 0.000000 0.000000
vn 0.000000 0.000000 1.000000
vn 0.000000 0.000000 -1.000000
vn 0.000000 1.000000 0.000000
vn 0.000000 -1.000000 0.000000
vn 1.000000 0.000000 0.000000
vn -1.000000 0.000000 0.000000
vn 0.000000 0.000000 1.000000
vn 0.000000 0.000000 -1.000000
vn 0.000000 1.000000 0.000000
vn 0.000000 -1.000000 0.000000
vn 1.000000 0.000000 0.000000
vn -1.000000 0.000000 0.000000
vn 0.000000 0.000000 1.000000
vn 0.000000 0.000000 -1.000000
vn 0.000000 1.000000 0.000000
vn 0.000000 -1.000000 0.000000
vn 1.000000 0.000000 0.000000
vn -1.000000 0.000000 0.000000
vn 0.000000 0.000000 1.000000
vn 0.000000 0.000000 -1.000000
vn 0.000000 1.000000 0.000000
vn 0.000000 -1.000000 0.000000
vn 1.000000 0.000000 0.000000
vn -1.000000 0.000000 0.000000
vn 0.000000 0.000000 1.000000
vn 0.000000 0.000000 -1.000000
vn 0.000000 1.000000 0.000000
vn 0.000000 -1.000000 0.000000
vn 1.000000 0.000000 0.000000
vn -1.000000 0.000000 0.000000
vn 0.000000 0.000000 1.000000
vn 0.000000 0.000000 -1.000000
vn 0.000000 1.000000 0.000000
vn 0.000000 -1.000000 0.000000
vn 1.000000 0.000000 0.000000
vn -1.000000 0.000000 0.000000
vn 0.000000 0.000000 1.000000
vn 0.000000 0.000000 -1.000000
vn 0.000000 1.000000 0.000000
vn 0.000000 -1.000000 0.000000
vn 1.000000 0.000000 0.000000
vn -1.000000 0.000000 0.000000
vn 0.000000 0.000000 1.000000
vn 0.000000 0.000000 -1.000000
vn 0.000000 1.000000 0.000000
vn 0.000000 -1.000000 0.000000
vn 1.000000 0.000000 0.000000
vn -1.000000 0.000000 0.000000
vn 0.000000 0.000000 1.000000
vn 0.000000 0.000000 -1.000000
vn 0.000000 1.000000 0.000000
vn 0.000000 -1.000000 0.000000
vn 1.000000 0.000000 0.000000
vn -1.000000 0.000000 0.000000
vn 0.000000 0.000000 1.000000
vn 0.000000 0.000000 -1.000000
vn 0.000000 1.000000 0.000000
vn 0.000000 -1.000000 0.000000
vn 1.000000 0.000000 0.000000
vn -1.000000 0.000000 0.000000
vn 0.000000 0.000000 1.000000
vn 0.000000 0.000000 -1.000000
vn 0.000000 1.000000 0.000000
vn 0.000000 -1.000000 0.000000
vn 1.000000 0.000000 0.000000
vn -1.000000 0.000000 0.000000
vn 0.000000 0.000000 1.000000
vn 0.000000 0.000000 -1.000000
vn 0.000000 1.000000 0.000000
vn 0.000000 -1.000000 0.000000
vn 1.000000 0.000000 0.000000
vn -1.000000 0.000000 0.000000
vn 0.000000 0.000000 1.000000
vn 0.000000 0.000000 -1.000000
vn 0.000000 1.000000 0.000000
vn 0.000000 -1.000000 0.000000
vn 1.000000 0.000000 0.000000
vn -1.000000 0.000000 0.000000
s 1
f 2/1/1 6/2/1 8/3/1
f 2/1/1 8/3/1 4/4/1
f 5/5/2 1/6/2 3/7/2
f 5/5/2 3/7/2 7/8/2
f 4/9/3 8/10/3 7/11/3
f 4/9/3 7/11/3 3/12/3
f 1/13/4 5/14/4 6/15/4
f 1/13/4 6/15/4 2/16/4
f 6/17/5 5/18/5 7/19/5
f 6/17/5 7/19/5 8/20/5
f 1/21/6 2/22/6 4/23/6
f 1/21/6 4/23/6 3/24/6
f 10/25/7 14/26/7 16/27/7
f 10/25/7 16/27/7 12/28/7
f 13/29/8 9/30/8 11/31/8
f 13/29/8 11/31/8 15/32/8
f 12/33/9 16/34/9 15/35/9
f 12/33/9 15/35/9 11/36/9
f 9/37/10 13/38/10 14/39/10
f 9/37/10 14/39/10 10/40/10
f 14/41/11 13/42/11 15/43/11
f 14/41/11 15/43/11 16/44/11
f 9/45/12 10/46/12 12/47/12
f 9/45/12 12/47/12 11/48/12
f 18/49/13 22/50/13 24/51/13
f 18/49/13 24/51/13 20/52/13
f 21/53/14 17/54/14 19/55/14
f 21/53/14 19/55/14 23/56/14
f 20/57/15 24/58/15 23/59/15
f 20/57/15 23/59/15 19/60/15
f 17/61/16 21/62/16 22/63/16
f 17/61/16 22/63/16 18/64/16
f 22/65/17 21/66/17 23/67/17
f 22/65/17 23/67/17 24/68/17
f 17/69/18 18/70/18 20/71/18
f 17/69/18 20/71/18 19/72/18
f 26/73/19 30/74/19 32/75/19
f 26/73/19 32/75/19 28/76/19
f 29/77/20 25/78/20 27/79/20
f 29/77/20 27/79/20 31/80/20
f 28/81/21 32/82/21 31/83/21
f 28/81/21 31/83/21 27/84/21
f 25/85/22 29/86/22 30/87/22
f 25/85/22 30/87/22 26/88/22
f 30/89/23 29/90/23 31/91/23
f 30/89/23 31/91/23 32/92/23
f 25/93/24 26/94/24 28/95/24
f 25/93/24 28/95/24 27/96/24
f 34/97/25 38/98/25 40/99/25
f 34/97/25 40/99/25 36/100/25
f 37/101/26 33/102/26 35/103/26
f 37/101/26 35/103/26 39/104/26
f 36/105/27 40/106/27 39/107/27
f 36/105/27 39/107/27 35/108/27
f 33/109/28 37/110/28 38/111/28
f 33/109/28 38/111/28 34/112/28
f 38/113/29 37/114/29 39/115/29
f 38/113/29 39/115/29 40/116/29
f 33/117/30 34/118/30 36/119/30
f 33/117/30 36/119/30 35/120/30
f 42/121/31 46/122/31 48/123/31
f 42/121/31 48/123/31 44/124/31
f 45/125/32 41/126/32 43/127/32
f 45/125/32 43/127/32 47/128/32
f 44/129/33 48/130/33 47/131/33
f 44/129/33 47/131/33 43/132/33
f 41/133/34 45/134/34 46/135/34
f 41/133/34 46/135/34 42/136/34
f 46/137/35 45/138/35 47/139/35
f 46/137/35 47/139/35 48/140/35
f 41/141/36 42/142/36 44/143/36
f 41/141/36 44/143/36 43/144/36
f 50/145/37 54/146/37 56/147/37
f 50/145/37 56/147/37 52/148/37
f 53/149/38 49/150/38 51/151/38
f 53/149/38 51/151/38 55/152/38
f 52/153/39 56/154/39 55/155/39
f 52/153/39 55/155/39 51/156/39
f 49/157/40 53/158/40 54/159/40
f 49/157/40 54/159/40 50/160/40
f 54/161/41 53/162/41 55/163/41
f 54/161/41 55/163/41 56/164/41
f 49/165/42 50/166/42 52/167/42
f 49/165/42 52/167/42 51/168/42
f 58/169/43 62/170/43 64/171/43
f 58/169/43 64/171/43 60/172/43
f 61/173/44 57/174/44 59/175/44
f 61/173/44 59/175/44 63/176/44
f 60/177/45 64/178/45 63/179/45
f 60/177/45 63/179/45 59/180/45
f 57/181/46 61/182/46 62/183/46
f 57/181/46 62/183/46 58/184/46
f 62/185/47 61/186/47 63/187/47
f 62/185/47 63/187/47 64/188/47
f 57/189/48 58/190/48 60/191/48
f 57/189/48 60/191/48 59/192/48
f 66/193/49 70/194/49 72/195/49
f 66/193/49 72/195/49 68/196/49
f 69/197/50 65/198/50 67/199/50
f 69/197/50 67/199/50 71/200/50
f 68/201/51 72/202/51 71/203/51
f 68/201/51 71/203/51 67/204/51
f 65/205/52 69/206/52 70/207/52
f 65/205/52 70/207/52 66/208/52
f 70/209/53 69/210/53 71/211/53
f 70/209/53 71/211/53 72/212/53
f 65/213/54 66/214/54 68/215/54
f 65/213/54 68/215/54 67/216/54
f 74/217/55 78/218/55 80/219/55
f 74/217/55 80/219/55 76/220/55
f 77/221/56 73/222/56 75/223/56
f 77/221/56 75/223/56 79/224/56
f 76/225/57 80/226/57 79/227/57
f 76/225/57 79/227/57 75/228/57
f 73/229/58 77/230/58 78/231/58
f 73/229/58 78/231/58 74/232/58
f 78/233/59 77/234/59 79/235/59
f 78/233/59 79/235/59 80/236/59
f 73/237/60 74/238/60 76/239/60
f 73/237/60 76/239/60 75/240/60
f 82/241/61 86/242/61 88/243/61
f 82/241/61 88/243/61 84/244/61
f 85/245/62 81/246/62 83/247/62
f 85/245/62 83/247/62 87/248/62
f 84/249/63 88/250/63 87/251/63
f 84/249/63 87/251/63 83/252/63
f 81/253/64 85/254/64 86/255/64
f 81/253/64 86/255/64 82/256/64
f 86/257/65 85/258/65 87/259/65
f 86/257/65 87/259/65 88/260/65
f 81/261/66 82/262/66 84/263/66
f 81/261/66 84/263/66 83/264/66
f 90/265/67 94/266/67 96/267/67
f 90/265/67 96/267/67 92/268/67
f 93/269/68 89/270/68 91/271/68
f 93/269/68 91/271/68 95/272/68
f 92/273/69 96/274/69 95/275/69
f 92/273/69 95/275/69 91/276/69
f 89/277/70 93/278/70 94/279/70
f 89/277/70 94/279/70 90/280/70
f 94/281/71 93/282/71 95/283/71
f 94/281/71 95/283/71 96/284/71
f 89/285/72 90/286/72 92/287/72
f 89/285/72 92/287/72 91/288/72
f 98/289/73 102/290/73 104/291/73
f 98/289/73 104/291/73 100/292/73
f 101/293/74 97/294/74 99/295/74
f 101/293/74 99/295/74 103/296/74
f 100/297/75 104/298/75 103/299/75
f 100/297/75 103/299/75 99/300/75
f 97/301/76 101/302/76 102/303/76
f 97/301/76 102/303/76 98/304/76
f 102/305/77 101/306/77 103/307/77
f 102/305/77 103/307/77 104/308/77
f 97/309/78 98/310/78 100/311/78
f 97/309/78 100/311/78 99/312/78
f 106/313/79 110/314/79 112/315/79
f 106/313/79 112/315/79 108/316/79
f 109/317/80 105/318/80 107/319/80
f 109/317/80 107/319/80 111/320/80
f 108/321/81 112/322/81 111/323/81
f 108/321/81 111/323/81 107/324/81
f 105/325/82 109/326/82 110/327/82
f 105/325/82 110/327/82 106/328/82
f 110/329/83 109/330/83 111/331/83
f 110/329/83 111/331/83 112/332/83
f 105/333/84 106/334/84 108/335/84
f 105/333/84 108/335/84 107/336/84
f 114/337/85 118/338/85 120/339/85
f 114/337/85 120/339/85 116/340/85
f 117/341/86 113/342/86 115/343/86
f 117/341/86 115/343/86 119/344/86
f 116/345/87 120/346/87 119/347/87
f 116/345/87 119/347/87 115/348/87
f 113/349/88 117/350/88 118/351/88
f 113/349/88 118/351/88 114/352/88
f 118/353/89 117/354/89 119/355/89
f 118/353/89 119/355/89 120/356/89
f 113/357/90 114/358/90 116/359/90
f 113/357/90 116/359/90 115/360/90
f 122/361/91 126/362/91 128/363/91
f 122/361/91 128/363/91 124/364/91
f 125/365/92 121/366/92 123/367/92
f 125/365/92 123/367/92 127/368/92
f 124/369/93 128/370/93 127/371/93
f 124/369/93 127/371/93 123/372/93
f 121/373/94 125/374/94 126/375/94
f 121/373/94 126/375/94 122/376/94
f 126/377/95 125/378/95 127/379/95
f 126/377/95 127/379/95 128/380/95
f 121/381/96 122/382/96 124/383/96
f 121/381/96 124/383/96 123/384/96
f 130/385/97 134/386/97 136/387/97
f 130/385/97 136/387/97 132/388/97
f 133/389/98 129/390/98 131/391/98
f 133/389/98 131/391/98 135/392/98
f 132/393/99 136/394/99 135/395/99
f 132/393/99 135/395/99 131/396/99
f 129/397/100 133/398/100 134/399/100
f 129/397/100 134/399/100 130/400/100
f 134/401/101 133/402/101 135/403/101
f 134/401/101 135/403/101 136/404/101
f 129/405/102 130/406/102 132/407/102
f 129/405/102 132/407/102 131/408/102
f 138/409/103 142/410/103 144/411/103
f 138/409/103 144/411/103 140/412/103
f 141/413/104 137/414/104 139/415/104
f 141/413/104 139/415/104 143/416/104
f 140/417/105 144/418/105 143/419/105
f 140/417/105 143/419/105 139/420/105
f 137/421/106 141/422/106 142/423/106
f 137/421/106 142/423/106 138/424/106
f 142/425/107 141/426/107 143/427/107
f 142/425/107 143/427/107 144/428/107
f 137/429/108 138/430/108 140/431/108
f 137/429/108 140/431/108 139/432/108
f 146/433/109 150/434/109 152/435/109
f 146/433/109 152/435/109 148/436/109
f 149/437/110 145/438/110 147/439/110
f 149/437/110 147/439/110 151/440/110
f 148/441/111 152/442/111 151/443/111
f 148/441/111 151/443/111 147/444/111
f 145/445/112 149/446/112 150/447/112
f 145/445/112 150/447/112 146/448/112
f 150/449/113 149/450/113 151/451/113
f 150/449/113 151/451/113 152/452/113
f 145/453/114 146/454/114 148/455/114
f 145/453/114 148/455/114 147/456/114
f 154/457/115 158/458/115 160/459/115
f 154/457/115 160/459/115 156/460/115
f 157/461/116 153/462/116 155/463/116
f 157/461/116 155/463/116 159/464/116
f 156/465/117 160/466/117 159/467/117
f 156/465/117 159/467/117 155/468/117
f 153/469/118 157/470/118 158/471/118
f 153/469/118 158/471/118 154/472/118
f 158/473/119 157/474/119 159/475/119
f 158/473/119 159/475/119 160/476/119
f 153/477/120 154/478/120 156/479/120
f 153/477/120 156/479/120 155/480/120
f 162/481/121 166/482/121 168/483/121
f 162/481/121 168/483/121 164/484/121
f 165/485/122 161/486/122 163/487/122
f 165/485/122 163/487/122 167/488/122
f 164/489/123 168/490/123 167/491/123
f 164/489/123 167/491/123 163/492/123
f 161/493/124 165/494/124 166/495/124
f 161/493/124 166/495/124 162/496/124
f 166/497/125 165/498/125 167/499/125
f 166/497/125 167/499/125 168/500/125
f 161/501/126 162/502/126 164/503/126
f 161/501/126 164/503/126 163/504/126
f 170/505/127 174/506/127 176/507/127
f 170/505/127 176/507/127 172/508/127
f 173/509/128 169/510/128 171/511/128
f 173/509/128 171/511/128 175/512/128
f 172/513/129 176/514/129 175/515/129
f 172/513/129 175/515/129 171/516/129
f 169/517/130 173/518/130 174/519/130
f 169/517/130 174/519/130 170/520/130
f 174/521/131 173/522/131 175/523/131
f 174/521/131 175/523/131 176/524/131
f 169/525/132 170/526/132 172/527/132
f 169/525/132 172/527/132 171/528/132
f 178/529/133 182/530/133 184/531/133
f 178/529/133 184/531/133 180/532/133
f 181/533/134 177/534/134 179/535/134
f 181/533/134 179/535/134 183/536/134
f 180/537/135 184/538/135 183/539/135
f 180/537/135 183/539/135 179/540/135
f 177/541/136 181/542/136 182/543/136
f 177/541/136 182/543/136 178/544/136
f 182/545/137 181/546/137 183/547/137
f 182/545/137 183/547/137 184/548/137
f 177/549/138 178/550/138 180/551/138
f 177/549/138 180/551/138 179/552/138
f 186/553/139 190/554/139 192/555/139
f 186/553/139 192/555/139 188/556/139
f 189/557/140 185/558/140 187/559/140
f 189/557/140 187/559/140 191/560/140
f 188/561/141 192/562/141 191/563/141
f 188/561/141 191/563/141 187/564/141
f 185/565/142 189/566/142 190/567/142
f 185/565/142 190/567/142 186/568/142
f 190/569/143 189/570/143 191/571/143
f 190/569/143 191/571/143 192/572/143
f 185/573/144 186/574/144 188/575/144
f 185/573/144 188/575/144 187/576/144
f 194/577/145 198/578/145 200/579/145
f 194/577/145 200/579/145 196/580/145
f 197/581/146 193/582/146 195/583/146
f 197/581/146 195/583/146 199/584/146
f 196/585/147 200/586/147 199/587/147
f 196/585/147 199/587/147 195/588/147
f 193/589/148 197/590/148 198/591/148
f 193/589/148 198/591/148 194/592/148
f 198/593/149 197/594/149 199/595/149
f 198/593/149 199/595/149 200/596/149
f 193/597/150 194/598/150 196/599/150
f 193/597/150 196/599/150 195/600/150
f 202/601/151 206/602/151 208/603/151
f 202/601/151 208/603/151 204/604/151
f 205/605/152 201/606/152 203/607/152
f 205/605/152 203/607/152 207/608/152
f 204/609/153 208/610/153 207/611/153
f 204/609/153 207/611/153 203/612/153
f 201/613/154 205/614/154 206/615/154
f 201/613/154 206/615/154 202/616/154
f 206/617/155 205/618/155 207/619/155
f 206/617/155 207/619/155 208/620/155
f 201/621/156 202/622/156 204/623/156
f 201/621/156 204/623/156 203/624/156
f 210/625/157 214/626/157 216/627/157
f 210/625/157 216/627/157 212/628/157
f 213/629/158 209/630/158 211/631/158
f 213/629/158 211/631/158 215/632/158
f 212/633/159 216/634/159 215/635/159
f 212/633/159 215/635/159 211/636/159
f 209/637/160 213/638/160 214/639/160
f 209/637/160 214/639/160 210/640/160
f 214/641/161 213/642/161 215/643/161
f 214/641/161 215/643/161 216/644/161
f 209/645/162 210/646/162 212/647/162
f 209/645/162 212/647/162 211/648/162
