# Wavefront OBJ: SM_Grill_Elmich_Lid
o SM_Grill_Elmich_Lid
v -0.129200 -0.015000 -0.020000
v -0.129200 -0.015000 0.040000
v -0.129200 0.015000 -0.020000
v -0.129200 0.015000 0.040000
v -0.107200 -0.015000 -0.020000
v -0.107200 -0.015000 0.040000
v -0.107200 0.015000 -0.020000
v -0.107200 0.015000 0.040000
v 0.107200 -0.015000 -0.020000
v 0.107200 -0.015000 0.040000
v 0.107200 0.015000 -0.020000
v 0.107200 0.015000 0.040000
v 0.129200 -0.015000 -0.020000
v 0.129200 -0.015000 0.040000
v 0.129200 0.015000 -0.020000
v 0.129200 0.015000 0.040000
v -0.170000 0.010000 0.040000
v -0.170000 0.010000 0.320000
v -0.170000 0.055000 0.040000
v -0.170000 0.055000 0.320000
v 0.170000 0.010000 0.040000
v 0.170000 0.010000 0.320000
v 0.170000 0.055000 0.040000
v 0.170000 0.055000 0.320000
v -0.150000 0.055000 0.060000
v -0.150000 0.055000 0.300000
v -0.150000 0.058000 0.060000
v -0.150000 0.058000 0.300000
v 0.150000 0.055000 0.060000
v 0.150000 0.055000 0.300000
v 0.150000 0.058000 0.060000
v 0.150000 0.058000 0.300000
v -0.140000 -0.008000 0.060000
v -0.140000 -0.008000 0.280000
v -0.140000 0.010000 0.060000
v -0.140000 0.010000 0.280000
v 0.140000 -0.008000 0.060000
v 0.140000 -0.008000 0.280000
v 0.140000 0.010000 0.060000
v 0.140000 0.010000 0.280000
v -0.133000 -0.012000 0.065000
v -0.133000 -0.012000 0.275000
v -0.133000 -0.008000 0.065000
v -0.133000 -0.008000 0.275000
v -0.127000 -0.012000 0.065000
v -0.127000 -0.012000 0.275000
v -0.127000 -0.008000 0.065000
v -0.127000 -0.008000 0.275000
v -0.113000 -0.012000 0.065000
v -0.113000 -0.012000 0.275000
v -0.113000 -0.008000 0.065000
v -0.113000 -0.008000 0.275000
v -0.107000 -0.012000 0.065000
v -0.107000 -0.012000 0.275000
v -0.107000 -0.008000 0.065000
v -0.107000 -0.008000 0.275000
v -0.093000 -0.012000 0.065000
v -0.093000 -0.012000 0.275000
v -0.093000 -0.008000 0.065000
v -0.093000 -0.008000 0.275000
v -0.087000 -0.012000 0.065000
v -0.087000 -0.012000 0.275000
v -0.087000 -0.008000 0.065000
v -0.087000 -0.008000 0.275000
v -0.073000 -0.012000 0.065000
v -0.073000 -0.012000 0.275000
v -0.073000 -0.008000 0.065000
v -0.073000 -0.008000 0.275000
v -0.067000 -0.012000 0.065000
v -0.067000 -0.012000 0.275000
v -0.067000 -0.008000 0.065000
v -0.067000 -0.008000 0.275000
v -0.053000 -0.012000 0.065000
v -0.053000 -0.012000 0.275000
v -0.053000 -0.008000 0.065000
v -0.053000 -0.008000 0.275000
v -0.047000 -0.012000 0.065000
v -0.047000 -0.012000 0.275000
v -0.047000 -0.008000 0.065000
v -0.047000 -0.008000 0.275000
v -0.033000 -0.012000 0.065000
v -0.033000 -0.012000 0.275000
v -0.033000 -0.008000 0.065000
v -0.033000 -0.008000 0.275000
v -0.027000 -0.012000 0.065000
v -0.027000 -0.012000 0.275000
v -0.027000 -0.008000 0.065000
v -0.027000 -0.008000 0.275000
v -0.013000 -0.012000 0.065000
v -0.013000 -0.012000 0.275000
v -0.013000 -0.008000 0.065000
v -0.013000 -0.008000 0.275000
v -0.007000 -0.012000 0.065000
v -0.007000 -0.012000 0.275000
v -0.007000 -0.008000 0.065000
v -0.007000 -0.008000 0.275000
v 0.007000 -0.012000 0.065000
v 0.007000 -0.012000 0.275000
v 0.007000 -0.008000 0.065000
v 0.007000 -0.008000 0.275000
v 0.013000 -0.012000 0.065000
v 0.013000 -0.012000 0.275000
v 0.013000 -0.008000 0.065000
v 0.013000 -0.008000 0.275000
v 0.027000 -0.012000 0.065000
v 0.027000 -0.012000 0.275000
v 0.027000 -0.008000 0.065000
v 0.027000 -0.008000 0.275000
v 0.033000 -0.012000 0.065000
v 0.033000 -0.012000 0.275000
v 0.033000 -0.008000 0.065000
v 0.033000 -0.008000 0.275000
v 0.047000 -0.012000 0.065000
v 0.047000 -0.012000 0.275000
v 0.047000 -0.008000 0.065000
v 0.047000 -0.008000 0.275000
v 0.053000 -0.012000 0.065000
v 0.053000 -0.012000 0.275000
v 0.053000 -0.008000 0.065000
v 0.053000 -0.008000 0.275000
v 0.067000 -0.012000 0.065000
v 0.067000 -0.012000 0.275000
v 0.067000 -0.008000 0.065000
v 0.067000 -0.008000 0.275000
v 0.073000 -0.012000 0.065000
v 0.073000 -0.012000 0.275000
v 0.073000 -0.008000 0.065000
v 0.073000 -0.008000 0.275000
v 0.087000 -0.012000 0.065000
v 0.087000 -0.012000 0.275000
v 0.087000 -0.008000 0.065000
v 0.087000 -0.008000 0.275000
v 0.093000 -0.012000 0.065000
v 0.093000 -0.012000 0.275000
v 0.093000 -0.008000 0.065000
v 0.093000 -0.008000 0.275000
v 0.107000 -0.012000 0.065000
v 0.107000 -0.012000 0.275000
v 0.107000 -0.008000 0.065000
v 0.107000 -0.008000 0.275000
v 0.113000 -0.012000 0.065000
v 0.113000 -0.012000 0.275000
v 0.113000 -0.008000 0.065000
v 0.113000 -0.008000 0.275000
v 0.127000 -0.012000 0.065000
v 0.127000 -0.012000 0.275000
v 0.127000 -0.008000 0.065000
v 0.127000 -0.008000 0.275000
v 0.133000 -0.012000 0.065000
v 0.133000 -0.012000 0.275000
v 0.133000 -0.008000 0.065000
v 0.133000 -0.008000 0.275000
v -0.094000 0.025000 0.320000
v -0.094000 0.025000 0.360000
v -0.096343 0.030657 0.320000
v -0.096343 0.030657 0.360000
v -0.102000 0.033000 0.320000
v -0.102000 0.033000 0.360000
v -0.107657 0.030657 0.320000
v -0.107657 0.030657 0.360000
v -0.110000 0.025000 0.320000
v -0.110000 0.025000 0.360000
v -0.107657 0.019343 0.320000
v -0.107657 0.019343 0.360000
v -0.102000 0.017000 0.320000
v -0.102000 0.017000 0.360000
v -0.096343 0.019343 0.320000
v -0.096343 0.019343 0.360000
v 0.110000 0.025000 0.320000
v 0.110000 0.025000 0.360000
v 0.107657 0.030657 0.320000
v 0.107657 0.030657 0.360000
v 0.102000 0.033000 0.320000
v 0.102000 0.033000 0.360000
v 0.096343 0.030657 0.320000
v 0.096343 0.030657 0.360000
v 0.094000 0.025000 0.320000
v 0.094000 0.025000 0.360000
v 0.096343 0.019343 0.320000
v 0.096343 0.019343 0.360000
v 0.102000 0.017000 0.320000
v 0.102000 0.017000 0.360000
v 0.107657 0.019343 0.320000
v 0.107657 0.019343 0.360000
v -0.119000 0.025000 0.348000
v 0.119000 0.025000 0.348000
v -0.119000 0.031000 0.349608
v 0.119000 0.031000 0.349608
v -0.119000 0.035392 0.354000
v 0.119000 0.035392 0.354000
v -0.119000 0.037000 0.360000
v 0.119000 0.037000 0.360000
v -0.119000 0.035392 0.366000
v 0.119000 0.035392 0.366000
v -0.119000 0.031000 0.370392
v 0.119000 0.031000 0.370392
v -0.119000 0.025000 0.372000
v 0.119000 0.025000 0.372000
v -0.119000 0.019000 0.370392
v 0.119000 0.019000 0.370392
v -0.119000 0.014608 0.366000
v 0.119000 0.014608 0.366000
v -0.119000 0.013000 0.360000
v 0.119000 0.013000 0.360000
v -0.119000 0.014608 0.354000
v 0.119000 0.014608 0.354000
v -0.119000 0.019000 0.349608
v 0.119000 0.019000 0.349608
vt 0.000000 0.000000
vt 0.022000 0.000000
vt 0.022000 0.030000
vt 0.000000 0.030000
vt 0.000000 0.000000
vt 0.022000 0.000000
vt 0.022000 0.030000
vt 0.000000 0.030000
vt 0.000000 0.000000
vt 0.022000 0.000000
vt 0.022000 0.060000
vt 0.000000 0.060000
vt 0.000000 0.000000
vt 0.022000 0.000000
vt 0.022000 0.060000
vt 0.000000 0.060000
vt 0.000000 0.000000
vt 0.060000 0.000000
vt 0.060000 0.030000
vt 0.000000 0.030000
vt 0.000000 0.000000
vt 0.060000 0.000000
vt 0.060000 0.030000
vt 0.000000 0.030000
vt 0.000000 0.000000
vt 0.022000 0.000000
vt 0.022000 0.030000
vt 0.000000 0.030000
vt 0.000000 0.000000
vt 0.022000 0.000000
vt 0.022000 0.030000
vt 0.000000 0.030000
vt 0.000000 0.000000
vt 0.022000 0.000000
vt 0.022000 0.060000
vt 0.000000 0.060000
vt 0.000000 0.000000
vt 0.022000 0.000000
vt 0.022000 0.060000
vt 0.000000 0.060000
vt 0.000000 0.000000
vt 0.060000 0.000000
vt 0.060000 0.030000
vt 0.000000 0.030000
vt 0.000000 0.000000
vt 0.060000 0.000000
vt 0.060000 0.030000
vt 0.000000 0.030000
vt 0.000000 0.000000
vt 0.340000 0.000000
vt 0.340000 0.045000
vt 0.000000 0.045000
vt 0.000000 0.000000
vt 0.340000 0.000000
vt 0.340000 0.045000
vt 0.000000 0.045000
vt 0.000000 0.000000
vt 0.340000 0.000000
vt 0.340000 0.280000
vt 0.000000 0.280000
vt 0.000000 0.000000
vt 0.340000 0.000000
vt 0.340000 0.280000
vt 0.000000 0.280000
vt 0.000000 0.000000
vt 0.280000 0.000000
vt 0.280000 0.045000
vt 0.000000 0.045000
vt 0.000000 0.000000
vt 0.280000 0.000000
vt 0.280000 0.045000
vt 0.000000 0.045000
vt 0.000000 0.000000
vt 0.300000 0.000000
vt 0.300000 0.003000
vt 0.000000 0.003000
vt 0.000000 0.000000
vt 0.300000 0.000000
vt 0.300000 0.003000
vt 0.000000 0.003000
vt 0.000000 0.000000
vt 0.300000 0.000000
vt 0.300000 0.240000
vt 0.000000 0.240000
vt 0.000000 0.000000
vt 0.300000 0.000000
vt 0.300000 0.240000
vt 0.000000 0.240000
vt 0.000000 0.000000
vt 0.240000 0.000000
vt 0.240000 0.003000
vt 0.000000 0.003000
vt 0.000000 0.000000
vt 0.240000 0.000000
vt 0.240000 0.003000
vt 0.000000 0.003000
vt 0.000000 0.000000
vt 0.280000 0.000000
vt 0.280000 0.018000
vt 0.000000 0.018000
vt 0.000000 0.000000
vt 0.280000 0.000000
vt 0.280000 0.018000
vt 0.000000 0.018000
vt 0.000000 0.000000
vt 0.280000 0.000000
vt 0.280000 0.220000
vt 0.000000 0.220000
vt 0.000000 0.000000
vt 0.280000 0.000000
vt 0.280000 0.220000
vt 0.000000 0.220000
vt 0.000000 0.000000
vt 0.220000 0.000000
vt 0.220000 0.018000
vt 0.000000 0.018000
vt 0.000000 0.000000
vt 0.220000 0.000000
vt 0.220000 0.018000
vt 0.000000 0.018000
vt 0.000000 0.000000
vt 0.006000 0.000000
vt 0.006000 0.004000
vt 0.000000 0.004000
vt 0.000000 0.000000
vt 0.006000 0.000000
vt 0.006000 0.004000
vt 0.000000 0.004000
vt 0.000000 0.000000
vt 0.006000 0.000000
vt 0.006000 0.210000
vt 0.000000 0.210000
vt 0.000000 0.000000
vt 0.006000 0.000000
vt 0.006000 0.210000
vt 0.000000 0.210000
vt 0.000000 0.000000
vt 0.210000 0.000000
vt 0.210000 0.004000
vt 0.000000 0.004000
vt 0.000000 0.000000
vt 0.210000 0.000000
vt 0.210000 0.004000
vt 0.000000 0.004000
vt 0.000000 0.000000
vt 0.006000 0.000000
vt 0.006000 0.004000
vt 0.000000 0.004000
vt 0.000000 0.000000
vt 0.006000 0.000000
vt 0.006000 0.004000
vt 0.000000 0.004000
vt 0.000000 0.000000
vt 0.006000 0.000000
vt 0.006000 0.210000
vt 0.000000 0.210000
vt 0.000000 0.000000
vt 0.006000 0.000000
vt 0.006000 0.210000
vt 0.000000 0.210000
vt 0.000000 0.000000
vt 0.210000 0.000000
vt 0.210000 0.004000
vt 0.000000 0.004000
vt 0.000000 0.000000
vt 0.210000 0.000000
vt 0.210000 0.004000
vt 0.000000 0.004000
vt 0.000000 0.000000
vt 0.006000 0.000000
vt 0.006000 0.004000
vt 0.000000 0.004000
vt 0.000000 0.000000
vt 0.006000 0.000000
vt 0.006000 0.004000
vt 0.000000 0.004000
vt 0.000000 0.000000
vt 0.006000 0.000000
vt 0.006000 0.210000
vt 0.000000 0.210000
vt 0.000000 0.000000
vt 0.006000 0.000000
vt 0.006000 0.210000
vt 0.000000 0.210000
vt 0.000000 0.000000
vt 0.210000 0.000000
vt 0.210000 0.004000
vt 0.000000 0.004000
vt 0.000000 0.000000
vt 0.210000 0.000000
vt 0.210000 0.004000
vt 0.000000 0.004000
vt 0.000000 0.000000
vt 0.006000 0.000000
vt 0.006000 0.004000
vt 0.000000 0.004000
vt 0.000000 0.000000
vt 0.006000 0.000000
vt 0.006000 0.004000
vt 0.000000 0.004000
vt 0.000000 0.000000
vt 0.006000 0.000000
vt 0.006000 0.210000
vt 0.000000 0.210000
vt 0.000000 0.000000
vt 0.006000 0.000000
vt 0.006000 0.210000
vt 0.000000 0.210000
vt 0.000000 0.000000
vt 0.210000 0.000000
vt 0.210000 0.004000
vt 0.000000 0.004000
vt 0.000000 0.000000
vt 0.210000 0.000000
vt 0.210000 0.004000
vt 0.000000 0.004000
vt 0.000000 0.000000
vt 0.006000 0.000000
vt 0.006000 0.004000
vt 0.000000 0.004000
vt 0.000000 0.000000
vt 0.006000 0.000000
vt 0.006000 0.004000
vt 0.000000 0.004000
vt 0.000000 0.000000
vt 0.006000 0.000000
vt 0.006000 0.210000
vt 0.000000 0.210000
vt 0.000000 0.000000
vt 0.006000 0.000000
vt 0.006000 0.210000
vt 0.000000 0.210000
vt 0.000000 0.000000
vt 0.210000 0.000000
vt 0.210000 0.004000
vt 0.000000 0.004000
vt 0.000000 0.000000
vt 0.210000 0.000000
vt 0.210000 0.004000
vt 0.000000 0.004000
vt 0.000000 0.000000
vt 0.006000 0.000000
vt 0.006000 0.004000
vt 0.000000 0.004000
vt 0.000000 0.000000
vt 0.006000 0.000000
vt 0.006000 0.004000
vt 0.000000 0.004000
vt 0.000000 0.000000
vt 0.006000 0.000000
vt 0.006000 0.210000
vt 0.000000 0.210000
vt 0.000000 0.000000
vt 0.006000 0.000000
vt 0.006000 0.210000
vt 0.000000 0.210000
vt 0.000000 0.000000
vt 0.210000 0.000000
vt 0.210000 0.004000
vt 0.000000 0.004000
vt 0.000000 0.000000
vt 0.210000 0.000000
vt 0.210000 0.004000
vt 0.000000 0.004000
vt 0.000000 0.000000
vt 0.006000 0.000000
vt 0.006000 0.004000
vt 0.000000 0.004000
vt 0.000000 0.000000
vt 0.006000 0.000000
vt 0.006000 0.004000
vt 0.000000 0.004000
vt 0.000000 0.000000
vt 0.006000 0.000000
vt 0.006000 0.210000
vt 0.000000 0.210000
vt 0.000000 0.000000
vt 0.006000 0.000000
vt 0.006000 0.210000
vt 0.000000 0.210000
vt 0.000000 0.000000
vt 0.210000 0.000000
vt 0.210000 0.004000
vt 0.000000 0.004000
vt 0.000000 0.000000
vt 0.210000 0.000000
vt 0.210000 0.004000
vt 0.000000 0.004000
vt 0.000000 0.000000
vt 0.006000 0.000000
vt 0.006000 0.004000
vt 0.000000 0.004000
vt 0.000000 0.000000
vt 0.006000 0.000000
vt 0.006000 0.004000
vt 0.000000 0.004000
vt 0.000000 0.000000
vt 0.006000 0.000000
vt 0.006000 0.210000
vt 0.000000 0.210000
vt 0.000000 0.000000
vt 0.006000 0.000000
vt 0.006000 0.210000
vt 0.000000 0.210000
vt 0.000000 0.000000
vt 0.210000 0.000000
vt 0.210000 0.004000
vt 0.000000 0.004000
vt 0.000000 0.000000
vt 0.210000 0.000000
vt 0.210000 0.004000
vt 0.000000 0.004000
vt 0.000000 0.000000
vt 0.006000 0.000000
vt 0.006000 0.004000
vt 0.000000 0.004000
vt 0.000000 0.000000
vt 0.006000 0.000000
vt 0.006000 0.004000
vt 0.000000 0.004000
vt 0.000000 0.000000
vt 0.006000 0.000000
vt 0.006000 0.210000
vt 0.000000 0.210000
vt 0.000000 0.000000
vt 0.006000 0.000000
vt 0.006000 0.210000
vt 0.000000 0.210000
vt 0.000000 0.000000
vt 0.210000 0.000000
vt 0.210000 0.004000
vt 0.000000 0.004000
vt 0.000000 0.000000
vt 0.210000 0.000000
vt 0.210000 0.004000
vt 0.000000 0.004000
vt 0.000000 0.000000
vt 0.006000 0.000000
vt 0.006000 0.004000
vt 0.000000 0.004000
vt 0.000000 0.000000
vt 0.006000 0.000000
vt 0.006000 0.004000
vt 0.000000 0.004000
vt 0.000000 0.000000
vt 0.006000 0.000000
vt 0.006000 0.210000
vt 0.000000 0.210000
vt 0.000000 0.000000
vt 0.006000 0.000000
vt 0.006000 0.210000
vt 0.000000 0.210000
vt 0.000000 0.000000
vt 0.210000 0.000000
vt 0.210000 0.004000
vt 0.000000 0.004000
vt 0.000000 0.000000
vt 0.210000 0.000000
vt 0.210000 0.004000
vt 0.000000 0.004000
vt 0.000000 0.000000
vt 0.006000 0.000000
vt 0.006000 0.004000
vt 0.000000 0.004000
vt 0.000000 0.000000
vt 0.006000 0.000000
vt 0.006000 0.004000
vt 0.000000 0.004000
vt 0.000000 0.000000
vt 0.006000 0.000000
vt 0.006000 0.210000
vt 0.000000 0.210000
vt 0.000000 0.000000
vt 0.006000 0.000000
vt 0.006000 0.210000
vt 0.000000 0.210000
vt 0.000000 0.000000
vt 0.210000 0.000000
vt 0.210000 0.004000
vt 0.000000 0.004000
vt 0.000000 0.000000
vt 0.210000 0.000000
vt 0.210000 0.004000
vt 0.000000 0.004000
vt 0.000000 0.000000
vt 0.006000 0.000000
vt 0.006000 0.004000
vt 0.000000 0.004000
vt 0.000000 0.000000
vt 0.006000 0.000000
vt 0.006000 0.004000
vt 0.000000 0.004000
vt 0.000000 0.000000
vt 0.006000 0.000000
vt 0.006000 0.210000
vt 0.000000 0.210000
vt 0.000000 0.000000
vt 0.006000 0.000000
vt 0.006000 0.210000
vt 0.000000 0.210000
vt 0.000000 0.000000
vt 0.210000 0.000000
vt 0.210000 0.004000
vt 0.000000 0.004000
vt 0.000000 0.000000
vt 0.210000 0.000000
vt 0.210000 0.004000
vt 0.000000 0.004000
vt 0.000000 0.000000
vt 0.006000 0.000000
vt 0.006000 0.004000
vt 0.000000 0.004000
vt 0.000000 0.000000
vt 0.006000 0.000000
vt 0.006000 0.004000
vt 0.000000 0.004000
vt 0.000000 0.000000
vt 0.006000 0.000000
vt 0.006000 0.210000
vt 0.000000 0.210000
vt 0.000000 0.000000
vt 0.006000 0.000000
vt 0.006000 0.210000
vt 0.000000 0.210000
vt 0.000000 0.000000
vt 0.210000 0.000000
vt 0.210000 0.004000
vt 0.000000 0.004000
vt 0.000000 0.000000
vt 0.210000 0.000000
vt 0.210000 0.004000
vt 0.000000 0.004000
vt 0.000000 0.000000
vt 0.006000 0.000000
vt 0.006000 0.004000
vt 0.000000 0.004000
vt 0.000000 0.000000
vt 0.006000 0.000000
vt 0.006000 0.004000
vt 0.000000 0.004000
vt 0.000000 0.000000
vt 0.006000 0.000000
vt 0.006000 0.210000
vt 0.000000 0.210000
vt 0.000000 0.000000
vt 0.006000 0.000000
vt 0.006000 0.210000
vt 0.000000 0.210000
vt 0.000000 0.000000
vt 0.210000 0.000000
vt 0.210000 0.004000
vt 0.000000 0.004000
vt 0.000000 0.000000
vt 0.210000 0.000000
vt 0.210000 0.004000
vt 0.000000 0.004000
vt 0.000000 0.000000
vt 0.125000 0.000000
vt 0.125000 0.040000
vt 0.000000 0.040000
vt 0.125000 0.000000
vt 0.250000 0.000000
vt 0.250000 0.040000
vt 0.125000 0.040000
vt 0.250000 0.000000
vt 0.375000 0.000000
vt 0.375000 0.040000
vt 0.250000 0.040000
vt 0.375000 0.000000
vt 0.500000 0.000000
vt 0.500000 0.040000
vt 0.375000 0.040000
vt 0.500000 0.000000
vt 0.625000 0.000000
vt 0.625000 0.040000
vt 0.500000 0.040000
vt 0.625000 0.000000
vt 0.750000 0.000000
vt 0.750000 0.040000
vt 0.625000 0.040000
vt 0.750000 0.000000
vt 0.875000 0.000000
vt 0.875000 0.040000
vt 0.750000 0.040000
vt 0.875000 0.000000
vt 1.000000 0.000000
vt 1.000000 0.040000
vt 0.875000 0.040000
vt 0.000000 0.000000
vt 0.125000 0.000000
vt 0.125000 0.040000
vt 0.000000 0.040000
vt 0.125000 0.000000
vt 0.250000 0.000000
vt 0.250000 0.040000
vt 0.125000 0.040000
vt 0.250000 0.000000
vt 0.375000 0.000000
vt 0.375000 0.040000
vt 0.250000 0.040000
vt 0.375000 0.000000
vt 0.500000 0.000000
vt 0.500000 0.040000
vt 0.375000 0.040000
vt 0.500000 0.000000
vt 0.625000 0.000000
vt 0.625000 0.040000
vt 0.500000 0.040000
vt 0.625000 0.000000
vt 0.750000 0.000000
vt 0.750000 0.040000
vt 0.625000 0.040000
vt 0.750000 0.000000
vt 0.875000 0.000000
vt 0.875000 0.040000
vt 0.750000 0.040000
vt 0.875000 0.000000
vt 1.000000 0.000000
vt 1.000000 0.040000
vt 0.875000 0.040000
vt 0.000000 0.000000
vt 0.083333 0.000000
vt 0.083333 0.238000
vt 0.000000 0.238000
vt 0.083333 0.000000
vt 0.166667 0.000000
vt 0.166667 0.238000
vt 0.083333 0.238000
vt 0.166667 0.000000
vt 0.250000 0.000000
vt 0.250000 0.238000
vt 0.166667 0.238000
vt 0.250000 0.000000
vt 0.333333 0.000000
vt 0.333333 0.238000
vt 0.250000 0.238000
vt 0.333333 0.000000
vt 0.416667 0.000000
vt 0.416667 0.238000
vt 0.333333 0.238000
vt 0.416667 0.000000
vt 0.500000 0.000000
vt 0.500000 0.238000
vt 0.416667 0.238000
vt 0.500000 0.000000
vt 0.583333 0.000000
vt 0.583333 0.238000
vt 0.500000 0.238000
vt 0.583333 0.000000
vt 0.666667 0.000000
vt 0.666667 0.238000
vt 0.583333 0.238000
vt 0.666667 0.000000
vt 0.750000 0.000000
vt 0.750000 0.238000
vt 0.666667 0.238000
vt 0.750000 0.000000
vt 0.833333 0.000000
vt 0.833333 0.238000
vt 0.750000 0.238000
vt 0.833333 0.000000
vt 0.916667 0.000000
vt 0.916667 0.238000
vt 0.833333 0.238000
vt 0.916667 0.000000
vt 1.000000 0.000000
vt 1.000000 0.238000
vt 0.916667 0.238000
vn 0.000000 0.000000 1.000000
vn 0.000000 0.000000 -1.000000
vn 0.000000 1.000000 0.000000
vn 0.000000 -1.000000 0.000000
vn 1.000000 0.000000 0.000000
vn -1.000000 0.000000 0.000000
vn 0.000000 0.000000 1.000000
vn 0.000000 0.000000 -1.000000
vn 0.000000 1.000000 0.000000
vn 0.000000 -1.000000 0.000000
vn 1.000000 0.000000 0.000000
vn -1.000000 0.000000 0.000000
vn 0.000000 0.000000 1.000000
vn 0.000000 0.000000 -1.000000
vn 0.000000 1.000000 0.000000
vn 0.000000 -1.000000 0.000000
vn 1.000000 0.000000 0.000000
vn -1.000000 0.000000 0.000000
vn 0.000000 0.000000 1.000000
vn 0.000000 0.000000 -1.000000
vn 0.000000 1.000000 0.000000
vn 0.000000 -1.000000 0.000000
vn 1.000000 0.000000 0.000000
vn -1.000000 0.000000 0.000000
vn 0.000000 0.000000 1.000000
vn 0.000000 0.000000 -1.000000
vn 0.000000 1.000000 0.000000
vn 0.000000 -1.000000 0.000000
vn 1.000000 0.000000 0.000000
vn -1.000000 0.000000 0.000000
vn 0.000000 0.000000 1.000000
vn 0.000000 0.000000 -1.000000
vn 0.000000 1.000000 0.000000
vn 0.000000 -1.000000 0.000000
vn 1.000000 0.000000 0.000000
vn -1.000000 0.000000 0.000000
vn 0.000000 0.000000 1.000000
vn 0.000000 0.000000 -1.000000
vn 0.000000 1.000000 0.000000
vn 0.000000 -1.000000 0.000000
vn 1.000000 0.000000 0.000000
vn -1.000000 0.000000 0.000000
vn 0.000000 0.000000 1.000000
vn 0.000000 0.000000 -1.000000
vn 0.000000 1.000000 0.000000
vn 0.000000 -1.000000 0.000000
vn 1.000000 0.000000 0.000000
vn -1.000000 0.000000 0.000000
vn 0.000000 0.000000 1.000000
vn 0.000000 0.000000 -1.000000
vn 0.000000 1.000000 0.000000
vn 0.000000 -1.000000 0.000000
vn 1.000000 0.000000 0.000000
vn -1.000000 0.000000 0.000000
vn 0.000000 0.000000 1.000000
vn 0.000000 0.000000 -1.000000
vn 0.000000 1.000000 0.000000
vn 0.000000 -1.000000 0.000000
vn 1.000000 0.000000 0.000000
vn -1.000000 0.000000 0.000000
vn 0.000000 0.000000 1.000000
vn 0.000000 0.000000 -1.000000
vn 0.000000 1.000000 0.000000
vn 0.000000 -1.000000 0.000000
vn 1.000000 0.000000 0.000000
vn -1.000000 0.000000 0.000000
vn 0.000000 0.000000 1.000000
vn 0.000000 0.000000 -1.000000
vn 0.000000 1.000000 0.000000
vn 0.000000 -1.000000 0.000000
vn 1.000000 0.000000 0.000000
vn -1.000000 0.000000 0.000000
vn 0.000000 0.000000 1.000000
vn 0.000000 0.000000 -1.000000
vn 0.000000 1.000000 0.000000
vn 0.000000 -1.000000 0.000000
vn 1.000000 0.000000 0.000000
vn -1.000000 0.000000 0.000000
vn 0.000000 0.000000 1.000000
vn 0.000000 0.000000 -1.000000
vn 0.000000 1.000000 0.000000
vn 0.000000 -1.000000 0.000000
vn 1.000000 0.000000 0.000000
vn -1.000000 0.000000 0.000000
vn 0.000000 0.000000 1.000000
vn 0.000000 0.000000 -1.000000
vn 0.000000 1.000000 0.000000
vn 0.000000 -1.000000 0.000000
vn 1.000000 0.000000 0.000000
vn -1.000000 0.000000 0.000000
vn 0.000000 0.000000 1.000000
vn 0.000000 0.000000 -1.000000
vn 0.000000 1.000000 0.000000
vn 0.000000 -1.000000 0.000000
vn 1.000000 0.000000 0.000000
vn -1.000000 0.000000 0.000000
vn 0.000000 0.000000 1.000000
vn 0.000000 0.000000 -1.000000
vn 0.000000 1.000000 0.000000
vn 0.000000 -1.000000 0.000000
vn 1.000000 0.000000 0.000000
vn -1.000000 0.000000 0.000000
vn 0.000000 0.000000 1.000000
vn 0.000000 0.000000 -1.000000
vn 0.000000 1.000000 0.000000
vn 0.000000 -1.000000 0.000000
vn 1.000000 0.000000 0.000000
vn -1.000000 0.000000 0.000000
vn 0.000000 0.000000 1.000000
vn 0.000000 0.000000 -1.000000
vn 0.000000 1.000000 0.000000
vn 0.000000 -1.000000 0.000000
vn 1.000000 0.000000 0.000000
vn -1.000000 0.000000 0.000000
vn 1.000000 0.000000 0.000000
vn 0.707107 0.707107 0.000000
vn 0.707107 0.707107 0.000000
vn 0.000000 1.000000 0.000000
vn 0.000000 1.000000 0.000000
vn -0.707107 0.707107 0.000000
vn -0.707107 0.707107 0.000000
vn -1.000000 0.000000 0.000000
vn -1.000000 0.000000 0.000000
vn -0.707107 -0.707107 -0.000000
vn -0.707107 -0.707107 -0.000000
vn -0.000000 -1.000000 -0.000000
vn -0.000000 -1.000000 -0.000000
vn 0.707107 -0.707107 0.000000
vn 0.707107 -0.707107 0.000000
vn 1.000000 0.000000 0.000000
vn 1.000000 0.000000 0.000000
vn 0.707107 0.707107 0.000000
vn 0.707107 0.707107 0.000000
vn 0.000000 1.000000 0.000000
vn 0.000000 1.000000 0.000000
vn -0.707107 0.707107 0.000000
vn -0.707107 0.707107 0.000000
vn -1.000000 0.000000 0.000000
vn -1.000000 0.000000 0.000000
vn -0.707107 -0.707107 -0.000000
vn -0.707107 -0.707107 -0.000000
vn -0.000000 -1.000000 -0.000000
vn -0.000000 -1.000000 -0.000000
vn 0.707107 -0.707107 0.000000
vn 0.707107 -0.707107 0.000000
vn 1.000000 0.000000 0.000000
vn 0.000000 0.000000 -1.000000
vn 0.000000 0.500000 -0.866025
vn 0.000000 0.500000 -0.866025
vn 0.000000 0.866025 -0.500000
vn 0.000000 0.866025 -0.500000
vn 0.000000 1.000000 -0.000000
vn 0.000000 1.000000 -0.000000
vn -0.000000 0.866025 0.500000
vn -0.000000 0.866025 0.500000
vn -0.000000 0.500000 0.866025
vn -0.000000 0.500000 0.866025
vn -0.000000 0.000000 1.000000
vn -0.000000 0.000000 1.000000
vn 0.000000 -0.500000 0.866025
vn 0.000000 -0.500000 0.866025
vn 0.000000 -0.866025 0.500000
vn 0.000000 -0.866025 0.500000
vn 0.000000 -1.000000 0.000000
vn 0.000000 -1.000000 0.000000
vn 0.000000 -0.866025 -0.500000
vn 0.000000 -0.866025 -0.500000
vn 0.000000 -0.500000 -0.866025
vn 0.000000 -0.500000 -0.866025
vn 0.000000 0.000000 -1.000000
s 1
f 2/1/1 6/2/1 8/3/1
f 2/1/1 8/3/1 4/4/1
f 5/5/2 1/6/2 3/7/2
f 5/5/2 3/7/2 7/8/2
f 4/9/3 8/10/3 7/11/3
f 4/9/3 7/11/3 3/12/3
f 1/13/4 5/14/4 6/15/4
f 1/13/4 6/15/4 2/16/4
f 6/17/5 5/18/5 7/19/5
f 6/17/5 7/19/5 8/20/5
f 1/21/6 2/22/6 4/23/6
f 1/21/6 4/23/6 3/24/6
f 10/25/7 14/26/7 16/27/7
f 10/25/7 16/27/7 12/28/7
f 13/29/8 9/30/8 11/31/8
f 13/29/8 11/31/8 15/32/8
f 12/33/9 16/34/9 15/35/9
f 12/33/9 15/35/9 11/36/9
f 9/37/10 13/38/10 14/39/10
f 9/37/10 14/39/10 10/40/10
f 14/41/11 13/42/11 15/43/11
f 14/41/11 15/43/11 16/44/11
f 9/45/12 10/46/12 12/47/12
f 9/45/12 12/47/12 11/48/12
f 18/49/13 22/50/13 24/51/13
f 18/49/13 24/51/13 20/52/13
f 21/53/14 17/54/14 19/55/14
f 21/53/14 19/55/14 23/56/14
f 20/57/15 24/58/15 23/59/15
f 20/57/15 23/59/15 19/60/15
f 17/61/16 21/62/16 22/63/16
f 17/61/16 22/63/16 18/64/16
f 22/65/17 21/66/17 23/67/17
f 22/65/17 23/67/17 24/68/17
f 17/69/18 18/70/18 20/71/18
f 17/69/18 20/71/18 19/72/18
f 26/73/19 30/74/19 32/75/19
f 26/73/19 32/75/19 28/76/19
f 29/77/20 25/78/20 27/79/20
f 29/77/20 27/79/20 31/80/20
f 28/81/21 32/82/21 31/83/21
f 28/81/21 31/83/21 27/84/21
f 25/85/22 29/86/22 30/87/22
f 25/85/22 30/87/22 26/88/22
f 30/89/23 29/90/23 31/91/23
f 30/89/23 31/91/23 32/92/23
f 25/93/24 26/94/24 28/95/24
f 25/93/24 28/95/24 27/96/24
f 34/97/25 38/98/25 40/99/25
f 34/97/25 40/99/25 36/100/25
f 37/101/26 33/102/26 35/103/26
f 37/101/26 35/103/26 39/104/26
f 36/105/27 40/106/27 39/107/27
f 36/105/27 39/107/27 35/108/27
f 33/109/28 37/110/28 38/111/28
f 33/109/28 38/111/28 34/112/28
f 38/113/29 37/114/29 39/115/29
f 38/113/29 39/115/29 40/116/29
f 33/117/30 34/118/30 36/119/30
f 33/117/30 36/119/30 35/120/30
f 42/121/31 46/122/31 48/123/31
f 42/121/31 48/123/31 44/124/31
f 45/125/32 41/126/32 43/127/32
f 45/125/32 43/127/32 47/128/32
f 44/129/33 48/130/33 47/131/33
f 44/129/33 47/131/33 43/132/33
f 41/133/34 45/134/34 46/135/34
f 41/133/34 46/135/34 42/136/34
f 46/137/35 45/138/35 47/139/35
f 46/137/35 47/139/35 48/140/35
f 41/141/36 42/142/36 44/143/36
f 41/141/36 44/143/36 43/144/36
f 50/145/37 54/146/37 56/147/37
f 50/145/37 56/147/37 52/148/37
f 53/149/38 49/150/38 51/151/38
f 53/149/38 51/151/38 55/152/38
f 52/153/39 56/154/39 55/155/39
f 52/153/39 55/155/39 51/156/39
f 49/157/40 53/158/40 54/159/40
f 49/157/40 54/159/40 50/160/40
f 54/161/41 53/162/41 55/163/41
f 54/161/41 55/163/41 56/164/41
f 49/165/42 50/166/42 52/167/42
f 49/165/42 52/167/42 51/168/42
f 58/169/43 62/170/43 64/171/43
f 58/169/43 64/171/43 60/172/43
f 61/173/44 57/174/44 59/175/44
f 61/173/44 59/175/44 63/176/44
f 60/177/45 64/178/45 63/179/45
f 60/177/45 63/179/45 59/180/45
f 57/181/46 61/182/46 62/183/46
f 57/181/46 62/183/46 58/184/46
f 62/185/47 61/186/47 63/187/47
f 62/185/47 63/187/47 64/188/47
f 57/189/48 58/190/48 60/191/48
f 57/189/48 60/191/48 59/192/48
f 66/193/49 70/194/49 72/195/49
f 66/193/49 72/195/49 68/196/49
f 69/197/50 65/198/50 67/199/50
f 69/197/50 67/199/50 71/200/50
f 68/201/51 72/202/51 71/203/51
f 68/201/51 71/203/51 67/204/51
f 65/205/52 69/206/52 70/207/52
f 65/205/52 70/207/52 66/208/52
f 70/209/53 69/210/53 71/211/53
f 70/209/53 71/211/53 72/212/53
f 65/213/54 66/214/54 68/215/54
f 65/213/54 68/215/54 67/216/54
f 74/217/55 78/218/55 80/219/55
f 74/217/55 80/219/55 76/220/55
f 77/221/56 73/222/56 75/223/56
f 77/221/56 75/223/56 79/224/56
f 76/225/57 80/226/57 79/227/57
f 76/225/57 79/227/57 75/228/57
f 73/229/58 77/230/58 78/231/58
f 73/229/58 78/231/58 74/232/58
f 78/233/59 77/234/59 79/235/59
f 78/233/59 79/235/59 80/236/59
f 73/237/60 74/238/60 76/239/60
f 73/237/60 76/239/60 75/240/60
f 82/241/61 86/242/61 88/243/61
f 82/241/61 88/243/61 84/244/61
f 85/245/62 81/246/62 83/247/62
f 85/245/62 83/247/62 87/248/62
f 84/249/63 88/250/63 87/251/63
f 84/249/63 87/251/63 83/252/63
f 81/253/64 85/254/64 86/255/64
f 81/253/64 86/255/64 82/256/64
f 86/257/65 85/258/65 87/259/65
f 86/257/65 87/259/65 88/260/65
f 81/261/66 82/262/66 84/263/66
f 81/261/66 84/263/66 83/264/66
f 90/265/67 94/266/67 96/267/67
f 90/265/67 96/267/67 92/268/67
f 93/269/68 89/270/68 91/271/68
f 93/269/68 91/271/68 95/272/68
f 92/273/69 96/274/69 95/275/69
f 92/273/69 95/275/69 91/276/69
f 89/277/70 93/278/70 94/279/70
f 89/277/70 94/279/70 90/280/70
f 94/281/71 93/282/71 95/283/71
f 94/281/71 95/283/71 96/284/71
f 89/285/72 90/286/72 92/287/72
f 89/285/72 92/287/72 91/288/72
f 98/289/73 102/290/73 104/291/73
f 98/289/73 104/291/73 100/292/73
f 101/293/74 97/294/74 99/295/74
f 101/293/74 99/295/74 103/296/74
f 100/297/75 104/298/75 103/299/75
f 100/297/75 103/299/75 99/300/75
f 97/301/76 101/302/76 102/303/76
f 97/301/76 102/303/76 98/304/76
f 102/305/77 101/306/77 103/307/77
f 102/305/77 103/307/77 104/308/77
f 97/309/78 98/310/78 100/311/78
f 97/309/78 100/311/78 99/312/78
f 106/313/79 110/314/79 112/315/79
f 106/313/79 112/315/79 108/316/79
f 109/317/80 105/318/80 107/319/80
f 109/317/80 107/319/80 111/320/80
f 108/321/81 112/322/81 111/323/81
f 108/321/81 111/323/81 107/324/81
f 105/325/82 109/326/82 110/327/82
f 105/325/82 110/327/82 106/328/82
f 110/329/83 109/330/83 111/331/83
f 110/329/83 111/331/83 112/332/83
f 105/333/84 106/334/84 108/335/84
f 105/333/84 108/335/84 107/336/84
f 114/337/85 118/338/85 120/339/85
f 114/337/85 120/339/85 116/340/85
f 117/341/86 113/342/86 115/343/86
f 117/341/86 115/343/86 119/344/86
f 116/345/87 120/346/87 119/347/87
f 116/345/87 119/347/87 115/348/87
f 113/349/88 117/350/88 118/351/88
f 113/349/88 118/351/88 114/352/88
f 118/353/89 117/354/89 119/355/89
f 118/353/89 119/355/89 120/356/89
f 113/357/90 114/358/90 116/359/90
f 113/357/90 116/359/90 115/360/90
f 122/361/91 126/362/91 128/363/91
f 122/361/91 128/363/91 124/364/91
f 125/365/92 121/366/92 123/367/92
f 125/365/92 123/367/92 127/368/92
f 124/369/93 128/370/93 127/371/93
f 124/369/93 127/371/93 123/372/93
f 121/373/94 125/374/94 126/375/94
f 121/373/94 126/375/94 122/376/94
f 126/377/95 125/378/95 127/379/95
f 126/377/95 127/379/95 128/380/95
f 121/381/96 122/382/96 124/383/96
f 121/381/96 124/383/96 123/384/96
f 130/385/97 134/386/97 136/387/97
f 130/385/97 136/387/97 132/388/97
f 133/389/98 129/390/98 131/391/98
f 133/389/98 131/391/98 135/392/98
f 132/393/99 136/394/99 135/395/99
f 132/393/99 135/395/99 131/396/99
f 129/397/100 133/398/100 134/399/100
f 129/397/100 134/399/100 130/400/100
f 134/401/101 133/402/101 135/403/101
f 134/401/101 135/403/101 136/404/101
f 129/405/102 130/406/102 132/407/102
f 129/405/102 132/407/102 131/408/102
f 138/409/103 142/410/103 144/411/103
f 138/409/103 144/411/103 140/412/103
f 141/413/104 137/414/104 139/415/104
f 141/413/104 139/415/104 143/416/104
f 140/417/105 144/418/105 143/419/105
f 140/417/105 143/419/105 139/420/105
f 137/421/106 141/422/106 142/423/106
f 137/421/106 142/423/106 138/424/106
f 142/425/107 141/426/107 143/427/107
f 142/425/107 143/427/107 144/428/107
f 137/429/108 138/430/108 140/431/108
f 137/429/108 140/431/108 139/432/108
f 146/433/109 150/434/109 152/435/109
f 146/433/109 152/435/109 148/436/109
f 149/437/110 145/438/110 147/439/110
f 149/437/110 147/439/110 151/440/110
f 148/441/111 152/442/111 151/443/111
f 148/441/111 151/443/111 147/444/111
f 145/445/112 149/446/112 150/447/112
f 145/445/112 150/447/112 146/448/112
f 150/449/113 149/450/113 151/451/113
f 150/449/113 151/451/113 152/452/113
f 145/453/114 146/454/114 148/455/114
f 145/453/114 148/455/114 147/456/114
f 153/457/115 155/458/116 156/459/116
f 153/457/115 156/459/116 154/460/115
f 155/461/117 157/462/118 158/463/118
f 155/461/117 158/463/118 156/464/117
f 157/465/119 159/466/120 160/467/120
f 157/465/119 160/467/120 158/468/119
f 159/469/121 161/470/122 162/471/122
f 159/469/121 162/471/122 160/472/121
f 161/473/123 163/474/124 164/475/124
f 161/473/123 164/475/124 162/476/123
f 163/477/125 165/478/126 166/479/126
f 163/477/125 166/479/126 164/480/125
f 165/481/127 167/482/128 168/483/128
f 165/481/127 168/483/128 166/484/127
f 167/485/129 153/486/130 154/487/130
f 167/485/129 154/487/130 168/488/129
f 169/489/131 171/490/132 172/491/132
f 169/489/131 172/491/132 170/492/131
f 171/493/133 173/494/134 174/495/134
f 171/493/133 174/495/134 172/496/133
f 173/497/135 175/498/136 176/499/136
f 173/497/135 176/499/136 174/500/135
f 175/501/137 177/502/138 178/503/138
f 175/501/137 178/503/138 176/504/137
f 177/505/139 179/506/140 180/507/140
f 177/505/139 180/507/140 178/508/139
f 179/509/141 181/510/142 182/511/142
f 179/509/141 182/511/142 180/512/141
f 181/513/143 183/514/144 184/515/144
f 181/513/143 184/515/144 182/516/143
f 183/517/145 169/518/146 170/519/146
f 183/517/145 170/519/146 184/520/145
f 185/521/147 187/522/148 188/523/148
f 185/521/147 188/523/148 186/524/147
f 187/525/149 189/526/150 190/527/150
f 187/525/149 190/527/150 188/528/149
f 189/529/151 191/530/152 192/531/152
f 189/529/151 192/531/152 190/532/151
f 191/533/153 193/534/154 194/535/154
f 191/533/153 194/535/154 192/536/153
f 193/537/155 195/538/156 196/539/156
f 193/537/155 196/539/156 194/540/155
f 195/541/157 197/542/158 198/543/158
f 195/541/157 198/543/158 196/544/157
f 197/545/159 199/546/160 200/547/160
f 197/545/159 200/547/160 198/548/159
f 199/549/161 201/550/162 202/551/162
f 199/549/161 202/551/162 200/552/161
f 201/553/163 203/554/164 204/555/164
f 201/553/163 204/555/164 202/556/163
f 203/557/165 205/558/166 206/559/166
f 203/557/165 206/559/166 204/560/165
f 205/561/167 207/562/168 208/563/168
f 205/561/167 208/563/168 206/564/167
f 207/565/169 185/566/170 186/567/170
f 207/565/169 186/567/170 208/568/169
