# Wavefront OBJ: SM_Spatula
o SM_Spatula
v 0.013000 0.025000 -0.160000
v 0.013000 0.025000 -0.050000
v 0.011258 0.031500 -0.160000
v 0.011258 0.031500 -0.050000
v 0.006500 0.036258 -0.160000
v 0.006500 0.036258 -0.050000
v 0.000000 0.038000 -0.160000
v 0.000000 0.038000 -0.050000
v -0.006500 0.036258 -0.160000
v -0.006500 0.036258 -0.050000
v -0.011258 0.031500 -0.160000
v -0.011258 0.031500 -0.050000
v -0.013000 0.025000 -0.160000
v -0.013000 0.025000 -0.050000
v -0.011258 0.018500 -0.160000
v -0.011258 0.018500 -0.050000
v -0.006500 0.013742 -0.160000
v -0.006500 0.013742 -0.050000
v -0.000000 0.012000 -0.160000
v -0.000000 0.012000 -0.050000
v 0.006500 0.013742 -0.160000
v 0.006500 0.013742 -0.050000
v 0.011258 0.018500 -0.160000
v 0.011258 0.018500 -0.050000
v -0.010000 0.005000 -0.050000
v -0.010000 0.005000 -0.020000
v -0.010000 0.025000 -0.050000
v -0.010000 0.025000 -0.020000
v 0.010000 0.005000 -0.050000
v 0.010000 0.005000 -0.020000
v 0.010000 0.025000 -0.050000
v 0.010000 0.025000 -0.020000
v -0.016000 0.003000 -0.020000
v -0.016000 0.003000 0.160000
v -0.016000 0.005000 -0.020000
v -0.016000 0.005000 0.160000
v 0.016000 0.003000 -0.020000
v 0.016000 0.003000 0.160000
v 0.016000 0.005000 -0.020000
v 0.016000 0.005000 0.160000
v 0.016000 0.004000 0.155000
v 0.016000 0.004000 0.165000
v 0.012944 0.013405 0.155000
v 0.012944 0.013405 0.165000
v 0.004944 0.019217 0.155000
v 0.004944 0.019217 0.165000
v -0.004944 0.019217 0.155000
v -0.004944 0.019217 0.165000
v -0.012944 0.013405 0.155000
v -0.012944 0.013405 0.165000
v -0.016000 0.004000 0.155000
v -0.016000 0.004000 0.165000
v -0.012944 -0.005405 0.155000
v -0.012944 -0.005405 0.165000
v -0.004944 -0.011217 0.155000
v -0.004944 -0.011217 0.165000
v 0.004944 -0.011217 0.155000
v 0.004944 -0.011217 0.165000
v 0.012944 -0.005405 0.155000
v 0.012944 -0.005405 0.165000
vt 0.000000 0.000000
vt 0.083333 0.000000
vt 0.083333 0.110000
vt 0.000000 0.110000
vt 0.083333 0.000000
vt 0.166667 0.000000
vt 0.166667 0.110000
vt 0.083333 0.110000
vt 0.166667 0.000000
vt 0.250000 0.000000
vt 0.250000 0.110000
vt 0.166667 0.110000
vt 0.250000 0.000000
vt 0.333333 0.000000
vt 0.333333 0.110000
vt 0.250000 0.110000
vt 0.333333 0.000000
vt 0.416667 0.000000
vt 0.416667 0.110000
vt 0.333333 0.110000
vt 0.416667 0.000000
vt 0.500000 0.000000
vt 0.500000 0.110000
vt 0.416667 0.110000
vt 0.500000 0.000000
vt 0.583333 0.000000
vt 0.583333 0.110000
vt 0.500000 0.110000
vt 0.583333 0.000000
vt 0.666667 0.000000
vt 0.666667 0.110000
vt 0.583333 0.110000
vt 0.666667 0.000000
vt 0.750000 0.000000
vt 0.750000 0.110000
vt 0.666667 0.110000
vt 0.750000 0.000000
vt 0.833333 0.000000
vt 0.833333 0.110000
vt 0.750000 0.110000
vt 0.833333 0.000000
vt 0.916667 0.000000
vt 0.916667 0.110000
vt 0.833333 0.110000
vt 0.916667 0.000000
vt 1.000000 0.000000
vt 1.000000 0.110000
vt 0.916667 0.110000
vt 0.000000 0.000000
vt 0.020000 0.000000
vt 0.020000 0.020000
vt 0.000000 0.020000
vt 0.000000 0.000000
vt 0.020000 0.000000
vt 0.020000 0.020000
vt 0.000000 0.020000
vt 0.000000 0.000000
vt 0.020000 0.000000
vt 0.020000 0.030000
vt 0.000000 0.030000
vt 0.000000 0.000000
vt 0.020000 0.000000
vt 0.020000 0.030000
vt 0.000000 0.030000
vt 0.000000 0.000000
vt 0.030000 0.000000
vt 0.030000 0.020000
vt 0.000000 0.020000
vt 0.000000 0.000000
vt 0.030000 0.000000
vt 0.030000 0.020000
vt 0.000000 0.020000
vt 0.000000 0.000000
vt 0.032000 0.000000
vt 0.032000 0.002000
vt 0.000000 0.002000
vt 0.000000 0.000000
vt 0.032000 0.000000
vt 0.032000 0.002000
vt 0.000000 0.002000
vt 0.000000 0.000000
vt 0.032000 0.000000
vt 0.032000 0.180000
vt 0.000000 0.180000
vt 0.000000 0.000000
vt 0.032000 0.000000
vt 0.032000 0.180000
vt 0.000000 0.180000
vt 0.000000 0.000000
vt 0.180000 0.000000
vt 0.180000 0.002000
vt 0.000000 0.002000
vt 0.000000 0.000000
vt 0.180000 0.000000
vt 0.180000 0.002000
vt 0.000000 0.002000
vt 0.000000 0.000000
vt 0.100000 0.000000
vt 0.100000 0.010000
vt 0.000000 0.010000
vt 0.100000 0.000000
vt 0.200000 0.000000
vt 0.200000 0.010000
vt 0.100000 0.010000
vt 0.200000 0.000000
vt 0.300000 0.000000
vt 0.300000 0.010000
vt 0.200000 0.010000
vt 0.300000 0.000000
vt 0.400000 0.000000
vt 0.400000 0.010000
vt 0.300000 0.010000
vt 0.400000 0.000000
vt 0.500000 0.000000
vt 0.500000 0.010000
vt 0.400000 0.010000
vt 0.500000 0.000000
vt 0.600000 0.000000
vt 0.600000 0.010000
vt 0.500000 0.010000
vt 0.600000 0.000000
vt 0.700000 0.000000
vt 0.700000 0.010000
vt 0.600000 0.010000
vt 0.700000 0.000000
vt 0.800000 0.000000
vt 0.800000 0.010000
vt 0.700000 0.010000
vt 0.800000 0.000000
vt 0.900000 0.000000
vt 0.900000 0.010000
vt 0.800000 0.010000
vt 0.900000 0.000000
vt 1.000000 0.000000
vt 1.000000 0.010000
vt 0.900000 0.010000
vn 1.000000 0.000000 0.000000
vn 0.866025 0.500000 0.000000
vn 0.866025 0.500000 0.000000
vn 0.500000 0.866025 0.000000
vn 0.500000 0.866025 0.000000
vn 0.000000 1.000000 0.000000
vn 0.000000 1.000000 0.000000
vn -0.500000 0.866025 0.000000
vn -0.500000 0.866025 0.000000
vn -0.866025 0.500000 0.000000
vn -0.866025 0.500000 0.000000
vn -1.000000 0.000000 0.000000
vn -1.000000 0.000000 0.000000
vn -0.866025 -0.500000 -0.000000
vn -0.866025 -0.500000 -0.000000
vn -0.500000 -0.866025 -0.000000
vn -0.500000 -0.866025 -0.000000
vn -0.000000 -1.000000 -0.000000
vn -0.000000 -1.000000 -0.000000
vn 0.500000 -0.866025 0.000000
vn 0.500000 -0.866025 0.000000
vn 0.866025 -0.500000 0.000000
vn 0.866025 -0.500000 0.000000
vn 1.000000 0.000000 0.000000
vn 0.000000 0.000000 1.000000
vn 0.000000 0.000000 -1.000000
vn 0.000000 1.000000 0.000000
vn 0.000000 -1.000000 0.000000
vn 1.000000 0.000000 0.000000
vn -1.000000 0.000000 0.000000
vn 0.000000 0.000000 1.000000
vn 0.000000 0.000000 -1.000000
vn 0.000000 1.000000 0.000000
vn 0.000000 -1.000000 0.000000
vn 1.000000 0.000000 0.000000
vn -1.000000 0.000000 0.000000
vn 1.000000 0.000000 0.000000
vn 0.809017 0.587785 0.000000
vn 0.809017 0.587785 0.000000
vn 0.309017 0.951057 0.000000
vn 0.309017 0.951057 0.000000
vn -0.309017 0.951057 0.000000
vn -0.309017 0.951057 0.000000
vn -0.809017 0.587785 0.000000
vn -0.809017 0.587785 0.000000
vn -1.000000 0.000000 0.000000
vn -1.000000 0.000000 0.000000
vn -0.809017 -0.587785 -0.000000
vn -0.809017 -0.587785 -0.000000
vn -0.309017 -0.951057 -0.000000
vn -0.309017 -0.951057 -0.000000
vn 0.309017 -0.951057 0.000000
vn 0.309017 -0.951057 0.000000
vn 0.809017 -0.587785 0.000000
vn 0.809017 -0.587785 0.000000
vn 1.000000 0.000000 0.000000
s 1
f 1/1/1 3/2/2 4/3/2
f 1/1/1 4/3/2 2/4/1
f 3/5/3 5/6/4 6/7/4
f 3/5/3 6/7/4 4/8/3
f 5/9/5 7/10/6 8/11/6
f 5/9/5 8/11/6 6/12/5
f 7/13/7 9/14/8 10/15/8
f 7/13/7 10/15/8 8/16/7
f 9/17/9 11/18/10 12/19/10
f 9/17/9 12/19/10 10/20/9
f 11/21/11 13/22/12 14/23/12
f 11/21/11 14/23/12 12/24/11
f 13/25/13 15/26/14 16/27/14
f 13/25/13 16/27/14 14/28/13
f 15/29/15 17/30/16 18/31/16
f 15/29/15 18/31/16 16/32/15
f 17/33/17 19/34/18 20/35/18
f 17/33/17 20/35/18 18/36/17
f 19/37/19 21/38/20 22/39/20
f 19/37/19 22/39/20 20/40/19
f 21/41/21 23/42/22 24/43/22
f 21/41/21 24/43/22 22/44/21
f 23/45/23 1/46/24 2/47/24
f 23/45/23 2/47/24 24/48/23
f 26/49/25 30/50/25 32/51/25
f 26/49/25 32/51/25 28/52/25
f 29/53/26 25/54/26 27/55/26
f 29/53/26 27/55/26 31/56/26
f 28/57/27 32/58/27 31/59/27
f 28/57/27 31/59/27 27/60/27
f 25/61/28 29/62/28 30/63/28
f 25/61/28 30/63/28 26/64/28
f 30/65/29 29/66/29 31/67/29
f 30/65/29 31/67/29 32/68/29
f 25/69/30 26/70/30 28/71/30
f 25/69/30 28/71/30 27/72/30
f 34/73/31 38/74/31 40/75/31
f 34/73/31 40/75/31 36/76/31
f 37/77/32 33/78/32 35/79/32
f 37/77/32 35/79/32 39/80/32
f 36/81/33 40/82/33 39/83/33
f 36/81/33 39/83/33 35/84/33
f 33/85/34 37/86/34 38/87/34
f 33/85/34 38/87/34 34/88/34
f 38/89/35 37/90/35 39/91/35
f 38/89/35 39/91/35 40/92/35
f 33/93/36 34/94/36 36/95/36
f 33/93/36 36/95/36 35/96/36
f 41/97/37 43/98/38 44/99/38
f 41/97/37 44/99/38 42/100/37
f 43/101/39 45/102/40 46/103/40
f 43/101/39 46/103/40 44/104/39
f 45/105/41 47/106/42 48/107/42
f 45/105/41 48/107/42 46/108/41
f 47/109/43 49/110/44 50/111/44
f 47/109/43 50/111/44 48/112/43
f 49/113/45 51/114/46 52/115/46
f 49/113/45 52/115/46 50/116/45
f 51/117/47 53/118/48 54/119/48
f 51/117/47 54/119/48 52/120/47
f 53/121/49 55/122/50 56/123/50
f 53/121/49 56/123/50 54/124/49
f 55/125/51 57/126/52 58/127/52
f 55/125/51 58/127/52 56/128/51
f 57/129/53 59/130/54 60/131/54
f 57/129/53 60/131/54 58/132/53
f 59/133/55 41/134/56 42/135/56
f 59/133/55 42/135/56 60/136/55
