# Wavefront OBJ: SM_SauceBag
o SM_SauceBag
v 0.000000 0.000000 0.000000
v 0.045000 0.220000 0.000000
v 0.038971 0.220000 0.022500
v 0.038971 0.220000 0.022500
v 0.022500 0.220000 0.038971
v 0.022500 0.220000 0.038971
v 0.000000 0.220000 0.045000
v 0.000000 0.220000 0.045000
v -0.022500 0.220000 0.038971
v -0.022500 0.220000 0.038971
v -0.038971 0.220000 0.022500
v -0.038971 0.220000 0.022500
v -0.045000 0.220000 0.000000
v -0.045000 0.220000 0.000000
v -0.038971 0.220000 -0.022500
v -0.038971 0.220000 -0.022500
v -0.022500 0.220000 -0.038971
v -0.022500 0.220000 -0.038971
v -0.000000 0.220000 -0.045000
v -0.000000 0.220000 -0.045000
v 0.022500 0.220000 -0.038971
v 0.022500 0.220000 -0.038971
v 0.038971 0.220000 -0.022500
v 0.038971 0.220000 -0.022500
v 0.045000 0.220000 -0.000000
v 0.000000 0.220000 0.012000
v 0.000000 0.245000 0.012000
v 0.008485 0.220000 0.008485
v 0.008485 0.245000 0.008485
v 0.012000 0.220000 0.000000
v 0.012000 0.245000 0.000000
v 0.008485 0.220000 -0.008485
v 0.008485 0.245000 -0.008485
v 0.000000 0.220000 -0.012000
v 0.000000 0.245000 -0.012000
v -0.008485 0.220000 -0.008485
v -0.008485 0.245000 -0.008485
v -0.012000 0.220000 -0.000000
v -0.012000 0.245000 -0.000000
v -0.008485 0.220000 0.008485
v -0.008485 0.245000 0.008485
vt 0.000000 1.000000
vt 0.083333 1.000000
vt 0.500000 0.000000
vt 0.083333 1.000000
vt 0.166667 1.000000
vt 0.500000 0.000000
vt 0.166667 1.000000
vt 0.250000 1.000000
vt 0.500000 0.000000
vt 0.250000 1.000000
vt 0.333333 1.000000
vt 0.500000 0.000000
vt 0.333333 1.000000
vt 0.416667 1.000000
vt 0.500000 0.000000
vt 0.416667 1.000000
vt 0.500000 1.000000
vt 0.500000 0.000000
vt 0.500000 1.000000
vt 0.583333 1.000000
vt 0.500000 0.000000
vt 0.583333 1.000000
vt 0.666667 1.000000
vt 0.500000 0.000000
vt 0.666667 1.000000
vt 0.750000 1.000000
vt 0.500000 0.000000
vt 0.750000 1.000000
vt 0.833333 1.000000
vt 0.500000 0.000000
vt 0.833333 1.000000
vt 0.916667 1.000000
vt 0.500000 0.000000
vt 0.916667 1.000000
vt 1.000000 1.000000
vt 0.500000 0.000000
vt 0.000000 0.000000
vt 0.125000 0.000000
vt 0.125000 0.025000
vt 0.000000 0.025000
vt 0.125000 0.000000
vt 0.250000 0.000000
vt 0.250000 0.025000
vt 0.125000 0.025000
vt 0.250000 0.000000
vt 0.375000 0.000000
vt 0.375000 0.025000
vt 0.250000 0.025000
vt 0.375000 0.000000
vt 0.500000 0.000000
vt 0.500000 0.025000
vt 0.375000 0.025000
vt 0.500000 0.000000
vt 0.625000 0.000000
vt 0.625000 0.025000
vt 0.500000 0.025000
vt 0.625000 0.000000
vt 0.750000 0.000000
vt 0.750000 0.025000
vt 0.625000 0.025000
vt 0.750000 0.000000
vt 0.875000 0.000000
vt 0.875000 0.025000
vt 0.750000 0.025000
vt 0.875000 0.000000
vt 1.000000 0.000000
vt 1.000000 0.025000
vt 0.875000 0.025000
vn 1.000000 0.200000 0.000000
vn 0.866025 0.200000 0.500000
vn 0.500000 0.200000 0.866025
vn 0.000000 0.200000 1.000000
vn -0.500000 0.200000 0.866025
vn -0.866025 0.200000 0.500000
vn -1.000000 0.200000 0.000000
vn -0.866025 0.200000 -0.500000
vn -0.500000 0.200000 -0.866025
vn -0.000000 0.200000 -1.000000
vn 0.500000 0.200000 -0.866025
vn 0.866025 0.200000 -0.500000
vn 0.000000 0.000000 1.000000
vn 0.707107 0.000000 0.707107
vn 0.707107 0.000000 0.707107
vn 1.000000 0.000000 0.000000
vn 1.000000 0.000000 0.000000
vn 0.707107 0.000000 -0.707107
vn 0.707107 0.000000 -0.707107
vn 0.000000 0.000000 -1.000000
vn 0.000000 0.000000 -1.000000
vn -0.707107 -0.000000 -0.707107
vn -0.707107 -0.000000 -0.707107
vn -1.000000 -0.000000 -0.000000
vn -1.000000 -0.000000 -0.000000
vn -0.707107 0.000000 0.707107
vn -0.707107 0.000000 0.707107
vn 0.000000 0.000000 1.000000
s 1
f 1/3/1 2/1/1 3/2/1
f 1/6/2 4/4/2 5/5/2
f 1/9/3 6/7/3 7/8/3
f 1/12/4 8/10/4 9/11/4
f 1/15/5 10/13/5 11/14/5
f 1/18/6 12/16/6 13/17/6
f 1/21/7 14/19/7 15/20/7
f 1/24/8 16/22/8 17/23/8
f 1/27/9 18/25/9 19/26/9
f 1/30/10 20/28/10 21/29/10
f 1/33/11 22/31/11 23/32/11
f 1/36/12 24/34/12 25/35/12
f 26/37/13 28/38/14 29/39/14
f 26/37/13 29/39/14 27/40/13
f 28/41/15 30/42/16 31/43/16
f 28/41/15 31/43/16 29/44/15
f 30/45/17 32/46/18 33/47/18
f 30/45/17 33/47/18 31/48/17
f 32/49/19 34/50/20 35/51/20
f 32/49/19 35/51/20 33/52/19
f 34/53/21 36/54/22 37/55/22
f 34/53/21 37/55/22 35/56/21
f 36/57/23 38/58/24 39/59/24
f 36/57/23 39/59/24 37/60/23
f 38/61/25 40/62/26 41/63/26
f 38/61/25 41/63/26 39/64/25
f 40/65/27 26/66/28 27/67/28
f 40/65/27 27/67/28 41/68/27
