# Wavefront OBJ: SM_Alley_Walls
o SM_Alley_Walls
v 16.400000 0.000000 -15.000000
v 16.400000 0.000000 -3.800000
v 16.400000 7.500000 -15.000000
v 16.400000 7.500000 -3.800000
v 16.500000 0.000000 -15.000000
v 16.500000 0.000000 -3.800000
v 16.500000 7.500000 -15.000000
v 16.500000 7.500000 -3.800000
v 20.500000 0.000000 -15.000000
v 20.500000 0.000000 -3.800000
v 20.500000 7.500000 -15.000000
v 20.500000 7.500000 -3.800000
v 20.600000 0.000000 -15.000000
v 20.600000 0.000000 -3.800000
v 20.600000 7.500000 -15.000000
v 20.600000 7.500000 -3.800000
v 16.400000 0.000000 -15.100000
v 16.400000 0.000000 -15.000000
v 16.400000 7.500000 -15.100000
v 16.400000 7.500000 -15.000000
v 20.600000 0.000000 -15.100000
v 20.600000 0.000000 -15.000000
v 20.600000 7.500000 -15.100000
v 20.600000 7.500000 -15.000000
vt 0.000000 0.000000
vt 0.050000 0.000000
vt 0.050000 3.750000
vt 0.000000 3.750000
vt 0.000000 0.000000
vt 0.050000 0.000000
vt 0.050000 3.750000
vt 0.000000 3.750000
vt 0.000000 0.000000
vt 0.050000 0.000000
vt 0.050000 5.600000
vt 0.000000 5.600000
vt 0.000000 0.000000
vt 0.050000 0.000000
vt 0.050000 5.600000
vt 0.000000 5.600000
vt 0.000000 0.000000
vt 5.600000 0.000000
vt 5.600000 3.750000
vt 0.000000 3.750000
vt 0.000000 0.000000
vt 5.600000 0.000000
vt 5.600000 3.750000
vt 0.000000 3.750000
vt 0.000000 0.000000
vt 0.050000 0.000000
vt 0.050000 3.750000
vt 0.000000 3.750000
vt 0.000000 0.000000
vt 0.050000 0.000000
vt 0.050000 3.750000
vt 0.000000 3.750000
vt 0.000000 0.000000
vt 0.050000 0.000000
vt 0.050000 5.600000
vt 0.000000 5.600000
vt 0.000000 0.000000
vt 0.050000 0.000000
vt 0.050000 5.600000
vt 0.000000 5.600000
vt 0.000000 0.000000
vt 5.600000 0.000000
vt 5.600000 3.750000
vt 0.000000 3.750000
vt 0.000000 0.000000
vt 5.600000 0.000000
vt 5.600000 3.750000
vt 0.000000 3.750000
vt 0.000000 0.000000
vt 2.100000 0.000000
vt 2.100000 3.750000
vt 0.000000 3.750000
vt 0.000000 0.000000
vt 2.100000 0.000000
vt 2.100000 3.750000
vt 0.000000 3.750000
vt 0.000000 0.000000
vt 2.100000 0.000000
vt 2.100000 0.050000
vt 0.000000 0.050000
vt 0.000000 0.000000
vt 2.100000 0.000000
vt 2.100000 0.050000
vt 0.000000 0.050000
vt 0.000000 0.000000
vt 0.050000 0.000000
vt 0.050000 3.750000
vt 0.000000 3.750000
vt 0.000000 0.000000
vt 0.050000 0.000000
vt 0.050000 3.750000
vt 0.000000 3.750000
vn 0.000000 0.000000 1.000000
vn 0.000000 0.000000 -1.000000
vn 0.000000 1.000000 0.000000
vn 0.000000 -1.000000 0.000000
vn 1.000000 0.000000 0.000000
vn -1.000000 0.000000 0.000000
vn 0.000000 0.000000 1.000000
vn 0.000000 0.000000 -1.000000
vn 0.000000 1.000000 0.000000
vn 0.000000 -1.000000 0.000000
vn 1.000000 0.000000 0.000000
vn -1.000000 0.000000 0.000000
vn 0.000000 0.000000 1.000000
vn 0.000000 0.000000 -1.000000
vn 0.000000 1.000000 0.000000
vn 0.000000 -1.000000 0.000000
vn 1.000000 0.000000 0.000000
vn -1.000000 0.000000 0.000000
s 1
f 2/1/1 6/2/1 8/3/1
f 2/1/1 8/3/1 4/4/1
f 5/5/2 1/6/2 3/7/2
f 5/5/2 3/7/2 7/8/2
f 4/9/3 8/10/3 7/11/3
f 4/9/3 7/11/3 3/12/3
f 1/13/4 5/14/4 6/15/4
f 1/13/4 6/15/4 2/16/4
f 6/17/5 5/18/5 7/19/5
f 6/17/5 7/19/5 8/20/5
f 1/21/6 2/22/6 4/23/6
f 1/21/6 4/23/6 3/24/6
f 10/25/7 14/26/7 16/27/7
f 10/25/7 16/27/7 12/28/7
f 13/29/8 9/30/8 11/31/8
f 13/29/8 11/31/8 15/32/8
f 12/33/9 16/34/9 15/35/9
f 12/33/9 15/35/9 11/36/9
f 9/37/10 13/38/10 14/39/10
f 9/37/10 14/39/10 10/40/10
f 14/41/11 13/42/11 15/43/11
f 14/41/11 15/43/11 16/44/11
f 9/45/12 10/46/12 12/47/12
f 9/45/12 12/47/12 11/48/12
f 18/49/13 22/50/13 24/51/13
f 18/49/13 24/51/13 20/52/13
f 21/53/14 17/54/14 19/55/14
f 21/53/14 19/55/14 23/56/14
f 20/57/15 24/58/15 23/59/15
f 20/57/15 23/59/15 19/60/15
f 17/61/16 21/62/16 22/63/16
f 17/61/16 22/63/16 18/64/16
f 22/65/17 21/66/17 23/67/17
f 22/65/17 23/67/17 24/68/17
f 17/69/18 18/70/18 20/71/18
f 17/69/18 20/71/18 19/72/18
