# Wavefront OBJ: SM_Asphalt_Road
o SM_Asphalt_Road
v -4.000000 -0.050000 -6.000000
v -4.000000 -0.050000 6.000000
v -4.000000 0.000000 -6.000000
v -4.000000 0.000000 6.000000
v 4.000000 -0.050000 -6.000000
v 4.000000 -0.050000 6.000000
v 4.000000 0.000000 -6.000000
v 4.000000 0.000000 6.000000
vt 0.000000 0.000000
vt 24.000000 0.000000
vt 24.000000 0.150000
vt 0.000000 0.150000
vt 0.000000 0.000000
vt 24.000000 0.000000
vt 24.000000 0.150000
vt 0.000000 0.150000
vt 0.000000 0.000000
vt 24.000000 0.000000
vt 24.000000 36.000000
vt 0.000000 36.000000
vt 0.000000 0.000000
vt 24.000000 0.000000
vt 24.000000 36.000000
vt 0.000000 36.000000
vt 0.000000 0.000000
vt 36.000000 0.000000
vt 36.000000 0.150000
vt 0.000000 0.150000
vt 0.000000 0.000000
vt 36.000000 0.000000
vt 36.000000 0.150000
vt 0.000000 0.150000
vn 0.000000 0.000000 1.000000
vn 0.000000 0.000000 -1.000000
vn 0.000000 1.000000 0.000000
vn 0.000000 -1.000000 0.000000
vn 1.000000 0.000000 0.000000
vn -1.000000 0.000000 0.000000
s 1
f 2/1/1 6/2/1 8/3/1
f 2/1/1 8/3/1 4/4/1
f 5/5/2 1/6/2 3/7/2
f 5/5/2 3/7/2 7/8/2
f 4/9/3 8/10/3 7/11/3
f 4/9/3 7/11/3 3/12/3
f 1/13/4 5/14/4 6/15/4
f 1/13/4 6/15/4 2/16/4
f 6/17/5 5/18/5 7/19/5
f 6/17/5 7/19/5 8/20/5
f 1/21/6 2/22/6 4/23/6
f 1/21/6 4/23/6 3/24/6
