# Wavefront OBJ: SM_Motorbike
o SM_Motorbike
v -0.035000 0.280000 -0.980000
v 0.035000 0.280000 -0.980000
v -0.035000 0.420000 -0.942487
v 0.035000 0.420000 -0.942487
v -0.035000 0.522487 -0.840000
v 0.035000 0.522487 -0.840000
v -0.035000 0.560000 -0.700000
v 0.035000 0.560000 -0.700000
v -0.035000 0.522487 -0.560000
v 0.035000 0.522487 -0.560000
v -0.035000 0.420000 -0.457513
v 0.035000 0.420000 -0.457513
v -0.035000 0.280000 -0.420000
v 0.035000 0.280000 -0.420000
v -0.035000 0.140000 -0.457513
v 0.035000 0.140000 -0.457513
v -0.035000 0.037513 -0.560000
v 0.035000 0.037513 -0.560000
v -0.035000 0.000000 -0.700000
v 0.035000 0.000000 -0.700000
v -0.035000 0.037513 -0.840000
v 0.035000 0.037513 -0.840000
v -0.035000 0.140000 -0.942487
v 0.035000 0.140000 -0.942487
v -0.040000 0.280000 0.420000
v 0.040000 0.280000 0.420000
v -0.040000 0.420000 0.457513
v 0.040000 0.420000 0.457513
v -0.040000 0.522487 0.560000
v 0.040000 0.522487 0.560000
v -0.040000 0.560000 0.700000
v 0.040000 0.560000 0.700000
v -0.040000 0.522487 0.840000
v 0.040000 0.522487 0.840000
v -0.040000 0.420000 0.942487
v 0.040000 0.420000 0.942487
v -0.040000 0.280000 0.980000
v 0.040000 0.280000 0.980000
v -0.040000 0.140000 0.942487
v 0.040000 0.140000 0.942487
v -0.040000 0.037513 0.840000
v 0.040000 0.037513 0.840000
v -0.040000 0.000000 0.700000
v 0.040000 0.000000 0.700000
v -0.040000 0.037513 0.560000
v 0.040000 0.037513 0.560000
v -0.040000 0.140000 0.457513
v 0.040000 0.140000 0.457513
v -0.050175 0.280000 -0.702643
v -0.030175 0.780000 -0.552643
v -0.062279 0.285017 -0.717754
v -0.042279 0.785017 -0.567754
v -0.082103 0.285017 -0.715111
v -0.062103 0.785017 -0.565111
v -0.089825 0.280000 -0.697357
v -0.069825 0.780000 -0.547357
v -0.077721 0.274983 -0.682246
v -0.057721 0.774983 -0.532246
v -0.057897 0.274983 -0.684889
v -0.037897 0.774983 -0.534889
v 0.089825 0.280000 -0.697357
v 0.069825 0.780000 -0.547357
v 0.082103 0.285017 -0.715111
v 0.062103 0.785017 -0.565111
v 0.062279 0.285017 -0.717754
v 0.042279 0.785017 -0.567754
v 0.050175 0.280000 -0.702643
v 0.030175 0.780000 -0.552643
v 0.057897 0.274983 -0.684889
v 0.037897 0.774983 -0.534889
v 0.077721 0.274983 -0.682246
v 0.057721 0.774983 -0.532246
v -0.320000 0.880000 -0.580000
v -0.320000 0.880000 -0.500000
v -0.320000 0.940000 -0.580000
v -0.320000 0.940000 -0.500000
v 0.320000 0.880000 -0.580000
v 0.320000 0.880000 -0.500000
v 0.320000 0.940000 -0.580000
v 0.320000 0.940000 -0.500000
v -0.120000 0.820000 -0.650000
v -0.120000 0.820000 -0.500000
v -0.120000 0.960000 -0.650000
v -0.120000 0.960000 -0.500000
v 0.120000 0.820000 -0.650000
v 0.120000 0.820000 -0.500000
v 0.120000 0.960000 -0.650000
v 0.120000 0.960000 -0.500000
v -0.320000 0.910000 -0.515000
v -0.350000 0.910000 -0.515000
v -0.320000 0.931651 -0.527500
v -0.350000 0.931651 -0.527500
v -0.320000 0.931651 -0.552500
v -0.350000 0.931651 -0.552500
v -0.320000 0.910000 -0.565000
v -0.350000 0.910000 -0.565000
v -0.320000 0.888349 -0.552500
v -0.350000 0.888349 -0.552500
v -0.320000 0.888349 -0.527500
v -0.350000 0.888349 -0.527500
v 0.320000 0.910000 -0.565000
v 0.350000 0.910000 -0.565000
v 0.320000 0.931651 -0.552500
v 0.350000 0.931651 -0.552500
v 0.320000 0.931651 -0.527500
v 0.350000 0.931651 -0.527500
v 0.320000 0.910000 -0.515000
v 0.350000 0.910000 -0.515000
v 0.320000 0.888349 -0.527500
v 0.350000 0.888349 -0.527500
v 0.320000 0.888349 -0.552500
v 0.350000 0.888349 -0.552500
v -0.240000 0.350000 -0.520000
v -0.240000 0.350000 -0.220000
v -0.240000 0.780000 -0.520000
v -0.240000 0.780000 -0.220000
v 0.240000 0.350000 -0.520000
v 0.240000 0.350000 -0.220000
v 0.240000 0.780000 -0.520000
v 0.240000 0.780000 -0.220000
v -0.140000 0.200000 -0.220000
v -0.140000 0.200000 0.250000
v -0.140000 0.550000 -0.220000
v -0.140000 0.550000 0.250000
v 0.140000 0.200000 -0.220000
v 0.140000 0.200000 0.250000
v 0.140000 0.550000 -0.220000
v 0.140000 0.550000 0.250000
v -0.160000 0.520000 0.200000
v -0.160000 0.520000 0.750000
v -0.160000 0.720000 0.200000
v -0.160000 0.720000 0.750000
v 0.160000 0.520000 0.200000
v 0.160000 0.520000 0.750000
v 0.160000 0.720000 0.200000
v 0.160000 0.720000 0.750000
v -0.130000 0.720000 -0.200000
v -0.130000 0.720000 0.650000
v -0.130000 0.790000 -0.200000
v -0.130000 0.790000 0.650000
v 0.130000 0.720000 -0.200000
v 0.130000 0.720000 0.650000
v 0.130000 0.790000 -0.200000
v 0.130000 0.790000 0.650000
v 0.194995 0.220000 0.049357
v 0.204995 0.280000 0.749357
v 0.181778 0.251704 0.046829
v 0.191778 0.311704 0.746829
v 0.149945 0.264836 0.046158
v 0.159945 0.324836 0.746158
v 0.118145 0.251704 0.047738
v 0.128145 0.311704 0.747738
v 0.105005 0.220000 0.050643
v 0.115005 0.280000 0.750643
v 0.118222 0.188296 0.053171
v 0.128222 0.248296 0.753171
v 0.150055 0.175164 0.053842
v 0.160055 0.235164 0.753842
v 0.181855 0.188296 0.052262
v 0.191855 0.248296 0.752262
v -0.094231 0.250000 0.013846
v -0.214231 0.000000 0.063846
v -0.107754 0.255993 0.011356
v -0.227754 0.005993 0.061356
v -0.113523 0.255993 -0.002490
v -0.233523 0.005993 0.047510
v -0.105769 0.250000 -0.013846
v -0.225769 0.000000 0.036154
v -0.092246 0.244007 -0.011356
v -0.212246 -0.005993 0.038644
v -0.086477 0.244007 0.002490
v -0.206477 -0.005993 0.052490
vt 0.000000 0.000000
vt 0.083333 0.000000
vt 0.083333 0.070000
vt 0.000000 0.070000
vt 0.083333 0.000000
vt 0.166667 0.000000
vt 0.166667 0.070000
vt 0.083333 0.070000
vt 0.166667 0.000000
vt 0.250000 0.000000
vt 0.250000 0.070000
vt 0.166667 0.070000
vt 0.250000 0.000000
vt 0.333333 0.000000
vt 0.333333 0.070000
vt 0.250000 0.070000
vt 0.333333 0.000000
vt 0.416667 0.000000
vt 0.416667 0.070000
vt 0.333333 0.070000
vt 0.416667 0.000000
vt 0.500000 0.000000
vt 0.500000 0.070000
vt 0.416667 0.070000
vt 0.500000 0.000000
vt 0.583333 0.000000
vt 0.583333 0.070000
vt 0.500000 0.070000
vt 0.583333 0.000000
vt 0.666667 0.000000
vt 0.666667 0.070000
vt 0.583333 0.070000
vt 0.666667 0.000000
vt 0.750000 0.000000
vt 0.750000 0.070000
vt 0.666667 0.070000
vt 0.750000 0.000000
vt 0.833333 0.000000
vt 0.833333 0.070000
vt 0.750000 0.070000
vt 0.833333 0.000000
vt 0.916667 0.000000
vt 0.916667 0.070000
vt 0.833333 0.070000
vt 0.916667 0.000000
vt 1.000000 0.000000
vt 1.000000 0.070000
vt 0.916667 0.070000
vt 0.000000 0.000000
vt 0.083333 0.000000
vt 0.083333 0.080000
vt 0.000000 0.080000
vt 0.083333 0.000000
vt 0.166667 0.000000
vt 0.166667 0.080000
vt 0.083333 0.080000
vt 0.166667 0.000000
vt 0.250000 0.000000
vt 0.250000 0.080000
vt 0.166667 0.080000
vt 0.250000 0.000000
vt 0.333333 0.000000
vt 0.333333 0.080000
vt 0.250000 0.080000
vt 0.333333 0.000000
vt 0.416667 0.000000
vt 0.416667 0.080000
vt 0.333333 0.080000
vt 0.416667 0.000000
vt 0.500000 0.000000
vt 0.500000 0.080000
vt 0.416667 0.080000
vt 0.500000 0.000000
vt 0.583333 0.000000
vt 0.583333 0.080000
vt 0.500000 0.080000
vt 0.583333 0.000000
vt 0.666667 0.000000
vt 0.666667 0.080000
vt 0.583333 0.080000
vt 0.666667 0.000000
vt 0.750000 0.000000
vt 0.750000 0.080000
vt 0.666667 0.080000
vt 0.750000 0.000000
vt 0.833333 0.000000
vt 0.833333 0.080000
vt 0.750000 0.080000
vt 0.833333 0.000000
vt 0.916667 0.000000
vt 0.916667 0.080000
vt 0.833333 0.080000
vt 0.916667 0.000000
vt 1.000000 0.000000
vt 1.000000 0.080000
vt 0.916667 0.080000
vt 0.000000 0.000000
vt 0.166667 0.000000
vt 0.166667 0.522398
vt 0.000000 0.522398
vt 0.166667 0.000000
vt 0.333333 0.000000
vt 0.333333 0.522398
vt 0.166667 0.522398
vt 0.333333 0.000000
vt 0.500000 0.000000
vt 0.500000 0.522398
vt 0.333333 0.522398
vt 0.500000 0.000000
vt 0.666667 0.000000
vt 0.666667 0.522398
vt 0.500000 0.522398
vt 0.666667 0.000000
vt 0.833333 0.000000
vt 0.833333 0.522398
vt 0.666667 0.522398
vt 0.833333 0.000000
vt 1.000000 0.000000
vt 1.000000 0.522398
vt 0.833333 0.522398
vt 0.000000 0.000000
vt 0.166667 0.000000
vt 0.166667 0.522398
vt 0.000000 0.522398
vt 0.166667 0.000000
vt 0.333333 0.000000
vt 0.333333 0.522398
vt 0.166667 0.522398
vt 0.333333 0.000000
vt 0.500000 0.000000
vt 0.500000 0.522398
vt 0.333333 0.522398
vt 0.500000 0.000000
vt 0.666667 0.000000
vt 0.666667 0.522398
vt 0.500000 0.522398
vt 0.666667 0.000000
vt 0.833333 0.000000
vt 0.833333 0.522398
vt 0.666667 0.522398
vt 0.833333 0.000000
vt 1.000000 0.000000
vt 1.000000 0.522398
vt 0.833333 0.522398
vt 0.000000 0.000000
vt 0.640000 0.000000
vt 0.640000 0.060000
vt 0.000000 0.060000
vt 0.000000 0.000000
vt 0.640000 0.000000
vt 0.640000 0.060000
vt 0.000000 0.060000
vt 0.000000 0.000000
vt 0.640000 0.000000
vt 0.640000 0.080000
vt 0.000000 0.080000
vt 0.000000 0.000000
vt 0.640000 0.000000
vt 0.640000 0.080000
vt 0.000000 0.080000
vt 0.000000 0.000000
vt 0.080000 0.000000
vt 0.080000 0.060000
vt 0.000000 0.060000
vt 0.000000 0.000000
vt 0.080000 0.000000
vt 0.080000 0.060000
vt 0.000000 0.060000
vt 0.000000 0.000000
vt 0.240000 0.000000
vt 0.240000 0.140000
vt 0.000000 0.140000
vt 0.000000 0.000000
vt 0.240000 0.000000
vt 0.240000 0.140000
vt 0.000000 0.140000
vt 0.000000 0.000000
vt 0.240000 0.000000
vt 0.240000 0.150000
vt 0.000000 0.150000
vt 0.000000 0.000000
vt 0.240000 0.000000
vt 0.240000 0.150000
vt 0.000000 0.150000
vt 0.000000 0.000000
vt 0.150000 0.000000
vt 0.150000 0.140000
vt 0.000000 0.140000
vt 0.000000 0.000000
vt 0.150000 0.000000
vt 0.150000 0.140000
vt 0.000000 0.140000
vt 0.000000 0.000000
vt 0.166667 0.000000
vt 0.166667 0.030000
vt 0.000000 0.030000
vt 0.166667 0.000000
vt 0.333333 0.000000
vt 0.333333 0.030000
vt 0.166667 0.030000
vt 0.333333 0.000000
vt 0.500000 0.000000
vt 0.500000 0.030000
vt 0.333333 0.030000
vt 0.500000 0.000000
vt 0.666667 0.000000
vt 0.666667 0.030000
vt 0.500000 0.030000
vt 0.666667 0.000000
vt 0.833333 0.000000
vt 0.833333 0.030000
vt 0.666667 0.030000
vt 0.833333 0.000000
vt 1.000000 0.000000
vt 1.000000 0.030000
vt 0.833333 0.030000
vt 0.000000 0.000000
vt 0.166667 0.000000
vt 0.166667 0.030000
vt 0.000000 0.030000
vt 0.166667 0.000000
vt 0.333333 0.000000
vt 0.333333 0.030000
vt 0.166667 0.030000
vt 0.333333 0.000000
vt 0.500000 0.000000
vt 0.500000 0.030000
vt 0.333333 0.030000
vt 0.500000 0.000000
vt 0.666667 0.000000
vt 0.666667 0.030000
vt 0.500000 0.030000
vt 0.666667 0.000000
vt 0.833333 0.000000
vt 0.833333 0.030000
vt 0.666667 0.030000
vt 0.833333 0.000000
vt 1.000000 0.000000
vt 1.000000 0.030000
vt 0.833333 0.030000
vt 0.000000 0.000000
vt 0.480000 0.000000
vt 0.480000 0.430000
vt 0.000000 0.430000
vt 0.000000 0.000000
vt 0.480000 0.000000
vt 0.480000 0.430000
vt 0.000000 0.430000
vt 0.000000 0.000000
vt 0.480000 0.000000
vt 0.480000 0.300000
vt 0.000000 0.300000
vt 0.000000 0.000000
vt 0.480000 0.000000
vt 0.480000 0.300000
vt 0.000000 0.300000
vt 0.000000 0.000000
vt 0.300000 0.000000
vt 0.300000 0.430000
vt 0.000000 0.430000
vt 0.000000 0.000000
vt 0.300000 0.000000
vt 0.300000 0.430000
vt 0.000000 0.430000
vt 0.000000 0.000000
vt 0.280000 0.000000
vt 0.280000 0.350000
vt 0.000000 0.350000
vt 0.000000 0.000000
vt 0.280000 0.000000
vt 0.280000 0.350000
vt 0.000000 0.350000
vt 0.000000 0.000000
vt 0.280000 0.000000
vt 0.280000 0.470000
vt 0.000000 0.470000
vt 0.000000 0.000000
vt 0.280000 0.000000
vt 0.280000 0.470000
vt 0.000000 0.470000
vt 0.000000 0.000000
vt 0.470000 0.000000
vt 0.470000 0.350000
vt 0.000000 0.350000
vt 0.000000 0.000000
vt 0.470000 0.000000
vt 0.470000 0.350000
vt 0.000000 0.350000
vt 0.000000 0.000000
vt 0.320000 0.000000
vt 0.320000 0.200000
vt 0.000000 0.200000
vt 0.000000 0.000000
vt 0.320000 0.000000
vt 0.320000 0.200000
vt 0.000000 0.200000
vt 0.000000 0.000000
vt 0.320000 0.000000
vt 0.320000 0.550000
vt 0.000000 0.550000
vt 0.000000 0.000000
vt 0.320000 0.000000
vt 0.320000 0.550000
vt 0.000000 0.550000
vt 0.000000 0.000000
vt 0.550000 0.000000
vt 0.550000 0.200000
vt 0.000000 0.200000
vt 0.000000 0.000000
vt 0.550000 0.000000
vt 0.550000 0.200000
vt 0.000000 0.200000
vt 0.000000 0.000000
vt 0.260000 0.000000
vt 0.260000 0.070000
vt 0.000000 0.070000
vt 0.000000 0.000000
vt 0.260000 0.000000
vt 0.260000 0.070000
vt 0.000000 0.070000
vt 0.000000 0.000000
vt 0.260000 0.000000
vt 0.260000 0.850000
vt 0.000000 0.850000
vt 0.000000 0.000000
vt 0.260000 0.000000
vt 0.260000 0.850000
vt 0.000000 0.850000
vt 0.000000 0.000000
vt 0.850000 0.000000
vt 0.850000 0.070000
vt 0.000000 0.070000
vt 0.000000 0.000000
vt 0.850000 0.000000
vt 0.850000 0.070000
vt 0.000000 0.070000
vt 0.000000 0.000000
vt 0.125000 0.000000
vt 0.125000 0.702638
vt 0.000000 0.702638
vt 0.125000 0.000000
vt 0.250000 0.000000
vt 0.250000 0.702638
vt 0.125000 0.702638
vt 0.250000 0.000000
vt 0.375000 0.000000
vt 0.375000 0.702638
vt 0.250000 0.702638
vt 0.375000 0.000000
vt 0.500000 0.000000
vt 0.500000 0.702638
vt 0.375000 0.702638
vt 0.500000 0.000000
vt 0.625000 0.000000
vt 0.625000 0.702638
vt 0.500000 0.702638
vt 0.625000 0.000000
vt 0.750000 0.000000
vt 0.750000 0.702638
vt 0.625000 0.702638
vt 0.750000 0.000000
vt 0.875000 0.000000
vt 0.875000 0.702638
vt 0.750000 0.702638
vt 0.875000 0.000000
vt 1.000000 0.000000
vt 1.000000 0.702638
vt 0.875000 0.702638
vt 0.000000 0.000000
vt 0.166667 0.000000
vt 0.166667 0.281780
vt 0.000000 0.281780
vt 0.166667 0.000000
vt 0.333333 0.000000
vt 0.333333 0.281780
vt 0.166667 0.281780
vt 0.333333 0.000000
vt 0.500000 0.000000
vt 0.500000 0.281780
vt 0.333333 0.281780
vt 0.500000 0.000000
vt 0.666667 0.000000
vt 0.666667 0.281780
vt 0.500000 0.281780
vt 0.666667 0.000000
vt 0.833333 0.000000
vt 0.833333 0.281780
vt 0.666667 0.281780
vt 0.833333 0.000000
vt 1.000000 0.000000
vt 1.000000 0.281780
vt 0.833333 0.281780
vn 0.000000 0.000000 -1.000000
vn 0.000000 0.500000 -0.866025
vn 0.000000 0.500000 -0.866025
vn 0.000000 0.866025 -0.500000
vn 0.000000 0.866025 -0.500000
vn 0.000000 1.000000 -0.000000
vn 0.000000 1.000000 -0.000000
vn -0.000000 0.866025 0.500000
vn -0.000000 0.866025 0.500000
vn -0.000000 0.500000 0.866025
vn -0.000000 0.500000 0.866025
vn -0.000000 0.000000 1.000000
vn -0.000000 0.000000 1.000000
vn 0.000000 -0.500000 0.866025
vn 0.000000 -0.500000 0.866025
vn 0.000000 -0.866025 0.500000
vn 0.000000 -0.866025 0.500000
vn 0.000000 -1.000000 0.000000
vn 0.000000 -1.000000 0.000000
vn 0.000000 -0.866025 -0.500000
vn 0.000000 -0.866025 -0.500000
vn 0.000000 -0.500000 -0.866025
vn 0.000000 -0.500000 -0.866025
vn 0.000000 0.000000 -1.000000
vn 0.000000 0.000000 -1.000000
vn 0.000000 0.500000 -0.866025
vn 0.000000 0.500000 -0.866025
vn 0.000000 0.866025 -0.500000
vn 0.000000 0.866025 -0.500000
vn 0.000000 1.000000 -0.000000
vn 0.000000 1.000000 -0.000000
vn -0.000000 0.866025 0.500000
vn -0.000000 0.866025 0.500000
vn -0.000000 0.500000 0.866025
vn -0.000000 0.500000 0.866025
vn -0.000000 0.000000 1.000000
vn -0.000000 0.000000 1.000000
vn 0.000000 -0.500000 0.866025
vn 0.000000 -0.500000 0.866025
vn 0.000000 -0.866025 0.500000
vn 0.000000 -0.866025 0.500000
vn 0.000000 -1.000000 0.000000
vn 0.000000 -1.000000 0.000000
vn 0.000000 -0.866025 -0.500000
vn 0.000000 -0.866025 -0.500000
vn 0.000000 -0.500000 -0.866025
vn 0.000000 -0.500000 -0.866025
vn 0.000000 0.000000 -1.000000
vn 0.991228 0.000000 -0.132164
vn 0.386064 0.250869 -0.887704
vn 0.386064 0.250869 -0.887704
vn -0.605164 0.250869 -0.755541
vn -0.605164 0.250869 -0.755541
vn -0.991228 0.000000 0.132164
vn -0.991228 0.000000 0.132164
vn -0.386064 -0.250869 0.887704
vn -0.386064 -0.250869 0.887704
vn 0.605164 -0.250869 0.755541
vn 0.605164 -0.250869 0.755541
vn 0.991228 0.000000 -0.132164
vn 0.991228 0.000000 0.132164
vn 0.605164 0.250869 -0.755541
vn 0.605164 0.250869 -0.755541
vn -0.386064 0.250869 -0.887704
vn -0.386064 0.250869 -0.887704
vn -0.991228 0.000000 -0.132164
vn -0.991228 0.000000 -0.132164
vn -0.605164 -0.250869 0.755541
vn -0.605164 -0.250869 0.755541
vn 0.386064 -0.250869 0.887704
vn 0.386064 -0.250869 0.887704
vn 0.991228 0.000000 0.132164
vn 0.000000 0.000000 1.000000
vn 0.000000 0.000000 -1.000000
vn 0.000000 1.000000 0.000000
vn 0.000000 -1.000000 0.000000
vn 1.000000 0.000000 0.000000
vn -1.000000 0.000000 0.000000
vn 0.000000 0.000000 1.000000
vn 0.000000 0.000000 -1.000000
vn 0.000000 1.000000 0.000000
vn 0.000000 -1.000000 0.000000
vn 1.000000 0.000000 0.000000
vn -1.000000 0.000000 0.000000
vn 0.000000 0.000000 1.000000
vn 0.000000 0.866025 0.500000
vn 0.000000 0.866025 0.500000
vn 0.000000 0.866025 -0.500000
vn 0.000000 0.866025 -0.500000
vn 0.000000 0.000000 -1.000000
vn 0.000000 0.000000 -1.000000
vn -0.000000 -0.866025 -0.500000
vn -0.000000 -0.866025 -0.500000
vn 0.000000 -0.866025 0.500000
vn 0.000000 -0.866025 0.500000
vn 0.000000 0.000000 1.000000
vn 0.000000 0.000000 -1.000000
vn 0.000000 0.866025 -0.500000
vn 0.000000 0.866025 -0.500000
vn -0.000000 0.866025 0.500000
vn -0.000000 0.866025 0.500000
vn -0.000000 0.000000 1.000000
vn -0.000000 0.000000 1.000000
vn 0.000000 -0.866025 0.500000
vn 0.000000 -0.866025 0.500000
vn 0.000000 -0.866025 -0.500000
vn 0.000000 -0.866025 -0.500000
vn 0.000000 0.000000 -1.000000
vn 0.000000 0.000000 1.000000
vn 0.000000 0.000000 -1.000000
vn 0.000000 1.000000 0.000000
vn 0.000000 -1.000000 0.000000
vn 1.000000 0.000000 0.000000
vn -1.000000 0.000000 0.000000
vn 0.000000 0.000000 1.000000
vn 0.000000 0.000000 -1.000000
vn 0.000000 1.000000 0.000000
vn 0.000000 -1.000000 0.000000
vn 1.000000 0.000000 0.000000
vn -1.000000 0.000000 0.000000
vn 0.000000 0.000000 1.000000
vn 0.000000 0.000000 -1.000000
vn 0.000000 1.000000 0.000000
vn 0.000000 -1.000000 0.000000
vn 1.000000 0.000000 0.000000
vn -1.000000 0.000000 0.000000
vn 0.000000 0.000000 1.000000
vn 0.000000 0.000000 -1.000000
vn 0.000000 1.000000 0.000000
vn 0.000000 -1.000000 0.000000
vn 1.000000 0.000000 0.000000
vn -1.000000 0.000000 0.000000
vn 0.999898 0.000000 -0.014284
vn 0.706172 0.704524 -0.070476
vn 0.706172 0.704524 -0.070476
vn -0.001220 0.996347 -0.085384
vn -0.001220 0.996347 -0.085384
vn -0.707897 0.704524 -0.050275
vn -0.707897 0.704524 -0.050275
vn -0.999898 0.000000 0.014284
vn -0.999898 0.000000 0.014284
vn -0.706172 -0.704524 0.070476
vn -0.706172 -0.704524 0.070476
vn 0.001220 -0.996347 0.085384
vn 0.001220 -0.996347 0.085384
vn 0.707897 -0.704524 0.050275
vn 0.707897 -0.704524 0.050275
vn 0.999898 0.000000 -0.014284
vn 0.384615 0.000000 0.923077
vn -0.516941 0.399543 0.757059
vn -0.516941 0.399543 0.757059
vn -0.901556 0.399543 -0.166018
vn -0.901556 0.399543 -0.166018
vn -0.384615 0.000000 -0.923077
vn -0.384615 0.000000 -0.923077
vn 0.516941 -0.399543 -0.757059
vn 0.516941 -0.399543 -0.757059
vn 0.901556 -0.399543 0.166018
vn 0.901556 -0.399543 0.166018
vn 0.384615 0.000000 0.923077
s 1
f 1/1/1 3/2/2 4/3/2
f 1/1/1 4/3/2 2/4/1
f 3/5/3 5/6/4 6/7/4
f 3/5/3 6/7/4 4/8/3
f 5/9/5 7/10/6 8/11/6
f 5/9/5 8/11/6 6/12/5
f 7/13/7 9/14/8 10/15/8
f 7/13/7 10/15/8 8/16/7
f 9/17/9 11/18/10 12/19/10
f 9/17/9 12/19/10 10/20/9
f 11/21/11 13/22/12 14/23/12
f 11/21/11 14/23/12 12/24/11
f 13/25/13 15/26/14 16/27/14
f 13/25/13 16/27/14 14/28/13
f 15/29/15 17/30/16 18/31/16
f 15/29/15 18/31/16 16/32/15
f 17/33/17 19/34/18 20/35/18
f 17/33/17 20/35/18 18/36/17
f 19/37/19 21/38/20 22/39/20
f 19/37/19 22/39/20 20/40/19
f 21/41/21 23/42/22 24/43/22
f 21/41/21 24/43/22 22/44/21
f 23/45/23 1/46/24 2/47/24
f 23/45/23 2/47/24 24/48/23
f 25/49/25 27/50/26 28/51/26
f 25/49/25 28/51/26 26/52/25
f 27/53/27 29/54/28 30/55/28
f 27/53/27 30/55/28 28/56/27
f 29/57/29 31/58/30 32/59/30
f 29/57/29 32/59/30 30/60/29
f 31/61/31 33/62/32 34/63/32
f 31/61/31 34/63/32 32/64/31
f 33/65/33 35/66/34 36/67/34
f 33/65/33 36/67/34 34/68/33
f 35/69/35 37/70/36 38/71/36
f 35/69/35 38/71/36 36/72/35
f 37/73/37 39/74/38 40/75/38
f 37/73/37 40/75/38 38/76/37
f 39/77/39 41/78/40 42/79/40
f 39/77/39 42/79/40 40/80/39
f 41/81/41 43/82/42 44/83/42
f 41/81/41 44/83/42 42/84/41
f 43/85/43 45/86/44 46/87/44
f 43/85/43 46/87/44 44/88/43
f 45/89/45 47/90/46 48/91/46
f 45/89/45 48/91/46 46/92/45
f 47/93/47 25/94/48 26/95/48
f 47/93/47 26/95/48 48/96/47
f 49/97/49 51/98/50 52/99/50
f 49/97/49 52/99/50 50/100/49
f 51/101/51 53/102/52 54/103/52
f 51/101/51 54/103/52 52/104/51
f 53/105/53 55/106/54 56/107/54
f 53/105/53 56/107/54 54/108/53
f 55/109/55 57/110/56 58/111/56
f 55/109/55 58/111/56 56/112/55
f 57/113/57 59/114/58 60/115/58
f 57/113/57 60/115/58 58/116/57
f 59/117/59 49/118/60 50/119/60
f 59/117/59 50/119/60 60/120/59
f 61/121/61 63/122/62 64/123/62
f 61/121/61 64/123/62 62/124/61
f 63/125/63 65/126/64 66/127/64
f 63/125/63 66/127/64 64/128/63
f 65/129/65 67/130/66 68/131/66
f 65/129/65 68/131/66 66/132/65
f 67/133/67 69/134/68 70/135/68
f 67/133/67 70/135/68 68/136/67
f 69/137/69 71/138/70 72/139/70
f 69/137/69 72/139/70 70/140/69
f 71/141/71 61/142/72 62/143/72
f 71/141/71 62/143/72 72/144/71
f 74/145/73 78/146/73 80/147/73
f 74/145/73 80/147/73 76/148/73
f 77/149/74 73/150/74 75/151/74
f 77/149/74 75/151/74 79/152/74
f 76/153/75 80/154/75 79/155/75
f 76/153/75 79/155/75 75/156/75
f 73/157/76 77/158/76 78/159/76
f 73/157/76 78/159/76 74/160/76
f 78/161/77 77/162/77 79/163/77
f 78/161/77 79/163/77 80/164/77
f 73/165/78 74/166/78 76/167/78
f 73/165/78 76/167/78 75/168/78
f 82/169/79 86/170/79 88/171/79
f 82/169/79 88/171/79 84/172/79
f 85/173/80 81/174/80 83/175/80
f 85/173/80 83/175/80 87/176/80
f 84/177/81 88/178/81 87/179/81
f 84/177/81 87/179/81 83/180/81
f 81/181/82 85/182/82 86/183/82
f 81/181/82 86/183/82 82/184/82
f 86/185/83 85/186/83 87/187/83
f 86/185/83 87/187/83 88/188/83
f 81/189/84 82/190/84 84/191/84
f 81/189/84 84/191/84 83/192/84
f 89/193/85 91/194/86 92/195/86
f 89/193/85 92/195/86 90/196/85
f 91/197/87 93/198/88 94/199/88
f 91/197/87 94/199/88 92/200/87
f 93/201/89 95/202/90 96/203/90
f 93/201/89 96/203/90 94/204/89
f 95/205/91 97/206/92 98/207/92
f 95/205/91 98/207/92 96/208/91
f 97/209/93 99/210/94 100/211/94
f 97/209/93 100/211/94 98/212/93
f 99/213/95 89/214/96 90/215/96
f 99/213/95 90/215/96 100/216/95
f 101/217/97 103/218/98 104/219/98
f 101/217/97 104/219/98 102/220/97
f 103/221/99 105/222/100 106/223/100
f 103/221/99 106/223/100 104/224/99
f 105/225/101 107/226/102 108/227/102
f 105/225/101 108/227/102 106/228/101
f 107/229/103 109/230/104 110/231/104
f 107/229/103 110/231/104 108/232/103
f 109/233/105 111/234/106 112/235/106
f 109/233/105 112/235/106 110/236/105
f 111/237/107 101/238/108 102/239/108
f 111/237/107 102/239/108 112/240/107
f 114/241/109 118/242/109 120/243/109
f 114/241/109 120/243/109 116/244/109
f 117/245/110 113/246/110 115/247/110
f 117/245/110 115/247/110 119/248/110
f 116/249/111 120/250/111 119/251/111
f 116/249/111 119/251/111 115/252/111
f 113/253/112 117/254/112 118/255/112
f 113/253/112 118/255/112 114/256/112
f 118/257/113 117/258/113 119/259/113
f 118/257/113 119/259/113 120/260/113
f 113/261/114 114/262/114 116/263/114
f 113/261/114 116/263/114 115/264/114
f 122/265/115 126/266/115 128/267/115
f 122/265/115 128/267/115 124/268/115
f 125/269/116 121/270/116 123/271/116
f 125/269/116 123/271/116 127/272/116
f 124/273/117 128/274/117 127/275/117
f 124/273/117 127/275/117 123/276/117
f 121/277/118 125/278/118 126/279/118
f 121/277/118 126/279/118 122/280/118
f 126/281/119 125/282/119 127/283/119
f 126/281/119 127/283/119 128/284/119
f 121/285/120 122/286/120 124/287/120
f 121/285/120 124/287/120 123/288/120
f 130/289/121 134/290/121 136/291/121
f 130/289/121 136/291/121 132/292/121
f 133/293/122 129/294/122 131/295/122
f 133/293/122 131/295/122 135/296/122
f 132/297/123 136/298/123 135/299/123
f 132/297/123 135/299/123 131/300/123
f 129/301/124 133/302/124 134/303/124
f 129/301/124 134/303/124 130/304/124
f 134/305/125 133/306/125 135/307/125
f 134/305/125 135/307/125 136/308/125
f 129/309/126 130/310/126 132/311/126
f 129/309/126 132/311/126 131/312/126
f 138/313/127 142/314/127 144/315/127
f 138/313/127 144/315/127 140/316/127
f 141/317/128 137/318/128 139/319/128
f 141/317/128 139/319/128 143/320/128
f 140/321/129 144/322/129 143/323/129
f 140/321/129 143/323/129 139/324/129
f 137/325/130 141/326/130 142/327/130
f 137/325/130 142/327/130 138/328/130
f 142/329/131 141/330/131 143/331/131
f 142/329/131 143/331/131 144/332/131
f 137/333/132 138/334/132 140/335/132
f 137/333/132 140/335/132 139/336/132
f 145/337/133 147/338/134 148/339/134
f 145/337/133 148/339/134 146/340/133
f 147/341/135 149/342/136 150/343/136
f 147/341/135 150/343/136 148/344/135
f 149/345/137 151/346/138 152/347/138
f 149/345/137 152/347/138 150/348/137
f 151/349/139 153/350/140 154/351/140
f 151/349/139 154/351/140 152/352/139
f 153/353/141 155/354/142 156/355/142
f 153/353/141 156/355/142 154/356/141
f 155/357/143 157/358/144 158/359/144
f 155/357/143 158/359/144 156/360/143
f 157/361/145 159/362/146 160/363/146
f 157/361/145 160/363/146 158/364/145
f 159/365/147 145/366/148 146/367/148
f 159/365/147 146/367/148 160/368/147
f 161/369/149 163/370/150 164/371/150
f 161/369/149 164/371/150 162/372/149
f 163/373/151 165/374/152 166/375/152
f 163/373/151 166/375/152 164/376/151
f 165/377/153 167/378/154 168/379/154
f 165/377/153 168/379/154 166/380/153
f 167/381/155 169/382/156 170/383/156
f 167/381/155 170/383/156 168/384/155
f 169/385/157 171/386/158 172/387/158
f 169/385/157 172/387/158 170/388/157
f 171/389/159 161/390/160 162/391/160
f 171/389/159 162/391/160 172/392/159
