# Wavefront OBJ: SM_PottedPlant
o SM_PottedPlant
v 0.000000 0.000000 0.250000
v 0.000000 0.450000 0.250000
v 0.146946 0.000000 0.202254
v 0.146946 0.450000 0.202254
v 0.237764 0.000000 0.077254
v 0.237764 0.450000 0.077254
v 0.237764 0.000000 -0.077254
v 0.237764 0.450000 -0.077254
v 0.146946 0.000000 -0.202254
v 0.146946 0.450000 -0.202254
v 0.000000 0.000000 -0.250000
v 0.000000 0.450000 -0.250000
v -0.146946 0.000000 -0.202254
v -0.146946 0.450000 -0.202254
v -0.237764 0.000000 -0.077254
v -0.237764 0.450000 -0.077254
v -0.237764 0.000000 0.077254
v -0.237764 0.450000 0.077254
v -0.146946 0.000000 0.202254
v -0.146946 0.450000 0.202254
v 0.000000 0.450000 0.350000
v 0.000000 0.630000 0.350000
v 0.205725 0.450000 0.283156
v 0.205725 0.630000 0.283156
v 0.332870 0.450000 0.108156
v 0.332870 0.630000 0.108156
v 0.332870 0.450000 -0.108156
v 0.332870 0.630000 -0.108156
v 0.205725 0.450000 -0.283156
v 0.205725 0.630000 -0.283156
v 0.000000 0.450000 -0.350000
v 0.000000 0.630000 -0.350000
v -0.205725 0.450000 -0.283156
v -0.205725 0.630000 -0.283156
v -0.332870 0.450000 -0.108156
v -0.332870 0.630000 -0.108156
v -0.332870 0.450000 0.108156
v -0.332870 0.630000 0.108156
v -0.205725 0.450000 0.283156
v -0.205725 0.630000 0.283156
v 0.000000 0.650000 0.294000
v 0.000000 0.830000 0.294000
v 0.172809 0.650000 0.237851
v 0.172809 0.830000 0.237851
v 0.279611 0.650000 0.090851
v 0.279611 0.830000 0.090851
v 0.279611 0.650000 -0.090851
v 0.279611 0.830000 -0.090851
v 0.172809 0.650000 -0.237851
v 0.172809 0.830000 -0.237851
v 0.000000 0.650000 -0.294000
v 0.000000 0.830000 -0.294000
v -0.172809 0.650000 -0.237851
v -0.172809 0.830000 -0.237851
v -0.279611 0.650000 -0.090851
v -0.279611 0.830000 -0.090851
v -0.279611 0.650000 0.090851
v -0.279611 0.830000 0.090851
v -0.172809 0.650000 0.237851
v -0.172809 0.830000 0.237851
v 0.000000 0.800000 0.252000
v 0.000000 0.980000 0.252000
v 0.148122 0.800000 0.203872
v 0.148122 0.980000 0.203872
v 0.239666 0.800000 0.077872
v 0.239666 0.980000 0.077872
v 0.239666 0.800000 -0.077872
v 0.239666 0.980000 -0.077872
v 0.148122 0.800000 -0.203872
v 0.148122 0.980000 -0.203872
v 0.000000 0.800000 -0.252000
v 0.000000 0.980000 -0.252000
v -0.148122 0.800000 -0.203872
v -0.148122 0.980000 -0.203872
v -0.239666 0.800000 -0.077872
v -0.239666 0.980000 -0.077872
v -0.239666 0.800000 0.077872
v -0.239666 0.980000 0.077872
v -0.148122 0.800000 0.203872
v -0.148122 0.980000 0.203872
vt 0.000000 0.000000
vt 0.100000 0.000000
vt 0.100000 0.450000
vt 0.000000 0.450000
vt 0.100000 0.000000
vt 0.200000 0.000000
vt 0.200000 0.450000
vt 0.100000 0.450000
vt 0.200000 0.000000
vt 0.300000 0.000000
vt 0.300000 0.450000
vt 0.200000 0.450000
vt 0.300000 0.000000
vt 0.400000 0.000000
vt 0.400000 0.450000
vt 0.300000 0.450000
vt 0.400000 0.000000
vt 0.500000 0.000000
vt 0.500000 0.450000
vt 0.400000 0.450000
vt 0.500000 0.000000
vt 0.600000 0.000000
vt 0.600000 0.450000
vt 0.500000 0.450000
vt 0.600000 0.000000
vt 0.700000 0.000000
vt 0.700000 0.450000
vt 0.600000 0.450000
vt 0.700000 0.000000
vt 0.800000 0.000000
vt 0.800000 0.450000
vt 0.700000 0.450000
vt 0.800000 0.000000
vt 0.900000 0.000000
vt 0.900000 0.450000
vt 0.800000 0.450000
vt 0.900000 0.000000
vt 1.000000 0.000000
vt 1.000000 0.450000
vt 0.900000 0.450000
vt 0.000000 0.000000
vt 0.100000 0.000000
vt 0.100000 0.180000
vt 0.000000 0.180000
vt 0.100000 0.000000
vt 0.200000 0.000000
vt 0.200000 0.180000
vt 0.100000 0.180000
vt 0.200000 0.000000
vt 0.300000 0.000000
vt 0.300000 0.180000
vt 0.200000 0.180000
vt 0.300000 0.000000
vt 0.400000 0.000000
vt 0.400000 0.180000
vt 0.300000 0.180000
vt 0.400000 0.000000
vt 0.500000 0.000000
vt 0.500000 0.180000
vt 0.400000 0.180000
vt 0.500000 0.000000
vt 0.600000 0.000000
vt 0.600000 0.180000
vt 0.500000 0.180000
vt 0.600000 0.000000
vt 0.700000 0.000000
vt 0.700000 0.180000
vt 0.600000 0.180000
vt 0.700000 0.000000
vt 0.800000 0.000000
vt 0.800000 0.180000
vt 0.700000 0.180000
vt 0.800000 0.000000
vt 0.900000 0.000000
vt 0.900000 0.180000
vt 0.800000 0.180000
vt 0.900000 0.000000
vt 1.000000 0.000000
vt 1.000000 0.180000
vt 0.900000 0.180000
vt 0.000000 0.000000
vt 0.100000 0.000000
vt 0.100000 0.180000
vt 0.000000 0.180000
vt 0.100000 0.000000
vt 0.200000 0.000000
vt 0.200000 0.180000
vt 0.100000 0.180000
vt 0.200000 0.000000
vt 0.300000 0.000000
vt 0.300000 0.180000
vt 0.200000 0.180000
vt 0.300000 0.000000
vt 0.400000 0.000000
vt 0.400000 0.180000
vt 0.300000 0.180000
vt 0.400000 0.000000
vt 0.500000 0.000000
vt 0.500000 0.180000
vt 0.400000 0.180000
vt 0.500000 0.000000
vt 0.600000 0.000000
vt 0.600000 0.180000
vt 0.500000 0.180000
vt 0.600000 0.000000
vt 0.700000 0.000000
vt 0.700000 0.180000
vt 0.600000 0.180000
vt 0.700000 0.000000
vt 0.800000 0.000000
vt 0.800000 0.180000
vt 0.700000 0.180000
vt 0.800000 0.000000
vt 0.900000 0.000000
vt 0.900000 0.180000
vt 0.800000 0.180000
vt 0.900000 0.000000
vt 1.000000 0.000000
vt 1.000000 0.180000
vt 0.900000 0.180000
vt 0.000000 0.000000
vt 0.100000 0.000000
vt 0.100000 0.180000
vt 0.000000 0.180000
vt 0.100000 0.000000
vt 0.200000 0.000000
vt 0.200000 0.180000
vt 0.100000 0.180000
vt 0.200000 0.000000
vt 0.300000 0.000000
vt 0.300000 0.180000
vt 0.200000 0.180000
vt 0.300000 0.000000
vt 0.400000 0.000000
vt 0.400000 0.180000
vt 0.300000 0.180000
vt 0.400000 0.000000
vt 0.500000 0.000000
vt 0.500000 0.180000
vt 0.400000 0.180000
vt 0.500000 0.000000
vt 0.600000 0.000000
vt 0.600000 0.180000
vt 0.500000 0.180000
vt 0.600000 0.000000
vt 0.700000 0.000000
vt 0.700000 0.180000
vt 0.600000 0.180000
vt 0.700000 0.000000
vt 0.800000 0.000000
vt 0.800000 0.180000
vt 0.700000 0.180000
vt 0.800000 0.000000
vt 0.900000 0.000000
vt 0.900000 0.180000
vt 0.800000 0.180000
vt 0.900000 0.000000
vt 1.000000 0.000000
vt 1.000000 0.180000
vt 0.900000 0.180000
vn 0.000000 0.000000 1.000000
vn 0.587785 0.000000 0.809017
vn 0.587785 0.000000 0.809017
vn 0.951057 0.000000 0.309017
vn 0.951057 0.000000 0.309017
vn 0.951057 0.000000 -0.309017
vn 0.951057 0.000000 -0.309017
vn 0.587785 0.000000 -0.809017
vn 0.587785 0.000000 -0.809017
vn 0.000000 0.000000 -1.000000
vn 0.000000 0.000000 -1.000000
vn -0.587785 -0.000000 -0.809017
vn -0.587785 -0.000000 -0.809017
vn -0.951057 -0.000000 -0.309017
vn -0.951057 -0.000000 -0.309017
vn -0.951057 0.000000 0.309017
vn -0.951057 0.000000 0.309017
vn -0.587785 0.000000 0.809017
vn -0.587785 0.000000 0.809017
vn 0.000000 0.000000 1.000000
vn 0.000000 0.000000 1.000000
vn 0.587785 0.000000 0.809017
vn 0.587785 0.000000 0.809017
vn 0.951057 0.000000 0.309017
vn 0.951057 0.000000 0.309017
vn 0.951057 0.000000 -0.309017
vn 0.951057 0.000000 -0.309017
vn 0.587785 0.000000 -0.809017
vn 0.587785 0.000000 -0.809017
vn 0.000000 0.000000 -1.000000
vn 0.000000 0.000000 -1.000000
vn -0.587785 -0.000000 -0.809017
vn -0.587785 -0.000000 -0.809017
vn -0.951057 -0.000000 -0.309017
vn -0.951057 -0.000000 -0.309017
vn -0.951057 0.000000 0.309017
vn -0.951057 0.000000 0.309017
vn -0.587785 0.000000 0.809017
vn -0.587785 0.000000 0.809017
vn 0.000000 0.000000 1.000000
vn 0.000000 0.000000 1.000000
vn 0.587785 0.000000 0.809017
vn 0.587785 0.000000 0.809017
vn 0.951057 0.000000 0.309017
vn 0.951057 0.000000 0.309017
vn 0.951057 0.000000 -0.309017
vn 0.951057 0.000000 -0.309017
vn 0.587785 0.000000 -0.809017
vn 0.587785 0.000000 -0.809017
vn 0.000000 0.000000 -1.000000
vn 0.000000 0.000000 -1.000000
vn -0.587785 -0.000000 -0.809017
vn -0.587785 -0.000000 -0.809017
vn -0.951057 -0.000000 -0.309017
vn -0.951057 -0.000000 -0.309017
vn -0.951057 0.000000 0.309017
vn -0.951057 0.000000 0.309017
vn -0.587785 0.000000 0.809017
vn -0.587785 0.000000 0.809017
vn 0.000000 0.000000 1.000000
vn 0.000000 0.000000 1.000000
vn 0.587785 0.000000 0.809017
vn 0.587785 0.000000 0.809017
vn 0.951057 0.000000 0.309017
vn 0.951057 0.000000 0.309017
vn 0.951057 0.000000 -0.309017
vn 0.951057 0.000000 -0.309017
vn 0.587785 0.000000 -0.809017
vn 0.587785 0.000000 -0.809017
vn 0.000000 0.000000 -1.000000
vn 0.000000 0.000000 -1.000000
vn -0.587785 -0.000000 -0.809017
vn -0.587785 -0.000000 -0.809017
vn -0.951057 -0.000000 -0.309017
vn -0.951057 -0.000000 -0.309017
vn -0.951057 0.000000 0.309017
vn -0.951057 0.000000 0.309017
vn -0.587785 0.000000 0.809017
vn -0.587785 0.000000 0.809017
vn 0.000000 0.000000 1.000000
s 1
f 1/1/1 3/2/2 4/3/2
f 1/1/1 4/3/2 2/4/1
f 3/5/3 5/6/4 6/7/4
f 3/5/3 6/7/4 4/8/3
f 5/9/5 7/10/6 8/11/6
f 5/9/5 8/11/6 6/12/5
f 7/13/7 9/14/8 10/15/8
f 7/13/7 10/15/8 8/16/7
f 9/17/9 11/18/10 12/19/10
f 9/17/9 12/19/10 10/20/9
f 11/21/11 13/22/12 14/23/12
f 11/21/11 14/23/12 12/24/11
f 13/25/13 15/26/14 16/27/14
f 13/25/13 16/27/14 14/28/13
f 15/29/15 17/30/16 18/31/16
f 15/29/15 18/31/16 16/32/15
f 17/33/17 19/34/18 20/35/18
f 17/33/17 20/35/18 18/36/17
f 19/37/19 1/38/20 2/39/20
f 19/37/19 2/39/20 20/40/19
f 21/41/21 23/42/22 24/43/22
f 21/41/21 24/43/22 22/44/21
f 23/45/23 25/46/24 26/47/24
f 23/45/23 26/47/24 24/48/23
f 25/49/25 27/50/26 28/51/26
f 25/49/25 28/51/26 26/52/25
f 27/53/27 29/54/28 30/55/28
f 27/53/27 30/55/28 28/56/27
f 29/57/29 31/58/30 32/59/30
f 29/57/29 32/59/30 30/60/29
f 31/61/31 33/62/32 34/63/32
f 31/61/31 34/63/32 32/64/31
f 33/65/33 35/66/34 36/67/34
f 33/65/33 36/67/34 34/68/33
f 35/69/35 37/70/36 38/71/36
f 35/69/35 38/71/36 36/72/35
f 37/73/37 39/74/38 40/75/38
f 37/73/37 40/75/38 38/76/37
f 39/77/39 21/78/40 22/79/40
f 39/77/39 22/79/40 40/80/39
f 41/81/41 43/82/42 44/83/42
f 41/81/41 44/83/42 42/84/41
f 43/85/43 45/86/44 46/87/44
f 43/85/43 46/87/44 44/88/43
f 45/89/45 47/90/46 48/91/46
f 45/89/45 48/91/46 46/92/45
f 47/93/47 49/94/48 50/95/48
f 47/93/47 50/95/48 48/96/47
f 49/97/49 51/98/50 52/99/50
f 49/97/49 52/99/50 50/100/49
f 51/101/51 53/102/52 54/103/52
f 51/101/51 54/103/52 52/104/51
f 53/105/53 55/106/54 56/107/54
f 53/105/53 56/107/54 54/108/53
f 55/109/55 57/110/56 58/111/56
f 55/109/55 58/111/56 56/112/55
f 57/113/57 59/114/58 60/115/58
f 57/113/57 60/115/58 58/116/57
f 59/117/59 41/118/60 42/119/60
f 59/117/59 42/119/60 60/120/59
f 61/121/61 63/122/62 64/123/62
f 61/121/61 64/123/62 62/124/61
f 63/125/63 65/126/64 66/127/64
f 63/125/63 66/127/64 64/128/63
f 65/129/65 67/130/66 68/131/66
f 65/129/65 68/131/66 66/132/65
f 67/133/67 69/134/68 70/135/68
f 67/133/67 70/135/68 68/136/67
f 69/137/69 71/138/70 72/139/70
f 69/137/69 72/139/70 70/140/69
f 71/141/71 73/142/72 74/143/72
f 71/141/71 74/143/72 72/144/71
f 73/145/73 75/146/74 76/147/74
f 73/145/73 76/147/74 74/148/73
f 75/149/75 77/150/76 78/151/76
f 75/149/75 78/151/76 76/152/75
f 77/153/77 79/154/78 80/155/78
f 77/153/77 80/155/78 78/156/77
f 79/157/79 61/158/80 62/159/80
f 79/157/79 62/159/80 80/160/79
