# Wavefront OBJ: SM_Sidewalk_Extended
o SM_Sidewalk_Extended
v -18.000000 -0.150000 -5.200000
v -18.000000 -0.150000 3.450000
v -18.000000 0.000000 -5.200000
v -18.000000 0.000000 3.450000
v 18.000000 -0.150000 -5.200000
v 18.000000 -0.150000 3.450000
v 18.000000 0.000000 -5.200000
v 18.000000 0.000000 3.450000
v -18.000000 -0.150000 3.450000
v -18.000000 -0.150000 3.600000
v -18.000000 0.000000 3.450000
v -18.000000 0.000000 3.600000
v 18.000000 -0.150000 3.450000
v 18.000000 -0.150000 3.600000
v 18.000000 0.000000 3.450000
v 18.000000 0.000000 3.600000
vt 0.000000 0.000000
vt 54.000000 0.000000
vt 54.000000 0.225000
vt 0.000000 0.225000
vt 0.000000 0.000000
vt 54.000000 0.000000
vt 54.000000 0.225000
vt 0.000000 0.225000
vt 0.000000 0.000000
vt 54.000000 0.000000
vt 54.000000 12.975000
vt 0.000000 12.975000
vt 0.000000 0.000000
vt 54.000000 0.000000
vt 54.000000 12.975000
vt 0.000000 12.975000
vt 0.000000 0.000000
vt 12.975000 0.000000
vt 12.975000 0.225000
vt 0.000000 0.225000
vt 0.000000 0.000000
vt 12.975000 0.000000
vt 12.975000 0.225000
vt 0.000000 0.225000
vt 0.000000 0.000000
vt 36.000000 0.000000
vt 36.000000 0.150000
vt 0.000000 0.150000
vt 0.000000 0.000000
vt 36.000000 0.000000
vt 36.000000 0.150000
vt 0.000000 0.150000
vt 0.000000 0.000000
vt 36.000000 0.000000
vt 36.000000 0.150000
vt 0.000000 0.150000
vt 0.000000 0.000000
vt 36.000000 0.000000
vt 36.000000 0.150000
vt 0.000000 0.150000
vt 0.000000 0.000000
vt 0.150000 0.000000
vt 0.150000 0.150000
vt 0.000000 0.150000
vt 0.000000 0.000000
vt 0.150000 0.000000
vt 0.150000 0.150000
vt 0.000000 0.150000
vn 0.000000 0.000000 1.000000
vn 0.000000 0.000000 -1.000000
vn 0.000000 1.000000 0.000000
vn 0.000000 -1.000000 0.000000
vn 1.000000 0.000000 0.000000
vn -1.000000 0.000000 0.000000
vn 0.000000 0.000000 1.000000
vn 0.000000 0.000000 -1.000000
vn 0.000000 1.000000 0.000000
vn 0.000000 -1.000000 0.000000
vn 1.000000 0.000000 0.000000
vn -1.000000 0.000000 0.000000
s 1
f 2/1/1 6/2/1 8/3/1
f 2/1/1 8/3/1 4/4/1
f 5/5/2 1/6/2 3/7/2
f 5/5/2 3/7/2 7/8/2
f 4/9/3 8/10/3 7/11/3
f 4/9/3 7/11/3 3/12/3
f 1/13/4 5/14/4 6/15/4
f 1/13/4 6/15/4 2/16/4
f 6/17/5 5/18/5 7/19/5
f 6/17/5 7/19/5 8/20/5
f 1/21/6 2/22/6 4/23/6
f 1/21/6 4/23/6 3/24/6
f 10/25/7 14/26/7 16/27/7
f 10/25/7 16/27/7 12/28/7
f 13/29/8 9/30/8 11/31/8
f 13/29/8 11/31/8 15/32/8
f 12/33/9 16/34/9 15/35/9
f 12/33/9 15/35/9 11/36/9
f 9/37/10 13/38/10 14/39/10
f 9/37/10 14/39/10 10/40/10
f 14/41/11 13/42/11 15/43/11
f 14/41/11 15/43/11 16/44/11
f 9/45/12 10/46/12 12/47/12
f 9/45/12 12/47/12 11/48/12
