# Wavefront OBJ: SM_Shopfront_A
o SM_Shopfront_A
v -2.250000 0.000000 0.000000
v -2.250000 0.000000 4.500000
v -2.250000 11.500000 0.000000
v -2.250000 11.500000 4.500000
v -2.000000 0.000000 0.000000
v -2.000000 0.000000 4.500000
v -2.000000 11.500000 0.000000
v -2.000000 11.500000 4.500000
v 2.000000 0.000000 0.000000
v 2.000000 0.000000 4.500000
v 2.000000 11.500000 0.000000
v 2.000000 11.500000 4.500000
v 2.250000 0.000000 0.000000
v 2.250000 0.000000 4.500000
v 2.250000 11.500000 0.000000
v 2.250000 11.500000 4.500000
v -2.250000 0.000000 4.250000
v -2.250000 0.000000 4.500000
v -2.250000 11.500000 4.250000
v -2.250000 11.500000 4.500000
v 2.250000 0.000000 4.250000
v 2.250000 0.000000 4.500000
v 2.250000 11.500000 4.250000
v 2.250000 11.500000 4.500000
v -2.250000 11.200000 0.000000
v -2.250000 11.200000 4.500000
v -2.250000 11.500000 0.000000
v -2.250000 11.500000 4.500000
v 2.250000 11.200000 0.000000
v 2.250000 11.200000 4.500000
v 2.250000 11.500000 0.000000
v 2.250000 11.500000 4.500000
v -2.250000 3.500000 0.000000
v 2.250000 3.500000 0.000000
v 2.250000 11.500000 0.000000
v -2.250000 11.500000 0.000000
v -1.950000 0.000000 0.600000
v 1.950000 0.000000 0.600000
v 1.950000 3.500000 0.600000
v -1.950000 3.500000 0.600000
v -2.250000 0.000000 0.000000
v -2.250000 0.000000 0.600000
v -2.250000 3.500000 0.000000
v -2.250000 3.500000 0.600000
v -1.950000 0.000000 0.000000
v -1.950000 0.000000 0.600000
v -1.950000 3.500000 0.000000
v -1.950000 3.500000 0.600000
v 1.950000 0.000000 0.000000
v 1.950000 0.000000 0.600000
v 1.950000 3.500000 0.000000
v 1.950000 3.500000 0.600000
v 2.250000 0.000000 0.000000
v 2.250000 0.000000 0.600000
v 2.250000 3.500000 0.000000
v 2.250000 3.500000 0.600000
v -2.150000 3.400000 -0.150000
v -2.150000 3.400000 0.000000
v -2.150000 4.300000 -0.150000
v -2.150000 4.300000 0.000000
v 2.150000 3.400000 -0.150000
v 2.150000 3.400000 0.000000
v 2.150000 4.300000 -0.150000
v 2.150000 4.300000 0.000000
v -2.137500 3.300000 0.000000
v 2.137500 3.300000 0.000000
v 2.137500 2.500000 -1.100000
v -2.137500 2.500000 -1.100000
v -1.957500 2.000000 0.000000
v -1.957500 2.500000 -1.100000
v -1.947500 2.015768 0.007167
v -1.947500 2.515768 -1.092833
v -1.927500 2.015768 0.007167
v -1.927500 2.515768 -1.092833
v -1.917500 2.000000 0.000000
v -1.917500 2.500000 -1.100000
v -1.927500 1.984232 -0.007167
v -1.927500 2.484232 -1.107167
v -1.947500 1.984232 -0.007167
v -1.947500 2.484232 -1.107167
v 1.917500 2.000000 0.000000
v 1.917500 2.500000 -1.100000
v 1.927500 2.015768 0.007167
v 1.927500 2.515768 -1.092833
v 1.947500 2.015768 0.007167
v 1.947500 2.515768 -1.092833
v 1.957500 2.000000 0.000000
v 1.957500 2.500000 -1.100000
v 1.947500 1.984232 -0.007167
v 1.947500 2.484232 -1.107167
v 1.927500 1.984232 -0.007167
v 1.927500 2.484232 -1.107167
v -2.050000 4.350000 -0.900000
v -2.050000 4.350000 0.000000
v -2.050000 4.550000 -0.900000
v -2.050000 4.550000 0.000000
v 2.050000 4.350000 -0.900000
v 2.050000 4.350000 0.000000
v 2.050000 4.550000 -0.900000
v 2.050000 4.550000 0.000000
v -2.050000 5.350000 -0.920000
v -2.050000 5.350000 -0.880000
v -2.050000 5.400000 -0.920000
v -2.050000 5.400000 -0.880000
v 2.050000 5.350000 -0.920000
v 2.050000 5.350000 -0.880000
v 2.050000 5.400000 -0.920000
v 2.050000 5.400000 -0.880000
v -2.050000 4.550000 -0.900000
v -2.050000 4.550000 0.000000
v -2.050000 5.350000 -0.900000
v -2.050000 5.350000 0.000000
v -2.010000 4.550000 -0.900000
v -2.010000 4.550000 0.000000
v -2.010000 5.350000 -0.900000
v -2.010000 5.350000 0.000000
v 2.010000 4.550000 -0.900000
v 2.010000 4.550000 0.000000
v 2.010000 5.350000 -0.900000
v 2.010000 5.350000 0.000000
v 2.050000 4.550000 -0.900000
v 2.050000 4.550000 0.000000
v 2.050000 5.350000 -0.900000
v 2.050000 5.350000 0.000000
v -1.950000 4.550000 -0.888000
v -1.950000 5.350000 -0.888000
v -1.939608 4.550000 -0.894000
v -1.939608 5.350000 -0.894000
v -1.939608 4.550000 -0.906000
v -1.939608 5.350000 -0.906000
v -1.950000 4.550000 -0.912000
v -1.950000 5.350000 -0.912000
v -1.960392 4.550000 -0.906000
v -1.960392 5.350000 -0.906000
v -1.960392 4.550000 -0.894000
v -1.960392 5.350000 -0.894000
v -1.462500 4.550000 -0.888000
v -1.462500 5.350000 -0.888000
v -1.452108 4.550000 -0.894000
v -1.452108 5.350000 -0.894000
v -1.452108 4.550000 -0.906000
v -1.452108 5.350000 -0.906000
v -1.462500 4.550000 -0.912000
v -1.462500 5.350000 -0.912000
v -1.472892 4.550000 -0.906000
v -1.472892 5.350000 -0.906000
v -1.472892 4.550000 -0.894000
v -1.472892 5.350000 -0.894000
v -0.975000 4.550000 -0.888000
v -0.975000 5.350000 -0.888000
v -0.964608 4.550000 -0.894000
v -0.964608 5.350000 -0.894000
v -0.964608 4.550000 -0.906000
v -0.964608 5.350000 -0.906000
v -0.975000 4.550000 -0.912000
v -0.975000 5.350000 -0.912000
v -0.985392 4.550000 -0.906000
v -0.985392 5.350000 -0.906000
v -0.985392 4.550000 -0.894000
v -0.985392 5.350000 -0.894000
v -0.487500 4.550000 -0.888000
v -0.487500 5.350000 -0.888000
v -0.477108 4.550000 -0.894000
v -0.477108 5.350000 -0.894000
v -0.477108 4.550000 -0.906000
v -0.477108 5.350000 -0.906000
v -0.487500 4.550000 -0.912000
v -0.487500 5.350000 -0.912000
v -0.497892 4.550000 -0.906000
v -0.497892 5.350000 -0.906000
v -0.497892 4.550000 -0.894000
v -0.497892 5.350000 -0.894000
v 0.000000 4.550000 -0.888000
v 0.000000 5.350000 -0.888000
v 0.010392 4.550000 -0.894000
v 0.010392 5.350000 -0.894000
v 0.010392 4.550000 -0.906000
v 0.010392 5.350000 -0.906000
v 0.000000 4.550000 -0.912000
v 0.000000 5.350000 -0.912000
v -0.010392 4.550000 -0.906000
v -0.010392 5.350000 -0.906000
v -0.010392 4.550000 -0.894000
v -0.010392 5.350000 -0.894000
v 0.487500 4.550000 -0.888000
v 0.487500 5.350000 -0.888000
v 0.497892 4.550000 -0.894000
v 0.497892 5.350000 -0.894000
v 0.497892 4.550000 -0.906000
v 0.497892 5.350000 -0.906000
v 0.487500 4.550000 -0.912000
v 0.487500 5.350000 -0.912000
v 0.477108 4.550000 -0.906000
v 0.477108 5.350000 -0.906000
v 0.477108 4.550000 -0.894000
v 0.477108 5.350000 -0.894000
v 0.975000 4.550000 -0.888000
v 0.975000 5.350000 -0.888000
v 0.985392 4.550000 -0.894000
v 0.985392 5.350000 -0.894000
v 0.985392 4.550000 -0.906000
v 0.985392 5.350000 -0.906000
v 0.975000 4.550000 -0.912000
v 0.975000 5.350000 -0.912000
v 0.964608 4.550000 -0.906000
v 0.964608 5.350000 -0.906000
v 0.964608 4.550000 -0.894000
v 0.964608 5.350000 -0.894000
v 1.462500 4.550000 -0.888000
v 1.462500 5.350000 -0.888000
v 1.472892 4.550000 -0.894000
v 1.472892 5.350000 -0.894000
v 1.472892 4.550000 -0.906000
v 1.472892 5.350000 -0.906000
v 1.462500 4.550000 -0.912000
v 1.462500 5.350000 -0.912000
v 1.452108 4.550000 -0.906000
v 1.452108 5.350000 -0.906000
v 1.452108 4.550000 -0.894000
v 1.452108 5.350000 -0.894000
v 1.950000 4.550000 -0.888000
v 1.950000 5.350000 -0.888000
v 1.960392 4.550000 -0.894000
v 1.960392 5.350000 -0.894000
v 1.960392 4.550000 -0.906000
v 1.960392 5.350000 -0.906000
v 1.950000 4.550000 -0.912000
v 1.950000 5.350000 -0.912000
v 1.939608 4.550000 -0.906000
v 1.939608 5.350000 -0.906000
v 1.939608 4.550000 -0.894000
v 1.939608 5.350000 -0.894000
v 0.900000 5.800000 -0.350000
v 0.900000 5.800000 0.000000
v 0.900000 6.500000 -0.350000
v 0.900000 6.500000 0.000000
v 1.700000 5.800000 -0.350000
v 1.700000 5.800000 0.000000
v 1.700000 6.500000 -0.350000
v 1.700000 6.500000 0.000000
vt 0.000000 0.000000
vt 0.125000 0.000000
vt 0.125000 5.750000
vt 0.000000 5.750000
vt 0.000000 0.000000
vt 0.125000 0.000000
vt 0.125000 5.750000
vt 0.000000 5.750000
vt 0.000000 0.000000
vt 0.125000 0.000000
vt 0.125000 2.250000
vt 0.000000 2.250000
vt 0.000000 0.000000
vt 0.125000 0.000000
vt 0.125000 2.250000
vt 0.000000 2.250000
vt 0.000000 0.000000
vt 2.250000 0.000000
vt 2.250000 5.750000
vt 0.000000 5.750000
vt 0.000000 0.000000
vt 2.250000 0.000000
vt 2.250000 5.750000
vt 0.000000 5.750000
vt 0.000000 0.000000
vt 0.125000 0.000000
vt 0.125000 5.750000
vt 0.000000 5.750000
vt 0.000000 0.000000
vt 0.125000 0.000000
vt 0.125000 5.750000
vt 0.000000 5.750000
vt 0.000000 0.000000
vt 0.125000 0.000000
vt 0.125000 2.250000
vt 0.000000 2.250000
vt 0.000000 0.000000
vt 0.125000 0.000000
vt 0.125000 2.250000
vt 0.000000 2.250000
vt 0.000000 0.000000
vt 2.250000 0.000000
vt 2.250000 5.750000
vt 0.000000 5.750000
vt 0.000000 0.000000
vt 2.250000 0.000000
vt 2.250000 5.750000
vt 0.000000 5.750000
vt 0.000000 0.000000
vt 2.250000 0.000000
vt 2.250000 5.750000
vt 0.000000 5.750000
vt 0.000000 0.000000
vt 2.250000 0.000000
vt 2.250000 5.750000
vt 0.000000 5.750000
vt 0.000000 0.000000
vt 2.250000 0.000000
vt 2.250000 0.125000
vt 0.000000 0.125000
vt 0.000000 0.000000
vt 2.250000 0.000000
vt 2.250000 0.125000
vt 0.000000 0.125000
vt 0.000000 0.000000
vt 0.125000 0.000000
vt 0.125000 5.750000
vt 0.000000 5.750000
vt 0.000000 0.000000
vt 0.125000 0.000000
vt 0.125000 5.750000
vt 0.000000 5.750000
vt 0.000000 0.000000
vt 2.250000 0.000000
vt 2.250000 0.150000
vt 0.000000 0.150000
vt 0.000000 0.000000
vt 2.250000 0.000000
vt 2.250000 0.150000
vt 0.000000 0.150000
vt 0.000000 0.000000
vt 2.250000 0.000000
vt 2.250000 2.250000
vt 0.000000 2.250000
vt 0.000000 0.000000
vt 2.250000 0.000000
vt 2.250000 2.250000
vt 0.000000 2.250000
vt 0.000000 0.000000
vt 2.250000 0.000000
vt 2.250000 0.150000
vt 0.000000 0.150000
vt 0.000000 0.000000
vt 2.250000 0.000000
vt 2.250000 0.150000
vt 0.000000 0.150000
vt 1.000000 0.304348
vt 0.000000 0.304348
vt 0.000000 1.000000
vt 1.000000 1.000000
vt 0.920000 0.000000
vt 0.080000 0.000000
vt 0.080000 0.304348
vt 0.920000 0.304348
vt 0.000000 0.000000
vt 0.150000 0.000000
vt 0.150000 1.750000
vt 0.000000 1.750000
vt 0.000000 0.000000
vt 0.150000 0.000000
vt 0.150000 1.750000
vt 0.000000 1.750000
vt 0.000000 0.000000
vt 0.150000 0.000000
vt 0.150000 0.300000
vt 0.000000 0.300000
vt 0.000000 0.000000
vt 0.150000 0.000000
vt 0.150000 0.300000
vt 0.000000 0.300000
vt 0.000000 0.000000
vt 0.300000 0.000000
vt 0.300000 1.750000
vt 0.000000 1.750000
vt 0.000000 0.000000
vt 0.300000 0.000000
vt 0.300000 1.750000
vt 0.000000 1.750000
vt 0.000000 0.000000
vt 0.150000 0.000000
vt 0.150000 1.750000
vt 0.000000 1.750000
vt 0.000000 0.000000
vt 0.150000 0.000000
vt 0.150000 1.750000
vt 0.000000 1.750000
vt 0.000000 0.000000
vt 0.150000 0.000000
vt 0.150000 0.300000
vt 0.000000 0.300000
vt 0.000000 0.000000
vt 0.150000 0.000000
vt 0.150000 0.300000
vt 0.000000 0.300000
vt 0.000000 0.000000
vt 0.300000 0.000000
vt 0.300000 1.750000
vt 0.000000 1.750000
vt 0.000000 0.000000
vt 0.300000 0.000000
vt 0.300000 1.750000
vt 0.000000 1.750000
vt 0.000000 0.000000
vt 4.300000 0.000000
vt 4.300000 0.900000
vt 0.000000 0.900000
vt 0.000000 0.000000
vt 4.300000 0.000000
vt 4.300000 0.900000
vt 0.000000 0.900000
vt 0.000000 0.000000
vt 4.300000 0.000000
vt 4.300000 0.150000
vt 0.000000 0.150000
vt 0.000000 0.000000
vt 4.300000 0.000000
vt 4.300000 0.150000
vt 0.000000 0.150000
vt 0.000000 0.000000
vt 0.150000 0.000000
vt 0.150000 0.900000
vt 0.000000 0.900000
vt 0.000000 0.000000
vt 0.150000 0.000000
vt 0.150000 0.900000
vt 0.000000 0.900000
vt 1.000000 0.600000
vt 0.000000 0.600000
vt 0.000000 0.670000
vt 1.000000 0.670000
vt 0.000000 0.000000
vt 0.166667 0.000000
vt 0.166667 1.208305
vt 0.000000 1.208305
vt 0.166667 0.000000
vt 0.333333 0.000000
vt 0.333333 1.208305
vt 0.166667 1.208305
vt 0.333333 0.000000
vt 0.500000 0.000000
vt 0.500000 1.208305
vt 0.333333 1.208305
vt 0.500000 0.000000
vt 0.666667 0.000000
vt 0.666667 1.208305
vt 0.500000 1.208305
vt 0.666667 0.000000
vt 0.833333 0.000000
vt 0.833333 1.208305
vt 0.666667 1.208305
vt 0.833333 0.000000
vt 1.000000 0.000000
vt 1.000000 1.208305
vt 0.833333 1.208305
vt 0.000000 0.000000
vt 0.166667 0.000000
vt 0.166667 1.208305
vt 0.000000 1.208305
vt 0.166667 0.000000
vt 0.333333 0.000000
vt 0.333333 1.208305
vt 0.166667 1.208305
vt 0.333333 0.000000
vt 0.500000 0.000000
vt 0.500000 1.208305
vt 0.333333 1.208305
vt 0.500000 0.000000
vt 0.666667 0.000000
vt 0.666667 1.208305
vt 0.500000 1.208305
vt 0.666667 0.000000
vt 0.833333 0.000000
vt 0.833333 1.208305
vt 0.666667 1.208305
vt 0.833333 0.000000
vt 1.000000 0.000000
vt 1.000000 1.208305
vt 0.833333 1.208305
vt 0.000000 0.000000
vt 4.100000 0.000000
vt 4.100000 0.200000
vt 0.000000 0.200000
vt 0.000000 0.000000
vt 4.100000 0.000000
vt 4.100000 0.200000
vt 0.000000 0.200000
vt 0.000000 0.000000
vt 4.100000 0.000000
vt 4.100000 0.900000
vt 0.000000 0.900000
vt 0.000000 0.000000
vt 4.100000 0.000000
vt 4.100000 0.900000
vt 0.000000 0.900000
vt 0.000000 0.000000
vt 0.900000 0.000000
vt 0.900000 0.200000
vt 0.000000 0.200000
vt 0.000000 0.000000
vt 0.900000 0.000000
vt 0.900000 0.200000
vt 0.000000 0.200000
vt 0.000000 0.000000
vt 4.100000 0.000000
vt 4.100000 0.050000
vt 0.000000 0.050000
vt 0.000000 0.000000
vt 4.100000 0.000000
vt 4.100000 0.050000
vt 0.000000 0.050000
vt 0.000000 0.000000
vt 4.100000 0.000000
vt 4.100000 0.040000
vt 0.000000 0.040000
vt 0.000000 0.000000
vt 4.100000 0.000000
vt 4.100000 0.040000
vt 0.000000 0.040000
vt 0.000000 0.000000
vt 0.040000 0.000000
vt 0.040000 0.050000
vt 0.000000 0.050000
vt 0.000000 0.000000
vt 0.040000 0.000000
vt 0.040000 0.050000
vt 0.000000 0.050000
vt 0.000000 0.000000
vt 0.040000 0.000000
vt 0.040000 0.800000
vt 0.000000 0.800000
vt 0.000000 0.000000
vt 0.040000 0.000000
vt 0.040000 0.800000
vt 0.000000 0.800000
vt 0.000000 0.000000
vt 0.040000 0.000000
vt 0.040000 0.900000
vt 0.000000 0.900000
vt 0.000000 0.000000
vt 0.040000 0.000000
vt 0.040000 0.900000
vt 0.000000 0.900000
vt 0.000000 0.000000
vt 0.900000 0.000000
vt 0.900000 0.800000
vt 0.000000 0.800000
vt 0.000000 0.000000
vt 0.900000 0.000000
vt 0.900000 0.800000
vt 0.000000 0.800000
vt 0.000000 0.000000
vt 0.040000 0.000000
vt 0.040000 0.800000
vt 0.000000 0.800000
vt 0.000000 0.000000
vt 0.040000 0.000000
vt 0.040000 0.800000
vt 0.000000 0.800000
vt 0.000000 0.000000
vt 0.040000 0.000000
vt 0.040000 0.900000
vt 0.000000 0.900000
vt 0.000000 0.000000
vt 0.040000 0.000000
vt 0.040000 0.900000
vt 0.000000 0.900000
vt 0.000000 0.000000
vt 0.900000 0.000000
vt 0.900000 0.800000
vt 0.000000 0.800000
vt 0.000000 0.000000
vt 0.900000 0.000000
vt 0.900000 0.800000
vt 0.000000 0.800000
vt 0.000000 0.000000
vt 0.166667 0.000000
vt 0.166667 0.800000
vt 0.000000 0.800000
vt 0.166667 0.000000
vt 0.333333 0.000000
vt 0.333333 0.800000
vt 0.166667 0.800000
vt 0.333333 0.000000
vt 0.500000 0.000000
vt 0.500000 0.800000
vt 0.333333 0.800000
vt 0.500000 0.000000
vt 0.666667 0.000000
vt 0.666667 0.800000
vt 0.500000 0.800000
vt 0.666667 0.000000
vt 0.833333 0.000000
vt 0.833333 0.800000
vt 0.666667 0.800000
vt 0.833333 0.000000
vt 1.000000 0.000000
vt 1.000000 0.800000
vt 0.833333 0.800000
vt 0.000000 0.000000
vt 0.166667 0.000000
vt 0.166667 0.800000
vt 0.000000 0.800000
vt 0.166667 0.000000
vt 0.333333 0.000000
vt 0.333333 0.800000
vt 0.166667 0.800000
vt 0.333333 0.000000
vt 0.500000 0.000000
vt 0.500000 0.800000
vt 0.333333 0.800000
vt 0.500000 0.000000
vt 0.666667 0.000000
vt 0.666667 0.800000
vt 0.500000 0.800000
vt 0.666667 0.000000
vt 0.833333 0.000000
vt 0.833333 0.800000
vt 0.666667 0.800000
vt 0.833333 0.000000
vt 1.000000 0.000000
vt 1.000000 0.800000
vt 0.833333 0.800000
vt 0.000000 0.000000
vt 0.166667 0.000000
vt 0.166667 0.800000
vt 0.000000 0.800000
vt 0.166667 0.000000
vt 0.333333 0.000000
vt 0.333333 0.800000
vt 0.166667 0.800000
vt 0.333333 0.000000
vt 0.500000 0.000000
vt 0.500000 0.800000
vt 0.333333 0.800000
vt 0.500000 0.000000
vt 0.666667 0.000000
vt 0.666667 0.800000
vt 0.500000 0.800000
vt 0.666667 0.000000
vt 0.833333 0.000000
vt 0.833333 0.800000
vt 0.666667 0.800000
vt 0.833333 0.000000
vt 1.000000 0.000000
vt 1.000000 0.800000
vt 0.833333 0.800000
vt 0.000000 0.000000
vt 0.166667 0.000000
vt 0.166667 0.800000
vt 0.000000 0.800000
vt 0.166667 0.000000
vt 0.333333 0.000000
vt 0.333333 0.800000
vt 0.166667 0.800000
vt 0.333333 0.000000
vt 0.500000 0.000000
vt 0.500000 0.800000
vt 0.333333 0.800000
vt 0.500000 0.000000
vt 0.666667 0.000000
vt 0.666667 0.800000
vt 0.500000 0.800000
vt 0.666667 0.000000
vt 0.833333 0.000000
vt 0.833333 0.800000
vt 0.666667 0.800000
vt 0.833333 0.000000
vt 1.000000 0.000000
vt 1.000000 0.800000
vt 0.833333 0.800000
vt 0.000000 0.000000
vt 0.166667 0.000000
vt 0.166667 0.800000
vt 0.000000 0.800000
vt 0.166667 0.000000
vt 0.333333 0.000000
vt 0.333333 0.800000
vt 0.166667 0.800000
vt 0.333333 0.000000
vt 0.500000 0.000000
vt 0.500000 0.800000
vt 0.333333 0.800000
vt 0.500000 0.000000
vt 0.666667 0.000000
vt 0.666667 0.800000
vt 0.500000 0.800000
vt 0.666667 0.000000
vt 0.833333 0.000000
vt 0.833333 0.800000
vt 0.666667 0.800000
vt 0.833333 0.000000
vt 1.000000 0.000000
vt 1.000000 0.800000
vt 0.833333 0.800000
vt 0.000000 0.000000
vt 0.166667 0.000000
vt 0.166667 0.800000
vt 0.000000 0.800000
vt 0.166667 0.000000
vt 0.333333 0.000000
vt 0.333333 0.800000
vt 0.166667 0.800000
vt 0.333333 0.000000
vt 0.500000 0.000000
vt 0.500000 0.800000
vt 0.333333 0.800000
vt 0.500000 0.000000
vt 0.666667 0.000000
vt 0.666667 0.800000
vt 0.500000 0.800000
vt 0.666667 0.000000
vt 0.833333 0.000000
vt 0.833333 0.800000
vt 0.666667 0.800000
vt 0.833333 0.000000
vt 1.000000 0.000000
vt 1.000000 0.800000
vt 0.833333 0.800000
vt 0.000000 0.000000
vt 0.166667 0.000000
vt 0.166667 0.800000
vt 0.000000 0.800000
vt 0.166667 0.000000
vt 0.333333 0.000000
vt 0.333333 0.800000
vt 0.166667 0.800000
vt 0.333333 0.000000
vt 0.500000 0.000000
vt 0.500000 0.800000
vt 0.333333 0.800000
vt 0.500000 0.000000
vt 0.666667 0.000000
vt 0.666667 0.800000
vt 0.500000 0.800000
vt 0.666667 0.000000
vt 0.833333 0.000000
vt 0.833333 0.800000
vt 0.666667 0.800000
vt 0.833333 0.000000
vt 1.000000 0.000000
vt 1.000000 0.800000
vt 0.833333 0.800000
vt 0.000000 0.000000
vt 0.166667 0.000000
vt 0.166667 0.800000
vt 0.000000 0.800000
vt 0.166667 0.000000
vt 0.333333 0.000000
vt 0.333333 0.800000
vt 0.166667 0.800000
vt 0.333333 0.000000
vt 0.500000 0.000000
vt 0.500000 0.800000
vt 0.333333 0.800000
vt 0.500000 0.000000
vt 0.666667 0.000000
vt 0.666667 0.800000
vt 0.500000 0.800000
vt 0.666667 0.000000
vt 0.833333 0.000000
vt 0.833333 0.800000
vt 0.666667 0.800000
vt 0.833333 0.000000
vt 1.000000 0.000000
vt 1.000000 0.800000
vt 0.833333 0.800000
vt 0.000000 0.000000
vt 0.166667 0.000000
vt 0.166667 0.800000
vt 0.000000 0.800000
vt 0.166667 0.000000
vt 0.333333 0.000000
vt 0.333333 0.800000
vt 0.166667 0.800000
vt 0.333333 0.000000
vt 0.500000 0.000000
vt 0.500000 0.800000
vt 0.333333 0.800000
vt 0.500000 0.000000
vt 0.666667 0.000000
vt 0.666667 0.800000
vt 0.500000 0.800000
vt 0.666667 0.000000
vt 0.833333 0.000000
vt 0.833333 0.800000
vt 0.666667 0.800000
vt 0.833333 0.000000
vt 1.000000 0.000000
vt 1.000000 0.800000
vt 0.833333 0.800000
vt 0.000000 0.000000
vt 0.800000 0.000000
vt 0.800000 0.700000
vt 0.000000 0.700000
vt 0.000000 0.000000
vt 0.800000 0.000000
vt 0.800000 0.700000
vt 0.000000 0.700000
vt 0.000000 0.000000
vt 0.800000 0.000000
vt 0.800000 0.350000
vt 0.000000 0.350000
vt 0.000000 0.000000
vt 0.800000 0.000000
vt 0.800000 0.350000
vt 0.000000 0.350000
vt 0.000000 0.000000
vt 0.350000 0.000000
vt 0.350000 0.700000
vt 0.000000 0.700000
vt 0.000000 0.000000
vt 0.350000 0.000000
vt 0.350000 0.700000
vt 0.000000 0.700000
vn 0.000000 0.000000 1.000000
vn 0.000000 0.000000 -1.000000
vn 0.000000 1.000000 0.000000
vn 0.000000 -1.000000 0.000000
vn 1.000000 0.000000 0.000000
vn -1.000000 0.000000 0.000000
vn 0.000000 0.000000 1.000000
vn 0.000000 0.000000 -1.000000
vn 0.000000 1.000000 0.000000
vn 0.000000 -1.000000 0.000000
vn 1.000000 0.000000 0.000000
vn -1.000000 0.000000 0.000000
vn 0.000000 0.000000 1.000000
vn 0.000000 0.000000 -1.000000
vn 0.000000 1.000000 0.000000
vn 0.000000 -1.000000 0.000000
vn 1.000000 0.000000 0.000000
vn -1.000000 0.000000 0.000000
vn 0.000000 0.000000 1.000000
vn 0.000000 0.000000 -1.000000
vn 0.000000 1.000000 0.000000
vn 0.000000 -1.000000 0.000000
vn 1.000000 0.000000 0.000000
vn -1.000000 0.000000 0.000000
vn 0.000000 0.000000 -1.000000
vn 0.000000 0.000000 -1.000000
vn 0.000000 0.000000 1.000000
vn 0.000000 0.000000 -1.000000
vn 0.000000 1.000000 0.000000
vn 0.000000 -1.000000 0.000000
vn 1.000000 0.000000 0.000000
vn -1.000000 0.000000 0.000000
vn 0.000000 0.000000 1.000000
vn 0.000000 0.000000 -1.000000
vn 0.000000 1.000000 0.000000
vn 0.000000 -1.000000 0.000000
vn 1.000000 0.000000 0.000000
vn -1.000000 0.000000 0.000000
vn 0.000000 0.000000 1.000000
vn 0.000000 0.000000 -1.000000
vn 0.000000 1.000000 0.000000
vn 0.000000 -1.000000 0.000000
vn 1.000000 0.000000 0.000000
vn -1.000000 0.000000 0.000000
vn 0.000000 0.600000 -0.800000
vn -1.000000 0.000000 0.000000
vn -0.500000 0.788400 0.358364
vn -0.500000 0.788400 0.358364
vn 0.500000 0.788400 0.358364
vn 0.500000 0.788400 0.358364
vn 1.000000 0.000000 0.000000
vn 1.000000 0.000000 0.000000
vn 0.500000 -0.788400 -0.358364
vn 0.500000 -0.788400 -0.358364
vn -0.500000 -0.788400 -0.358364
vn -0.500000 -0.788400 -0.358364
vn -1.000000 0.000000 0.000000
vn -1.000000 0.000000 0.000000
vn -0.500000 0.788400 0.358364
vn -0.500000 0.788400 0.358364
vn 0.500000 0.788400 0.358364
vn 0.500000 0.788400 0.358364
vn 1.000000 0.000000 0.000000
vn 1.000000 0.000000 0.000000
vn 0.500000 -0.788400 -0.358364
vn 0.500000 -0.788400 -0.358364
vn -0.500000 -0.788400 -0.358364
vn -0.500000 -0.788400 -0.358364
vn -1.000000 0.000000 0.000000
vn 0.000000 0.000000 1.000000
vn 0.000000 0.000000 -1.000000
vn 0.000000 1.000000 0.000000
vn 0.000000 -1.000000 0.000000
vn 1.000000 0.000000 0.000000
vn -1.000000 0.000000 0.000000
vn 0.000000 0.000000 1.000000
vn 0.000000 0.000000 -1.000000
vn 0.000000 1.000000 0.000000
vn 0.000000 -1.000000 0.000000
vn 1.000000 0.000000 0.000000
vn -1.000000 0.000000 0.000000
vn 0.000000 0.000000 1.000000
vn 0.000000 0.000000 -1.000000
vn 0.000000 1.000000 0.000000
vn 0.000000 -1.000000 0.000000
vn 1.000000 0.000000 0.000000
vn -1.000000 0.000000 0.000000
vn 0.000000 0.000000 1.000000
vn 0.000000 0.000000 -1.000000
vn 0.000000 1.000000 0.000000
vn 0.000000 -1.000000 0.000000
vn 1.000000 0.000000 0.000000
vn -1.000000 0.000000 0.000000
vn 0.000000 0.000000 1.000000
vn 0.866025 0.000000 0.500000
vn 0.866025 0.000000 0.500000
vn 0.866025 0.000000 -0.500000
vn 0.866025 0.000000 -0.500000
vn 0.000000 0.000000 -1.000000
vn 0.000000 0.000000 -1.000000
vn -0.866025 -0.000000 -0.500000
vn -0.866025 -0.000000 -0.500000
vn -0.866025 0.000000 0.500000
vn -0.866025 0.000000 0.500000
vn 0.000000 0.000000 1.000000
vn 0.000000 0.000000 1.000000
vn 0.866025 0.000000 0.500000
vn 0.866025 0.000000 0.500000
vn 0.866025 0.000000 -0.500000
vn 0.866025 0.000000 -0.500000
vn 0.000000 0.000000 -1.000000
vn 0.000000 0.000000 -1.000000
vn -0.866025 -0.000000 -0.500000
vn -0.866025 -0.000000 -0.500000
vn -0.866025 0.000000 0.500000
vn -0.866025 0.000000 0.500000
vn 0.000000 0.000000 1.000000
vn 0.000000 0.000000 1.000000
vn 0.866025 0.000000 0.500000
vn 0.866025 0.000000 0.500000
vn 0.866025 0.000000 -0.500000
vn 0.866025 0.000000 -0.500000
vn 0.000000 0.000000 -1.000000
vn 0.000000 0.000000 -1.000000
vn -0.866025 -0.000000 -0.500000
vn -0.866025 -0.000000 -0.500000
vn -0.866025 0.000000 0.500000
vn -0.866025 0.000000 0.500000
vn 0.000000 0.000000 1.000000
vn 0.000000 0.000000 1.000000
vn 0.866025 0.000000 0.500000
vn 0.866025 0.000000 0.500000
vn 0.866025 0.000000 -0.500000
vn 0.866025 0.000000 -0.500000
vn 0.000000 0.000000 -1.000000
vn 0.000000 0.000000 -1.000000
vn -0.866025 -0.000000 -0.500000
vn -0.866025 -0.000000 -0.500000
vn -0.866025 0.000000 0.500000
vn -0.866025 0.000000 0.500000
vn 0.000000 0.000000 1.000000
vn 0.000000 0.000000 1.000000
vn 0.866025 0.000000 0.500000
vn 0.866025 0.000000 0.500000
vn 0.866025 0.000000 -0.500000
vn 0.866025 0.000000 -0.500000
vn 0.000000 0.000000 -1.000000
vn 0.000000 0.000000 -1.000000
vn -0.866025 -0.000000 -0.500000
vn -0.866025 -0.000000 -0.500000
vn -0.866025 0.000000 0.500000
vn -0.866025 0.000000 0.500000
vn 0.000000 0.000000 1.000000
vn 0.000000 0.000000 1.000000
vn 0.866025 0.000000 0.500000
vn 0.866025 0.000000 0.500000
vn 0.866025 0.000000 -0.500000
vn 0.866025 0.000000 -0.500000
vn 0.000000 0.000000 -1.000000
vn 0.000000 0.000000 -1.000000
vn -0.866025 -0.000000 -0.500000
vn -0.866025 -0.000000 -0.500000
vn -0.866025 0.000000 0.500000
vn -0.866025 0.000000 0.500000
vn 0.000000 0.000000 1.000000
vn 0.000000 0.000000 1.000000
vn 0.866025 0.000000 0.500000
vn 0.866025 0.000000 0.500000
vn 0.866025 0.000000 -0.500000
vn 0.866025 0.000000 -0.500000
vn 0.000000 0.000000 -1.000000
vn 0.000000 0.000000 -1.000000
vn -0.866025 -0.000000 -0.500000
vn -0.866025 -0.000000 -0.500000
vn -0.866025 0.000000 0.500000
vn -0.866025 0.000000 0.500000
vn 0.000000 0.000000 1.000000
vn 0.000000 0.000000 1.000000
vn 0.866025 0.000000 0.500000
vn 0.866025 0.000000 0.500000
vn 0.866025 0.000000 -0.500000
vn 0.866025 0.000000 -0.500000
vn 0.000000 0.000000 -1.000000
vn 0.000000 0.000000 -1.000000
vn -0.866025 -0.000000 -0.500000
vn -0.866025 -0.000000 -0.500000
vn -0.866025 0.000000 0.500000
vn -0.866025 0.000000 0.500000
vn 0.000000 0.000000 1.000000
vn 0.000000 0.000000 1.000000
vn 0.866025 0.000000 0.500000
vn 0.866025 0.000000 0.500000
vn 0.866025 0.000000 -0.500000
vn 0.866025 0.000000 -0.500000
vn 0.000000 0.000000 -1.000000
vn 0.000000 0.000000 -1.000000
vn -0.866025 -0.000000 -0.500000
vn -0.866025 -0.000000 -0.500000
vn -0.866025 0.000000 0.500000
vn -0.866025 0.000000 0.500000
vn 0.000000 0.000000 1.000000
vn 0.000000 0.000000 1.000000
vn 0.000000 0.000000 -1.000000
vn 0.000000 1.000000 0.000000
vn 0.000000 -1.000000 0.000000
vn 1.000000 0.000000 0.000000
vn -1.000000 0.000000 0.000000
s 1
f 2/1/1 6/2/1 8/3/1
f 2/1/1 8/3/1 4/4/1
f 5/5/2 1/6/2 3/7/2
f 5/5/2 3/7/2 7/8/2
f 4/9/3 8/10/3 7/11/3
f 4/9/3 7/11/3 3/12/3
f 1/13/4 5/14/4 6/15/4
f 1/13/4 6/15/4 2/16/4
f 6/17/5 5/18/5 7/19/5
f 6/17/5 7/19/5 8/20/5
f 1/21/6 2/22/6 4/23/6
f 1/21/6 4/23/6 3/24/6
f 10/25/7 14/26/7 16/27/7
f 10/25/7 16/27/7 12/28/7
f 13/29/8 9/30/8 11/31/8
f 13/29/8 11/31/8 15/32/8
f 12/33/9 16/34/9 15/35/9
f 12/33/9 15/35/9 11/36/9
f 9/37/10 13/38/10 14/39/10
f 9/37/10 14/39/10 10/40/10
f 14/41/11 13/42/11 15/43/11
f 14/41/11 15/43/11 16/44/11
f 9/45/12 10/46/12 12/47/12
f 9/45/12 12/47/12 11/48/12
f 18/49/13 22/50/13 24/51/13
f 18/49/13 24/51/13 20/52/13
f 21/53/14 17/54/14 19/55/14
f 21/53/14 19/55/14 23/56/14
f 20/57/15 24/58/15 23/59/15
f 20/57/15 23/59/15 19/60/15
f 17/61/16 21/62/16 22/63/16
f 17/61/16 22/63/16 18/64/16
f 22/65/17 21/66/17 23/67/17
f 22/65/17 23/67/17 24/68/17
f 17/69/18 18/70/18 20/71/18
f 17/69/18 20/71/18 19/72/18
f 26/73/19 30/74/19 32/75/19
f 26/73/19 32/75/19 28/76/19
f 29/77/20 25/78/20 27/79/20
f 29/77/20 27/79/20 31/80/20
f 28/81/21 32/82/21 31/83/21
f 28/81/21 31/83/21 27/84/21
f 25/85/22 29/86/22 30/87/22
f 25/85/22 30/87/22 26/88/22
f 30/89/23 29/90/23 31/91/23
f 30/89/23 31/91/23 32/92/23
f 25/93/24 26/94/24 28/95/24
f 25/93/24 28/95/24 27/96/24
f 33/97/25 34/98/25 35/99/25
f 33/97/25 35/99/25 36/100/25
f 37/101/26 38/102/26 39/103/26
f 37/101/26 39/103/26 40/104/26
f 42/105/27 46/106/27 48/107/27
f 42/105/27 48/107/27 44/108/27
f 45/109/28 41/110/28 43/111/28
f 45/109/28 43/111/28 47/112/28
f 44/113/29 48/114/29 47/115/29
f 44/113/29 47/115/29 43/116/29
f 41/117/30 45/118/30 46/119/30
f 41/117/30 46/119/30 42/120/30
f 46/121/31 45/122/31 47/123/31
f 46/121/31 47/123/31 48/124/31
f 41/125/32 42/126/32 44/127/32
f 41/125/32 44/127/32 43/128/32
f 50/129/33 54/130/33 56/131/33
f 50/129/33 56/131/33 52/132/33
f 53/133/34 49/134/34 51/135/34
f 53/133/34 51/135/34 55/136/34
f 52/137/35 56/138/35 55/139/35
f 52/137/35 55/139/35 51/140/35
f 49/141/36 53/142/36 54/143/36
f 49/141/36 54/143/36 50/144/36
f 54/145/37 53/146/37 55/147/37
f 54/145/37 55/147/37 56/148/37
f 49/149/38 50/150/38 52/151/38
f 49/149/38 52/151/38 51/152/38
f 58/153/39 62/154/39 64/155/39
f 58/153/39 64/155/39 60/156/39
f 61/157/40 57/158/40 59/159/40
f 61/157/40 59/159/40 63/160/40
f 60/161/41 64/162/41 63/163/41
f 60/161/41 63/163/41 59/164/41
f 57/165/42 61/166/42 62/167/42
f 57/165/42 62/167/42 58/168/42
f 62/169/43 61/170/43 63/171/43
f 62/169/43 63/171/43 64/172/43
f 57/173/44 58/174/44 60/175/44
f 57/173/44 60/175/44 59/176/44
f 68/177/45 67/178/45 66/179/45
f 68/177/45 66/179/45 65/180/45
f 69/181/46 71/182/47 72/183/47
f 69/181/46 72/183/47 70/184/46
f 71/185/48 73/186/49 74/187/49
f 71/185/48 74/187/49 72/188/48
f 73/189/50 75/190/51 76/191/51
f 73/189/50 76/191/51 74/192/50
f 75/193/52 77/194/53 78/195/53
f 75/193/52 78/195/53 76/196/52
f 77/197/54 79/198/55 80/199/55
f 77/197/54 80/199/55 78/200/54
f 79/201/56 69/202/57 70/203/57
f 79/201/56 70/203/57 80/204/56
f 81/205/58 83/206/59 84/207/59
f 81/205/58 84/207/59 82/208/58
f 83/209/60 85/210/61 86/211/61
f 83/209/60 86/211/61 84/212/60
f 85/213/62 87/214/63 88/215/63
f 85/213/62 88/215/63 86/216/62
f 87/217/64 89/218/65 90/219/65
f 87/217/64 90/219/65 88/220/64
f 89/221/66 91/222/67 92/223/67
f 89/221/66 92/223/67 90/224/66
f 91/225/68 81/226/69 82/227/69
f 91/225/68 82/227/69 92/228/68
f 94/229/70 98/230/70 100/231/70
f 94/229/70 100/231/70 96/232/70
f 97/233/71 93/234/71 95/235/71
f 97/233/71 95/235/71 99/236/71
f 96/237/72 100/238/72 99/239/72
f 96/237/72 99/239/72 95/240/72
f 93/241/73 97/242/73 98/243/73
f 93/241/73 98/243/73 94/244/73
f 98/245/74 97/246/74 99/247/74
f 98/245/74 99/247/74 100/248/74
f 93/249/75 94/250/75 96/251/75
f 93/249/75 96/251/75 95/252/75
f 102/253/76 106/254/76 108/255/76
f 102/253/76 108/255/76 104/256/76
f 105/257/77 101/258/77 103/259/77
f 105/257/77 103/259/77 107/260/77
f 104/261/78 108/262/78 107/263/78
f 104/261/78 107/263/78 103/264/78
f 101/265/79 105/266/79 106/267/79
f 101/265/79 106/267/79 102/268/79
f 106/269/80 105/270/80 107/271/80
f 106/269/80 107/271/80 108/272/80
f 101/273/81 102/274/81 104/275/81
f 101/273/81 104/275/81 103/276/81
f 110/277/82 114/278/82 116/279/82
f 110/277/82 116/279/82 112/280/82
f 113/281/83 109/282/83 111/283/83
f 113/281/83 111/283/83 115/284/83
f 112/285/84 116/286/84 115/287/84
f 112/285/84 115/287/84 111/288/84
f 109/289/85 113/290/85 114/291/85
f 109/289/85 114/291/85 110/292/85
f 114/293/86 113/294/86 115/295/86
f 114/293/86 115/295/86 116/296/86
f 109/297/87 110/298/87 112/299/87
f 109/297/87 112/299/87 111/300/87
f 118/301/88 122/302/88 124/303/88
f 118/301/88 124/303/88 120/304/88
f 121/305/89 117/306/89 119/307/89
f 121/305/89 119/307/89 123/308/89
f 120/309/90 124/310/90 123/311/90
f 120/309/90 123/311/90 119/312/90
f 117/313/91 121/314/91 122/315/91
f 117/313/91 122/315/91 118/316/91
f 122/317/92 121/318/92 123/319/92
f 122/317/92 123/319/92 124/320/92
f 117/321/93 118/322/93 120/323/93
f 117/321/93 120/323/93 119/324/93
f 125/325/94 127/326/95 128/327/95
f 125/325/94 128/327/95 126/328/94
f 127/329/96 129/330/97 130/331/97
f 127/329/96 130/331/97 128/332/96
f 129/333/98 131/334/99 132/335/99
f 129/333/98 132/335/99 130/336/98
f 131/337/100 133/338/101 134/339/101
f 131/337/100 134/339/101 132/340/100
f 133/341/102 135/342/103 136/343/103
f 133/341/102 136/343/103 134/344/102
f 135/345/104 125/346/105 126/347/105
f 135/345/104 126/347/105 136/348/104
f 137/349/106 139/350/107 140/351/107
f 137/349/106 140/351/107 138/352/106
f 139/353/108 141/354/109 142/355/109
f 139/353/108 142/355/109 140/356/108
f 141/357/110 143/358/111 144/359/111
f 141/357/110 144/359/111 142/360/110
f 143/361/112 145/362/113 146/363/113
f 143/361/112 146/363/113 144/364/112
f 145/365/114 147/366/115 148/367/115
f 145/365/114 148/367/115 146/368/114
f 147/369/116 137/370/117 138/371/117
f 147/369/116 138/371/117 148/372/116
f 149/373/118 151/374/119 152/375/119
f 149/373/118 152/375/119 150/376/118
f 151/377/120 153/378/121 154/379/121
f 151/377/120 154/379/121 152/380/120
f 153/381/122 155/382/123 156/383/123
f 153/381/122 156/383/123 154/384/122
f 155/385/124 157/386/125 158/387/125
f 155/385/124 158/387/125 156/388/124
f 157/389/126 159/390/127 160/391/127
f 157/389/126 160/391/127 158/392/126
f 159/393/128 149/394/129 150/395/129
f 159/393/128 150/395/129 160/396/128
f 161/397/130 163/398/131 164/399/131
f 161/397/130 164/399/131 162/400/130
f 163/401/132 165/402/133 166/403/133
f 163/401/132 166/403/133 164/404/132
f 165/405/134 167/406/135 168/407/135
f 165/405/134 168/407/135 166/408/134
f 167/409/136 169/410/137 170/411/137
f 167/409/136 170/411/137 168/412/136
f 169/413/138 171/414/139 172/415/139
f 169/413/138 172/415/139 170/416/138
f 171/417/140 161/418/141 162/419/141
f 171/417/140 162/419/141 172/420/140
f 173/421/142 175/422/143 176/423/143
f 173/421/142 176/423/143 174/424/142
f 175/425/144 177/426/145 178/427/145
f 175/425/144 178/427/145 176/428/144
f 177/429/146 179/430/147 180/431/147
f 177/429/146 180/431/147 178/432/146
f 179/433/148 181/434/149 182/435/149
f 179/433/148 182/435/149 180/436/148
f 181/437/150 183/438/151 184/439/151
f 181/437/150 184/439/151 182/440/150
f 183/441/152 173/442/153 174/443/153
f 183/441/152 174/443/153 184/444/152
f 185/445/154 187/446/155 188/447/155
f 185/445/154 188/447/155 186/448/154
f 187/449/156 189/450/157 190/451/157
f 187/449/156 190/451/157 188/452/156
f 189/453/158 191/454/159 192/455/159
f 189/453/158 192/455/159 190/456/158
f 191/457/160 193/458/161 194/459/161
f 191/457/160 194/459/161 192/460/160
f 193/461/162 195/462/163 196/463/163
f 193/461/162 196/463/163 194/464/162
f 195/465/164 185/466/165 186/467/165
f 195/465/164 186/467/165 196/468/164
f 197/469/166 199/470/167 200/471/167
f 197/469/166 200/471/167 198/472/166
f 199/473/168 201/474/169 202/475/169
f 199/473/168 202/475/169 200/476/168
f 201/477/170 203/478/171 204/479/171
f 201/477/170 204/479/171 202/480/170
f 203/481/172 205/482/173 206/483/173
f 203/481/172 206/483/173 204/484/172
f 205/485/174 207/486/175 208/487/175
f 205/485/174 208/487/175 206/488/174
f 207/489/176 197/490/177 198/491/177
f 207/489/176 198/491/177 208/492/176
f 209/493/178 211/494/179 212/495/179
f 209/493/178 212/495/179 210/496/178
f 211/497/180 213/498/181 214/499/181
f 211/497/180 214/499/181 212/500/180
f 213/501/182 215/502/183 216/503/183
f 213/501/182 216/503/183 214/504/182
f 215/505/184 217/506/185 218/507/185
f 215/505/184 218/507/185 216/508/184
f 217/509/186 219/510/187 220/511/187
f 217/509/186 220/511/187 218/512/186
f 219/513/188 209/514/189 210/515/189
f 219/513/188 210/515/189 220/516/188
f 221/517/190 223/518/191 224/519/191
f 221/517/190 224/519/191 222/520/190
f 223/521/192 225/522/193 226/523/193
f 223/521/192 226/523/193 224/524/192
f 225/525/194 227/526/195 228/527/195
f 225/525/194 228/527/195 226/528/194
f 227/529/196 229/530/197 230/531/197
f 227/529/196 230/531/197 228/532/196
f 229/533/198 231/534/199 232/535/199
f 229/533/198 232/535/199 230/536/198
f 231/537/200 221/538/201 222/539/201
f 231/537/200 222/539/201 232/540/200
f 234/541/202 238/542/202 240/543/202
f 234/541/202 240/543/202 236/544/202
f 237/545/203 233/546/203 235/547/203
f 237/545/203 235/547/203 239/548/203
f 236/549/204 240/550/204 239/551/204
f 236/549/204 239/551/204 235/552/204
f 233/553/205 237/554/205 238/555/205
f 233/553/205 238/555/205 234/556/205
f 238/557/206 237/558/206 239/559/206
f 238/557/206 239/559/206 240/560/206
f 233/561/207 234/562/207 236/563/207
f 233/561/207 236/563/207 235/564/207
