# Wavefront OBJ: SM_StreetLamp
o SM_StreetLamp
v 0.000000 0.000000 0.220000
v 0.000000 0.150000 0.220000
v 0.155563 0.000000 0.155563
v 0.155563 0.150000 0.155563
v 0.220000 0.000000 0.000000
v 0.220000 0.150000 0.000000
v 0.155563 0.000000 -0.155563
v 0.155563 0.150000 -0.155563
v 0.000000 0.000000 -0.220000
v 0.000000 0.150000 -0.220000
v -0.155563 0.000000 -0.155563
v -0.155563 0.150000 -0.155563
v -0.220000 0.000000 -0.000000
v -0.220000 0.150000 -0.000000
v -0.155563 0.000000 0.155563
v -0.155563 0.150000 0.155563
v 0.000000 0.150000 0.080000
v 0.000000 5.200000 0.080000
v 0.040000 0.150000 0.069282
v 0.040000 5.200000 0.069282
v 0.069282 0.150000 0.040000
v 0.069282 5.200000 0.040000
v 0.080000 0.150000 0.000000
v 0.080000 5.200000 0.000000
v 0.069282 0.150000 -0.040000
v 0.069282 5.200000 -0.040000
v 0.040000 0.150000 -0.069282
v 0.040000 5.200000 -0.069282
v 0.000000 0.150000 -0.080000
v 0.000000 5.200000 -0.080000
v -0.040000 0.150000 -0.069282
v -0.040000 5.200000 -0.069282
v -0.069282 0.150000 -0.040000
v -0.069282 5.200000 -0.040000
v -0.080000 0.150000 -0.000000
v -0.080000 5.200000 -0.000000
v -0.069282 0.150000 0.040000
v -0.069282 5.200000 0.040000
v -0.040000 0.150000 0.069282
v -0.040000 5.200000 0.069282
v 0.050000 5.200000 0.000000
v 0.050000 5.600000 0.300000
v 0.035355 5.221213 -0.028284
v 0.035355 5.621213 0.271716
v 0.000000 5.230000 -0.040000
v 0.000000 5.630000 0.260000
v -0.035355 5.221213 -0.028284
v -0.035355 5.621213 0.271716
v -0.050000 5.200000 -0.000000
v -0.050000 5.600000 0.300000
v -0.035355 5.178787 0.028284
v -0.035355 5.578787 0.328284
v -0.000000 5.170000 0.040000
v -0.000000 5.570000 0.340000
v 0.035355 5.178787 0.028284
v 0.035355 5.578787 0.328284
v 0.050000 5.600000 0.300000
v 0.050000 5.900000 0.800000
v 0.035355 5.630317 0.281810
v 0.035355 5.930317 0.781810
v 0.000000 5.642875 0.274275
v 0.000000 5.942875 0.774275
v -0.035355 5.630317 0.281810
v -0.035355 5.930317 0.781810
v -0.050000 5.600000 0.300000
v -0.050000 5.900000 0.800000
v -0.035355 5.569683 0.318190
v -0.035355 5.869683 0.818190
v -0.000000 5.557125 0.325725
v -0.000000 5.857125 0.825725
v 0.035355 5.569683 0.318190
v 0.035355 5.869683 0.818190
v 0.050000 5.900000 0.800000
v 0.050000 6.100000 1.400000
v 0.035355 5.933541 0.788820
v 0.035355 6.133541 1.388820
v 0.000000 5.947434 0.784189
v 0.000000 6.147434 1.384189
v -0.035355 5.933541 0.788820
v -0.035355 6.133541 1.388820
v -0.050000 5.900000 0.800000
v -0.050000 6.100000 1.400000
v -0.035355 5.866459 0.811180
v -0.035355 6.066459 1.411180
v -0.000000 5.852566 0.815811
v -0.000000 6.052566 1.415811
v 0.035355 5.866459 0.811180
v 0.035355 6.066459 1.411180
v -0.150000 5.950000 1.350000
v -0.150000 5.950000 2.100000
v -0.150000 6.150000 1.350000
v -0.150000 6.150000 2.100000
v 0.150000 5.950000 1.350000
v 0.150000 5.950000 2.100000
v 0.150000 6.150000 1.350000
v 0.150000 6.150000 2.100000
v -0.130000 5.950000 1.400000
v 0.130000 5.950000 1.400000
v 0.130000 5.950000 2.050000
v -0.130000 5.950000 2.050000
vt 0.000000 0.000000
vt 0.125000 0.000000
vt 0.125000 0.150000
vt 0.000000 0.150000
vt 0.125000 0.000000
vt 0.250000 0.000000
vt 0.250000 0.150000
vt 0.125000 0.150000
vt 0.250000 0.000000
vt 0.375000 0.000000
vt 0.375000 0.150000
vt 0.250000 0.150000
vt 0.375000 0.000000
vt 0.500000 0.000000
vt 0.500000 0.150000
vt 0.375000 0.150000
vt 0.500000 0.000000
vt 0.625000 0.000000
vt 0.625000 0.150000
vt 0.500000 0.150000
vt 0.625000 0.000000
vt 0.750000 0.000000
vt 0.750000 0.150000
vt 0.625000 0.150000
vt 0.750000 0.000000
vt 0.875000 0.000000
vt 0.875000 0.150000
vt 0.750000 0.150000
vt 0.875000 0.000000
vt 1.000000 0.000000
vt 1.000000 0.150000
vt 0.875000 0.150000
vt 0.000000 0.000000
vt 0.083333 0.000000
vt 0.083333 5.050000
vt 0.000000 5.050000
vt 0.083333 0.000000
vt 0.166667 0.000000
vt 0.166667 5.050000
vt 0.083333 5.050000
vt 0.166667 0.000000
vt 0.250000 0.000000
vt 0.250000 5.050000
vt 0.166667 5.050000
vt 0.250000 0.000000
vt 0.333333 0.000000
vt 0.333333 5.050000
vt 0.250000 5.050000
vt 0.333333 0.000000
vt 0.416667 0.000000
vt 0.416667 5.050000
vt 0.333333 5.050000
vt 0.416667 0.000000
vt 0.500000 0.000000
vt 0.500000 5.050000
vt 0.416667 5.050000
vt 0.500000 0.000000
vt 0.583333 0.000000
vt 0.583333 5.050000
vt 0.500000 5.050000
vt 0.583333 0.000000
vt 0.666667 0.000000
vt 0.666667 5.050000
vt 0.583333 5.050000
vt 0.666667 0.000000
vt 0.750000 0.000000
vt 0.750000 5.050000
vt 0.666667 5.050000
vt 0.750000 0.000000
vt 0.833333 0.000000
vt 0.833333 5.050000
vt 0.750000 5.050000
vt 0.833333 0.000000
vt 0.916667 0.000000
vt 0.916667 5.050000
vt 0.833333 5.050000
vt 0.916667 0.000000
vt 1.000000 0.000000
vt 1.000000 5.050000
vt 0.916667 5.050000
vt 0.000000 0.000000
vt 0.125000 0.000000
vt 0.125000 0.500000
vt 0.000000 0.500000
vt 0.125000 0.000000
vt 0.250000 0.000000
vt 0.250000 0.500000
vt 0.125000 0.500000
vt 0.250000 0.000000
vt 0.375000 0.000000
vt 0.375000 0.500000
vt 0.250000 0.500000
vt 0.375000 0.000000
vt 0.500000 0.000000
vt 0.500000 0.500000
vt 0.375000 0.500000
vt 0.500000 0.000000
vt 0.625000 0.000000
vt 0.625000 0.500000
vt 0.500000 0.500000
vt 0.625000 0.000000
vt 0.750000 0.000000
vt 0.750000 0.500000
vt 0.625000 0.500000
vt 0.750000 0.000000
vt 0.875000 0.000000
vt 0.875000 0.500000
vt 0.750000 0.500000
vt 0.875000 0.000000
vt 1.000000 0.000000
vt 1.000000 0.500000
vt 0.875000 0.500000
vt 0.000000 0.000000
vt 0.125000 0.000000
vt 0.125000 0.583095
vt 0.000000 0.583095
vt 0.125000 0.000000
vt 0.250000 0.000000
vt 0.250000 0.583095
vt 0.125000 0.583095
vt 0.250000 0.000000
vt 0.375000 0.000000
vt 0.375000 0.583095
vt 0.250000 0.583095
vt 0.375000 0.000000
vt 0.500000 0.000000
vt 0.500000 0.583095
vt 0.375000 0.583095
vt 0.500000 0.000000
vt 0.625000 0.000000
vt 0.625000 0.583095
vt 0.500000 0.583095
vt 0.625000 0.000000
vt 0.750000 0.000000
vt 0.750000 0.583095
vt 0.625000 0.583095
vt 0.750000 0.000000
vt 0.875000 0.000000
vt 0.875000 0.583095
vt 0.750000 0.583095
vt 0.875000 0.000000
vt 1.000000 0.000000
vt 1.000000 0.583095
vt 0.875000 0.583095
vt 0.000000 0.000000
vt 0.125000 0.000000
vt 0.125000 0.632456
vt 0.000000 0.632456
vt 0.125000 0.000000
vt 0.250000 0.000000
vt 0.250000 0.632456
vt 0.125000 0.632456
vt 0.250000 0.000000
vt 0.375000 0.000000
vt 0.375000 0.632456
vt 0.250000 0.632456
vt 0.375000 0.000000
vt 0.500000 0.000000
vt 0.500000 0.632456
vt 0.375000 0.632456
vt 0.500000 0.000000
vt 0.625000 0.000000
vt 0.625000 0.632456
vt 0.500000 0.632456
vt 0.625000 0.000000
vt 0.750000 0.000000
vt 0.750000 0.632456
vt 0.625000 0.632456
vt 0.750000 0.000000
vt 0.875000 0.000000
vt 0.875000 0.632456
vt 0.750000 0.632456
vt 0.875000 0.000000
vt 1.000000 0.000000
vt 1.000000 0.632456
vt 0.875000 0.632456
vt 0.000000 0.000000
vt 0.300000 0.000000
vt 0.300000 0.200000
vt 0.000000 0.200000
vt 0.000000 0.000000
vt 0.300000 0.000000
vt 0.300000 0.200000
vt 0.000000 0.200000
vt 0.000000 0.000000
vt 0.300000 0.000000
vt 0.300000 0.750000
vt 0.000000 0.750000
vt 0.000000 0.000000
vt 0.300000 0.000000
vt 0.300000 0.750000
vt 0.000000 0.750000
vt 0.000000 0.000000
vt 0.750000 0.000000
vt 0.750000 0.200000
vt 0.000000 0.200000
vt 0.000000 0.000000
vt 0.750000 0.000000
vt 0.750000 0.200000
vt 0.000000 0.200000
vt 0.000000 0.000000
vt 1.000000 0.000000
vt 1.000000 1.000000
vt 0.000000 1.000000
vn 0.000000 0.000000 1.000000
vn 0.707107 0.000000 0.707107
vn 0.707107 0.000000 0.707107
vn 1.000000 0.000000 0.000000
vn 1.000000 0.000000 0.000000
vn 0.707107 0.000000 -0.707107
vn 0.707107 0.000000 -0.707107
vn 0.000000 0.000000 -1.000000
vn 0.000000 0.000000 -1.000000
vn -0.707107 -0.000000 -0.707107
vn -0.707107 -0.000000 -0.707107
vn -1.000000 -0.000000 -0.000000
vn -1.000000 -0.000000 -0.000000
vn -0.707107 0.000000 0.707107
vn -0.707107 0.000000 0.707107
vn 0.000000 0.000000 1.000000
vn 0.000000 0.000000 1.000000
vn 0.500000 0.000000 0.866025
vn 0.500000 0.000000 0.866025
vn 0.866025 0.000000 0.500000
vn 0.866025 0.000000 0.500000
vn 1.000000 0.000000 0.000000
vn 1.000000 0.000000 0.000000
vn 0.866025 0.000000 -0.500000
vn 0.866025 0.000000 -0.500000
vn 0.500000 0.000000 -0.866025
vn 0.500000 0.000000 -0.866025
vn 0.000000 0.000000 -1.000000
vn 0.000000 0.000000 -1.000000
vn -0.500000 -0.000000 -0.866025
vn -0.500000 -0.000000 -0.866025
vn -0.866025 -0.000000 -0.500000
vn -0.866025 -0.000000 -0.500000
vn -1.000000 -0.000000 -0.000000
vn -1.000000 -0.000000 -0.000000
vn -0.866025 0.000000 0.500000
vn -0.866025 0.000000 0.500000
vn -0.500000 0.000000 0.866025
vn -0.500000 0.000000 0.866025
vn 0.000000 0.000000 1.000000
vn 1.000000 0.000000 0.000000
vn 0.707107 0.424264 -0.565685
vn 0.707107 0.424264 -0.565685
vn 0.000000 0.600000 -0.800000
vn 0.000000 0.600000 -0.800000
vn -0.707107 0.424264 -0.565685
vn -0.707107 0.424264 -0.565685
vn -1.000000 0.000000 -0.000000
vn -1.000000 0.000000 -0.000000
vn -0.707107 -0.424264 0.565685
vn -0.707107 -0.424264 0.565685
vn -0.000000 -0.600000 0.800000
vn -0.000000 -0.600000 0.800000
vn 0.707107 -0.424264 0.565685
vn 0.707107 -0.424264 0.565685
vn 1.000000 0.000000 0.000000
vn 1.000000 0.000000 0.000000
vn 0.707107 0.606339 -0.363803
vn 0.707107 0.606339 -0.363803
vn 0.000000 0.857493 -0.514496
vn 0.000000 0.857493 -0.514496
vn -0.707107 0.606339 -0.363803
vn -0.707107 0.606339 -0.363803
vn -1.000000 0.000000 -0.000000
vn -1.000000 0.000000 -0.000000
vn -0.707107 -0.606339 0.363803
vn -0.707107 -0.606339 0.363803
vn -0.000000 -0.857493 0.514496
vn -0.000000 -0.857493 0.514496
vn 0.707107 -0.606339 0.363803
vn 0.707107 -0.606339 0.363803
vn 1.000000 0.000000 0.000000
vn 1.000000 0.000000 0.000000
vn 0.707107 0.670820 -0.223607
vn 0.707107 0.670820 -0.223607
vn 0.000000 0.948683 -0.316228
vn 0.000000 0.948683 -0.316228
vn -0.707107 0.670820 -0.223607
vn -0.707107 0.670820 -0.223607
vn -1.000000 0.000000 -0.000000
vn -1.000000 0.000000 -0.000000
vn -0.707107 -0.670820 0.223607
vn -0.707107 -0.670820 0.223607
vn -0.000000 -0.948683 0.316228
vn -0.000000 -0.948683 0.316228
vn 0.707107 -0.670820 0.223607
vn 0.707107 -0.670820 0.223607
vn 1.000000 0.000000 0.000000
vn 0.000000 0.000000 1.000000
vn 0.000000 0.000000 -1.000000
vn 0.000000 1.000000 0.000000
vn 0.000000 -1.000000 0.000000
vn 1.000000 0.000000 0.000000
vn -1.000000 0.000000 0.000000
vn 0.000000 -1.000000 0.000000
s 1
f 1/1/1 3/2/2 4/3/2
f 1/1/1 4/3/2 2/4/1
f 3/5/3 5/6/4 6/7/4
f 3/5/3 6/7/4 4/8/3
f 5/9/5 7/10/6 8/11/6
f 5/9/5 8/11/6 6/12/5
f 7/13/7 9/14/8 10/15/8
f 7/13/7 10/15/8 8/16/7
f 9/17/9 11/18/10 12/19/10
f 9/17/9 12/19/10 10/20/9
f 11/21/11 13/22/12 14/23/12
f 11/21/11 14/23/12 12/24/11
f 13/25/13 15/26/14 16/27/14
f 13/25/13 16/27/14 14/28/13
f 15/29/15 1/30/16 2/31/16
f 15/29/15 2/31/16 16/32/15
f 17/33/17 19/34/18 20/35/18
f 17/33/17 20/35/18 18/36/17
f 19/37/19 21/38/20 22/39/20
f 19/37/19 22/39/20 20/40/19
f 21/41/21 23/42/22 24/43/22
f 21/41/21 24/43/22 22/44/21
f 23/45/23 25/46/24 26/47/24
f 23/45/23 26/47/24 24/48/23
f 25/49/25 27/50/26 28/51/26
f 25/49/25 28/51/26 26/52/25
f 27/53/27 29/54/28 30/55/28
f 27/53/27 30/55/28 28/56/27
f 29/57/29 31/58/30 32/59/30
f 29/57/29 32/59/30 30/60/29
f 31/61/31 33/62/32 34/63/32
f 31/61/31 34/63/32 32/64/31
f 33/65/33 35/66/34 36/67/34
f 33/65/33 36/67/34 34/68/33
f 35/69/35 37/70/36 38/71/36
f 35/69/35 38/71/36 36/72/35
f 37/73/37 39/74/38 40/75/38
f 37/73/37 40/75/38 38/76/37
f 39/77/39 17/78/40 18/79/40
f 39/77/39 18/79/40 40/80/39
f 41/81/41 43/82/42 44/83/42
f 41/81/41 44/83/42 42/84/41
f 43/85/43 45/86/44 46/87/44
f 43/85/43 46/87/44 44/88/43
f 45/89/45 47/90/46 48/91/46
f 45/89/45 48/91/46 46/92/45
f 47/93/47 49/94/48 50/95/48
f 47/93/47 50/95/48 48/96/47
f 49/97/49 51/98/50 52/99/50
f 49/97/49 52/99/50 50/100/49
f 51/101/51 53/102/52 54/103/52
f 51/101/51 54/103/52 52/104/51
f 53/105/53 55/106/54 56/107/54
f 53/105/53 56/107/54 54/108/53
f 55/109/55 41/110/56 42/111/56
f 55/109/55 42/111/56 56/112/55
f 57/113/57 59/114/58 60/115/58
f 57/113/57 60/115/58 58/116/57
f 59/117/59 61/118/60 62/119/60
f 59/117/59 62/119/60 60/120/59
f 61/121/61 63/122/62 64/123/62
f 61/121/61 64/123/62 62/124/61
f 63/125/63 65/126/64 66/127/64
f 63/125/63 66/127/64 64/128/63
f 65/129/65 67/130/66 68/131/66
f 65/129/65 68/131/66 66/132/65
f 67/133/67 69/134/68 70/135/68
f 67/133/67 70/135/68 68/136/67
f 69/137/69 71/138/70 72/139/70
f 69/137/69 72/139/70 70/140/69
f 71/141/71 57/142/72 58/143/72
f 71/141/71 58/143/72 72/144/71
f 73/145/73 75/146/74 76/147/74
f 73/145/73 76/147/74 74/148/73
f 75/149/75 77/150/76 78/151/76
f 75/149/75 78/151/76 76/152/75
f 77/153/77 79/154/78 80/155/78
f 77/153/77 80/155/78 78/156/77
f 79/157/79 81/158/80 82/159/80
f 79/157/79 82/159/80 80/160/79
f 81/161/81 83/162/82 84/163/82
f 81/161/81 84/163/82 82/164/81
f 83/165/83 85/166/84 86/167/84
f 83/165/83 86/167/84 84/168/83
f 85/169/85 87/170/86 88/171/86
f 85/169/85 88/171/86 86/172/85
f 87/173/87 73/174/88 74/175/88
f 87/173/87 74/175/88 88/176/87
f 90/177/89 94/178/89 96/179/89
f 90/177/89 96/179/89 92/180/89
f 93/181/90 89/182/90 91/183/90
f 93/181/90 91/183/90 95/184/90
f 92/185/91 96/186/91 95/187/91
f 92/185/91 95/187/91 91/188/91
f 89/189/92 93/190/92 94/191/92
f 89/189/92 94/191/92 90/192/92
f 94/193/93 93/194/93 95/195/93
f 94/193/93 95/195/93 96/196/93
f 89/197/94 90/198/94 92/199/94
f 89/197/94 92/199/94 91/200/94
f 97/201/95 98/202/95 99/203/95
f 97/201/95 99/203/95 100/204/95
