# Wavefront OBJ: SM_StreetTree_Trunk
o SM_StreetTree_Trunk
v 0.000000 0.000000 0.180000
v 0.000000 2.600000 0.180000
v 0.090000 0.000000 0.155885
v 0.090000 2.600000 0.155885
v 0.155885 0.000000 0.090000
v 0.155885 2.600000 0.090000
v 0.180000 0.000000 0.000000
v 0.180000 2.600000 0.000000
v 0.155885 0.000000 -0.090000
v 0.155885 2.600000 -0.090000
v 0.090000 0.000000 -0.155885
v 0.090000 2.600000 -0.155885
v 0.000000 0.000000 -0.180000
v 0.000000 2.600000 -0.180000
v -0.090000 0.000000 -0.155885
v -0.090000 2.600000 -0.155885
v -0.155885 0.000000 -0.090000
v -0.155885 2.600000 -0.090000
v -0.180000 0.000000 -0.000000
v -0.180000 2.600000 -0.000000
v -0.155885 0.000000 0.090000
v -0.155885 2.600000 0.090000
v -0.090000 0.000000 0.155885
v -0.090000 2.600000 0.155885
v 0.229123 0.000000 0.128073
v -0.015894 0.600000 0.078405
v 0.299748 0.026647 0.101575
v 0.054731 0.626647 0.051908
v 0.315641 0.026647 0.023170
v 0.070625 0.626647 -0.026497
v 0.260910 0.000000 -0.028738
v 0.015894 0.600000 -0.078405
v 0.190286 -0.026647 -0.002241
v -0.054731 0.573353 -0.051908
v 0.174392 -0.026647 0.076165
v -0.070625 0.573353 0.026497
v -0.134708 0.000000 0.225286
v -0.077908 0.600000 -0.018176
v -0.110285 0.026647 0.296654
v -0.053484 0.626647 0.053192
v -0.032377 0.026647 0.314830
v 0.024424 0.626647 0.071368
v 0.021107 0.000000 0.261638
v 0.077908 0.600000 0.018176
v -0.003316 -0.026647 0.190270
v 0.053484 0.573353 -0.053192
v -0.081224 -0.026647 0.172094
v -0.024424 0.573353 -0.071368
v -0.221256 0.000000 -0.141229
v 0.020443 0.600000 -0.077344
v -0.293307 0.026647 -0.118900
v -0.051608 0.626647 -0.055014
v -0.313750 0.026647 -0.041556
v -0.072051 0.626647 0.022329
v -0.262143 0.000000 0.013459
v -0.020443 0.600000 0.077344
v -0.190092 -0.026647 -0.008871
v 0.051608 0.573353 0.055014
v -0.169649 -0.026647 -0.086215
v 0.072051 0.573353 -0.022329
v 0.125224 0.000000 -0.230692
v 0.078596 0.600000 0.014921
v 0.097854 0.026647 -0.300983
v 0.051226 0.626647 -0.055370
v 0.019258 0.026647 -0.315904
v -0.027370 0.626647 -0.070291
v -0.031968 0.000000 -0.260534
v -0.078596 0.600000 -0.014921
v -0.004598 -0.026647 -0.190243
v -0.051226 0.573353 0.055370
v 0.073998 -0.026647 -0.175322
v 0.027370 0.573353 0.070291
v 0.044721 2.500000 0.089443
v -0.755279 4.000000 0.489443
v 0.085944 2.536214 0.036085
v -0.714056 4.036214 0.436085
v 0.076822 2.551215 -0.038411
v -0.723178 4.051215 0.361589
v 0.022699 2.536214 -0.090406
v -0.777301 4.036214 0.309594
v -0.044721 2.500000 -0.089443
v -0.844721 4.000000 0.310557
v -0.085944 2.463786 -0.036085
v -0.885944 3.963786 0.363915
v -0.076822 2.448785 0.038411
v -0.876822 3.948785 0.438411
v -0.022699 2.463786 0.090406
v -0.822699 3.963786 0.490406
v -0.058124 2.500000 -0.081373
v 0.641876 4.200000 -0.581373
v -0.092441 2.531926 -0.020868
v 0.607559 4.231926 -0.520868
v -0.072607 2.545150 0.051862
v 0.627393 4.245150 -0.448138
v -0.010241 2.531926 0.094212
v 0.689759 4.231926 -0.405788
v 0.058124 2.500000 0.081373
v 0.758124 4.200000 -0.418627
v 0.092441 2.468074 0.020868
v 0.792441 4.168074 -0.479132
v 0.072607 2.454850 -0.051862
v 0.772607 4.154850 -0.551862
v 0.010241 2.468074 -0.094212
v 0.710241 4.168074 -0.594212
v 0.108503 2.500000 -0.018084
v 0.208503 4.600000 0.581916
v 0.064441 2.521640 -0.086481
v 0.164441 4.621640 0.513519
v -0.017370 2.530604 -0.104219
v 0.082630 4.630604 0.495781
v -0.089006 2.521640 -0.060907
v 0.010994 4.621640 0.539093
v -0.108503 2.500000 0.018084
v -0.008503 4.600000 0.618084
v -0.064441 2.478360 0.086481
v 0.035559 4.578360 0.686481
v 0.017370 2.469396 0.104219
v 0.117370 4.569396 0.704219
v 0.089006 2.478360 0.060907
v 0.189006 4.578360 0.660907
v -0.773167 4.000000 0.453666
v -1.373167 4.800000 0.753666
v -0.750971 4.033387 0.409027
v -1.350971 4.833387 0.709027
v -0.777804 4.033387 0.355361
v -1.377804 4.833387 0.655361
v -0.826833 4.000000 0.346334
v -1.426833 4.800000 0.646334
v -0.849029 3.966613 0.390973
v -1.449029 4.766613 0.690973
v -0.822196 3.966613 0.444639
v -1.422196 4.766613 0.744639
v -0.756588 4.000000 0.375193
v -0.356588 5.000000 1.075193
v -0.795019 4.027178 0.358328
v -0.395019 5.027178 1.058328
v -0.838431 4.027178 0.383135
v -0.438431 5.027178 1.083135
v -0.843412 4.000000 0.424807
v -0.443412 5.000000 1.124807
v -0.804981 3.972822 0.441672
v -0.404981 4.972822 1.141672
v -0.761569 3.972822 0.416865
v -0.361569 4.972822 1.116865
v 0.673167 4.200000 -0.553666
v 1.273167 4.900000 -0.853666
v 0.653028 4.235952 -0.510055
v 1.253028 4.935952 -0.810055
v 0.679861 4.235952 -0.456390
v 1.279861 4.935952 -0.756390
v 0.726833 4.200000 -0.446334
v 1.326833 4.900000 -0.746334
v 0.746972 4.164048 -0.489945
v 1.346972 4.864048 -0.789945
v 0.720139 4.164048 -0.543610
v 1.320139 4.864048 -0.843610
v 0.748076 4.200000 -0.513736
v 0.948076 5.200000 0.186264
v 0.714421 4.225485 -0.540528
v 0.914421 5.225485 0.159472
v 0.666345 4.225485 -0.526792
v 0.866345 5.225485 0.173208
v 0.651924 4.200000 -0.486264
v 0.851924 5.200000 0.213736
v 0.685579 4.174515 -0.459472
v 0.885579 5.174515 0.240528
v 0.733655 4.174515 -0.473208
v 0.933655 5.174515 0.226792
v 0.066718 4.600000 0.649923
v -0.233282 5.500000 0.449923
v 0.123493 4.619324 0.651717
v -0.176507 5.519324 0.451717
v 0.156775 4.619324 0.601794
v -0.143225 5.519324 0.401794
v 0.133282 4.600000 0.550077
v -0.166718 5.500000 0.350077
v 0.076507 4.580676 0.548283
v -0.223493 5.480676 0.348283
v 0.043225 4.580676 0.598206
v -0.256775 5.480676 0.398206
v 0.133282 4.600000 0.550077
v 0.433282 5.600000 0.750077
v 0.075969 4.617624 0.547924
v 0.375969 5.617624 0.747924
v 0.042687 4.617624 0.597847
v 0.342687 5.617624 0.797847
v 0.066718 4.600000 0.649923
v 0.366718 5.600000 0.849923
v 0.124031 4.582376 0.652076
v 0.424031 5.582376 0.852076
v 0.157313 4.582376 0.602153
v 0.457313 5.582376 0.802153
vt 0.000000 0.000000
vt 0.125000 0.000000
vt 0.125000 3.900000
vt 0.000000 3.900000
vt 0.125000 0.000000
vt 0.250000 0.000000
vt 0.250000 3.900000
vt 0.125000 3.900000
vt 0.250000 0.000000
vt 0.375000 0.000000
vt 0.375000 3.900000
vt 0.250000 3.900000
vt 0.375000 0.000000
vt 0.500000 0.000000
vt 0.500000 3.900000
vt 0.375000 3.900000
vt 0.500000 0.000000
vt 0.625000 0.000000
vt 0.625000 3.900000
vt 0.500000 3.900000
vt 0.625000 0.000000
vt 0.750000 0.000000
vt 0.750000 3.900000
vt 0.625000 3.900000
vt 0.750000 0.000000
vt 0.875000 0.000000
vt 0.875000 3.900000
vt 0.750000 3.900000
vt 0.875000 0.000000
vt 1.000000 0.000000
vt 1.000000 3.900000
vt 0.875000 3.900000
vt 1.000000 0.000000
vt 1.125000 0.000000
vt 1.125000 3.900000
vt 1.000000 3.900000
vt 1.125000 0.000000
vt 1.250000 0.000000
vt 1.250000 3.900000
vt 1.125000 3.900000
vt 1.250000 0.000000
vt 1.375000 0.000000
vt 1.375000 3.900000
vt 1.250000 3.900000
vt 1.375000 0.000000
vt 1.500000 0.000000
vt 1.500000 3.900000
vt 1.375000 3.900000
vt 0.000000 0.000000
vt 0.166667 0.000000
vt 0.166667 0.650000
vt 0.000000 0.650000
vt 0.166667 0.000000
vt 0.333333 0.000000
vt 0.333333 0.650000
vt 0.166667 0.650000
vt 0.333333 0.000000
vt 0.500000 0.000000
vt 0.500000 0.650000
vt 0.333333 0.650000
vt 0.500000 0.000000
vt 0.666667 0.000000
vt 0.666667 0.650000
vt 0.500000 0.650000
vt 0.666667 0.000000
vt 0.833333 0.000000
vt 0.833333 0.650000
vt 0.666667 0.650000
vt 0.833333 0.000000
vt 1.000000 0.000000
vt 1.000000 0.650000
vt 0.833333 0.650000
vt 0.000000 0.000000
vt 0.166667 0.000000
vt 0.166667 0.650000
vt 0.000000 0.650000
vt 0.166667 0.000000
vt 0.333333 0.000000
vt 0.333333 0.650000
vt 0.166667 0.650000
vt 0.333333 0.000000
vt 0.500000 0.000000
vt 0.500000 0.650000
vt 0.333333 0.650000
vt 0.500000 0.000000
vt 0.666667 0.000000
vt 0.666667 0.650000
vt 0.500000 0.650000
vt 0.666667 0.000000
vt 0.833333 0.000000
vt 0.833333 0.650000
vt 0.666667 0.650000
vt 0.833333 0.000000
vt 1.000000 0.000000
vt 1.000000 0.650000
vt 0.833333 0.650000
vt 0.000000 0.000000
vt 0.166667 0.000000
vt 0.166667 0.650000
vt 0.000000 0.650000
vt 0.166667 0.000000
vt 0.333333 0.000000
vt 0.333333 0.650000
vt 0.166667 0.650000
vt 0.333333 0.000000
vt 0.500000 0.000000
vt 0.500000 0.650000
vt 0.333333 0.650000
vt 0.500000 0.000000
vt 0.666667 0.000000
vt 0.666667 0.650000
vt 0.500000 0.650000
vt 0.666667 0.000000
vt 0.833333 0.000000
vt 0.833333 0.650000
vt 0.666667 0.650000
vt 0.833333 0.000000
vt 1.000000 0.000000
vt 1.000000 0.650000
vt 0.833333 0.650000
vt 0.000000 0.000000
vt 0.166667 0.000000
vt 0.166667 0.650000
vt 0.000000 0.650000
vt 0.166667 0.000000
vt 0.333333 0.000000
vt 0.333333 0.650000
vt 0.166667 0.650000
vt 0.333333 0.000000
vt 0.500000 0.000000
vt 0.500000 0.650000
vt 0.333333 0.650000
vt 0.500000 0.000000
vt 0.666667 0.000000
vt 0.666667 0.650000
vt 0.500000 0.650000
vt 0.666667 0.000000
vt 0.833333 0.000000
vt 0.833333 0.650000
vt 0.666667 0.650000
vt 0.833333 0.000000
vt 1.000000 0.000000
vt 1.000000 0.650000
vt 0.833333 0.650000
vt 0.000000 0.000000
vt 0.125000 0.000000
vt 0.125000 1.746425
vt 0.000000 1.746425
vt 0.125000 0.000000
vt 0.250000 0.000000
vt 0.250000 1.746425
vt 0.125000 1.746425
vt 0.250000 0.000000
vt 0.375000 0.000000
vt 0.375000 1.746425
vt 0.250000 1.746425
vt 0.375000 0.000000
vt 0.500000 0.000000
vt 0.500000 1.746425
vt 0.375000 1.746425
vt 0.500000 0.000000
vt 0.625000 0.000000
vt 0.625000 1.746425
vt 0.500000 1.746425
vt 0.625000 0.000000
vt 0.750000 0.000000
vt 0.750000 1.746425
vt 0.625000 1.746425
vt 0.750000 0.000000
vt 0.875000 0.000000
vt 0.875000 1.746425
vt 0.750000 1.746425
vt 0.875000 0.000000
vt 1.000000 0.000000
vt 1.000000 1.746425
vt 0.875000 1.746425
vt 0.000000 0.000000
vt 0.125000 0.000000
vt 0.125000 1.905256
vt 0.000000 1.905256
vt 0.125000 0.000000
vt 0.250000 0.000000
vt 0.250000 1.905256
vt 0.125000 1.905256
vt 0.250000 0.000000
vt 0.375000 0.000000
vt 0.375000 1.905256
vt 0.250000 1.905256
vt 0.375000 0.000000
vt 0.500000 0.000000
vt 0.500000 1.905256
vt 0.375000 1.905256
vt 0.500000 0.000000
vt 0.625000 0.000000
vt 0.625000 1.905256
vt 0.500000 1.905256
vt 0.625000 0.000000
vt 0.750000 0.000000
vt 0.750000 1.905256
vt 0.625000 1.905256
vt 0.750000 0.000000
vt 0.875000 0.000000
vt 0.875000 1.905256
vt 0.750000 1.905256
vt 0.875000 0.000000
vt 1.000000 0.000000
vt 1.000000 1.905256
vt 0.875000 1.905256
vt 0.000000 0.000000
vt 0.125000 0.000000
vt 0.125000 2.186321
vt 0.000000 2.186321
vt 0.125000 0.000000
vt 0.250000 0.000000
vt 0.250000 2.186321
vt 0.125000 2.186321
vt 0.250000 0.000000
vt 0.375000 0.000000
vt 0.375000 2.186321
vt 0.250000 2.186321
vt 0.375000 0.000000
vt 0.500000 0.000000
vt 0.500000 2.186321
vt 0.375000 2.186321
vt 0.500000 0.000000
vt 0.625000 0.000000
vt 0.625000 2.186321
vt 0.500000 2.186321
vt 0.625000 0.000000
vt 0.750000 0.000000
vt 0.750000 2.186321
vt 0.625000 2.186321
vt 0.750000 0.000000
vt 0.875000 0.000000
vt 0.875000 2.186321
vt 0.750000 2.186321
vt 0.875000 0.000000
vt 1.000000 0.000000
vt 1.000000 2.186321
vt 0.875000 2.186321
vt 0.000000 0.000000
vt 0.166667 0.000000
vt 0.166667 1.044031
vt 0.000000 1.044031
vt 0.166667 0.000000
vt 0.333333 0.000000
vt 0.333333 1.044031
vt 0.166667 1.044031
vt 0.333333 0.000000
vt 0.500000 0.000000
vt 0.500000 1.044031
vt 0.333333 1.044031
vt 0.500000 0.000000
vt 0.666667 0.000000
vt 0.666667 1.044031
vt 0.500000 1.044031
vt 0.666667 0.000000
vt 0.833333 0.000000
vt 0.833333 1.044031
vt 0.666667 1.044031
vt 0.833333 0.000000
vt 1.000000 0.000000
vt 1.000000 1.044031
vt 0.833333 1.044031
vt 0.000000 0.000000
vt 0.166667 0.000000
vt 0.166667 1.284523
vt 0.000000 1.284523
vt 0.166667 0.000000
vt 0.333333 0.000000
vt 0.333333 1.284523
vt 0.166667 1.284523
vt 0.333333 0.000000
vt 0.500000 0.000000
vt 0.500000 1.284523
vt 0.333333 1.284523
vt 0.500000 0.000000
vt 0.666667 0.000000
vt 0.666667 1.284523
vt 0.500000 1.284523
vt 0.666667 0.000000
vt 0.833333 0.000000
vt 0.833333 1.284523
vt 0.666667 1.284523
vt 0.833333 0.000000
vt 1.000000 0.000000
vt 1.000000 1.284523
vt 0.833333 1.284523
vt 0.000000 0.000000
vt 0.166667 0.000000
vt 0.166667 0.969536
vt 0.000000 0.969536
vt 0.166667 0.000000
vt 0.333333 0.000000
vt 0.333333 0.969536
vt 0.166667 0.969536
vt 0.333333 0.000000
vt 0.500000 0.000000
vt 0.500000 0.969536
vt 0.333333 0.969536
vt 0.500000 0.000000
vt 0.666667 0.000000
vt 0.666667 0.969536
vt 0.500000 0.969536
vt 0.666667 0.000000
vt 0.833333 0.000000
vt 0.833333 0.969536
vt 0.666667 0.969536
vt 0.833333 0.000000
vt 1.000000 0.000000
vt 1.000000 0.969536
vt 0.833333 0.969536
vt 0.000000 0.000000
vt 0.166667 0.000000
vt 0.166667 1.236932
vt 0.000000 1.236932
vt 0.166667 0.000000
vt 0.333333 0.000000
vt 0.333333 1.236932
vt 0.166667 1.236932
vt 0.333333 0.000000
vt 0.500000 0.000000
vt 0.500000 1.236932
vt 0.333333 1.236932
vt 0.500000 0.000000
vt 0.666667 0.000000
vt 0.666667 1.236932
vt 0.500000 1.236932
vt 0.666667 0.000000
vt 0.833333 0.000000
vt 0.833333 1.236932
vt 0.666667 1.236932
vt 0.833333 0.000000
vt 1.000000 0.000000
vt 1.000000 1.236932
vt 0.833333 1.236932
vt 0.000000 0.000000
vt 0.166667 0.000000
vt 0.166667 0.969536
vt 0.000000 0.969536
vt 0.166667 0.000000
vt 0.333333 0.000000
vt 0.333333 0.969536
vt 0.166667 0.969536
vt 0.333333 0.000000
vt 0.500000 0.000000
vt 0.500000 0.969536
vt 0.333333 0.969536
vt 0.500000 0.000000
vt 0.666667 0.000000
vt 0.666667 0.969536
vt 0.500000 0.969536
vt 0.666667 0.000000
vt 0.833333 0.000000
vt 0.833333 0.969536
vt 0.666667 0.969536
vt 0.833333 0.000000
vt 1.000000 0.000000
vt 1.000000 0.969536
vt 0.833333 0.969536
vt 0.000000 0.000000
vt 0.166667 0.000000
vt 0.166667 1.063015
vt 0.000000 1.063015
vt 0.166667 0.000000
vt 0.333333 0.000000
vt 0.333333 1.063015
vt 0.166667 1.063015
vt 0.333333 0.000000
vt 0.500000 0.000000
vt 0.500000 1.063015
vt 0.333333 1.063015
vt 0.500000 0.000000
vt 0.666667 0.000000
vt 0.666667 1.063015
vt 0.500000 1.063015
vt 0.666667 0.000000
vt 0.833333 0.000000
vt 0.833333 1.063015
vt 0.666667 1.063015
vt 0.833333 0.000000
vt 1.000000 0.000000
vt 1.000000 1.063015
vt 0.833333 1.063015
vn 0.000000 0.000000 1.000000
vn 0.500000 0.000000 0.866025
vn 0.500000 0.000000 0.866025
vn 0.866025 0.000000 0.500000
vn 0.866025 0.000000 0.500000
vn 1.000000 0.000000 0.000000
vn 1.000000 0.000000 0.000000
vn 0.866025 0.000000 -0.500000
vn 0.866025 0.000000 -0.500000
vn 0.500000 0.000000 -0.866025
vn 0.500000 0.000000 -0.866025
vn 0.000000 0.000000 -1.000000
vn 0.000000 0.000000 -1.000000
vn -0.500000 -0.000000 -0.866025
vn -0.500000 -0.000000 -0.866025
vn -0.866025 -0.000000 -0.500000
vn -0.866025 -0.000000 -0.500000
vn -1.000000 -0.000000 -0.000000
vn -1.000000 -0.000000 -0.000000
vn -0.866025 0.000000 0.500000
vn -0.866025 0.000000 0.500000
vn -0.500000 0.000000 0.866025
vn -0.500000 0.000000 0.866025
vn 0.000000 0.000000 1.000000
vn -0.198669 0.000000 0.980067
vn 0.684138 0.333087 0.648851
vn 0.684138 0.333087 0.648851
vn 0.882808 0.333087 -0.331215
vn 0.882808 0.333087 -0.331215
vn 0.198669 0.000000 -0.980067
vn 0.198669 0.000000 -0.980067
vn -0.684138 -0.333087 -0.648851
vn -0.684138 -0.333087 -0.648851
vn -0.882808 -0.333087 0.331215
vn -0.882808 -0.333087 0.331215
vn -0.198669 0.000000 0.980067
vn -0.973848 0.000000 -0.227202
vn -0.668551 0.333087 0.664901
vn -0.668551 0.333087 0.664901
vn 0.305297 0.333087 0.892103
vn 0.305297 0.333087 0.892103
vn 0.973848 0.000000 0.227202
vn 0.973848 0.000000 0.227202
vn 0.668551 -0.333087 -0.664901
vn 0.668551 -0.333087 -0.664901
vn -0.305297 -0.333087 -0.892103
vn -0.305297 -0.333087 -0.892103
vn -0.973848 0.000000 -0.227202
vn 0.255541 0.000000 -0.966798
vn -0.645096 0.333087 -0.687681
vn -0.645096 0.333087 -0.687681
vn -0.900637 0.333087 0.279117
vn -0.900637 0.333087 0.279117
vn -0.255541 0.000000 0.966798
vn -0.255541 0.000000 0.966798
vn 0.645096 -0.333087 0.687681
vn 0.645096 -0.333087 0.687681
vn 0.900637 -0.333087 -0.279117
vn 0.900637 -0.333087 -0.279117
vn 0.255541 0.000000 -0.966798
vn 0.982453 0.000000 0.186512
vn 0.640326 0.333087 -0.692124
vn 0.640326 0.333087 -0.692124
vn -0.342127 0.333087 -0.878637
vn -0.342127 0.333087 -0.878637
vn -0.982453 0.000000 -0.186512
vn -0.982453 0.000000 -0.186512
vn -0.640326 -0.333087 0.692124
vn -0.640326 -0.333087 0.692124
vn 0.342127 -0.333087 0.878637
vn 0.342127 -0.333087 0.878637
vn 0.982453 0.000000 0.186512
vn 0.447214 0.000000 0.894427
vn 0.859442 0.362143 0.360848
vn 0.859442 0.362143 0.360848
vn 0.768221 0.512148 -0.384111
vn 0.768221 0.512148 -0.384111
vn 0.226987 0.362143 -0.904063
vn 0.226987 0.362143 -0.904063
vn -0.447214 0.000000 -0.894427
vn -0.447214 0.000000 -0.894427
vn -0.859442 -0.362143 -0.360848
vn -0.859442 -0.362143 -0.360848
vn -0.768221 -0.512148 0.384111
vn -0.768221 -0.512148 0.384111
vn -0.226987 -0.362143 0.904063
vn -0.226987 -0.362143 0.904063
vn 0.447214 0.000000 0.894427
vn -0.581238 0.000000 -0.813733
vn -0.924406 0.319262 -0.208676
vn -0.924406 0.319262 -0.208676
vn -0.726069 0.451505 0.518621
vn -0.726069 0.451505 0.518621
vn -0.102411 0.319262 0.942117
vn -0.102411 0.319262 0.942117
vn 0.581238 0.000000 0.813733
vn 0.581238 0.000000 0.813733
vn 0.924406 -0.319262 0.208676
vn 0.924406 -0.319262 0.208676
vn 0.726069 -0.451505 -0.518621
vn 0.726069 -0.451505 -0.518621
vn 0.102411 -0.319262 -0.942117
vn 0.102411 -0.319262 -0.942117
vn -0.581238 0.000000 -0.813733
vn 0.986394 0.000000 -0.164399
vn 0.585828 0.196731 -0.786195
vn 0.585828 0.196731 -0.786195
vn -0.157908 0.278219 -0.947449
vn -0.157908 0.278219 -0.947449
vn -0.809144 0.196731 -0.553700
vn -0.809144 0.196731 -0.553700
vn -0.986394 0.000000 0.164399
vn -0.986394 0.000000 0.164399
vn -0.585828 -0.196731 0.786195
vn -0.585828 -0.196731 0.786195
vn 0.157908 -0.278219 0.947449
vn 0.157908 -0.278219 0.947449
vn 0.809144 -0.196731 0.553700
vn 0.809144 -0.196731 0.553700
vn 0.986394 0.000000 -0.164399
vn 0.447214 0.000000 0.894427
vn 0.817150 0.556447 0.150442
vn 0.817150 0.556447 0.150442
vn 0.369936 0.556447 -0.743985
vn 0.369936 0.556447 -0.743985
vn -0.447214 0.000000 -0.894427
vn -0.447214 0.000000 -0.894427
vn -0.817150 -0.556447 -0.150442
vn -0.817150 -0.556447 -0.150442
vn -0.369936 -0.556447 0.743985
vn -0.369936 -0.556447 0.743985
vn 0.447214 0.000000 0.894427
vn 0.868243 0.000000 -0.496139
vn 0.099625 0.543557 -0.833439
vn 0.099625 0.543557 -0.833439
vn -0.768618 0.543557 -0.337300
vn -0.768618 0.543557 -0.337300
vn -0.868243 0.000000 0.496139
vn -0.868243 0.000000 0.496139
vn -0.099625 -0.543557 0.833439
vn -0.099625 -0.543557 0.833439
vn 0.768618 -0.543557 0.337300
vn 0.768618 -0.543557 0.337300
vn 0.868243 0.000000 -0.496139
vn -0.447214 0.000000 -0.894427
vn -0.782862 0.599202 -0.167586
vn -0.782862 0.599202 -0.167586
vn -0.335648 0.599202 0.726841
vn -0.335648 0.599202 0.726841
vn 0.447214 0.000000 0.894427
vn 0.447214 0.000000 0.894427
vn 0.782862 -0.599202 0.167586
vn 0.782862 -0.599202 0.167586
vn 0.335648 -0.599202 -0.726841
vn 0.335648 -0.599202 -0.726841
vn -0.447214 0.000000 -0.894427
vn 0.961524 0.000000 -0.274721
vn 0.288419 0.509710 -0.810562
vn 0.288419 0.509710 -0.810562
vn -0.673105 0.509710 -0.535841
vn -0.673105 0.509710 -0.535841
vn -0.961524 0.000000 0.274721
vn -0.961524 0.000000 0.274721
vn -0.288419 -0.509710 0.810562
vn -0.288419 -0.509710 0.810562
vn 0.673105 -0.509710 0.535841
vn 0.673105 -0.509710 0.535841
vn 0.961524 0.000000 -0.274721
vn -0.554700 0.000000 0.832050
vn 0.391546 0.322061 0.861956
vn 0.391546 0.322061 0.861956
vn 0.946246 0.322061 0.029906
vn 0.946246 0.322061 0.029906
vn 0.554700 0.000000 -0.832050
vn 0.554700 0.000000 -0.832050
vn -0.391546 -0.322061 -0.861956
vn -0.391546 -0.322061 -0.861956
vn -0.946246 -0.322061 -0.029906
vn -0.946246 -0.322061 -0.029906
vn -0.554700 0.000000 0.832050
vn 0.554700 0.000000 -0.832050
vn -0.400511 0.293740 -0.867933
vn -0.400511 0.293740 -0.867933
vn -0.955212 0.293740 -0.035883
vn -0.955212 0.293740 -0.035883
vn -0.554700 0.000000 0.832050
vn -0.554700 0.000000 0.832050
vn 0.400511 -0.293740 0.867933
vn 0.400511 -0.293740 0.867933
vn 0.955212 -0.293740 0.035883
vn 0.955212 -0.293740 0.035883
vn 0.554700 0.000000 -0.832050
s 1
f 1/1/1 3/2/2 4/3/2
f 1/1/1 4/3/2 2/4/1
f 3/5/3 5/6/4 6/7/4
f 3/5/3 6/7/4 4/8/3
f 5/9/5 7/10/6 8/11/6
f 5/9/5 8/11/6 6/12/5
f 7/13/7 9/14/8 10/15/8
f 7/13/7 10/15/8 8/16/7
f 9/17/9 11/18/10 12/19/10
f 9/17/9 12/19/10 10/20/9
f 11/21/11 13/22/12 14/23/12
f 11/21/11 14/23/12 12/24/11
f 13/25/13 15/26/14 16/27/14
f 13/25/13 16/27/14 14/28/13
f 15/29/15 17/30/16 18/31/16
f 15/29/15 18/31/16 16/32/15
f 17/33/17 19/34/18 20/35/18
f 17/33/17 20/35/18 18/36/17
f 19/37/19 21/38/20 22/39/20
f 19/37/19 22/39/20 20/40/19
f 21/41/21 23/42/22 24/43/22
f 21/41/21 24/43/22 22/44/21
f 23/45/23 1/46/24 2/47/24
f 23/45/23 2/47/24 24/48/23
f 25/49/25 27/50/26 28/51/26
f 25/49/25 28/51/26 26/52/25
f 27/53/27 29/54/28 30/55/28
f 27/53/27 30/55/28 28/56/27
f 29/57/29 31/58/30 32/59/30
f 29/57/29 32/59/30 30/60/29
f 31/61/31 33/62/32 34/63/32
f 31/61/31 34/63/32 32/64/31
f 33/65/33 35/66/34 36/67/34
f 33/65/33 36/67/34 34/68/33
f 35/69/35 25/70/36 26/71/36
f 35/69/35 26/71/36 36/72/35
f 37/73/37 39/74/38 40/75/38
f 37/73/37 40/75/38 38/76/37
f 39/77/39 41/78/40 42/79/40
f 39/77/39 42/79/40 40/80/39
f 41/81/41 43/82/42 44/83/42
f 41/81/41 44/83/42 42/84/41
f 43/85/43 45/86/44 46/87/44
f 43/85/43 46/87/44 44/88/43
f 45/89/45 47/90/46 48/91/46
f 45/89/45 48/91/46 46/92/45
f 47/93/47 37/94/48 38/95/48
f 47/93/47 38/95/48 48/96/47
f 49/97/49 51/98/50 52/99/50
f 49/97/49 52/99/50 50/100/49
f 51/101/51 53/102/52 54/103/52
f 51/101/51 54/103/52 52/104/51
f 53/105/53 55/106/54 56/107/54
f 53/105/53 56/107/54 54/108/53
f 55/109/55 57/110/56 58/111/56
f 55/109/55 58/111/56 56/112/55
f 57/113/57 59/114/58 60/115/58
f 57/113/57 60/115/58 58/116/57
f 59/117/59 49/118/60 50/119/60
f 59/117/59 50/119/60 60/120/59
f 61/121/61 63/122/62 64/123/62
f 61/121/61 64/123/62 62/124/61
f 63/125/63 65/126/64 66/127/64
f 63/125/63 66/127/64 64/128/63
f 65/129/65 67/130/66 68/131/66
f 65/129/65 68/131/66 66/132/65
f 67/133/67 69/134/68 70/135/68
f 67/133/67 70/135/68 68/136/67
f 69/137/69 71/138/70 72/139/70
f 69/137/69 72/139/70 70/140/69
f 71/141/71 61/142/72 62/143/72
f 71/141/71 62/143/72 72/144/71
f 73/145/73 75/146/74 76/147/74
f 73/145/73 76/147/74 74/148/73
f 75/149/75 77/150/76 78/151/76
f 75/149/75 78/151/76 76/152/75
f 77/153/77 79/154/78 80/155/78
f 77/153/77 80/155/78 78/156/77
f 79/157/79 81/158/80 82/159/80
f 79/157/79 82/159/80 80/160/79
f 81/161/81 83/162/82 84/163/82
f 81/161/81 84/163/82 82/164/81
f 83/165/83 85/166/84 86/167/84
f 83/165/83 86/167/84 84/168/83
f 85/169/85 87/170/86 88/171/86
f 85/169/85 88/171/86 86/172/85
f 87/173/87 73/174/88 74/175/88
f 87/173/87 74/175/88 88/176/87
f 89/177/89 91/178/90 92/179/90
f 89/177/89 92/179/90 90/180/89
f 91/181/91 93/182/92 94/183/92
f 91/181/91 94/183/92 92/184/91
f 93/185/93 95/186/94 96/187/94
f 93/185/93 96/187/94 94/188/93
f 95/189/95 97/190/96 98/191/96
f 95/189/95 98/191/96 96/192/95
f 97/193/97 99/194/98 100/195/98
f 97/193/97 100/195/98 98/196/97
f 99/197/99 101/198/100 102/199/100
f 99/197/99 102/199/100 100/200/99
f 101/201/101 103/202/102 104/203/102
f 101/201/101 104/203/102 102/204/101
f 103/205/103 89/206/104 90/207/104
f 103/205/103 90/207/104 104/208/103
f 105/209/105 107/210/106 108/211/106
f 105/209/105 108/211/106 106/212/105
f 107/213/107 109/214/108 110/215/108
f 107/213/107 110/215/108 108/216/107
f 109/217/109 111/218/110 112/219/110
f 109/217/109 112/219/110 110/220/109
f 111/221/111 113/222/112 114/223/112
f 111/221/111 114/223/112 112/224/111
f 113/225/113 115/226/114 116/227/114
f 113/225/113 116/227/114 114/228/113
f 115/229/115 117/230/116 118/231/116
f 115/229/115 118/231/116 116/232/115
f 117/233/117 119/234/118 120/235/118
f 117/233/117 120/235/118 118/236/117
f 119/237/119 105/238/120 106/239/120
f 119/237/119 106/239/120 120/240/119
f 121/241/121 123/242/122 124/243/122
f 121/241/121 124/243/122 122/244/121
f 123/245/123 125/246/124 126/247/124
f 123/245/123 126/247/124 124/248/123
f 125/249/125 127/250/126 128/251/126
f 125/249/125 128/251/126 126/252/125
f 127/253/127 129/254/128 130/255/128
f 127/253/127 130/255/128 128/256/127
f 129/257/129 131/258/130 132/259/130
f 129/257/129 132/259/130 130/260/129
f 131/261/131 121/262/132 122/263/132
f 131/261/131 122/263/132 132/264/131
f 133/265/133 135/266/134 136/267/134
f 133/265/133 136/267/134 134/268/133
f 135/269/135 137/270/136 138/271/136
f 135/269/135 138/271/136 136/272/135
f 137/273/137 139/274/138 140/275/138
f 137/273/137 140/275/138 138/276/137
f 139/277/139 141/278/140 142/279/140
f 139/277/139 142/279/140 140/280/139
f 141/281/141 143/282/142 144/283/142
f 141/281/141 144/283/142 142/284/141
f 143/285/143 133/286/144 134/287/144
f 143/285/143 134/287/144 144/288/143
f 145/289/145 147/290/146 148/291/146
f 145/289/145 148/291/146 146/292/145
f 147/293/147 149/294/148 150/295/148
f 147/293/147 150/295/148 148/296/147
f 149/297/149 151/298/150 152/299/150
f 149/297/149 152/299/150 150/300/149
f 151/301/151 153/302/152 154/303/152
f 151/301/151 154/303/152 152/304/151
f 153/305/153 155/306/154 156/307/154
f 153/305/153 156/307/154 154/308/153
f 155/309/155 145/310/156 146/311/156
f 155/309/155 146/311/156 156/312/155
f 157/313/157 159/314/158 160/315/158
f 157/313/157 160/315/158 158/316/157
f 159/317/159 161/318/160 162/319/160
f 159/317/159 162/319/160 160/320/159
f 161/321/161 163/322/162 164/323/162
f 161/321/161 164/323/162 162/324/161
f 163/325/163 165/326/164 166/327/164
f 163/325/163 166/327/164 164/328/163
f 165/329/165 167/330/166 168/331/166
f 165/329/165 168/331/166 166/332/165
f 167/333/167 157/334/168 158/335/168
f 167/333/167 158/335/168 168/336/167
f 169/337/169 171/338/170 172/339/170
f 169/337/169 172/339/170 170/340/169
f 171/341/171 173/342/172 174/343/172
f 171/341/171 174/343/172 172/344/171
f 173/345/173 175/346/174 176/347/174
f 173/345/173 176/347/174 174/348/173
f 175/349/175 177/350/176 178/351/176
f 175/349/175 178/351/176 176/352/175
f 177/353/177 179/354/178 180/355/178
f 177/353/177 180/355/178 178/356/177
f 179/357/179 169/358/180 170/359/180
f 179/357/179 170/359/180 180/360/179
f 181/361/181 183/362/182 184/363/182
f 181/361/181 184/363/182 182/364/181
f 183/365/183 185/366/184 186/367/184
f 183/365/183 186/367/184 184/368/183
f 185/369/185 187/370/186 188/371/186
f 185/369/185 188/371/186 186/372/185
f 187/373/187 189/374/188 190/375/188
f 187/373/187 190/375/188 188/376/187
f 189/377/189 191/378/190 192/379/190
f 189/377/189 192/379/190 190/380/189
f 191/381/191 181/382/192 182/383/192
f 191/381/191 182/383/192 192/384/191
