# Wavefront OBJ: SM_Shopfront_B
o SM_Shopfront_B
v -2.500000 0.000000 0.000000
v -2.500000 0.000000 4.500000
v -2.500000 14.000000 0.000000
v -2.500000 14.000000 4.500000
v -2.250000 0.000000 0.000000
v -2.250000 0.000000 4.500000
v -2.250000 14.000000 0.000000
v -2.250000 14.000000 4.500000
v 2.250000 0.000000 0.000000
v 2.250000 0.000000 4.500000
v 2.250000 14.000000 0.000000
v 2.250000 14.000000 4.500000
v 2.500000 0.000000 0.000000
v 2.500000 0.000000 4.500000
v 2.500000 14.000000 0.000000
v 2.500000 14.000000 4.500000
v -2.500000 0.000000 4.250000
v -2.500000 0.000000 4.500000
v -2.500000 14.000000 4.250000
v -2.500000 14.000000 4.500000
v 2.500000 0.000000 4.250000
v 2.500000 0.000000 4.500000
v 2.500000 14.000000 4.250000
v 2.500000 14.000000 4.500000
v -2.500000 13.700000 0.000000
v -2.500000 13.700000 4.500000
v -2.500000 14.000000 0.000000
v -2.500000 14.000000 4.500000
v 2.500000 13.700000 0.000000
v 2.500000 13.700000 4.500000
v 2.500000 14.000000 0.000000
v 2.500000 14.000000 4.500000
v -2.500000 3.600000 0.000000
v 2.500000 3.600000 0.000000
v 2.500000 14.000000 0.000000
v -2.500000 14.000000 0.000000
v -2.200000 0.000000 0.500000
v 2.200000 0.000000 0.500000
v 2.200000 3.600000 0.500000
v -2.200000 3.600000 0.500000
v -2.500000 0.000000 0.000000
v -2.500000 0.000000 0.500000
v -2.500000 3.600000 0.000000
v -2.500000 3.600000 0.500000
v -2.200000 0.000000 0.000000
v -2.200000 0.000000 0.500000
v -2.200000 3.600000 0.000000
v -2.200000 3.600000 0.500000
v 2.200000 0.000000 0.000000
v 2.200000 0.000000 0.500000
v 2.200000 3.600000 0.000000
v 2.200000 3.600000 0.500000
v 2.500000 0.000000 0.000000
v 2.500000 0.000000 0.500000
v 2.500000 3.600000 0.000000
v 2.500000 3.600000 0.500000
v -2.400000 3.500000 -0.200000
v -2.400000 3.500000 0.000000
v -2.400000 4.600000 -0.200000
v -2.400000 4.600000 0.000000
v 2.400000 3.500000 -0.200000
v 2.400000 3.500000 0.000000
v 2.400000 4.600000 -0.200000
v 2.400000 4.600000 0.000000
v -1.800000 5.000000 -0.450000
v -1.800000 5.000000 0.000000
v -1.800000 10.500000 -0.450000
v -1.800000 10.500000 0.000000
v 1.800000 5.000000 -0.450000
v 1.800000 5.000000 0.000000
v 1.800000 10.500000 -0.450000
v 1.800000 10.500000 0.000000
v -2.500000 14.000000 -0.100000
v -2.500000 14.000000 0.100000
v -2.500000 14.800000 -0.100000
v -2.500000 14.800000 0.100000
v 2.500000 14.000000 -0.100000
v 2.500000 14.000000 0.100000
v 2.500000 14.800000 -0.100000
v 2.500000 14.800000 0.100000
v 1.050000 14.800000 1.200000
v 1.050000 14.800000 2.800000
v 0.976314 15.075000 1.200000
v 0.976314 15.075000 2.800000
v 0.775000 15.276314 1.200000
v 0.775000 15.276314 2.800000
v 0.500000 15.350000 1.200000
v 0.500000 15.350000 2.800000
v 0.225000 15.276314 1.200000
v 0.225000 15.276314 2.800000
v 0.023686 15.075000 1.200000
v 0.023686 15.075000 2.800000
v -0.050000 14.800000 1.200000
v -0.050000 14.800000 2.800000
v 0.023686 14.525000 1.200000
v 0.023686 14.525000 2.800000
v 0.225000 14.323686 1.200000
v 0.225000 14.323686 2.800000
v 0.500000 14.250000 1.200000
v 0.500000 14.250000 2.800000
v 0.775000 14.323686 1.200000
v 0.775000 14.323686 2.800000
v 0.976314 14.525000 1.200000
v 0.976314 14.525000 2.800000
v 0.100000 14.000000 1.300000
v 0.100000 14.000000 1.500000
v 0.100000 14.300000 1.300000
v 0.100000 14.300000 1.500000
v 0.900000 14.000000 1.300000
v 0.900000 14.000000 1.500000
v 0.900000 14.300000 1.300000
v 0.900000 14.300000 1.500000
v 0.100000 14.000000 2.500000
v 0.100000 14.000000 2.700000
v 0.100000 14.300000 2.500000
v 0.100000 14.300000 2.700000
v 0.900000 14.000000 2.500000
v 0.900000 14.000000 2.700000
v 0.900000 14.300000 2.500000
v 0.900000 14.300000 2.700000
vt 0.000000 0.000000
vt 0.125000 0.000000
vt 0.125000 7.000000
vt 0.000000 7.000000
vt 0.000000 0.000000
vt 0.125000 0.000000
vt 0.125000 7.000000
vt 0.000000 7.000000
vt 0.000000 0.000000
vt 0.125000 0.000000
vt 0.125000 2.250000
vt 0.000000 2.250000
vt 0.000000 0.000000
vt 0.125000 0.000000
vt 0.125000 2.250000
vt 0.000000 2.250000
vt 0.000000 0.000000
vt 2.250000 0.000000
vt 2.250000 7.000000
vt 0.000000 7.000000
vt 0.000000 0.000000
vt 2.250000 0.000000
vt 2.250000 7.000000
vt 0.000000 7.000000
vt 0.000000 0.000000
vt 0.125000 0.000000
vt 0.125000 7.000000
vt 0.000000 7.000000
vt 0.000000 0.000000
vt 0.125000 0.000000
vt 0.125000 7.000000
vt 0.000000 7.000000
vt 0.000000 0.000000
vt 0.125000 0.000000
vt 0.125000 2.250000
vt 0.000000 2.250000
vt 0.000000 0.000000
vt 0.125000 0.000000
vt 0.125000 2.250000
vt 0.000000 2.250000
vt 0.000000 0.000000
vt 2.250000 0.000000
vt 2.250000 7.000000
vt 0.000000 7.000000
vt 0.000000 0.000000
vt 2.250000 0.000000
vt 2.250000 7.000000
vt 0.000000 7.000000
vt 0.000000 0.000000
vt 2.500000 0.000000
vt 2.500000 7.000000
vt 0.000000 7.000000
vt 0.000000 0.000000
vt 2.500000 0.000000
vt 2.500000 7.000000
vt 0.000000 7.000000
vt 0.000000 0.000000
vt 2.500000 0.000000
vt 2.500000 0.125000
vt 0.000000 0.125000
vt 0.000000 0.000000
vt 2.500000 0.000000
vt 2.500000 0.125000
vt 0.000000 0.125000
vt 0.000000 0.000000
vt 0.125000 0.000000
vt 0.125000 7.000000
vt 0.000000 7.000000
vt 0.000000 0.000000
vt 0.125000 0.000000
vt 0.125000 7.000000
vt 0.000000 7.000000
vt 0.000000 0.000000
vt 2.500000 0.000000
vt 2.500000 0.150000
vt 0.000000 0.150000
vt 0.000000 0.000000
vt 2.500000 0.000000
vt 2.500000 0.150000
vt 0.000000 0.150000
vt 0.000000 0.000000
vt 2.500000 0.000000
vt 2.500000 2.250000
vt 0.000000 2.250000
vt 0.000000 0.000000
vt 2.500000 0.000000
vt 2.500000 2.250000
vt 0.000000 2.250000
vt 0.000000 0.000000
vt 2.250000 0.000000
vt 2.250000 0.150000
vt 0.000000 0.150000
vt 0.000000 0.000000
vt 2.250000 0.000000
vt 2.250000 0.150000
vt 0.000000 0.150000
vt 1.000000 0.257143
vt 0.000000 0.257143
vt 0.000000 1.000000
vt 1.000000 1.000000
vt 0.940000 0.000000
vt 0.060000 0.000000
vt 0.060000 0.257143
vt 0.940000 0.257143
vt 0.000000 0.000000
vt 0.150000 0.000000
vt 0.150000 1.800000
vt 0.000000 1.800000
vt 0.000000 0.000000
vt 0.150000 0.000000
vt 0.150000 1.800000
vt 0.000000 1.800000
vt 0.000000 0.000000
vt 0.150000 0.000000
vt 0.150000 0.250000
vt 0.000000 0.250000
vt 0.000000 0.000000
vt 0.150000 0.000000
vt 0.150000 0.250000
vt 0.000000 0.250000
vt 0.000000 0.000000
vt 0.250000 0.000000
vt 0.250000 1.800000
vt 0.000000 1.800000
vt 0.000000 0.000000
vt 0.250000 0.000000
vt 0.250000 1.800000
vt 0.000000 1.800000
vt 0.000000 0.000000
vt 0.150000 0.000000
vt 0.150000 1.800000
vt 0.000000 1.800000
vt 0.000000 0.000000
vt 0.150000 0.000000
vt 0.150000 1.800000
vt 0.000000 1.800000
vt 0.000000 0.000000
vt 0.150000 0.000000
vt 0.150000 0.250000
vt 0.000000 0.250000
vt 0.000000 0.000000
vt 0.150000 0.000000
vt 0.150000 0.250000
vt 0.000000 0.250000
vt 0.000000 0.000000
vt 0.250000 0.000000
vt 0.250000 1.800000
vt 0.000000 1.800000
vt 0.000000 0.000000
vt 0.250000 0.000000
vt 0.250000 1.800000
vt 0.000000 1.800000
vt 0.000000 0.000000
vt 4.800000 0.000000
vt 4.800000 1.100000
vt 0.000000 1.100000
vt 0.000000 0.000000
vt 4.800000 0.000000
vt 4.800000 1.100000
vt 0.000000 1.100000
vt 0.000000 0.000000
vt 4.800000 0.000000
vt 4.800000 0.200000
vt 0.000000 0.200000
vt 0.000000 0.000000
vt 4.800000 0.000000
vt 4.800000 0.200000
vt 0.000000 0.200000
vt 0.000000 0.000000
vt 0.200000 0.000000
vt 0.200000 1.100000
vt 0.000000 1.100000
vt 0.000000 0.000000
vt 0.200000 0.000000
vt 0.200000 1.100000
vt 0.000000 1.100000
vt 0.000000 0.000000
vt 3.600000 0.000000
vt 3.600000 5.500000
vt 0.000000 5.500000
vt 0.000000 0.000000
vt 3.600000 0.000000
vt 3.600000 5.500000
vt 0.000000 5.500000
vt 0.000000 0.000000
vt 3.600000 0.000000
vt 3.600000 0.450000
vt 0.000000 0.450000
vt 0.000000 0.000000
vt 3.600000 0.000000
vt 3.600000 0.450000
vt 0.000000 0.450000
vt 0.000000 0.000000
vt 0.450000 0.000000
vt 0.450000 5.500000
vt 0.000000 5.500000
vt 0.000000 0.000000
vt 0.450000 0.000000
vt 0.450000 5.500000
vt 0.000000 5.500000
vt 0.000000 0.000000
vt 5.000000 0.000000
vt 5.000000 0.800000
vt 0.000000 0.800000
vt 0.000000 0.000000
vt 5.000000 0.000000
vt 5.000000 0.800000
vt 0.000000 0.800000
vt 0.000000 0.000000
vt 5.000000 0.000000
vt 5.000000 0.200000
vt 0.000000 0.200000
vt 0.000000 0.000000
vt 5.000000 0.000000
vt 5.000000 0.200000
vt 0.000000 0.200000
vt 0.000000 0.000000
vt 0.200000 0.000000
vt 0.200000 0.800000
vt 0.000000 0.800000
vt 0.000000 0.000000
vt 0.200000 0.000000
vt 0.200000 0.800000
vt 0.000000 0.800000
vt 0.000000 0.000000
vt 0.083333 0.000000
vt 0.083333 1.600000
vt 0.000000 1.600000
vt 0.083333 0.000000
vt 0.166667 0.000000
vt 0.166667 1.600000
vt 0.083333 1.600000
vt 0.166667 0.000000
vt 0.250000 0.000000
vt 0.250000 1.600000
vt 0.166667 1.600000
vt 0.250000 0.000000
vt 0.333333 0.000000
vt 0.333333 1.600000
vt 0.250000 1.600000
vt 0.333333 0.000000
vt 0.416667 0.000000
vt 0.416667 1.600000
vt 0.333333 1.600000
vt 0.416667 0.000000
vt 0.500000 0.000000
vt 0.500000 1.600000
vt 0.416667 1.600000
vt 0.500000 0.000000
vt 0.583333 0.000000
vt 0.583333 1.600000
vt 0.500000 1.600000
vt 0.583333 0.000000
vt 0.666667 0.000000
vt 0.666667 1.600000
vt 0.583333 1.600000
vt 0.666667 0.000000
vt 0.750000 0.000000
vt 0.750000 1.600000
vt 0.666667 1.600000
vt 0.750000 0.000000
vt 0.833333 0.000000
vt 0.833333 1.600000
vt 0.750000 1.600000
vt 0.833333 0.000000
vt 0.916667 0.000000
vt 0.916667 1.600000
vt 0.833333 1.600000
vt 0.916667 0.000000
vt 1.000000 0.000000
vt 1.000000 1.600000
vt 0.916667 1.600000
vt 0.000000 0.000000
vt 0.800000 0.000000
vt 0.800000 0.300000
vt 0.000000 0.300000
vt 0.000000 0.000000
vt 0.800000 0.000000
vt 0.800000 0.300000
vt 0.000000 0.300000
vt 0.000000 0.000000
vt 0.800000 0.000000
vt 0.800000 0.200000
vt 0.000000 0.200000
vt 0.000000 0.000000
vt 0.800000 0.000000
vt 0.800000 0.200000
vt 0.000000 0.200000
vt 0.000000 0.000000
vt 0.200000 0.000000
vt 0.200000 0.300000
vt 0.000000 0.300000
vt 0.000000 0.000000
vt 0.200000 0.000000
vt 0.200000 0.300000
vt 0.000000 0.300000
vt 0.000000 0.000000
vt 0.800000 0.000000
vt 0.800000 0.300000
vt 0.000000 0.300000
vt 0.000000 0.000000
vt 0.800000 0.000000
vt 0.800000 0.300000
vt 0.000000 0.300000
vt 0.000000 0.000000
vt 0.800000 0.000000
vt 0.800000 0.200000
vt 0.000000 0.200000
vt 0.000000 0.000000
vt 0.800000 0.000000
vt 0.800000 0.200000
vt 0.000000 0.200000
vt 0.000000 0.000000
vt 0.200000 0.000000
vt 0.200000 0.300000
vt 0.000000 0.300000
vt 0.000000 0.000000
vt 0.200000 0.000000
vt 0.200000 0.300000
vt 0.000000 0.300000
vn 0.000000 0.000000 1.000000
vn 0.000000 0.000000 -1.000000
vn 0.000000 1.000000 0.000000
vn 0.000000 -1.000000 0.000000
vn 1.000000 0.000000 0.000000
vn -1.000000 0.000000 0.000000
vn 0.000000 0.000000 1.000000
vn 0.000000 0.000000 -1.000000
vn 0.000000 1.000000 0.000000
vn 0.000000 -1.000000 0.000000
vn 1.000000 0.000000 0.000000
vn -1.000000 0.000000 0.000000
vn 0.000000 0.000000 1.000000
vn 0.000000 0.000000 -1.000000
vn 0.000000 1.000000 0.000000
vn 0.000000 -1.000000 0.000000
vn 1.000000 0.000000 0.000000
vn -1.000000 0.000000 0.000000
vn 0.000000 0.000000 1.000000
vn 0.000000 0.000000 -1.000000
vn 0.000000 1.000000 0.000000
vn 0.000000 -1.000000 0.000000
vn 1.000000 0.000000 0.000000
vn -1.000000 0.000000 0.000000
vn 0.000000 0.000000 -1.000000
vn 0.000000 0.000000 -1.000000
vn 0.000000 0.000000 1.000000
vn 0.000000 0.000000 -1.000000
vn 0.000000 1.000000 0.000000
vn 0.000000 -1.000000 0.000000
vn 1.000000 0.000000 0.000000
vn -1.000000 0.000000 0.000000
vn 0.000000 0.000000 1.000000
vn 0.000000 0.000000 -1.000000
vn 0.000000 1.000000 0.000000
vn 0.000000 -1.000000 0.000000
vn 1.000000 0.000000 0.000000
vn -1.000000 0.000000 0.000000
vn 0.000000 0.000000 1.000000
vn 0.000000 0.000000 -1.000000
vn 0.000000 1.000000 0.000000
vn 0.000000 -1.000000 0.000000
vn 1.000000 0.000000 0.000000
vn -1.000000 0.000000 0.000000
vn 0.000000 0.000000 1.000000
vn 0.000000 0.000000 -1.000000
vn 0.000000 1.000000 0.000000
vn 0.000000 -1.000000 0.000000
vn 1.000000 0.000000 0.000000
vn -1.000000 0.000000 0.000000
vn 0.000000 0.000000 1.000000
vn 0.000000 0.000000 -1.000000
vn 0.000000 1.000000 0.000000
vn 0.000000 -1.000000 0.000000
vn 1.000000 0.000000 0.000000
vn -1.000000 0.000000 0.000000
vn 1.000000 0.000000 0.000000
vn 0.866025 0.500000 0.000000
vn 0.866025 0.500000 0.000000
vn 0.500000 0.866025 0.000000
vn 0.500000 0.866025 0.000000
vn 0.000000 1.000000 0.000000
vn 0.000000 1.000000 0.000000
vn -0.500000 0.866025 0.000000
vn -0.500000 0.866025 0.000000
vn -0.866025 0.500000 0.000000
vn -0.866025 0.500000 0.000000
vn -1.000000 0.000000 0.000000
vn -1.000000 0.000000 0.000000
vn -0.866025 -0.500000 -0.000000
vn -0.866025 -0.500000 -0.000000
vn -0.500000 -0.866025 -0.000000
vn -0.500000 -0.866025 -0.000000
vn -0.000000 -1.000000 -0.000000
vn -0.000000 -1.000000 -0.000000
vn 0.500000 -0.866025 0.000000
vn 0.500000 -0.866025 0.000000
vn 0.866025 -0.500000 0.000000
vn 0.866025 -0.500000 0.000000
vn 1.000000 0.000000 0.000000
vn 0.000000 0.000000 1.000000
vn 0.000000 0.000000 -1.000000
vn 0.000000 1.000000 0.000000
vn 0.000000 -1.000000 0.000000
vn 1.000000 0.000000 0.000000
vn -1.000000 0.000000 0.000000
vn 0.000000 0.000000 1.000000
vn 0.000000 0.000000 -1.000000
vn 0.000000 1.000000 0.000000
vn 0.000000 -1.000000 0.000000
vn 1.000000 0.000000 0.000000
vn -1.000000 0.000000 0.000000
s 1
f 2/1/1 6/2/1 8/3/1
f 2/1/1 8/3/1 4/4/1
f 5/5/2 1/6/2 3/7/2
f 5/5/2 3/7/2 7/8/2
f 4/9/3 8/10/3 7/11/3
f 4/9/3 7/11/3 3/12/3
f 1/13/4 5/14/4 6/15/4
f 1/13/4 6/15/4 2/16/4
f 6/17/5 5/18/5 7/19/5
f 6/17/5 7/19/5 8/20/5
f 1/21/6 2/22/6 4/23/6
f 1/21/6 4/23/6 3/24/6
f 10/25/7 14/26/7 16/27/7
f 10/25/7 16/27/7 12/28/7
f 13/29/8 9/30/8 11/31/8
f 13/29/8 11/31/8 15/32/8
f 12/33/9 16/34/9 15/35/9
f 12/33/9 15/35/9 11/36/9
f 9/37/10 13/38/10 14/39/10
f 9/37/10 14/39/10 10/40/10
f 14/41/11 13/42/11 15/43/11
f 14/41/11 15/43/11 16/44/11
f 9/45/12 10/46/12 12/47/12
f 9/45/12 12/47/12 11/48/12
f 18/49/13 22/50/13 24/51/13
f 18/49/13 24/51/13 20/52/13
f 21/53/14 17/54/14 19/55/14
f 21/53/14 19/55/14 23/56/14
f 20/57/15 24/58/15 23/59/15
f 20/57/15 23/59/15 19/60/15
f 17/61/16 21/62/16 22/63/16
f 17/61/16 22/63/16 18/64/16
f 22/65/17 21/66/17 23/67/17
f 22/65/17 23/67/17 24/68/17
f 17/69/18 18/70/18 20/71/18
f 17/69/18 20/71/18 19/72/18
f 26/73/19 30/74/19 32/75/19
f 26/73/19 32/75/19 28/76/19
f 29/77/20 25/78/20 27/79/20
f 29/77/20 27/79/20 31/80/20
f 28/81/21 32/82/21 31/83/21
f 28/81/21 31/83/21 27/84/21
f 25/85/22 29/86/22 30/87/22
f 25/85/22 30/87/22 26/88/22
f 30/89/23 29/90/23 31/91/23
f 30/89/23 31/91/23 32/92/23
f 25/93/24 26/94/24 28/95/24
f 25/93/24 28/95/24 27/96/24
f 33/97/25 34/98/25 35/99/25
f 33/97/25 35/99/25 36/100/25
f 37/101/26 38/102/26 39/103/26
f 37/101/26 39/103/26 40/104/26
f 42/105/27 46/106/27 48/107/27
f 42/105/27 48/107/27 44/108/27
f 45/109/28 41/110/28 43/111/28
f 45/109/28 43/111/28 47/112/28
f 44/113/29 48/114/29 47/115/29
f 44/113/29 47/115/29 43/116/29
f 41/117/30 45/118/30 46/119/30
f 41/117/30 46/119/30 42/120/30
f 46/121/31 45/122/31 47/123/31
f 46/121/31 47/123/31 48/124/31
f 41/125/32 42/126/32 44/127/32
f 41/125/32 44/127/32 43/128/32
f 50/129/33 54/130/33 56/131/33
f 50/129/33 56/131/33 52/132/33
f 53/133/34 49/134/34 51/135/34
f 53/133/34 51/135/34 55/136/34
f 52/137/35 56/138/35 55/139/35
f 52/137/35 55/139/35 51/140/35
f 49/141/36 53/142/36 54/143/36
f 49/141/36 54/143/36 50/144/36
f 54/145/37 53/146/37 55/147/37
f 54/145/37 55/147/37 56/148/37
f 49/149/38 50/150/38 52/151/38
f 49/149/38 52/151/38 51/152/38
f 58/153/39 62/154/39 64/155/39
f 58/153/39 64/155/39 60/156/39
f 61/157/40 57/158/40 59/159/40
f 61/157/40 59/159/40 63/160/40
f 60/161/41 64/162/41 63/163/41
f 60/161/41 63/163/41 59/164/41
f 57/165/42 61/166/42 62/167/42
f 57/165/42 62/167/42 58/168/42
f 62/169/43 61/170/43 63/171/43
f 62/169/43 63/171/43 64/172/43
f 57/173/44 58/174/44 60/175/44
f 57/173/44 60/175/44 59/176/44
f 66/177/45 70/178/45 72/179/45
f 66/177/45 72/179/45 68/180/45
f 69/181/46 65/182/46 67/183/46
f 69/181/46 67/183/46 71/184/46
f 68/185/47 72/186/47 71/187/47
f 68/185/47 71/187/47 67/188/47
f 65/189/48 69/190/48 70/191/48
f 65/189/48 70/191/48 66/192/48
f 70/193/49 69/194/49 71/195/49
f 70/193/49 71/195/49 72/196/49
f 65/197/50 66/198/50 68/199/50
f 65/197/50 68/199/50 67/200/50
f 74/201/51 78/202/51 80/203/51
f 74/201/51 80/203/51 76/204/51
f 77/205/52 73/206/52 75/207/52
f 77/205/52 75/207/52 79/208/52
f 76/209/53 80/210/53 79/211/53
f 76/209/53 79/211/53 75/212/53
f 73/213/54 77/214/54 78/215/54
f 73/213/54 78/215/54 74/216/54
f 78/217/55 77/218/55 79/219/55
f 78/217/55 79/219/55 80/220/55
f 73/221/56 74/222/56 76/223/56
f 73/221/56 76/223/56 75/224/56
f 81/225/57 83/226/58 84/227/58
f 81/225/57 84/227/58 82/228/57
f 83/229/59 85/230/60 86/231/60
f 83/229/59 86/231/60 84/232/59
f 85/233/61 87/234/62 88/235/62
f 85/233/61 88/235/62 86/236/61
f 87/237/63 89/238/64 90/239/64
f 87/237/63 90/239/64 88/240/63
f 89/241/65 91/242/66 92/243/66
f 89/241/65 92/243/66 90/244/65
f 91/245/67 93/246/68 94/247/68
f 91/245/67 94/247/68 92/248/67
f 93/249/69 95/250/70 96/251/70
f 93/249/69 96/251/70 94/252/69
f 95/253/71 97/254/72 98/255/72
f 95/253/71 98/255/72 96/256/71
f 97/257/73 99/258/74 100/259/74
f 97/257/73 100/259/74 98/260/73
f 99/261/75 101/262/76 102/263/76
f 99/261/75 102/263/76 100/264/75
f 101/265/77 103/266/78 104/267/78
f 101/265/77 104/267/78 102/268/77
f 103/269/79 81/270/80 82/271/80
f 103/269/79 82/271/80 104/272/79
f 106/273/81 110/274/81 112/275/81
f 106/273/81 112/275/81 108/276/81
f 109/277/82 105/278/82 107/279/82
f 109/277/82 107/279/82 111/280/82
f 108/281/83 112/282/83 111/283/83
f 108/281/83 111/283/83 107/284/83
f 105/285/84 109/286/84 110/287/84
f 105/285/84 110/287/84 106/288/84
f 110/289/85 109/290/85 111/291/85
f 110/289/85 111/291/85 112/292/85
f 105/293/86 106/294/86 108/295/86
f 105/293/86 108/295/86 107/296/86
f 114/297/87 118/298/87 120/299/87
f 114/297/87 120/299/87 116/300/87
f 117/301/88 113/302/88 115/303/88
f 117/301/88 115/303/88 119/304/88
f 116/305/89 120/306/89 119/307/89
f 116/305/89 119/307/89 115/308/89
f 113/309/90 117/310/90 118/311/90
f 113/309/90 118/311/90 114/312/90
f 118/313/91 117/314/91 119/315/91
f 118/313/91 119/315/91 120/316/91
f 113/317/92 114/318/92 116/319/92
f 113/317/92 116/319/92 115/320/92
