# Wavefront OBJ: SM_TrashBin
o SM_TrashBin
v 0.000000 0.000000 0.220000
v 0.000000 0.700000 0.220000
v 0.110000 0.000000 0.190526
v 0.110000 0.700000 0.190526
v 0.190526 0.000000 0.110000
v 0.190526 0.700000 0.110000
v 0.220000 0.000000 0.000000
v 0.220000 0.700000 0.000000
v 0.190526 0.000000 -0.110000
v 0.190526 0.700000 -0.110000
v 0.110000 0.000000 -0.190526
v 0.110000 0.700000 -0.190526
v 0.000000 0.000000 -0.220000
v 0.000000 0.700000 -0.220000
v -0.110000 0.000000 -0.190526
v -0.110000 0.700000 -0.190526
v -0.190526 0.000000 -0.110000
v -0.190526 0.700000 -0.110000
v -0.220000 0.000000 -0.000000
v -0.220000 0.700000 -0.000000
v -0.190526 0.000000 0.110000
v -0.190526 0.700000 0.110000
v -0.110000 0.000000 0.190526
v -0.110000 0.700000 0.190526
v 0.000000 0.700000 0.240000
v 0.000000 0.850000 0.240000
v 0.120000 0.700000 0.207846
v 0.120000 0.850000 0.207846
v 0.207846 0.700000 0.120000
v 0.207846 0.850000 0.120000
v 0.240000 0.700000 0.000000
v 0.240000 0.850000 0.000000
v 0.207846 0.700000 -0.120000
v 0.207846 0.850000 -0.120000
v 0.120000 0.700000 -0.207846
v 0.120000 0.850000 -0.207846
v 0.000000 0.700000 -0.240000
v 0.000000 0.850000 -0.240000
v -0.120000 0.700000 -0.207846
v -0.120000 0.850000 -0.207846
v -0.207846 0.700000 -0.120000
v -0.207846 0.850000 -0.120000
v -0.240000 0.700000 -0.000000
v -0.240000 0.850000 -0.000000
v -0.207846 0.700000 0.120000
v -0.207846 0.850000 0.120000
v -0.120000 0.700000 0.207846
v -0.120000 0.850000 0.207846
vt 0.000000 0.000000
vt 0.083333 0.000000
vt 0.083333 0.700000
vt 0.000000 0.700000
vt 0.083333 0.000000
vt 0.166667 0.000000
vt 0.166667 0.700000
vt 0.083333 0.700000
vt 0.166667 0.000000
vt 0.250000 0.000000
vt 0.250000 0.700000
vt 0.166667 0.700000
vt 0.250000 0.000000
vt 0.333333 0.000000
vt 0.333333 0.700000
vt 0.250000 0.700000
vt 0.333333 0.000000
vt 0.416667 0.000000
vt 0.416667 0.700000
vt 0.333333 0.700000
vt 0.416667 0.000000
vt 0.500000 0.000000
vt 0.500000 0.700000
vt 0.416667 0.700000
vt 0.500000 0.000000
vt 0.583333 0.000000
vt 0.583333 0.700000
vt 0.500000 0.700000
vt 0.583333 0.000000
vt 0.666667 0.000000
vt 0.666667 0.700000
vt 0.583333 0.700000
vt 0.666667 0.000000
vt 0.750000 0.000000
vt 0.750000 0.700000
vt 0.666667 0.700000
vt 0.750000 0.000000
vt 0.833333 0.000000
vt 0.833333 0.700000
vt 0.750000 0.700000
vt 0.833333 0.000000
vt 0.916667 0.000000
vt 0.916667 0.700000
vt 0.833333 0.700000
vt 0.916667 0.000000
vt 1.000000 0.000000
vt 1.000000 0.700000
vt 0.916667 0.700000
vt 0.000000 0.000000
vt 0.083333 0.000000
vt 0.083333 0.150000
vt 0.000000 0.150000
vt 0.083333 0.000000
vt 0.166667 0.000000
vt 0.166667 0.150000
vt 0.083333 0.150000
vt 0.166667 0.000000
vt 0.250000 0.000000
vt 0.250000 0.150000
vt 0.166667 0.150000
vt 0.250000 0.000000
vt 0.333333 0.000000
vt 0.333333 0.150000
vt 0.250000 0.150000
vt 0.333333 0.000000
vt 0.416667 0.000000
vt 0.416667 0.150000
vt 0.333333 0.150000
vt 0.416667 0.000000
vt 0.500000 0.000000
vt 0.500000 0.150000
vt 0.416667 0.150000
vt 0.500000 0.000000
vt 0.583333 0.000000
vt 0.583333 0.150000
vt 0.500000 0.150000
vt 0.583333 0.000000
vt 0.666667 0.000000
vt 0.666667 0.150000
vt 0.583333 0.150000
vt 0.666667 0.000000
vt 0.750000 0.000000
vt 0.750000 0.150000
vt 0.666667 0.150000
vt 0.750000 0.000000
vt 0.833333 0.000000
vt 0.833333 0.150000
vt 0.750000 0.150000
vt 0.833333 0.000000
vt 0.916667 0.000000
vt 0.916667 0.150000
vt 0.833333 0.150000
vt 0.916667 0.000000
vt 1.000000 0.000000
vt 1.000000 0.150000
vt 0.916667 0.150000
vn 0.000000 0.000000 1.000000
vn 0.500000 0.000000 0.866025
vn 0.500000 0.000000 0.866025
vn 0.866025 0.000000 0.500000
vn 0.866025 0.000000 0.500000
vn 1.000000 0.000000 0.000000
vn 1.000000 0.000000 0.000000
vn 0.866025 0.000000 -0.500000
vn 0.866025 0.000000 -0.500000
vn 0.500000 0.000000 -0.866025
vn 0.500000 0.000000 -0.866025
vn 0.000000 0.000000 -1.000000
vn 0.000000 0.000000 -1.000000
vn -0.500000 -0.000000 -0.866025
vn -0.500000 -0.000000 -0.866025
vn -0.866025 -0.000000 -0.500000
vn -0.866025 -0.000000 -0.500000
vn -1.000000 -0.000000 -0.000000
vn -1.000000 -0.000000 -0.000000
vn -0.866025 0.000000 0.500000
vn -0.866025 0.000000 0.500000
vn -0.500000 0.000000 0.866025
vn -0.500000 0.000000 0.866025
vn 0.000000 0.000000 1.000000
vn 0.000000 0.000000 1.000000
vn 0.500000 0.000000 0.866025
vn 0.500000 0.000000 0.866025
vn 0.866025 0.000000 0.500000
vn 0.866025 0.000000 0.500000
vn 1.000000 0.000000 0.000000
vn 1.000000 0.000000 0.000000
vn 0.866025 0.000000 -0.500000
vn 0.866025 0.000000 -0.500000
vn 0.500000 0.000000 -0.866025
vn 0.500000 0.000000 -0.866025
vn 0.000000 0.000000 -1.000000
vn 0.000000 0.000000 -1.000000
vn -0.500000 -0.000000 -0.866025
vn -0.500000 -0.000000 -0.866025
vn -0.866025 -0.000000 -0.500000
vn -0.866025 -0.000000 -0.500000
vn -1.000000 -0.000000 -0.000000
vn -1.000000 -0.000000 -0.000000
vn -0.866025 0.000000 0.500000
vn -0.866025 0.000000 0.500000
vn -0.500000 0.000000 0.866025
vn -0.500000 0.000000 0.866025
vn 0.000000 0.000000 1.000000
s 1
f 1/1/1 3/2/2 4/3/2
f 1/1/1 4/3/2 2/4/1
f 3/5/3 5/6/4 6/7/4
f 3/5/3 6/7/4 4/8/3
f 5/9/5 7/10/6 8/11/6
f 5/9/5 8/11/6 6/12/5
f 7/13/7 9/14/8 10/15/8
f 7/13/7 10/15/8 8/16/7
f 9/17/9 11/18/10 12/19/10
f 9/17/9 12/19/10 10/20/9
f 11/21/11 13/22/12 14/23/12
f 11/21/11 14/23/12 12/24/11
f 13/25/13 15/26/14 16/27/14
f 13/25/13 16/27/14 14/28/13
f 15/29/15 17/30/16 18/31/16
f 15/29/15 18/31/16 16/32/15
f 17/33/17 19/34/18 20/35/18
f 17/33/17 20/35/18 18/36/17
f 19/37/19 21/38/20 22/39/20
f 19/37/19 22/39/20 20/40/19
f 21/41/21 23/42/22 24/43/22
f 21/41/21 24/43/22 22/44/21
f 23/45/23 1/46/24 2/47/24
f 23/45/23 2/47/24 24/48/23
f 25/49/25 27/50/26 28/51/26
f 25/49/25 28/51/26 26/52/25
f 27/53/27 29/54/28 30/55/28
f 27/53/27 30/55/28 28/56/27
f 29/57/29 31/58/30 32/59/30
f 29/57/29 32/59/30 30/60/29
f 31/61/31 33/62/32 34/63/32
f 31/61/31 34/63/32 32/64/31
f 33/65/33 35/66/34 36/67/34
f 33/65/33 36/67/34 34/68/33
f 35/69/35 37/70/36 38/71/36
f 35/69/35 38/71/36 36/72/35
f 37/73/37 39/74/38 40/75/38
f 37/73/37 40/75/38 38/76/37
f 39/77/39 41/78/40 42/79/40
f 39/77/39 42/79/40 40/80/39
f 41/81/41 43/82/42 44/83/42
f 41/81/41 44/83/42 42/84/41
f 43/85/43 45/86/44 46/87/44
f 43/85/43 46/87/44 44/88/43
f 45/89/45 47/90/46 48/91/46
f 45/89/45 48/91/46 46/92/45
f 47/93/47 25/94/48 26/95/48
f 47/93/47 26/95/48 48/96/47
