# Wavefront OBJ: SM_UtilityPole
o SM_UtilityPole
v 0.000000 0.000000 0.160000
v 0.000000 7.500000 0.160000
v 0.113137 0.000000 0.113137
v 0.113137 7.500000 0.113137
v 0.160000 0.000000 0.000000
v 0.160000 7.500000 0.000000
v 0.113137 0.000000 -0.113137
v 0.113137 7.500000 -0.113137
v 0.000000 0.000000 -0.160000
v 0.000000 7.500000 -0.160000
v -0.113137 0.000000 -0.113137
v -0.113137 7.500000 -0.113137
v -0.160000 0.000000 -0.000000
v -0.160000 7.500000 -0.000000
v -0.113137 0.000000 0.113137
v -0.113137 7.500000 0.113137
v -0.900000 5.750000 -0.060000
v -0.900000 5.750000 0.060000
v -0.900000 5.850000 -0.060000
v -0.900000 5.850000 0.060000
v 0.900000 5.750000 -0.060000
v 0.900000 5.750000 0.060000
v 0.900000 5.850000 -0.060000
v 0.900000 5.850000 0.060000
v -0.650000 6.750000 -0.060000
v -0.650000 6.750000 0.060000
v -0.650000 6.850000 -0.060000
v -0.650000 6.850000 0.060000
v 0.650000 6.750000 -0.060000
v 0.650000 6.750000 0.060000
v 0.650000 6.850000 -0.060000
v 0.650000 6.850000 0.060000
v -0.800000 5.850000 0.040000
v -0.800000 6.050000 0.040000
v -0.765359 5.850000 0.020000
v -0.765359 6.050000 0.020000
v -0.765359 5.850000 -0.020000
v -0.765359 6.050000 -0.020000
v -0.800000 5.850000 -0.040000
v -0.800000 6.050000 -0.040000
v -0.834641 5.850000 -0.020000
v -0.834641 6.050000 -0.020000
v -0.834641 5.850000 0.020000
v -0.834641 6.050000 0.020000
v -0.400000 5.850000 0.040000
v -0.400000 6.050000 0.040000
v -0.365359 5.850000 0.020000
v -0.365359 6.050000 0.020000
v -0.365359 5.850000 -0.020000
v -0.365359 6.050000 -0.020000
v -0.400000 5.850000 -0.040000
v -0.400000 6.050000 -0.040000
v -0.434641 5.850000 -0.020000
v -0.434641 6.050000 -0.020000
v -0.434641 5.850000 0.020000
v -0.434641 6.050000 0.020000
v 0.400000 5.850000 0.040000
v 0.400000 6.050000 0.040000
v 0.434641 5.850000 0.020000
v 0.434641 6.050000 0.020000
v 0.434641 5.850000 -0.020000
v 0.434641 6.050000 -0.020000
v 0.400000 5.850000 -0.040000
v 0.400000 6.050000 -0.040000
v 0.365359 5.850000 -0.020000
v 0.365359 6.050000 -0.020000
v 0.365359 5.850000 0.020000
v 0.365359 6.050000 0.020000
v 0.800000 5.850000 0.040000
v 0.800000 6.050000 0.040000
v 0.834641 5.850000 0.020000
v 0.834641 6.050000 0.020000
v 0.834641 5.850000 -0.020000
v 0.834641 6.050000 -0.020000
v 0.800000 5.850000 -0.040000
v 0.800000 6.050000 -0.040000
v 0.765359 5.850000 -0.020000
v 0.765359 6.050000 -0.020000
v 0.765359 5.850000 0.020000
v 0.765359 6.050000 0.020000
v -0.550000 6.850000 0.040000
v -0.550000 7.050000 0.040000
v -0.515359 6.850000 0.020000
v -0.515359 7.050000 0.020000
v -0.515359 6.850000 -0.020000
v -0.515359 7.050000 -0.020000
v -0.550000 6.850000 -0.040000
v -0.550000 7.050000 -0.040000
v -0.584641 6.850000 -0.020000
v -0.584641 7.050000 -0.020000
v -0.584641 6.850000 0.020000
v -0.584641 7.050000 0.020000
v 0.550000 6.850000 0.040000
v 0.550000 7.050000 0.040000
v 0.584641 6.850000 0.020000
v 0.584641 7.050000 0.020000
v 0.584641 6.850000 -0.020000
v 0.584641 7.050000 -0.020000
v 0.550000 6.850000 -0.040000
v 0.550000 7.050000 -0.040000
v 0.515359 6.850000 -0.020000
v 0.515359 7.050000 -0.020000
v 0.515359 6.850000 0.020000
v 0.515359 7.050000 0.020000
v 0.120000 4.000000 -0.250000
v 0.120000 4.000000 0.250000
v 0.120000 4.900000 -0.250000
v 0.120000 4.900000 0.250000
v 0.650000 4.000000 -0.250000
v 0.650000 4.000000 0.250000
v 0.650000 4.900000 -0.250000
v 0.650000 4.900000 0.250000
v -0.450000 2.200000 -0.150000
v -0.450000 2.200000 0.150000
v -0.450000 3.000000 -0.150000
v -0.450000 3.000000 0.150000
v -0.120000 2.200000 -0.150000
v -0.120000 2.200000 0.150000
v -0.120000 3.000000 -0.150000
v -0.120000 3.000000 0.150000
v -0.460000 2.350000 0.080000
v -0.540000 2.350000 0.080000
v -0.460000 2.406569 0.056569
v -0.540000 2.406569 0.056569
v -0.460000 2.430000 0.000000
v -0.540000 2.430000 0.000000
v -0.460000 2.406569 -0.056569
v -0.540000 2.406569 -0.056569
v -0.460000 2.350000 -0.080000
v -0.540000 2.350000 -0.080000
v -0.460000 2.293431 -0.056569
v -0.540000 2.293431 -0.056569
v -0.460000 2.270000 -0.000000
v -0.540000 2.270000 -0.000000
v -0.460000 2.293431 0.056569
v -0.540000 2.293431 0.056569
v -0.460000 2.600000 0.080000
v -0.540000 2.600000 0.080000
v -0.460000 2.656569 0.056569
v -0.540000 2.656569 0.056569
v -0.460000 2.680000 0.000000
v -0.540000 2.680000 0.000000
v -0.460000 2.656569 -0.056569
v -0.540000 2.656569 -0.056569
v -0.460000 2.600000 -0.080000
v -0.540000 2.600000 -0.080000
v -0.460000 2.543431 -0.056569
v -0.540000 2.543431 -0.056569
v -0.460000 2.520000 -0.000000
v -0.540000 2.520000 -0.000000
v -0.460000 2.543431 0.056569
v -0.540000 2.543431 0.056569
v -0.460000 2.850000 0.080000
v -0.540000 2.850000 0.080000
v -0.460000 2.906569 0.056569
v -0.540000 2.906569 0.056569
v -0.460000 2.930000 0.000000
v -0.540000 2.930000 0.000000
v -0.460000 2.906569 -0.056569
v -0.540000 2.906569 -0.056569
v -0.460000 2.850000 -0.080000
v -0.540000 2.850000 -0.080000
v -0.460000 2.793431 -0.056569
v -0.540000 2.793431 -0.056569
v -0.460000 2.770000 -0.000000
v -0.540000 2.770000 -0.000000
v -0.460000 2.793431 0.056569
v -0.540000 2.793431 0.056569
v -15.999875 5.800000 -0.170000
v -7.999875 5.350000 -0.120000
v -15.998965 5.817293 -0.159994
v -7.998965 5.367293 -0.109994
v -15.999090 5.817293 -0.139994
v -7.999090 5.367293 -0.089994
v -16.000125 5.800000 -0.130000
v -8.000125 5.350000 -0.080000
v -16.001035 5.782707 -0.140006
v -8.001035 5.332707 -0.090006
v -16.000910 5.782707 -0.160006
v -8.000910 5.332707 -0.110006
v -8.000125 5.350000 -0.120000
v -0.000125 5.800000 -0.170000
v -8.001035 5.367293 -0.109994
v -0.001035 5.817293 -0.159994
v -8.000910 5.367293 -0.089994
v -0.000910 5.817293 -0.139994
v -7.999875 5.350000 -0.080000
v 0.000125 5.800000 -0.130000
v -7.998965 5.332707 -0.090006
v 0.001035 5.782707 -0.140006
v -7.999090 5.332707 -0.110006
v 0.000910 5.782707 -0.160006
v -0.000125 5.800000 -0.170000
v 7.999875 5.350000 -0.220000
v 0.000910 5.817293 -0.160006
v 8.000910 5.367293 -0.210006
v 0.001035 5.817293 -0.140006
v 8.001035 5.367293 -0.190006
v 0.000125 5.800000 -0.130000
v 8.000125 5.350000 -0.180000
v -0.000910 5.782707 -0.139994
v 7.999090 5.332707 -0.189994
v -0.001035 5.782707 -0.159994
v 7.998965 5.332707 -0.209994
v 8.000125 5.350000 -0.220000
v 16.000125 5.800000 -0.170000
v 7.999090 5.367293 -0.210006
v 15.999090 5.817293 -0.160006
v 7.998965 5.367293 -0.190006
v 15.998965 5.817293 -0.140006
v 7.999875 5.350000 -0.180000
v 15.999875 5.800000 -0.130000
v 8.000910 5.332707 -0.189994
v 16.000910 5.782707 -0.139994
v 8.001035 5.332707 -0.209994
v 16.001035 5.782707 -0.159994
v -15.999875 6.200000 -0.170000
v -7.999875 5.750000 -0.120000
v -15.998965 6.217293 -0.159994
v -7.998965 5.767293 -0.109994
v -15.999090 6.217293 -0.139994
v -7.999090 5.767293 -0.089994
v -16.000125 6.200000 -0.130000
v -8.000125 5.750000 -0.080000
v -16.001035 6.182707 -0.140006
v -8.001035 5.732707 -0.090006
v -16.000910 6.182707 -0.160006
v -8.000910 5.732707 -0.110006
v -8.000125 5.750000 -0.120000
v -0.000125 6.200000 -0.170000
v -8.001035 5.767293 -0.109994
v -0.001035 6.217293 -0.159994
v -8.000910 5.767293 -0.089994
v -0.000910 6.217293 -0.139994
v -7.999875 5.750000 -0.080000
v 0.000125 6.200000 -0.130000
v -7.998965 5.732707 -0.090006
v 0.001035 6.182707 -0.140006
v -7.999090 5.732707 -0.110006
v 0.000910 6.182707 -0.160006
v -0.000125 6.200000 -0.170000
v 7.999875 5.750000 -0.220000
v 0.000910 6.217293 -0.160006
v 8.000910 5.767293 -0.210006
v 0.001035 6.217293 -0.140006
v 8.001035 5.767293 -0.190006
v 0.000125 6.200000 -0.130000
v 8.000125 5.750000 -0.180000
v -0.000910 6.182707 -0.139994
v 7.999090 5.732707 -0.189994
v -0.001035 6.182707 -0.159994
v 7.998965 5.732707 -0.209994
v 8.000125 5.750000 -0.220000
v 16.000125 6.200000 -0.170000
v 7.999090 5.767293 -0.210006
v 15.999090 6.217293 -0.160006
v 7.998965 5.767293 -0.190006
v 15.998965 6.217293 -0.140006
v 7.999875 5.750000 -0.180000
v 15.999875 6.200000 -0.130000
v 8.000910 5.732707 -0.189994
v 16.000910 6.182707 -0.139994
v 8.001035 5.732707 -0.209994
v 16.001035 6.182707 -0.159994
v -15.999875 5.800000 0.130000
v -7.999875 5.350000 0.180000
v -15.998965 5.817293 0.140006
v -7.998965 5.367293 0.190006
v -15.999090 5.817293 0.160006
v -7.999090 5.367293 0.210006
v -16.000125 5.800000 0.170000
v -8.000125 5.350000 0.220000
v -16.001035 5.782707 0.159994
v -8.001035 5.332707 0.209994
v -16.000910 5.782707 0.139994
v -8.000910 5.332707 0.189994
v -8.000125 5.350000 0.180000
v -0.000125 5.800000 0.130000
v -8.001035 5.367293 0.190006
v -0.001035 5.817293 0.140006
v -8.000910 5.367293 0.210006
v -0.000910 5.817293 0.160006
v -7.999875 5.350000 0.220000
v 0.000125 5.800000 0.170000
v -7.998965 5.332707 0.209994
v 0.001035 5.782707 0.159994
v -7.999090 5.332707 0.189994
v 0.000910 5.782707 0.139994
v -0.000125 5.800000 0.130000
v 7.999875 5.350000 0.080000
v 0.000910 5.817293 0.139994
v 8.000910 5.367293 0.089994
v 0.001035 5.817293 0.159994
v 8.001035 5.367293 0.109994
v 0.000125 5.800000 0.170000
v 8.000125 5.350000 0.120000
v -0.000910 5.782707 0.160006
v 7.999090 5.332707 0.110006
v -0.001035 5.782707 0.140006
v 7.998965 5.332707 0.090006
v 8.000125 5.350000 0.080000
v 16.000125 5.800000 0.130000
v 7.999090 5.367293 0.089994
v 15.999090 5.817293 0.139994
v 7.998965 5.367293 0.109994
v 15.998965 5.817293 0.159994
v 7.999875 5.350000 0.120000
v 15.999875 5.800000 0.170000
v 8.000910 5.332707 0.110006
v 16.000910 5.782707 0.160006
v 8.001035 5.332707 0.090006
v 16.001035 5.782707 0.140006
v -15.999875 6.200000 0.130000
v -7.999875 5.750000 0.180000
v -15.998965 6.217293 0.140006
v -7.998965 5.767293 0.190006
v -15.999090 6.217293 0.160006
v -7.999090 5.767293 0.210006
v -16.000125 6.200000 0.170000
v -8.000125 5.750000 0.220000
v -16.001035 6.182707 0.159994
v -8.001035 5.732707 0.209994
v -16.000910 6.182707 0.139994
v -8.000910 5.732707 0.189994
v -8.000125 5.750000 0.180000
v -0.000125 6.200000 0.130000
v -8.001035 5.767293 0.190006
v -0.001035 6.217293 0.140006
v -8.000910 5.767293 0.210006
v -0.000910 6.217293 0.160006
v -7.999875 5.750000 0.220000
v 0.000125 6.200000 0.170000
v -7.998965 5.732707 0.209994
v 0.001035 6.182707 0.159994
v -7.999090 5.732707 0.189994
v 0.000910 6.182707 0.139994
v -0.000125 6.200000 0.130000
v 7.999875 5.750000 0.080000
v 0.000910 6.217293 0.139994
v 8.000910 5.767293 0.089994
v 0.001035 6.217293 0.159994
v 8.001035 5.767293 0.109994
v 0.000125 6.200000 0.170000
v 8.000125 5.750000 0.120000
v -0.000910 6.182707 0.160006
v 7.999090 5.732707 0.110006
v -0.001035 6.182707 0.140006
v 7.998965 5.732707 0.090006
v 8.000125 5.750000 0.080000
v 16.000125 6.200000 0.130000
v 7.999090 5.767293 0.089994
v 15.999090 6.217293 0.139994
v 7.998965 5.767293 0.109994
v 15.998965 6.217293 0.159994
v 7.999875 5.750000 0.120000
v 15.999875 6.200000 0.170000
v 8.000910 5.732707 0.110006
v 16.000910 6.182707 0.160006
v 8.001035 5.732707 0.090006
v 16.001035 6.182707 0.140006
vt 0.000000 0.000000
vt 0.125000 0.000000
vt 0.125000 7.500000
vt 0.000000 7.500000
vt 0.125000 0.000000
vt 0.250000 0.000000
vt 0.250000 7.500000
vt 0.125000 7.500000
vt 0.250000 0.000000
vt 0.375000 0.000000
vt 0.375000 7.500000
vt 0.250000 7.500000
vt 0.375000 0.000000
vt 0.500000 0.000000
vt 0.500000 7.500000
vt 0.375000 7.500000
vt 0.500000 0.000000
vt 0.625000 0.000000
vt 0.625000 7.500000
vt 0.500000 7.500000
vt 0.625000 0.000000
vt 0.750000 0.000000
vt 0.750000 7.500000
vt 0.625000 7.500000
vt 0.750000 0.000000
vt 0.875000 0.000000
vt 0.875000 7.500000
vt 0.750000 7.500000
vt 0.875000 0.000000
vt 1.000000 0.000000
vt 1.000000 7.500000
vt 0.875000 7.500000
vt 0.000000 0.000000
vt 1.800000 0.000000
vt 1.800000 0.100000
vt 0.000000 0.100000
vt 0.000000 0.000000
vt 1.800000 0.000000
vt 1.800000 0.100000
vt 0.000000 0.100000
vt 0.000000 0.000000
vt 1.800000 0.000000
vt 1.800000 0.120000
vt 0.000000 0.120000
vt 0.000000 0.000000
vt 1.800000 0.000000
vt 1.800000 0.120000
vt 0.000000 0.120000
vt 0.000000 0.000000
vt 0.120000 0.000000
vt 0.120000 0.100000
vt 0.000000 0.100000
vt 0.000000 0.000000
vt 0.120000 0.000000
vt 0.120000 0.100000
vt 0.000000 0.100000
vt 0.000000 0.000000
vt 1.300000 0.000000
vt 1.300000 0.100000
vt 0.000000 0.100000
vt 0.000000 0.000000
vt 1.300000 0.000000
vt 1.300000 0.100000
vt 0.000000 0.100000
vt 0.000000 0.000000
vt 1.300000 0.000000
vt 1.300000 0.120000
vt 0.000000 0.120000
vt 0.000000 0.000000
vt 1.300000 0.000000
vt 1.300000 0.120000
vt 0.000000 0.120000
vt 0.000000 0.000000
vt 0.120000 0.000000
vt 0.120000 0.100000
vt 0.000000 0.100000
vt 0.000000 0.000000
vt 0.120000 0.000000
vt 0.120000 0.100000
vt 0.000000 0.100000
vt 0.000000 0.000000
vt 0.166667 0.000000
vt 0.166667 0.200000
vt 0.000000 0.200000
vt 0.166667 0.000000
vt 0.333333 0.000000
vt 0.333333 0.200000
vt 0.166667 0.200000
vt 0.333333 0.000000
vt 0.500000 0.000000
vt 0.500000 0.200000
vt 0.333333 0.200000
vt 0.500000 0.000000
vt 0.666667 0.000000
vt 0.666667 0.200000
vt 0.500000 0.200000
vt 0.666667 0.000000
vt 0.833333 0.000000
vt 0.833333 0.200000
vt 0.666667 0.200000
vt 0.833333 0.000000
vt 1.000000 0.000000
vt 1.000000 0.200000
vt 0.833333 0.200000
vt 0.000000 0.000000
vt 0.166667 0.000000
vt 0.166667 0.200000
vt 0.000000 0.200000
vt 0.166667 0.000000
vt 0.333333 0.000000
vt 0.333333 0.200000
vt 0.166667 0.200000
vt 0.333333 0.000000
vt 0.500000 0.000000
vt 0.500000 0.200000
vt 0.333333 0.200000
vt 0.500000 0.000000
vt 0.666667 0.000000
vt 0.666667 0.200000
vt 0.500000 0.200000
vt 0.666667 0.000000
vt 0.833333 0.000000
vt 0.833333 0.200000
vt 0.666667 0.200000
vt 0.833333 0.000000
vt 1.000000 0.000000
vt 1.000000 0.200000
vt 0.833333 0.200000
vt 0.000000 0.000000
vt 0.166667 0.000000
vt 0.166667 0.200000
vt 0.000000 0.200000
vt 0.166667 0.000000
vt 0.333333 0.000000
vt 0.333333 0.200000
vt 0.166667 0.200000
vt 0.333333 0.000000
vt 0.500000 0.000000
vt 0.500000 0.200000
vt 0.333333 0.200000
vt 0.500000 0.000000
vt 0.666667 0.000000
vt 0.666667 0.200000
vt 0.500000 0.200000
vt 0.666667 0.000000
vt 0.833333 0.000000
vt 0.833333 0.200000
vt 0.666667 0.200000
vt 0.833333 0.000000
vt 1.000000 0.000000
vt 1.000000 0.200000
vt 0.833333 0.200000
vt 0.000000 0.000000
vt 0.166667 0.000000
vt 0.166667 0.200000
vt 0.000000 0.200000
vt 0.166667 0.000000
vt 0.333333 0.000000
vt 0.333333 0.200000
vt 0.166667 0.200000
vt 0.333333 0.000000
vt 0.500000 0.000000
vt 0.500000 0.200000
vt 0.333333 0.200000
vt 0.500000 0.000000
vt 0.666667 0.000000
vt 0.666667 0.200000
vt 0.500000 0.200000
vt 0.666667 0.000000
vt 0.833333 0.000000
vt 0.833333 0.200000
vt 0.666667 0.200000
vt 0.833333 0.000000
vt 1.000000 0.000000
vt 1.000000 0.200000
vt 0.833333 0.200000
vt 0.000000 0.000000
vt 0.166667 0.000000
vt 0.166667 0.200000
vt 0.000000 0.200000
vt 0.166667 0.000000
vt 0.333333 0.000000
vt 0.333333 0.200000
vt 0.166667 0.200000
vt 0.333333 0.000000
vt 0.500000 0.000000
vt 0.500000 0.200000
vt 0.333333 0.200000
vt 0.500000 0.000000
vt 0.666667 0.000000
vt 0.666667 0.200000
vt 0.500000 0.200000
vt 0.666667 0.000000
vt 0.833333 0.000000
vt 0.833333 0.200000
vt 0.666667 0.200000
vt 0.833333 0.000000
vt 1.000000 0.000000
vt 1.000000 0.200000
vt 0.833333 0.200000
vt 0.000000 0.000000
vt 0.166667 0.000000
vt 0.166667 0.200000
vt 0.000000 0.200000
vt 0.166667 0.000000
vt 0.333333 0.000000
vt 0.333333 0.200000
vt 0.166667 0.200000
vt 0.333333 0.000000
vt 0.500000 0.000000
vt 0.500000 0.200000
vt 0.333333 0.200000
vt 0.500000 0.000000
vt 0.666667 0.000000
vt 0.666667 0.200000
vt 0.500000 0.200000
vt 0.666667 0.000000
vt 0.833333 0.000000
vt 0.833333 0.200000
vt 0.666667 0.200000
vt 0.833333 0.000000
vt 1.000000 0.000000
vt 1.000000 0.200000
vt 0.833333 0.200000
vt 0.000000 0.000000
vt 0.530000 0.000000
vt 0.530000 0.900000
vt 0.000000 0.900000
vt 0.000000 0.000000
vt 0.530000 0.000000
vt 0.530000 0.900000
vt 0.000000 0.900000
vt 0.000000 0.000000
vt 0.530000 0.000000
vt 0.530000 0.500000
vt 0.000000 0.500000
vt 0.000000 0.000000
vt 0.530000 0.000000
vt 0.530000 0.500000
vt 0.000000 0.500000
vt 0.000000 0.000000
vt 0.500000 0.000000
vt 0.500000 0.900000
vt 0.000000 0.900000
vt 0.000000 0.000000
vt 0.500000 0.000000
vt 0.500000 0.900000
vt 0.000000 0.900000
vt 0.000000 0.000000
vt 0.330000 0.000000
vt 0.330000 0.800000
vt 0.000000 0.800000
vt 0.000000 0.000000
vt 0.330000 0.000000
vt 0.330000 0.800000
vt 0.000000 0.800000
vt 0.000000 0.000000
vt 0.330000 0.000000
vt 0.330000 0.300000
vt 0.000000 0.300000
vt 0.000000 0.000000
vt 0.330000 0.000000
vt 0.330000 0.300000
vt 0.000000 0.300000
vt 0.000000 0.000000
vt 0.300000 0.000000
vt 0.300000 0.800000
vt 0.000000 0.800000
vt 0.000000 0.000000
vt 0.300000 0.000000
vt 0.300000 0.800000
vt 0.000000 0.800000
vt 0.000000 0.000000
vt 0.125000 0.000000
vt 0.125000 0.080000
vt 0.000000 0.080000
vt 0.125000 0.000000
vt 0.250000 0.000000
vt 0.250000 0.080000
vt 0.125000 0.080000
vt 0.250000 0.000000
vt 0.375000 0.000000
vt 0.375000 0.080000
vt 0.250000 0.080000
vt 0.375000 0.000000
vt 0.500000 0.000000
vt 0.500000 0.080000
vt 0.375000 0.080000
vt 0.500000 0.000000
vt 0.625000 0.000000
vt 0.625000 0.080000
vt 0.500000 0.080000
vt 0.625000 0.000000
vt 0.750000 0.000000
vt 0.750000 0.080000
vt 0.625000 0.080000
vt 0.750000 0.000000
vt 0.875000 0.000000
vt 0.875000 0.080000
vt 0.750000 0.080000
vt 0.875000 0.000000
vt 1.000000 0.000000
vt 1.000000 0.080000
vt 0.875000 0.080000
vt 0.000000 0.000000
vt 0.125000 0.000000
vt 0.125000 0.080000
vt 0.000000 0.080000
vt 0.125000 0.000000
vt 0.250000 0.000000
vt 0.250000 0.080000
vt 0.125000 0.080000
vt 0.250000 0.000000
vt 0.375000 0.000000
vt 0.375000 0.080000
vt 0.250000 0.080000
vt 0.375000 0.000000
vt 0.500000 0.000000
vt 0.500000 0.080000
vt 0.375000 0.080000
vt 0.500000 0.000000
vt 0.625000 0.000000
vt 0.625000 0.080000
vt 0.500000 0.080000
vt 0.625000 0.000000
vt 0.750000 0.000000
vt 0.750000 0.080000
vt 0.625000 0.080000
vt 0.750000 0.000000
vt 0.875000 0.000000
vt 0.875000 0.080000
vt 0.750000 0.080000
vt 0.875000 0.000000
vt 1.000000 0.000000
vt 1.000000 0.080000
vt 0.875000 0.080000
vt 0.000000 0.000000
vt 0.125000 0.000000
vt 0.125000 0.080000
vt 0.000000 0.080000
vt 0.125000 0.000000
vt 0.250000 0.000000
vt 0.250000 0.080000
vt 0.125000 0.080000
vt 0.250000 0.000000
vt 0.375000 0.000000
vt 0.375000 0.080000
vt 0.250000 0.080000
vt 0.375000 0.000000
vt 0.500000 0.000000
vt 0.500000 0.080000
vt 0.375000 0.080000
vt 0.500000 0.000000
vt 0.625000 0.000000
vt 0.625000 0.080000
vt 0.500000 0.080000
vt 0.625000 0.000000
vt 0.750000 0.000000
vt 0.750000 0.080000
vt 0.625000 0.080000
vt 0.750000 0.000000
vt 0.875000 0.000000
vt 0.875000 0.080000
vt 0.750000 0.080000
vt 0.875000 0.000000
vt 1.000000 0.000000
vt 1.000000 0.080000
vt 0.875000 0.080000
vt 0.000000 0.000000
vt 0.166667 0.000000
vt 0.166667 8.012802
vt 0.000000 8.012802
vt 0.166667 0.000000
vt 0.333333 0.000000
vt 0.333333 8.012802
vt 0.166667 8.012802
vt 0.333333 0.000000
vt 0.500000 0.000000
vt 0.500000 8.012802
vt 0.333333 8.012802
vt 0.500000 0.000000
vt 0.666667 0.000000
vt 0.666667 8.012802
vt 0.500000 8.012802
vt 0.666667 0.000000
vt 0.833333 0.000000
vt 0.833333 8.012802
vt 0.666667 8.012802
vt 0.833333 0.000000
vt 1.000000 0.000000
vt 1.000000 8.012802
vt 0.833333 8.012802
vt 0.000000 0.000000
vt 0.166667 0.000000
vt 0.166667 8.012802
vt 0.000000 8.012802
vt 0.166667 0.000000
vt 0.333333 0.000000
vt 0.333333 8.012802
vt 0.166667 8.012802
vt 0.333333 0.000000
vt 0.500000 0.000000
vt 0.500000 8.012802
vt 0.333333 8.012802
vt 0.500000 0.000000
vt 0.666667 0.000000
vt 0.666667 8.012802
vt 0.500000 8.012802
vt 0.666667 0.000000
vt 0.833333 0.000000
vt 0.833333 8.012802
vt 0.666667 8.012802
vt 0.833333 0.000000
vt 1.000000 0.000000
vt 1.000000 8.012802
vt 0.833333 8.012802
vt 0.000000 0.000000
vt 0.166667 0.000000
vt 0.166667 8.012802
vt 0.000000 8.012802
vt 0.166667 0.000000
vt 0.333333 0.000000
vt 0.333333 8.012802
vt 0.166667 8.012802
vt 0.333333 0.000000
vt 0.500000 0.000000
vt 0.500000 8.012802
vt 0.333333 8.012802
vt 0.500000 0.000000
vt 0.666667 0.000000
vt 0.666667 8.012802
vt 0.500000 8.012802
vt 0.666667 0.000000
vt 0.833333 0.000000
vt 0.833333 8.012802
vt 0.666667 8.012802
vt 0.833333 0.000000
vt 1.000000 0.000000
vt 1.000000 8.012802
vt 0.833333 8.012802
vt 0.000000 0.000000
vt 0.166667 0.000000
vt 0.166667 8.012802
vt 0.000000 8.012802
vt 0.166667 0.000000
vt 0.333333 0.000000
vt 0.333333 8.012802
vt 0.166667 8.012802
vt 0.333333 0.000000
vt 0.500000 0.000000
vt 0.500000 8.012802
vt 0.333333 8.012802
vt 0.500000 0.000000
vt 0.666667 0.000000
vt 0.666667 8.012802
vt 0.500000 8.012802
vt 0.666667 0.000000
vt 0.833333 0.000000
vt 0.833333 8.012802
vt 0.666667 8.012802
vt 0.833333 0.000000
vt 1.000000 0.000000
vt 1.000000 8.012802
vt 0.833333 8.012802
vt 0.000000 0.000000
vt 0.166667 0.000000
vt 0.166667 8.012802
vt 0.000000 8.012802
vt 0.166667 0.000000
vt 0.333333 0.000000
vt 0.333333 8.012802
vt 0.166667 8.012802
vt 0.333333 0.000000
vt 0.500000 0.000000
vt 0.500000 8.012802
vt 0.333333 8.012802
vt 0.500000 0.000000
vt 0.666667 0.000000
vt 0.666667 8.012802
vt 0.500000 8.012802
vt 0.666667 0.000000
vt 0.833333 0.000000
vt 0.833333 8.012802
vt 0.666667 8.012802
vt 0.833333 0.000000
vt 1.000000 0.000000
vt 1.000000 8.012802
vt 0.833333 8.012802
vt 0.000000 0.000000
vt 0.166667 0.000000
vt 0.166667 8.012802
vt 0.000000 8.012802
vt 0.166667 0.000000
vt 0.333333 0.000000
vt 0.333333 8.012802
vt 0.166667 8.012802
vt 0.333333 0.000000
vt 0.500000 0.000000
vt 0.500000 8.012802
vt 0.333333 8.012802
vt 0.500000 0.000000
vt 0.666667 0.000000
vt 0.666667 8.012802
vt 0.500000 8.012802
vt 0.666667 0.000000
vt 0.833333 0.000000
vt 0.833333 8.012802
vt 0.666667 8.012802
vt 0.833333 0.000000
vt 1.000000 0.000000
vt 1.000000 8.012802
vt 0.833333 8.012802
vt 0.000000 0.000000
vt 0.166667 0.000000
vt 0.166667 8.012802
vt 0.000000 8.012802
vt 0.166667 0.000000
vt 0.333333 0.000000
vt 0.333333 8.012802
vt 0.166667 8.012802
vt 0.333333 0.000000
vt 0.500000 0.000000
vt 0.500000 8.012802
vt 0.333333 8.012802
vt 0.500000 0.000000
vt 0.666667 0.000000
vt 0.666667 8.012802
vt 0.500000 8.012802
vt 0.666667 0.000000
vt 0.833333 0.000000
vt 0.833333 8.012802
vt 0.666667 8.012802
vt 0.833333 0.000000
vt 1.000000 0.000000
vt 1.000000 8.012802
vt 0.833333 8.012802
vt 0.000000 0.000000
vt 0.166667 0.000000
vt 0.166667 8.012802
vt 0.000000 8.012802
vt 0.166667 0.000000
vt 0.333333 0.000000
vt 0.333333 8.012802
vt 0.166667 8.012802
vt 0.333333 0.000000
vt 0.500000 0.000000
vt 0.500000 8.012802
vt 0.333333 8.012802
vt 0.500000 0.000000
vt 0.666667 0.000000
vt 0.666667 8.012802
vt 0.500000 8.012802
vt 0.666667 0.000000
vt 0.833333 0.000000
vt 0.833333 8.012802
vt 0.666667 8.012802
vt 0.833333 0.000000
vt 1.000000 0.000000
vt 1.000000 8.012802
vt 0.833333 8.012802
vt 0.000000 0.000000
vt 0.166667 0.000000
vt 0.166667 8.012802
vt 0.000000 8.012802
vt 0.166667 0.000000
vt 0.333333 0.000000
vt 0.333333 8.012802
vt 0.166667 8.012802
vt 0.333333 0.000000
vt 0.500000 0.000000
vt 0.500000 8.012802
vt 0.333333 8.012802
vt 0.500000 0.000000
vt 0.666667 0.000000
vt 0.666667 8.012802
vt 0.500000 8.012802
vt 0.666667 0.000000
vt 0.833333 0.000000
vt 0.833333 8.012802
vt 0.666667 8.012802
vt 0.833333 0.000000
vt 1.000000 0.000000
vt 1.000000 8.012802
vt 0.833333 8.012802
vt 0.000000 0.000000
vt 0.166667 0.000000
vt 0.166667 8.012802
vt 0.000000 8.012802
vt 0.166667 0.000000
vt 0.333333 0.000000
vt 0.333333 8.012802
vt 0.166667 8.012802
vt 0.333333 0.000000
vt 0.500000 0.000000
vt 0.500000 8.012802
vt 0.333333 8.012802
vt 0.500000 0.000000
vt 0.666667 0.000000
vt 0.666667 8.012802
vt 0.500000 8.012802
vt 0.666667 0.000000
vt 0.833333 0.000000
vt 0.833333 8.012802
vt 0.666667 8.012802
vt 0.833333 0.000000
vt 1.000000 0.000000
vt 1.000000 8.012802
vt 0.833333 8.012802
vt 0.000000 0.000000
vt 0.166667 0.000000
vt 0.166667 8.012802
vt 0.000000 8.012802
vt 0.166667 0.000000
vt 0.333333 0.000000
vt 0.333333 8.012802
vt 0.166667 8.012802
vt 0.333333 0.000000
vt 0.500000 0.000000
vt 0.500000 8.012802
vt 0.333333 8.012802
vt 0.500000 0.000000
vt 0.666667 0.000000
vt 0.666667 8.012802
vt 0.500000 8.012802
vt 0.666667 0.000000
vt 0.833333 0.000000
vt 0.833333 8.012802
vt 0.666667 8.012802
vt 0.833333 0.000000
vt 1.000000 0.000000
vt 1.000000 8.012802
vt 0.833333 8.012802
vt 0.000000 0.000000
vt 0.166667 0.000000
vt 0.166667 8.012802
vt 0.000000 8.012802
vt 0.166667 0.000000
vt 0.333333 0.000000
vt 0.333333 8.012802
vt 0.166667 8.012802
vt 0.333333 0.000000
vt 0.500000 0.000000
vt 0.500000 8.012802
vt 0.333333 8.012802
vt 0.500000 0.000000
vt 0.666667 0.000000
vt 0.666667 8.012802
vt 0.500000 8.012802
vt 0.666667 0.000000
vt 0.833333 0.000000
vt 0.833333 8.012802
vt 0.666667 8.012802
vt 0.833333 0.000000
vt 1.000000 0.000000
vt 1.000000 8.012802
vt 0.833333 8.012802
vt 0.000000 0.000000
vt 0.166667 0.000000
vt 0.166667 8.012802
vt 0.000000 8.012802
vt 0.166667 0.000000
vt 0.333333 0.000000
vt 0.333333 8.012802
vt 0.166667 8.012802
vt 0.333333 0.000000
vt 0.500000 0.000000
vt 0.500000 8.012802
vt 0.333333 8.012802
vt 0.500000 0.000000
vt 0.666667 0.000000
vt 0.666667 8.012802
vt 0.500000 8.012802
vt 0.666667 0.000000
vt 0.833333 0.000000
vt 0.833333 8.012802
vt 0.666667 8.012802
vt 0.833333 0.000000
vt 1.000000 0.000000
vt 1.000000 8.012802
vt 0.833333 8.012802
vt 0.000000 0.000000
vt 0.166667 0.000000
vt 0.166667 8.012802
vt 0.000000 8.012802
vt 0.166667 0.000000
vt 0.333333 0.000000
vt 0.333333 8.012802
vt 0.166667 8.012802
vt 0.333333 0.000000
vt 0.500000 0.000000
vt 0.500000 8.012802
vt 0.333333 8.012802
vt 0.500000 0.000000
vt 0.666667 0.000000
vt 0.666667 8.012802
vt 0.500000 8.012802
vt 0.666667 0.000000
vt 0.833333 0.000000
vt 0.833333 8.012802
vt 0.666667 8.012802
vt 0.833333 0.000000
vt 1.000000 0.000000
vt 1.000000 8.012802
vt 0.833333 8.012802
vt 0.000000 0.000000
vt 0.166667 0.000000
vt 0.166667 8.012802
vt 0.000000 8.012802
vt 0.166667 0.000000
vt 0.333333 0.000000
vt 0.333333 8.012802
vt 0.166667 8.012802
vt 0.333333 0.000000
vt 0.500000 0.000000
vt 0.500000 8.012802
vt 0.333333 8.012802
vt 0.500000 0.000000
vt 0.666667 0.000000
vt 0.666667 8.012802
vt 0.500000 8.012802
vt 0.666667 0.000000
vt 0.833333 0.000000
vt 0.833333 8.012802
vt 0.666667 8.012802
vt 0.833333 0.000000
vt 1.000000 0.000000
vt 1.000000 8.012802
vt 0.833333 8.012802
vt 0.000000 0.000000
vt 0.166667 0.000000
vt 0.166667 8.012802
vt 0.000000 8.012802
vt 0.166667 0.000000
vt 0.333333 0.000000
vt 0.333333 8.012802
vt 0.166667 8.012802
vt 0.333333 0.000000
vt 0.500000 0.000000
vt 0.500000 8.012802
vt 0.333333 8.012802
vt 0.500000 0.000000
vt 0.666667 0.000000
vt 0.666667 8.012802
vt 0.500000 8.012802
vt 0.666667 0.000000
vt 0.833333 0.000000
vt 0.833333 8.012802
vt 0.666667 8.012802
vt 0.833333 0.000000
vt 1.000000 0.000000
vt 1.000000 8.012802
vt 0.833333 8.012802
vn 0.000000 0.000000 1.000000
vn 0.707107 0.000000 0.707107
vn 0.707107 0.000000 0.707107
vn 1.000000 0.000000 0.000000
vn 1.000000 0.000000 0.000000
vn 0.707107 0.000000 -0.707107
vn 0.707107 0.000000 -0.707107
vn 0.000000 0.000000 -1.000000
vn 0.000000 0.000000 -1.000000
vn -0.707107 -0.000000 -0.707107
vn -0.707107 -0.000000 -0.707107
vn -1.000000 -0.000000 -0.000000
vn -1.000000 -0.000000 -0.000000
vn -0.707107 0.000000 0.707107
vn -0.707107 0.000000 0.707107
vn 0.000000 0.000000 1.000000
vn 0.000000 0.000000 1.000000
vn 0.000000 0.000000 -1.000000
vn 0.000000 1.000000 0.000000
vn 0.000000 -1.000000 0.000000
vn 1.000000 0.000000 0.000000
vn -1.000000 0.000000 0.000000
vn 0.000000 0.000000 1.000000
vn 0.000000 0.000000 -1.000000
vn 0.000000 1.000000 0.000000
vn 0.000000 -1.000000 0.000000
vn 1.000000 0.000000 0.000000
vn -1.000000 0.000000 0.000000
vn 0.000000 0.000000 1.000000
vn 0.866025 0.000000 0.500000
vn 0.866025 0.000000 0.500000
vn 0.866025 0.000000 -0.500000
vn 0.866025 0.000000 -0.500000
vn 0.000000 0.000000 -1.000000
vn 0.000000 0.000000 -1.000000
vn -0.866025 -0.000000 -0.500000
vn -0.866025 -0.000000 -0.500000
vn -0.866025 0.000000 0.500000
vn -0.866025 0.000000 0.500000
vn 0.000000 0.000000 1.000000
vn 0.000000 0.000000 1.000000
vn 0.866025 0.000000 0.500000
vn 0.866025 0.000000 0.500000
vn 0.866025 0.000000 -0.500000
vn 0.866025 0.000000 -0.500000
vn 0.000000 0.000000 -1.000000
vn 0.000000 0.000000 -1.000000
vn -0.866025 -0.000000 -0.500000
vn -0.866025 -0.000000 -0.500000
vn -0.866025 0.000000 0.500000
vn -0.866025 0.000000 0.500000
vn 0.000000 0.000000 1.000000
vn 0.000000 0.000000 1.000000
vn 0.866025 0.000000 0.500000
vn 0.866025 0.000000 0.500000
vn 0.866025 0.000000 -0.500000
vn 0.866025 0.000000 -0.500000
vn 0.000000 0.000000 -1.000000
vn 0.000000 0.000000 -1.000000
vn -0.866025 -0.000000 -0.500000
vn -0.866025 -0.000000 -0.500000
vn -0.866025 0.000000 0.500000
vn -0.866025 0.000000 0.500000
vn 0.000000 0.000000 1.000000
vn 0.000000 0.000000 1.000000
vn 0.866025 0.000000 0.500000
vn 0.866025 0.000000 0.500000
vn 0.866025 0.000000 -0.500000
vn 0.866025 0.000000 -0.500000
vn 0.000000 0.000000 -1.000000
vn 0.000000 0.000000 -1.000000
vn -0.866025 -0.000000 -0.500000
vn -0.866025 -0.000000 -0.500000
vn -0.866025 0.000000 0.500000
vn -0.866025 0.000000 0.500000
vn 0.000000 0.000000 1.000000
vn 0.000000 0.000000 1.000000
vn 0.866025 0.000000 0.500000
vn 0.866025 0.000000 0.500000
vn 0.866025 0.000000 -0.500000
vn 0.866025 0.000000 -0.500000
vn 0.000000 0.000000 -1.000000
vn 0.000000 0.000000 -1.000000
vn -0.866025 -0.000000 -0.500000
vn -0.866025 -0.000000 -0.500000
vn -0.866025 0.000000 0.500000
vn -0.866025 0.000000 0.500000
vn 0.000000 0.000000 1.000000
vn 0.000000 0.000000 1.000000
vn 0.866025 0.000000 0.500000
vn 0.866025 0.000000 0.500000
vn 0.866025 0.000000 -0.500000
vn 0.866025 0.000000 -0.500000
vn 0.000000 0.000000 -1.000000
vn 0.000000 0.000000 -1.000000
vn -0.866025 -0.000000 -0.500000
vn -0.866025 -0.000000 -0.500000
vn -0.866025 0.000000 0.500000
vn -0.866025 0.000000 0.500000
vn 0.000000 0.000000 1.000000
vn 0.000000 0.000000 1.000000
vn 0.000000 0.000000 -1.000000
vn 0.000000 1.000000 0.000000
vn 0.000000 -1.000000 0.000000
vn 1.000000 0.000000 0.000000
vn -1.000000 0.000000 0.000000
vn 0.000000 0.000000 1.000000
vn 0.000000 0.000000 -1.000000
vn 0.000000 1.000000 0.000000
vn 0.000000 -1.000000 0.000000
vn 1.000000 0.000000 0.000000
vn -1.000000 0.000000 0.000000
vn 0.000000 0.000000 1.000000
vn 0.000000 0.707107 0.707107
vn 0.000000 0.707107 0.707107
vn 0.000000 1.000000 0.000000
vn 0.000000 1.000000 0.000000
vn 0.000000 0.707107 -0.707107
vn 0.000000 0.707107 -0.707107
vn 0.000000 0.000000 -1.000000
vn 0.000000 0.000000 -1.000000
vn -0.000000 -0.707107 -0.707107
vn -0.000000 -0.707107 -0.707107
vn -0.000000 -1.000000 -0.000000
vn -0.000000 -1.000000 -0.000000
vn 0.000000 -0.707107 0.707107
vn 0.000000 -0.707107 0.707107
vn 0.000000 0.000000 1.000000
vn 0.000000 0.000000 1.000000
vn 0.000000 0.707107 0.707107
vn 0.000000 0.707107 0.707107
vn 0.000000 1.000000 0.000000
vn 0.000000 1.000000 0.000000
vn 0.000000 0.707107 -0.707107
vn 0.000000 0.707107 -0.707107
vn 0.000000 0.000000 -1.000000
vn 0.000000 0.000000 -1.000000
vn -0.000000 -0.707107 -0.707107
vn -0.000000 -0.707107 -0.707107
vn -0.000000 -1.000000 -0.000000
vn -0.000000 -1.000000 -0.000000
vn 0.000000 -0.707107 0.707107
vn 0.000000 -0.707107 0.707107
vn 0.000000 0.000000 1.000000
vn 0.000000 0.000000 1.000000
vn 0.000000 0.707107 0.707107
vn 0.000000 0.707107 0.707107
vn 0.000000 1.000000 0.000000
vn 0.000000 1.000000 0.000000
vn 0.000000 0.707107 -0.707107
vn 0.000000 0.707107 -0.707107
vn 0.000000 0.000000 -1.000000
vn 0.000000 0.000000 -1.000000
vn -0.000000 -0.707107 -0.707107
vn -0.000000 -0.707107 -0.707107
vn -0.000000 -1.000000 -0.000000
vn -0.000000 -1.000000 -0.000000
vn 0.000000 -0.707107 0.707107
vn 0.000000 -0.707107 0.707107
vn 0.000000 0.000000 1.000000
vn 0.006250 0.000000 -0.999980
vn 0.051760 0.864659 -0.499686
vn 0.051760 0.864659 -0.499686
vn 0.045510 0.864659 0.500294
vn 0.045510 0.864659 0.500294
vn -0.006250 0.000000 0.999980
vn -0.006250 0.000000 0.999980
vn -0.051760 -0.864659 0.499686
vn -0.051760 -0.864659 0.499686
vn -0.045510 -0.864659 -0.500294
vn -0.045510 -0.864659 -0.500294
vn 0.006250 0.000000 -0.999980
vn -0.006250 0.000000 -0.999980
vn -0.051760 0.864659 -0.499686
vn -0.051760 0.864659 -0.499686
vn -0.045510 0.864659 0.500294
vn -0.045510 0.864659 0.500294
vn 0.006250 0.000000 0.999980
vn 0.006250 0.000000 0.999980
vn 0.051760 -0.864659 0.499686
vn 0.051760 -0.864659 0.499686
vn 0.045510 -0.864659 -0.500294
vn 0.045510 -0.864659 -0.500294
vn -0.006250 0.000000 -0.999980
vn -0.006250 0.000000 -0.999980
vn 0.045510 0.864659 -0.500294
vn 0.045510 0.864659 -0.500294
vn 0.051760 0.864659 0.499686
vn 0.051760 0.864659 0.499686
vn 0.006250 0.000000 0.999980
vn 0.006250 0.000000 0.999980
vn -0.045510 -0.864659 0.500294
vn -0.045510 -0.864659 0.500294
vn -0.051760 -0.864659 -0.499686
vn -0.051760 -0.864659 -0.499686
vn -0.006250 0.000000 -0.999980
vn 0.006250 0.000000 -0.999980
vn -0.045510 0.864659 -0.500294
vn -0.045510 0.864659 -0.500294
vn -0.051760 0.864659 0.499686
vn -0.051760 0.864659 0.499686
vn -0.006250 0.000000 0.999980
vn -0.006250 0.000000 0.999980
vn 0.045510 -0.864659 0.500294
vn 0.045510 -0.864659 0.500294
vn 0.051760 -0.864659 -0.499686
vn 0.051760 -0.864659 -0.499686
vn 0.006250 0.000000 -0.999980
vn 0.006250 0.000000 -0.999980
vn 0.051760 0.864659 -0.499686
vn 0.051760 0.864659 -0.499686
vn 0.045510 0.864659 0.500294
vn 0.045510 0.864659 0.500294
vn -0.006250 0.000000 0.999980
vn -0.006250 0.000000 0.999980
vn -0.051760 -0.864659 0.499686
vn -0.051760 -0.864659 0.499686
vn -0.045510 -0.864659 -0.500294
vn -0.045510 -0.864659 -0.500294
vn 0.006250 0.000000 -0.999980
vn -0.006250 0.000000 -0.999980
vn -0.051760 0.864659 -0.499686
vn -0.051760 0.864659 -0.499686
vn -0.045510 0.864659 0.500294
vn -0.045510 0.864659 0.500294
vn 0.006250 0.000000 0.999980
vn 0.006250 0.000000 0.999980
vn 0.051760 -0.864659 0.499686
vn 0.051760 -0.864659 0.499686
vn 0.045510 -0.864659 -0.500294
vn 0.045510 -0.864659 -0.500294
vn -0.006250 0.000000 -0.999980
vn -0.006250 0.000000 -0.999980
vn 0.045510 0.864659 -0.500294
vn 0.045510 0.864659 -0.500294
vn 0.051760 0.864659 0.499686
vn 0.051760 0.864659 0.499686
vn 0.006250 0.000000 0.999980
vn 0.006250 0.000000 0.999980
vn -0.045510 -0.864659 0.500294
vn -0.045510 -0.864659 0.500294
vn -0.051760 -0.864659 -0.499686
vn -0.051760 -0.864659 -0.499686
vn -0.006250 0.000000 -0.999980
vn 0.006250 0.000000 -0.999980
vn -0.045510 0.864659 -0.500294
vn -0.045510 0.864659 -0.500294
vn -0.051760 0.864659 0.499686
vn -0.051760 0.864659 0.499686
vn -0.006250 0.000000 0.999980
vn -0.006250 0.000000 0.999980
vn 0.045510 -0.864659 0.500294
vn 0.045510 -0.864659 0.500294
vn 0.051760 -0.864659 -0.499686
vn 0.051760 -0.864659 -0.499686
vn 0.006250 0.000000 -0.999980
vn 0.006250 0.000000 -0.999980
vn 0.051760 0.864659 -0.499686
vn 0.051760 0.864659 -0.499686
vn 0.045510 0.864659 0.500294
vn 0.045510 0.864659 0.500294
vn -0.006250 0.000000 0.999980
vn -0.006250 0.000000 0.999980
vn -0.051760 -0.864659 0.499686
vn -0.051760 -0.864659 0.499686
vn -0.045510 -0.864659 -0.500294
vn -0.045510 -0.864659 -0.500294
vn 0.006250 0.000000 -0.999980
vn -0.006250 0.000000 -0.999980
vn -0.051760 0.864659 -0.499686
vn -0.051760 0.864659 -0.499686
vn -0.045510 0.864659 0.500294
vn -0.045510 0.864659 0.500294
vn 0.006250 0.000000 0.999980
vn 0.006250 0.000000 0.999980
vn 0.051760 -0.864659 0.499686
vn 0.051760 -0.864659 0.499686
vn 0.045510 -0.864659 -0.500294
vn 0.045510 -0.864659 -0.500294
vn -0.006250 0.000000 -0.999980
vn -0.006250 0.000000 -0.999980
vn 0.045510 0.864659 -0.500294
vn 0.045510 0.864659 -0.500294
vn 0.051760 0.864659 0.499686
vn 0.051760 0.864659 0.499686
vn 0.006250 0.000000 0.999980
vn 0.006250 0.000000 0.999980
vn -0.045510 -0.864659 0.500294
vn -0.045510 -0.864659 0.500294
vn -0.051760 -0.864659 -0.499686
vn -0.051760 -0.864659 -0.499686
vn -0.006250 0.000000 -0.999980
vn 0.006250 0.000000 -0.999980
vn -0.045510 0.864659 -0.500294
vn -0.045510 0.864659 -0.500294
vn -0.051760 0.864659 0.499686
vn -0.051760 0.864659 0.499686
vn -0.006250 0.000000 0.999980
vn -0.006250 0.000000 0.999980
vn 0.045510 -0.864659 0.500294
vn 0.045510 -0.864659 0.500294
vn 0.051760 -0.864659 -0.499686
vn 0.051760 -0.864659 -0.499686
vn 0.006250 0.000000 -0.999980
vn 0.006250 0.000000 -0.999980
vn 0.051760 0.864659 -0.499686
vn 0.051760 0.864659 -0.499686
vn 0.045510 0.864659 0.500294
vn 0.045510 0.864659 0.500294
vn -0.006250 0.000000 0.999980
vn -0.006250 0.000000 0.999980
vn -0.051760 -0.864659 0.499686
vn -0.051760 -0.864659 0.499686
vn -0.045510 -0.864659 -0.500294
vn -0.045510 -0.864659 -0.500294
vn 0.006250 0.000000 -0.999980
vn -0.006250 0.000000 -0.999980
vn -0.051760 0.864659 -0.499686
vn -0.051760 0.864659 -0.499686
vn -0.045510 0.864659 0.500294
vn -0.045510 0.864659 0.500294
vn 0.006250 0.000000 0.999980
vn 0.006250 0.000000 0.999980
vn 0.051760 -0.864659 0.499686
vn 0.051760 -0.864659 0.499686
vn 0.045510 -0.864659 -0.500294
vn 0.045510 -0.864659 -0.500294
vn -0.006250 0.000000 -0.999980
vn -0.006250 0.000000 -0.999980
vn 0.045510 0.864659 -0.500294
vn 0.045510 0.864659 -0.500294
vn 0.051760 0.864659 0.499686
vn 0.051760 0.864659 0.499686
vn 0.006250 0.000000 0.999980
vn 0.006250 0.000000 0.999980
vn -0.045510 -0.864659 0.500294
vn -0.045510 -0.864659 0.500294
vn -0.051760 -0.864659 -0.499686
vn -0.051760 -0.864659 -0.499686
vn -0.006250 0.000000 -0.999980
vn 0.006250 0.000000 -0.999980
vn -0.045510 0.864659 -0.500294
vn -0.045510 0.864659 -0.500294
vn -0.051760 0.864659 0.499686
vn -0.051760 0.864659 0.499686
vn -0.006250 0.000000 0.999980
vn -0.006250 0.000000 0.999980
vn 0.045510 -0.864659 0.500294
vn 0.045510 -0.864659 0.500294
vn 0.051760 -0.864659 -0.499686
vn 0.051760 -0.864659 -0.499686
vn 0.006250 0.000000 -0.999980
s 1
f 1/1/1 3/2/2 4/3/2
f 1/1/1 4/3/2 2/4/1
f 3/5/3 5/6/4 6/7/4
f 3/5/3 6/7/4 4/8/3
f 5/9/5 7/10/6 8/11/6
f 5/9/5 8/11/6 6/12/5
f 7/13/7 9/14/8 10/15/8
f 7/13/7 10/15/8 8/16/7
f 9/17/9 11/18/10 12/19/10
f 9/17/9 12/19/10 10/20/9
f 11/21/11 13/22/12 14/23/12
f 11/21/11 14/23/12 12/24/11
f 13/25/13 15/26/14 16/27/14
f 13/25/13 16/27/14 14/28/13
f 15/29/15 1/30/16 2/31/16
f 15/29/15 2/31/16 16/32/15
f 18/33/17 22/34/17 24/35/17
f 18/33/17 24/35/17 20/36/17
f 21/37/18 17/38/18 19/39/18
f 21/37/18 19/39/18 23/40/18
f 20/41/19 24/42/19 23/43/19
f 20/41/19 23/43/19 19/44/19
f 17/45/20 21/46/20 22/47/20
f 17/45/20 22/47/20 18/48/20
f 22/49/21 21/50/21 23/51/21
f 22/49/21 23/51/21 24/52/21
f 17/53/22 18/54/22 20/55/22
f 17/53/22 20/55/22 19/56/22
f 26/57/23 30/58/23 32/59/23
f 26/57/23 32/59/23 28/60/23
f 29/61/24 25/62/24 27/63/24
f 29/61/24 27/63/24 31/64/24
f 28/65/25 32/66/25 31/67/25
f 28/65/25 31/67/25 27/68/25
f 25/69/26 29/70/26 30/71/26
f 25/69/26 30/71/26 26/72/26
f 30/73/27 29/74/27 31/75/27
f 30/73/27 31/75/27 32/76/27
f 25/77/28 26/78/28 28/79/28
f 25/77/28 28/79/28 27/80/28
f 33/81/29 35/82/30 36/83/30
f 33/81/29 36/83/30 34/84/29
f 35/85/31 37/86/32 38/87/32
f 35/85/31 38/87/32 36/88/31
f 37/89/33 39/90/34 40/91/34
f 37/89/33 40/91/34 38/92/33
f 39/93/35 41/94/36 42/95/36
f 39/93/35 42/95/36 40/96/35
f 41/97/37 43/98/38 44/99/38
f 41/97/37 44/99/38 42/100/37
f 43/101/39 33/102/40 34/103/40
f 43/101/39 34/103/40 44/104/39
f 45/105/41 47/106/42 48/107/42
f 45/105/41 48/107/42 46/108/41
f 47/109/43 49/110/44 50/111/44
f 47/109/43 50/111/44 48/112/43
f 49/113/45 51/114/46 52/115/46
f 49/113/45 52/115/46 50/116/45
f 51/117/47 53/118/48 54/119/48
f 51/117/47 54/119/48 52/120/47
f 53/121/49 55/122/50 56/123/50
f 53/121/49 56/123/50 54/124/49
f 55/125/51 45/126/52 46/127/52
f 55/125/51 46/127/52 56/128/51
f 57/129/53 59/130/54 60/131/54
f 57/129/53 60/131/54 58/132/53
f 59/133/55 61/134/56 62/135/56
f 59/133/55 62/135/56 60/136/55
f 61/137/57 63/138/58 64/139/58
f 61/137/57 64/139/58 62/140/57
f 63/141/59 65/142/60 66/143/60
f 63/141/59 66/143/60 64/144/59
f 65/145/61 67/146/62 68/147/62
f 65/145/61 68/147/62 66/148/61
f 67/149/63 57/150/64 58/151/64
f 67/149/63 58/151/64 68/152/63
f 69/153/65 71/154/66 72/155/66
f 69/153/65 72/155/66 70/156/65
f 71/157/67 73/158/68 74/159/68
f 71/157/67 74/159/68 72/160/67
f 73/161/69 75/162/70 76/163/70
f 73/161/69 76/163/70 74/164/69
f 75/165/71 77/166/72 78/167/72
f 75/165/71 78/167/72 76/168/71
f 77/169/73 79/170/74 80/171/74
f 77/169/73 80/171/74 78/172/73
f 79/173/75 69/174/76 70/175/76
f 79/173/75 70/175/76 80/176/75
f 81/177/77 83/178/78 84/179/78
f 81/177/77 84/179/78 82/180/77
f 83/181/79 85/182/80 86/183/80
f 83/181/79 86/183/80 84/184/79
f 85/185/81 87/186/82 88/187/82
f 85/185/81 88/187/82 86/188/81
f 87/189/83 89/190/84 90/191/84
f 87/189/83 90/191/84 88/192/83
f 89/193/85 91/194/86 92/195/86
f 89/193/85 92/195/86 90/196/85
f 91/197/87 81/198/88 82/199/88
f 91/197/87 82/199/88 92/200/87
f 93/201/89 95/202/90 96/203/90
f 93/201/89 96/203/90 94/204/89
f 95/205/91 97/206/92 98/207/92
f 95/205/91 98/207/92 96/208/91
f 97/209/93 99/210/94 100/211/94
f 97/209/93 100/211/94 98/212/93
f 99/213/95 101/214/96 102/215/96
f 99/213/95 102/215/96 100/216/95
f 101/217/97 103/218/98 104/219/98
f 101/217/97 104/219/98 102/220/97
f 103/221/99 93/222/100 94/223/100
f 103/221/99 94/223/100 104/224/99
f 106/225/101 110/226/101 112/227/101
f 106/225/101 112/227/101 108/228/101
f 109/229/102 105/230/102 107/231/102
f 109/229/102 107/231/102 111/232/102
f 108/233/103 112/234/103 111/235/103
f 108/233/103 111/235/103 107/236/103
f 105/237/104 109/238/104 110/239/104
f 105/237/104 110/239/104 106/240/104
f 110/241/105 109/242/105 111/243/105
f 110/241/105 111/243/105 112/244/105
f 105/245/106 106/246/106 108/247/106
f 105/245/106 108/247/106 107/248/106
f 114/249/107 118/250/107 120/251/107
f 114/249/107 120/251/107 116/252/107
f 117/253/108 113/254/108 115/255/108
f 117/253/108 115/255/108 119/256/108
f 116/257/109 120/258/109 119/259/109
f 116/257/109 119/259/109 115/260/109
f 113/261/110 117/262/110 118/263/110
f 113/261/110 118/263/110 114/264/110
f 118/265/111 117/266/111 119/267/111
f 118/265/111 119/267/111 120/268/111
f 113/269/112 114/270/112 116/271/112
f 113/269/112 116/271/112 115/272/112
f 121/273/113 123/274/114 124/275/114
f 121/273/113 124/275/114 122/276/113
f 123/277/115 125/278/116 126/279/116
f 123/277/115 126/279/116 124/280/115
f 125/281/117 127/282/118 128/283/118
f 125/281/117 128/283/118 126/284/117
f 127/285/119 129/286/120 130/287/120
f 127/285/119 130/287/120 128/288/119
f 129/289/121 131/290/122 132/291/122
f 129/289/121 132/291/122 130/292/121
f 131/293/123 133/294/124 134/295/124
f 131/293/123 134/295/124 132/296/123
f 133/297/125 135/298/126 136/299/126
f 133/297/125 136/299/126 134/300/125
f 135/301/127 121/302/128 122/303/128
f 135/301/127 122/303/128 136/304/127
f 137/305/129 139/306/130 140/307/130
f 137/305/129 140/307/130 138/308/129
f 139/309/131 141/310/132 142/311/132
f 139/309/131 142/311/132 140/312/131
f 141/313/133 143/314/134 144/315/134
f 141/313/133 144/315/134 142/316/133
f 143/317/135 145/318/136 146/319/136
f 143/317/135 146/319/136 144/320/135
f 145/321/137 147/322/138 148/323/138
f 145/321/137 148/323/138 146/324/137
f 147/325/139 149/326/140 150/327/140
f 147/325/139 150/327/140 148/328/139
f 149/329/141 151/330/142 152/331/142
f 149/329/141 152/331/142 150/332/141
f 151/333/143 137/334/144 138/335/144
f 151/333/143 138/335/144 152/336/143
f 153/337/145 155/338/146 156/339/146
f 153/337/145 156/339/146 154/340/145
f 155/341/147 157/342/148 158/343/148
f 155/341/147 158/343/148 156/344/147
f 157/345/149 159/346/150 160/347/150
f 157/345/149 160/347/150 158/348/149
f 159/349/151 161/350/152 162/351/152
f 159/349/151 162/351/152 160/352/151
f 161/353/153 163/354/154 164/355/154
f 161/353/153 164/355/154 162/356/153
f 163/357/155 165/358/156 166/359/156
f 163/357/155 166/359/156 164/360/155
f 165/361/157 167/362/158 168/363/158
f 165/361/157 168/363/158 166/364/157
f 167/365/159 153/366/160 154/367/160
f 167/365/159 154/367/160 168/368/159
f 169/369/161 171/370/162 172/371/162
f 169/369/161 172/371/162 170/372/161
f 171/373/163 173/374/164 174/375/164
f 171/373/163 174/375/164 172/376/163
f 173/377/165 175/378/166 176/379/166
f 173/377/165 176/379/166 174/380/165
f 175/381/167 177/382/168 178/383/168
f 175/381/167 178/383/168 176/384/167
f 177/385/169 179/386/170 180/387/170
f 177/385/169 180/387/170 178/388/169
f 179/389/171 169/390/172 170/391/172
f 179/389/171 170/391/172 180/392/171
f 181/393/173 183/394/174 184/395/174
f 181/393/173 184/395/174 182/396/173
f 183/397/175 185/398/176 186/399/176
f 183/397/175 186/399/176 184/400/175
f 185/401/177 187/402/178 188/403/178
f 185/401/177 188/403/178 186/404/177
f 187/405/179 189/406/180 190/407/180
f 187/405/179 190/407/180 188/408/179
f 189/409/181 191/410/182 192/411/182
f 189/409/181 192/411/182 190/412/181
f 191/413/183 181/414/184 182/415/184
f 191/413/183 182/415/184 192/416/183
f 193/417/185 195/418/186 196/419/186
f 193/417/185 196/419/186 194/420/185
f 195/421/187 197/422/188 198/423/188
f 195/421/187 198/423/188 196/424/187
f 197/425/189 199/426/190 200/427/190
f 197/425/189 200/427/190 198/428/189
f 199/429/191 201/430/192 202/431/192
f 199/429/191 202/431/192 200/432/191
f 201/433/193 203/434/194 204/435/194
f 201/433/193 204/435/194 202/436/193
f 203/437/195 193/438/196 194/439/196
f 203/437/195 194/439/196 204/440/195
f 205/441/197 207/442/198 208/443/198
f 205/441/197 208/443/198 206/444/197
f 207/445/199 209/446/200 210/447/200
f 207/445/199 210/447/200 208/448/199
f 209/449/201 211/450/202 212/451/202
f 209/449/201 212/451/202 210/452/201
f 211/453/203 213/454/204 214/455/204
f 211/453/203 214/455/204 212/456/203
f 213/457/205 215/458/206 216/459/206
f 213/457/205 216/459/206 214/460/205
f 215/461/207 205/462/208 206/463/208
f 215/461/207 206/463/208 216/464/207
f 217/465/209 219/466/210 220/467/210
f 217/465/209 220/467/210 218/468/209
f 219/469/211 221/470/212 222/471/212
f 219/469/211 222/471/212 220/472/211
f 221/473/213 223/474/214 224/475/214
f 221/473/213 224/475/214 222/476/213
f 223/477/215 225/478/216 226/479/216
f 223/477/215 226/479/216 224/480/215
f 225/481/217 227/482/218 228/483/218
f 225/481/217 228/483/218 226/484/217
f 227/485/219 217/486/220 218/487/220
f 227/485/219 218/487/220 228/488/219
f 229/489/221 231/490/222 232/491/222
f 229/489/221 232/491/222 230/492/221
f 231/493/223 233/494/224 234/495/224
f 231/493/223 234/495/224 232/496/223
f 233/497/225 235/498/226 236/499/226
f 233/497/225 236/499/226 234/500/225
f 235/501/227 237/502/228 238/503/228
f 235/501/227 238/503/228 236/504/227
f 237/505/229 239/506/230 240/507/230
f 237/505/229 240/507/230 238/508/229
f 239/509/231 229/510/232 230/511/232
f 239/509/231 230/511/232 240/512/231
f 241/513/233 243/514/234 244/515/234
f 241/513/233 244/515/234 242/516/233
f 243/517/235 245/518/236 246/519/236
f 243/517/235 246/519/236 244/520/235
f 245/521/237 247/522/238 248/523/238
f 245/521/237 248/523/238 246/524/237
f 247/525/239 249/526/240 250/527/240
f 247/525/239 250/527/240 248/528/239
f 249/529/241 251/530/242 252/531/242
f 249/529/241 252/531/242 250/532/241
f 251/533/243 241/534/244 242/535/244
f 251/533/243 242/535/244 252/536/243
f 253/537/245 255/538/246 256/539/246
f 253/537/245 256/539/246 254/540/245
f 255/541/247 257/542/248 258/543/248
f 255/541/247 258/543/248 256/544/247
f 257/545/249 259/546/250 260/547/250
f 257/545/249 260/547/250 258/548/249
f 259/549/251 261/550/252 262/551/252
f 259/549/251 262/551/252 260/552/251
f 261/553/253 263/554/254 264/555/254
f 261/553/253 264/555/254 262/556/253
f 263/557/255 253/558/256 254/559/256
f 263/557/255 254/559/256 264/560/255
f 265/561/257 267/562/258 268/563/258
f 265/561/257 268/563/258 266/564/257
f 267/565/259 269/566/260 270/567/260
f 267/565/259 270/567/260 268/568/259
f 269/569/261 271/570/262 272/571/262
f 269/569/261 272/571/262 270/572/261
f 271/573/263 273/574/264 274/575/264
f 271/573/263 274/575/264 272/576/263
f 273/577/265 275/578/266 276/579/266
f 273/577/265 276/579/266 274/580/265
f 275/581/267 265/582/268 266/583/268
f 275/581/267 266/583/268 276/584/267
f 277/585/269 279/586/270 280/587/270
f 277/585/269 280/587/270 278/588/269
f 279/589/271 281/590/272 282/591/272
f 279/589/271 282/591/272 280/592/271
f 281/593/273 283/594/274 284/595/274
f 281/593/273 284/595/274 282/596/273
f 283/597/275 285/598/276 286/599/276
f 283/597/275 286/599/276 284/600/275
f 285/601/277 287/602/278 288/603/278
f 285/601/277 288/603/278 286/604/277
f 287/605/279 277/606/280 278/607/280
f 287/605/279 278/607/280 288/608/279
f 289/609/281 291/610/282 292/611/282
f 289/609/281 292/611/282 290/612/281
f 291/613/283 293/614/284 294/615/284
f 291/613/283 294/615/284 292/616/283
f 293/617/285 295/618/286 296/619/286
f 293/617/285 296/619/286 294/620/285
f 295/621/287 297/622/288 298/623/288
f 295/621/287 298/623/288 296/624/287
f 297/625/289 299/626/290 300/627/290
f 297/625/289 300/627/290 298/628/289
f 299/629/291 289/630/292 290/631/292
f 299/629/291 290/631/292 300/632/291
f 301/633/293 303/634/294 304/635/294
f 301/633/293 304/635/294 302/636/293
f 303/637/295 305/638/296 306/639/296
f 303/637/295 306/639/296 304/640/295
f 305/641/297 307/642/298 308/643/298
f 305/641/297 308/643/298 306/644/297
f 307/645/299 309/646/300 310/647/300
f 307/645/299 310/647/300 308/648/299
f 309/649/301 311/650/302 312/651/302
f 309/649/301 312/651/302 310/652/301
f 311/653/303 301/654/304 302/655/304
f 311/653/303 302/655/304 312/656/303
f 313/657/305 315/658/306 316/659/306
f 313/657/305 316/659/306 314/660/305
f 315/661/307 317/662/308 318/663/308
f 315/661/307 318/663/308 316/664/307
f 317/665/309 319/666/310 320/667/310
f 317/665/309 320/667/310 318/668/309
f 319/669/311 321/670/312 322/671/312
f 319/669/311 322/671/312 320/672/311
f 321/673/313 323/674/314 324/675/314
f 321/673/313 324/675/314 322/676/313
f 323/677/315 313/678/316 314/679/316
f 323/677/315 314/679/316 324/680/315
f 325/681/317 327/682/318 328/683/318
f 325/681/317 328/683/318 326/684/317
f 327/685/319 329/686/320 330/687/320
f 327/685/319 330/687/320 328/688/319
f 329/689/321 331/690/322 332/691/322
f 329/689/321 332/691/322 330/692/321
f 331/693/323 333/694/324 334/695/324
f 331/693/323 334/695/324 332/696/323
f 333/697/325 335/698/326 336/699/326
f 333/697/325 336/699/326 334/700/325
f 335/701/327 325/702/328 326/703/328
f 335/701/327 326/703/328 336/704/327
f 337/705/329 339/706/330 340/707/330
f 337/705/329 340/707/330 338/708/329
f 339/709/331 341/710/332 342/711/332
f 339/709/331 342/711/332 340/712/331
f 341/713/333 343/714/334 344/715/334
f 341/713/333 344/715/334 342/716/333
f 343/717/335 345/718/336 346/719/336
f 343/717/335 346/719/336 344/720/335
f 345/721/337 347/722/338 348/723/338
f 345/721/337 348/723/338 346/724/337
f 347/725/339 337/726/340 338/727/340
f 347/725/339 338/727/340 348/728/339
f 349/729/341 351/730/342 352/731/342
f 349/729/341 352/731/342 350/732/341
f 351/733/343 353/734/344 354/735/344
f 351/733/343 354/735/344 352/736/343
f 353/737/345 355/738/346 356/739/346
f 353/737/345 356/739/346 354/740/345
f 355/741/347 357/742/348 358/743/348
f 355/741/347 358/743/348 356/744/347
f 357/745/349 359/746/350 360/747/350
f 357/745/349 360/747/350 358/748/349
f 359/749/351 349/750/352 350/751/352
f 359/749/351 350/751/352 360/752/351
