# Wavefront OBJ: SM_Stall_CasterWheel
o SM_Stall_CasterWheel
v -0.040000 -0.006000 -0.040000
v -0.040000 -0.006000 0.040000
v -0.040000 0.000000 -0.040000
v -0.040000 0.000000 0.040000
v 0.040000 -0.006000 -0.040000
v 0.040000 -0.006000 0.040000
v 0.040000 0.000000 -0.040000
v 0.040000 0.000000 0.040000
v 0.000000 -0.006000 -0.028000
v 0.000000 -0.020000 -0.028000
v 0.014000 -0.006000 -0.024249
v 0.014000 -0.020000 -0.024249
v 0.024249 -0.006000 -0.014000
v 0.024249 -0.020000 -0.014000
v 0.028000 -0.006000 -0.000000
v 0.028000 -0.020000 -0.000000
v 0.024249 -0.006000 0.014000
v 0.024249 -0.020000 0.014000
v 0.014000 -0.006000 0.024249
v 0.014000 -0.020000 0.024249
v 0.000000 -0.006000 0.028000
v 0.000000 -0.020000 0.028000
v -0.014000 -0.006000 0.024249
v -0.014000 -0.020000 0.024249
v -0.024249 -0.006000 0.014000
v -0.024249 -0.020000 0.014000
v -0.028000 -0.006000 0.000000
v -0.028000 -0.020000 0.000000
v -0.024249 -0.006000 -0.014000
v -0.024249 -0.020000 -0.014000
v -0.014000 -0.006000 -0.024249
v -0.014000 -0.020000 -0.024249
v 0.000000 -0.006000 0.000000
v 0.000000 -0.020000 0.000000
v -0.027500 -0.065000 -0.022000
v -0.027500 -0.065000 0.022000
v -0.027500 -0.018000 -0.022000
v -0.027500 -0.018000 0.022000
v -0.022500 -0.065000 -0.022000
v -0.022500 -0.065000 0.022000
v -0.022500 -0.018000 -0.022000
v -0.022500 -0.018000 0.022000
v 0.022500 -0.065000 -0.022000
v 0.022500 -0.065000 0.022000
v 0.022500 -0.018000 -0.022000
v 0.022500 -0.018000 0.022000
v 0.027500 -0.065000 -0.022000
v 0.027500 -0.065000 0.022000
v 0.027500 -0.018000 -0.022000
v 0.027500 -0.018000 0.022000
v -0.030500 -0.050000 -0.007000
v 0.030500 -0.050000 -0.007000
v -0.030500 -0.045050 -0.004950
v 0.030500 -0.045050 -0.004950
v -0.030500 -0.043000 -0.000000
v 0.030500 -0.043000 -0.000000
v -0.030500 -0.045050 0.004950
v 0.030500 -0.045050 0.004950
v -0.030500 -0.050000 0.007000
v 0.030500 -0.050000 0.007000
v -0.030500 -0.054950 0.004950
v 0.030500 -0.054950 0.004950
v -0.030500 -0.057000 0.000000
v 0.030500 -0.057000 0.000000
v -0.030500 -0.054950 -0.004950
v 0.030500 -0.054950 -0.004950
v -0.030500 -0.050000 0.000000
v 0.030500 -0.050000 0.000000
v -0.019000 -0.050000 -0.050000
v 0.019000 -0.050000 -0.050000
v -0.019000 -0.034549 -0.047553
v 0.019000 -0.034549 -0.047553
v -0.019000 -0.020611 -0.040451
v 0.019000 -0.020611 -0.040451
v -0.019000 -0.009549 -0.029389
v 0.019000 -0.009549 -0.029389
v -0.019000 -0.002447 -0.015451
v 0.019000 -0.002447 -0.015451
v -0.019000 0.000000 -0.000000
v 0.019000 0.000000 -0.000000
v -0.019000 -0.002447 0.015451
v 0.019000 -0.002447 0.015451
v -0.019000 -0.009549 0.029389
v 0.019000 -0.009549 0.029389
v -0.019000 -0.020611 0.040451
v 0.019000 -0.020611 0.040451
v -0.019000 -0.034549 0.047553
v 0.019000 -0.034549 0.047553
v -0.019000 -0.050000 0.050000
v 0.019000 -0.050000 0.050000
v -0.019000 -0.065451 0.047553
v 0.019000 -0.065451 0.047553
v -0.019000 -0.079389 0.040451
v 0.019000 -0.079389 0.040451
v -0.019000 -0.090451 0.029389
v 0.019000 -0.090451 0.029389
v -0.019000 -0.097553 0.015451
v 0.019000 -0.097553 0.015451
v -0.019000 -0.100000 0.000000
v 0.019000 -0.100000 0.000000
v -0.019000 -0.097553 -0.015451
v 0.019000 -0.097553 -0.015451
v -0.019000 -0.090451 -0.029389
v 0.019000 -0.090451 -0.029389
v -0.019000 -0.079389 -0.040451
v 0.019000 -0.079389 -0.040451
v -0.019000 -0.065451 -0.047553
v 0.019000 -0.065451 -0.047553
v -0.019000 -0.050000 0.000000
v 0.019000 -0.050000 0.000000
v -0.015000 -0.035000 0.025000
v -0.015000 -0.035000 0.060000
v -0.015000 -0.025000 0.025000
v -0.015000 -0.025000 0.060000
v 0.015000 -0.035000 0.025000
v 0.015000 -0.035000 0.060000
v 0.015000 -0.025000 0.025000
v 0.015000 -0.025000 0.060000
vt 0.000000 0.000000
vt 0.080000 0.000000
vt 0.080000 0.006000
vt 0.000000 0.006000
vt 0.000000 0.000000
vt 0.080000 0.000000
vt 0.080000 0.006000
vt 0.000000 0.006000
vt 0.000000 0.000000
vt 0.080000 0.000000
vt 0.080000 0.080000
vt 0.000000 0.080000
vt 0.000000 0.000000
vt 0.080000 0.000000
vt 0.080000 0.080000
vt 0.000000 0.080000
vt 0.000000 0.000000
vt 0.080000 0.000000
vt 0.080000 0.006000
vt 0.000000 0.006000
vt 0.000000 0.000000
vt 0.080000 0.000000
vt 0.080000 0.006000
vt 0.000000 0.006000
vt 0.000000 0.000000
vt 0.083333 0.000000
vt 0.083333 0.014000
vt 0.000000 0.014000
vt 0.083333 0.000000
vt 0.166667 0.000000
vt 0.166667 0.014000
vt 0.083333 0.014000
vt 0.166667 0.000000
vt 0.250000 0.000000
vt 0.250000 0.014000
vt 0.166667 0.014000
vt 0.250000 0.000000
vt 0.333333 0.000000
vt 0.333333 0.014000
vt 0.250000 0.014000
vt 0.333333 0.000000
vt 0.416667 0.000000
vt 0.416667 0.014000
vt 0.333333 0.014000
vt 0.416667 0.000000
vt 0.500000 0.000000
vt 0.500000 0.014000
vt 0.416667 0.014000
vt 0.500000 0.000000
vt 0.583333 0.000000
vt 0.583333 0.014000
vt 0.500000 0.014000
vt 0.583333 0.000000
vt 0.666667 0.000000
vt 0.666667 0.014000
vt 0.583333 0.014000
vt 0.666667 0.000000
vt 0.750000 0.000000
vt 0.750000 0.014000
vt 0.666667 0.014000
vt 0.750000 0.000000
vt 0.833333 0.000000
vt 0.833333 0.014000
vt 0.750000 0.014000
vt 0.833333 0.000000
vt 0.916667 0.000000
vt 0.916667 0.014000
vt 0.833333 0.014000
vt 0.916667 0.000000
vt 1.000000 0.000000
vt 1.000000 0.014000
vt 0.916667 0.014000
vt 0.500000 0.500000
vt 1.000000 0.500000
vt 0.933013 0.750000
vt 0.933013 0.750000
vt 0.750000 0.933013
vt 0.750000 0.933013
vt 0.500000 1.000000
vt 0.500000 1.000000
vt 0.250000 0.933013
vt 0.250000 0.933013
vt 0.066987 0.750000
vt 0.066987 0.750000
vt 0.000000 0.500000
vt 0.000000 0.500000
vt 0.066987 0.250000
vt 0.066987 0.250000
vt 0.250000 0.066987
vt 0.250000 0.066987
vt 0.500000 0.000000
vt 0.500000 0.000000
vt 0.750000 0.066987
vt 0.750000 0.066987
vt 0.933013 0.250000
vt 0.933013 0.250000
vt 1.000000 0.500000
vt 0.000000 0.000000
vt 0.005000 0.000000
vt 0.005000 0.047000
vt 0.000000 0.047000
vt 0.000000 0.000000
vt 0.005000 0.000000
vt 0.005000 0.047000
vt 0.000000 0.047000
vt 0.000000 0.000000
vt 0.005000 0.000000
vt 0.005000 0.044000
vt 0.000000 0.044000
vt 0.000000 0.000000
vt 0.005000 0.000000
vt 0.005000 0.044000
vt 0.000000 0.044000
vt 0.000000 0.000000
vt 0.044000 0.000000
vt 0.044000 0.047000
vt 0.000000 0.047000
vt 0.000000 0.000000
vt 0.044000 0.000000
vt 0.044000 0.047000
vt 0.000000 0.047000
vt 0.000000 0.000000
vt 0.005000 0.000000
vt 0.005000 0.047000
vt 0.000000 0.047000
vt 0.000000 0.000000
vt 0.005000 0.000000
vt 0.005000 0.047000
vt 0.000000 0.047000
vt 0.000000 0.000000
vt 0.005000 0.000000
vt 0.005000 0.044000
vt 0.000000 0.044000
vt 0.000000 0.000000
vt 0.005000 0.000000
vt 0.005000 0.044000
vt 0.000000 0.044000
vt 0.000000 0.000000
vt 0.044000 0.000000
vt 0.044000 0.047000
vt 0.000000 0.047000
vt 0.000000 0.000000
vt 0.044000 0.000000
vt 0.044000 0.047000
vt 0.000000 0.047000
vt 0.000000 0.000000
vt 0.125000 0.000000
vt 0.125000 0.061000
vt 0.000000 0.061000
vt 0.125000 0.000000
vt 0.250000 0.000000
vt 0.250000 0.061000
vt 0.125000 0.061000
vt 0.250000 0.000000
vt 0.375000 0.000000
vt 0.375000 0.061000
vt 0.250000 0.061000
vt 0.375000 0.000000
vt 0.500000 0.000000
vt 0.500000 0.061000
vt 0.375000 0.061000
vt 0.500000 0.000000
vt 0.625000 0.000000
vt 0.625000 0.061000
vt 0.500000 0.061000
vt 0.625000 0.000000
vt 0.750000 0.000000
vt 0.750000 0.061000
vt 0.625000 0.061000
vt 0.750000 0.000000
vt 0.875000 0.000000
vt 0.875000 0.061000
vt 0.750000 0.061000
vt 0.875000 0.000000
vt 1.000000 0.000000
vt 1.000000 0.061000
vt 0.875000 0.061000
vt 0.500000 0.500000
vt 1.000000 0.500000
vt 0.853553 0.853553
vt 0.853553 0.853553
vt 0.500000 1.000000
vt 0.500000 1.000000
vt 0.146447 0.853553
vt 0.146447 0.853553
vt 0.000000 0.500000
vt 0.000000 0.500000
vt 0.146447 0.146447
vt 0.146447 0.146447
vt 0.500000 0.000000
vt 0.500000 0.000000
vt 0.853553 0.146447
vt 0.853553 0.146447
vt 1.000000 0.500000
vt 0.000000 0.000000
vt 0.050000 0.000000
vt 0.050000 0.038000
vt 0.000000 0.038000
vt 0.050000 0.000000
vt 0.100000 0.000000
vt 0.100000 0.038000
vt 0.050000 0.038000
vt 0.100000 0.000000
vt 0.150000 0.000000
vt 0.150000 0.038000
vt 0.100000 0.038000
vt 0.150000 0.000000
vt 0.200000 0.000000
vt 0.200000 0.038000
vt 0.150000 0.038000
vt 0.200000 0.000000
vt 0.250000 0.000000
vt 0.250000 0.038000
vt 0.200000 0.038000
vt 0.250000 0.000000
vt 0.300000 0.000000
vt 0.300000 0.038000
vt 0.250000 0.038000
vt 0.300000 0.000000
vt 0.350000 0.000000
vt 0.350000 0.038000
vt 0.300000 0.038000
vt 0.350000 0.000000
vt 0.400000 0.000000
vt 0.400000 0.038000
vt 0.350000 0.038000
vt 0.400000 0.000000
vt 0.450000 0.000000
vt 0.450000 0.038000
vt 0.400000 0.038000
vt 0.450000 0.000000
vt 0.500000 0.000000
vt 0.500000 0.038000
vt 0.450000 0.038000
vt 0.500000 0.000000
vt 0.550000 0.000000
vt 0.550000 0.038000
vt 0.500000 0.038000
vt 0.550000 0.000000
vt 0.600000 0.000000
vt 0.600000 0.038000
vt 0.550000 0.038000
vt 0.600000 0.000000
vt 0.650000 0.000000
vt 0.650000 0.038000
vt 0.600000 0.038000
vt 0.650000 0.000000
vt 0.700000 0.000000
vt 0.700000 0.038000
vt 0.650000 0.038000
vt 0.700000 0.000000
vt 0.750000 0.000000
vt 0.750000 0.038000
vt 0.700000 0.038000
vt 0.750000 0.000000
vt 0.800000 0.000000
vt 0.800000 0.038000
vt 0.750000 0.038000
vt 0.800000 0.000000
vt 0.850000 0.000000
vt 0.850000 0.038000
vt 0.800000 0.038000
vt 0.850000 0.000000
vt 0.900000 0.000000
vt 0.900000 0.038000
vt 0.850000 0.038000
vt 0.900000 0.000000
vt 0.950000 0.000000
vt 0.950000 0.038000
vt 0.900000 0.038000
vt 0.950000 0.000000
vt 1.000000 0.000000
vt 1.000000 0.038000
vt 0.950000 0.038000
vt 0.500000 0.500000
vt 1.000000 0.500000
vt 0.975528 0.654508
vt 0.975528 0.654508
vt 0.904508 0.793893
vt 0.904508 0.793893
vt 0.793893 0.904508
vt 0.793893 0.904508
vt 0.654508 0.975528
vt 0.654508 0.975528
vt 0.500000 1.000000
vt 0.500000 1.000000
vt 0.345492 0.975528
vt 0.345492 0.975528
vt 0.206107 0.904508
vt 0.206107 0.904508
vt 0.095492 0.793893
vt 0.095492 0.793893
vt 0.024472 0.654508
vt 0.024472 0.654508
vt 0.000000 0.500000
vt 0.000000 0.500000
vt 0.024472 0.345492
vt 0.024472 0.345492
vt 0.095492 0.206107
vt 0.095492 0.206107
vt 0.206107 0.095492
vt 0.206107 0.095492
vt 0.345492 0.024472
vt 0.345492 0.024472
vt 0.500000 0.000000
vt 0.500000 0.000000
vt 0.654508 0.024472
vt 0.654508 0.024472
vt 0.793893 0.095492
vt 0.793893 0.095492
vt 0.904508 0.206107
vt 0.904508 0.206107
vt 0.975528 0.345492
vt 0.975528 0.345492
vt 1.000000 0.500000
vt 0.000000 0.000000
vt 0.030000 0.000000
vt 0.030000 0.010000
vt 0.000000 0.010000
vt 0.000000 0.000000
vt 0.030000 0.000000
vt 0.030000 0.010000
vt 0.000000 0.010000
vt 0.000000 0.000000
vt 0.030000 0.000000
vt 0.030000 0.035000
vt 0.000000 0.035000
vt 0.000000 0.000000
vt 0.030000 0.000000
vt 0.030000 0.035000
vt 0.000000 0.035000
vt 0.000000 0.000000
vt 0.035000 0.000000
vt 0.035000 0.010000
vt 0.000000 0.010000
vt 0.000000 0.000000
vt 0.035000 0.000000
vt 0.035000 0.010000
vt 0.000000 0.010000
vn 0.000000 0.000000 1.000000
vn 0.000000 0.000000 -1.000000
vn 0.000000 1.000000 0.000000
vn 0.000000 -1.000000 0.000000
vn 1.000000 0.000000 0.000000
vn -1.000000 0.000000 0.000000
vn 0.000000 0.000000 -1.000000
vn 0.500000 0.000000 -0.866025
vn 0.500000 0.000000 -0.866025
vn 0.866025 0.000000 -0.500000
vn 0.866025 0.000000 -0.500000
vn 1.000000 0.000000 -0.000000
vn 1.000000 0.000000 -0.000000
vn 0.866025 0.000000 0.500000
vn 0.866025 0.000000 0.500000
vn 0.500000 0.000000 0.866025
vn 0.500000 0.000000 0.866025
vn 0.000000 0.000000 1.000000
vn 0.000000 0.000000 1.000000
vn -0.500000 -0.000000 0.866025
vn -0.500000 -0.000000 0.866025
vn -0.866025 -0.000000 0.500000
vn -0.866025 -0.000000 0.500000
vn -1.000000 -0.000000 0.000000
vn -1.000000 -0.000000 0.000000
vn -0.866025 0.000000 -0.500000
vn -0.866025 0.000000 -0.500000
vn -0.500000 0.000000 -0.866025
vn -0.500000 0.000000 -0.866025
vn 0.000000 0.000000 -1.000000
vn -0.000000 1.000000 -0.000000
vn 0.000000 -1.000000 0.000000
vn 0.000000 0.000000 1.000000
vn 0.000000 0.000000 -1.000000
vn 0.000000 1.000000 0.000000
vn 0.000000 -1.000000 0.000000
vn 1.000000 0.000000 0.000000
vn -1.000000 0.000000 0.000000
vn 0.000000 0.000000 1.000000
vn 0.000000 0.000000 -1.000000
vn 0.000000 1.000000 0.000000
vn 0.000000 -1.000000 0.000000
vn 1.000000 0.000000 0.000000
vn -1.000000 0.000000 0.000000
vn 0.000000 0.000000 -1.000000
vn 0.000000 0.707107 -0.707107
vn 0.000000 0.707107 -0.707107
vn 0.000000 1.000000 -0.000000
vn 0.000000 1.000000 -0.000000
vn -0.000000 0.707107 0.707107
vn -0.000000 0.707107 0.707107
vn -0.000000 0.000000 1.000000
vn -0.000000 0.000000 1.000000
vn 0.000000 -0.707107 0.707107
vn 0.000000 -0.707107 0.707107
vn 0.000000 -1.000000 0.000000
vn 0.000000 -1.000000 0.000000
vn 0.000000 -0.707107 -0.707107
vn 0.000000 -0.707107 -0.707107
vn 0.000000 0.000000 -1.000000
vn -1.000000 -0.000000 -0.000000
vn 1.000000 0.000000 0.000000
vn 0.000000 0.000000 -1.000000
vn 0.000000 0.309017 -0.951057
vn 0.000000 0.309017 -0.951057
vn 0.000000 0.587785 -0.809017
vn 0.000000 0.587785 -0.809017
vn 0.000000 0.809017 -0.587785
vn 0.000000 0.809017 -0.587785
vn 0.000000 0.951057 -0.309017
vn 0.000000 0.951057 -0.309017
vn 0.000000 1.000000 -0.000000
vn 0.000000 1.000000 -0.000000
vn -0.000000 0.951057 0.309017
vn -0.000000 0.951057 0.309017
vn -0.000000 0.809017 0.587785
vn -0.000000 0.809017 0.587785
vn -0.000000 0.587785 0.809017
vn -0.000000 0.587785 0.809017
vn -0.000000 0.309017 0.951057
vn -0.000000 0.309017 0.951057
vn -0.000000 0.000000 1.000000
vn -0.000000 0.000000 1.000000
vn 0.000000 -0.309017 0.951057
vn 0.000000 -0.309017 0.951057
vn 0.000000 -0.587785 0.809017
vn 0.000000 -0.587785 0.809017
vn 0.000000 -0.809017 0.587785
vn 0.000000 -0.809017 0.587785
vn 0.000000 -0.951057 0.309017
vn 0.000000 -0.951057 0.309017
vn 0.000000 -1.000000 0.000000
vn 0.000000 -1.000000 0.000000
vn 0.000000 -0.951057 -0.309017
vn 0.000000 -0.951057 -0.309017
vn 0.000000 -0.809017 -0.587785
vn 0.000000 -0.809017 -0.587785
vn 0.000000 -0.587785 -0.809017
vn 0.000000 -0.587785 -0.809017
vn 0.000000 -0.309017 -0.951057
vn 0.000000 -0.309017 -0.951057
vn 0.000000 0.000000 -1.000000
vn -1.000000 -0.000000 -0.000000
vn 1.000000 0.000000 0.000000
vn 0.000000 0.000000 1.000000
vn 0.000000 0.000000 -1.000000
vn 0.000000 1.000000 0.000000
vn 0.000000 -1.000000 0.000000
vn 1.000000 0.000000 0.000000
vn -1.000000 0.000000 0.000000
f 2/1/1 6/2/1 8/3/1
f 2/1/1 8/3/1 4/4/1
f 5/5/2 1/6/2 3/7/2
f 5/5/2 3/7/2 7/8/2
f 4/9/3 8/10/3 7/11/3
f 4/9/3 7/11/3 3/12/3
f 1/13/4 5/14/4 6/15/4
f 1/13/4 6/15/4 2/16/4
f 6/17/5 5/18/5 7/19/5
f 6/17/5 7/19/5 8/20/5
f 1/21/6 2/22/6 4/23/6
f 1/21/6 4/23/6 3/24/6
f 9/25/7 11/26/8 12/27/8
f 9/25/7 12/27/8 10/28/7
f 11/29/9 13/30/10 14/31/10
f 11/29/9 14/31/10 12/32/9
f 13/33/11 15/34/12 16/35/12
f 13/33/11 16/35/12 14/36/11
f 15/37/13 17/38/14 18/39/14
f 15/37/13 18/39/14 16/40/13
f 17/41/15 19/42/16 20/43/16
f 17/41/15 20/43/16 18/44/15
f 19/45/17 21/46/18 22/47/18
f 19/45/17 22/47/18 20/48/17
f 21/49/19 23/50/20 24/51/20
f 21/49/19 24/51/20 22/52/19
f 23/53/21 25/54/22 26/55/22
f 23/53/21 26/55/22 24/56/21
f 25/57/23 27/58/24 28/59/24
f 25/57/23 28/59/24 26/60/23
f 27/61/25 29/62/26 30/63/26
f 27/61/25 30/63/26 28/64/25
f 29/65/27 31/66/28 32/67/28
f 29/65/27 32/67/28 30/68/27
f 31/69/29 9/70/30 10/71/30
f 31/69/29 10/71/30 32/72/29
f 33/73/31 11/75/31 9/74/31
f 34/73/32 10/74/32 12/75/32
f 33/73/31 13/77/31 11/76/31
f 34/73/32 12/76/32 14/77/32
f 33/73/31 15/79/31 13/78/31
f 34/73/32 14/78/32 16/79/32
f 33/73/31 17/81/31 15/80/31
f 34/73/32 16/80/32 18/81/32
f 33/73/31 19/83/31 17/82/31
f 34/73/32 18/82/32 20/83/32
f 33/73/31 21/85/31 19/84/31
f 34/73/32 20/84/32 22/85/32
f 33/73/31 23/87/31 21/86/31
f 34/73/32 22/86/32 24/87/32
f 33/73/31 25/89/31 23/88/31
f 34/73/32 24/88/32 26/89/32
f 33/73/31 27/91/31 25/90/31
f 34/73/32 26/90/32 28/91/32
f 33/73/31 29/93/31 27/92/31
f 34/73/32 28/92/32 30/93/32
f 33/73/31 31/95/31 29/94/31
f 34/73/32 30/94/32 32/95/32
f 33/73/31 9/97/31 31/96/31
f 34/73/32 32/96/32 10/97/32
f 36/98/33 40/99/33 42/100/33
f 36/98/33 42/100/33 38/101/33
f 39/102/34 35/103/34 37/104/34
f 39/102/34 37/104/34 41/105/34
f 38/106/35 42/107/35 41/108/35
f 38/106/35 41/108/35 37/109/35
f 35/110/36 39/111/36 40/112/36
f 35/110/36 40/112/36 36/113/36
f 40/114/37 39/115/37 41/116/37
f 40/114/37 41/116/37 42/117/37
f 35/118/38 36/119/38 38/120/38
f 35/118/38 38/120/38 37/121/38
f 44/122/39 48/123/39 50/124/39
f 44/122/39 50/124/39 46/125/39
f 47/126/40 43/127/40 45/128/40
f 47/126/40 45/128/40 49/129/40
f 46/130/41 50/131/41 49/132/41
f 46/130/41 49/132/41 45/133/41
f 43/134/42 47/135/42 48/136/42
f 43/134/42 48/136/42 44/137/42
f 48/138/43 47/139/43 49/140/43
f 48/138/43 49/140/43 50/141/43
f 43/142/44 44/143/44 46/144/44
f 43/142/44 46/144/44 45/145/44
f 51/146/45 53/147/46 54/148/46
f 51/146/45 54/148/46 52/149/45
f 53/150/47 55/151/48 56/152/48
f 53/150/47 56/152/48 54/153/47
f 55/154/49 57/155/50 58/156/50
f 55/154/49 58/156/50 56/157/49
f 57/158/51 59/159/52 60/160/52
f 57/158/51 60/160/52 58/161/51
f 59/162/53 61/163/54 62/164/54
f 59/162/53 62/164/54 60/165/53
f 61/166/55 63/167/56 64/168/56
f 61/166/55 64/168/56 62/169/55
f 63/170/57 65/171/58 66/172/58
f 63/170/57 66/172/58 64/173/57
f 65/174/59 51/175/60 52/176/60
f 65/174/59 52/176/60 66/177/59
f 67/178/61 53/180/61 51/179/61
f 68/178/62 52/179/62 54/180/62
f 67/178/61 55/182/61 53/181/61
f 68/178/62 54/181/62 56/182/62
f 67/178/61 57/184/61 55/183/61
f 68/178/62 56/183/62 58/184/62
f 67/178/61 59/186/61 57/185/61
f 68/178/62 58/185/62 60/186/62
f 67/178/61 61/188/61 59/187/61
f 68/178/62 60/187/62 62/188/62
f 67/178/61 63/190/61 61/189/61
f 68/178/62 62/189/62 64/190/62
f 67/178/61 65/192/61 63/191/61
f 68/178/62 64/191/62 66/192/62
f 67/178/61 51/194/61 65/193/61
f 68/178/62 66/193/62 52/194/62
f 69/195/63 71/196/64 72/197/64
f 69/195/63 72/197/64 70/198/63
f 71/199/65 73/200/66 74/201/66
f 71/199/65 74/201/66 72/202/65
f 73/203/67 75/204/68 76/205/68
f 73/203/67 76/205/68 74/206/67
f 75/207/69 77/208/70 78/209/70
f 75/207/69 78/209/70 76/210/69
f 77/211/71 79/212/72 80/213/72
f 77/211/71 80/213/72 78/214/71
f 79/215/73 81/216/74 82/217/74
f 79/215/73 82/217/74 80/218/73
f 81/219/75 83/220/76 84/221/76
f 81/219/75 84/221/76 82/222/75
f 83/223/77 85/224/78 86/225/78
f 83/223/77 86/225/78 84/226/77
f 85/227/79 87/228/80 88/229/80
f 85/227/79 88/229/80 86/230/79
f 87/231/81 89/232/82 90/233/82
f 87/231/81 90/233/82 88/234/81
f 89/235/83 91/236/84 92/237/84
f 89/235/83 92/237/84 90/238/83
f 91/239/85 93/240/86 94/241/86
f 91/239/85 94/241/86 92/242/85
f 93/243/87 95/244/88 96/245/88
f 93/243/87 96/245/88 94/246/87
f 95/247/89 97/248/90 98/249/90
f 95/247/89 98/249/90 96/250/89
f 97/251/91 99/252/92 100/253/92
f 97/251/91 100/253/92 98/254/91
f 99/255/93 101/256/94 102/257/94
f 99/255/93 102/257/94 100/258/93
f 101/259/95 103/260/96 104/261/96
f 101/259/95 104/261/96 102/262/95
f 103/263/97 105/264/98 106/265/98
f 103/263/97 106/265/98 104/266/97
f 105/267/99 107/268/100 108/269/100
f 105/267/99 108/269/100 106/270/99
f 107/271/101 69/272/102 70/273/102
f 107/271/101 70/273/102 108/274/101
f 109/275/103 71/277/103 69/276/103
f 110/275/104 70/276/104 72/277/104
f 109/275/103 73/279/103 71/278/103
f 110/275/104 72/278/104 74/279/104
f 109/275/103 75/281/103 73/280/103
f 110/275/104 74/280/104 76/281/104
f 109/275/103 77/283/103 75/282/103
f 110/275/104 76/282/104 78/283/104
f 109/275/103 79/285/103 77/284/103
f 110/275/104 78/284/104 80/285/104
f 109/275/103 81/287/103 79/286/103
f 110/275/104 80/286/104 82/287/104
f 109/275/103 83/289/103 81/288/103
f 110/275/104 82/288/104 84/289/104
f 109/275/103 85/291/103 83/290/103
f 110/275/104 84/290/104 86/291/104
f 109/275/103 87/293/103 85/292/103
f 110/275/104 86/292/104 88/293/104
f 109/275/103 89/295/103 87/294/103
f 110/275/104 88/294/104 90/295/104
f 109/275/103 91/297/103 89/296/103
f 110/275/104 90/296/104 92/297/104
f 109/275/103 93/299/103 91/298/103
f 110/275/104 92/298/104 94/299/104
f 109/275/103 95/301/103 93/300/103
f 110/275/104 94/300/104 96/301/104
f 109/275/103 97/303/103 95/302/103
f 110/275/104 96/302/104 98/303/104
f 109/275/103 99/305/103 97/304/103
f 110/275/104 98/304/104 100/305/104
f 109/275/103 101/307/103 99/306/103
f 110/275/104 100/306/104 102/307/104
f 109/275/103 103/309/103 101/308/103
f 110/275/104 102/308/104 104/309/104
f 109/275/103 105/311/103 103/310/103
f 110/275/104 104/310/104 106/311/104
f 109/275/103 107/313/103 105/312/103
f 110/275/104 106/312/104 108/313/104
f 109/275/103 69/315/103 107/314/103
f 110/275/104 108/314/104 70/315/104
f 112/316/105 116/317/105 118/318/105
f 112/316/105 118/318/105 114/319/105
f 115/320/106 111/321/106 113/322/106
f 115/320/106 113/322/106 117/323/106
f 114/324/107 118/325/107 117/326/107
f 114/324/107 117/326/107 113/327/107
f 111/328/108 115/329/108 116/330/108
f 111/328/108 116/330/108 112/331/108
f 116/332/109 115/333/109 117/334/109
f 116/332/109 117/334/109 118/335/109
f 111/336/110 112/337/110 114/338/110
f 111/336/110 114/338/110 113/339/110
