# Wavefront OBJ: SM_Stall_Base
o SM_Stall_Base
v -0.900000 0.100000 0.360000
v -0.900000 0.100000 0.400000
v -0.900000 0.140000 0.360000
v -0.900000 0.140000 0.400000
v 0.900000 0.100000 0.360000
v 0.900000 0.100000 0.400000
v 0.900000 0.140000 0.360000
v 0.900000 0.140000 0.400000
v -0.900000 0.100000 -0.400000
v -0.900000 0.100000 -0.360000
v -0.900000 0.140000 -0.400000
v -0.900000 0.140000 -0.360000
v 0.900000 0.100000 -0.400000
v 0.900000 0.100000 -0.360000
v 0.900000 0.140000 -0.400000
v 0.900000 0.140000 -0.360000
v -0.900000 0.100000 -0.360000
v -0.900000 0.100000 0.360000
v -0.900000 0.140000 -0.360000
v -0.900000 0.140000 0.360000
v -0.860000 0.100000 -0.360000
v -0.860000 0.100000 0.360000
v -0.860000 0.140000 -0.360000
v -0.860000 0.140000 0.360000
v 0.860000 0.100000 -0.360000
v 0.860000 0.100000 0.360000
v 0.860000 0.140000 -0.360000
v 0.860000 0.140000 0.360000
v 0.900000 0.100000 -0.360000
v 0.900000 0.100000 0.360000
v 0.900000 0.140000 -0.360000
v 0.900000 0.140000 0.360000
v -0.900000 0.140000 -0.400000
v -0.900000 0.140000 -0.360000
v -0.900000 0.920000 -0.400000
v -0.900000 0.920000 -0.360000
v -0.860000 0.140000 -0.400000
v -0.860000 0.140000 -0.360000
v -0.860000 0.920000 -0.400000
v -0.860000 0.920000 -0.360000
v -0.900000 0.140000 0.360000
v -0.900000 0.140000 0.400000
v -0.900000 0.920000 0.360000
v -0.900000 0.920000 0.400000
v -0.860000 0.140000 0.360000
v -0.860000 0.140000 0.400000
v -0.860000 0.920000 0.360000
v -0.860000 0.920000 0.400000
v 0.860000 0.140000 -0.400000
v 0.860000 0.140000 -0.360000
v 0.860000 0.920000 -0.400000
v 0.860000 0.920000 -0.360000
v 0.900000 0.140000 -0.400000
v 0.900000 0.140000 -0.360000
v 0.900000 0.920000 -0.400000
v 0.900000 0.920000 -0.360000
v 0.860000 0.140000 0.360000
v 0.860000 0.140000 0.400000
v 0.860000 0.920000 0.360000
v 0.860000 0.920000 0.400000
v 0.900000 0.140000 0.360000
v 0.900000 0.140000 0.400000
v 0.900000 0.920000 0.360000
v 0.900000 0.920000 0.400000
v -0.900000 0.920000 0.360000
v -0.900000 0.920000 0.400000
v -0.900000 0.960000 0.360000
v -0.900000 0.960000 0.400000
v 0.900000 0.920000 0.360000
v 0.900000 0.920000 0.400000
v 0.900000 0.960000 0.360000
v 0.900000 0.960000 0.400000
v -0.900000 0.920000 -0.400000
v -0.900000 0.920000 -0.360000
v -0.900000 0.960000 -0.400000
v -0.900000 0.960000 -0.360000
v 0.900000 0.920000 -0.400000
v 0.900000 0.920000 -0.360000
v 0.900000 0.960000 -0.400000
v 0.900000 0.960000 -0.360000
v -0.900000 0.920000 -0.360000
v -0.900000 0.920000 0.360000
v -0.900000 0.960000 -0.360000
v -0.900000 0.960000 0.360000
v -0.860000 0.920000 -0.360000
v -0.860000 0.920000 0.360000
v -0.860000 0.960000 -0.360000
v -0.860000 0.960000 0.360000
v 0.860000 0.920000 -0.360000
v 0.860000 0.920000 0.360000
v 0.860000 0.960000 -0.360000
v 0.860000 0.960000 0.360000
v 0.900000 0.920000 -0.360000
v 0.900000 0.920000 0.360000
v 0.900000 0.960000 -0.360000
v 0.900000 0.960000 0.360000
v -0.860000 0.140000 0.385000
v -0.860000 0.920000 0.385000
v -0.839277 0.140000 0.395238
v -0.839277 0.920000 0.395238
v -0.818554 0.140000 0.374318
v -0.818554 0.920000 0.374318
v -0.797831 0.140000 0.385908
v -0.797831 0.920000 0.385908
v -0.777108 0.140000 0.394735
v -0.777108 0.920000 0.394735
v -0.756386 0.140000 0.373935
v -0.756386 0.920000 0.373935
v -0.735663 0.140000 0.386810
v -0.735663 0.920000 0.386810
v -0.714940 0.140000 0.394176
v -0.714940 0.920000 0.394176
v -0.694217 0.140000 0.373616
v -0.694217 0.920000 0.373616
v -0.673494 0.140000 0.387702
v -0.673494 0.920000 0.387702
v -0.652771 0.140000 0.393565
v -0.652771 0.920000 0.393565
v -0.632048 0.140000 0.373361
v -0.632048 0.920000 0.373361
v -0.611325 0.140000 0.388578
v -0.611325 0.920000 0.388578
v -0.590602 0.140000 0.392905
v -0.590602 0.920000 0.392905
v -0.569880 0.140000 0.373174
v -0.569880 0.920000 0.373174
v -0.549157 0.140000 0.389434
v -0.549157 0.920000 0.389434
v -0.528434 0.140000 0.392200
v -0.528434 0.920000 0.392200
v -0.507711 0.140000 0.373054
v -0.507711 0.920000 0.373054
v -0.486988 0.140000 0.390265
v -0.486988 0.920000 0.390265
v -0.466265 0.140000 0.391453
v -0.466265 0.920000 0.391453
v -0.445542 0.140000 0.373002
v -0.445542 0.920000 0.373002
v -0.424819 0.140000 0.391065
v -0.424819 0.920000 0.391065
v -0.404096 0.140000 0.390669
v -0.404096 0.920000 0.390669
v -0.383373 0.140000 0.373019
v -0.383373 0.920000 0.373019
v -0.362651 0.140000 0.391831
v -0.362651 0.920000 0.391831
v -0.341928 0.140000 0.389853
v -0.341928 0.920000 0.389853
v -0.321205 0.140000 0.373105
v -0.321205 0.920000 0.373105
v -0.300482 0.140000 0.392558
v -0.300482 0.920000 0.392558
v -0.279759 0.140000 0.389009
v -0.279759 0.920000 0.389009
v -0.259036 0.140000 0.373259
v -0.259036 0.920000 0.373259
v -0.238313 0.140000 0.393241
v -0.238313 0.920000 0.393241
v -0.217590 0.140000 0.388142
v -0.217590 0.920000 0.388142
v -0.196867 0.140000 0.373480
v -0.196867 0.920000 0.373480
v -0.176145 0.140000 0.393877
v -0.176145 0.920000 0.393877
v -0.155422 0.140000 0.387257
v -0.155422 0.920000 0.387257
v -0.134699 0.140000 0.373767
v -0.134699 0.920000 0.373767
v -0.113976 0.140000 0.394462
v -0.113976 0.920000 0.394462
v -0.093253 0.140000 0.386360
v -0.093253 0.920000 0.386360
v -0.072530 0.140000 0.374119
v -0.072530 0.920000 0.374119
v -0.051807 0.140000 0.394993
v -0.051807 0.920000 0.394993
v -0.031084 0.140000 0.385454
v -0.031084 0.920000 0.385454
v -0.010361 0.140000 0.374533
v -0.010361 0.920000 0.374533
v 0.010361 0.140000 0.395467
v 0.010361 0.920000 0.395467
v 0.031084 0.140000 0.384546
v 0.031084 0.920000 0.384546
v 0.051807 0.140000 0.375007
v 0.051807 0.920000 0.375007
v 0.072530 0.140000 0.395881
v 0.072530 0.920000 0.395881
v 0.093253 0.140000 0.383640
v 0.093253 0.920000 0.383640
v 0.113976 0.140000 0.375538
v 0.113976 0.920000 0.375538
v 0.134699 0.140000 0.396233
v 0.134699 0.920000 0.396233
v 0.155422 0.140000 0.382743
v 0.155422 0.920000 0.382743
v 0.176145 0.140000 0.376123
v 0.176145 0.920000 0.376123
v 0.196867 0.140000 0.396520
v 0.196867 0.920000 0.396520
v 0.217590 0.140000 0.381858
v 0.217590 0.920000 0.381858
v 0.238313 0.140000 0.376759
v 0.238313 0.920000 0.376759
v 0.259036 0.140000 0.396741
v 0.259036 0.920000 0.396741
v 0.279759 0.140000 0.380991
v 0.279759 0.920000 0.380991
v 0.300482 0.140000 0.377442
v 0.300482 0.920000 0.377442
v 0.321205 0.140000 0.396895
v 0.321205 0.920000 0.396895
v 0.341928 0.140000 0.380147
v 0.341928 0.920000 0.380147
v 0.362651 0.140000 0.378169
v 0.362651 0.920000 0.378169
v 0.383373 0.140000 0.396981
v 0.383373 0.920000 0.396981
v 0.404096 0.140000 0.379331
v 0.404096 0.920000 0.379331
v 0.424819 0.140000 0.378935
v 0.424819 0.920000 0.378935
v 0.445542 0.140000 0.396998
v 0.445542 0.920000 0.396998
v 0.466265 0.140000 0.378547
v 0.466265 0.920000 0.378547
v 0.486988 0.140000 0.379735
v 0.486988 0.920000 0.379735
v 0.507711 0.140000 0.396946
v 0.507711 0.920000 0.396946
v 0.528434 0.140000 0.377800
v 0.528434 0.920000 0.377800
v 0.549157 0.140000 0.380566
v 0.549157 0.920000 0.380566
v 0.569880 0.140000 0.396826
v 0.569880 0.920000 0.396826
v 0.590602 0.140000 0.377095
v 0.590602 0.920000 0.377095
v 0.611325 0.140000 0.381422
v 0.611325 0.920000 0.381422
v 0.632048 0.140000 0.396639
v 0.632048 0.920000 0.396639
v 0.652771 0.140000 0.376435
v 0.652771 0.920000 0.376435
v 0.673494 0.140000 0.382298
v 0.673494 0.920000 0.382298
v 0.694217 0.140000 0.396384
v 0.694217 0.920000 0.396384
v 0.714940 0.140000 0.375824
v 0.714940 0.920000 0.375824
v 0.735663 0.140000 0.383190
v 0.735663 0.920000 0.383190
v 0.756386 0.140000 0.396065
v 0.756386 0.920000 0.396065
v 0.777108 0.140000 0.375265
v 0.777108 0.920000 0.375265
v 0.797831 0.140000 0.384092
v 0.797831 0.920000 0.384092
v 0.818554 0.140000 0.395682
v 0.818554 0.920000 0.395682
v 0.839277 0.140000 0.374762
v 0.839277 0.920000 0.374762
v 0.860000 0.140000 0.385000
v 0.860000 0.920000 0.385000
v -0.885000 0.140000 -0.360000
v -0.885000 0.920000 -0.360000
v -0.895392 0.140000 -0.341538
v -0.895392 0.920000 -0.341538
v -0.874608 0.140000 -0.323077
v -0.874608 0.920000 -0.323077
v -0.885000 0.140000 -0.304615
v -0.885000 0.920000 -0.304615
v -0.895392 0.140000 -0.286154
v -0.895392 0.920000 -0.286154
v -0.874608 0.140000 -0.267692
v -0.874608 0.920000 -0.267692
v -0.885000 0.140000 -0.249231
v -0.885000 0.920000 -0.249231
v -0.895392 0.140000 -0.230769
v -0.895392 0.920000 -0.230769
v -0.874608 0.140000 -0.212308
v -0.874608 0.920000 -0.212308
v -0.885000 0.140000 -0.193846
v -0.885000 0.920000 -0.193846
v -0.895392 0.140000 -0.175385
v -0.895392 0.920000 -0.175385
v -0.874608 0.140000 -0.156923
v -0.874608 0.920000 -0.156923
v -0.885000 0.140000 -0.138462
v -0.885000 0.920000 -0.138462
v -0.895392 0.140000 -0.120000
v -0.895392 0.920000 -0.120000
v -0.874608 0.140000 -0.101538
v -0.874608 0.920000 -0.101538
v -0.885000 0.140000 -0.083077
v -0.885000 0.920000 -0.083077
v -0.895392 0.140000 -0.064615
v -0.895392 0.920000 -0.064615
v -0.874608 0.140000 -0.046154
v -0.874608 0.920000 -0.046154
v -0.885000 0.140000 -0.027692
v -0.885000 0.920000 -0.027692
v -0.895392 0.140000 -0.009231
v -0.895392 0.920000 -0.009231
v -0.874608 0.140000 0.009231
v -0.874608 0.920000 0.009231
v -0.885000 0.140000 0.027692
v -0.885000 0.920000 0.027692
v -0.895392 0.140000 0.046154
v -0.895392 0.920000 0.046154
v -0.874608 0.140000 0.064615
v -0.874608 0.920000 0.064615
v -0.885000 0.140000 0.083077
v -0.885000 0.920000 0.083077
v -0.895392 0.140000 0.101538
v -0.895392 0.920000 0.101538
v -0.874608 0.140000 0.120000
v -0.874608 0.920000 0.120000
v -0.885000 0.140000 0.138462
v -0.885000 0.920000 0.138462
v -0.895392 0.140000 0.156923
v -0.895392 0.920000 0.156923
v -0.874608 0.140000 0.175385
v -0.874608 0.920000 0.175385
v -0.885000 0.140000 0.193846
v -0.885000 0.920000 0.193846
v -0.895392 0.140000 0.212308
v -0.895392 0.920000 0.212308
v -0.874608 0.140000 0.230769
v -0.874608 0.920000 0.230769
v -0.885000 0.140000 0.249231
v -0.885000 0.920000 0.249231
v -0.895392 0.140000 0.267692
v -0.895392 0.920000 0.267692
v -0.874608 0.140000 0.286154
v -0.874608 0.920000 0.286154
v -0.885000 0.140000 0.304615
v -0.885000 0.920000 0.304615
v -0.895392 0.140000 0.323077
v -0.895392 0.920000 0.323077
v -0.874608 0.140000 0.341538
v -0.874608 0.920000 0.341538
v -0.885000 0.140000 0.360000
v -0.885000 0.920000 0.360000
v 0.885000 0.140000 -0.360000
v 0.885000 0.920000 -0.360000
v 0.895392 0.140000 -0.341538
v 0.895392 0.920000 -0.341538
v 0.874608 0.140000 -0.323077
v 0.874608 0.920000 -0.323077
v 0.885000 0.140000 -0.304615
v 0.885000 0.920000 -0.304615
v 0.895392 0.140000 -0.286154
v 0.895392 0.920000 -0.286154
v 0.874608 0.140000 -0.267692
v 0.874608 0.920000 -0.267692
v 0.885000 0.140000 -0.249231
v 0.885000 0.920000 -0.249231
v 0.895392 0.140000 -0.230769
v 0.895392 0.920000 -0.230769
v 0.874608 0.140000 -0.212308
v 0.874608 0.920000 -0.212308
v 0.885000 0.140000 -0.193846
v 0.885000 0.920000 -0.193846
v 0.895392 0.140000 -0.175385
v 0.895392 0.920000 -0.175385
v 0.874608 0.140000 -0.156923
v 0.874608 0.920000 -0.156923
v 0.885000 0.140000 -0.138462
v 0.885000 0.920000 -0.138462
v 0.895392 0.140000 -0.120000
v 0.895392 0.920000 -0.120000
v 0.874608 0.140000 -0.101538
v 0.874608 0.920000 -0.101538
v 0.885000 0.140000 -0.083077
v 0.885000 0.920000 -0.083077
v 0.895392 0.140000 -0.064615
v 0.895392 0.920000 -0.064615
v 0.874608 0.140000 -0.046154
v 0.874608 0.920000 -0.046154
v 0.885000 0.140000 -0.027692
v 0.885000 0.920000 -0.027692
v 0.895392 0.140000 -0.009231
v 0.895392 0.920000 -0.009231
v 0.874608 0.140000 0.009231
v 0.874608 0.920000 0.009231
v 0.885000 0.140000 0.027692
v 0.885000 0.920000 0.027692
v 0.895392 0.140000 0.046154
v 0.895392 0.920000 0.046154
v 0.874608 0.140000 0.064615
v 0.874608 0.920000 0.064615
v 0.885000 0.140000 0.083077
v 0.885000 0.920000 0.083077
v 0.895392 0.140000 0.101538
v 0.895392 0.920000 0.101538
v 0.874608 0.140000 0.120000
v 0.874608 0.920000 0.120000
v 0.885000 0.140000 0.138462
v 0.885000 0.920000 0.138462
v 0.895392 0.140000 0.156923
v 0.895392 0.920000 0.156923
v 0.874608 0.140000 0.175385
v 0.874608 0.920000 0.175385
v 0.885000 0.140000 0.193846
v 0.885000 0.920000 0.193846
v 0.895392 0.140000 0.212308
v 0.895392 0.920000 0.212308
v 0.874608 0.140000 0.230769
v 0.874608 0.920000 0.230769
v 0.885000 0.140000 0.249231
v 0.885000 0.920000 0.249231
v 0.895392 0.140000 0.267692
v 0.895392 0.920000 0.267692
v 0.874608 0.140000 0.286154
v 0.874608 0.920000 0.286154
v 0.885000 0.140000 0.304615
v 0.885000 0.920000 0.304615
v 0.895392 0.140000 0.323077
v 0.895392 0.920000 0.323077
v 0.874608 0.140000 0.341538
v 0.874608 0.920000 0.341538
v 0.885000 0.140000 0.360000
v 0.885000 0.920000 0.360000
v -0.860000 0.110000 -0.360000
v -0.860000 0.110000 0.360000
v -0.860000 0.130000 -0.360000
v -0.860000 0.130000 0.360000
v 0.860000 0.110000 -0.360000
v 0.860000 0.110000 0.360000
v 0.860000 0.130000 -0.360000
v 0.860000 0.130000 0.360000
v -0.860000 0.500000 -0.360000
v -0.860000 0.500000 0.360000
v -0.860000 0.530000 -0.360000
v -0.860000 0.530000 0.360000
v 0.860000 0.500000 -0.360000
v 0.860000 0.500000 0.360000
v 0.860000 0.530000 -0.360000
v 0.860000 0.530000 0.360000
v -0.020000 0.130000 -0.360000
v -0.020000 0.130000 0.360000
v -0.020000 0.920000 -0.360000
v -0.020000 0.920000 0.360000
v 0.020000 0.130000 -0.360000
v 0.020000 0.130000 0.360000
v 0.020000 0.920000 -0.360000
v 0.020000 0.920000 0.360000
vt 0.000000 0.000000
vt 1.800000 0.000000
vt 1.800000 0.040000
vt 0.000000 0.040000
vt 0.000000 0.000000
vt 1.800000 0.000000
vt 1.800000 0.040000
vt 0.000000 0.040000
vt 0.000000 0.000000
vt 1.800000 0.000000
vt 1.800000 0.040000
vt 0.000000 0.040000
vt 0.000000 0.000000
vt 1.800000 0.000000
vt 1.800000 0.040000
vt 0.000000 0.040000
vt 0.000000 0.000000
vt 0.040000 0.000000
vt 0.040000 0.040000
vt 0.000000 0.040000
vt 0.000000 0.000000
vt 0.040000 0.000000
vt 0.040000 0.040000
vt 0.000000 0.040000
vt 0.000000 0.000000
vt 1.800000 0.000000
vt 1.800000 0.040000
vt 0.000000 0.040000
vt 0.000000 0.000000
vt 1.800000 0.000000
vt 1.800000 0.040000
vt 0.000000 0.040000
vt 0.000000 0.000000
vt 1.800000 0.000000
vt 1.800000 0.040000
vt 0.000000 0.040000
vt 0.000000 0.000000
vt 1.800000 0.000000
vt 1.800000 0.040000
vt 0.000000 0.040000
vt 0.000000 0.000000
vt 0.040000 0.000000
vt 0.040000 0.040000
vt 0.000000 0.040000
vt 0.000000 0.000000
vt 0.040000 0.000000
vt 0.040000 0.040000
vt 0.000000 0.040000
vt 0.000000 0.000000
vt 0.040000 0.000000
vt 0.040000 0.040000
vt 0.000000 0.040000
vt 0.000000 0.000000
vt 0.040000 0.000000
vt 0.040000 0.040000
vt 0.000000 0.040000
vt 0.000000 0.000000
vt 0.040000 0.000000
vt 0.040000 0.720000
vt 0.000000 0.720000
vt 0.000000 0.000000
vt 0.040000 0.000000
vt 0.040000 0.720000
vt 0.000000 0.720000
vt 0.000000 0.000000
vt 0.720000 0.000000
vt 0.720000 0.040000
vt 0.000000 0.040000
vt 0.000000 0.000000
vt 0.720000 0.000000
vt 0.720000 0.040000
vt 0.000000 0.040000
vt 0.000000 0.000000
vt 0.040000 0.000000
vt 0.040000 0.040000
vt 0.000000 0.040000
vt 0.000000 0.000000
vt 0.040000 0.000000
vt 0.040000 0.040000
vt 0.000000 0.040000
vt 0.000000 0.000000
vt 0.040000 0.000000
vt 0.040000 0.720000
vt 0.000000 0.720000
vt 0.000000 0.000000
vt 0.040000 0.000000
vt 0.040000 0.720000
vt 0.000000 0.720000
vt 0.000000 0.000000
vt 0.720000 0.000000
vt 0.720000 0.040000
vt 0.000000 0.040000
vt 0.000000 0.000000
vt 0.720000 0.000000
vt 0.720000 0.040000
vt 0.000000 0.040000
vt 0.000000 0.000000
vt 0.040000 0.000000
vt 0.040000 0.780000
vt 0.000000 0.780000
vt 0.000000 0.000000
vt 0.040000 0.000000
vt 0.040000 0.780000
vt 0.000000 0.780000
vt 0.000000 0.000000
vt 0.040000 0.000000
vt 0.040000 0.040000
vt 0.000000 0.040000
vt 0.000000 0.000000
vt 0.040000 0.000000
vt 0.040000 0.040000
vt 0.000000 0.040000
vt 0.000000 0.000000
vt 0.040000 0.000000
vt 0.040000 0.780000
vt 0.000000 0.780000
vt 0.000000 0.000000
vt 0.040000 0.000000
vt 0.040000 0.780000
vt 0.000000 0.780000
vt 0.000000 0.000000
vt 0.040000 0.000000
vt 0.040000 0.780000
vt 0.000000 0.780000
vt 0.000000 0.000000
vt 0.040000 0.000000
vt 0.040000 0.780000
vt 0.000000 0.780000
vt 0.000000 0.000000
vt 0.040000 0.000000
vt 0.040000 0.040000
vt 0.000000 0.040000
vt 0.000000 0.000000
vt 0.040000 0.000000
vt 0.040000 0.040000
vt 0.000000 0.040000
vt 0.000000 0.000000
vt 0.040000 0.000000
vt 0.040000 0.780000
vt 0.000000 0.780000
vt 0.000000 0.000000
vt 0.040000 0.000000
vt 0.040000 0.780000
vt 0.000000 0.780000
vt 0.000000 0.000000
vt 0.040000 0.000000
vt 0.040000 0.780000
vt 0.000000 0.780000
vt 0.000000 0.000000
vt 0.040000 0.000000
vt 0.040000 0.780000
vt 0.000000 0.780000
vt 0.000000 0.000000
vt 0.040000 0.000000
vt 0.040000 0.040000
vt 0.000000 0.040000
vt 0.000000 0.000000
vt 0.040000 0.000000
vt 0.040000 0.040000
vt 0.000000 0.040000
vt 0.000000 0.000000
vt 0.040000 0.000000
vt 0.040000 0.780000
vt 0.000000 0.780000
vt 0.000000 0.000000
vt 0.040000 0.000000
vt 0.040000 0.780000
vt 0.000000 0.780000
vt 0.000000 0.000000
vt 0.040000 0.000000
vt 0.040000 0.780000
vt 0.000000 0.780000
vt 0.000000 0.000000
vt 0.040000 0.000000
vt 0.040000 0.780000
vt 0.000000 0.780000
vt 0.000000 0.000000
vt 0.040000 0.000000
vt 0.040000 0.040000
vt 0.000000 0.040000
vt 0.000000 0.000000
vt 0.040000 0.000000
vt 0.040000 0.040000
vt 0.000000 0.040000
vt 0.000000 0.000000
vt 0.040000 0.000000
vt 0.040000 0.780000
vt 0.000000 0.780000
vt 0.000000 0.000000
vt 0.040000 0.000000
vt 0.040000 0.780000
vt 0.000000 0.780000
vt 0.000000 0.000000
vt 1.800000 0.000000
vt 1.800000 0.040000
vt 0.000000 0.040000
vt 0.000000 0.000000
vt 1.800000 0.000000
vt 1.800000 0.040000
vt 0.000000 0.040000
vt 0.000000 0.000000
vt 1.800000 0.000000
vt 1.800000 0.040000
vt 0.000000 0.040000
vt 0.000000 0.000000
vt 1.800000 0.000000
vt 1.800000 0.040000
vt 0.000000 0.040000
vt 0.000000 0.000000
vt 0.040000 0.000000
vt 0.040000 0.040000
vt 0.000000 0.040000
vt 0.000000 0.000000
vt 0.040000 0.000000
vt 0.040000 0.040000
vt 0.000000 0.040000
vt 0.000000 0.000000
vt 1.800000 0.000000
vt 1.800000 0.040000
vt 0.000000 0.040000
vt 0.000000 0.000000
vt 1.800000 0.000000
vt 1.800000 0.040000
vt 0.000000 0.040000
vt 0.000000 0.000000
vt 1.800000 0.000000
vt 1.800000 0.040000
vt 0.000000 0.040000
vt 0.000000 0.000000
vt 1.800000 0.000000
vt 1.800000 0.040000
vt 0.000000 0.040000
vt 0.000000 0.000000
vt 0.040000 0.000000
vt 0.040000 0.040000
vt 0.000000 0.040000
vt 0.000000 0.000000
vt 0.040000 0.000000
vt 0.040000 0.040000
vt 0.000000 0.040000
vt 0.000000 0.000000
vt 0.040000 0.000000
vt 0.040000 0.040000
vt 0.000000 0.040000
vt 0.000000 0.000000
vt 0.040000 0.000000
vt 0.040000 0.040000
vt 0.000000 0.040000
vt 0.000000 0.000000
vt 0.040000 0.000000
vt 0.040000 0.720000
vt 0.000000 0.720000
vt 0.000000 0.000000
vt 0.040000 0.000000
vt 0.040000 0.720000
vt 0.000000 0.720000
vt 0.000000 0.000000
vt 0.720000 0.000000
vt 0.720000 0.040000
vt 0.000000 0.040000
vt 0.000000 0.000000
vt 0.720000 0.000000
vt 0.720000 0.040000
vt 0.000000 0.040000
vt 0.000000 0.000000
vt 0.040000 0.000000
vt 0.040000 0.040000
vt 0.000000 0.040000
vt 0.000000 0.000000
vt 0.040000 0.000000
vt 0.040000 0.040000
vt 0.000000 0.040000
vt 0.000000 0.000000
vt 0.040000 0.000000
vt 0.040000 0.720000
vt 0.000000 0.720000
vt 0.000000 0.000000
vt 0.040000 0.000000
vt 0.040000 0.720000
vt 0.000000 0.720000
vt 0.000000 0.000000
vt 0.720000 0.000000
vt 0.720000 0.040000
vt 0.000000 0.040000
vt 0.000000 0.000000
vt 0.720000 0.000000
vt 0.720000 0.040000
vt 0.000000 0.040000
vt 0.000000 0.000000
vt 0.012048 0.000000
vt 0.012048 1.000000
vt 0.000000 1.000000
vt 0.012048 0.000000
vt 0.024096 0.000000
vt 0.024096 1.000000
vt 0.012048 1.000000
vt 0.024096 0.000000
vt 0.036145 0.000000
vt 0.036145 1.000000
vt 0.024096 1.000000
vt 0.036145 0.000000
vt 0.048193 0.000000
vt 0.048193 1.000000
vt 0.036145 1.000000
vt 0.048193 0.000000
vt 0.060241 0.000000
vt 0.060241 1.000000
vt 0.048193 1.000000
vt 0.060241 0.000000
vt 0.072289 0.000000
vt 0.072289 1.000000
vt 0.060241 1.000000
vt 0.072289 0.000000
vt 0.084337 0.000000
vt 0.084337 1.000000
vt 0.072289 1.000000
vt 0.084337 0.000000
vt 0.096386 0.000000
vt 0.096386 1.000000
vt 0.084337 1.000000
vt 0.096386 0.000000
vt 0.108434 0.000000
vt 0.108434 1.000000
vt 0.096386 1.000000
vt 0.108434 0.000000
vt 0.120482 0.000000
vt 0.120482 1.000000
vt 0.108434 1.000000
vt 0.120482 0.000000
vt 0.132530 0.000000
vt 0.132530 1.000000
vt 0.120482 1.000000
vt 0.132530 0.000000
vt 0.144578 0.000000
vt 0.144578 1.000000
vt 0.132530 1.000000
vt 0.144578 0.000000
vt 0.156627 0.000000
vt 0.156627 1.000000
vt 0.144578 1.000000
vt 0.156627 0.000000
vt 0.168675 0.000000
vt 0.168675 1.000000
vt 0.156627 1.000000
vt 0.168675 0.000000
vt 0.180723 0.000000
vt 0.180723 1.000000
vt 0.168675 1.000000
vt 0.180723 0.000000
vt 0.192771 0.000000
vt 0.192771 1.000000
vt 0.180723 1.000000
vt 0.192771 0.000000
vt 0.204819 0.000000
vt 0.204819 1.000000
vt 0.192771 1.000000
vt 0.204819 0.000000
vt 0.216867 0.000000
vt 0.216867 1.000000
vt 0.204819 1.000000
vt 0.216867 0.000000
vt 0.228916 0.000000
vt 0.228916 1.000000
vt 0.216867 1.000000
vt 0.228916 0.000000
vt 0.240964 0.000000
vt 0.240964 1.000000
vt 0.228916 1.000000
vt 0.240964 0.000000
vt 0.253012 0.000000
vt 0.253012 1.000000
vt 0.240964 1.000000
vt 0.253012 0.000000
vt 0.265060 0.000000
vt 0.265060 1.000000
vt 0.253012 1.000000
vt 0.265060 0.000000
vt 0.277108 0.000000
vt 0.277108 1.000000
vt 0.265060 1.000000
vt 0.277108 0.000000
vt 0.289157 0.000000
vt 0.289157 1.000000
vt 0.277108 1.000000
vt 0.289157 0.000000
vt 0.301205 0.000000
vt 0.301205 1.000000
vt 0.289157 1.000000
vt 0.301205 0.000000
vt 0.313253 0.000000
vt 0.313253 1.000000
vt 0.301205 1.000000
vt 0.313253 0.000000
vt 0.325301 0.000000
vt 0.325301 1.000000
vt 0.313253 1.000000
vt 0.325301 0.000000
vt 0.337349 0.000000
vt 0.337349 1.000000
vt 0.325301 1.000000
vt 0.337349 0.000000
vt 0.349398 0.000000
vt 0.349398 1.000000
vt 0.337349 1.000000
vt 0.349398 0.000000
vt 0.361446 0.000000
vt 0.361446 1.000000
vt 0.349398 1.000000
vt 0.361446 0.000000
vt 0.373494 0.000000
vt 0.373494 1.000000
vt 0.361446 1.000000
vt 0.373494 0.000000
vt 0.385542 0.000000
vt 0.385542 1.000000
vt 0.373494 1.000000
vt 0.385542 0.000000
vt 0.397590 0.000000
vt 0.397590 1.000000
vt 0.385542 1.000000
vt 0.397590 0.000000
vt 0.409639 0.000000
vt 0.409639 1.000000
vt 0.397590 1.000000
vt 0.409639 0.000000
vt 0.421687 0.000000
vt 0.421687 1.000000
vt 0.409639 1.000000
vt 0.421687 0.000000
vt 0.433735 0.000000
vt 0.433735 1.000000
vt 0.421687 1.000000
vt 0.433735 0.000000
vt 0.445783 0.000000
vt 0.445783 1.000000
vt 0.433735 1.000000
vt 0.445783 0.000000
vt 0.457831 0.000000
vt 0.457831 1.000000
vt 0.445783 1.000000
vt 0.457831 0.000000
vt 0.469880 0.000000
vt 0.469880 1.000000
vt 0.457831 1.000000
vt 0.469880 0.000000
vt 0.481928 0.000000
vt 0.481928 1.000000
vt 0.469880 1.000000
vt 0.481928 0.000000
vt 0.493976 0.000000
vt 0.493976 1.000000
vt 0.481928 1.000000
vt 0.493976 0.000000
vt 0.506024 0.000000
vt 0.506024 1.000000
vt 0.493976 1.000000
vt 0.506024 0.000000
vt 0.518072 0.000000
vt 0.518072 1.000000
vt 0.506024 1.000000
vt 0.518072 0.000000
vt 0.530120 0.000000
vt 0.530120 1.000000
vt 0.518072 1.000000
vt 0.530120 0.000000
vt 0.542169 0.000000
vt 0.542169 1.000000
vt 0.530120 1.000000
vt 0.542169 0.000000
vt 0.554217 0.000000
vt 0.554217 1.000000
vt 0.542169 1.000000
vt 0.554217 0.000000
vt 0.566265 0.000000
vt 0.566265 1.000000
vt 0.554217 1.000000
vt 0.566265 0.000000
vt 0.578313 0.000000
vt 0.578313 1.000000
vt 0.566265 1.000000
vt 0.578313 0.000000
vt 0.590361 0.000000
vt 0.590361 1.000000
vt 0.578313 1.000000
vt 0.590361 0.000000
vt 0.602410 0.000000
vt 0.602410 1.000000
vt 0.590361 1.000000
vt 0.602410 0.000000
vt 0.614458 0.000000
vt 0.614458 1.000000
vt 0.602410 1.000000
vt 0.614458 0.000000
vt 0.626506 0.000000
vt 0.626506 1.000000
vt 0.614458 1.000000
vt 0.626506 0.000000
vt 0.638554 0.000000
vt 0.638554 1.000000
vt 0.626506 1.000000
vt 0.638554 0.000000
vt 0.650602 0.000000
vt 0.650602 1.000000
vt 0.638554 1.000000
vt 0.650602 0.000000
vt 0.662651 0.000000
vt 0.662651 1.000000
vt 0.650602 1.000000
vt 0.662651 0.000000
vt 0.674699 0.000000
vt 0.674699 1.000000
vt 0.662651 1.000000
vt 0.674699 0.000000
vt 0.686747 0.000000
vt 0.686747 1.000000
vt 0.674699 1.000000
vt 0.686747 0.000000
vt 0.698795 0.000000
vt 0.698795 1.000000
vt 0.686747 1.000000
vt 0.698795 0.000000
vt 0.710843 0.000000
vt 0.710843 1.000000
vt 0.698795 1.000000
vt 0.710843 0.000000
vt 0.722892 0.000000
vt 0.722892 1.000000
vt 0.710843 1.000000
vt 0.722892 0.000000
vt 0.734940 0.000000
vt 0.734940 1.000000
vt 0.722892 1.000000
vt 0.734940 0.000000
vt 0.746988 0.000000
vt 0.746988 1.000000
vt 0.734940 1.000000
vt 0.746988 0.000000
vt 0.759036 0.000000
vt 0.759036 1.000000
vt 0.746988 1.000000
vt 0.759036 0.000000
vt 0.771084 0.000000
vt 0.771084 1.000000
vt 0.759036 1.000000
vt 0.771084 0.000000
vt 0.783133 0.000000
vt 0.783133 1.000000
vt 0.771084 1.000000
vt 0.783133 0.000000
vt 0.795181 0.000000
vt 0.795181 1.000000
vt 0.783133 1.000000
vt 0.795181 0.000000
vt 0.807229 0.000000
vt 0.807229 1.000000
vt 0.795181 1.000000
vt 0.807229 0.000000
vt 0.819277 0.000000
vt 0.819277 1.000000
vt 0.807229 1.000000
vt 0.819277 0.000000
vt 0.831325 0.000000
vt 0.831325 1.000000
vt 0.819277 1.000000
vt 0.831325 0.000000
vt 0.843373 0.000000
vt 0.843373 1.000000
vt 0.831325 1.000000
vt 0.843373 0.000000
vt 0.855422 0.000000
vt 0.855422 1.000000
vt 0.843373 1.000000
vt 0.855422 0.000000
vt 0.867470 0.000000
vt 0.867470 1.000000
vt 0.855422 1.000000
vt 0.867470 0.000000
vt 0.879518 0.000000
vt 0.879518 1.000000
vt 0.867470 1.000000
vt 0.879518 0.000000
vt 0.891566 0.000000
vt 0.891566 1.000000
vt 0.879518 1.000000
vt 0.891566 0.000000
vt 0.903614 0.000000
vt 0.903614 1.000000
vt 0.891566 1.000000
vt 0.903614 0.000000
vt 0.915663 0.000000
vt 0.915663 1.000000
vt 0.903614 1.000000
vt 0.915663 0.000000
vt 0.927711 0.000000
vt 0.927711 1.000000
vt 0.915663 1.000000
vt 0.927711 0.000000
vt 0.939759 0.000000
vt 0.939759 1.000000
vt 0.927711 1.000000
vt 0.939759 0.000000
vt 0.951807 0.000000
vt 0.951807 1.000000
vt 0.939759 1.000000
vt 0.951807 0.000000
vt 0.963855 0.000000
vt 0.963855 1.000000
vt 0.951807 1.000000
vt 0.963855 0.000000
vt 0.975904 0.000000
vt 0.975904 1.000000
vt 0.963855 1.000000
vt 0.975904 0.000000
vt 0.987952 0.000000
vt 0.987952 1.000000
vt 0.975904 1.000000
vt 0.987952 0.000000
vt 1.000000 0.000000
vt 1.000000 1.000000
vt 0.987952 1.000000
vt 0.000000 0.000000
vt 0.025641 0.000000
vt 0.025641 1.000000
vt 0.000000 1.000000
vt 0.025641 0.000000
vt 0.051282 0.000000
vt 0.051282 1.000000
vt 0.025641 1.000000
vt 0.051282 0.000000
vt 0.076923 0.000000
vt 0.076923 1.000000
vt 0.051282 1.000000
vt 0.076923 0.000000
vt 0.102564 0.000000
vt 0.102564 1.000000
vt 0.076923 1.000000
vt 0.102564 0.000000
vt 0.128205 0.000000
vt 0.128205 1.000000
vt 0.102564 1.000000
vt 0.128205 0.000000
vt 0.153846 0.000000
vt 0.153846 1.000000
vt 0.128205 1.000000
vt 0.153846 0.000000
vt 0.179487 0.000000
vt 0.179487 1.000000
vt 0.153846 1.000000
vt 0.179487 0.000000
vt 0.205128 0.000000
vt 0.205128 1.000000
vt 0.179487 1.000000
vt 0.205128 0.000000
vt 0.230769 0.000000
vt 0.230769 1.000000
vt 0.205128 1.000000
vt 0.230769 0.000000
vt 0.256410 0.000000
vt 0.256410 1.000000
vt 0.230769 1.000000
vt 0.256410 0.000000
vt 0.282051 0.000000
vt 0.282051 1.000000
vt 0.256410 1.000000
vt 0.282051 0.000000
vt 0.307692 0.000000
vt 0.307692 1.000000
vt 0.282051 1.000000
vt 0.307692 0.000000
vt 0.333333 0.000000
vt 0.333333 1.000000
vt 0.307692 1.000000
vt 0.333333 0.000000
vt 0.358974 0.000000
vt 0.358974 1.000000
vt 0.333333 1.000000
vt 0.358974 0.000000
vt 0.384615 0.000000
vt 0.384615 1.000000
vt 0.358974 1.000000
vt 0.384615 0.000000
vt 0.410256 0.000000
vt 0.410256 1.000000
vt 0.384615 1.000000
vt 0.410256 0.000000
vt 0.435897 0.000000
vt 0.435897 1.000000
vt 0.410256 1.000000
vt 0.435897 0.000000
vt 0.461538 0.000000
vt 0.461538 1.000000
vt 0.435897 1.000000
vt 0.461538 0.000000
vt 0.487179 0.000000
vt 0.487179 1.000000
vt 0.461538 1.000000
vt 0.487179 0.000000
vt 0.512821 0.000000
vt 0.512821 1.000000
vt 0.487179 1.000000
vt 0.512821 0.000000
vt 0.538462 0.000000
vt 0.538462 1.000000
vt 0.512821 1.000000
vt 0.538462 0.000000
vt 0.564103 0.000000
vt 0.564103 1.000000
vt 0.538462 1.000000
vt 0.564103 0.000000
vt 0.589744 0.000000
vt 0.589744 1.000000
vt 0.564103 1.000000
vt 0.589744 0.000000
vt 0.615385 0.000000
vt 0.615385 1.000000
vt 0.589744 1.000000
vt 0.615385 0.000000
vt 0.641026 0.000000
vt 0.641026 1.000000
vt 0.615385 1.000000
vt 0.641026 0.000000
vt 0.666667 0.000000
vt 0.666667 1.000000
vt 0.641026 1.000000
vt 0.666667 0.000000
vt 0.692308 0.000000
vt 0.692308 1.000000
vt 0.666667 1.000000
vt 0.692308 0.000000
vt 0.717949 0.000000
vt 0.717949 1.000000
vt 0.692308 1.000000
vt 0.717949 0.000000
vt 0.743590 0.000000
vt 0.743590 1.000000
vt 0.717949 1.000000
vt 0.743590 0.000000
vt 0.769231 0.000000
vt 0.769231 1.000000
vt 0.743590 1.000000
vt 0.769231 0.000000
vt 0.794872 0.000000
vt 0.794872 1.000000
vt 0.769231 1.000000
vt 0.794872 0.000000
vt 0.820513 0.000000
vt 0.820513 1.000000
vt 0.794872 1.000000
vt 0.820513 0.000000
vt 0.846154 0.000000
vt 0.846154 1.000000
vt 0.820513 1.000000
vt 0.846154 0.000000
vt 0.871795 0.000000
vt 0.871795 1.000000
vt 0.846154 1.000000
vt 0.871795 0.000000
vt 0.897436 0.000000
vt 0.897436 1.000000
vt 0.871795 1.000000
vt 0.897436 0.000000
vt 0.923077 0.000000
vt 0.923077 1.000000
vt 0.897436 1.000000
vt 0.923077 0.000000
vt 0.948718 0.000000
vt 0.948718 1.000000
vt 0.923077 1.000000
vt 0.948718 0.000000
vt 0.974359 0.000000
vt 0.974359 1.000000
vt 0.948718 1.000000
vt 0.974359 0.000000
vt 1.000000 0.000000
vt 1.000000 1.000000
vt 0.974359 1.000000
vt 0.000000 0.000000
vt 0.025641 0.000000
vt 0.025641 1.000000
vt 0.000000 1.000000
vt 0.025641 0.000000
vt 0.051282 0.000000
vt 0.051282 1.000000
vt 0.025641 1.000000
vt 0.051282 0.000000
vt 0.076923 0.000000
vt 0.076923 1.000000
vt 0.051282 1.000000
vt 0.076923 0.000000
vt 0.102564 0.000000
vt 0.102564 1.000000
vt 0.076923 1.000000
vt 0.102564 0.000000
vt 0.128205 0.000000
vt 0.128205 1.000000
vt 0.102564 1.000000
vt 0.128205 0.000000
vt 0.153846 0.000000
vt 0.153846 1.000000
vt 0.128205 1.000000
vt 0.153846 0.000000
vt 0.179487 0.000000
vt 0.179487 1.000000
vt 0.153846 1.000000
vt 0.179487 0.000000
vt 0.205128 0.000000
vt 0.205128 1.000000
vt 0.179487 1.000000
vt 0.205128 0.000000
vt 0.230769 0.000000
vt 0.230769 1.000000
vt 0.205128 1.000000
vt 0.230769 0.000000
vt 0.256410 0.000000
vt 0.256410 1.000000
vt 0.230769 1.000000
vt 0.256410 0.000000
vt 0.282051 0.000000
vt 0.282051 1.000000
vt 0.256410 1.000000
vt 0.282051 0.000000
vt 0.307692 0.000000
vt 0.307692 1.000000
vt 0.282051 1.000000
vt 0.307692 0.000000
vt 0.333333 0.000000
vt 0.333333 1.000000
vt 0.307692 1.000000
vt 0.333333 0.000000
vt 0.358974 0.000000
vt 0.358974 1.000000
vt 0.333333 1.000000
vt 0.358974 0.000000
vt 0.384615 0.000000
vt 0.384615 1.000000
vt 0.358974 1.000000
vt 0.384615 0.000000
vt 0.410256 0.000000
vt 0.410256 1.000000
vt 0.384615 1.000000
vt 0.410256 0.000000
vt 0.435897 0.000000
vt 0.435897 1.000000
vt 0.410256 1.000000
vt 0.435897 0.000000
vt 0.461538 0.000000
vt 0.461538 1.000000
vt 0.435897 1.000000
vt 0.461538 0.000000
vt 0.487179 0.000000
vt 0.487179 1.000000
vt 0.461538 1.000000
vt 0.487179 0.000000
vt 0.512821 0.000000
vt 0.512821 1.000000
vt 0.487179 1.000000
vt 0.512821 0.000000
vt 0.538462 0.000000
vt 0.538462 1.000000
vt 0.512821 1.000000
vt 0.538462 0.000000
vt 0.564103 0.000000
vt 0.564103 1.000000
vt 0.538462 1.000000
vt 0.564103 0.000000
vt 0.589744 0.000000
vt 0.589744 1.000000
vt 0.564103 1.000000
vt 0.589744 0.000000
vt 0.615385 0.000000
vt 0.615385 1.000000
vt 0.589744 1.000000
vt 0.615385 0.000000
vt 0.641026 0.000000
vt 0.641026 1.000000
vt 0.615385 1.000000
vt 0.641026 0.000000
vt 0.666667 0.000000
vt 0.666667 1.000000
vt 0.641026 1.000000
vt 0.666667 0.000000
vt 0.692308 0.000000
vt 0.692308 1.000000
vt 0.666667 1.000000
vt 0.692308 0.000000
vt 0.717949 0.000000
vt 0.717949 1.000000
vt 0.692308 1.000000
vt 0.717949 0.000000
vt 0.743590 0.000000
vt 0.743590 1.000000
vt 0.717949 1.000000
vt 0.743590 0.000000
vt 0.769231 0.000000
vt 0.769231 1.000000
vt 0.743590 1.000000
vt 0.769231 0.000000
vt 0.794872 0.000000
vt 0.794872 1.000000
vt 0.769231 1.000000
vt 0.794872 0.000000
vt 0.820513 0.000000
vt 0.820513 1.000000
vt 0.794872 1.000000
vt 0.820513 0.000000
vt 0.846154 0.000000
vt 0.846154 1.000000
vt 0.820513 1.000000
vt 0.846154 0.000000
vt 0.871795 0.000000
vt 0.871795 1.000000
vt 0.846154 1.000000
vt 0.871795 0.000000
vt 0.897436 0.000000
vt 0.897436 1.000000
vt 0.871795 1.000000
vt 0.897436 0.000000
vt 0.923077 0.000000
vt 0.923077 1.000000
vt 0.897436 1.000000
vt 0.923077 0.000000
vt 0.948718 0.000000
vt 0.948718 1.000000
vt 0.923077 1.000000
vt 0.948718 0.000000
vt 0.974359 0.000000
vt 0.974359 1.000000
vt 0.948718 1.000000
vt 0.974359 0.000000
vt 1.000000 0.000000
vt 1.000000 1.000000
vt 0.974359 1.000000
vt 0.000000 0.000000
vt 1.720000 0.000000
vt 1.720000 0.020000
vt 0.000000 0.020000
vt 0.000000 0.000000
vt 1.720000 0.000000
vt 1.720000 0.020000
vt 0.000000 0.020000
vt 0.000000 0.000000
vt 1.720000 0.000000
vt 1.720000 0.720000
vt 0.000000 0.720000
vt 0.000000 0.000000
vt 1.720000 0.000000
vt 1.720000 0.720000
vt 0.000000 0.720000
vt 0.000000 0.000000
vt 0.720000 0.000000
vt 0.720000 0.020000
vt 0.000000 0.020000
vt 0.000000 0.000000
vt 0.720000 0.000000
vt 0.720000 0.020000
vt 0.000000 0.020000
vt 0.000000 0.000000
vt 1.720000 0.000000
vt 1.720000 0.030000
vt 0.000000 0.030000
vt 0.000000 0.000000
vt 1.720000 0.000000
vt 1.720000 0.030000
vt 0.000000 0.030000
vt 0.000000 0.000000
vt 1.720000 0.000000
vt 1.720000 0.720000
vt 0.000000 0.720000
vt 0.000000 0.000000
vt 1.720000 0.000000
vt 1.720000 0.720000
vt 0.000000 0.720000
vt 0.000000 0.000000
vt 0.720000 0.000000
vt 0.720000 0.030000
vt 0.000000 0.030000
vt 0.000000 0.000000
vt 0.720000 0.000000
vt 0.720000 0.030000
vt 0.000000 0.030000
vt 0.000000 0.000000
vt 0.040000 0.000000
vt 0.040000 0.790000
vt 0.000000 0.790000
vt 0.000000 0.000000
vt 0.040000 0.000000
vt 0.040000 0.790000
vt 0.000000 0.790000
vt 0.000000 0.000000
vt 0.040000 0.000000
vt 0.040000 0.720000
vt 0.000000 0.720000
vt 0.000000 0.000000
vt 0.040000 0.000000
vt 0.040000 0.720000
vt 0.000000 0.720000
vt 0.000000 0.000000
vt 0.720000 0.000000
vt 0.720000 0.790000
vt 0.000000 0.790000
vt 0.000000 0.000000
vt 0.720000 0.000000
vt 0.720000 0.790000
vt 0.000000 0.790000
vn 0.000000 0.000000 1.000000
vn 0.000000 0.000000 -1.000000
vn 0.000000 1.000000 0.000000
vn 0.000000 -1.000000 0.000000
vn 1.000000 0.000000 0.000000
vn -1.000000 0.000000 0.000000
vn 0.000000 0.000000 1.000000
vn 0.000000 0.000000 -1.000000
vn 0.000000 1.000000 0.000000
vn 0.000000 -1.000000 0.000000
vn 1.000000 0.000000 0.000000
vn -1.000000 0.000000 0.000000
vn 0.000000 0.000000 1.000000
vn 0.000000 0.000000 -1.000000
vn 0.000000 1.000000 0.000000
vn 0.000000 -1.000000 0.000000
vn 1.000000 0.000000 0.000000
vn -1.000000 0.000000 0.000000
vn 0.000000 0.000000 1.000000
vn 0.000000 0.000000 -1.000000
vn 0.000000 1.000000 0.000000
vn 0.000000 -1.000000 0.000000
vn 1.000000 0.000000 0.000000
vn -1.000000 0.000000 0.000000
vn 0.000000 0.000000 1.000000
vn 0.000000 0.000000 -1.000000
vn 0.000000 1.000000 0.000000
vn 0.000000 -1.000000 0.000000
vn 1.000000 0.000000 0.000000
vn -1.000000 0.000000 0.000000
vn 0.000000 0.000000 1.000000
vn 0.000000 0.000000 -1.000000
vn 0.000000 1.000000 0.000000
vn 0.000000 -1.000000 0.000000
vn 1.000000 0.000000 0.000000
vn -1.000000 0.000000 0.000000
vn 0.000000 0.000000 1.000000
vn 0.000000 0.000000 -1.000000
vn 0.000000 1.000000 0.000000
vn 0.000000 -1.000000 0.000000
vn 1.000000 0.000000 0.000000
vn -1.000000 0.000000 0.000000
vn 0.000000 0.000000 1.000000
vn 0.000000 0.000000 -1.000000
vn 0.000000 1.000000 0.000000
vn 0.000000 -1.000000 0.000000
vn 1.000000 0.000000 0.000000
vn -1.000000 0.000000 0.000000
vn 0.000000 0.000000 1.000000
vn 0.000000 0.000000 -1.000000
vn 0.000000 1.000000 0.000000
vn 0.000000 -1.000000 0.000000
vn 1.000000 0.000000 0.000000
vn -1.000000 0.000000 0.000000
vn 0.000000 0.000000 1.000000
vn 0.000000 0.000000 -1.000000
vn 0.000000 1.000000 0.000000
vn 0.000000 -1.000000 0.000000
vn 1.000000 0.000000 0.000000
vn -1.000000 0.000000 0.000000
vn 0.000000 0.000000 1.000000
vn 0.000000 0.000000 -1.000000
vn 0.000000 1.000000 0.000000
vn 0.000000 -1.000000 0.000000
vn 1.000000 0.000000 0.000000
vn -1.000000 0.000000 0.000000
vn 0.000000 0.000000 1.000000
vn 0.000000 0.000000 -1.000000
vn 0.000000 1.000000 0.000000
vn 0.000000 -1.000000 0.000000
vn 1.000000 0.000000 0.000000
vn -1.000000 0.000000 0.000000
vn -0.775270 0.000000 0.631630
vn 0.539251 0.000000 0.842145
vn 0.539251 0.000000 0.842145
vn 0.488140 0.000000 0.872765
vn 0.488140 0.000000 0.872765
vn -0.774382 0.000000 0.632718
vn -0.774382 0.000000 0.632718
vn 0.583069 0.000000 0.812423
vn 0.583069 0.000000 0.812423
vn 0.429109 0.000000 0.903253
vn 0.429109 0.000000 0.903253
vn -0.771695 0.000000 0.635992
vn -0.771695 0.000000 0.635992
vn 0.620353 0.000000 0.784323
vn 0.620353 0.000000 0.784323
vn 0.361821 0.000000 0.932247
vn 0.361821 0.000000 0.932247
vn -0.767141 0.000000 0.641478
vn -0.767141 0.000000 0.641478
vn 0.651891 0.000000 0.758312
vn 0.651891 0.000000 0.758312
vn 0.286417 0.000000 0.958105
vn 0.286417 0.000000 0.958105
vn -0.760603 0.000000 0.649217
vn -0.760603 0.000000 0.649217
vn 0.678430 0.000000 0.734665
vn 0.678430 0.000000 0.734665
vn 0.203691 0.000000 0.979035
vn 0.203691 0.000000 0.979035
vn -0.751912 0.000000 0.659263
vn -0.751912 0.000000 0.659263
vn 0.700642 0.000000 0.713513
vn 0.700642 0.000000 0.713513
vn 0.115200 0.000000 0.993342
vn 0.115200 0.000000 0.993342
vn -0.740841 0.000000 0.671681
vn -0.740841 0.000000 0.671681
vn 0.719109 0.000000 0.694897
vn 0.719109 0.000000 0.694897
vn 0.023221 0.000000 0.999730
vn 0.023221 0.000000 0.999730
vn -0.727096 0.000000 0.686536
vn -0.727096 0.000000 0.686536
vn 0.734323 0.000000 0.678800
vn 0.734323 0.000000 0.678800
vn -0.069482 0.000000 0.997583
vn -0.069482 0.000000 0.997583
vn -0.710311 0.000000 0.703888
vn -0.710311 0.000000 0.703888
vn 0.746691 0.000000 0.665171
vn 0.746691 0.000000 0.665171
vn -0.160039 0.000000 0.987111
vn -0.160039 0.000000 0.987111
vn -0.690039 0.000000 0.723773
vn -0.690039 0.000000 0.723773
vn 0.756540 0.000000 0.653948
vn 0.756540 0.000000 0.653948
vn -0.245890 0.000000 0.969298
vn -0.245890 0.000000 0.969298
vn -0.665742 0.000000 0.746182
vn -0.665742 0.000000 0.746182
vn 0.764130 0.000000 0.645063
vn 0.764130 0.000000 0.645063
vn -0.325101 0.000000 0.945679
vn -0.325101 0.000000 0.945679
vn -0.636792 0.000000 0.771035
vn -0.636792 0.000000 0.771035
vn 0.769658 0.000000 0.638457
vn 0.769658 0.000000 0.638457
vn -0.396502 0.000000 0.918034
vn -0.396502 0.000000 0.918034
vn -0.602478 0.000000 0.798135
vn -0.602478 0.000000 0.798135
vn 0.773267 0.000000 0.634081
vn 0.773267 0.000000 0.634081
vn -0.459644 0.000000 0.888103
vn -0.459644 0.000000 0.888103
vn -0.562026 0.000000 0.827120
vn -0.562026 0.000000 0.827120
vn 0.775049 0.000000 0.631902
vn 0.775049 0.000000 0.631902
vn -0.514651 0.000000 0.857400
vn -0.514651 0.000000 0.857400
vn -0.514651 0.000000 0.857400
vn -0.514651 0.000000 0.857400
vn 0.775049 0.000000 0.631902
vn 0.775049 0.000000 0.631902
vn -0.562026 0.000000 0.827120
vn -0.562026 0.000000 0.827120
vn -0.459644 0.000000 0.888103
vn -0.459644 0.000000 0.888103
vn 0.773267 0.000000 0.634081
vn 0.773267 0.000000 0.634081
vn -0.602478 0.000000 0.798135
vn -0.602478 0.000000 0.798135
vn -0.396502 0.000000 0.918034
vn -0.396502 0.000000 0.918034
vn 0.769658 0.000000 0.638457
vn 0.769658 0.000000 0.638457
vn -0.636792 0.000000 0.771035
vn -0.636792 0.000000 0.771035
vn -0.325101 0.000000 0.945679
vn -0.325101 0.000000 0.945679
vn 0.764130 0.000000 0.645063
vn 0.764130 0.000000 0.645063
vn -0.665742 0.000000 0.746182
vn -0.665742 0.000000 0.746182
vn -0.245890 0.000000 0.969298
vn -0.245890 0.000000 0.969298
vn 0.756540 0.000000 0.653948
vn 0.756540 0.000000 0.653948
vn -0.690039 0.000000 0.723773
vn -0.690039 0.000000 0.723773
vn -0.160039 0.000000 0.987111
vn -0.160039 0.000000 0.987111
vn 0.746691 0.000000 0.665171
vn 0.746691 0.000000 0.665171
vn -0.710311 0.000000 0.703888
vn -0.710311 0.000000 0.703888
vn -0.069482 0.000000 0.997583
vn -0.069482 0.000000 0.997583
vn 0.734323 0.000000 0.678800
vn 0.734323 0.000000 0.678800
vn -0.727096 0.000000 0.686536
vn -0.727096 0.000000 0.686536
vn 0.023221 0.000000 0.999730
vn 0.023221 0.000000 0.999730
vn 0.719109 0.000000 0.694897
vn 0.719109 0.000000 0.694897
vn -0.740841 0.000000 0.671681
vn -0.740841 0.000000 0.671681
vn 0.115200 0.000000 0.993342
vn 0.115200 0.000000 0.993342
vn 0.700642 0.000000 0.713513
vn 0.700642 0.000000 0.713513
vn -0.751912 0.000000 0.659263
vn -0.751912 0.000000 0.659263
vn 0.203691 0.000000 0.979035
vn 0.203691 0.000000 0.979035
vn 0.678430 0.000000 0.734665
vn 0.678430 0.000000 0.734665
vn -0.760603 0.000000 0.649217
vn -0.760603 0.000000 0.649217
vn 0.286417 0.000000 0.958105
vn 0.286417 0.000000 0.958105
vn 0.651891 0.000000 0.758312
vn 0.651891 0.000000 0.758312
vn -0.767141 0.000000 0.641478
vn -0.767141 0.000000 0.641478
vn 0.361821 0.000000 0.932247
vn 0.361821 0.000000 0.932247
vn 0.620353 0.000000 0.784323
vn 0.620353 0.000000 0.784323
vn -0.771695 0.000000 0.635992
vn -0.771695 0.000000 0.635992
vn 0.429109 0.000000 0.903253
vn 0.429109 0.000000 0.903253
vn 0.583069 0.000000 0.812423
vn 0.583069 0.000000 0.812423
vn -0.774382 0.000000 0.632718
vn -0.774382 0.000000 0.632718
vn 0.488140 0.000000 0.872765
vn 0.488140 0.000000 0.872765
vn 0.539251 0.000000 0.842145
vn 0.539251 0.000000 0.842145
vn -0.775270 0.000000 0.631630
vn -0.592007 0.000000 0.805933
vn -0.826666 0.000000 -0.562693
vn -0.826666 0.000000 -0.562693
vn -0.826666 0.000000 -0.562693
vn -0.826666 0.000000 -0.562693
vn -0.592007 0.000000 0.805933
vn -0.592007 0.000000 0.805933
vn -0.826666 0.000000 -0.562693
vn -0.826666 0.000000 -0.562693
vn -0.826666 0.000000 -0.562693
vn -0.826666 0.000000 -0.562693
vn -0.592007 0.000000 0.805933
vn -0.592007 0.000000 0.805933
vn -0.826666 0.000000 -0.562693
vn -0.826666 0.000000 -0.562693
vn -0.826666 0.000000 -0.562693
vn -0.826666 0.000000 -0.562693
vn -0.592007 0.000000 0.805933
vn -0.592007 0.000000 0.805933
vn -0.826666 0.000000 -0.562693
vn -0.826666 0.000000 -0.562693
vn -0.826666 0.000000 -0.562693
vn -0.826666 0.000000 -0.562693
vn -0.592007 0.000000 0.805933
vn -0.592007 0.000000 0.805933
vn -0.826666 0.000000 -0.562693
vn -0.826666 0.000000 -0.562693
vn -0.826666 0.000000 -0.562693
vn -0.826666 0.000000 -0.562693
vn -0.592007 0.000000 0.805933
vn -0.592007 0.000000 0.805933
vn -0.826666 0.000000 -0.562693
vn -0.826666 0.000000 -0.562693
vn -0.826666 0.000000 -0.562693
vn -0.826666 0.000000 -0.562693
vn -0.592007 0.000000 0.805933
vn -0.592007 0.000000 0.805933
vn -0.826666 0.000000 -0.562693
vn -0.826666 0.000000 -0.562693
vn -0.826666 0.000000 -0.562693
vn -0.826666 0.000000 -0.562693
vn -0.592007 0.000000 0.805933
vn -0.592007 0.000000 0.805933
vn -0.826666 0.000000 -0.562693
vn -0.826666 0.000000 -0.562693
vn -0.826666 0.000000 -0.562693
vn -0.826666 0.000000 -0.562693
vn -0.592007 0.000000 0.805933
vn -0.592007 0.000000 0.805933
vn -0.826666 0.000000 -0.562693
vn -0.826666 0.000000 -0.562693
vn -0.826666 0.000000 -0.562693
vn -0.826666 0.000000 -0.562693
vn -0.592007 0.000000 0.805933
vn -0.592007 0.000000 0.805933
vn -0.826666 0.000000 -0.562693
vn -0.826666 0.000000 -0.562693
vn -0.826666 0.000000 -0.562693
vn -0.826666 0.000000 -0.562693
vn -0.592007 0.000000 0.805933
vn -0.592007 0.000000 0.805933
vn -0.826666 0.000000 -0.562693
vn -0.826666 0.000000 -0.562693
vn -0.826666 0.000000 -0.562693
vn -0.826666 0.000000 -0.562693
vn -0.592007 0.000000 0.805933
vn -0.592007 0.000000 0.805933
vn -0.826666 0.000000 -0.562693
vn -0.826666 0.000000 -0.562693
vn -0.826666 0.000000 -0.562693
vn -0.826666 0.000000 -0.562693
vn -0.592007 0.000000 0.805933
vn -0.592007 0.000000 0.805933
vn -0.826666 0.000000 -0.562693
vn -0.826666 0.000000 -0.562693
vn -0.826666 0.000000 -0.562693
vn -0.826666 0.000000 -0.562693
vn -0.592007 0.000000 0.805933
vn 0.592007 0.000000 -0.805933
vn 0.826666 0.000000 0.562693
vn 0.826666 0.000000 0.562693
vn 0.826666 0.000000 0.562693
vn 0.826666 0.000000 0.562693
vn 0.592007 0.000000 -0.805933
vn 0.592007 0.000000 -0.805933
vn 0.826666 0.000000 0.562693
vn 0.826666 0.000000 0.562693
vn 0.826666 0.000000 0.562693
vn 0.826666 0.000000 0.562693
vn 0.592007 0.000000 -0.805933
vn 0.592007 0.000000 -0.805933
vn 0.826666 0.000000 0.562693
vn 0.826666 0.000000 0.562693
vn 0.826666 0.000000 0.562693
vn 0.826666 0.000000 0.562693
vn 0.592007 0.000000 -0.805933
vn 0.592007 0.000000 -0.805933
vn 0.826666 0.000000 0.562693
vn 0.826666 0.000000 0.562693
vn 0.826666 0.000000 0.562693
vn 0.826666 0.000000 0.562693
vn 0.592007 0.000000 -0.805933
vn 0.592007 0.000000 -0.805933
vn 0.826666 0.000000 0.562693
vn 0.826666 0.000000 0.562693
vn 0.826666 0.000000 0.562693
vn 0.826666 0.000000 0.562693
vn 0.592007 0.000000 -0.805933
vn 0.592007 0.000000 -0.805933
vn 0.826666 0.000000 0.562693
vn 0.826666 0.000000 0.562693
vn 0.826666 0.000000 0.562693
vn 0.826666 0.000000 0.562693
vn 0.592007 0.000000 -0.805933
vn 0.592007 0.000000 -0.805933
vn 0.826666 0.000000 0.562693
vn 0.826666 0.000000 0.562693
vn 0.826666 0.000000 0.562693
vn 0.826666 0.000000 0.562693
vn 0.592007 0.000000 -0.805933
vn 0.592007 0.000000 -0.805933
vn 0.826666 0.000000 0.562693
vn 0.826666 0.000000 0.562693
vn 0.826666 0.000000 0.562693
vn 0.826666 0.000000 0.562693
vn 0.592007 0.000000 -0.805933
vn 0.592007 0.000000 -0.805933
vn 0.826666 0.000000 0.562693
vn 0.826666 0.000000 0.562693
vn 0.826666 0.000000 0.562693
vn 0.826666 0.000000 0.562693
vn 0.592007 0.000000 -0.805933
vn 0.592007 0.000000 -0.805933
vn 0.826666 0.000000 0.562693
vn 0.826666 0.000000 0.562693
vn 0.826666 0.000000 0.562693
vn 0.826666 0.000000 0.562693
vn 0.592007 0.000000 -0.805933
vn 0.592007 0.000000 -0.805933
vn 0.826666 0.000000 0.562693
vn 0.826666 0.000000 0.562693
vn 0.826666 0.000000 0.562693
vn 0.826666 0.000000 0.562693
vn 0.592007 0.000000 -0.805933
vn 0.592007 0.000000 -0.805933
vn 0.826666 0.000000 0.562693
vn 0.826666 0.000000 0.562693
vn 0.826666 0.000000 0.562693
vn 0.826666 0.000000 0.562693
vn 0.592007 0.000000 -0.805933
vn 0.592007 0.000000 -0.805933
vn 0.826666 0.000000 0.562693
vn 0.826666 0.000000 0.562693
vn 0.826666 0.000000 0.562693
vn 0.826666 0.000000 0.562693
vn 0.592007 0.000000 -0.805933
vn 0.000000 0.000000 1.000000
vn 0.000000 0.000000 -1.000000
vn 0.000000 1.000000 0.000000
vn 0.000000 -1.000000 0.000000
vn 1.000000 0.000000 0.000000
vn -1.000000 0.000000 0.000000
vn 0.000000 0.000000 1.000000
vn 0.000000 0.000000 -1.000000
vn 0.000000 1.000000 0.000000
vn 0.000000 -1.000000 0.000000
vn 1.000000 0.000000 0.000000
vn -1.000000 0.000000 0.000000
vn 0.000000 0.000000 1.000000
vn 0.000000 0.000000 -1.000000
vn 0.000000 1.000000 0.000000
vn 0.000000 -1.000000 0.000000
vn 1.000000 0.000000 0.000000
vn -1.000000 0.000000 0.000000
f 2/1/1 6/2/1 8/3/1
f 2/1/1 8/3/1 4/4/1
f 5/5/2 1/6/2 3/7/2
f 5/5/2 3/7/2 7/8/2
f 4/9/3 8/10/3 7/11/3
f 4/9/3 7/11/3 3/12/3
f 1/13/4 5/14/4 6/15/4
f 1/13/4 6/15/4 2/16/4
f 6/17/5 5/18/5 7/19/5
f 6/17/5 7/19/5 8/20/5
f 1/21/6 2/22/6 4/23/6
f 1/21/6 4/23/6 3/24/6
f 10/25/7 14/26/7 16/27/7
f 10/25/7 16/27/7 12/28/7
f 13/29/8 9/30/8 11/31/8
f 13/29/8 11/31/8 15/32/8
f 12/33/9 16/34/9 15/35/9
f 12/33/9 15/35/9 11/36/9
f 9/37/10 13/38/10 14/39/10
f 9/37/10 14/39/10 10/40/10
f 14/41/11 13/42/11 15/43/11
f 14/41/11 15/43/11 16/44/11
f 9/45/12 10/46/12 12/47/12
f 9/45/12 12/47/12 11/48/12
f 18/49/13 22/50/13 24/51/13
f 18/49/13 24/51/13 20/52/13
f 21/53/14 17/54/14 19/55/14
f 21/53/14 19/55/14 23/56/14
f 20/57/15 24/58/15 23/59/15
f 20/57/15 23/59/15 19/60/15
f 17/61/16 21/62/16 22/63/16
f 17/61/16 22/63/16 18/64/16
f 22/65/17 21/66/17 23/67/17
f 22/65/17 23/67/17 24/68/17
f 17/69/18 18/70/18 20/71/18
f 17/69/18 20/71/18 19/72/18
f 26/73/19 30/74/19 32/75/19
f 26/73/19 32/75/19 28/76/19
f 29/77/20 25/78/20 27/79/20
f 29/77/20 27/79/20 31/80/20
f 28/81/21 32/82/21 31/83/21
f 28/81/21 31/83/21 27/84/21
f 25/85/22 29/86/22 30/87/22
f 25/85/22 30/87/22 26/88/22
f 30/89/23 29/90/23 31/91/23
f 30/89/23 31/91/23 32/92/23
f 25/93/24 26/94/24 28/95/24
f 25/93/24 28/95/24 27/96/24
f 34/97/25 38/98/25 40/99/25
f 34/97/25 40/99/25 36/100/25
f 37/101/26 33/102/26 35/103/26
f 37/101/26 35/103/26 39/104/26
f 36/105/27 40/106/27 39/107/27
f 36/105/27 39/107/27 35/108/27
f 33/109/28 37/110/28 38/111/28
f 33/109/28 38/111/28 34/112/28
f 38/113/29 37/114/29 39/115/29
f 38/113/29 39/115/29 40/116/29
f 33/117/30 34/118/30 36/119/30
f 33/117/30 36/119/30 35/120/30
f 42/121/31 46/122/31 48/123/31
f 42/121/31 48/123/31 44/124/31
f 45/125/32 41/126/32 43/127/32
f 45/125/32 43/127/32 47/128/32
f 44/129/33 48/130/33 47/131/33
f 44/129/33 47/131/33 43/132/33
f 41/133/34 45/134/34 46/135/34
f 41/133/34 46/135/34 42/136/34
f 46/137/35 45/138/35 47/139/35
f 46/137/35 47/139/35 48/140/35
f 41/141/36 42/142/36 44/143/36
f 41/141/36 44/143/36 43/144/36
f 50/145/37 54/146/37 56/147/37
f 50/145/37 56/147/37 52/148/37
f 53/149/38 49/150/38 51/151/38
f 53/149/38 51/151/38 55/152/38
f 52/153/39 56/154/39 55/155/39
f 52/153/39 55/155/39 51/156/39
f 49/157/40 53/158/40 54/159/40
f 49/157/40 54/159/40 50/160/40
f 54/161/41 53/162/41 55/163/41
f 54/161/41 55/163/41 56/164/41
f 49/165/42 50/166/42 52/167/42
f 49/165/42 52/167/42 51/168/42
f 58/169/43 62/170/43 64/171/43
f 58/169/43 64/171/43 60/172/43
f 61/173/44 57/174/44 59/175/44
f 61/173/44 59/175/44 63/176/44
f 60/177/45 64/178/45 63/179/45
f 60/177/45 63/179/45 59/180/45
f 57/181/46 61/182/46 62/183/46
f 57/181/46 62/183/46 58/184/46
f 62/185/47 61/186/47 63/187/47
f 62/185/47 63/187/47 64/188/47
f 57/189/48 58/190/48 60/191/48
f 57/189/48 60/191/48 59/192/48
f 66/193/49 70/194/49 72/195/49
f 66/193/49 72/195/49 68/196/49
f 69/197/50 65/198/50 67/199/50
f 69/197/50 67/199/50 71/200/50
f 68/201/51 72/202/51 71/203/51
f 68/201/51 71/203/51 67/204/51
f 65/205/52 69/206/52 70/207/52
f 65/205/52 70/207/52 66/208/52
f 70/209/53 69/210/53 71/211/53
f 70/209/53 71/211/53 72/212/53
f 65/213/54 66/214/54 68/215/54
f 65/213/54 68/215/54 67/216/54
f 74/217/55 78/218/55 80/219/55
f 74/217/55 80/219/55 76/220/55
f 77/221/56 73/222/56 75/223/56
f 77/221/56 75/223/56 79/224/56
f 76/225/57 80/226/57 79/227/57
f 76/225/57 79/227/57 75/228/57
f 73/229/58 77/230/58 78/231/58
f 73/229/58 78/231/58 74/232/58
f 78/233/59 77/234/59 79/235/59
f 78/233/59 79/235/59 80/236/59
f 73/237/60 74/238/60 76/239/60
f 73/237/60 76/239/60 75/240/60
f 82/241/61 86/242/61 88/243/61
f 82/241/61 88/243/61 84/244/61
f 85/245/62 81/246/62 83/247/62
f 85/245/62 83/247/62 87/248/62
f 84/249/63 88/250/63 87/251/63
f 84/249/63 87/251/63 83/252/63
f 81/253/64 85/254/64 86/255/64
f 81/253/64 86/255/64 82/256/64
f 86/257/65 85/258/65 87/259/65
f 86/257/65 87/259/65 88/260/65
f 81/261/66 82/262/66 84/263/66
f 81/261/66 84/263/66 83/264/66
f 90/265/67 94/266/67 96/267/67
f 90/265/67 96/267/67 92/268/67
f 93/269/68 89/270/68 91/271/68
f 93/269/68 91/271/68 95/272/68
f 92/273/69 96/274/69 95/275/69
f 92/273/69 95/275/69 91/276/69
f 89/277/70 93/278/70 94/279/70
f 89/277/70 94/279/70 90/280/70
f 94/281/71 93/282/71 95/283/71
f 94/281/71 95/283/71 96/284/71
f 89/285/72 90/286/72 92/287/72
f 89/285/72 92/287/72 91/288/72
f 97/289/73 99/290/74 100/291/74
f 97/289/73 100/291/74 98/292/73
f 99/293/75 101/294/76 102/295/76
f 99/293/75 102/295/76 100/296/75
f 101/297/77 103/298/78 104/299/78
f 101/297/77 104/299/78 102/300/77
f 103/301/79 105/302/80 106/303/80
f 103/301/79 106/303/80 104/304/79
f 105/305/81 107/306/82 108/307/82
f 105/305/81 108/307/82 106/308/81
f 107/309/83 109/310/84 110/311/84
f 107/309/83 110/311/84 108/312/83
f 109/313/85 111/314/86 112/315/86
f 109/313/85 112/315/86 110/316/85
f 111/317/87 113/318/88 114/319/88
f 111/317/87 114/319/88 112/320/87
f 113/321/89 115/322/90 116/323/90
f 113/321/89 116/323/90 114/324/89
f 115/325/91 117/326/92 118/327/92
f 115/325/91 118/327/92 116/328/91
f 117/329/93 119/330/94 120/331/94
f 117/329/93 120/331/94 118/332/93
f 119/333/95 121/334/96 122/335/96
f 119/333/95 122/335/96 120/336/95
f 121/337/97 123/338/98 124/339/98
f 121/337/97 124/339/98 122/340/97
f 123/341/99 125/342/100 126/343/100
f 123/341/99 126/343/100 124/344/99
f 125/345/101 127/346/102 128/347/102
f 125/345/101 128/347/102 126/348/101
f 127/349/103 129/350/104 130/351/104
f 127/349/103 130/351/104 128/352/103
f 129/353/105 131/354/106 132/355/106
f 129/353/105 132/355/106 130/356/105
f 131/357/107 133/358/108 134/359/108
f 131/357/107 134/359/108 132/360/107
f 133/361/109 135/362/110 136/363/110
f 133/361/109 136/363/110 134/364/109
f 135/365/111 137/366/112 138/367/112
f 135/365/111 138/367/112 136/368/111
f 137/369/113 139/370/114 140/371/114
f 137/369/113 140/371/114 138/372/113
f 139/373/115 141/374/116 142/375/116
f 139/373/115 142/375/116 140/376/115
f 141/377/117 143/378/118 144/379/118
f 141/377/117 144/379/118 142/380/117
f 143/381/119 145/382/120 146/383/120
f 143/381/119 146/383/120 144/384/119
f 145/385/121 147/386/122 148/387/122
f 145/385/121 148/387/122 146/388/121
f 147/389/123 149/390/124 150/391/124
f 147/389/123 150/391/124 148/392/123
f 149/393/125 151/394/126 152/395/126
f 149/393/125 152/395/126 150/396/125
f 151/397/127 153/398/128 154/399/128
f 151/397/127 154/399/128 152/400/127
f 153/401/129 155/402/130 156/403/130
f 153/401/129 156/403/130 154/404/129
f 155/405/131 157/406/132 158/407/132
f 155/405/131 158/407/132 156/408/131
f 157/409/133 159/410/134 160/411/134
f 157/409/133 160/411/134 158/412/133
f 159/413/135 161/414/136 162/415/136
f 159/413/135 162/415/136 160/416/135
f 161/417/137 163/418/138 164/419/138
f 161/417/137 164/419/138 162/420/137
f 163/421/139 165/422/140 166/423/140
f 163/421/139 166/423/140 164/424/139
f 165/425/141 167/426/142 168/427/142
f 165/425/141 168/427/142 166/428/141
f 167/429/143 169/430/144 170/431/144
f 167/429/143 170/431/144 168/432/143
f 169/433/145 171/434/146 172/435/146
f 169/433/145 172/435/146 170/436/145
f 171/437/147 173/438/148 174/439/148
f 171/437/147 174/439/148 172/440/147
f 173/441/149 175/442/150 176/443/150
f 173/441/149 176/443/150 174/444/149
f 175/445/151 177/446/152 178/447/152
f 175/445/151 178/447/152 176/448/151
f 177/449/153 179/450/154 180/451/154
f 177/449/153 180/451/154 178/452/153
f 179/453/155 181/454/156 182/455/156
f 179/453/155 182/455/156 180/456/155
f 181/457/157 183/458/158 184/459/158
f 181/457/157 184/459/158 182/460/157
f 183/461/159 185/462/160 186/463/160
f 183/461/159 186/463/160 184/464/159
f 185/465/161 187/466/162 188/467/162
f 185/465/161 188/467/162 186/468/161
f 187/469/163 189/470/164 190/471/164
f 187/469/163 190/471/164 188/472/163
f 189/473/165 191/474/166 192/475/166
f 189/473/165 192/475/166 190/476/165
f 191/477/167 193/478/168 194/479/168
f 191/477/167 194/479/168 192/480/167
f 193/481/169 195/482/170 196/483/170
f 193/481/169 196/483/170 194/484/169
f 195/485/171 197/486/172 198/487/172
f 195/485/171 198/487/172 196/488/171
f 197/489/173 199/490/174 200/491/174
f 197/489/173 200/491/174 198/492/173
f 199/493/175 201/494/176 202/495/176
f 199/493/175 202/495/176 200/496/175
f 201/497/177 203/498/178 204/499/178
f 201/497/177 204/499/178 202/500/177
f 203/501/179 205/502/180 206/503/180
f 203/501/179 206/503/180 204/504/179
f 205/505/181 207/506/182 208/507/182
f 205/505/181 208/507/182 206/508/181
f 207/509/183 209/510/184 210/511/184
f 207/509/183 210/511/184 208/512/183
f 209/513/185 211/514/186 212/515/186
f 209/513/185 212/515/186 210/516/185
f 211/517/187 213/518/188 214/519/188
f 211/517/187 214/519/188 212/520/187
f 213/521/189 215/522/190 216/523/190
f 213/521/189 216/523/190 214/524/189
f 215/525/191 217/526/192 218/527/192
f 215/525/191 218/527/192 216/528/191
f 217/529/193 219/530/194 220/531/194
f 217/529/193 220/531/194 218/532/193
f 219/533/195 221/534/196 222/535/196
f 219/533/195 222/535/196 220/536/195
f 221/537/197 223/538/198 224/539/198
f 221/537/197 224/539/198 222/540/197
f 223/541/199 225/542/200 226/543/200
f 223/541/199 226/543/200 224/544/199
f 225/545/201 227/546/202 228/547/202
f 225/545/201 228/547/202 226/548/201
f 227/549/203 229/550/204 230/551/204
f 227/549/203 230/551/204 228/552/203
f 229/553/205 231/554/206 232/555/206
f 229/553/205 232/555/206 230/556/205
f 231/557/207 233/558/208 234/559/208
f 231/557/207 234/559/208 232/560/207
f 233/561/209 235/562/210 236/563/210
f 233/561/209 236/563/210 234/564/209
f 235/565/211 237/566/212 238/567/212
f 235/565/211 238/567/212 236/568/211
f 237/569/213 239/570/214 240/571/214
f 237/569/213 240/571/214 238/572/213
f 239/573/215 241/574/216 242/575/216
f 239/573/215 242/575/216 240/576/215
f 241/577/217 243/578/218 244/579/218
f 241/577/217 244/579/218 242/580/217
f 243/581/219 245/582/220 246/583/220
f 243/581/219 246/583/220 244/584/219
f 245/585/221 247/586/222 248/587/222
f 245/585/221 248/587/222 246/588/221
f 247/589/223 249/590/224 250/591/224
f 247/589/223 250/591/224 248/592/223
f 249/593/225 251/594/226 252/595/226
f 249/593/225 252/595/226 250/596/225
f 251/597/227 253/598/228 254/599/228
f 251/597/227 254/599/228 252/600/227
f 253/601/229 255/602/230 256/603/230
f 253/601/229 256/603/230 254/604/229
f 255/605/231 257/606/232 258/607/232
f 255/605/231 258/607/232 256/608/231
f 257/609/233 259/610/234 260/611/234
f 257/609/233 260/611/234 258/612/233
f 259/613/235 261/614/236 262/615/236
f 259/613/235 262/615/236 260/616/235
f 261/617/237 263/618/238 264/619/238
f 261/617/237 264/619/238 262/620/237
f 265/621/239 268/623/240 267/622/240
f 265/621/239 266/624/239 268/623/240
f 267/625/241 270/627/242 269/626/242
f 267/625/241 268/628/241 270/627/242
f 269/629/243 272/631/244 271/630/244
f 269/629/243 270/632/243 272/631/244
f 271/633/245 274/635/246 273/634/246
f 271/633/245 272/636/245 274/635/246
f 273/637/247 276/639/248 275/638/248
f 273/637/247 274/640/247 276/639/248
f 275/641/249 278/643/250 277/642/250
f 275/641/249 276/644/249 278/643/250
f 277/645/251 280/647/252 279/646/252
f 277/645/251 278/648/251 280/647/252
f 279/649/253 282/651/254 281/650/254
f 279/649/253 280/652/253 282/651/254
f 281/653/255 284/655/256 283/654/256
f 281/653/255 282/656/255 284/655/256
f 283/657/257 286/659/258 285/658/258
f 283/657/257 284/660/257 286/659/258
f 285/661/259 288/663/260 287/662/260
f 285/661/259 286/664/259 288/663/260
f 287/665/261 290/667/262 289/666/262
f 287/665/261 288/668/261 290/667/262
f 289/669/263 292/671/264 291/670/264
f 289/669/263 290/672/263 292/671/264
f 291/673/265 294/675/266 293/674/266
f 291/673/265 292/676/265 294/675/266
f 293/677/267 296/679/268 295/678/268
f 293/677/267 294/680/267 296/679/268
f 295/681/269 298/683/270 297/682/270
f 295/681/269 296/684/269 298/683/270
f 297/685/271 300/687/272 299/686/272
f 297/685/271 298/688/271 300/687/272
f 299/689/273 302/691/274 301/690/274
f 299/689/273 300/692/273 302/691/274
f 301/693/275 304/695/276 303/694/276
f 301/693/275 302/696/275 304/695/276
f 303/697/277 306/699/278 305/698/278
f 303/697/277 304/700/277 306/699/278
f 305/701/279 308/703/280 307/702/280
f 305/701/279 306/704/279 308/703/280
f 307/705/281 310/707/282 309/706/282
f 307/705/281 308/708/281 310/707/282
f 309/709/283 312/711/284 311/710/284
f 309/709/283 310/712/283 312/711/284
f 311/713/285 314/715/286 313/714/286
f 311/713/285 312/716/285 314/715/286
f 313/717/287 316/719/288 315/718/288
f 313/717/287 314/720/287 316/719/288
f 315/721/289 318/723/290 317/722/290
f 315/721/289 316/724/289 318/723/290
f 317/725/291 320/727/292 319/726/292
f 317/725/291 318/728/291 320/727/292
f 319/729/293 322/731/294 321/730/294
f 319/729/293 320/732/293 322/731/294
f 321/733/295 324/735/296 323/734/296
f 321/733/295 322/736/295 324/735/296
f 323/737/297 326/739/298 325/738/298
f 323/737/297 324/740/297 326/739/298
f 325/741/299 328/743/300 327/742/300
f 325/741/299 326/744/299 328/743/300
f 327/745/301 330/747/302 329/746/302
f 327/745/301 328/748/301 330/747/302
f 329/749/303 332/751/304 331/750/304
f 329/749/303 330/752/303 332/751/304
f 331/753/305 334/755/306 333/754/306
f 331/753/305 332/756/305 334/755/306
f 333/757/307 336/759/308 335/758/308
f 333/757/307 334/760/307 336/759/308
f 335/761/309 338/763/310 337/762/310
f 335/761/309 336/764/309 338/763/310
f 337/765/311 340/767/312 339/766/312
f 337/765/311 338/768/311 340/767/312
f 339/769/313 342/771/314 341/770/314
f 339/769/313 340/772/313 342/771/314
f 341/773/315 344/775/316 343/774/316
f 341/773/315 342/776/315 344/775/316
f 345/777/317 347/778/318 348/779/318
f 345/777/317 348/779/318 346/780/317
f 347/781/319 349/782/320 350/783/320
f 347/781/319 350/783/320 348/784/319
f 349/785/321 351/786/322 352/787/322
f 349/785/321 352/787/322 350/788/321
f 351/789/323 353/790/324 354/791/324
f 351/789/323 354/791/324 352/792/323
f 353/793/325 355/794/326 356/795/326
f 353/793/325 356/795/326 354/796/325
f 355/797/327 357/798/328 358/799/328
f 355/797/327 358/799/328 356/800/327
f 357/801/329 359/802/330 360/803/330
f 357/801/329 360/803/330 358/804/329
f 359/805/331 361/806/332 362/807/332
f 359/805/331 362/807/332 360/808/331
f 361/809/333 363/810/334 364/811/334
f 361/809/333 364/811/334 362/812/333
f 363/813/335 365/814/336 366/815/336
f 363/813/335 366/815/336 364/816/335
f 365/817/337 367/818/338 368/819/338
f 365/817/337 368/819/338 366/820/337
f 367/821/339 369/822/340 370/823/340
f 367/821/339 370/823/340 368/824/339
f 369/825/341 371/826/342 372/827/342
f 369/825/341 372/827/342 370/828/341
f 371/829/343 373/830/344 374/831/344
f 371/829/343 374/831/344 372/832/343
f 373/833/345 375/834/346 376/835/346
f 373/833/345 376/835/346 374/836/345
f 375/837/347 377/838/348 378/839/348
f 375/837/347 378/839/348 376/840/347
f 377/841/349 379/842/350 380/843/350
f 377/841/349 380/843/350 378/844/349
f 379/845/351 381/846/352 382/847/352
f 379/845/351 382/847/352 380/848/351
f 381/849/353 383/850/354 384/851/354
f 381/849/353 384/851/354 382/852/353
f 383/853/355 385/854/356 386/855/356
f 383/853/355 386/855/356 384/856/355
f 385/857/357 387/858/358 388/859/358
f 385/857/357 388/859/358 386/860/357
f 387/861/359 389/862/360 390/863/360
f 387/861/359 390/863/360 388/864/359
f 389/865/361 391/866/362 392/867/362
f 389/865/361 392/867/362 390/868/361
f 391/869/363 393/870/364 394/871/364
f 391/869/363 394/871/364 392/872/363
f 393/873/365 395/874/366 396/875/366
f 393/873/365 396/875/366 394/876/365
f 395/877/367 397/878/368 398/879/368
f 395/877/367 398/879/368 396/880/367
f 397/881/369 399/882/370 400/883/370
f 397/881/369 400/883/370 398/884/369
f 399/885/371 401/886/372 402/887/372
f 399/885/371 402/887/372 400/888/371
f 401/889/373 403/890/374 404/891/374
f 401/889/373 404/891/374 402/892/373
f 403/893/375 405/894/376 406/895/376
f 403/893/375 406/895/376 404/896/375
f 405/897/377 407/898/378 408/899/378
f 405/897/377 408/899/378 406/900/377
f 407/901/379 409/902/380 410/903/380
f 407/901/379 410/903/380 408/904/379
f 409/905/381 411/906/382 412/907/382
f 409/905/381 412/907/382 410/908/381
f 411/909/383 413/910/384 414/911/384
f 411/909/383 414/911/384 412/912/383
f 413/913/385 415/914/386 416/915/386
f 413/913/385 416/915/386 414/916/385
f 415/917/387 417/918/388 418/919/388
f 415/917/387 418/919/388 416/920/387
f 417/921/389 419/922/390 420/923/390
f 417/921/389 420/923/390 418/924/389
f 419/925/391 421/926/392 422/927/392
f 419/925/391 422/927/392 420/928/391
f 421/929/393 423/930/394 424/931/394
f 421/929/393 424/931/394 422/932/393
f 426/933/395 430/934/395 432/935/395
f 426/933/395 432/935/395 428/936/395
f 429/937/396 425/938/396 427/939/396
f 429/937/396 427/939/396 431/940/396
f 428/941/397 432/942/397 431/943/397
f 428/941/397 431/943/397 427/944/397
f 425/945/398 429/946/398 430/947/398
f 425/945/398 430/947/398 426/948/398
f 430/949/399 429/950/399 431/951/399
f 430/949/399 431/951/399 432/952/399
f 425/953/400 426/954/400 428/955/400
f 425/953/400 428/955/400 427/956/400
f 434/957/401 438/958/401 440/959/401
f 434/957/401 440/959/401 436/960/401
f 437/961/402 433/962/402 435/963/402
f 437/961/402 435/963/402 439/964/402
f 436/965/403 440/966/403 439/967/403
f 436/965/403 439/967/403 435/968/403
f 433/969/404 437/970/404 438/971/404
f 433/969/404 438/971/404 434/972/404
f 438/973/405 437/974/405 439/975/405
f 438/973/405 439/975/405 440/976/405
f 433/977/406 434/978/406 436/979/406
f 433/977/406 436/979/406 435/980/406
f 442/981/407 446/982/407 448/983/407
f 442/981/407 448/983/407 444/984/407
f 445/985/408 441/986/408 443/987/408
f 445/985/408 443/987/408 447/988/408
f 444/989/409 448/990/409 447/991/409
f 444/989/409 447/991/409 443/992/409
f 441/993/410 445/994/410 446/995/410
f 441/993/410 446/995/410 442/996/410
f 446/997/411 445/998/411 447/999/411
f 446/997/411 447/999/411 448/1000/411
f 441/1001/412 442/1002/412 444/1003/412
f 441/1001/412 444/1003/412 443/1004/412
