# Wavefront OBJ: SM_Stall_Frame
o SM_Stall_Frame
v -0.900000 1.000000 -0.400000
v -0.900000 1.000000 -0.350000
v -0.900000 1.980000 -0.400000
v -0.900000 1.980000 -0.350000
v -0.850000 1.000000 -0.400000
v -0.850000 1.000000 -0.350000
v -0.850000 1.980000 -0.400000
v -0.850000 1.980000 -0.350000
v -0.900000 1.000000 0.350000
v -0.900000 1.000000 0.400000
v -0.900000 1.980000 0.350000
v -0.900000 1.980000 0.400000
v -0.850000 1.000000 0.350000
v -0.850000 1.000000 0.400000
v -0.850000 1.980000 0.350000
v -0.850000 1.980000 0.400000
v 0.850000 1.000000 -0.400000
v 0.850000 1.000000 -0.350000
v 0.850000 1.980000 -0.400000
v 0.850000 1.980000 -0.350000
v 0.900000 1.000000 -0.400000
v 0.900000 1.000000 -0.350000
v 0.900000 1.980000 -0.400000
v 0.900000 1.980000 -0.350000
v 0.850000 1.000000 0.350000
v 0.850000 1.000000 0.400000
v 0.850000 1.980000 0.350000
v 0.850000 1.980000 0.400000
v 0.900000 1.000000 0.350000
v 0.900000 1.000000 0.400000
v 0.900000 1.980000 0.350000
v 0.900000 1.980000 0.400000
v -0.899000 1.000000 0.375000
v -0.899000 2.140000 0.000000
v -0.891971 1.005303 0.391121
v -0.891971 2.145303 0.016121
v -0.875000 1.007499 0.397798
v -0.875000 2.147499 0.022798
v -0.858029 1.005303 0.391121
v -0.858029 2.145303 0.016121
v -0.851000 1.000000 0.375000
v -0.851000 2.140000 0.000000
v -0.858029 0.994697 0.358879
v -0.858029 2.134697 -0.016121
v -0.875000 0.992501 0.352202
v -0.875000 2.132501 -0.022798
v -0.891971 0.994697 0.358879
v -0.891971 2.134697 -0.016121
v -0.875000 1.000000 0.375000
v -0.875000 2.140000 0.000000
v -0.851000 1.000000 -0.375000
v -0.851000 2.140000 0.000000
v -0.858029 1.005303 -0.391121
v -0.858029 2.145303 -0.016121
v -0.875000 1.007499 -0.397798
v -0.875000 2.147499 -0.022798
v -0.891971 1.005303 -0.391121
v -0.891971 2.145303 -0.016121
v -0.899000 1.000000 -0.375000
v -0.899000 2.140000 -0.000000
v -0.891971 0.994697 -0.358879
v -0.891971 2.134697 0.016121
v -0.875000 0.992501 -0.352202
v -0.875000 2.132501 0.022798
v -0.858029 0.994697 -0.358879
v -0.858029 2.134697 0.016121
v -0.875000 1.000000 -0.375000
v -0.875000 2.140000 0.000000
v -0.900000 2.060000 -0.050000
v -0.900000 2.060000 0.050000
v -0.900000 2.150000 -0.050000
v -0.900000 2.150000 0.050000
v -0.850000 2.060000 -0.050000
v -0.850000 2.060000 0.050000
v -0.850000 2.150000 -0.050000
v -0.850000 2.150000 0.050000
v 0.851000 1.000000 0.375000
v 0.851000 2.140000 0.000000
v 0.858029 1.005303 0.391121
v 0.858029 2.145303 0.016121
v 0.875000 1.007499 0.397798
v 0.875000 2.147499 0.022798
v 0.891971 1.005303 0.391121
v 0.891971 2.145303 0.016121
v 0.899000 1.000000 0.375000
v 0.899000 2.140000 0.000000
v 0.891971 0.994697 0.358879
v 0.891971 2.134697 -0.016121
v 0.875000 0.992501 0.352202
v 0.875000 2.132501 -0.022798
v 0.858029 0.994697 0.358879
v 0.858029 2.134697 -0.016121
v 0.875000 1.000000 0.375000
v 0.875000 2.140000 0.000000
v 0.899000 1.000000 -0.375000
v 0.899000 2.140000 0.000000
v 0.891971 1.005303 -0.391121
v 0.891971 2.145303 -0.016121
v 0.875000 1.007499 -0.397798
v 0.875000 2.147499 -0.022798
v 0.858029 1.005303 -0.391121
v 0.858029 2.145303 -0.016121
v 0.851000 1.000000 -0.375000
v 0.851000 2.140000 -0.000000
v 0.858029 0.994697 -0.358879
v 0.858029 2.134697 0.016121
v 0.875000 0.992501 -0.352202
v 0.875000 2.132501 0.022798
v 0.891971 0.994697 -0.358879
v 0.891971 2.134697 0.016121
v 0.875000 1.000000 -0.375000
v 0.875000 2.140000 0.000000
v 0.850000 2.060000 -0.050000
v 0.850000 2.060000 0.050000
v 0.850000 2.150000 -0.050000
v 0.850000 2.150000 0.050000
v 0.900000 2.060000 -0.050000
v 0.900000 2.060000 0.050000
v 0.900000 2.150000 -0.050000
v 0.900000 2.150000 0.050000
v -0.850000 1.930000 0.350000
v -0.850000 1.930000 0.400000
v -0.850000 1.980000 0.350000
v -0.850000 1.980000 0.400000
v 0.850000 1.930000 0.350000
v 0.850000 1.930000 0.400000
v 0.850000 1.980000 0.350000
v 0.850000 1.980000 0.400000
v -0.850000 1.930000 -0.400000
v -0.850000 1.930000 -0.350000
v -0.850000 1.980000 -0.400000
v -0.850000 1.980000 -0.350000
v 0.850000 1.930000 -0.400000
v 0.850000 1.930000 -0.350000
v 0.850000 1.980000 -0.400000
v 0.850000 1.980000 -0.350000
v -0.850000 2.100000 -0.030000
v -0.850000 2.100000 0.030000
v -0.850000 2.140000 -0.030000
v -0.850000 2.140000 0.030000
v 0.850000 2.100000 -0.030000
v 0.850000 2.100000 0.030000
v 0.850000 2.140000 -0.030000
v 0.850000 2.140000 0.030000
v -0.520000 1.980000 0.370000
v -0.520000 2.140000 0.000000
v -0.514142 1.992980 0.375613
v -0.514142 2.152980 0.005613
v -0.500000 1.998357 0.377938
v -0.500000 2.158357 0.007938
v -0.485858 1.992980 0.375613
v -0.485858 2.152980 0.005613
v -0.480000 1.980000 0.370000
v -0.480000 2.140000 0.000000
v -0.485858 1.967020 0.364387
v -0.485858 2.127020 -0.005613
v -0.500000 1.961643 0.362062
v -0.500000 2.121643 -0.007938
v -0.514142 1.967020 0.364387
v -0.514142 2.127020 -0.005613
v -0.500000 1.980000 0.370000
v -0.500000 2.140000 0.000000
v -0.480000 1.980000 -0.370000
v -0.480000 2.140000 0.000000
v -0.485858 1.992980 -0.375613
v -0.485858 2.152980 -0.005613
v -0.500000 1.998357 -0.377938
v -0.500000 2.158357 -0.007938
v -0.514142 1.992980 -0.375613
v -0.514142 2.152980 -0.005613
v -0.520000 1.980000 -0.370000
v -0.520000 2.140000 -0.000000
v -0.514142 1.967020 -0.364387
v -0.514142 2.127020 0.005613
v -0.500000 1.961643 -0.362062
v -0.500000 2.121643 0.007938
v -0.485858 1.967020 -0.364387
v -0.485858 2.127020 0.005613
v -0.500000 1.980000 -0.370000
v -0.500000 2.140000 0.000000
v -0.020000 1.980000 0.370000
v -0.020000 2.140000 0.000000
v -0.014142 1.992980 0.375613
v -0.014142 2.152980 0.005613
v -0.000000 1.998357 0.377938
v -0.000000 2.158357 0.007938
v 0.014142 1.992980 0.375613
v 0.014142 2.152980 0.005613
v 0.020000 1.980000 0.370000
v 0.020000 2.140000 0.000000
v 0.014142 1.967020 0.364387
v 0.014142 2.127020 -0.005613
v 0.000000 1.961643 0.362062
v 0.000000 2.121643 -0.007938
v -0.014142 1.967020 0.364387
v -0.014142 2.127020 -0.005613
v 0.000000 1.980000 0.370000
v 0.000000 2.140000 0.000000
v 0.020000 1.980000 -0.370000
v 0.020000 2.140000 0.000000
v 0.014142 1.992980 -0.375613
v 0.014142 2.152980 -0.005613
v 0.000000 1.998357 -0.377938
v 0.000000 2.158357 -0.007938
v -0.014142 1.992980 -0.375613
v -0.014142 2.152980 -0.005613
v -0.020000 1.980000 -0.370000
v -0.020000 2.140000 -0.000000
v -0.014142 1.967020 -0.364387
v -0.014142 2.127020 0.005613
v -0.000000 1.961643 -0.362062
v -0.000000 2.121643 0.007938
v 0.014142 1.967020 -0.364387
v 0.014142 2.127020 0.005613
v 0.000000 1.980000 -0.370000
v 0.000000 2.140000 0.000000
v 0.480000 1.980000 0.370000
v 0.480000 2.140000 0.000000
v 0.485858 1.992980 0.375613
v 0.485858 2.152980 0.005613
v 0.500000 1.998357 0.377938
v 0.500000 2.158357 0.007938
v 0.514142 1.992980 0.375613
v 0.514142 2.152980 0.005613
v 0.520000 1.980000 0.370000
v 0.520000 2.140000 0.000000
v 0.514142 1.967020 0.364387
v 0.514142 2.127020 -0.005613
v 0.500000 1.961643 0.362062
v 0.500000 2.121643 -0.007938
v 0.485858 1.967020 0.364387
v 0.485858 2.127020 -0.005613
v 0.500000 1.980000 0.370000
v 0.500000 2.140000 0.000000
v 0.520000 1.980000 -0.370000
v 0.520000 2.140000 0.000000
v 0.514142 1.992980 -0.375613
v 0.514142 2.152980 -0.005613
v 0.500000 1.998357 -0.377938
v 0.500000 2.158357 -0.007938
v 0.485858 1.992980 -0.375613
v 0.485858 2.152980 -0.005613
v 0.480000 1.980000 -0.370000
v 0.480000 2.140000 -0.000000
v 0.485858 1.967020 -0.364387
v 0.485858 2.127020 0.005613
v 0.500000 1.961643 -0.362062
v 0.500000 2.121643 0.007938
v 0.514142 1.967020 -0.364387
v 0.514142 2.127020 0.005613
v 0.500000 1.980000 -0.370000
v 0.500000 2.140000 0.000000
v -0.620000 1.960000 0.340000
v -0.620000 1.960000 0.400000
v -0.620000 2.030000 0.340000
v -0.620000 2.030000 0.400000
v -0.580000 1.960000 0.340000
v -0.580000 1.960000 0.400000
v -0.580000 2.030000 0.340000
v -0.580000 2.030000 0.400000
v 0.580000 1.960000 0.340000
v 0.580000 1.960000 0.400000
v 0.580000 2.030000 0.340000
v 0.580000 2.030000 0.400000
v 0.620000 1.960000 0.340000
v 0.620000 1.960000 0.400000
v 0.620000 2.030000 0.340000
v 0.620000 2.030000 0.400000
vt 0.000000 0.000000
vt 0.050000 0.000000
vt 0.050000 0.980000
vt 0.000000 0.980000
vt 0.000000 0.000000
vt 0.050000 0.000000
vt 0.050000 0.980000
vt 0.000000 0.980000
vt 0.000000 0.000000
vt 0.050000 0.000000
vt 0.050000 0.050000
vt 0.000000 0.050000
vt 0.000000 0.000000
vt 0.050000 0.000000
vt 0.050000 0.050000
vt 0.000000 0.050000
vt 0.000000 0.000000
vt 0.050000 0.000000
vt 0.050000 0.980000
vt 0.000000 0.980000
vt 0.000000 0.000000
vt 0.050000 0.000000
vt 0.050000 0.980000
vt 0.000000 0.980000
vt 0.000000 0.000000
vt 0.050000 0.000000
vt 0.050000 0.980000
vt 0.000000 0.980000
vt 0.000000 0.000000
vt 0.050000 0.000000
vt 0.050000 0.980000
vt 0.000000 0.980000
vt 0.000000 0.000000
vt 0.050000 0.000000
vt 0.050000 0.050000
vt 0.000000 0.050000
vt 0.000000 0.000000
vt 0.050000 0.000000
vt 0.050000 0.050000
vt 0.000000 0.050000
vt 0.000000 0.000000
vt 0.050000 0.000000
vt 0.050000 0.980000
vt 0.000000 0.980000
vt 0.000000 0.000000
vt 0.050000 0.000000
vt 0.050000 0.980000
vt 0.000000 0.980000
vt 0.000000 0.000000
vt 0.050000 0.000000
vt 0.050000 0.980000
vt 0.000000 0.980000
vt 0.000000 0.000000
vt 0.050000 0.000000
vt 0.050000 0.980000
vt 0.000000 0.980000
vt 0.000000 0.000000
vt 0.050000 0.000000
vt 0.050000 0.050000
vt 0.000000 0.050000
vt 0.000000 0.000000
vt 0.050000 0.000000
vt 0.050000 0.050000
vt 0.000000 0.050000
vt 0.000000 0.000000
vt 0.050000 0.000000
vt 0.050000 0.980000
vt 0.000000 0.980000
vt 0.000000 0.000000
vt 0.050000 0.000000
vt 0.050000 0.980000
vt 0.000000 0.980000
vt 0.000000 0.000000
vt 0.050000 0.000000
vt 0.050000 0.980000
vt 0.000000 0.980000
vt 0.000000 0.000000
vt 0.050000 0.000000
vt 0.050000 0.980000
vt 0.000000 0.980000
vt 0.000000 0.000000
vt 0.050000 0.000000
vt 0.050000 0.050000
vt 0.000000 0.050000
vt 0.000000 0.000000
vt 0.050000 0.000000
vt 0.050000 0.050000
vt 0.000000 0.050000
vt 0.000000 0.000000
vt 0.050000 0.000000
vt 0.050000 0.980000
vt 0.000000 0.980000
vt 0.000000 0.000000
vt 0.050000 0.000000
vt 0.050000 0.980000
vt 0.000000 0.980000
vt 0.000000 0.000000
vt 0.125000 0.000000
vt 0.125000 1.200094
vt 0.000000 1.200094
vt 0.125000 0.000000
vt 0.250000 0.000000
vt 0.250000 1.200094
vt 0.125000 1.200094
vt 0.250000 0.000000
vt 0.375000 0.000000
vt 0.375000 1.200094
vt 0.250000 1.200094
vt 0.375000 0.000000
vt 0.500000 0.000000
vt 0.500000 1.200094
vt 0.375000 1.200094
vt 0.500000 0.000000
vt 0.625000 0.000000
vt 0.625000 1.200094
vt 0.500000 1.200094
vt 0.625000 0.000000
vt 0.750000 0.000000
vt 0.750000 1.200094
vt 0.625000 1.200094
vt 0.750000 0.000000
vt 0.875000 0.000000
vt 0.875000 1.200094
vt 0.750000 1.200094
vt 0.875000 0.000000
vt 1.000000 0.000000
vt 1.000000 1.200094
vt 0.875000 1.200094
vt 0.500000 0.500000
vt 1.000000 0.500000
vt 0.853553 0.853553
vt 0.853553 0.853553
vt 0.500000 1.000000
vt 0.500000 1.000000
vt 0.146447 0.853553
vt 0.146447 0.853553
vt 0.000000 0.500000
vt 0.000000 0.500000
vt 0.146447 0.146447
vt 0.146447 0.146447
vt 0.500000 0.000000
vt 0.500000 0.000000
vt 0.853553 0.146447
vt 0.853553 0.146447
vt 1.000000 0.500000
vt 0.000000 0.000000
vt 0.125000 0.000000
vt 0.125000 1.200094
vt 0.000000 1.200094
vt 0.125000 0.000000
vt 0.250000 0.000000
vt 0.250000 1.200094
vt 0.125000 1.200094
vt 0.250000 0.000000
vt 0.375000 0.000000
vt 0.375000 1.200094
vt 0.250000 1.200094
vt 0.375000 0.000000
vt 0.500000 0.000000
vt 0.500000 1.200094
vt 0.375000 1.200094
vt 0.500000 0.000000
vt 0.625000 0.000000
vt 0.625000 1.200094
vt 0.500000 1.200094
vt 0.625000 0.000000
vt 0.750000 0.000000
vt 0.750000 1.200094
vt 0.625000 1.200094
vt 0.750000 0.000000
vt 0.875000 0.000000
vt 0.875000 1.200094
vt 0.750000 1.200094
vt 0.875000 0.000000
vt 1.000000 0.000000
vt 1.000000 1.200094
vt 0.875000 1.200094
vt 0.500000 0.500000
vt 1.000000 0.500000
vt 0.853553 0.853553
vt 0.853553 0.853553
vt 0.500000 1.000000
vt 0.500000 1.000000
vt 0.146447 0.853553
vt 0.146447 0.853553
vt 0.000000 0.500000
vt 0.000000 0.500000
vt 0.146447 0.146447
vt 0.146447 0.146447
vt 0.500000 0.000000
vt 0.500000 0.000000
vt 0.853553 0.146447
vt 0.853553 0.146447
vt 1.000000 0.500000
vt 0.000000 0.000000
vt 0.050000 0.000000
vt 0.050000 0.090000
vt 0.000000 0.090000
vt 0.000000 0.000000
vt 0.050000 0.000000
vt 0.050000 0.090000
vt 0.000000 0.090000
vt 0.000000 0.000000
vt 0.050000 0.000000
vt 0.050000 0.100000
vt 0.000000 0.100000
vt 0.000000 0.000000
vt 0.050000 0.000000
vt 0.050000 0.100000
vt 0.000000 0.100000
vt 0.000000 0.000000
vt 0.100000 0.000000
vt 0.100000 0.090000
vt 0.000000 0.090000
vt 0.000000 0.000000
vt 0.100000 0.000000
vt 0.100000 0.090000
vt 0.000000 0.090000
vt 0.000000 0.000000
vt 0.125000 0.000000
vt 0.125000 1.200094
vt 0.000000 1.200094
vt 0.125000 0.000000
vt 0.250000 0.000000
vt 0.250000 1.200094
vt 0.125000 1.200094
vt 0.250000 0.000000
vt 0.375000 0.000000
vt 0.375000 1.200094
vt 0.250000 1.200094
vt 0.375000 0.000000
vt 0.500000 0.000000
vt 0.500000 1.200094
vt 0.375000 1.200094
vt 0.500000 0.000000
vt 0.625000 0.000000
vt 0.625000 1.200094
vt 0.500000 1.200094
vt 0.625000 0.000000
vt 0.750000 0.000000
vt 0.750000 1.200094
vt 0.625000 1.200094
vt 0.750000 0.000000
vt 0.875000 0.000000
vt 0.875000 1.200094
vt 0.750000 1.200094
vt 0.875000 0.000000
vt 1.000000 0.000000
vt 1.000000 1.200094
vt 0.875000 1.200094
vt 0.500000 0.500000
vt 1.000000 0.500000
vt 0.853553 0.853553
vt 0.853553 0.853553
vt 0.500000 1.000000
vt 0.500000 1.000000
vt 0.146447 0.853553
vt 0.146447 0.853553
vt 0.000000 0.500000
vt 0.000000 0.500000
vt 0.146447 0.146447
vt 0.146447 0.146447
vt 0.500000 0.000000
vt 0.500000 0.000000
vt 0.853553 0.146447
vt 0.853553 0.146447
vt 1.000000 0.500000
vt 0.000000 0.000000
vt 0.125000 0.000000
vt 0.125000 1.200094
vt 0.000000 1.200094
vt 0.125000 0.000000
vt 0.250000 0.000000
vt 0.250000 1.200094
vt 0.125000 1.200094
vt 0.250000 0.000000
vt 0.375000 0.000000
vt 0.375000 1.200094
vt 0.250000 1.200094
vt 0.375000 0.000000
vt 0.500000 0.000000
vt 0.500000 1.200094
vt 0.375000 1.200094
vt 0.500000 0.000000
vt 0.625000 0.000000
vt 0.625000 1.200094
vt 0.500000 1.200094
vt 0.625000 0.000000
vt 0.750000 0.000000
vt 0.750000 1.200094
vt 0.625000 1.200094
vt 0.750000 0.000000
vt 0.875000 0.000000
vt 0.875000 1.200094
vt 0.750000 1.200094
vt 0.875000 0.000000
vt 1.000000 0.000000
vt 1.000000 1.200094
vt 0.875000 1.200094
vt 0.500000 0.500000
vt 1.000000 0.500000
vt 0.853553 0.853553
vt 0.853553 0.853553
vt 0.500000 1.000000
vt 0.500000 1.000000
vt 0.146447 0.853553
vt 0.146447 0.853553
vt 0.000000 0.500000
vt 0.000000 0.500000
vt 0.146447 0.146447
vt 0.146447 0.146447
vt 0.500000 0.000000
vt 0.500000 0.000000
vt 0.853553 0.146447
vt 0.853553 0.146447
vt 1.000000 0.500000
vt 0.000000 0.000000
vt 0.050000 0.000000
vt 0.050000 0.090000
vt 0.000000 0.090000
vt 0.000000 0.000000
vt 0.050000 0.000000
vt 0.050000 0.090000
vt 0.000000 0.090000
vt 0.000000 0.000000
vt 0.050000 0.000000
vt 0.050000 0.100000
vt 0.000000 0.100000
vt 0.000000 0.000000
vt 0.050000 0.000000
vt 0.050000 0.100000
vt 0.000000 0.100000
vt 0.000000 0.000000
vt 0.100000 0.000000
vt 0.100000 0.090000
vt 0.000000 0.090000
vt 0.000000 0.000000
vt 0.100000 0.000000
vt 0.100000 0.090000
vt 0.000000 0.090000
vt 0.000000 0.000000
vt 1.700000 0.000000
vt 1.700000 0.050000
vt 0.000000 0.050000
vt 0.000000 0.000000
vt 1.700000 0.000000
vt 1.700000 0.050000
vt 0.000000 0.050000
vt 0.000000 0.000000
vt 1.700000 0.000000
vt 1.700000 0.050000
vt 0.000000 0.050000
vt 0.000000 0.000000
vt 1.700000 0.000000
vt 1.700000 0.050000
vt 0.000000 0.050000
vt 0.000000 0.000000
vt 0.050000 0.000000
vt 0.050000 0.050000
vt 0.000000 0.050000
vt 0.000000 0.000000
vt 0.050000 0.000000
vt 0.050000 0.050000
vt 0.000000 0.050000
vt 0.000000 0.000000
vt 1.700000 0.000000
vt 1.700000 0.050000
vt 0.000000 0.050000
vt 0.000000 0.000000
vt 1.700000 0.000000
vt 1.700000 0.050000
vt 0.000000 0.050000
vt 0.000000 0.000000
vt 1.700000 0.000000
vt 1.700000 0.050000
vt 0.000000 0.050000
vt 0.000000 0.000000
vt 1.700000 0.000000
vt 1.700000 0.050000
vt 0.000000 0.050000
vt 0.000000 0.000000
vt 0.050000 0.000000
vt 0.050000 0.050000
vt 0.000000 0.050000
vt 0.000000 0.000000
vt 0.050000 0.000000
vt 0.050000 0.050000
vt 0.000000 0.050000
vt 0.000000 0.000000
vt 1.700000 0.000000
vt 1.700000 0.040000
vt 0.000000 0.040000
vt 0.000000 0.000000
vt 1.700000 0.000000
vt 1.700000 0.040000
vt 0.000000 0.040000
vt 0.000000 0.000000
vt 1.700000 0.000000
vt 1.700000 0.060000
vt 0.000000 0.060000
vt 0.000000 0.000000
vt 1.700000 0.000000
vt 1.700000 0.060000
vt 0.000000 0.060000
vt 0.000000 0.000000
vt 0.060000 0.000000
vt 0.060000 0.040000
vt 0.000000 0.040000
vt 0.000000 0.000000
vt 0.060000 0.000000
vt 0.060000 0.040000
vt 0.000000 0.040000
vt 0.000000 0.000000
vt 0.125000 0.000000
vt 0.125000 0.403113
vt 0.000000 0.403113
vt 0.125000 0.000000
vt 0.250000 0.000000
vt 0.250000 0.403113
vt 0.125000 0.403113
vt 0.250000 0.000000
vt 0.375000 0.000000
vt 0.375000 0.403113
vt 0.250000 0.403113
vt 0.375000 0.000000
vt 0.500000 0.000000
vt 0.500000 0.403113
vt 0.375000 0.403113
vt 0.500000 0.000000
vt 0.625000 0.000000
vt 0.625000 0.403113
vt 0.500000 0.403113
vt 0.625000 0.000000
vt 0.750000 0.000000
vt 0.750000 0.403113
vt 0.625000 0.403113
vt 0.750000 0.000000
vt 0.875000 0.000000
vt 0.875000 0.403113
vt 0.750000 0.403113
vt 0.875000 0.000000
vt 1.000000 0.000000
vt 1.000000 0.403113
vt 0.875000 0.403113
vt 0.500000 0.500000
vt 1.000000 0.500000
vt 0.853553 0.853553
vt 0.853553 0.853553
vt 0.500000 1.000000
vt 0.500000 1.000000
vt 0.146447 0.853553
vt 0.146447 0.853553
vt 0.000000 0.500000
vt 0.000000 0.500000
vt 0.146447 0.146447
vt 0.146447 0.146447
vt 0.500000 0.000000
vt 0.500000 0.000000
vt 0.853553 0.146447
vt 0.853553 0.146447
vt 1.000000 0.500000
vt 0.000000 0.000000
vt 0.125000 0.000000
vt 0.125000 0.403113
vt 0.000000 0.403113
vt 0.125000 0.000000
vt 0.250000 0.000000
vt 0.250000 0.403113
vt 0.125000 0.403113
vt 0.250000 0.000000
vt 0.375000 0.000000
vt 0.375000 0.403113
vt 0.250000 0.403113
vt 0.375000 0.000000
vt 0.500000 0.000000
vt 0.500000 0.403113
vt 0.375000 0.403113
vt 0.500000 0.000000
vt 0.625000 0.000000
vt 0.625000 0.403113
vt 0.500000 0.403113
vt 0.625000 0.000000
vt 0.750000 0.000000
vt 0.750000 0.403113
vt 0.625000 0.403113
vt 0.750000 0.000000
vt 0.875000 0.000000
vt 0.875000 0.403113
vt 0.750000 0.403113
vt 0.875000 0.000000
vt 1.000000 0.000000
vt 1.000000 0.403113
vt 0.875000 0.403113
vt 0.500000 0.500000
vt 1.000000 0.500000
vt 0.853553 0.853553
vt 0.853553 0.853553
vt 0.500000 1.000000
vt 0.500000 1.000000
vt 0.146447 0.853553
vt 0.146447 0.853553
vt 0.000000 0.500000
vt 0.000000 0.500000
vt 0.146447 0.146447
vt 0.146447 0.146447
vt 0.500000 0.000000
vt 0.500000 0.000000
vt 0.853553 0.146447
vt 0.853553 0.146447
vt 1.000000 0.500000
vt 0.000000 0.000000
vt 0.125000 0.000000
vt 0.125000 0.403113
vt 0.000000 0.403113
vt 0.125000 0.000000
vt 0.250000 0.000000
vt 0.250000 0.403113
vt 0.125000 0.403113
vt 0.250000 0.000000
vt 0.375000 0.000000
vt 0.375000 0.403113
vt 0.250000 0.403113
vt 0.375000 0.000000
vt 0.500000 0.000000
vt 0.500000 0.403113
vt 0.375000 0.403113
vt 0.500000 0.000000
vt 0.625000 0.000000
vt 0.625000 0.403113
vt 0.500000 0.403113
vt 0.625000 0.000000
vt 0.750000 0.000000
vt 0.750000 0.403113
vt 0.625000 0.403113
vt 0.750000 0.000000
vt 0.875000 0.000000
vt 0.875000 0.403113
vt 0.750000 0.403113
vt 0.875000 0.000000
vt 1.000000 0.000000
vt 1.000000 0.403113
vt 0.875000 0.403113
vt 0.500000 0.500000
vt 1.000000 0.500000
vt 0.853553 0.853553
vt 0.853553 0.853553
vt 0.500000 1.000000
vt 0.500000 1.000000
vt 0.146447 0.853553
vt 0.146447 0.853553
vt 0.000000 0.500000
vt 0.000000 0.500000
vt 0.146447 0.146447
vt 0.146447 0.146447
vt 0.500000 0.000000
vt 0.500000 0.000000
vt 0.853553 0.146447
vt 0.853553 0.146447
vt 1.000000 0.500000
vt 0.000000 0.000000
vt 0.125000 0.000000
vt 0.125000 0.403113
vt 0.000000 0.403113
vt 0.125000 0.000000
vt 0.250000 0.000000
vt 0.250000 0.403113
vt 0.125000 0.403113
vt 0.250000 0.000000
vt 0.375000 0.000000
vt 0.375000 0.403113
vt 0.250000 0.403113
vt 0.375000 0.000000
vt 0.500000 0.000000
vt 0.500000 0.403113
vt 0.375000 0.403113
vt 0.500000 0.000000
vt 0.625000 0.000000
vt 0.625000 0.403113
vt 0.500000 0.403113
vt 0.625000 0.000000
vt 0.750000 0.000000
vt 0.750000 0.403113
vt 0.625000 0.403113
vt 0.750000 0.000000
vt 0.875000 0.000000
vt 0.875000 0.403113
vt 0.750000 0.403113
vt 0.875000 0.000000
vt 1.000000 0.000000
vt 1.000000 0.403113
vt 0.875000 0.403113
vt 0.500000 0.500000
vt 1.000000 0.500000
vt 0.853553 0.853553
vt 0.853553 0.853553
vt 0.500000 1.000000
vt 0.500000 1.000000
vt 0.146447 0.853553
vt 0.146447 0.853553
vt 0.000000 0.500000
vt 0.000000 0.500000
vt 0.146447 0.146447
vt 0.146447 0.146447
vt 0.500000 0.000000
vt 0.500000 0.000000
vt 0.853553 0.146447
vt 0.853553 0.146447
vt 1.000000 0.500000
vt 0.000000 0.000000
vt 0.125000 0.000000
vt 0.125000 0.403113
vt 0.000000 0.403113
vt 0.125000 0.000000
vt 0.250000 0.000000
vt 0.250000 0.403113
vt 0.125000 0.403113
vt 0.250000 0.000000
vt 0.375000 0.000000
vt 0.375000 0.403113
vt 0.250000 0.403113
vt 0.375000 0.000000
vt 0.500000 0.000000
vt 0.500000 0.403113
vt 0.375000 0.403113
vt 0.500000 0.000000
vt 0.625000 0.000000
vt 0.625000 0.403113
vt 0.500000 0.403113
vt 0.625000 0.000000
vt 0.750000 0.000000
vt 0.750000 0.403113
vt 0.625000 0.403113
vt 0.750000 0.000000
vt 0.875000 0.000000
vt 0.875000 0.403113
vt 0.750000 0.403113
vt 0.875000 0.000000
vt 1.000000 0.000000
vt 1.000000 0.403113
vt 0.875000 0.403113
vt 0.500000 0.500000
vt 1.000000 0.500000
vt 0.853553 0.853553
vt 0.853553 0.853553
vt 0.500000 1.000000
vt 0.500000 1.000000
vt 0.146447 0.853553
vt 0.146447 0.853553
vt 0.000000 0.500000
vt 0.000000 0.500000
vt 0.146447 0.146447
vt 0.146447 0.146447
vt 0.500000 0.000000
vt 0.500000 0.000000
vt 0.853553 0.146447
vt 0.853553 0.146447
vt 1.000000 0.500000
vt 0.000000 0.000000
vt 0.125000 0.000000
vt 0.125000 0.403113
vt 0.000000 0.403113
vt 0.125000 0.000000
vt 0.250000 0.000000
vt 0.250000 0.403113
vt 0.125000 0.403113
vt 0.250000 0.000000
vt 0.375000 0.000000
vt 0.375000 0.403113
vt 0.250000 0.403113
vt 0.375000 0.000000
vt 0.500000 0.000000
vt 0.500000 0.403113
vt 0.375000 0.403113
vt 0.500000 0.000000
vt 0.625000 0.000000
vt 0.625000 0.403113
vt 0.500000 0.403113
vt 0.625000 0.000000
vt 0.750000 0.000000
vt 0.750000 0.403113
vt 0.625000 0.403113
vt 0.750000 0.000000
vt 0.875000 0.000000
vt 0.875000 0.403113
vt 0.750000 0.403113
vt 0.875000 0.000000
vt 1.000000 0.000000
vt 1.000000 0.403113
vt 0.875000 0.403113
vt 0.500000 0.500000
vt 1.000000 0.500000
vt 0.853553 0.853553
vt 0.853553 0.853553
vt 0.500000 1.000000
vt 0.500000 1.000000
vt 0.146447 0.853553
vt 0.146447 0.853553
vt 0.000000 0.500000
vt 0.000000 0.500000
vt 0.146447 0.146447
vt 0.146447 0.146447
vt 0.500000 0.000000
vt 0.500000 0.000000
vt 0.853553 0.146447
vt 0.853553 0.146447
vt 1.000000 0.500000
vt 0.000000 0.000000
vt 0.040000 0.000000
vt 0.040000 0.070000
vt 0.000000 0.070000
vt 0.000000 0.000000
vt 0.040000 0.000000
vt 0.040000 0.070000
vt 0.000000 0.070000
vt 0.000000 0.000000
vt 0.040000 0.000000
vt 0.040000 0.060000
vt 0.000000 0.060000
vt 0.000000 0.000000
vt 0.040000 0.000000
vt 0.040000 0.060000
vt 0.000000 0.060000
vt 0.000000 0.000000
vt 0.060000 0.000000
vt 0.060000 0.070000
vt 0.000000 0.070000
vt 0.000000 0.000000
vt 0.060000 0.000000
vt 0.060000 0.070000
vt 0.000000 0.070000
vt 0.000000 0.000000
vt 0.040000 0.000000
vt 0.040000 0.070000
vt 0.000000 0.070000
vt 0.000000 0.000000
vt 0.040000 0.000000
vt 0.040000 0.070000
vt 0.000000 0.070000
vt 0.000000 0.000000
vt 0.040000 0.000000
vt 0.040000 0.060000
vt 0.000000 0.060000
vt 0.000000 0.000000
vt 0.040000 0.000000
vt 0.040000 0.060000
vt 0.000000 0.060000
vt 0.000000 0.000000
vt 0.060000 0.000000
vt 0.060000 0.070000
vt 0.000000 0.070000
vt 0.000000 0.000000
vt 0.060000 0.000000
vt 0.060000 0.070000
vt 0.000000 0.070000
vn 0.000000 0.000000 1.000000
vn 0.000000 0.000000 -1.000000
vn 0.000000 1.000000 0.000000
vn 0.000000 -1.000000 0.000000
vn 1.000000 0.000000 0.000000
vn -1.000000 0.000000 0.000000
vn 0.000000 0.000000 1.000000
vn 0.000000 0.000000 -1.000000
vn 0.000000 1.000000 0.000000
vn 0.000000 -1.000000 0.000000
vn 1.000000 0.000000 0.000000
vn -1.000000 0.000000 0.000000
vn 0.000000 0.000000 1.000000
vn 0.000000 0.000000 -1.000000
vn 0.000000 1.000000 0.000000
vn 0.000000 -1.000000 0.000000
vn 1.000000 0.000000 0.000000
vn -1.000000 0.000000 0.000000
vn 0.000000 0.000000 1.000000
vn 0.000000 0.000000 -1.000000
vn 0.000000 1.000000 0.000000
vn 0.000000 -1.000000 0.000000
vn 1.000000 0.000000 0.000000
vn -1.000000 0.000000 0.000000
vn -1.000000 0.000000 0.000000
vn -0.707107 0.220954 0.671699
vn -0.707107 0.220954 0.671699
vn -0.000000 0.312476 0.949926
vn -0.000000 0.312476 0.949926
vn 0.707107 0.220954 0.671699
vn 0.707107 0.220954 0.671699
vn 1.000000 0.000000 0.000000
vn 1.000000 0.000000 0.000000
vn 0.707107 -0.220954 -0.671699
vn 0.707107 -0.220954 -0.671699
vn 0.000000 -0.312476 -0.949926
vn 0.000000 -0.312476 -0.949926
vn -0.707107 -0.220954 -0.671699
vn -0.707107 -0.220954 -0.671699
vn -1.000000 0.000000 0.000000
vn -0.000000 -0.949926 0.312476
vn 0.000000 0.949926 -0.312476
vn 1.000000 0.000000 0.000000
vn 0.707107 0.220954 -0.671699
vn 0.707107 0.220954 -0.671699
vn 0.000000 0.312476 -0.949926
vn 0.000000 0.312476 -0.949926
vn -0.707107 0.220954 -0.671699
vn -0.707107 0.220954 -0.671699
vn -1.000000 0.000000 -0.000000
vn -1.000000 0.000000 -0.000000
vn -0.707107 -0.220954 0.671699
vn -0.707107 -0.220954 0.671699
vn -0.000000 -0.312476 0.949926
vn -0.000000 -0.312476 0.949926
vn 0.707107 -0.220954 0.671699
vn 0.707107 -0.220954 0.671699
vn 1.000000 0.000000 0.000000
vn -0.000000 -0.949926 -0.312476
vn 0.000000 0.949926 0.312476
vn 0.000000 0.000000 1.000000
vn 0.000000 0.000000 -1.000000
vn 0.000000 1.000000 0.000000
vn 0.000000 -1.000000 0.000000
vn 1.000000 0.000000 0.000000
vn -1.000000 0.000000 0.000000
vn -1.000000 0.000000 0.000000
vn -0.707107 0.220954 0.671699
vn -0.707107 0.220954 0.671699
vn -0.000000 0.312476 0.949926
vn -0.000000 0.312476 0.949926
vn 0.707107 0.220954 0.671699
vn 0.707107 0.220954 0.671699
vn 1.000000 0.000000 0.000000
vn 1.000000 0.000000 0.000000
vn 0.707107 -0.220954 -0.671699
vn 0.707107 -0.220954 -0.671699
vn 0.000000 -0.312476 -0.949926
vn 0.000000 -0.312476 -0.949926
vn -0.707107 -0.220954 -0.671699
vn -0.707107 -0.220954 -0.671699
vn -1.000000 0.000000 0.000000
vn -0.000000 -0.949926 0.312476
vn 0.000000 0.949926 -0.312476
vn 1.000000 0.000000 0.000000
vn 0.707107 0.220954 -0.671699
vn 0.707107 0.220954 -0.671699
vn 0.000000 0.312476 -0.949926
vn 0.000000 0.312476 -0.949926
vn -0.707107 0.220954 -0.671699
vn -0.707107 0.220954 -0.671699
vn -1.000000 0.000000 -0.000000
vn -1.000000 0.000000 -0.000000
vn -0.707107 -0.220954 0.671699
vn -0.707107 -0.220954 0.671699
vn -0.000000 -0.312476 0.949926
vn -0.000000 -0.312476 0.949926
vn 0.707107 -0.220954 0.671699
vn 0.707107 -0.220954 0.671699
vn 1.000000 0.000000 0.000000
vn -0.000000 -0.949926 -0.312476
vn 0.000000 0.949926 0.312476
vn 0.000000 0.000000 1.000000
vn 0.000000 0.000000 -1.000000
vn 0.000000 1.000000 0.000000
vn 0.000000 -1.000000 0.000000
vn 1.000000 0.000000 0.000000
vn -1.000000 0.000000 0.000000
vn 0.000000 0.000000 1.000000
vn 0.000000 0.000000 -1.000000
vn 0.000000 1.000000 0.000000
vn 0.000000 -1.000000 0.000000
vn 1.000000 0.000000 0.000000
vn -1.000000 0.000000 0.000000
vn 0.000000 0.000000 1.000000
vn 0.000000 0.000000 -1.000000
vn 0.000000 1.000000 0.000000
vn 0.000000 -1.000000 0.000000
vn 1.000000 0.000000 0.000000
vn -1.000000 0.000000 0.000000
vn 0.000000 0.000000 1.000000
vn 0.000000 0.000000 -1.000000
vn 0.000000 1.000000 0.000000
vn 0.000000 -1.000000 0.000000
vn 1.000000 0.000000 0.000000
vn -1.000000 0.000000 0.000000
vn -1.000000 0.000000 0.000000
vn -0.707107 0.649023 0.280659
vn -0.707107 0.649023 0.280659
vn -0.000000 0.917857 0.396911
vn -0.000000 0.917857 0.396911
vn 0.707107 0.649023 0.280659
vn 0.707107 0.649023 0.280659
vn 1.000000 0.000000 0.000000
vn 1.000000 0.000000 0.000000
vn 0.707107 -0.649023 -0.280659
vn 0.707107 -0.649023 -0.280659
vn 0.000000 -0.917857 -0.396911
vn 0.000000 -0.917857 -0.396911
vn -0.707107 -0.649023 -0.280659
vn -0.707107 -0.649023 -0.280659
vn -1.000000 0.000000 0.000000
vn -0.000000 -0.396911 0.917857
vn 0.000000 0.396911 -0.917857
vn 1.000000 0.000000 0.000000
vn 0.707107 0.649023 -0.280659
vn 0.707107 0.649023 -0.280659
vn 0.000000 0.917857 -0.396911
vn 0.000000 0.917857 -0.396911
vn -0.707107 0.649023 -0.280659
vn -0.707107 0.649023 -0.280659
vn -1.000000 0.000000 -0.000000
vn -1.000000 0.000000 -0.000000
vn -0.707107 -0.649023 0.280659
vn -0.707107 -0.649023 0.280659
vn -0.000000 -0.917857 0.396911
vn -0.000000 -0.917857 0.396911
vn 0.707107 -0.649023 0.280659
vn 0.707107 -0.649023 0.280659
vn 1.000000 0.000000 0.000000
vn -0.000000 -0.396911 -0.917857
vn 0.000000 0.396911 0.917857
vn -1.000000 0.000000 0.000000
vn -0.707107 0.649023 0.280659
vn -0.707107 0.649023 0.280659
vn -0.000000 0.917857 0.396911
vn -0.000000 0.917857 0.396911
vn 0.707107 0.649023 0.280659
vn 0.707107 0.649023 0.280659
vn 1.000000 0.000000 0.000000
vn 1.000000 0.000000 0.000000
vn 0.707107 -0.649023 -0.280659
vn 0.707107 -0.649023 -0.280659
vn 0.000000 -0.917857 -0.396911
vn 0.000000 -0.917857 -0.396911
vn -0.707107 -0.649023 -0.280659
vn -0.707107 -0.649023 -0.280659
vn -1.000000 0.000000 0.000000
vn -0.000000 -0.396911 0.917857
vn 0.000000 0.396911 -0.917857
vn 1.000000 0.000000 0.000000
vn 0.707107 0.649023 -0.280659
vn 0.707107 0.649023 -0.280659
vn 0.000000 0.917857 -0.396911
vn 0.000000 0.917857 -0.396911
vn -0.707107 0.649023 -0.280659
vn -0.707107 0.649023 -0.280659
vn -1.000000 0.000000 -0.000000
vn -1.000000 0.000000 -0.000000
vn -0.707107 -0.649023 0.280659
vn -0.707107 -0.649023 0.280659
vn -0.000000 -0.917857 0.396911
vn -0.000000 -0.917857 0.396911
vn 0.707107 -0.649023 0.280659
vn 0.707107 -0.649023 0.280659
vn 1.000000 0.000000 0.000000
vn -0.000000 -0.396911 -0.917857
vn 0.000000 0.396911 0.917857
vn -1.000000 0.000000 0.000000
vn -0.707107 0.649023 0.280659
vn -0.707107 0.649023 0.280659
vn -0.000000 0.917857 0.396911
vn -0.000000 0.917857 0.396911
vn 0.707107 0.649023 0.280659
vn 0.707107 0.649023 0.280659
vn 1.000000 0.000000 0.000000
vn 1.000000 0.000000 0.000000
vn 0.707107 -0.649023 -0.280659
vn 0.707107 -0.649023 -0.280659
vn 0.000000 -0.917857 -0.396911
vn 0.000000 -0.917857 -0.396911
vn -0.707107 -0.649023 -0.280659
vn -0.707107 -0.649023 -0.280659
vn -1.000000 0.000000 0.000000
vn -0.000000 -0.396911 0.917857
vn 0.000000 0.396911 -0.917857
vn 1.000000 0.000000 0.000000
vn 0.707107 0.649023 -0.280659
vn 0.707107 0.649023 -0.280659
vn 0.000000 0.917857 -0.396911
vn 0.000000 0.917857 -0.396911
vn -0.707107 0.649023 -0.280659
vn -0.707107 0.649023 -0.280659
vn -1.000000 0.000000 -0.000000
vn -1.000000 0.000000 -0.000000
vn -0.707107 -0.649023 0.280659
vn -0.707107 -0.649023 0.280659
vn -0.000000 -0.917857 0.396911
vn -0.000000 -0.917857 0.396911
vn 0.707107 -0.649023 0.280659
vn 0.707107 -0.649023 0.280659
vn 1.000000 0.000000 0.000000
vn -0.000000 -0.396911 -0.917857
vn 0.000000 0.396911 0.917857
vn 0.000000 0.000000 1.000000
vn 0.000000 0.000000 -1.000000
vn 0.000000 1.000000 0.000000
vn 0.000000 -1.000000 0.000000
vn 1.000000 0.000000 0.000000
vn -1.000000 0.000000 0.000000
vn 0.000000 0.000000 1.000000
vn 0.000000 0.000000 -1.000000
vn 0.000000 1.000000 0.000000
vn 0.000000 -1.000000 0.000000
vn 1.000000 0.000000 0.000000
vn -1.000000 0.000000 0.000000
f 2/1/1 6/2/1 8/3/1
f 2/1/1 8/3/1 4/4/1
f 5/5/2 1/6/2 3/7/2
f 5/5/2 3/7/2 7/8/2
f 4/9/3 8/10/3 7/11/3
f 4/9/3 7/11/3 3/12/3
f 1/13/4 5/14/4 6/15/4
f 1/13/4 6/15/4 2/16/4
f 6/17/5 5/18/5 7/19/5
f 6/17/5 7/19/5 8/20/5
f 1/21/6 2/22/6 4/23/6
f 1/21/6 4/23/6 3/24/6
f 10/25/7 14/26/7 16/27/7
f 10/25/7 16/27/7 12/28/7
f 13/29/8 9/30/8 11/31/8
f 13/29/8 11/31/8 15/32/8
f 12/33/9 16/34/9 15/35/9
f 12/33/9 15/35/9 11/36/9
f 9/37/10 13/38/10 14/39/10
f 9/37/10 14/39/10 10/40/10
f 14/41/11 13/42/11 15/43/11
f 14/41/11 15/43/11 16/44/11
f 9/45/12 10/46/12 12/47/12
f 9/45/12 12/47/12 11/48/12
f 18/49/13 22/50/13 24/51/13
f 18/49/13 24/51/13 20/52/13
f 21/53/14 17/54/14 19/55/14
f 21/53/14 19/55/14 23/56/14
f 20/57/15 24/58/15 23/59/15
f 20/57/15 23/59/15 19/60/15
f 17/61/16 21/62/16 22/63/16
f 17/61/16 22/63/16 18/64/16
f 22/65/17 21/66/17 23/67/17
f 22/65/17 23/67/17 24/68/17
f 17/69/18 18/70/18 20/71/18
f 17/69/18 20/71/18 19/72/18
f 26/73/19 30/74/19 32/75/19
f 26/73/19 32/75/19 28/76/19
f 29/77/20 25/78/20 27/79/20
f 29/77/20 27/79/20 31/80/20
f 28/81/21 32/82/21 31/83/21
f 28/81/21 31/83/21 27/84/21
f 25/85/22 29/86/22 30/87/22
f 25/85/22 30/87/22 26/88/22
f 30/89/23 29/90/23 31/91/23
f 30/89/23 31/91/23 32/92/23
f 25/93/24 26/94/24 28/95/24
f 25/93/24 28/95/24 27/96/24
f 33/97/25 35/98/26 36/99/26
f 33/97/25 36/99/26 34/100/25
f 35/101/27 37/102/28 38/103/28
f 35/101/27 38/103/28 36/104/27
f 37/105/29 39/106/30 40/107/30
f 37/105/29 40/107/30 38/108/29
f 39/109/31 41/110/32 42/111/32
f 39/109/31 42/111/32 40/112/31
f 41/113/33 43/114/34 44/115/34
f 41/113/33 44/115/34 42/116/33
f 43/117/35 45/118/36 46/119/36
f 43/117/35 46/119/36 44/120/35
f 45/121/37 47/122/38 48/123/38
f 45/121/37 48/123/38 46/124/37
f 47/125/39 33/126/40 34/127/40
f 47/125/39 34/127/40 48/128/39
f 49/129/41 35/131/41 33/130/41
f 50/129/42 34/130/42 36/131/42
f 49/129/41 37/133/41 35/132/41
f 50/129/42 36/132/42 38/133/42
f 49/129/41 39/135/41 37/134/41
f 50/129/42 38/134/42 40/135/42
f 49/129/41 41/137/41 39/136/41
f 50/129/42 40/136/42 42/137/42
f 49/129/41 43/139/41 41/138/41
f 50/129/42 42/138/42 44/139/42
f 49/129/41 45/141/41 43/140/41
f 50/129/42 44/140/42 46/141/42
f 49/129/41 47/143/41 45/142/41
f 50/129/42 46/142/42 48/143/42
f 49/129/41 33/145/41 47/144/41
f 50/129/42 48/144/42 34/145/42
f 51/146/43 53/147/44 54/148/44
f 51/146/43 54/148/44 52/149/43
f 53/150/45 55/151/46 56/152/46
f 53/150/45 56/152/46 54/153/45
f 55/154/47 57/155/48 58/156/48
f 55/154/47 58/156/48 56/157/47
f 57/158/49 59/159/50 60/160/50
f 57/158/49 60/160/50 58/161/49
f 59/162/51 61/163/52 62/164/52
f 59/162/51 62/164/52 60/165/51
f 61/166/53 63/167/54 64/168/54
f 61/166/53 64/168/54 62/169/53
f 63/170/55 65/171/56 66/172/56
f 63/170/55 66/172/56 64/173/55
f 65/174/57 51/175/58 52/176/58
f 65/174/57 52/176/58 66/177/57
f 67/178/59 53/180/59 51/179/59
f 68/178/60 52/179/60 54/180/60
f 67/178/59 55/182/59 53/181/59
f 68/178/60 54/181/60 56/182/60
f 67/178/59 57/184/59 55/183/59
f 68/178/60 56/183/60 58/184/60
f 67/178/59 59/186/59 57/185/59
f 68/178/60 58/185/60 60/186/60
f 67/178/59 61/188/59 59/187/59
f 68/178/60 60/187/60 62/188/60
f 67/178/59 63/190/59 61/189/59
f 68/178/60 62/189/60 64/190/60
f 67/178/59 65/192/59 63/191/59
f 68/178/60 64/191/60 66/192/60
f 67/178/59 51/194/59 65/193/59
f 68/178/60 66/193/60 52/194/60
f 70/195/61 74/196/61 76/197/61
f 70/195/61 76/197/61 72/198/61
f 73/199/62 69/200/62 71/201/62
f 73/199/62 71/201/62 75/202/62
f 72/203/63 76/204/63 75/205/63
f 72/203/63 75/205/63 71/206/63
f 69/207/64 73/208/64 74/209/64
f 69/207/64 74/209/64 70/210/64
f 74/211/65 73/212/65 75/213/65
f 74/211/65 75/213/65 76/214/65
f 69/215/66 70/216/66 72/217/66
f 69/215/66 72/217/66 71/218/66
f 77/219/67 79/220/68 80/221/68
f 77/219/67 80/221/68 78/222/67
f 79/223/69 81/224/70 82/225/70
f 79/223/69 82/225/70 80/226/69
f 81/227/71 83/228/72 84/229/72
f 81/227/71 84/229/72 82/230/71
f 83/231/73 85/232/74 86/233/74
f 83/231/73 86/233/74 84/234/73
f 85/235/75 87/236/76 88/237/76
f 85/235/75 88/237/76 86/238/75
f 87/239/77 89/240/78 90/241/78
f 87/239/77 90/241/78 88/242/77
f 89/243/79 91/244/80 92/245/80
f 89/243/79 92/245/80 90/246/79
f 91/247/81 77/248/82 78/249/82
f 91/247/81 78/249/82 92/250/81
f 93/251/83 79/253/83 77/252/83
f 94/251/84 78/252/84 80/253/84
f 93/251/83 81/255/83 79/254/83
f 94/251/84 80/254/84 82/255/84
f 93/251/83 83/257/83 81/256/83
f 94/251/84 82/256/84 84/257/84
f 93/251/83 85/259/83 83/258/83
f 94/251/84 84/258/84 86/259/84
f 93/251/83 87/261/83 85/260/83
f 94/251/84 86/260/84 88/261/84
f 93/251/83 89/263/83 87/262/83
f 94/251/84 88/262/84 90/263/84
f 93/251/83 91/265/83 89/264/83
f 94/251/84 90/264/84 92/265/84
f 93/251/83 77/267/83 91/266/83
f 94/251/84 92/266/84 78/267/84
f 95/268/85 97/269/86 98/270/86
f 95/268/85 98/270/86 96/271/85
f 97/272/87 99/273/88 100/274/88
f 97/272/87 100/274/88 98/275/87
f 99/276/89 101/277/90 102/278/90
f 99/276/89 102/278/90 100/279/89
f 101/280/91 103/281/92 104/282/92
f 101/280/91 104/282/92 102/283/91
f 103/284/93 105/285/94 106/286/94
f 103/284/93 106/286/94 104/287/93
f 105/288/95 107/289/96 108/290/96
f 105/288/95 108/290/96 106/291/95
f 107/292/97 109/293/98 110/294/98
f 107/292/97 110/294/98 108/295/97
f 109/296/99 95/297/100 96/298/100
f 109/296/99 96/298/100 110/299/99
f 111/300/101 97/302/101 95/301/101
f 112/300/102 96/301/102 98/302/102
f 111/300/101 99/304/101 97/303/101
f 112/300/102 98/303/102 100/304/102
f 111/300/101 101/306/101 99/305/101
f 112/300/102 100/305/102 102/306/102
f 111/300/101 103/308/101 101/307/101
f 112/300/102 102/307/102 104/308/102
f 111/300/101 105/310/101 103/309/101
f 112/300/102 104/309/102 106/310/102
f 111/300/101 107/312/101 105/311/101
f 112/300/102 106/311/102 108/312/102
f 111/300/101 109/314/101 107/313/101
f 112/300/102 108/313/102 110/314/102
f 111/300/101 95/316/101 109/315/101
f 112/300/102 110/315/102 96/316/102
f 114/317/103 118/318/103 120/319/103
f 114/317/103 120/319/103 116/320/103
f 117/321/104 113/322/104 115/323/104
f 117/321/104 115/323/104 119/324/104
f 116/325/105 120/326/105 119/327/105
f 116/325/105 119/327/105 115/328/105
f 113/329/106 117/330/106 118/331/106
f 113/329/106 118/331/106 114/332/106
f 118/333/107 117/334/107 119/335/107
f 118/333/107 119/335/107 120/336/107
f 113/337/108 114/338/108 116/339/108
f 113/337/108 116/339/108 115/340/108
f 122/341/109 126/342/109 128/343/109
f 122/341/109 128/343/109 124/344/109
f 125/345/110 121/346/110 123/347/110
f 125/345/110 123/347/110 127/348/110
f 124/349/111 128/350/111 127/351/111
f 124/349/111 127/351/111 123/352/111
f 121/353/112 125/354/112 126/355/112
f 121/353/112 126/355/112 122/356/112
f 126/357/113 125/358/113 127/359/113
f 126/357/113 127/359/113 128/360/113
f 121/361/114 122/362/114 124/363/114
f 121/361/114 124/363/114 123/364/114
f 130/365/115 134/366/115 136/367/115
f 130/365/115 136/367/115 132/368/115
f 133/369/116 129/370/116 131/371/116
f 133/369/116 131/371/116 135/372/116
f 132/373/117 136/374/117 135/375/117
f 132/373/117 135/375/117 131/376/117
f 129/377/118 133/378/118 134/379/118
f 129/377/118 134/379/118 130/380/118
f 134/381/119 133/382/119 135/383/119
f 134/381/119 135/383/119 136/384/119
f 129/385/120 130/386/120 132/387/120
f 129/385/120 132/387/120 131/388/120
f 138/389/121 142/390/121 144/391/121
f 138/389/121 144/391/121 140/392/121
f 141/393/122 137/394/122 139/395/122
f 141/393/122 139/395/122 143/396/122
f 140/397/123 144/398/123 143/399/123
f 140/397/123 143/399/123 139/400/123
f 137/401/124 141/402/124 142/403/124
f 137/401/124 142/403/124 138/404/124
f 142/405/125 141/406/125 143/407/125
f 142/405/125 143/407/125 144/408/125
f 137/409/126 138/410/126 140/411/126
f 137/409/126 140/411/126 139/412/126
f 145/413/127 147/414/128 148/415/128
f 145/413/127 148/415/128 146/416/127
f 147/417/129 149/418/130 150/419/130
f 147/417/129 150/419/130 148/420/129
f 149/421/131 151/422/132 152/423/132
f 149/421/131 152/423/132 150/424/131
f 151/425/133 153/426/134 154/427/134
f 151/425/133 154/427/134 152/428/133
f 153/429/135 155/430/136 156/431/136
f 153/429/135 156/431/136 154/432/135
f 155/433/137 157/434/138 158/435/138
f 155/433/137 158/435/138 156/436/137
f 157/437/139 159/438/140 160/439/140
f 157/437/139 160/439/140 158/440/139
f 159/441/141 145/442/142 146/443/142
f 159/441/141 146/443/142 160/444/141
f 161/445/143 147/447/143 145/446/143
f 162/445/144 146/446/144 148/447/144
f 161/445/143 149/449/143 147/448/143
f 162/445/144 148/448/144 150/449/144
f 161/445/143 151/451/143 149/450/143
f 162/445/144 150/450/144 152/451/144
f 161/445/143 153/453/143 151/452/143
f 162/445/144 152/452/144 154/453/144
f 161/445/143 155/455/143 153/454/143
f 162/445/144 154/454/144 156/455/144
f 161/445/143 157/457/143 155/456/143
f 162/445/144 156/456/144 158/457/144
f 161/445/143 159/459/143 157/458/143
f 162/445/144 158/458/144 160/459/144
f 161/445/143 145/461/143 159/460/143
f 162/445/144 160/460/144 146/461/144
f 163/462/145 165/463/146 166/464/146
f 163/462/145 166/464/146 164/465/145
f 165/466/147 167/467/148 168/468/148
f 165/466/147 168/468/148 166/469/147
f 167/470/149 169/471/150 170/472/150
f 167/470/149 170/472/150 168/473/149
f 169/474/151 171/475/152 172/476/152
f 169/474/151 172/476/152 170/477/151
f 171/478/153 173/479/154 174/480/154
f 171/478/153 174/480/154 172/481/153
f 173/482/155 175/483/156 176/484/156
f 173/482/155 176/484/156 174/485/155
f 175/486/157 177/487/158 178/488/158
f 175/486/157 178/488/158 176/489/157
f 177/490/159 163/491/160 164/492/160
f 177/490/159 164/492/160 178/493/159
f 179/494/161 165/496/161 163/495/161
f 180/494/162 164/495/162 166/496/162
f 179/494/161 167/498/161 165/497/161
f 180/494/162 166/497/162 168/498/162
f 179/494/161 169/500/161 167/499/161
f 180/494/162 168/499/162 170/500/162
f 179/494/161 171/502/161 169/501/161
f 180/494/162 170/501/162 172/502/162
f 179/494/161 173/504/161 171/503/161
f 180/494/162 172/503/162 174/504/162
f 179/494/161 175/506/161 173/505/161
f 180/494/162 174/505/162 176/506/162
f 179/494/161 177/508/161 175/507/161
f 180/494/162 176/507/162 178/508/162
f 179/494/161 163/510/161 177/509/161
f 180/494/162 178/509/162 164/510/162
f 181/511/163 183/512/164 184/513/164
f 181/511/163 184/513/164 182/514/163
f 183/515/165 185/516/166 186/517/166
f 183/515/165 186/517/166 184/518/165
f 185/519/167 187/520/168 188/521/168
f 185/519/167 188/521/168 186/522/167
f 187/523/169 189/524/170 190/525/170
f 187/523/169 190/525/170 188/526/169
f 189/527/171 191/528/172 192/529/172
f 189/527/171 192/529/172 190/530/171
f 191/531/173 193/532/174 194/533/174
f 191/531/173 194/533/174 192/534/173
f 193/535/175 195/536/176 196/537/176
f 193/535/175 196/537/176 194/538/175
f 195/539/177 181/540/178 182/541/178
f 195/539/177 182/541/178 196/542/177
f 197/543/179 183/545/179 181/544/179
f 198/543/180 182/544/180 184/545/180
f 197/543/179 185/547/179 183/546/179
f 198/543/180 184/546/180 186/547/180
f 197/543/179 187/549/179 185/548/179
f 198/543/180 186/548/180 188/549/180
f 197/543/179 189/551/179 187/550/179
f 198/543/180 188/550/180 190/551/180
f 197/543/179 191/553/179 189/552/179
f 198/543/180 190/552/180 192/553/180
f 197/543/179 193/555/179 191/554/179
f 198/543/180 192/554/180 194/555/180
f 197/543/179 195/557/179 193/556/179
f 198/543/180 194/556/180 196/557/180
f 197/543/179 181/559/179 195/558/179
f 198/543/180 196/558/180 182/559/180
f 199/560/181 201/561/182 202/562/182
f 199/560/181 202/562/182 200/563/181
f 201/564/183 203/565/184 204/566/184
f 201/564/183 204/566/184 202/567/183
f 203/568/185 205/569/186 206/570/186
f 203/568/185 206/570/186 204/571/185
f 205/572/187 207/573/188 208/574/188
f 205/572/187 208/574/188 206/575/187
f 207/576/189 209/577/190 210/578/190
f 207/576/189 210/578/190 208/579/189
f 209/580/191 211/581/192 212/582/192
f 209/580/191 212/582/192 210/583/191
f 211/584/193 213/585/194 214/586/194
f 211/584/193 214/586/194 212/587/193
f 213/588/195 199/589/196 200/590/196
f 213/588/195 200/590/196 214/591/195
f 215/592/197 201/594/197 199/593/197
f 216/592/198 200/593/198 202/594/198
f 215/592/197 203/596/197 201/595/197
f 216/592/198 202/595/198 204/596/198
f 215/592/197 205/598/197 203/597/197
f 216/592/198 204/597/198 206/598/198
f 215/592/197 207/600/197 205/599/197
f 216/592/198 206/599/198 208/600/198
f 215/592/197 209/602/197 207/601/197
f 216/592/198 208/601/198 210/602/198
f 215/592/197 211/604/197 209/603/197
f 216/592/198 210/603/198 212/604/198
f 215/592/197 213/606/197 211/605/197
f 216/592/198 212/605/198 214/606/198
f 215/592/197 199/608/197 213/607/197
f 216/592/198 214/607/198 200/608/198
f 217/609/199 219/610/200 220/611/200
f 217/609/199 220/611/200 218/612/199
f 219/613/201 221/614/202 222/615/202
f 219/613/201 222/615/202 220/616/201
f 221/617/203 223/618/204 224/619/204
f 221/617/203 224/619/204 222/620/203
f 223/621/205 225/622/206 226/623/206
f 223/621/205 226/623/206 224/624/205
f 225/625/207 227/626/208 228/627/208
f 225/625/207 228/627/208 226/628/207
f 227/629/209 229/630/210 230/631/210
f 227/629/209 230/631/210 228/632/209
f 229/633/211 231/634/212 232/635/212
f 229/633/211 232/635/212 230/636/211
f 231/637/213 217/638/214 218/639/214
f 231/637/213 218/639/214 232/640/213
f 233/641/215 219/643/215 217/642/215
f 234/641/216 218/642/216 220/643/216
f 233/641/215 221/645/215 219/644/215
f 234/641/216 220/644/216 222/645/216
f 233/641/215 223/647/215 221/646/215
f 234/641/216 222/646/216 224/647/216
f 233/641/215 225/649/215 223/648/215
f 234/641/216 224/648/216 226/649/216
f 233/641/215 227/651/215 225/650/215
f 234/641/216 226/650/216 228/651/216
f 233/641/215 229/653/215 227/652/215
f 234/641/216 228/652/216 230/653/216
f 233/641/215 231/655/215 229/654/215
f 234/641/216 230/654/216 232/655/216
f 233/641/215 217/657/215 231/656/215
f 234/641/216 232/656/216 218/657/216
f 235/658/217 237/659/218 238/660/218
f 235/658/217 238/660/218 236/661/217
f 237/662/219 239/663/220 240/664/220
f 237/662/219 240/664/220 238/665/219
f 239/666/221 241/667/222 242/668/222
f 239/666/221 242/668/222 240/669/221
f 241/670/223 243/671/224 244/672/224
f 241/670/223 244/672/224 242/673/223
f 243/674/225 245/675/226 246/676/226
f 243/674/225 246/676/226 244/677/225
f 245/678/227 247/679/228 248/680/228
f 245/678/227 248/680/228 246/681/227
f 247/682/229 249/683/230 250/684/230
f 247/682/229 250/684/230 248/685/229
f 249/686/231 235/687/232 236/688/232
f 249/686/231 236/688/232 250/689/231
f 251/690/233 237/692/233 235/691/233
f 252/690/234 236/691/234 238/692/234
f 251/690/233 239/694/233 237/693/233
f 252/690/234 238/693/234 240/694/234
f 251/690/233 241/696/233 239/695/233
f 252/690/234 240/695/234 242/696/234
f 251/690/233 243/698/233 241/697/233
f 252/690/234 242/697/234 244/698/234
f 251/690/233 245/700/233 243/699/233
f 252/690/234 244/699/234 246/700/234
f 251/690/233 247/702/233 245/701/233
f 252/690/234 246/701/234 248/702/234
f 251/690/233 249/704/233 247/703/233
f 252/690/234 248/703/234 250/704/234
f 251/690/233 235/706/233 249/705/233
f 252/690/234 250/705/234 236/706/234
f 254/707/235 258/708/235 260/709/235
f 254/707/235 260/709/235 256/710/235
f 257/711/236 253/712/236 255/713/236
f 257/711/236 255/713/236 259/714/236
f 256/715/237 260/716/237 259/717/237
f 256/715/237 259/717/237 255/718/237
f 253/719/238 257/720/238 258/721/238
f 253/719/238 258/721/238 254/722/238
f 258/723/239 257/724/239 259/725/239
f 258/723/239 259/725/239 260/726/239
f 253/727/240 254/728/240 256/729/240
f 253/727/240 256/729/240 255/730/240
f 262/731/241 266/732/241 268/733/241
f 262/731/241 268/733/241 264/734/241
f 265/735/242 261/736/242 263/737/242
f 265/735/242 263/737/242 267/738/242
f 264/739/243 268/740/243 267/741/243
f 264/739/243 267/741/243 263/742/243
f 261/743/244 265/744/244 266/745/244
f 261/743/244 266/745/244 262/746/244
f 266/747/245 265/748/245 267/749/245
f 266/747/245 267/749/245 268/750/245
f 261/751/246 262/752/246 264/753/246
f 261/751/246 264/753/246 263/754/246
