# Wavefront OBJ: SM_EdisonBulb
o SM_EdisonBulb
v 0.000000 0.000000 -0.012000
v 0.000000 -0.020000 -0.012000
v 0.008485 0.000000 -0.008485
v 0.008485 -0.020000 -0.008485
v 0.012000 0.000000 -0.000000
v 0.012000 -0.020000 -0.000000
v 0.008485 0.000000 0.008485
v 0.008485 -0.020000 0.008485
v 0.000000 0.000000 0.012000
v 0.000000 -0.020000 0.012000
v -0.008485 0.000000 0.008485
v -0.008485 -0.020000 0.008485
v -0.012000 0.000000 0.000000
v -0.012000 -0.020000 0.000000
v -0.008485 0.000000 -0.008485
v -0.008485 -0.020000 -0.008485
v 0.000000 0.000000 0.000000
v 0.000000 -0.020000 0.000000
v 0.000000 -0.020000 -0.004000
v 0.000000 -0.180000 -0.004000
v 0.002828 -0.020000 -0.002828
v 0.002828 -0.180000 -0.002828
v 0.004000 -0.020000 -0.000000
v 0.004000 -0.180000 -0.000000
v 0.002828 -0.020000 0.002828
v 0.002828 -0.180000 0.002828
v 0.000000 -0.020000 0.004000
v 0.000000 -0.180000 0.004000
v -0.002828 -0.020000 0.002828
v -0.002828 -0.180000 0.002828
v -0.004000 -0.020000 0.000000
v -0.004000 -0.180000 0.000000
v -0.002828 -0.020000 -0.002828
v -0.002828 -0.180000 -0.002828
v 0.000000 -0.020000 0.000000
v 0.000000 -0.180000 0.000000
v 0.000000 -0.180000 -0.018000
v 0.000000 -0.240000 -0.018000
v 0.006888 -0.180000 -0.016630
v 0.006888 -0.240000 -0.016630
v 0.012728 -0.180000 -0.012728
v 0.012728 -0.240000 -0.012728
v 0.016630 -0.180000 -0.006888
v 0.016630 -0.240000 -0.006888
v 0.018000 -0.180000 -0.000000
v 0.018000 -0.240000 -0.000000
v 0.016630 -0.180000 0.006888
v 0.016630 -0.240000 0.006888
v 0.012728 -0.180000 0.012728
v 0.012728 -0.240000 0.012728
v 0.006888 -0.180000 0.016630
v 0.006888 -0.240000 0.016630
v 0.000000 -0.180000 0.018000
v 0.000000 -0.240000 0.018000
v -0.006888 -0.180000 0.016630
v -0.006888 -0.240000 0.016630
v -0.012728 -0.180000 0.012728
v -0.012728 -0.240000 0.012728
v -0.016630 -0.180000 0.006888
v -0.016630 -0.240000 0.006888
v -0.018000 -0.180000 0.000000
v -0.018000 -0.240000 0.000000
v -0.016630 -0.180000 -0.006888
v -0.016630 -0.240000 -0.006888
v -0.012728 -0.180000 -0.012728
v -0.012728 -0.240000 -0.012728
v -0.006888 -0.180000 -0.016630
v -0.006888 -0.240000 -0.016630
v 0.000000 -0.180000 0.000000
v 0.000000 -0.240000 0.000000
v 0.000000 -0.225000 0.021000
v 0.000000 -0.205000 0.021000
v 0.008036 -0.225000 0.019401
v 0.008036 -0.205000 0.019401
v 0.014849 -0.225000 0.014849
v 0.014849 -0.205000 0.014849
v 0.019401 -0.225000 0.008036
v 0.019401 -0.205000 0.008036
v 0.021000 -0.225000 0.000000
v 0.021000 -0.205000 0.000000
v 0.019401 -0.225000 -0.008036
v 0.019401 -0.205000 -0.008036
v 0.014849 -0.225000 -0.014849
v 0.014849 -0.205000 -0.014849
v 0.008036 -0.225000 -0.019401
v 0.008036 -0.205000 -0.019401
v 0.000000 -0.225000 -0.021000
v 0.000000 -0.205000 -0.021000
v -0.008036 -0.225000 -0.019401
v -0.008036 -0.205000 -0.019401
v -0.014849 -0.225000 -0.014849
v -0.014849 -0.205000 -0.014849
v -0.019401 -0.225000 -0.008036
v -0.019401 -0.205000 -0.008036
v -0.021000 -0.225000 -0.000000
v -0.021000 -0.205000 -0.000000
v -0.019401 -0.225000 0.008036
v -0.019401 -0.205000 0.008036
v -0.014849 -0.225000 0.014849
v -0.014849 -0.205000 0.014849
v -0.008036 -0.225000 0.019401
v -0.008036 -0.205000 0.019401
v 0.000000 -0.225000 0.000000
v 0.000000 -0.205000 0.000000
v 0.016000 -0.240000 0.000000
v 0.022000 -0.255000 0.000000
v 0.014782 -0.240000 0.006123
v 0.020325 -0.255000 0.008419
v 0.011314 -0.240000 0.011314
v 0.015556 -0.255000 0.015556
v 0.006123 -0.240000 0.014782
v 0.008419 -0.255000 0.020325
v 0.000000 -0.240000 0.016000
v 0.000000 -0.255000 0.022000
v -0.006123 -0.240000 0.014782
v -0.008419 -0.255000 0.020325
v -0.011314 -0.240000 0.011314
v -0.015556 -0.255000 0.015556
v -0.014782 -0.240000 0.006123
v -0.020325 -0.255000 0.008419
v -0.016000 -0.240000 0.000000
v -0.022000 -0.255000 0.000000
v -0.014782 -0.240000 -0.006123
v -0.020325 -0.255000 -0.008419
v -0.011314 -0.240000 -0.011314
v -0.015556 -0.255000 -0.015556
v -0.006123 -0.240000 -0.014782
v -0.008419 -0.255000 -0.020325
v -0.000000 -0.240000 -0.016000
v -0.000000 -0.255000 -0.022000
v 0.006123 -0.240000 -0.014782
v 0.008419 -0.255000 -0.020325
v 0.011314 -0.240000 -0.011314
v 0.015556 -0.255000 -0.015556
v 0.014782 -0.240000 -0.006123
v 0.020325 -0.255000 -0.008419
v 0.022000 -0.255000 0.000000
v 0.032000 -0.280000 0.000000
v 0.020325 -0.255000 0.008419
v 0.029564 -0.280000 0.012246
v 0.015556 -0.255000 0.015556
v 0.022627 -0.280000 0.022627
v 0.008419 -0.255000 0.020325
v 0.012246 -0.280000 0.029564
v 0.000000 -0.255000 0.022000
v 0.000000 -0.280000 0.032000
v -0.008419 -0.255000 0.020325
v -0.012246 -0.280000 0.029564
v -0.015556 -0.255000 0.015556
v -0.022627 -0.280000 0.022627
v -0.020325 -0.255000 0.008419
v -0.029564 -0.280000 0.012246
v -0.022000 -0.255000 0.000000
v -0.032000 -0.280000 0.000000
v -0.020325 -0.255000 -0.008419
v -0.029564 -0.280000 -0.012246
v -0.015556 -0.255000 -0.015556
v -0.022627 -0.280000 -0.022627
v -0.008419 -0.255000 -0.020325
v -0.012246 -0.280000 -0.029564
v -0.000000 -0.255000 -0.022000
v -0.000000 -0.280000 -0.032000
v 0.008419 -0.255000 -0.020325
v 0.012246 -0.280000 -0.029564
v 0.015556 -0.255000 -0.015556
v 0.022627 -0.280000 -0.022627
v 0.020325 -0.255000 -0.008419
v 0.029564 -0.280000 -0.012246
v 0.032000 -0.280000 0.000000
v 0.035000 -0.300000 0.000000
v 0.029564 -0.280000 0.012246
v 0.032336 -0.300000 0.013394
v 0.022627 -0.280000 0.022627
v 0.024749 -0.300000 0.024749
v 0.012246 -0.280000 0.029564
v 0.013394 -0.300000 0.032336
v 0.000000 -0.280000 0.032000
v 0.000000 -0.300000 0.035000
v -0.012246 -0.280000 0.029564
v -0.013394 -0.300000 0.032336
v -0.022627 -0.280000 0.022627
v -0.024749 -0.300000 0.024749
v -0.029564 -0.280000 0.012246
v -0.032336 -0.300000 0.013394
v -0.032000 -0.280000 0.000000
v -0.035000 -0.300000 0.000000
v -0.029564 -0.280000 -0.012246
v -0.032336 -0.300000 -0.013394
v -0.022627 -0.280000 -0.022627
v -0.024749 -0.300000 -0.024749
v -0.012246 -0.280000 -0.029564
v -0.013394 -0.300000 -0.032336
v -0.000000 -0.280000 -0.032000
v -0.000000 -0.300000 -0.035000
v 0.012246 -0.280000 -0.029564
v 0.013394 -0.300000 -0.032336
v 0.022627 -0.280000 -0.022627
v 0.024749 -0.300000 -0.024749
v 0.029564 -0.280000 -0.012246
v 0.032336 -0.300000 -0.013394
v 0.035000 -0.300000 0.000000
v 0.032000 -0.325000 0.000000
v 0.032336 -0.300000 0.013394
v 0.029564 -0.325000 0.012246
v 0.024749 -0.300000 0.024749
v 0.022627 -0.325000 0.022627
v 0.013394 -0.300000 0.032336
v 0.012246 -0.325000 0.029564
v 0.000000 -0.300000 0.035000
v 0.000000 -0.325000 0.032000
v -0.013394 -0.300000 0.032336
v -0.012246 -0.325000 0.029564
v -0.024749 -0.300000 0.024749
v -0.022627 -0.325000 0.022627
v -0.032336 -0.300000 0.013394
v -0.029564 -0.325000 0.012246
v -0.035000 -0.300000 0.000000
v -0.032000 -0.325000 0.000000
v -0.032336 -0.300000 -0.013394
v -0.029564 -0.325000 -0.012246
v -0.024749 -0.300000 -0.024749
v -0.022627 -0.325000 -0.022627
v -0.013394 -0.300000 -0.032336
v -0.012246 -0.325000 -0.029564
v -0.000000 -0.300000 -0.035000
v -0.000000 -0.325000 -0.032000
v 0.013394 -0.300000 -0.032336
v 0.012246 -0.325000 -0.029564
v 0.024749 -0.300000 -0.024749
v 0.022627 -0.325000 -0.022627
v 0.032336 -0.300000 -0.013394
v 0.029564 -0.325000 -0.012246
v 0.032000 -0.325000 0.000000
v 0.022000 -0.345000 0.000000
v 0.029564 -0.325000 0.012246
v 0.020325 -0.345000 0.008419
v 0.022627 -0.325000 0.022627
v 0.015556 -0.345000 0.015556
v 0.012246 -0.325000 0.029564
v 0.008419 -0.345000 0.020325
v 0.000000 -0.325000 0.032000
v 0.000000 -0.345000 0.022000
v -0.012246 -0.325000 0.029564
v -0.008419 -0.345000 0.020325
v -0.022627 -0.325000 0.022627
v -0.015556 -0.345000 0.015556
v -0.029564 -0.325000 0.012246
v -0.020325 -0.345000 0.008419
v -0.032000 -0.325000 0.000000
v -0.022000 -0.345000 0.000000
v -0.029564 -0.325000 -0.012246
v -0.020325 -0.345000 -0.008419
v -0.022627 -0.325000 -0.022627
v -0.015556 -0.345000 -0.015556
v -0.012246 -0.325000 -0.029564
v -0.008419 -0.345000 -0.020325
v -0.000000 -0.325000 -0.032000
v -0.000000 -0.345000 -0.022000
v 0.012246 -0.325000 -0.029564
v 0.008419 -0.345000 -0.020325
v 0.022627 -0.325000 -0.022627
v 0.015556 -0.345000 -0.015556
v 0.029564 -0.325000 -0.012246
v 0.020325 -0.345000 -0.008419
v 0.022000 -0.345000 0.000000
v 0.008000 -0.358000 0.000000
v 0.020325 -0.345000 0.008419
v 0.007391 -0.358000 0.003061
v 0.015556 -0.345000 0.015556
v 0.005657 -0.358000 0.005657
v 0.008419 -0.345000 0.020325
v 0.003061 -0.358000 0.007391
v 0.000000 -0.345000 0.022000
v 0.000000 -0.358000 0.008000
v -0.008419 -0.345000 0.020325
v -0.003061 -0.358000 0.007391
v -0.015556 -0.345000 0.015556
v -0.005657 -0.358000 0.005657
v -0.020325 -0.345000 0.008419
v -0.007391 -0.358000 0.003061
v -0.022000 -0.345000 0.000000
v -0.008000 -0.358000 0.000000
v -0.020325 -0.345000 -0.008419
v -0.007391 -0.358000 -0.003061
v -0.015556 -0.345000 -0.015556
v -0.005657 -0.358000 -0.005657
v -0.008419 -0.345000 -0.020325
v -0.003061 -0.358000 -0.007391
v -0.000000 -0.345000 -0.022000
v -0.000000 -0.358000 -0.008000
v 0.008419 -0.345000 -0.020325
v 0.003061 -0.358000 -0.007391
v 0.015556 -0.345000 -0.015556
v 0.005657 -0.358000 -0.005657
v 0.020325 -0.345000 -0.008419
v 0.007391 -0.358000 -0.003061
v 0.008000 -0.358000 0.000000
v 0.000000 -0.362000 0.000000
v 0.007391 -0.358000 0.003061
v 0.000000 -0.362000 0.000000
v 0.005657 -0.358000 0.005657
v 0.000000 -0.362000 0.000000
v 0.003061 -0.358000 0.007391
v 0.000000 -0.362000 0.000000
v 0.000000 -0.358000 0.008000
v 0.000000 -0.362000 0.000000
v -0.003061 -0.358000 0.007391
v -0.000000 -0.362000 0.000000
v -0.005657 -0.358000 0.005657
v -0.000000 -0.362000 0.000000
v -0.007391 -0.358000 0.003061
v -0.000000 -0.362000 0.000000
v -0.008000 -0.358000 0.000000
v -0.000000 -0.362000 0.000000
v -0.007391 -0.358000 -0.003061
v -0.000000 -0.362000 -0.000000
v -0.005657 -0.358000 -0.005657
v -0.000000 -0.362000 -0.000000
v -0.003061 -0.358000 -0.007391
v -0.000000 -0.362000 -0.000000
v -0.000000 -0.358000 -0.008000
v -0.000000 -0.362000 -0.000000
v 0.003061 -0.358000 -0.007391
v 0.000000 -0.362000 -0.000000
v 0.005657 -0.358000 -0.005657
v 0.000000 -0.362000 -0.000000
v 0.007391 -0.358000 -0.003061
v 0.000000 -0.362000 -0.000000
v 0.000000 -0.250000 -0.002000
v 0.000000 -0.280000 -0.002000
v 0.001732 -0.250000 -0.001000
v 0.001732 -0.280000 -0.001000
v 0.001732 -0.250000 0.001000
v 0.001732 -0.280000 0.001000
v 0.000000 -0.250000 0.002000
v 0.000000 -0.280000 0.002000
v -0.001732 -0.250000 0.001000
v -0.001732 -0.280000 0.001000
v -0.001732 -0.250000 -0.001000
v -0.001732 -0.280000 -0.001000
v 0.000000 -0.250000 0.000000
v 0.000000 -0.280000 0.000000
v -0.012000 -0.320000 -0.002000
v -0.012000 -0.320000 0.002000
v -0.012000 -0.280000 -0.002000
v -0.012000 -0.280000 0.002000
v 0.012000 -0.320000 -0.002000
v 0.012000 -0.320000 0.002000
v 0.012000 -0.280000 -0.002000
v 0.012000 -0.280000 0.002000
vt 0.000000 0.000000
vt 0.125000 0.000000
vt 0.125000 0.020000
vt 0.000000 0.020000
vt 0.125000 0.000000
vt 0.250000 0.000000
vt 0.250000 0.020000
vt 0.125000 0.020000
vt 0.250000 0.000000
vt 0.375000 0.000000
vt 0.375000 0.020000
vt 0.250000 0.020000
vt 0.375000 0.000000
vt 0.500000 0.000000
vt 0.500000 0.020000
vt 0.375000 0.020000
vt 0.500000 0.000000
vt 0.625000 0.000000
vt 0.625000 0.020000
vt 0.500000 0.020000
vt 0.625000 0.000000
vt 0.750000 0.000000
vt 0.750000 0.020000
vt 0.625000 0.020000
vt 0.750000 0.000000
vt 0.875000 0.000000
vt 0.875000 0.020000
vt 0.750000 0.020000
vt 0.875000 0.000000
vt 1.000000 0.000000
vt 1.000000 0.020000
vt 0.875000 0.020000
vt 0.500000 0.500000
vt 1.000000 0.500000
vt 0.853553 0.853553
vt 0.853553 0.853553
vt 0.500000 1.000000
vt 0.500000 1.000000
vt 0.146447 0.853553
vt 0.146447 0.853553
vt 0.000000 0.500000
vt 0.000000 0.500000
vt 0.146447 0.146447
vt 0.146447 0.146447
vt 0.500000 0.000000
vt 0.500000 0.000000
vt 0.853553 0.146447
vt 0.853553 0.146447
vt 1.000000 0.500000
vt 0.000000 0.000000
vt 0.125000 0.000000
vt 0.125000 0.160000
vt 0.000000 0.160000
vt 0.125000 0.000000
vt 0.250000 0.000000
vt 0.250000 0.160000
vt 0.125000 0.160000
vt 0.250000 0.000000
vt 0.375000 0.000000
vt 0.375000 0.160000
vt 0.250000 0.160000
vt 0.375000 0.000000
vt 0.500000 0.000000
vt 0.500000 0.160000
vt 0.375000 0.160000
vt 0.500000 0.000000
vt 0.625000 0.000000
vt 0.625000 0.160000
vt 0.500000 0.160000
vt 0.625000 0.000000
vt 0.750000 0.000000
vt 0.750000 0.160000
vt 0.625000 0.160000
vt 0.750000 0.000000
vt 0.875000 0.000000
vt 0.875000 0.160000
vt 0.750000 0.160000
vt 0.875000 0.000000
vt 1.000000 0.000000
vt 1.000000 0.160000
vt 0.875000 0.160000
vt 0.500000 0.500000
vt 1.000000 0.500000
vt 0.853553 0.853553
vt 0.853553 0.853553
vt 0.500000 1.000000
vt 0.500000 1.000000
vt 0.146447 0.853553
vt 0.146447 0.853553
vt 0.000000 0.500000
vt 0.000000 0.500000
vt 0.146447 0.146447
vt 0.146447 0.146447
vt 0.500000 0.000000
vt 0.500000 0.000000
vt 0.853553 0.146447
vt 0.853553 0.146447
vt 1.000000 0.500000
vt 0.000000 0.000000
vt 0.062500 0.000000
vt 0.062500 0.060000
vt 0.000000 0.060000
vt 0.062500 0.000000
vt 0.125000 0.000000
vt 0.125000 0.060000
vt 0.062500 0.060000
vt 0.125000 0.000000
vt 0.187500 0.000000
vt 0.187500 0.060000
vt 0.125000 0.060000
vt 0.187500 0.000000
vt 0.250000 0.000000
vt 0.250000 0.060000
vt 0.187500 0.060000
vt 0.250000 0.000000
vt 0.312500 0.000000
vt 0.312500 0.060000
vt 0.250000 0.060000
vt 0.312500 0.000000
vt 0.375000 0.000000
vt 0.375000 0.060000
vt 0.312500 0.060000
vt 0.375000 0.000000
vt 0.437500 0.000000
vt 0.437500 0.060000
vt 0.375000 0.060000
vt 0.437500 0.000000
vt 0.500000 0.000000
vt 0.500000 0.060000
vt 0.437500 0.060000
vt 0.500000 0.000000
vt 0.562500 0.000000
vt 0.562500 0.060000
vt 0.500000 0.060000
vt 0.562500 0.000000
vt 0.625000 0.000000
vt 0.625000 0.060000
vt 0.562500 0.060000
vt 0.625000 0.000000
vt 0.687500 0.000000
vt 0.687500 0.060000
vt 0.625000 0.060000
vt 0.687500 0.000000
vt 0.750000 0.000000
vt 0.750000 0.060000
vt 0.687500 0.060000
vt 0.750000 0.000000
vt 0.812500 0.000000
vt 0.812500 0.060000
vt 0.750000 0.060000
vt 0.812500 0.000000
vt 0.875000 0.000000
vt 0.875000 0.060000
vt 0.812500 0.060000
vt 0.875000 0.000000
vt 0.937500 0.000000
vt 0.937500 0.060000
vt 0.875000 0.060000
vt 0.937500 0.000000
vt 1.000000 0.000000
vt 1.000000 0.060000
vt 0.937500 0.060000
vt 0.500000 0.500000
vt 1.000000 0.500000
vt 0.961940 0.691342
vt 0.961940 0.691342
vt 0.853553 0.853553
vt 0.853553 0.853553
vt 0.691342 0.961940
vt 0.691342 0.961940
vt 0.500000 1.000000
vt 0.500000 1.000000
vt 0.308658 0.961940
vt 0.308658 0.961940
vt 0.146447 0.853553
vt 0.146447 0.853553
vt 0.038060 0.691342
vt 0.038060 0.691342
vt 0.000000 0.500000
vt 0.000000 0.500000
vt 0.038060 0.308658
vt 0.038060 0.308658
vt 0.146447 0.146447
vt 0.146447 0.146447
vt 0.308658 0.038060
vt 0.308658 0.038060
vt 0.500000 0.000000
vt 0.500000 0.000000
vt 0.691342 0.038060
vt 0.691342 0.038060
vt 0.853553 0.146447
vt 0.853553 0.146447
vt 0.961940 0.308658
vt 0.961940 0.308658
vt 1.000000 0.500000
vt 0.000000 0.000000
vt 0.062500 0.000000
vt 0.062500 0.020000
vt 0.000000 0.020000
vt 0.062500 0.000000
vt 0.125000 0.000000
vt 0.125000 0.020000
vt 0.062500 0.020000
vt 0.125000 0.000000
vt 0.187500 0.000000
vt 0.187500 0.020000
vt 0.125000 0.020000
vt 0.187500 0.000000
vt 0.250000 0.000000
vt 0.250000 0.020000
vt 0.187500 0.020000
vt 0.250000 0.000000
vt 0.312500 0.000000
vt 0.312500 0.020000
vt 0.250000 0.020000
vt 0.312500 0.000000
vt 0.375000 0.000000
vt 0.375000 0.020000
vt 0.312500 0.020000
vt 0.375000 0.000000
vt 0.437500 0.000000
vt 0.437500 0.020000
vt 0.375000 0.020000
vt 0.437500 0.000000
vt 0.500000 0.000000
vt 0.500000 0.020000
vt 0.437500 0.020000
vt 0.500000 0.000000
vt 0.562500 0.000000
vt 0.562500 0.020000
vt 0.500000 0.020000
vt 0.562500 0.000000
vt 0.625000 0.000000
vt 0.625000 0.020000
vt 0.562500 0.020000
vt 0.625000 0.000000
vt 0.687500 0.000000
vt 0.687500 0.020000
vt 0.625000 0.020000
vt 0.687500 0.000000
vt 0.750000 0.000000
vt 0.750000 0.020000
vt 0.687500 0.020000
vt 0.750000 0.000000
vt 0.812500 0.000000
vt 0.812500 0.020000
vt 0.750000 0.020000
vt 0.812500 0.000000
vt 0.875000 0.000000
vt 0.875000 0.020000
vt 0.812500 0.020000
vt 0.875000 0.000000
vt 0.937500 0.000000
vt 0.937500 0.020000
vt 0.875000 0.020000
vt 0.937500 0.000000
vt 1.000000 0.000000
vt 1.000000 0.020000
vt 0.937500 0.020000
vt 0.500000 0.500000
vt 1.000000 0.500000
vt 0.961940 0.691342
vt 0.961940 0.691342
vt 0.853553 0.853553
vt 0.853553 0.853553
vt 0.691342 0.961940
vt 0.691342 0.961940
vt 0.500000 1.000000
vt 0.500000 1.000000
vt 0.308658 0.961940
vt 0.308658 0.961940
vt 0.146447 0.853553
vt 0.146447 0.853553
vt 0.038060 0.691342
vt 0.038060 0.691342
vt 0.000000 0.500000
vt 0.000000 0.500000
vt 0.038060 0.308658
vt 0.038060 0.308658
vt 0.146447 0.146447
vt 0.146447 0.146447
vt 0.308658 0.038060
vt 0.308658 0.038060
vt 0.500000 0.000000
vt 0.500000 0.000000
vt 0.691342 0.038060
vt 0.691342 0.038060
vt 0.853553 0.146447
vt 0.853553 0.146447
vt 0.961940 0.308658
vt 0.961940 0.308658
vt 1.000000 0.500000
vt 0.000000 0.000000
vt 0.062500 0.000000
vt 0.062500 0.125000
vt 0.000000 0.125000
vt 0.062500 0.000000
vt 0.125000 0.000000
vt 0.125000 0.125000
vt 0.062500 0.125000
vt 0.125000 0.000000
vt 0.187500 0.000000
vt 0.187500 0.125000
vt 0.125000 0.125000
vt 0.187500 0.000000
vt 0.250000 0.000000
vt 0.250000 0.125000
vt 0.187500 0.125000
vt 0.250000 0.000000
vt 0.312500 0.000000
vt 0.312500 0.125000
vt 0.250000 0.125000
vt 0.312500 0.000000
vt 0.375000 0.000000
vt 0.375000 0.125000
vt 0.312500 0.125000
vt 0.375000 0.000000
vt 0.437500 0.000000
vt 0.437500 0.125000
vt 0.375000 0.125000
vt 0.437500 0.000000
vt 0.500000 0.000000
vt 0.500000 0.125000
vt 0.437500 0.125000
vt 0.500000 0.000000
vt 0.562500 0.000000
vt 0.562500 0.125000
vt 0.500000 0.125000
vt 0.562500 0.000000
vt 0.625000 0.000000
vt 0.625000 0.125000
vt 0.562500 0.125000
vt 0.625000 0.000000
vt 0.687500 0.000000
vt 0.687500 0.125000
vt 0.625000 0.125000
vt 0.687500 0.000000
vt 0.750000 0.000000
vt 0.750000 0.125000
vt 0.687500 0.125000
vt 0.750000 0.000000
vt 0.812500 0.000000
vt 0.812500 0.125000
vt 0.750000 0.125000
vt 0.812500 0.000000
vt 0.875000 0.000000
vt 0.875000 0.125000
vt 0.812500 0.125000
vt 0.875000 0.000000
vt 0.937500 0.000000
vt 0.937500 0.125000
vt 0.875000 0.125000
vt 0.937500 0.000000
vt 1.000000 0.000000
vt 1.000000 0.125000
vt 0.937500 0.125000
vt 0.000000 0.125000
vt 0.062500 0.125000
vt 0.062500 0.250000
vt 0.000000 0.250000
vt 0.062500 0.125000
vt 0.125000 0.125000
vt 0.125000 0.250000
vt 0.062500 0.250000
vt 0.125000 0.125000
vt 0.187500 0.125000
vt 0.187500 0.250000
vt 0.125000 0.250000
vt 0.187500 0.125000
vt 0.250000 0.125000
vt 0.250000 0.250000
vt 0.187500 0.250000
vt 0.250000 0.125000
vt 0.312500 0.125000
vt 0.312500 0.250000
vt 0.250000 0.250000
vt 0.312500 0.125000
vt 0.375000 0.125000
vt 0.375000 0.250000
vt 0.312500 0.250000
vt 0.375000 0.125000
vt 0.437500 0.125000
vt 0.437500 0.250000
vt 0.375000 0.250000
vt 0.437500 0.125000
vt 0.500000 0.125000
vt 0.500000 0.250000
vt 0.437500 0.250000
vt 0.500000 0.125000
vt 0.562500 0.125000
vt 0.562500 0.250000
vt 0.500000 0.250000
vt 0.562500 0.125000
vt 0.625000 0.125000
vt 0.625000 0.250000
vt 0.562500 0.250000
vt 0.625000 0.125000
vt 0.687500 0.125000
vt 0.687500 0.250000
vt 0.625000 0.250000
vt 0.687500 0.125000
vt 0.750000 0.125000
vt 0.750000 0.250000
vt 0.687500 0.250000
vt 0.750000 0.125000
vt 0.812500 0.125000
vt 0.812500 0.250000
vt 0.750000 0.250000
vt 0.812500 0.125000
vt 0.875000 0.125000
vt 0.875000 0.250000
vt 0.812500 0.250000
vt 0.875000 0.125000
vt 0.937500 0.125000
vt 0.937500 0.250000
vt 0.875000 0.250000
vt 0.937500 0.125000
vt 1.000000 0.125000
vt 1.000000 0.250000
vt 0.937500 0.250000
vt 0.000000 0.250000
vt 0.062500 0.250000
vt 0.062500 0.375000
vt 0.000000 0.375000
vt 0.062500 0.250000
vt 0.125000 0.250000
vt 0.125000 0.375000
vt 0.062500 0.375000
vt 0.125000 0.250000
vt 0.187500 0.250000
vt 0.187500 0.375000
vt 0.125000 0.375000
vt 0.187500 0.250000
vt 0.250000 0.250000
vt 0.250000 0.375000
vt 0.187500 0.375000
vt 0.250000 0.250000
vt 0.312500 0.250000
vt 0.312500 0.375000
vt 0.250000 0.375000
vt 0.312500 0.250000
vt 0.375000 0.250000
vt 0.375000 0.375000
vt 0.312500 0.375000
vt 0.375000 0.250000
vt 0.437500 0.250000
vt 0.437500 0.375000
vt 0.375000 0.375000
vt 0.437500 0.250000
vt 0.500000 0.250000
vt 0.500000 0.375000
vt 0.437500 0.375000
vt 0.500000 0.250000
vt 0.562500 0.250000
vt 0.562500 0.375000
vt 0.500000 0.375000
vt 0.562500 0.250000
vt 0.625000 0.250000
vt 0.625000 0.375000
vt 0.562500 0.375000
vt 0.625000 0.250000
vt 0.687500 0.250000
vt 0.687500 0.375000
vt 0.625000 0.375000
vt 0.687500 0.250000
vt 0.750000 0.250000
vt 0.750000 0.375000
vt 0.687500 0.375000
vt 0.750000 0.250000
vt 0.812500 0.250000
vt 0.812500 0.375000
vt 0.750000 0.375000
vt 0.812500 0.250000
vt 0.875000 0.250000
vt 0.875000 0.375000
vt 0.812500 0.375000
vt 0.875000 0.250000
vt 0.937500 0.250000
vt 0.937500 0.375000
vt 0.875000 0.375000
vt 0.937500 0.250000
vt 1.000000 0.250000
vt 1.000000 0.375000
vt 0.937500 0.375000
vt 0.000000 0.375000
vt 0.062500 0.375000
vt 0.062500 0.500000
vt 0.000000 0.500000
vt 0.062500 0.375000
vt 0.125000 0.375000
vt 0.125000 0.500000
vt 0.062500 0.500000
vt 0.125000 0.375000
vt 0.187500 0.375000
vt 0.187500 0.500000
vt 0.125000 0.500000
vt 0.187500 0.375000
vt 0.250000 0.375000
vt 0.250000 0.500000
vt 0.187500 0.500000
vt 0.250000 0.375000
vt 0.312500 0.375000
vt 0.312500 0.500000
vt 0.250000 0.500000
vt 0.312500 0.375000
vt 0.375000 0.375000
vt 0.375000 0.500000
vt 0.312500 0.500000
vt 0.375000 0.375000
vt 0.437500 0.375000
vt 0.437500 0.500000
vt 0.375000 0.500000
vt 0.437500 0.375000
vt 0.500000 0.375000
vt 0.500000 0.500000
vt 0.437500 0.500000
vt 0.500000 0.375000
vt 0.562500 0.375000
vt 0.562500 0.500000
vt 0.500000 0.500000
vt 0.562500 0.375000
vt 0.625000 0.375000
vt 0.625000 0.500000
vt 0.562500 0.500000
vt 0.625000 0.375000
vt 0.687500 0.375000
vt 0.687500 0.500000
vt 0.625000 0.500000
vt 0.687500 0.375000
vt 0.750000 0.375000
vt 0.750000 0.500000
vt 0.687500 0.500000
vt 0.750000 0.375000
vt 0.812500 0.375000
vt 0.812500 0.500000
vt 0.750000 0.500000
vt 0.812500 0.375000
vt 0.875000 0.375000
vt 0.875000 0.500000
vt 0.812500 0.500000
vt 0.875000 0.375000
vt 0.937500 0.375000
vt 0.937500 0.500000
vt 0.875000 0.500000
vt 0.937500 0.375000
vt 1.000000 0.375000
vt 1.000000 0.500000
vt 0.937500 0.500000
vt 0.000000 0.500000
vt 0.062500 0.500000
vt 0.062500 0.625000
vt 0.000000 0.625000
vt 0.062500 0.500000
vt 0.125000 0.500000
vt 0.125000 0.625000
vt 0.062500 0.625000
vt 0.125000 0.500000
vt 0.187500 0.500000
vt 0.187500 0.625000
vt 0.125000 0.625000
vt 0.187500 0.500000
vt 0.250000 0.500000
vt 0.250000 0.625000
vt 0.187500 0.625000
vt 0.250000 0.500000
vt 0.312500 0.500000
vt 0.312500 0.625000
vt 0.250000 0.625000
vt 0.312500 0.500000
vt 0.375000 0.500000
vt 0.375000 0.625000
vt 0.312500 0.625000
vt 0.375000 0.500000
vt 0.437500 0.500000
vt 0.437500 0.625000
vt 0.375000 0.625000
vt 0.437500 0.500000
vt 0.500000 0.500000
vt 0.500000 0.625000
vt 0.437500 0.625000
vt 0.500000 0.500000
vt 0.562500 0.500000
vt 0.562500 0.625000
vt 0.500000 0.625000
vt 0.562500 0.500000
vt 0.625000 0.500000
vt 0.625000 0.625000
vt 0.562500 0.625000
vt 0.625000 0.500000
vt 0.687500 0.500000
vt 0.687500 0.625000
vt 0.625000 0.625000
vt 0.687500 0.500000
vt 0.750000 0.500000
vt 0.750000 0.625000
vt 0.687500 0.625000
vt 0.750000 0.500000
vt 0.812500 0.500000
vt 0.812500 0.625000
vt 0.750000 0.625000
vt 0.812500 0.500000
vt 0.875000 0.500000
vt 0.875000 0.625000
vt 0.812500 0.625000
vt 0.875000 0.500000
vt 0.937500 0.500000
vt 0.937500 0.625000
vt 0.875000 0.625000
vt 0.937500 0.500000
vt 1.000000 0.500000
vt 1.000000 0.625000
vt 0.937500 0.625000
vt 0.000000 0.625000
vt 0.062500 0.625000
vt 0.062500 0.750000
vt 0.000000 0.750000
vt 0.062500 0.625000
vt 0.125000 0.625000
vt 0.125000 0.750000
vt 0.062500 0.750000
vt 0.125000 0.625000
vt 0.187500 0.625000
vt 0.187500 0.750000
vt 0.125000 0.750000
vt 0.187500 0.625000
vt 0.250000 0.625000
vt 0.250000 0.750000
vt 0.187500 0.750000
vt 0.250000 0.625000
vt 0.312500 0.625000
vt 0.312500 0.750000
vt 0.250000 0.750000
vt 0.312500 0.625000
vt 0.375000 0.625000
vt 0.375000 0.750000
vt 0.312500 0.750000
vt 0.375000 0.625000
vt 0.437500 0.625000
vt 0.437500 0.750000
vt 0.375000 0.750000
vt 0.437500 0.625000
vt 0.500000 0.625000
vt 0.500000 0.750000
vt 0.437500 0.750000
vt 0.500000 0.625000
vt 0.562500 0.625000
vt 0.562500 0.750000
vt 0.500000 0.750000
vt 0.562500 0.625000
vt 0.625000 0.625000
vt 0.625000 0.750000
vt 0.562500 0.750000
vt 0.625000 0.625000
vt 0.687500 0.625000
vt 0.687500 0.750000
vt 0.625000 0.750000
vt 0.687500 0.625000
vt 0.750000 0.625000
vt 0.750000 0.750000
vt 0.687500 0.750000
vt 0.750000 0.625000
vt 0.812500 0.625000
vt 0.812500 0.750000
vt 0.750000 0.750000
vt 0.812500 0.625000
vt 0.875000 0.625000
vt 0.875000 0.750000
vt 0.812500 0.750000
vt 0.875000 0.625000
vt 0.937500 0.625000
vt 0.937500 0.750000
vt 0.875000 0.750000
vt 0.937500 0.625000
vt 1.000000 0.625000
vt 1.000000 0.750000
vt 0.937500 0.750000
vt 0.000000 0.750000
vt 0.062500 0.750000
vt 0.062500 0.875000
vt 0.000000 0.875000
vt 0.062500 0.750000
vt 0.125000 0.750000
vt 0.125000 0.875000
vt 0.062500 0.875000
vt 0.125000 0.750000
vt 0.187500 0.750000
vt 0.187500 0.875000
vt 0.125000 0.875000
vt 0.187500 0.750000
vt 0.250000 0.750000
vt 0.250000 0.875000
vt 0.187500 0.875000
vt 0.250000 0.750000
vt 0.312500 0.750000
vt 0.312500 0.875000
vt 0.250000 0.875000
vt 0.312500 0.750000
vt 0.375000 0.750000
vt 0.375000 0.875000
vt 0.312500 0.875000
vt 0.375000 0.750000
vt 0.437500 0.750000
vt 0.437500 0.875000
vt 0.375000 0.875000
vt 0.437500 0.750000
vt 0.500000 0.750000
vt 0.500000 0.875000
vt 0.437500 0.875000
vt 0.500000 0.750000
vt 0.562500 0.750000
vt 0.562500 0.875000
vt 0.500000 0.875000
vt 0.562500 0.750000
vt 0.625000 0.750000
vt 0.625000 0.875000
vt 0.562500 0.875000
vt 0.625000 0.750000
vt 0.687500 0.750000
vt 0.687500 0.875000
vt 0.625000 0.875000
vt 0.687500 0.750000
vt 0.750000 0.750000
vt 0.750000 0.875000
vt 0.687500 0.875000
vt 0.750000 0.750000
vt 0.812500 0.750000
vt 0.812500 0.875000
vt 0.750000 0.875000
vt 0.812500 0.750000
vt 0.875000 0.750000
vt 0.875000 0.875000
vt 0.812500 0.875000
vt 0.875000 0.750000
vt 0.937500 0.750000
vt 0.937500 0.875000
vt 0.875000 0.875000
vt 0.937500 0.750000
vt 1.000000 0.750000
vt 1.000000 0.875000
vt 0.937500 0.875000
vt 0.000000 0.000000
vt 0.166667 0.000000
vt 0.166667 0.030000
vt 0.000000 0.030000
vt 0.166667 0.000000
vt 0.333333 0.000000
vt 0.333333 0.030000
vt 0.166667 0.030000
vt 0.333333 0.000000
vt 0.500000 0.000000
vt 0.500000 0.030000
vt 0.333333 0.030000
vt 0.500000 0.000000
vt 0.666667 0.000000
vt 0.666667 0.030000
vt 0.500000 0.030000
vt 0.666667 0.000000
vt 0.833333 0.000000
vt 0.833333 0.030000
vt 0.666667 0.030000
vt 0.833333 0.000000
vt 1.000000 0.000000
vt 1.000000 0.030000
vt 0.833333 0.030000
vt 0.500000 0.500000
vt 1.000000 0.500000
vt 0.750000 0.933013
vt 0.750000 0.933013
vt 0.250000 0.933013
vt 0.250000 0.933013
vt 0.000000 0.500000
vt 0.000000 0.500000
vt 0.250000 0.066987
vt 0.250000 0.066987
vt 0.750000 0.066987
vt 0.750000 0.066987
vt 1.000000 0.500000
vt 0.000000 0.000000
vt 0.024000 0.000000
vt 0.024000 0.040000
vt 0.000000 0.040000
vt 0.000000 0.000000
vt 0.024000 0.000000
vt 0.024000 0.040000
vt 0.000000 0.040000
vt 0.000000 0.000000
vt 0.024000 0.000000
vt 0.024000 0.004000
vt 0.000000 0.004000
vt 0.000000 0.000000
vt 0.024000 0.000000
vt 0.024000 0.004000
vt 0.000000 0.004000
vt 0.000000 0.000000
vt 0.004000 0.000000
vt 0.004000 0.040000
vt 0.000000 0.040000
vt 0.000000 0.000000
vt 0.004000 0.000000
vt 0.004000 0.040000
vt 0.000000 0.040000
vn 0.000000 0.000000 -1.000000
vn 0.707107 0.000000 -0.707107
vn 0.707107 0.000000 -0.707107
vn 1.000000 0.000000 -0.000000
vn 1.000000 0.000000 -0.000000
vn 0.707107 0.000000 0.707107
vn 0.707107 0.000000 0.707107
vn 0.000000 0.000000 1.000000
vn 0.000000 0.000000 1.000000
vn -0.707107 -0.000000 0.707107
vn -0.707107 -0.000000 0.707107
vn -1.000000 -0.000000 0.000000
vn -1.000000 -0.000000 0.000000
vn -0.707107 0.000000 -0.707107
vn -0.707107 0.000000 -0.707107
vn 0.000000 0.000000 -1.000000
vn -0.000000 1.000000 -0.000000
vn 0.000000 -1.000000 0.000000
vn 0.000000 0.000000 -1.000000
vn 0.707107 0.000000 -0.707107
vn 0.707107 0.000000 -0.707107
vn 1.000000 0.000000 -0.000000
vn 1.000000 0.000000 -0.000000
vn 0.707107 0.000000 0.707107
vn 0.707107 0.000000 0.707107
vn 0.000000 0.000000 1.000000
vn 0.000000 0.000000 1.000000
vn -0.707107 -0.000000 0.707107
vn -0.707107 -0.000000 0.707107
vn -1.000000 -0.000000 0.000000
vn -1.000000 -0.000000 0.000000
vn -0.707107 0.000000 -0.707107
vn -0.707107 0.000000 -0.707107
vn 0.000000 0.000000 -1.000000
vn -0.000000 1.000000 -0.000000
vn 0.000000 -1.000000 0.000000
vn 0.000000 0.000000 -1.000000
vn 0.382683 0.000000 -0.923880
vn 0.382683 0.000000 -0.923880
vn 0.707107 0.000000 -0.707107
vn 0.707107 0.000000 -0.707107
vn 0.923880 0.000000 -0.382683
vn 0.923880 0.000000 -0.382683
vn 1.000000 0.000000 -0.000000
vn 1.000000 0.000000 -0.000000
vn 0.923880 0.000000 0.382683
vn 0.923880 0.000000 0.382683
vn 0.707107 0.000000 0.707107
vn 0.707107 0.000000 0.707107
vn 0.382683 0.000000 0.923880
vn 0.382683 0.000000 0.923880
vn 0.000000 0.000000 1.000000
vn 0.000000 0.000000 1.000000
vn -0.382683 -0.000000 0.923880
vn -0.382683 -0.000000 0.923880
vn -0.707107 -0.000000 0.707107
vn -0.707107 -0.000000 0.707107
vn -0.923880 -0.000000 0.382683
vn -0.923880 -0.000000 0.382683
vn -1.000000 -0.000000 0.000000
vn -1.000000 -0.000000 0.000000
vn -0.923880 0.000000 -0.382683
vn -0.923880 0.000000 -0.382683
vn -0.707107 0.000000 -0.707107
vn -0.707107 0.000000 -0.707107
vn -0.382683 0.000000 -0.923880
vn -0.382683 0.000000 -0.923880
vn 0.000000 0.000000 -1.000000
vn -0.000000 1.000000 -0.000000
vn 0.000000 -1.000000 0.000000
vn 0.000000 0.000000 1.000000
vn 0.382683 0.000000 0.923880
vn 0.382683 0.000000 0.923880
vn 0.707107 0.000000 0.707107
vn 0.707107 0.000000 0.707107
vn 0.923880 0.000000 0.382683
vn 0.923880 0.000000 0.382683
vn 1.000000 0.000000 0.000000
vn 1.000000 0.000000 0.000000
vn 0.923880 0.000000 -0.382683
vn 0.923880 0.000000 -0.382683
vn 0.707107 0.000000 -0.707107
vn 0.707107 0.000000 -0.707107
vn 0.382683 0.000000 -0.923880
vn 0.382683 0.000000 -0.923880
vn 0.000000 0.000000 -1.000000
vn 0.000000 0.000000 -1.000000
vn -0.382683 -0.000000 -0.923880
vn -0.382683 -0.000000 -0.923880
vn -0.707107 -0.000000 -0.707107
vn -0.707107 -0.000000 -0.707107
vn -0.923880 -0.000000 -0.382683
vn -0.923880 -0.000000 -0.382683
vn -1.000000 -0.000000 -0.000000
vn -1.000000 -0.000000 -0.000000
vn -0.923880 0.000000 0.382683
vn -0.923880 0.000000 0.382683
vn -0.707107 0.000000 0.707107
vn -0.707107 0.000000 0.707107
vn -0.382683 0.000000 0.923880
vn -0.382683 0.000000 0.923880
vn 0.000000 0.000000 1.000000
vn -0.000000 -1.000000 -0.000000
vn 0.000000 1.000000 0.000000
vn 1.000000 0.200000 0.000000
vn 0.923880 0.200000 0.382683
vn 0.923880 0.200000 0.382683
vn 1.000000 0.200000 0.000000
vn 0.923880 0.200000 0.382683
vn 0.707107 0.200000 0.707107
vn 0.707107 0.200000 0.707107
vn 0.923880 0.200000 0.382683
vn 0.707107 0.200000 0.707107
vn 0.382683 0.200000 0.923880
vn 0.382683 0.200000 0.923880
vn 0.707107 0.200000 0.707107
vn 0.382683 0.200000 0.923880
vn 0.000000 0.200000 1.000000
vn 0.000000 0.200000 1.000000
vn 0.382683 0.200000 0.923880
vn 0.000000 0.200000 1.000000
vn -0.382683 0.200000 0.923880
vn -0.382683 0.200000 0.923880
vn 0.000000 0.200000 1.000000
vn -0.382683 0.200000 0.923880
vn -0.707107 0.200000 0.707107
vn -0.707107 0.200000 0.707107
vn -0.382683 0.200000 0.923880
vn -0.707107 0.200000 0.707107
vn -0.923880 0.200000 0.382683
vn -0.923880 0.200000 0.382683
vn -0.707107 0.200000 0.707107
vn -0.923880 0.200000 0.382683
vn -1.000000 0.200000 0.000000
vn -1.000000 0.200000 0.000000
vn -0.923880 0.200000 0.382683
vn -1.000000 0.200000 0.000000
vn -0.923880 0.200000 -0.382683
vn -0.923880 0.200000 -0.382683
vn -1.000000 0.200000 0.000000
vn -0.923880 0.200000 -0.382683
vn -0.707107 0.200000 -0.707107
vn -0.707107 0.200000 -0.707107
vn -0.923880 0.200000 -0.382683
vn -0.707107 0.200000 -0.707107
vn -0.382683 0.200000 -0.923880
vn -0.382683 0.200000 -0.923880
vn -0.707107 0.200000 -0.707107
vn -0.382683 0.200000 -0.923880
vn -0.000000 0.200000 -1.000000
vn -0.000000 0.200000 -1.000000
vn -0.382683 0.200000 -0.923880
vn -0.000000 0.200000 -1.000000
vn 0.382683 0.200000 -0.923880
vn 0.382683 0.200000 -0.923880
vn -0.000000 0.200000 -1.000000
vn 0.382683 0.200000 -0.923880
vn 0.707107 0.200000 -0.707107
vn 0.707107 0.200000 -0.707107
vn 0.382683 0.200000 -0.923880
vn 0.707107 0.200000 -0.707107
vn 0.923880 0.200000 -0.382683
vn 0.923880 0.200000 -0.382683
vn 0.707107 0.200000 -0.707107
vn 0.923880 0.200000 -0.382683
vn 1.000000 0.200000 0.000000
vn 1.000000 0.200000 0.000000
vn 0.923880 0.200000 -0.382683
vn 1.000000 0.200000 0.000000
vn 0.923880 0.200000 0.382683
vn 0.923880 0.200000 0.382683
vn 1.000000 0.200000 0.000000
vn 0.923880 0.200000 0.382683
vn 0.707107 0.200000 0.707107
vn 0.707107 0.200000 0.707107
vn 0.923880 0.200000 0.382683
vn 0.707107 0.200000 0.707107
vn 0.382683 0.200000 0.923880
vn 0.382683 0.200000 0.923880
vn 0.707107 0.200000 0.707107
vn 0.382683 0.200000 0.923880
vn 0.000000 0.200000 1.000000
vn 0.000000 0.200000 1.000000
vn 0.382683 0.200000 0.923880
vn 0.000000 0.200000 1.000000
vn -0.382683 0.200000 0.923880
vn -0.382683 0.200000 0.923880
vn 0.000000 0.200000 1.000000
vn -0.382683 0.200000 0.923880
vn -0.707107 0.200000 0.707107
vn -0.707107 0.200000 0.707107
vn -0.382683 0.200000 0.923880
vn -0.707107 0.200000 0.707107
vn -0.923880 0.200000 0.382683
vn -0.923880 0.200000 0.382683
vn -0.707107 0.200000 0.707107
vn -0.923880 0.200000 0.382683
vn -1.000000 0.200000 0.000000
vn -1.000000 0.200000 0.000000
vn -0.923880 0.200000 0.382683
vn -1.000000 0.200000 0.000000
vn -0.923880 0.200000 -0.382683
vn -0.923880 0.200000 -0.382683
vn -1.000000 0.200000 0.000000
vn -0.923880 0.200000 -0.382683
vn -0.707107 0.200000 -0.707107
vn -0.707107 0.200000 -0.707107
vn -0.923880 0.200000 -0.382683
vn -0.707107 0.200000 -0.707107
vn -0.382683 0.200000 -0.923880
vn -0.382683 0.200000 -0.923880
vn -0.707107 0.200000 -0.707107
vn -0.382683 0.200000 -0.923880
vn -0.000000 0.200000 -1.000000
vn -0.000000 0.200000 -1.000000
vn -0.382683 0.200000 -0.923880
vn -0.000000 0.200000 -1.000000
vn 0.382683 0.200000 -0.923880
vn 0.382683 0.200000 -0.923880
vn -0.000000 0.200000 -1.000000
vn 0.382683 0.200000 -0.923880
vn 0.707107 0.200000 -0.707107
vn 0.707107 0.200000 -0.707107
vn 0.382683 0.200000 -0.923880
vn 0.707107 0.200000 -0.707107
vn 0.923880 0.200000 -0.382683
vn 0.923880 0.200000 -0.382683
vn 0.707107 0.200000 -0.707107
vn 0.923880 0.200000 -0.382683
vn 1.000000 0.200000 0.000000
vn 1.000000 0.200000 0.000000
vn 0.923880 0.200000 -0.382683
vn 1.000000 0.200000 0.000000
vn 0.923880 0.200000 0.382683
vn 0.923880 0.200000 0.382683
vn 1.000000 0.200000 0.000000
vn 0.923880 0.200000 0.382683
vn 0.707107 0.200000 0.707107
vn 0.707107 0.200000 0.707107
vn 0.923880 0.200000 0.382683
vn 0.707107 0.200000 0.707107
vn 0.382683 0.200000 0.923880
vn 0.382683 0.200000 0.923880
vn 0.707107 0.200000 0.707107
vn 0.382683 0.200000 0.923880
vn 0.000000 0.200000 1.000000
vn 0.000000 0.200000 1.000000
vn 0.382683 0.200000 0.923880
vn 0.000000 0.200000 1.000000
vn -0.382683 0.200000 0.923880
vn -0.382683 0.200000 0.923880
vn 0.000000 0.200000 1.000000
vn -0.382683 0.200000 0.923880
vn -0.707107 0.200000 0.707107
vn -0.707107 0.200000 0.707107
vn -0.382683 0.200000 0.923880
vn -0.707107 0.200000 0.707107
vn -0.923880 0.200000 0.382683
vn -0.923880 0.200000 0.382683
vn -0.707107 0.200000 0.707107
vn -0.923880 0.200000 0.382683
vn -1.000000 0.200000 0.000000
vn -1.000000 0.200000 0.000000
vn -0.923880 0.200000 0.382683
vn -1.000000 0.200000 0.000000
vn -0.923880 0.200000 -0.382683
vn -0.923880 0.200000 -0.382683
vn -1.000000 0.200000 0.000000
vn -0.923880 0.200000 -0.382683
vn -0.707107 0.200000 -0.707107
vn -0.707107 0.200000 -0.707107
vn -0.923880 0.200000 -0.382683
vn -0.707107 0.200000 -0.707107
vn -0.382683 0.200000 -0.923880
vn -0.382683 0.200000 -0.923880
vn -0.707107 0.200000 -0.707107
vn -0.382683 0.200000 -0.923880
vn -0.000000 0.200000 -1.000000
vn -0.000000 0.200000 -1.000000
vn -0.382683 0.200000 -0.923880
vn -0.000000 0.200000 -1.000000
vn 0.382683 0.200000 -0.923880
vn 0.382683 0.200000 -0.923880
vn -0.000000 0.200000 -1.000000
vn 0.382683 0.200000 -0.923880
vn 0.707107 0.200000 -0.707107
vn 0.707107 0.200000 -0.707107
vn 0.382683 0.200000 -0.923880
vn 0.707107 0.200000 -0.707107
vn 0.923880 0.200000 -0.382683
vn 0.923880 0.200000 -0.382683
vn 0.707107 0.200000 -0.707107
vn 0.923880 0.200000 -0.382683
vn 1.000000 0.200000 0.000000
vn 1.000000 0.200000 0.000000
vn 0.923880 0.200000 -0.382683
vn 1.000000 0.200000 0.000000
vn 0.923880 0.200000 0.382683
vn 0.923880 0.200000 0.382683
vn 1.000000 0.200000 0.000000
vn 0.923880 0.200000 0.382683
vn 0.707107 0.200000 0.707107
vn 0.707107 0.200000 0.707107
vn 0.923880 0.200000 0.382683
vn 0.707107 0.200000 0.707107
vn 0.382683 0.200000 0.923880
vn 0.382683 0.200000 0.923880
vn 0.707107 0.200000 0.707107
vn 0.382683 0.200000 0.923880
vn 0.000000 0.200000 1.000000
vn 0.000000 0.200000 1.000000
vn 0.382683 0.200000 0.923880
vn 0.000000 0.200000 1.000000
vn -0.382683 0.200000 0.923880
vn -0.382683 0.200000 0.923880
vn 0.000000 0.200000 1.000000
vn -0.382683 0.200000 0.923880
vn -0.707107 0.200000 0.707107
vn -0.707107 0.200000 0.707107
vn -0.382683 0.200000 0.923880
vn -0.707107 0.200000 0.707107
vn -0.923880 0.200000 0.382683
vn -0.923880 0.200000 0.382683
vn -0.707107 0.200000 0.707107
vn -0.923880 0.200000 0.382683
vn -1.000000 0.200000 0.000000
vn -1.000000 0.200000 0.000000
vn -0.923880 0.200000 0.382683
vn -1.000000 0.200000 0.000000
vn -0.923880 0.200000 -0.382683
vn -0.923880 0.200000 -0.382683
vn -1.000000 0.200000 0.000000
vn -0.923880 0.200000 -0.382683
vn -0.707107 0.200000 -0.707107
vn -0.707107 0.200000 -0.707107
vn -0.923880 0.200000 -0.382683
vn -0.707107 0.200000 -0.707107
vn -0.382683 0.200000 -0.923880
vn -0.382683 0.200000 -0.923880
vn -0.707107 0.200000 -0.707107
vn -0.382683 0.200000 -0.923880
vn -0.000000 0.200000 -1.000000
vn -0.000000 0.200000 -1.000000
vn -0.382683 0.200000 -0.923880
vn -0.000000 0.200000 -1.000000
vn 0.382683 0.200000 -0.923880
vn 0.382683 0.200000 -0.923880
vn -0.000000 0.200000 -1.000000
vn 0.382683 0.200000 -0.923880
vn 0.707107 0.200000 -0.707107
vn 0.707107 0.200000 -0.707107
vn 0.382683 0.200000 -0.923880
vn 0.707107 0.200000 -0.707107
vn 0.923880 0.200000 -0.382683
vn 0.923880 0.200000 -0.382683
vn 0.707107 0.200000 -0.707107
vn 0.923880 0.200000 -0.382683
vn 1.000000 0.200000 0.000000
vn 1.000000 0.200000 0.000000
vn 0.923880 0.200000 -0.382683
vn 1.000000 0.200000 0.000000
vn 0.923880 0.200000 0.382683
vn 0.923880 0.200000 0.382683
vn 1.000000 0.200000 0.000000
vn 0.923880 0.200000 0.382683
vn 0.707107 0.200000 0.707107
vn 0.707107 0.200000 0.707107
vn 0.923880 0.200000 0.382683
vn 0.707107 0.200000 0.707107
vn 0.382683 0.200000 0.923880
vn 0.382683 0.200000 0.923880
vn 0.707107 0.200000 0.707107
vn 0.382683 0.200000 0.923880
vn 0.000000 0.200000 1.000000
vn 0.000000 0.200000 1.000000
vn 0.382683 0.200000 0.923880
vn 0.000000 0.200000 1.000000
vn -0.382683 0.200000 0.923880
vn -0.382683 0.200000 0.923880
vn 0.000000 0.200000 1.000000
vn -0.382683 0.200000 0.923880
vn -0.707107 0.200000 0.707107
vn -0.707107 0.200000 0.707107
vn -0.382683 0.200000 0.923880
vn -0.707107 0.200000 0.707107
vn -0.923880 0.200000 0.382683
vn -0.923880 0.200000 0.382683
vn -0.707107 0.200000 0.707107
vn -0.923880 0.200000 0.382683
vn -1.000000 0.200000 0.000000
vn -1.000000 0.200000 0.000000
vn -0.923880 0.200000 0.382683
vn -1.000000 0.200000 0.000000
vn -0.923880 0.200000 -0.382683
vn -0.923880 0.200000 -0.382683
vn -1.000000 0.200000 0.000000
vn -0.923880 0.200000 -0.382683
vn -0.707107 0.200000 -0.707107
vn -0.707107 0.200000 -0.707107
vn -0.923880 0.200000 -0.382683
vn -0.707107 0.200000 -0.707107
vn -0.382683 0.200000 -0.923880
vn -0.382683 0.200000 -0.923880
vn -0.707107 0.200000 -0.707107
vn -0.382683 0.200000 -0.923880
vn -0.000000 0.200000 -1.000000
vn -0.000000 0.200000 -1.000000
vn -0.382683 0.200000 -0.923880
vn -0.000000 0.200000 -1.000000
vn 0.382683 0.200000 -0.923880
vn 0.382683 0.200000 -0.923880
vn -0.000000 0.200000 -1.000000
vn 0.382683 0.200000 -0.923880
vn 0.707107 0.200000 -0.707107
vn 0.707107 0.200000 -0.707107
vn 0.382683 0.200000 -0.923880
vn 0.707107 0.200000 -0.707107
vn 0.923880 0.200000 -0.382683
vn 0.923880 0.200000 -0.382683
vn 0.707107 0.200000 -0.707107
vn 0.923880 0.200000 -0.382683
vn 1.000000 0.200000 0.000000
vn 1.000000 0.200000 0.000000
vn 0.923880 0.200000 -0.382683
vn 1.000000 0.200000 0.000000
vn 0.923880 0.200000 0.382683
vn 0.923880 0.200000 0.382683
vn 1.000000 0.200000 0.000000
vn 0.923880 0.200000 0.382683
vn 0.707107 0.200000 0.707107
vn 0.707107 0.200000 0.707107
vn 0.923880 0.200000 0.382683
vn 0.707107 0.200000 0.707107
vn 0.382683 0.200000 0.923880
vn 0.382683 0.200000 0.923880
vn 0.707107 0.200000 0.707107
vn 0.382683 0.200000 0.923880
vn 0.000000 0.200000 1.000000
vn 0.000000 0.200000 1.000000
vn 0.382683 0.200000 0.923880
vn 0.000000 0.200000 1.000000
vn -0.382683 0.200000 0.923880
vn -0.382683 0.200000 0.923880
vn 0.000000 0.200000 1.000000
vn -0.382683 0.200000 0.923880
vn -0.707107 0.200000 0.707107
vn -0.707107 0.200000 0.707107
vn -0.382683 0.200000 0.923880
vn -0.707107 0.200000 0.707107
vn -0.923880 0.200000 0.382683
vn -0.923880 0.200000 0.382683
vn -0.707107 0.200000 0.707107
vn -0.923880 0.200000 0.382683
vn -1.000000 0.200000 0.000000
vn -1.000000 0.200000 0.000000
vn -0.923880 0.200000 0.382683
vn -1.000000 0.200000 0.000000
vn -0.923880 0.200000 -0.382683
vn -0.923880 0.200000 -0.382683
vn -1.000000 0.200000 0.000000
vn -0.923880 0.200000 -0.382683
vn -0.707107 0.200000 -0.707107
vn -0.707107 0.200000 -0.707107
vn -0.923880 0.200000 -0.382683
vn -0.707107 0.200000 -0.707107
vn -0.382683 0.200000 -0.923880
vn -0.382683 0.200000 -0.923880
vn -0.707107 0.200000 -0.707107
vn -0.382683 0.200000 -0.923880
vn -0.000000 0.200000 -1.000000
vn -0.000000 0.200000 -1.000000
vn -0.382683 0.200000 -0.923880
vn -0.000000 0.200000 -1.000000
vn 0.382683 0.200000 -0.923880
vn 0.382683 0.200000 -0.923880
vn -0.000000 0.200000 -1.000000
vn 0.382683 0.200000 -0.923880
vn 0.707107 0.200000 -0.707107
vn 0.707107 0.200000 -0.707107
vn 0.382683 0.200000 -0.923880
vn 0.707107 0.200000 -0.707107
vn 0.923880 0.200000 -0.382683
vn 0.923880 0.200000 -0.382683
vn 0.707107 0.200000 -0.707107
vn 0.923880 0.200000 -0.382683
vn 1.000000 0.200000 0.000000
vn 1.000000 0.200000 0.000000
vn 0.923880 0.200000 -0.382683
vn 1.000000 0.200000 0.000000
vn 0.923880 0.200000 0.382683
vn 0.923880 0.200000 0.382683
vn 1.000000 0.200000 0.000000
vn 0.923880 0.200000 0.382683
vn 0.707107 0.200000 0.707107
vn 0.707107 0.200000 0.707107
vn 0.923880 0.200000 0.382683
vn 0.707107 0.200000 0.707107
vn 0.382683 0.200000 0.923880
vn 0.382683 0.200000 0.923880
vn 0.707107 0.200000 0.707107
vn 0.382683 0.200000 0.923880
vn 0.000000 0.200000 1.000000
vn 0.000000 0.200000 1.000000
vn 0.382683 0.200000 0.923880
vn 0.000000 0.200000 1.000000
vn -0.382683 0.200000 0.923880
vn -0.382683 0.200000 0.923880
vn 0.000000 0.200000 1.000000
vn -0.382683 0.200000 0.923880
vn -0.707107 0.200000 0.707107
vn -0.707107 0.200000 0.707107
vn -0.382683 0.200000 0.923880
vn -0.707107 0.200000 0.707107
vn -0.923880 0.200000 0.382683
vn -0.923880 0.200000 0.382683
vn -0.707107 0.200000 0.707107
vn -0.923880 0.200000 0.382683
vn -1.000000 0.200000 0.000000
vn -1.000000 0.200000 0.000000
vn -0.923880 0.200000 0.382683
vn -1.000000 0.200000 0.000000
vn -0.923880 0.200000 -0.382683
vn -0.923880 0.200000 -0.382683
vn -1.000000 0.200000 0.000000
vn -0.923880 0.200000 -0.382683
vn -0.707107 0.200000 -0.707107
vn -0.707107 0.200000 -0.707107
vn -0.923880 0.200000 -0.382683
vn -0.707107 0.200000 -0.707107
vn -0.382683 0.200000 -0.923880
vn -0.382683 0.200000 -0.923880
vn -0.707107 0.200000 -0.707107
vn -0.382683 0.200000 -0.923880
vn -0.000000 0.200000 -1.000000
vn -0.000000 0.200000 -1.000000
vn -0.382683 0.200000 -0.923880
vn -0.000000 0.200000 -1.000000
vn 0.382683 0.200000 -0.923880
vn 0.382683 0.200000 -0.923880
vn -0.000000 0.200000 -1.000000
vn 0.382683 0.200000 -0.923880
vn 0.707107 0.200000 -0.707107
vn 0.707107 0.200000 -0.707107
vn 0.382683 0.200000 -0.923880
vn 0.707107 0.200000 -0.707107
vn 0.923880 0.200000 -0.382683
vn 0.923880 0.200000 -0.382683
vn 0.707107 0.200000 -0.707107
vn 0.923880 0.200000 -0.382683
vn 1.000000 0.200000 0.000000
vn 1.000000 0.200000 0.000000
vn 0.923880 0.200000 -0.382683
vn 0.000000 0.000000 -1.000000
vn 0.866025 0.000000 -0.500000
vn 0.866025 0.000000 -0.500000
vn 0.866025 0.000000 0.500000
vn 0.866025 0.000000 0.500000
vn 0.000000 0.000000 1.000000
vn 0.000000 0.000000 1.000000
vn -0.866025 -0.000000 0.500000
vn -0.866025 -0.000000 0.500000
vn -0.866025 0.000000 -0.500000
vn -0.866025 0.000000 -0.500000
vn 0.000000 0.000000 -1.000000
vn -0.000000 1.000000 -0.000000
vn 0.000000 -1.000000 0.000000
vn 0.000000 0.000000 1.000000
vn 0.000000 0.000000 -1.000000
vn 0.000000 1.000000 0.000000
vn 0.000000 -1.000000 0.000000
vn 1.000000 0.000000 0.000000
vn -1.000000 0.000000 0.000000
f 1/1/1 3/2/2 4/3/2
f 1/1/1 4/3/2 2/4/1
f 3/5/3 5/6/4 6/7/4
f 3/5/3 6/7/4 4/8/3
f 5/9/5 7/10/6 8/11/6
f 5/9/5 8/11/6 6/12/5
f 7/13/7 9/14/8 10/15/8
f 7/13/7 10/15/8 8/16/7
f 9/17/9 11/18/10 12/19/10
f 9/17/9 12/19/10 10/20/9
f 11/21/11 13/22/12 14/23/12
f 11/21/11 14/23/12 12/24/11
f 13/25/13 15/26/14 16/27/14
f 13/25/13 16/27/14 14/28/13
f 15/29/15 1/30/16 2/31/16
f 15/29/15 2/31/16 16/32/15
f 17/33/17 3/35/17 1/34/17
f 18/33/18 2/34/18 4/35/18
f 17/33/17 5/37/17 3/36/17
f 18/33/18 4/36/18 6/37/18
f 17/33/17 7/39/17 5/38/17
f 18/33/18 6/38/18 8/39/18
f 17/33/17 9/41/17 7/40/17
f 18/33/18 8/40/18 10/41/18
f 17/33/17 11/43/17 9/42/17
f 18/33/18 10/42/18 12/43/18
f 17/33/17 13/45/17 11/44/17
f 18/33/18 12/44/18 14/45/18
f 17/33/17 15/47/17 13/46/17
f 18/33/18 14/46/18 16/47/18
f 17/33/17 1/49/17 15/48/17
f 18/33/18 16/48/18 2/49/18
f 19/50/19 21/51/20 22/52/20
f 19/50/19 22/52/20 20/53/19
f 21/54/21 23/55/22 24/56/22
f 21/54/21 24/56/22 22/57/21
f 23/58/23 25/59/24 26/60/24
f 23/58/23 26/60/24 24/61/23
f 25/62/25 27/63/26 28/64/26
f 25/62/25 28/64/26 26/65/25
f 27/66/27 29/67/28 30/68/28
f 27/66/27 30/68/28 28/69/27
f 29/70/29 31/71/30 32/72/30
f 29/70/29 32/72/30 30/73/29
f 31/74/31 33/75/32 34/76/32
f 31/74/31 34/76/32 32/77/31
f 33/78/33 19/79/34 20/80/34
f 33/78/33 20/80/34 34/81/33
f 35/82/35 21/84/35 19/83/35
f 36/82/36 20/83/36 22/84/36
f 35/82/35 23/86/35 21/85/35
f 36/82/36 22/85/36 24/86/36
f 35/82/35 25/88/35 23/87/35
f 36/82/36 24/87/36 26/88/36
f 35/82/35 27/90/35 25/89/35
f 36/82/36 26/89/36 28/90/36
f 35/82/35 29/92/35 27/91/35
f 36/82/36 28/91/36 30/92/36
f 35/82/35 31/94/35 29/93/35
f 36/82/36 30/93/36 32/94/36
f 35/82/35 33/96/35 31/95/35
f 36/82/36 32/95/36 34/96/36
f 35/82/35 19/98/35 33/97/35
f 36/82/36 34/97/36 20/98/36
f 37/99/37 39/100/38 40/101/38
f 37/99/37 40/101/38 38/102/37
f 39/103/39 41/104/40 42/105/40
f 39/103/39 42/105/40 40/106/39
f 41/107/41 43/108/42 44/109/42
f 41/107/41 44/109/42 42/110/41
f 43/111/43 45/112/44 46/113/44
f 43/111/43 46/113/44 44/114/43
f 45/115/45 47/116/46 48/117/46
f 45/115/45 48/117/46 46/118/45
f 47/119/47 49/120/48 50/121/48
f 47/119/47 50/121/48 48/122/47
f 49/123/49 51/124/50 52/125/50
f 49/123/49 52/125/50 50/126/49
f 51/127/51 53/128/52 54/129/52
f 51/127/51 54/129/52 52/130/51
f 53/131/53 55/132/54 56/133/54
f 53/131/53 56/133/54 54/134/53
f 55/135/55 57/136/56 58/137/56
f 55/135/55 58/137/56 56/138/55
f 57/139/57 59/140/58 60/141/58
f 57/139/57 60/141/58 58/142/57
f 59/143/59 61/144/60 62/145/60
f 59/143/59 62/145/60 60/146/59
f 61/147/61 63/148/62 64/149/62
f 61/147/61 64/149/62 62/150/61
f 63/151/63 65/152/64 66/153/64
f 63/151/63 66/153/64 64/154/63
f 65/155/65 67/156/66 68/157/66
f 65/155/65 68/157/66 66/158/65
f 67/159/67 37/160/68 38/161/68
f 67/159/67 38/161/68 68/162/67
f 69/163/69 39/165/69 37/164/69
f 70/163/70 38/164/70 40/165/70
f 69/163/69 41/167/69 39/166/69
f 70/163/70 40/166/70 42/167/70
f 69/163/69 43/169/69 41/168/69
f 70/163/70 42/168/70 44/169/70
f 69/163/69 45/171/69 43/170/69
f 70/163/70 44/170/70 46/171/70
f 69/163/69 47/173/69 45/172/69
f 70/163/70 46/172/70 48/173/70
f 69/163/69 49/175/69 47/174/69
f 70/163/70 48/174/70 50/175/70
f 69/163/69 51/177/69 49/176/69
f 70/163/70 50/176/70 52/177/70
f 69/163/69 53/179/69 51/178/69
f 70/163/70 52/178/70 54/179/70
f 69/163/69 55/181/69 53/180/69
f 70/163/70 54/180/70 56/181/70
f 69/163/69 57/183/69 55/182/69
f 70/163/70 56/182/70 58/183/70
f 69/163/69 59/185/69 57/184/69
f 70/163/70 58/184/70 60/185/70
f 69/163/69 61/187/69 59/186/69
f 70/163/70 60/186/70 62/187/70
f 69/163/69 63/189/69 61/188/69
f 70/163/70 62/188/70 64/189/70
f 69/163/69 65/191/69 63/190/69
f 70/163/70 64/190/70 66/191/70
f 69/163/69 67/193/69 65/192/69
f 70/163/70 66/192/70 68/193/70
f 69/163/69 37/195/69 67/194/69
f 70/163/70 68/194/70 38/195/70
f 71/196/71 73/197/72 74/198/72
f 71/196/71 74/198/72 72/199/71
f 73/200/73 75/201/74 76/202/74
f 73/200/73 76/202/74 74/203/73
f 75/204/75 77/205/76 78/206/76
f 75/204/75 78/206/76 76/207/75
f 77/208/77 79/209/78 80/210/78
f 77/208/77 80/210/78 78/211/77
f 79/212/79 81/213/80 82/214/80
f 79/212/79 82/214/80 80/215/79
f 81/216/81 83/217/82 84/218/82
f 81/216/81 84/218/82 82/219/81
f 83/220/83 85/221/84 86/222/84
f 83/220/83 86/222/84 84/223/83
f 85/224/85 87/225/86 88/226/86
f 85/224/85 88/226/86 86/227/85
f 87/228/87 89/229/88 90/230/88
f 87/228/87 90/230/88 88/231/87
f 89/232/89 91/233/90 92/234/90
f 89/232/89 92/234/90 90/235/89
f 91/236/91 93/237/92 94/238/92
f 91/236/91 94/238/92 92/239/91
f 93/240/93 95/241/94 96/242/94
f 93/240/93 96/242/94 94/243/93
f 95/244/95 97/245/96 98/246/96
f 95/244/95 98/246/96 96/247/95
f 97/248/97 99/249/98 100/250/98
f 97/248/97 100/250/98 98/251/97
f 99/252/99 101/253/100 102/254/100
f 99/252/99 102/254/100 100/255/99
f 101/256/101 71/257/102 72/258/102
f 101/256/101 72/258/102 102/259/101
f 103/260/103 73/262/103 71/261/103
f 104/260/104 72/261/104 74/262/104
f 103/260/103 75/264/103 73/263/103
f 104/260/104 74/263/104 76/264/104
f 103/260/103 77/266/103 75/265/103
f 104/260/104 76/265/104 78/266/104
f 103/260/103 79/268/103 77/267/103
f 104/260/104 78/267/104 80/268/104
f 103/260/103 81/270/103 79/269/103
f 104/260/104 80/269/104 82/270/104
f 103/260/103 83/272/103 81/271/103
f 104/260/104 82/271/104 84/272/104
f 103/260/103 85/274/103 83/273/103
f 104/260/104 84/273/104 86/274/104
f 103/260/103 87/276/103 85/275/103
f 104/260/104 86/275/104 88/276/104
f 103/260/103 89/278/103 87/277/103
f 104/260/104 88/277/104 90/278/104
f 103/260/103 91/280/103 89/279/103
f 104/260/104 90/279/104 92/280/104
f 103/260/103 93/282/103 91/281/103
f 104/260/104 92/281/104 94/282/104
f 103/260/103 95/284/103 93/283/103
f 104/260/104 94/283/104 96/284/104
f 103/260/103 97/286/103 95/285/103
f 104/260/104 96/285/104 98/286/104
f 103/260/103 99/288/103 97/287/103
f 104/260/104 98/287/104 100/288/104
f 103/260/103 101/290/103 99/289/103
f 104/260/104 100/289/104 102/290/104
f 103/260/103 71/292/103 101/291/103
f 104/260/104 102/291/104 72/292/104
f 105/293/105 107/294/106 108/295/107
f 105/293/105 108/295/107 106/296/108
f 107/297/109 109/298/110 110/299/111
f 107/297/109 110/299/111 108/300/112
f 109/301/113 111/302/114 112/303/115
f 109/301/113 112/303/115 110/304/116
f 111/305/117 113/306/118 114/307/119
f 111/305/117 114/307/119 112/308/120
f 113/309/121 115/310/122 116/311/123
f 113/309/121 116/311/123 114/312/124
f 115/313/125 117/314/126 118/315/127
f 115/313/125 118/315/127 116/316/128
f 117/317/129 119/318/130 120/319/131
f 117/317/129 120/319/131 118/320/132
f 119/321/133 121/322/134 122/323/135
f 119/321/133 122/323/135 120/324/136
f 121/325/137 123/326/138 124/327/139
f 121/325/137 124/327/139 122/328/140
f 123/329/141 125/330/142 126/331/143
f 123/329/141 126/331/143 124/332/144
f 125/333/145 127/334/146 128/335/147
f 125/333/145 128/335/147 126/336/148
f 127/337/149 129/338/150 130/339/151
f 127/337/149 130/339/151 128/340/152
f 129/341/153 131/342/154 132/343/155
f 129/341/153 132/343/155 130/344/156
f 131/345/157 133/346/158 134/347/159
f 131/345/157 134/347/159 132/348/160
f 133/349/161 135/350/162 136/351/163
f 133/349/161 136/351/163 134/352/164
f 135/353/165 105/354/166 106/355/167
f 135/353/165 106/355/167 136/356/168
f 137/357/169 139/358/170 140/359/171
f 137/357/169 140/359/171 138/360/172
f 139/361/173 141/362/174 142/363/175
f 139/361/173 142/363/175 140/364/176
f 141/365/177 143/366/178 144/367/179
f 141/365/177 144/367/179 142/368/180
f 143/369/181 145/370/182 146/371/183
f 143/369/181 146/371/183 144/372/184
f 145/373/185 147/374/186 148/375/187
f 145/373/185 148/375/187 146/376/188
f 147/377/189 149/378/190 150/379/191
f 147/377/189 150/379/191 148/380/192
f 149/381/193 151/382/194 152/383/195
f 149/381/193 152/383/195 150/384/196
f 151/385/197 153/386/198 154/387/199
f 151/385/197 154/387/199 152/388/200
f 153/389/201 155/390/202 156/391/203
f 153/389/201 156/391/203 154/392/204
f 155/393/205 157/394/206 158/395/207
f 155/393/205 158/395/207 156/396/208
f 157/397/209 159/398/210 160/399/211
f 157/397/209 160/399/211 158/400/212
f 159/401/213 161/402/214 162/403/215
f 159/401/213 162/403/215 160/404/216
f 161/405/217 163/406/218 164/407/219
f 161/405/217 164/407/219 162/408/220
f 163/409/221 165/410/222 166/411/223
f 163/409/221 166/411/223 164/412/224
f 165/413/225 167/414/226 168/415/227
f 165/413/225 168/415/227 166/416/228
f 167/417/229 137/418/230 138/419/231
f 167/417/229 138/419/231 168/420/232
f 169/421/233 171/422/234 172/423/235
f 169/421/233 172/423/235 170/424/236
f 171/425/237 173/426/238 174/427/239
f 171/425/237 174/427/239 172/428/240
f 173/429/241 175/430/242 176/431/243
f 173/429/241 176/431/243 174/432/244
f 175/433/245 177/434/246 178/435/247
f 175/433/245 178/435/247 176/436/248
f 177/437/249 179/438/250 180/439/251
f 177/437/249 180/439/251 178/440/252
f 179/441/253 181/442/254 182/443/255
f 179/441/253 182/443/255 180/444/256
f 181/445/257 183/446/258 184/447/259
f 181/445/257 184/447/259 182/448/260
f 183/449/261 185/450/262 186/451/263
f 183/449/261 186/451/263 184/452/264
f 185/453/265 187/454/266 188/455/267
f 185/453/265 188/455/267 186/456/268
f 187/457/269 189/458/270 190/459/271
f 187/457/269 190/459/271 188/460/272
f 189/461/273 191/462/274 192/463/275
f 189/461/273 192/463/275 190/464/276
f 191/465/277 193/466/278 194/467/279
f 191/465/277 194/467/279 192/468/280
f 193/469/281 195/470/282 196/471/283
f 193/469/281 196/471/283 194/472/284
f 195/473/285 197/474/286 198/475/287
f 195/473/285 198/475/287 196/476/288
f 197/477/289 199/478/290 200/479/291
f 197/477/289 200/479/291 198/480/292
f 199/481/293 169/482/294 170/483/295
f 199/481/293 170/483/295 200/484/296
f 201/485/297 203/486/298 204/487/299
f 201/485/297 204/487/299 202/488/300
f 203/489/301 205/490/302 206/491/303
f 203/489/301 206/491/303 204/492/304
f 205/493/305 207/494/306 208/495/307
f 205/493/305 208/495/307 206/496/308
f 207/497/309 209/498/310 210/499/311
f 207/497/309 210/499/311 208/500/312
f 209/501/313 211/502/314 212/503/315
f 209/501/313 212/503/315 210/504/316
f 211/505/317 213/506/318 214/507/319
f 211/505/317 214/507/319 212/508/320
f 213/509/321 215/510/322 216/511/323
f 213/509/321 216/511/323 214/512/324
f 215/513/325 217/514/326 218/515/327
f 215/513/325 218/515/327 216/516/328
f 217/517/329 219/518/330 220/519/331
f 217/517/329 220/519/331 218/520/332
f 219/521/333 221/522/334 222/523/335
f 219/521/333 222/523/335 220/524/336
f 221/525/337 223/526/338 224/527/339
f 221/525/337 224/527/339 222/528/340
f 223/529/341 225/530/342 226/531/343
f 223/529/341 226/531/343 224/532/344
f 225/533/345 227/534/346 228/535/347
f 225/533/345 228/535/347 226/536/348
f 227/537/349 229/538/350 230/539/351
f 227/537/349 230/539/351 228/540/352
f 229/541/353 231/542/354 232/543/355
f 229/541/353 232/543/355 230/544/356
f 231/545/357 201/546/358 202/547/359
f 231/545/357 202/547/359 232/548/360
f 233/549/361 235/550/362 236/551/363
f 233/549/361 236/551/363 234/552/364
f 235/553/365 237/554/366 238/555/367
f 235/553/365 238/555/367 236/556/368
f 237/557/369 239/558/370 240/559/371
f 237/557/369 240/559/371 238/560/372
f 239/561/373 241/562/374 242/563/375
f 239/561/373 242/563/375 240/564/376
f 241/565/377 243/566/378 244/567/379
f 241/565/377 244/567/379 242/568/380
f 243/569/381 245/570/382 246/571/383
f 243/569/381 246/571/383 244/572/384
f 245/573/385 247/574/386 248/575/387
f 245/573/385 248/575/387 246/576/388
f 247/577/389 249/578/390 250/579/391
f 247/577/389 250/579/391 248/580/392
f 249/581/393 251/582/394 252/583/395
f 249/581/393 252/583/395 250/584/396
f 251/585/397 253/586/398 254/587/399
f 251/585/397 254/587/399 252/588/400
f 253/589/401 255/590/402 256/591/403
f 253/589/401 256/591/403 254/592/404
f 255/593/405 257/594/406 258/595/407
f 255/593/405 258/595/407 256/596/408
f 257/597/409 259/598/410 260/599/411
f 257/597/409 260/599/411 258/600/412
f 259/601/413 261/602/414 262/603/415
f 259/601/413 262/603/415 260/604/416
f 261/605/417 263/606/418 264/607/419
f 261/605/417 264/607/419 262/608/420
f 263/609/421 233/610/422 234/611/423
f 263/609/421 234/611/423 264/612/424
f 265/613/425 267/614/426 268/615/427
f 265/613/425 268/615/427 266/616/428
f 267/617/429 269/618/430 270/619/431
f 267/617/429 270/619/431 268/620/432
f 269/621/433 271/622/434 272/623/435
f 269/621/433 272/623/435 270/624/436
f 271/625/437 273/626/438 274/627/439
f 271/625/437 274/627/439 272/628/440
f 273/629/441 275/630/442 276/631/443
f 273/629/441 276/631/443 274/632/444
f 275/633/445 277/634/446 278/635/447
f 275/633/445 278/635/447 276/636/448
f 277/637/449 279/638/450 280/639/451
f 277/637/449 280/639/451 278/640/452
f 279/641/453 281/642/454 282/643/455
f 279/641/453 282/643/455 280/644/456
f 281/645/457 283/646/458 284/647/459
f 281/645/457 284/647/459 282/648/460
f 283/649/461 285/650/462 286/651/463
f 283/649/461 286/651/463 284/652/464
f 285/653/465 287/654/466 288/655/467
f 285/653/465 288/655/467 286/656/468
f 287/657/469 289/658/470 290/659/471
f 287/657/469 290/659/471 288/660/472
f 289/661/473 291/662/474 292/663/475
f 289/661/473 292/663/475 290/664/476
f 291/665/477 293/666/478 294/667/479
f 291/665/477 294/667/479 292/668/480
f 293/669/481 295/670/482 296/671/483
f 293/669/481 296/671/483 294/672/484
f 295/673/485 265/674/486 266/675/487
f 295/673/485 266/675/487 296/676/488
f 297/677/489 299/678/490 300/679/491
f 297/677/489 300/679/491 298/680/492
f 299/681/493 301/682/494 302/683/495
f 299/681/493 302/683/495 300/684/496
f 301/685/497 303/686/498 304/687/499
f 301/685/497 304/687/499 302/688/500
f 303/689/501 305/690/502 306/691/503
f 303/689/501 306/691/503 304/692/504
f 305/693/505 307/694/506 308/695/507
f 305/693/505 308/695/507 306/696/508
f 307/697/509 309/698/510 310/699/511
f 307/697/509 310/699/511 308/700/512
f 309/701/513 311/702/514 312/703/515
f 309/701/513 312/703/515 310/704/516
f 311/705/517 313/706/518 314/707/519
f 311/705/517 314/707/519 312/708/520
f 313/709/521 315/710/522 316/711/523
f 313/709/521 316/711/523 314/712/524
f 315/713/525 317/714/526 318/715/527
f 315/713/525 318/715/527 316/716/528
f 317/717/529 319/718/530 320/719/531
f 317/717/529 320/719/531 318/720/532
f 319/721/533 321/722/534 322/723/535
f 319/721/533 322/723/535 320/724/536
f 321/725/537 323/726/538 324/727/539
f 321/725/537 324/727/539 322/728/540
f 323/729/541 325/730/542 326/731/543
f 323/729/541 326/731/543 324/732/544
f 325/733/545 327/734/546 328/735/547
f 325/733/545 328/735/547 326/736/548
f 327/737/549 297/738/550 298/739/551
f 327/737/549 298/739/551 328/740/552
f 329/741/553 331/742/554 332/743/554
f 329/741/553 332/743/554 330/744/553
f 331/745/555 333/746/556 334/747/556
f 331/745/555 334/747/556 332/748/555
f 333/749/557 335/750/558 336/751/558
f 333/749/557 336/751/558 334/752/557
f 335/753/559 337/754/560 338/755/560
f 335/753/559 338/755/560 336/756/559
f 337/757/561 339/758/562 340/759/562
f 337/757/561 340/759/562 338/760/561
f 339/761/563 329/762/564 330/763/564
f 339/761/563 330/763/564 340/764/563
f 341/765/565 331/767/565 329/766/565
f 342/765/566 330/766/566 332/767/566
f 341/765/565 333/769/565 331/768/565
f 342/765/566 332/768/566 334/769/566
f 341/765/565 335/771/565 333/770/565
f 342/765/566 334/770/566 336/771/566
f 341/765/565 337/773/565 335/772/565
f 342/765/566 336/772/566 338/773/566
f 341/765/565 339/775/565 337/774/565
f 342/765/566 338/774/566 340/775/566
f 341/765/565 329/777/565 339/776/565
f 342/765/566 340/776/566 330/777/566
f 344/778/567 348/779/567 350/780/567
f 344/778/567 350/780/567 346/781/567
f 347/782/568 343/783/568 345/784/568
f 347/782/568 345/784/568 349/785/568
f 346/786/569 350/787/569 349/788/569
f 346/786/569 349/788/569 345/789/569
f 343/790/570 347/791/570 348/792/570
f 343/790/570 348/792/570 344/793/570
f 348/794/571 347/795/571 349/796/571
f 348/794/571 349/796/571 350/797/571
f 343/798/572 344/799/572 346/800/572
f 343/798/572 346/800/572 345/801/572
