# Wavefront OBJ: SM_Sign_TramChanh_New
o SM_Sign_TramChanh_New
v -0.790000 -0.150000 0.120000
v 0.790000 -0.150000 0.120000
v 0.790000 0.150000 0.120000
v -0.790000 0.150000 0.120000
v -0.830000 -0.150000 0.080000
v -0.830000 0.150000 0.080000
v -0.829231 -0.150000 0.087804
v -0.829231 0.150000 0.087804
v -0.826955 -0.150000 0.095307
v -0.826955 0.150000 0.095307
v -0.823259 -0.150000 0.102223
v -0.823259 0.150000 0.102223
v -0.818284 -0.150000 0.108284
v -0.818284 0.150000 0.108284
v -0.812223 -0.150000 0.113259
v -0.812223 0.150000 0.113259
v -0.805307 -0.150000 0.116955
v -0.805307 0.150000 0.116955
v -0.797804 -0.150000 0.119231
v -0.797804 0.150000 0.119231
v -0.790000 -0.150000 0.120000
v -0.790000 0.150000 0.120000
v 0.790000 -0.150000 0.120000
v 0.790000 0.150000 0.120000
v 0.797804 -0.150000 0.119231
v 0.797804 0.150000 0.119231
v 0.805307 -0.150000 0.116955
v 0.805307 0.150000 0.116955
v 0.812223 -0.150000 0.113259
v 0.812223 0.150000 0.113259
v 0.818284 -0.150000 0.108284
v 0.818284 0.150000 0.108284
v 0.823259 -0.150000 0.102223
v 0.823259 0.150000 0.102223
v 0.826955 -0.150000 0.095307
v 0.826955 0.150000 0.095307
v 0.829231 -0.150000 0.087804
v 0.829231 0.150000 0.087804
v 0.830000 -0.150000 0.080000
v 0.830000 0.150000 0.080000
v -0.830000 0.150000 0.120000
v 0.830000 0.150000 0.120000
v 0.830000 0.150000 0.000000
v -0.830000 0.150000 0.000000
v -0.830000 -0.150000 0.000000
v 0.830000 -0.150000 0.000000
v 0.830000 -0.150000 0.120000
v -0.830000 -0.150000 0.120000
v 0.830000 -0.150000 0.000000
v -0.830000 -0.150000 0.000000
v -0.830000 0.150000 0.000000
v 0.830000 0.150000 0.000000
vt 0.150000 0.000000
vt 0.850000 0.000000
vt 0.850000 1.000000
vt 0.150000 1.000000
vt 0.000000 0.000000
vt 0.018750 0.000000
vt 0.018750 1.000000
vt 0.000000 1.000000
vt 0.018750 0.000000
vt 0.037500 0.000000
vt 0.037500 1.000000
vt 0.018750 1.000000
vt 0.037500 0.000000
vt 0.056250 0.000000
vt 0.056250 1.000000
vt 0.037500 1.000000
vt 0.056250 0.000000
vt 0.075000 0.000000
vt 0.075000 1.000000
vt 0.056250 1.000000
vt 0.075000 0.000000
vt 0.093750 0.000000
vt 0.093750 1.000000
vt 0.075000 1.000000
vt 0.093750 0.000000
vt 0.112500 0.000000
vt 0.112500 1.000000
vt 0.093750 1.000000
vt 0.112500 0.000000
vt 0.131250 0.000000
vt 0.131250 1.000000
vt 0.112500 1.000000
vt 0.131250 0.000000
vt 0.150000 0.000000
vt 0.150000 1.000000
vt 0.131250 1.000000
vt 0.850000 0.000000
vt 0.868750 0.000000
vt 0.868750 1.000000
vt 0.850000 1.000000
vt 0.868750 0.000000
vt 0.887500 0.000000
vt 0.887500 1.000000
vt 0.868750 1.000000
vt 0.887500 0.000000
vt 0.906250 0.000000
vt 0.906250 1.000000
vt 0.887500 1.000000
vt 0.906250 0.000000
vt 0.925000 0.000000
vt 0.925000 1.000000
vt 0.906250 1.000000
vt 0.925000 0.000000
vt 0.943750 0.000000
vt 0.943750 1.000000
vt 0.925000 1.000000
vt 0.943750 0.000000
vt 0.962500 0.000000
vt 0.962500 1.000000
vt 0.943750 1.000000
vt 0.962500 0.000000
vt 0.981250 0.000000
vt 0.981250 1.000000
vt 0.962500 1.000000
vt 0.981250 0.000000
vt 1.000000 0.000000
vt 1.000000 1.000000
vt 0.981250 1.000000
vt 0.000000 0.950000
vt 1.000000 0.950000
vt 1.000000 1.000000
vt 0.000000 1.000000
vt 0.000000 0.000000
vt 1.000000 0.000000
vt 1.000000 0.050000
vt 0.000000 0.050000
vt 0.000000 0.000000
vt 1.000000 0.000000
vt 1.000000 1.000000
vt 0.000000 1.000000
vn 0.000000 0.000000 1.000000
vn -1.000000 0.000000 0.000000
vn -0.980785 0.000000 0.195090
vn -0.980785 0.000000 0.195090
vn -0.923880 0.000000 0.382683
vn -0.923880 0.000000 0.382683
vn -0.831470 0.000000 0.555570
vn -0.831470 0.000000 0.555570
vn -0.707107 0.000000 0.707107
vn -0.707107 0.000000 0.707107
vn -0.555570 0.000000 0.831470
vn -0.555570 0.000000 0.831470
vn -0.382683 0.000000 0.923880
vn -0.382683 0.000000 0.923880
vn -0.195090 0.000000 0.980785
vn -0.195090 0.000000 0.980785
vn -0.000000 0.000000 1.000000
vn 0.000000 0.000000 1.000000
vn 0.195090 0.000000 0.980785
vn 0.195090 0.000000 0.980785
vn 0.382683 0.000000 0.923880
vn 0.382683 0.000000 0.923880
vn 0.555570 0.000000 0.831470
vn 0.555570 0.000000 0.831470
vn 0.707107 0.000000 0.707107
vn 0.707107 0.000000 0.707107
vn 0.831470 0.000000 0.555570
vn 0.831470 0.000000 0.555570
vn 0.923880 0.000000 0.382683
vn 0.923880 0.000000 0.382683
vn 0.980785 0.000000 0.195090
vn 0.980785 0.000000 0.195090
vn 1.000000 0.000000 0.000000
vn 0.000000 1.000000 0.000000
vn 0.000000 -1.000000 0.000000
vn 0.000000 0.000000 -1.000000
f 1/1/1 2/2/1 3/3/1
f 1/1/1 3/3/1 4/4/1
f 5/5/2 7/6/3 8/7/3
f 5/5/2 8/7/3 6/8/2
f 7/9/4 9/10/5 10/11/5
f 7/9/4 10/11/5 8/12/4
f 9/13/6 11/14/7 12/15/7
f 9/13/6 12/15/7 10/16/6
f 11/17/8 13/18/9 14/19/9
f 11/17/8 14/19/9 12/20/8
f 13/21/10 15/22/11 16/23/11
f 13/21/10 16/23/11 14/24/10
f 15/25/12 17/26/13 18/27/13
f 15/25/12 18/27/13 16/28/12
f 17/29/14 19/30/15 20/31/15
f 17/29/14 20/31/15 18/32/14
f 19/33/16 21/34/17 22/35/17
f 19/33/16 22/35/17 20/36/16
f 23/37/18 25/38/19 26/39/19
f 23/37/18 26/39/19 24/40/18
f 25/41/20 27/42/21 28/43/21
f 25/41/20 28/43/21 26/44/20
f 27/45/22 29/46/23 30/47/23
f 27/45/22 30/47/23 28/48/22
f 29/49/24 31/50/25 32/51/25
f 29/49/24 32/51/25 30/52/24
f 31/53/26 33/54/27 34/55/27
f 31/53/26 34/55/27 32/56/26
f 33/57/28 35/58/29 36/59/29
f 33/57/28 36/59/29 34/60/28
f 35/61/30 37/62/31 38/63/31
f 35/61/30 38/63/31 36/64/30
f 37/65/32 39/66/33 40/67/33
f 37/65/32 40/67/33 38/68/32
f 41/69/34 42/70/34 43/71/34
f 41/69/34 43/71/34 44/72/34
f 45/73/35 46/74/35 47/75/35
f 45/73/35 47/75/35 48/76/35
f 49/77/36 50/78/36 51/79/36
f 49/77/36 51/79/36 52/80/36
