# Wavefront OBJ: SM_IceScoop
o SM_IceScoop
v -0.032500 0.000000 -0.060000
v -0.032500 0.000000 0.060000
v -0.032500 0.004000 -0.060000
v -0.032500 0.004000 0.060000
v 0.032500 0.000000 -0.060000
v 0.032500 0.000000 0.060000
v 0.032500 0.004000 -0.060000
v 0.032500 0.004000 0.060000
v -0.032500 0.004000 -0.060000
v -0.032500 0.004000 0.060000
v -0.032500 0.045000 -0.060000
v -0.032500 0.045000 0.060000
v -0.028500 0.004000 -0.060000
v -0.028500 0.004000 0.060000
v -0.028500 0.045000 -0.060000
v -0.028500 0.045000 0.060000
v 0.028500 0.004000 -0.060000
v 0.028500 0.004000 0.060000
v 0.028500 0.045000 -0.060000
v 0.028500 0.045000 0.060000
v 0.032500 0.004000 -0.060000
v 0.032500 0.004000 0.060000
v 0.032500 0.045000 -0.060000
v 0.032500 0.045000 0.060000
v -0.032500 0.004000 -0.060000
v -0.032500 0.004000 -0.056000
v -0.032500 0.045000 -0.060000
v -0.032500 0.045000 -0.056000
v 0.032500 0.004000 -0.060000
v 0.032500 0.004000 -0.056000
v 0.032500 0.045000 -0.060000
v 0.032500 0.045000 -0.056000
v -0.011000 0.031500 -0.060000
v -0.011000 0.038250 -0.155000
v -0.009526 0.036986 -0.059610
v -0.009526 0.043736 -0.154610
v -0.005500 0.041002 -0.059325
v -0.005500 0.047752 -0.154325
v -0.000000 0.042472 -0.059220
v -0.000000 0.049222 -0.154220
v 0.005500 0.041002 -0.059325
v 0.005500 0.047752 -0.154325
v 0.009526 0.036986 -0.059610
v 0.009526 0.043736 -0.154610
v 0.011000 0.031500 -0.060000
v 0.011000 0.038250 -0.155000
v 0.009526 0.026014 -0.060390
v 0.009526 0.032764 -0.155390
v 0.005500 0.021998 -0.060675
v 0.005500 0.028748 -0.155675
v 0.000000 0.020528 -0.060780
v 0.000000 0.027278 -0.155780
v -0.005500 0.021998 -0.060675
v -0.005500 0.028748 -0.155675
v -0.009526 0.026014 -0.060390
v -0.009526 0.032764 -0.155390
vt 0.000000 0.000000
vt 0.065000 0.000000
vt 0.065000 0.004000
vt 0.000000 0.004000
vt 0.000000 0.000000
vt 0.065000 0.000000
vt 0.065000 0.004000
vt 0.000000 0.004000
vt 0.000000 0.000000
vt 0.065000 0.000000
vt 0.065000 0.120000
vt 0.000000 0.120000
vt 0.000000 0.000000
vt 0.065000 0.000000
vt 0.065000 0.120000
vt 0.000000 0.120000
vt 0.000000 0.000000
vt 0.120000 0.000000
vt 0.120000 0.004000
vt 0.000000 0.004000
vt 0.000000 0.000000
vt 0.120000 0.000000
vt 0.120000 0.004000
vt 0.000000 0.004000
vt 0.000000 0.000000
vt 0.004000 0.000000
vt 0.004000 0.041000
vt 0.000000 0.041000
vt 0.000000 0.000000
vt 0.004000 0.000000
vt 0.004000 0.041000
vt 0.000000 0.041000
vt 0.000000 0.000000
vt 0.004000 0.000000
vt 0.004000 0.120000
vt 0.000000 0.120000
vt 0.000000 0.000000
vt 0.004000 0.000000
vt 0.004000 0.120000
vt 0.000000 0.120000
vt 0.000000 0.000000
vt 0.120000 0.000000
vt 0.120000 0.041000
vt 0.000000 0.041000
vt 0.000000 0.000000
vt 0.120000 0.000000
vt 0.120000 0.041000
vt 0.000000 0.041000
vt 0.000000 0.000000
vt 0.004000 0.000000
vt 0.004000 0.041000
vt 0.000000 0.041000
vt 0.000000 0.000000
vt 0.004000 0.000000
vt 0.004000 0.041000
vt 0.000000 0.041000
vt 0.000000 0.000000
vt 0.004000 0.000000
vt 0.004000 0.120000
vt 0.000000 0.120000
vt 0.000000 0.000000
vt 0.004000 0.000000
vt 0.004000 0.120000
vt 0.000000 0.120000
vt 0.000000 0.000000
vt 0.120000 0.000000
vt 0.120000 0.041000
vt 0.000000 0.041000
vt 0.000000 0.000000
vt 0.120000 0.000000
vt 0.120000 0.041000
vt 0.000000 0.041000
vt 0.000000 0.000000
vt 0.065000 0.000000
vt 0.065000 0.041000
vt 0.000000 0.041000
vt 0.000000 0.000000
vt 0.065000 0.000000
vt 0.065000 0.041000
vt 0.000000 0.041000
vt 0.000000 0.000000
vt 0.065000 0.000000
vt 0.065000 0.004000
vt 0.000000 0.004000
vt 0.000000 0.000000
vt 0.065000 0.000000
vt 0.065000 0.004000
vt 0.000000 0.004000
vt 0.000000 0.000000
vt 0.004000 0.000000
vt 0.004000 0.041000
vt 0.000000 0.041000
vt 0.000000 0.000000
vt 0.004000 0.000000
vt 0.004000 0.041000
vt 0.000000 0.041000
vt 0.000000 0.000000
vt 0.083333 0.000000
vt 0.083333 0.095240
vt 0.000000 0.095240
vt 0.083333 0.000000
vt 0.166667 0.000000
vt 0.166667 0.095240
vt 0.083333 0.095240
vt 0.166667 0.000000
vt 0.250000 0.000000
vt 0.250000 0.095240
vt 0.166667 0.095240
vt 0.250000 0.000000
vt 0.333333 0.000000
vt 0.333333 0.095240
vt 0.250000 0.095240
vt 0.333333 0.000000
vt 0.416667 0.000000
vt 0.416667 0.095240
vt 0.333333 0.095240
vt 0.416667 0.000000
vt 0.500000 0.000000
vt 0.500000 0.095240
vt 0.416667 0.095240
vt 0.500000 0.000000
vt 0.583333 0.000000
vt 0.583333 0.095240
vt 0.500000 0.095240
vt 0.583333 0.000000
vt 0.666667 0.000000
vt 0.666667 0.095240
vt 0.583333 0.095240
vt 0.666667 0.000000
vt 0.750000 0.000000
vt 0.750000 0.095240
vt 0.666667 0.095240
vt 0.750000 0.000000
vt 0.833333 0.000000
vt 0.833333 0.095240
vt 0.750000 0.095240
vt 0.833333 0.000000
vt 0.916667 0.000000
vt 0.916667 0.095240
vt 0.833333 0.095240
vt 0.916667 0.000000
vt 1.000000 0.000000
vt 1.000000 0.095240
vt 0.916667 0.095240
vn 0.000000 0.000000 1.000000
vn 0.000000 0.000000 -1.000000
vn 0.000000 1.000000 0.000000
vn 0.000000 -1.000000 0.000000
vn 1.000000 0.000000 0.000000
vn -1.000000 0.000000 0.000000
vn 0.000000 0.000000 1.000000
vn 0.000000 0.000000 -1.000000
vn 0.000000 1.000000 0.000000
vn 0.000000 -1.000000 0.000000
vn 1.000000 0.000000 0.000000
vn -1.000000 0.000000 0.000000
vn 0.000000 0.000000 1.000000
vn 0.000000 0.000000 -1.000000
vn 0.000000 1.000000 0.000000
vn 0.000000 -1.000000 0.000000
vn 1.000000 0.000000 0.000000
vn -1.000000 0.000000 0.000000
vn 0.000000 0.000000 1.000000
vn 0.000000 0.000000 -1.000000
vn 0.000000 1.000000 0.000000
vn 0.000000 -1.000000 0.000000
vn 1.000000 0.000000 0.000000
vn -1.000000 0.000000 0.000000
vn -1.000000 0.000000 0.000000
vn -0.866025 0.498743 0.035437
vn -0.866025 0.498743 0.035437
vn -0.500000 0.863848 0.061379
vn -0.500000 0.863848 0.061379
vn -0.000000 0.997485 0.070874
vn -0.000000 0.997485 0.070874
vn 0.500000 0.863848 0.061379
vn 0.500000 0.863848 0.061379
vn 0.866025 0.498743 0.035437
vn 0.866025 0.498743 0.035437
vn 1.000000 0.000000 0.000000
vn 1.000000 0.000000 0.000000
vn 0.866025 -0.498743 -0.035437
vn 0.866025 -0.498743 -0.035437
vn 0.500000 -0.863848 -0.061379
vn 0.500000 -0.863848 -0.061379
vn 0.000000 -0.997485 -0.070874
vn 0.000000 -0.997485 -0.070874
vn -0.500000 -0.863848 -0.061379
vn -0.500000 -0.863848 -0.061379
vn -0.866025 -0.498743 -0.035437
vn -0.866025 -0.498743 -0.035437
vn -1.000000 0.000000 0.000000
s 1
f 2/1/1 6/2/1 8/3/1
f 2/1/1 8/3/1 4/4/1
f 5/5/2 1/6/2 3/7/2
f 5/5/2 3/7/2 7/8/2
f 4/9/3 8/10/3 7/11/3
f 4/9/3 7/11/3 3/12/3
f 1/13/4 5/14/4 6/15/4
f 1/13/4 6/15/4 2/16/4
f 6/17/5 5/18/5 7/19/5
f 6/17/5 7/19/5 8/20/5
f 1/21/6 2/22/6 4/23/6
f 1/21/6 4/23/6 3/24/6
f 10/25/7 14/26/7 16/27/7
f 10/25/7 16/27/7 12/28/7
f 13/29/8 9/30/8 11/31/8
f 13/29/8 11/31/8 15/32/8
f 12/33/9 16/34/9 15/35/9
f 12/33/9 15/35/9 11/36/9
f 9/37/10 13/38/10 14/39/10
f 9/37/10 14/39/10 10/40/10
f 14/41/11 13/42/11 15/43/11
f 14/41/11 15/43/11 16/44/11
f 9/45/12 10/46/12 12/47/12
f 9/45/12 12/47/12 11/48/12
f 18/49/13 22/50/13 24/51/13
f 18/49/13 24/51/13 20/52/13
f 21/53/14 17/54/14 19/55/14
f 21/53/14 19/55/14 23/56/14
f 20/57/15 24/58/15 23/59/15
f 20/57/15 23/59/15 19/60/15
f 17/61/16 21/62/16 22/63/16
f 17/61/16 22/63/16 18/64/16
f 22/65/17 21/66/17 23/67/17
f 22/65/17 23/67/17 24/68/17
f 17/69/18 18/70/18 20/71/18
f 17/69/18 20/71/18 19/72/18
f 26/73/19 30/74/19 32/75/19
f 26/73/19 32/75/19 28/76/19
f 29/77/20 25/78/20 27/79/20
f 29/77/20 27/79/20 31/80/20
f 28/81/21 32/82/21 31/83/21
f 28/81/21 31/83/21 27/84/21
f 25/85/22 29/86/22 30/87/22
f 25/85/22 30/87/22 26/88/22
f 30/89/23 29/90/23 31/91/23
f 30/89/23 31/91/23 32/92/23
f 25/93/24 26/94/24 28/95/24
f 25/93/24 28/95/24 27/96/24
f 33/97/25 35/98/26 36/99/26
f 33/97/25 36/99/26 34/100/25
f 35/101/27 37/102/28 38/103/28
f 35/101/27 38/103/28 36/104/27
f 37/105/29 39/106/30 40/107/30
f 37/105/29 40/107/30 38/108/29
f 39/109/31 41/110/32 42/111/32
f 39/109/31 42/111/32 40/112/31
f 41/113/33 43/114/34 44/115/34
f 41/113/33 44/115/34 42/116/33
f 43/117/35 45/118/36 46/119/36
f 43/117/35 46/119/36 44/120/35
f 45/121/37 47/122/38 48/123/38
f 45/121/37 48/123/38 46/124/37
f 47/125/39 49/126/40 50/127/40
f 47/125/39 50/127/40 48/128/39
f 49/129/41 51/130/42 52/131/42
f 49/129/41 52/131/42 50/132/41
f 51/133/43 53/134/44 54/135/44
f 51/133/43 54/135/44 52/136/43
f 53/137/45 55/138/46 56/139/46
f 53/137/45 56/139/46 54/140/45
f 55/141/47 33/142/48 34/143/48
f 55/141/47 34/143/48 56/144/47
