# Wavefront OBJ: SM_Menu_Board
o SM_Menu_Board
v -0.115500 0.000000 -0.045000
v -0.115500 0.000000 0.045000
v -0.115500 0.016000 -0.045000
v -0.115500 0.016000 0.045000
v 0.115500 0.000000 -0.045000
v 0.115500 0.000000 0.045000
v 0.115500 0.016000 -0.045000
v 0.115500 0.016000 0.045000
v -0.105000 0.012000 0.008000
v 0.105000 0.012000 0.008000
v 0.105000 0.304488 0.059574
v -0.105000 0.304488 0.059574
v -0.105000 0.012000 0.012000
v 0.105000 0.012000 0.012000
v 0.105000 0.304488 0.063574
v -0.105000 0.304488 0.063574
vt 0.000000 0.000000
vt 0.231000 0.000000
vt 0.231000 0.016000
vt 0.000000 0.016000
vt 0.000000 0.000000
vt 0.231000 0.000000
vt 0.231000 0.016000
vt 0.000000 0.016000
vt 0.000000 0.000000
vt 0.231000 0.000000
vt 0.231000 0.090000
vt 0.000000 0.090000
vt 0.000000 0.000000
vt 0.231000 0.000000
vt 0.231000 0.090000
vt 0.000000 0.090000
vt 0.000000 0.000000
vt 0.090000 0.000000
vt 0.090000 0.016000
vt 0.000000 0.016000
vt 0.000000 0.000000
vt 0.090000 0.000000
vt 0.090000 0.016000
vt 0.000000 0.016000
vt 1.000000 0.000000
vt 1.000000 1.000000
vt 0.000000 1.000000
vt 0.000000 0.000000
vt 1.000000 0.000000
vt 0.000000 0.000000
vt 0.000000 1.000000
vt 1.000000 1.000000
vn 0.000000 0.000000 1.000000
vn 0.000000 0.000000 -1.000000
vn 0.000000 1.000000 0.000000
vn 0.000000 -1.000000 0.000000
vn 1.000000 0.000000 0.000000
vn -1.000000 0.000000 0.000000
vn 0.000000 0.173648 -0.984808
vn 0.000000 -0.173648 0.984808
s 1
f 2/1/1 6/2/1 8/3/1
f 2/1/1 8/3/1 4/4/1
f 5/5/2 1/6/2 3/7/2
f 5/5/2 3/7/2 7/8/2
f 4/9/3 8/10/3 7/11/3
f 4/9/3 7/11/3 3/12/3
f 1/13/4 5/14/4 6/15/4
f 1/13/4 6/15/4 2/16/4
f 6/17/5 5/18/5 7/19/5
f 6/17/5 7/19/5 8/20/5
f 1/21/6 2/22/6 4/23/6
f 1/21/6 4/23/6 3/24/6
f 9/25/7 12/26/7 11/27/7
f 9/25/7 11/27/7 10/28/7
f 13/29/8 14/30/8 15/31/8
f 13/29/8 15/31/8 16/32/8
