# Wavefront OBJ: SM_RedTeaRack
o SM_RedTeaRack
v -0.160000 0.000000 -0.110000
v -0.160000 0.000000 0.110000
v -0.160000 0.012000 -0.110000
v -0.160000 0.012000 0.110000
v 0.160000 0.000000 -0.110000
v 0.160000 0.000000 0.110000
v 0.160000 0.012000 -0.110000
v 0.160000 0.012000 0.110000
v -0.160000 0.012000 -0.110000
v -0.160000 0.012000 -0.098000
v -0.160000 0.126000 -0.110000
v -0.160000 0.126000 -0.098000
v 0.160000 0.012000 -0.110000
v 0.160000 0.012000 -0.098000
v 0.160000 0.126000 -0.110000
v 0.160000 0.126000 -0.098000
v -0.160000 0.012000 0.098000
v -0.160000 0.012000 0.110000
v -0.160000 0.280000 0.098000
v -0.160000 0.280000 0.110000
v 0.160000 0.012000 0.098000
v 0.160000 0.012000 0.110000
v 0.160000 0.280000 0.098000
v 0.160000 0.280000 0.110000
v -0.160000 0.012000 -0.098000
v -0.160000 0.012000 0.098000
v -0.160000 0.238000 -0.098000
v -0.160000 0.238000 0.098000
v -0.148000 0.012000 -0.098000
v -0.148000 0.012000 0.098000
v -0.148000 0.238000 -0.098000
v -0.148000 0.238000 0.098000
v 0.148000 0.012000 -0.098000
v 0.148000 0.012000 0.098000
v 0.148000 0.238000 -0.098000
v 0.148000 0.238000 0.098000
v 0.160000 0.012000 -0.098000
v 0.160000 0.012000 0.098000
v 0.160000 0.238000 -0.098000
v 0.160000 0.238000 0.098000
v -0.006000 0.012000 -0.098000
v -0.006000 0.012000 0.098000
v -0.006000 0.182000 -0.098000
v -0.006000 0.182000 0.098000
v 0.006000 0.012000 -0.098000
v 0.006000 0.012000 0.098000
v 0.006000 0.182000 -0.098000
v 0.006000 0.182000 0.098000
v -0.148000 0.229600 -0.008000
v 0.148000 0.229600 -0.008000
v -0.148000 0.234302 -0.006472
v 0.148000 0.234302 -0.006472
v -0.148000 0.237208 -0.002472
v 0.148000 0.237208 -0.002472
v -0.148000 0.237208 0.002472
v 0.148000 0.237208 0.002472
v -0.148000 0.234302 0.006472
v 0.148000 0.234302 0.006472
v -0.148000 0.229600 0.008000
v 0.148000 0.229600 0.008000
v -0.148000 0.224898 0.006472
v 0.148000 0.224898 0.006472
v -0.148000 0.221992 0.002472
v 0.148000 0.221992 0.002472
v -0.148000 0.221992 -0.002472
v 0.148000 0.221992 -0.002472
v -0.148000 0.224898 -0.006472
v 0.148000 0.224898 -0.006472
vt 0.000000 0.000000
vt 0.320000 0.000000
vt 0.320000 0.012000
vt 0.000000 0.012000
vt 0.000000 0.000000
vt 0.320000 0.000000
vt 0.320000 0.012000
vt 0.000000 0.012000
vt 0.000000 0.000000
vt 0.320000 0.000000
vt 0.320000 0.220000
vt 0.000000 0.220000
vt 0.000000 0.000000
vt 0.320000 0.000000
vt 0.320000 0.220000
vt 0.000000 0.220000
vt 0.000000 0.000000
vt 0.220000 0.000000
vt 0.220000 0.012000
vt 0.000000 0.012000
vt 0.000000 0.000000
vt 0.220000 0.000000
vt 0.220000 0.012000
vt 0.000000 0.012000
vt 0.000000 0.000000
vt 0.320000 0.000000
vt 0.320000 0.114000
vt 0.000000 0.114000
vt 0.000000 0.000000
vt 0.320000 0.000000
vt 0.320000 0.114000
vt 0.000000 0.114000
vt 0.000000 0.000000
vt 0.320000 0.000000
vt 0.320000 0.012000
vt 0.000000 0.012000
vt 0.000000 0.000000
vt 0.320000 0.000000
vt 0.320000 0.012000
vt 0.000000 0.012000
vt 0.000000 0.000000
vt 0.012000 0.000000
vt 0.012000 0.114000
vt 0.000000 0.114000
vt 0.000000 0.000000
vt 0.012000 0.000000
vt 0.012000 0.114000
vt 0.000000 0.114000
vt 0.000000 0.000000
vt 0.320000 0.000000
vt 0.320000 0.268000
vt 0.000000 0.268000
vt 0.000000 0.000000
vt 0.320000 0.000000
vt 0.320000 0.268000
vt 0.000000 0.268000
vt 0.000000 0.000000
vt 0.320000 0.000000
vt 0.320000 0.012000
vt 0.000000 0.012000
vt 0.000000 0.000000
vt 0.320000 0.000000
vt 0.320000 0.012000
vt 0.000000 0.012000
vt 0.000000 0.000000
vt 0.012000 0.000000
vt 0.012000 0.268000
vt 0.000000 0.268000
vt 0.000000 0.000000
vt 0.012000 0.000000
vt 0.012000 0.268000
vt 0.000000 0.268000
vt 0.000000 0.000000
vt 0.012000 0.000000
vt 0.012000 0.226000
vt 0.000000 0.226000
vt 0.000000 0.000000
vt 0.012000 0.000000
vt 0.012000 0.226000
vt 0.000000 0.226000
vt 0.000000 0.000000
vt 0.012000 0.000000
vt 0.012000 0.196000
vt 0.000000 0.196000
vt 0.000000 0.000000
vt 0.012000 0.000000
vt 0.012000 0.196000
vt 0.000000 0.196000
vt 0.000000 0.000000
vt 0.196000 0.000000
vt 0.196000 0.226000
vt 0.000000 0.226000
vt 0.000000 0.000000
vt 0.196000 0.000000
vt 0.196000 0.226000
vt 0.000000 0.226000
vt 0.000000 0.000000
vt 0.012000 0.000000
vt 0.012000 0.226000
vt 0.000000 0.226000
vt 0.000000 0.000000
vt 0.012000 0.000000
vt 0.012000 0.226000
vt 0.000000 0.226000
vt 0.000000 0.000000
vt 0.012000 0.000000
vt 0.012000 0.196000
vt 0.000000 0.196000
vt 0.000000 0.000000
vt 0.012000 0.000000
vt 0.012000 0.196000
vt 0.000000 0.196000
vt 0.000000 0.000000
vt 0.196000 0.000000
vt 0.196000 0.226000
vt 0.000000 0.226000
vt 0.000000 0.000000
vt 0.196000 0.000000
vt 0.196000 0.226000
vt 0.000000 0.226000
vt 0.000000 0.000000
vt 0.012000 0.000000
vt 0.012000 0.170000
vt 0.000000 0.170000
vt 0.000000 0.000000
vt 0.012000 0.000000
vt 0.012000 0.170000
vt 0.000000 0.170000
vt 0.000000 0.000000
vt 0.012000 0.000000
vt 0.012000 0.196000
vt 0.000000 0.196000
vt 0.000000 0.000000
vt 0.012000 0.000000
vt 0.012000 0.196000
vt 0.000000 0.196000
vt 0.000000 0.000000
vt 0.196000 0.000000
vt 0.196000 0.170000
vt 0.000000 0.170000
vt 0.000000 0.000000
vt 0.196000 0.000000
vt 0.196000 0.170000
vt 0.000000 0.170000
vt 0.000000 0.000000
vt 0.100000 0.000000
vt 0.100000 0.296000
vt 0.000000 0.296000
vt 0.100000 0.000000
vt 0.200000 0.000000
vt 0.200000 0.296000
vt 0.100000 0.296000
vt 0.200000 0.000000
vt 0.300000 0.000000
vt 0.300000 0.296000
vt 0.200000 0.296000
vt 0.300000 0.000000
vt 0.400000 0.000000
vt 0.400000 0.296000
vt 0.300000 0.296000
vt 0.400000 0.000000
vt 0.500000 0.000000
vt 0.500000 0.296000
vt 0.400000 0.296000
vt 0.500000 0.000000
vt 0.600000 0.000000
vt 0.600000 0.296000
vt 0.500000 0.296000
vt 0.600000 0.000000
vt 0.700000 0.000000
vt 0.700000 0.296000
vt 0.600000 0.296000
vt 0.700000 0.000000
vt 0.800000 0.000000
vt 0.800000 0.296000
vt 0.700000 0.296000
vt 0.800000 0.000000
vt 0.900000 0.000000
vt 0.900000 0.296000
vt 0.800000 0.296000
vt 0.900000 0.000000
vt 1.000000 0.000000
vt 1.000000 0.296000
vt 0.900000 0.296000
vn 0.000000 0.000000 1.000000
vn 0.000000 0.000000 -1.000000
vn 0.000000 1.000000 0.000000
vn 0.000000 -1.000000 0.000000
vn 1.000000 0.000000 0.000000
vn -1.000000 0.000000 0.000000
vn 0.000000 0.000000 1.000000
vn 0.000000 0.000000 -1.000000
vn 0.000000 1.000000 0.000000
vn 0.000000 -1.000000 0.000000
vn 1.000000 0.000000 0.000000
vn -1.000000 0.000000 0.000000
vn 0.000000 0.000000 1.000000
vn 0.000000 0.000000 -1.000000
vn 0.000000 1.000000 0.000000
vn 0.000000 -1.000000 0.000000
vn 1.000000 0.000000 0.000000
vn -1.000000 0.000000 0.000000
vn 0.000000 0.000000 1.000000
vn 0.000000 0.000000 -1.000000
vn 0.000000 1.000000 0.000000
vn 0.000000 -1.000000 0.000000
vn 1.000000 0.000000 0.000000
vn -1.000000 0.000000 0.000000
vn 0.000000 0.000000 1.000000
vn 0.000000 0.000000 -1.000000
vn 0.000000 1.000000 0.000000
vn 0.000000 -1.000000 0.000000
vn 1.000000 0.000000 0.000000
vn -1.000000 0.000000 0.000000
vn 0.000000 0.000000 1.000000
vn 0.000000 0.000000 -1.000000
vn 0.000000 1.000000 0.000000
vn 0.000000 -1.000000 0.000000
vn 1.000000 0.000000 0.000000
vn -1.000000 0.000000 0.000000
vn 0.000000 0.000000 -1.000000
vn 0.000000 0.587785 -0.809017
vn 0.000000 0.587785 -0.809017
vn 0.000000 0.951057 -0.309017
vn 0.000000 0.951057 -0.309017
vn -0.000000 0.951057 0.309017
vn -0.000000 0.951057 0.309017
vn -0.000000 0.587785 0.809017
vn -0.000000 0.587785 0.809017
vn -0.000000 0.000000 1.000000
vn -0.000000 0.000000 1.000000
vn 0.000000 -0.587785 0.809017
vn 0.000000 -0.587785 0.809017
vn 0.000000 -0.951057 0.309017
vn 0.000000 -0.951057 0.309017
vn 0.000000 -0.951057 -0.309017
vn 0.000000 -0.951057 -0.309017
vn 0.000000 -0.587785 -0.809017
vn 0.000000 -0.587785 -0.809017
vn 0.000000 0.000000 -1.000000
s 1
f 2/1/1 6/2/1 8/3/1
f 2/1/1 8/3/1 4/4/1
f 5/5/2 1/6/2 3/7/2
f 5/5/2 3/7/2 7/8/2
f 4/9/3 8/10/3 7/11/3
f 4/9/3 7/11/3 3/12/3
f 1/13/4 5/14/4 6/15/4
f 1/13/4 6/15/4 2/16/4
f 6/17/5 5/18/5 7/19/5
f 6/17/5 7/19/5 8/20/5
f 1/21/6 2/22/6 4/23/6
f 1/21/6 4/23/6 3/24/6
f 10/25/7 14/26/7 16/27/7
f 10/25/7 16/27/7 12/28/7
f 13/29/8 9/30/8 11/31/8
f 13/29/8 11/31/8 15/32/8
f 12/33/9 16/34/9 15/35/9
f 12/33/9 15/35/9 11/36/9
f 9/37/10 13/38/10 14/39/10
f 9/37/10 14/39/10 10/40/10
f 14/41/11 13/42/11 15/43/11
f 14/41/11 15/43/11 16/44/11
f 9/45/12 10/46/12 12/47/12
f 9/45/12 12/47/12 11/48/12
f 18/49/13 22/50/13 24/51/13
f 18/49/13 24/51/13 20/52/13
f 21/53/14 17/54/14 19/55/14
f 21/53/14 19/55/14 23/56/14
f 20/57/15 24/58/15 23/59/15
f 20/57/15 23/59/15 19/60/15
f 17/61/16 21/62/16 22/63/16
f 17/61/16 22/63/16 18/64/16
f 22/65/17 21/66/17 23/67/17
f 22/65/17 23/67/17 24/68/17
f 17/69/18 18/70/18 20/71/18
f 17/69/18 20/71/18 19/72/18
f 26/73/19 30/74/19 32/75/19
f 26/73/19 32/75/19 28/76/19
f 29/77/20 25/78/20 27/79/20
f 29/77/20 27/79/20 31/80/20
f 28/81/21 32/82/21 31/83/21
f 28/81/21 31/83/21 27/84/21
f 25/85/22 29/86/22 30/87/22
f 25/85/22 30/87/22 26/88/22
f 30/89/23 29/90/23 31/91/23
f 30/89/23 31/91/23 32/92/23
f 25/93/24 26/94/24 28/95/24
f 25/93/24 28/95/24 27/96/24
f 34/97/25 38/98/25 40/99/25
f 34/97/25 40/99/25 36/100/25
f 37/101/26 33/102/26 35/103/26
f 37/101/26 35/103/26 39/104/26
f 36/105/27 40/106/27 39/107/27
f 36/105/27 39/107/27 35/108/27
f 33/109/28 37/110/28 38/111/28
f 33/109/28 38/111/28 34/112/28
f 38/113/29 37/114/29 39/115/29
f 38/113/29 39/115/29 40/116/29
f 33/117/30 34/118/30 36/119/30
f 33/117/30 36/119/30 35/120/30
f 42/121/31 46/122/31 48/123/31
f 42/121/31 48/123/31 44/124/31
f 45/125/32 41/126/32 43/127/32
f 45/125/32 43/127/32 47/128/32
f 44/129/33 48/130/33 47/131/33
f 44/129/33 47/131/33 43/132/33
f 41/133/34 45/134/34 46/135/34
f 41/133/34 46/135/34 42/136/34
f 46/137/35 45/138/35 47/139/35
f 46/137/35 47/139/35 48/140/35
f 41/141/36 42/142/36 44/143/36
f 41/141/36 44/143/36 43/144/36
f 49/145/37 51/146/38 52/147/38
f 49/145/37 52/147/38 50/148/37
f 51/149/39 53/150/40 54/151/40
f 51/149/39 54/151/40 52/152/39
f 53/153/41 55/154/42 56/155/42
f 53/153/41 56/155/42 54/156/41
f 55/157/43 57/158/44 58/159/44
f 55/157/43 58/159/44 56/160/43
f 57/161/45 59/162/46 60/163/46
f 57/161/45 60/163/46 58/164/45
f 59/165/47 61/166/48 62/167/48
f 59/165/47 62/167/48 60/168/47
f 61/169/49 63/170/50 64/171/50
f 61/169/49 64/171/50 62/172/49
f 63/173/51 65/174/52 66/175/52
f 63/173/51 66/175/52 64/176/51
f 65/177/53 67/178/54 68/179/54
f 65/177/53 68/179/54 66/180/53
f 67/181/55 49/182/56 50/183/56
f 67/181/55 50/183/56 68/184/55
