# Wavefront OBJ: SM_TeaBag_Pouch_Open
o SM_TeaBag_Pouch_Open
v -0.070000 0.000000 -0.000000
v -0.057273 0.000000 -0.015524
v -0.044545 0.000000 -0.020828
v -0.031818 0.000000 -0.024050
v -0.019091 0.000000 -0.025976
v -0.006364 0.000000 -0.026888
v 0.006364 0.000000 -0.026888
v 0.019091 0.000000 -0.025976
v 0.031818 0.000000 -0.024050
v 0.044545 0.000000 -0.020828
v 0.057273 0.000000 -0.015524
v 0.070000 0.000000 -0.000000
v -0.070000 0.050000 -0.000000
v -0.057273 0.050000 -0.017249
v -0.044545 0.050000 -0.023142
v -0.031818 0.050000 -0.026722
v -0.019091 0.050000 -0.028863
v -0.006364 0.050000 -0.029876
v 0.006364 0.050000 -0.029876
v 0.019091 0.050000 -0.028863
v 0.031818 0.050000 -0.026722
v 0.044545 0.050000 -0.023142
v 0.057273 0.050000 -0.017249
v 0.070000 0.050000 -0.000000
v -0.070000 0.120000 -0.000000
v -0.057273 0.120000 -0.012074
v -0.044545 0.120000 -0.016199
v -0.031818 0.120000 -0.018705
v -0.019091 0.120000 -0.020204
v -0.006364 0.120000 -0.020913
v 0.006364 0.120000 -0.020913
v 0.019091 0.120000 -0.020204
v 0.031818 0.120000 -0.018705
v 0.044545 0.120000 -0.016199
v 0.057273 0.120000 -0.012074
v 0.070000 0.120000 -0.000000
v -0.070000 0.170000 -0.000000
v -0.057273 0.170000 -0.014374
v -0.044545 0.170000 -0.019285
v -0.031818 0.170000 -0.022268
v -0.019091 0.170000 -0.024052
v -0.006364 0.170000 -0.024896
v 0.006364 0.170000 -0.024896
v 0.019091 0.170000 -0.024052
v 0.031818 0.170000 -0.022268
v 0.044545 0.170000 -0.019285
v 0.057273 0.170000 -0.014374
v 0.070000 0.170000 -0.000000
v -0.070000 0.185000 -0.000000
v -0.057273 0.185000 -0.020124
v -0.044545 0.185000 -0.026999
v -0.031818 0.185000 -0.031175
v -0.019091 0.185000 -0.033673
v -0.006364 0.185000 -0.034855
v 0.006364 0.185000 -0.034855
v 0.019091 0.185000 -0.033673
v 0.031818 0.185000 -0.031175
v 0.044545 0.185000 -0.026999
v 0.057273 0.185000 -0.020124
v 0.070000 0.185000 -0.000000
v -0.070000 0.220000 -0.000000
v -0.057273 0.220000 -0.022998
v -0.044545 0.220000 -0.030856
v -0.031818 0.220000 -0.035629
v -0.019091 0.220000 -0.038484
v -0.006364 0.220000 -0.039834
v 0.006364 0.220000 -0.039834
v 0.019091 0.220000 -0.038484
v 0.031818 0.220000 -0.035629
v 0.044545 0.220000 -0.030856
v 0.057273 0.220000 -0.022998
v 0.070000 0.220000 -0.000000
v -0.070000 0.000000 0.000000
v -0.057273 0.000000 0.015524
v -0.044545 0.000000 0.020828
v -0.031818 0.000000 0.024050
v -0.019091 0.000000 0.025976
v -0.006364 0.000000 0.026888
v 0.006364 0.000000 0.026888
v 0.019091 0.000000 0.025976
v 0.031818 0.000000 0.024050
v 0.044545 0.000000 0.020828
v 0.057273 0.000000 0.015524
v 0.070000 0.000000 0.000000
v -0.070000 0.050000 0.000000
v -0.057273 0.050000 0.017249
v -0.044545 0.050000 0.023142
v -0.031818 0.050000 0.026722
v -0.019091 0.050000 0.028863
v -0.006364 0.050000 0.029876
v 0.006364 0.050000 0.029876
v 0.019091 0.050000 0.028863
v 0.031818 0.050000 0.026722
v 0.044545 0.050000 0.023142
v 0.057273 0.050000 0.017249
v 0.070000 0.050000 0.000000
v -0.070000 0.120000 0.000000
v -0.057273 0.120000 0.012074
v -0.044545 0.120000 0.016199
v -0.031818 0.120000 0.018705
v -0.019091 0.120000 0.020204
v -0.006364 0.120000 0.020913
v 0.006364 0.120000 0.020913
v 0.019091 0.120000 0.020204
v 0.031818 0.120000 0.018705
v 0.044545 0.120000 0.016199
v 0.057273 0.120000 0.012074
v 0.070000 0.120000 0.000000
v -0.070000 0.170000 0.000000
v -0.057273 0.170000 0.014374
v -0.044545 0.170000 0.019285
v -0.031818 0.170000 0.022268
v -0.019091 0.170000 0.024052
v -0.006364 0.170000 0.024896
v 0.006364 0.170000 0.024896
v 0.019091 0.170000 0.024052
v 0.031818 0.170000 0.022268
v 0.044545 0.170000 0.019285
v 0.057273 0.170000 0.014374
v 0.070000 0.170000 0.000000
v -0.070000 0.185000 0.000000
v -0.057273 0.185000 0.020124
v -0.044545 0.185000 0.026999
v -0.031818 0.185000 0.031175
v -0.019091 0.185000 0.033673
v -0.006364 0.185000 0.034855
v 0.006364 0.185000 0.034855
v 0.019091 0.185000 0.033673
v 0.031818 0.185000 0.031175
v 0.044545 0.185000 0.026999
v 0.057273 0.185000 0.020124
v 0.070000 0.185000 0.000000
v -0.070000 0.220000 0.000000
v -0.057273 0.220000 0.022998
v -0.044545 0.220000 0.030856
v -0.031818 0.220000 0.035629
v -0.019091 0.220000 0.038484
v -0.006364 0.220000 0.039834
v 0.006364 0.220000 0.039834
v 0.019091 0.220000 0.038484
v 0.031818 0.220000 0.035629
v 0.044545 0.220000 0.030856
v 0.057273 0.220000 0.022998
v 0.070000 0.220000 0.000000
v 0.000000 0.008000 0.000000
v 0.063000 0.000000 0.000000
v 0.058204 0.000000 0.010332
v 0.044548 0.000000 0.019092
v 0.024109 0.000000 0.024945
v 0.000000 0.000000 0.027000
v -0.024109 0.000000 0.024945
v -0.044548 0.000000 0.019092
v -0.058204 0.000000 0.010332
v -0.063000 0.000000 0.000000
v -0.058204 0.000000 -0.010332
v -0.044548 0.000000 -0.019092
v -0.024109 0.000000 -0.024945
v -0.000000 0.000000 -0.027000
v 0.024109 0.000000 -0.024945
v 0.044548 0.000000 -0.019092
v 0.058204 0.000000 -0.010332
vt 0.500000 0.000000
vt 0.500000 0.227273
vt 0.454545 0.227273
vt 0.454545 0.000000
vt 0.454545 0.000000
vt 0.454545 0.227273
vt 0.409091 0.227273
vt 0.409091 0.000000
vt 0.409091 0.000000
vt 0.409091 0.227273
vt 0.363636 0.227273
vt 0.363636 0.000000
vt 0.363636 0.000000
vt 0.363636 0.227273
vt 0.318182 0.227273
vt 0.318182 0.000000
vt 0.318182 0.000000
vt 0.318182 0.227273
vt 0.272727 0.227273
vt 0.272727 0.000000
vt 0.272727 0.000000
vt 0.272727 0.227273
vt 0.227273 0.227273
vt 0.227273 0.000000
vt 0.227273 0.000000
vt 0.227273 0.227273
vt 0.181818 0.227273
vt 0.181818 0.000000
vt 0.181818 0.000000
vt 0.181818 0.227273
vt 0.136364 0.227273
vt 0.136364 0.000000
vt 0.136364 0.000000
vt 0.136364 0.227273
vt 0.090909 0.227273
vt 0.090909 0.000000
vt 0.090909 0.000000
vt 0.090909 0.227273
vt 0.045455 0.227273
vt 0.045455 0.000000
vt 0.045455 0.000000
vt 0.045455 0.227273
vt 0.000000 0.227273
vt 0.000000 0.000000
vt 0.500000 0.227273
vt 0.500000 0.545455
vt 0.454545 0.545455
vt 0.454545 0.227273
vt 0.454545 0.227273
vt 0.454545 0.545455
vt 0.409091 0.545455
vt 0.409091 0.227273
vt 0.409091 0.227273
vt 0.409091 0.545455
vt 0.363636 0.545455
vt 0.363636 0.227273
vt 0.363636 0.227273
vt 0.363636 0.545455
vt 0.318182 0.545455
vt 0.318182 0.227273
vt 0.318182 0.227273
vt 0.318182 0.545455
vt 0.272727 0.545455
vt 0.272727 0.227273
vt 0.272727 0.227273
vt 0.272727 0.545455
vt 0.227273 0.545455
vt 0.227273 0.227273
vt 0.227273 0.227273
vt 0.227273 0.545455
vt 0.181818 0.545455
vt 0.181818 0.227273
vt 0.181818 0.227273
vt 0.181818 0.545455
vt 0.136364 0.545455
vt 0.136364 0.227273
vt 0.136364 0.227273
vt 0.136364 0.545455
vt 0.090909 0.545455
vt 0.090909 0.227273
vt 0.090909 0.227273
vt 0.090909 0.545455
vt 0.045455 0.545455
vt 0.045455 0.227273
vt 0.045455 0.227273
vt 0.045455 0.545455
vt 0.000000 0.545455
vt 0.000000 0.227273
vt 0.500000 0.545455
vt 0.500000 0.772727
vt 0.454545 0.772727
vt 0.454545 0.545455
vt 0.454545 0.545455
vt 0.454545 0.772727
vt 0.409091 0.772727
vt 0.409091 0.545455
vt 0.409091 0.545455
vt 0.409091 0.772727
vt 0.363636 0.772727
vt 0.363636 0.545455
vt 0.363636 0.545455
vt 0.363636 0.772727
vt 0.318182 0.772727
vt 0.318182 0.545455
vt 0.318182 0.545455
vt 0.318182 0.772727
vt 0.272727 0.772727
vt 0.272727 0.545455
vt 0.272727 0.545455
vt 0.272727 0.772727
vt 0.227273 0.772727
vt 0.227273 0.545455
vt 0.227273 0.545455
vt 0.227273 0.772727
vt 0.181818 0.772727
vt 0.181818 0.545455
vt 0.181818 0.545455
vt 0.181818 0.772727
vt 0.136364 0.772727
vt 0.136364 0.545455
vt 0.136364 0.545455
vt 0.136364 0.772727
vt 0.090909 0.772727
vt 0.090909 0.545455
vt 0.090909 0.545455
vt 0.090909 0.772727
vt 0.045455 0.772727
vt 0.045455 0.545455
vt 0.045455 0.545455
vt 0.045455 0.772727
vt 0.000000 0.772727
vt 0.000000 0.545455
vt 0.500000 0.772727
vt 0.500000 0.840909
vt 0.454545 0.840909
vt 0.454545 0.772727
vt 0.454545 0.772727
vt 0.454545 0.840909
vt 0.409091 0.840909
vt 0.409091 0.772727
vt 0.409091 0.772727
vt 0.409091 0.840909
vt 0.363636 0.840909
vt 0.363636 0.772727
vt 0.363636 0.772727
vt 0.363636 0.840909
vt 0.318182 0.840909
vt 0.318182 0.772727
vt 0.318182 0.772727
vt 0.318182 0.840909
vt 0.272727 0.840909
vt 0.272727 0.772727
vt 0.272727 0.772727
vt 0.272727 0.840909
vt 0.227273 0.840909
vt 0.227273 0.772727
vt 0.227273 0.772727
vt 0.227273 0.840909
vt 0.181818 0.840909
vt 0.181818 0.772727
vt 0.181818 0.772727
vt 0.181818 0.840909
vt 0.136364 0.840909
vt 0.136364 0.772727
vt 0.136364 0.772727
vt 0.136364 0.840909
vt 0.090909 0.840909
vt 0.090909 0.772727
vt 0.090909 0.772727
vt 0.090909 0.840909
vt 0.045455 0.840909
vt 0.045455 0.772727
vt 0.045455 0.772727
vt 0.045455 0.840909
vt 0.000000 0.840909
vt 0.000000 0.772727
vt 0.500000 0.840909
vt 0.500000 1.000000
vt 0.454545 1.000000
vt 0.454545 0.840909
vt 0.454545 0.840909
vt 0.454545 1.000000
vt 0.409091 1.000000
vt 0.409091 0.840909
vt 0.409091 0.840909
vt 0.409091 1.000000
vt 0.363636 1.000000
vt 0.363636 0.840909
vt 0.363636 0.840909
vt 0.363636 1.000000
vt 0.318182 1.000000
vt 0.318182 0.840909
vt 0.318182 0.840909
vt 0.318182 1.000000
vt 0.272727 1.000000
vt 0.272727 0.840909
vt 0.272727 0.840909
vt 0.272727 1.000000
vt 0.227273 1.000000
vt 0.227273 0.840909
vt 0.227273 0.840909
vt 0.227273 1.000000
vt 0.181818 1.000000
vt 0.181818 0.840909
vt 0.181818 0.840909
vt 0.181818 1.000000
vt 0.136364 1.000000
vt 0.136364 0.840909
vt 0.136364 0.840909
vt 0.136364 1.000000
vt 0.090909 1.000000
vt 0.090909 0.840909
vt 0.090909 0.840909
vt 0.090909 1.000000
vt 0.045455 1.000000
vt 0.045455 0.840909
vt 0.045455 0.840909
vt 0.045455 1.000000
vt 0.000000 1.000000
vt 0.000000 0.840909
vt 1.000000 0.000000
vt 0.954545 0.000000
vt 0.954545 0.227273
vt 1.000000 0.227273
vt 0.954545 0.000000
vt 0.909091 0.000000
vt 0.909091 0.227273
vt 0.954545 0.227273
vt 0.909091 0.000000
vt 0.863636 0.000000
vt 0.863636 0.227273
vt 0.909091 0.227273
vt 0.863636 0.000000
vt 0.818182 0.000000
vt 0.818182 0.227273
vt 0.863636 0.227273
vt 0.818182 0.000000
vt 0.772727 0.000000
vt 0.772727 0.227273
vt 0.818182 0.227273
vt 0.772727 0.000000
vt 0.727273 0.000000
vt 0.727273 0.227273
vt 0.772727 0.227273
vt 0.727273 0.000000
vt 0.681818 0.000000
vt 0.681818 0.227273
vt 0.727273 0.227273
vt 0.681818 0.000000
vt 0.636364 0.000000
vt 0.636364 0.227273
vt 0.681818 0.227273
vt 0.636364 0.000000
vt 0.590909 0.000000
vt 0.590909 0.227273
vt 0.636364 0.227273
vt 0.590909 0.000000
vt 0.545455 0.000000
vt 0.545455 0.227273
vt 0.590909 0.227273
vt 0.545455 0.000000
vt 0.500000 0.000000
vt 0.500000 0.227273
vt 0.545455 0.227273
vt 1.000000 0.227273
vt 0.954545 0.227273
vt 0.954545 0.545455
vt 1.000000 0.545455
vt 0.954545 0.227273
vt 0.909091 0.227273
vt 0.909091 0.545455
vt 0.954545 0.545455
vt 0.909091 0.227273
vt 0.863636 0.227273
vt 0.863636 0.545455
vt 0.909091 0.545455
vt 0.863636 0.227273
vt 0.818182 0.227273
vt 0.818182 0.545455
vt 0.863636 0.545455
vt 0.818182 0.227273
vt 0.772727 0.227273
vt 0.772727 0.545455
vt 0.818182 0.545455
vt 0.772727 0.227273
vt 0.727273 0.227273
vt 0.727273 0.545455
vt 0.772727 0.545455
vt 0.727273 0.227273
vt 0.681818 0.227273
vt 0.681818 0.545455
vt 0.727273 0.545455
vt 0.681818 0.227273
vt 0.636364 0.227273
vt 0.636364 0.545455
vt 0.681818 0.545455
vt 0.636364 0.227273
vt 0.590909 0.227273
vt 0.590909 0.545455
vt 0.636364 0.545455
vt 0.590909 0.227273
vt 0.545455 0.227273
vt 0.545455 0.545455
vt 0.590909 0.545455
vt 0.545455 0.227273
vt 0.500000 0.227273
vt 0.500000 0.545455
vt 0.545455 0.545455
vt 1.000000 0.545455
vt 0.954545 0.545455
vt 0.954545 0.772727
vt 1.000000 0.772727
vt 0.954545 0.545455
vt 0.909091 0.545455
vt 0.909091 0.772727
vt 0.954545 0.772727
vt 0.909091 0.545455
vt 0.863636 0.545455
vt 0.863636 0.772727
vt 0.909091 0.772727
vt 0.863636 0.545455
vt 0.818182 0.545455
vt 0.818182 0.772727
vt 0.863636 0.772727
vt 0.818182 0.545455
vt 0.772727 0.545455
vt 0.772727 0.772727
vt 0.818182 0.772727
vt 0.772727 0.545455
vt 0.727273 0.545455
vt 0.727273 0.772727
vt 0.772727 0.772727
vt 0.727273 0.545455
vt 0.681818 0.545455
vt 0.681818 0.772727
vt 0.727273 0.772727
vt 0.681818 0.545455
vt 0.636364 0.545455
vt 0.636364 0.772727
vt 0.681818 0.772727
vt 0.636364 0.545455
vt 0.590909 0.545455
vt 0.590909 0.772727
vt 0.636364 0.772727
vt 0.590909 0.545455
vt 0.545455 0.545455
vt 0.545455 0.772727
vt 0.590909 0.772727
vt 0.545455 0.545455
vt 0.500000 0.545455
vt 0.500000 0.772727
vt 0.545455 0.772727
vt 1.000000 0.772727
vt 0.954545 0.772727
vt 0.954545 0.840909
vt 1.000000 0.840909
vt 0.954545 0.772727
vt 0.909091 0.772727
vt 0.909091 0.840909
vt 0.954545 0.840909
vt 0.909091 0.772727
vt 0.863636 0.772727
vt 0.863636 0.840909
vt 0.909091 0.840909
vt 0.863636 0.772727
vt 0.818182 0.772727
vt 0.818182 0.840909
vt 0.863636 0.840909
vt 0.818182 0.772727
vt 0.772727 0.772727
vt 0.772727 0.840909
vt 0.818182 0.840909
vt 0.772727 0.772727
vt 0.727273 0.772727
vt 0.727273 0.840909
vt 0.772727 0.840909
vt 0.727273 0.772727
vt 0.681818 0.772727
vt 0.681818 0.840909
vt 0.727273 0.840909
vt 0.681818 0.772727
vt 0.636364 0.772727
vt 0.636364 0.840909
vt 0.681818 0.840909
vt 0.636364 0.772727
vt 0.590909 0.772727
vt 0.590909 0.840909
vt 0.636364 0.840909
vt 0.590909 0.772727
vt 0.545455 0.772727
vt 0.545455 0.840909
vt 0.590909 0.840909
vt 0.545455 0.772727
vt 0.500000 0.772727
vt 0.500000 0.840909
vt 0.545455 0.840909
vt 1.000000 0.840909
vt 0.954545 0.840909
vt 0.954545 1.000000
vt 1.000000 1.000000
vt 0.954545 0.840909
vt 0.909091 0.840909
vt 0.909091 1.000000
vt 0.954545 1.000000
vt 0.909091 0.840909
vt 0.863636 0.840909
vt 0.863636 1.000000
vt 0.909091 1.000000
vt 0.863636 0.840909
vt 0.818182 0.840909
vt 0.818182 1.000000
vt 0.863636 1.000000
vt 0.818182 0.840909
vt 0.772727 0.840909
vt 0.772727 1.000000
vt 0.818182 1.000000
vt 0.772727 0.840909
vt 0.727273 0.840909
vt 0.727273 1.000000
vt 0.772727 1.000000
vt 0.727273 0.840909
vt 0.681818 0.840909
vt 0.681818 1.000000
vt 0.727273 1.000000
vt 0.681818 0.840909
vt 0.636364 0.840909
vt 0.636364 1.000000
vt 0.681818 1.000000
vt 0.636364 0.840909
vt 0.590909 0.840909
vt 0.590909 1.000000
vt 0.636364 1.000000
vt 0.590909 0.840909
vt 0.545455 0.840909
vt 0.545455 1.000000
vt 0.590909 1.000000
vt 0.545455 0.840909
vt 0.500000 0.840909
vt 0.500000 1.000000
vt 0.545455 1.000000
vt 0.750000 0.150000
vt 0.950000 0.150000
vt 0.934776 0.188268
vt 0.934776 0.188268
vt 0.891421 0.220711
vt 0.891421 0.220711
vt 0.826537 0.242388
vt 0.826537 0.242388
vt 0.750000 0.250000
vt 0.750000 0.250000
vt 0.673463 0.242388
vt 0.673463 0.242388
vt 0.608579 0.220711
vt 0.608579 0.220711
vt 0.565224 0.188268
vt 0.565224 0.188268
vt 0.550000 0.150000
vt 0.550000 0.150000
vt 0.565224 0.111732
vt 0.565224 0.111732
vt 0.608579 0.079289
vt 0.608579 0.079289
vt 0.673463 0.057612
vt 0.673463 0.057612
vt 0.750000 0.050000
vt 0.750000 0.050000
vt 0.826537 0.057612
vt 0.826537 0.057612
vt 0.891421 0.079289
vt 0.891421 0.079289
vt 0.934776 0.111732
vt 0.934776 0.111732
vt 0.950000 0.150000
vn 0.000000 -0.099504 -0.995037
vn 0.000000 -0.099504 -0.995037
vn 0.000000 -0.099504 -0.995037
vn 0.000000 -0.099504 -0.995037
vn 0.000000 -0.099504 -0.995037
vn 0.000000 -0.099504 -0.995037
vn 0.000000 -0.099504 -0.995037
vn 0.000000 -0.099504 -0.995037
vn 0.000000 -0.099504 -0.995037
vn 0.000000 -0.099504 -0.995037
vn 0.000000 -0.099504 -0.995037
vn 0.000000 -0.099504 -0.995037
vn 0.000000 -0.099504 -0.995037
vn 0.000000 -0.099504 -0.995037
vn 0.000000 -0.099504 -0.995037
vn 0.000000 -0.099504 -0.995037
vn 0.000000 -0.099504 -0.995037
vn 0.000000 -0.099504 -0.995037
vn 0.000000 -0.099504 -0.995037
vn 0.000000 -0.099504 -0.995037
vn 0.000000 -0.099504 -0.995037
vn 0.000000 -0.099504 -0.995037
vn 0.000000 -0.099504 -0.995037
vn 0.000000 -0.099504 -0.995037
vn 0.000000 -0.099504 -0.995037
vn 0.000000 -0.099504 -0.995037
vn 0.000000 -0.099504 -0.995037
vn 0.000000 -0.099504 -0.995037
vn 0.000000 -0.099504 -0.995037
vn 0.000000 -0.099504 -0.995037
vn 0.000000 -0.099504 -0.995037
vn 0.000000 -0.099504 -0.995037
vn 0.000000 -0.099504 -0.995037
vn 0.000000 0.099504 -0.995037
vn 0.000000 0.099504 -0.995037
vn 0.000000 0.099504 -0.995037
vn 0.000000 0.099504 -0.995037
vn 0.000000 0.099504 -0.995037
vn 0.000000 0.099504 -0.995037
vn 0.000000 0.099504 -0.995037
vn 0.000000 0.099504 -0.995037
vn 0.000000 0.099504 -0.995037
vn 0.000000 0.099504 -0.995037
vn 0.000000 0.099504 -0.995037
vn 0.000000 0.099504 -0.995037
vn 0.000000 0.099504 -0.995037
vn 0.000000 0.099504 -0.995037
vn 0.000000 0.099504 -0.995037
vn 0.000000 0.099504 -0.995037
vn 0.000000 0.099504 -0.995037
vn 0.000000 0.099504 -0.995037
vn 0.000000 0.099504 -0.995037
vn 0.000000 0.099504 -0.995037
vn 0.000000 0.099504 -0.995037
vn 0.000000 0.099504 -0.995037
vn 0.000000 -0.099504 0.995037
vn 0.000000 -0.099504 0.995037
vn 0.000000 -0.099504 0.995037
vn 0.000000 -0.099504 0.995037
vn 0.000000 -0.099504 0.995037
vn 0.000000 -0.099504 0.995037
vn 0.000000 -0.099504 0.995037
vn 0.000000 -0.099504 0.995037
vn 0.000000 -0.099504 0.995037
vn 0.000000 -0.099504 0.995037
vn 0.000000 -0.099504 0.995037
vn 0.000000 -0.099504 0.995037
vn 0.000000 -0.099504 0.995037
vn 0.000000 -0.099504 0.995037
vn 0.000000 -0.099504 0.995037
vn 0.000000 -0.099504 0.995037
vn 0.000000 -0.099504 0.995037
vn 0.000000 -0.099504 0.995037
vn 0.000000 -0.099504 0.995037
vn 0.000000 -0.099504 0.995037
vn 0.000000 -0.099504 0.995037
vn 0.000000 -0.099504 0.995037
vn 0.000000 -0.099504 0.995037
vn 0.000000 -0.099504 0.995037
vn 0.000000 -0.099504 0.995037
vn 0.000000 -0.099504 0.995037
vn 0.000000 -0.099504 0.995037
vn 0.000000 -0.099504 0.995037
vn 0.000000 -0.099504 0.995037
vn 0.000000 -0.099504 0.995037
vn 0.000000 -0.099504 0.995037
vn 0.000000 -0.099504 0.995037
vn 0.000000 -0.099504 0.995037
vn 0.000000 0.099504 0.995037
vn 0.000000 0.099504 0.995037
vn 0.000000 0.099504 0.995037
vn 0.000000 0.099504 0.995037
vn 0.000000 0.099504 0.995037
vn 0.000000 0.099504 0.995037
vn 0.000000 0.099504 0.995037
vn 0.000000 0.099504 0.995037
vn 0.000000 0.099504 0.995037
vn 0.000000 0.099504 0.995037
vn 0.000000 0.099504 0.995037
vn 0.000000 0.099504 0.995037
vn 0.000000 0.099504 0.995037
vn 0.000000 0.099504 0.995037
vn 0.000000 0.099504 0.995037
vn 0.000000 0.099504 0.995037
vn 0.000000 0.099504 0.995037
vn 0.000000 0.099504 0.995037
vn 0.000000 0.099504 0.995037
vn 0.000000 0.099504 0.995037
vn 0.000000 0.099504 0.995037
vn 0.000000 0.099504 0.995037
vn 0.000000 -1.000000 0.000000
s 1
f 1/1/1 13/2/1 14/3/1
f 1/1/1 14/3/1 2/4/1
f 2/5/2 14/6/2 15/7/2
f 2/5/2 15/7/2 3/8/2
f 3/9/3 15/10/3 16/11/3
f 3/9/3 16/11/3 4/12/3
f 4/13/4 16/14/4 17/15/4
f 4/13/4 17/15/4 5/16/4
f 5/17/5 17/18/5 18/19/5
f 5/17/5 18/19/5 6/20/5
f 6/21/6 18/22/6 19/23/6
f 6/21/6 19/23/6 7/24/6
f 7/25/7 19/26/7 20/27/7
f 7/25/7 20/27/7 8/28/7
f 8/29/8 20/30/8 21/31/8
f 8/29/8 21/31/8 9/32/8
f 9/33/9 21/34/9 22/35/9
f 9/33/9 22/35/9 10/36/9
f 10/37/10 22/38/10 23/39/10
f 10/37/10 23/39/10 11/40/10
f 11/41/11 23/42/11 24/43/11
f 11/41/11 24/43/11 12/44/11
f 13/45/12 25/46/12 26/47/12
f 13/45/12 26/47/12 14/48/12
f 14/49/13 26/50/13 27/51/13
f 14/49/13 27/51/13 15/52/13
f 15/53/14 27/54/14 28/55/14
f 15/53/14 28/55/14 16/56/14
f 16/57/15 28/58/15 29/59/15
f 16/57/15 29/59/15 17/60/15
f 17/61/16 29/62/16 30/63/16
f 17/61/16 30/63/16 18/64/16
f 18/65/17 30/66/17 31/67/17
f 18/65/17 31/67/17 19/68/17
f 19/69/18 31/70/18 32/71/18
f 19/69/18 32/71/18 20/72/18
f 20/73/19 32/74/19 33/75/19
f 20/73/19 33/75/19 21/76/19
f 21/77/20 33/78/20 34/79/20
f 21/77/20 34/79/20 22/80/20
f 22/81/21 34/82/21 35/83/21
f 22/81/21 35/83/21 23/84/21
f 23/85/22 35/86/22 36/87/22
f 23/85/22 36/87/22 24/88/22
f 25/89/23 37/90/23 38/91/23
f 25/89/23 38/91/23 26/92/23
f 26/93/24 38/94/24 39/95/24
f 26/93/24 39/95/24 27/96/24
f 27/97/25 39/98/25 40/99/25
f 27/97/25 40/99/25 28/100/25
f 28/101/26 40/102/26 41/103/26
f 28/101/26 41/103/26 29/104/26
f 29/105/27 41/106/27 42/107/27
f 29/105/27 42/107/27 30/108/27
f 30/109/28 42/110/28 43/111/28
f 30/109/28 43/111/28 31/112/28
f 31/113/29 43/114/29 44/115/29
f 31/113/29 44/115/29 32/116/29
f 32/117/30 44/118/30 45/119/30
f 32/117/30 45/119/30 33/120/30
f 33/121/31 45/122/31 46/123/31
f 33/121/31 46/123/31 34/124/31
f 34/125/32 46/126/32 47/127/32
f 34/125/32 47/127/32 35/128/32
f 35/129/33 47/130/33 48/131/33
f 35/129/33 48/131/33 36/132/33
f 37/133/34 49/134/34 50/135/34
f 37/133/34 50/135/34 38/136/34
f 38/137/35 50/138/35 51/139/35
f 38/137/35 51/139/35 39/140/35
f 39/141/36 51/142/36 52/143/36
f 39/141/36 52/143/36 40/144/36
f 40/145/37 52/146/37 53/147/37
f 40/145/37 53/147/37 41/148/37
f 41/149/38 53/150/38 54/151/38
f 41/149/38 54/151/38 42/152/38
f 42/153/39 54/154/39 55/155/39
f 42/153/39 55/155/39 43/156/39
f 43/157/40 55/158/40 56/159/40
f 43/157/40 56/159/40 44/160/40
f 44/161/41 56/162/41 57/163/41
f 44/161/41 57/163/41 45/164/41
f 45/165/42 57/166/42 58/167/42
f 45/165/42 58/167/42 46/168/42
f 46/169/43 58/170/43 59/171/43
f 46/169/43 59/171/43 47/172/43
f 47/173/44 59/174/44 60/175/44
f 47/173/44 60/175/44 48/176/44
f 49/177/45 61/178/45 62/179/45
f 49/177/45 62/179/45 50/180/45
f 50/181/46 62/182/46 63/183/46
f 50/181/46 63/183/46 51/184/46
f 51/185/47 63/186/47 64/187/47
f 51/185/47 64/187/47 52/188/47
f 52/189/48 64/190/48 65/191/48
f 52/189/48 65/191/48 53/192/48
f 53/193/49 65/194/49 66/195/49
f 53/193/49 66/195/49 54/196/49
f 54/197/50 66/198/50 67/199/50
f 54/197/50 67/199/50 55/200/50
f 55/201/51 67/202/51 68/203/51
f 55/201/51 68/203/51 56/204/51
f 56/205/52 68/206/52 69/207/52
f 56/205/52 69/207/52 57/208/52
f 57/209/53 69/210/53 70/211/53
f 57/209/53 70/211/53 58/212/53
f 58/213/54 70/214/54 71/215/54
f 58/213/54 71/215/54 59/216/54
f 59/217/55 71/218/55 72/219/55
f 59/217/55 72/219/55 60/220/55
f 73/221/56 74/222/56 86/223/56
f 73/221/56 86/223/56 85/224/56
f 74/225/57 75/226/57 87/227/57
f 74/225/57 87/227/57 86/228/57
f 75/229/58 76/230/58 88/231/58
f 75/229/58 88/231/58 87/232/58
f 76/233/59 77/234/59 89/235/59
f 76/233/59 89/235/59 88/236/59
f 77/237/60 78/238/60 90/239/60
f 77/237/60 90/239/60 89/240/60
f 78/241/61 79/242/61 91/243/61
f 78/241/61 91/243/61 90/244/61
f 79/245/62 80/246/62 92/247/62
f 79/245/62 92/247/62 91/248/62
f 80/249/63 81/250/63 93/251/63
f 80/249/63 93/251/63 92/252/63
f 81/253/64 82/254/64 94/255/64
f 81/253/64 94/255/64 93/256/64
f 82/257/65 83/258/65 95/259/65
f 82/257/65 95/259/65 94/260/65
f 83/261/66 84/262/66 96/263/66
f 83/261/66 96/263/66 95/264/66
f 85/265/67 86/266/67 98/267/67
f 85/265/67 98/267/67 97/268/67
f 86/269/68 87/270/68 99/271/68
f 86/269/68 99/271/68 98/272/68
f 87/273/69 88/274/69 100/275/69
f 87/273/69 100/275/69 99/276/69
f 88/277/70 89/278/70 101/279/70
f 88/277/70 101/279/70 100/280/70
f 89/281/71 90/282/71 102/283/71
f 89/281/71 102/283/71 101/284/71
f 90/285/72 91/286/72 103/287/72
f 90/285/72 103/287/72 102/288/72
f 91/289/73 92/290/73 104/291/73
f 91/289/73 104/291/73 103/292/73
f 92/293/74 93/294/74 105/295/74
f 92/293/74 105/295/74 104/296/74
f 93/297/75 94/298/75 106/299/75
f 93/297/75 106/299/75 105/300/75
f 94/301/76 95/302/76 107/303/76
f 94/301/76 107/303/76 106/304/76
f 95/305/77 96/306/77 108/307/77
f 95/305/77 108/307/77 107/308/77
f 97/309/78 98/310/78 110/311/78
f 97/309/78 110/311/78 109/312/78
f 98/313/79 99/314/79 111/315/79
f 98/313/79 111/315/79 110/316/79
f 99/317/80 100/318/80 112/319/80
f 99/317/80 112/319/80 111/320/80
f 100/321/81 101/322/81 113/323/81
f 100/321/81 113/323/81 112/324/81
f 101/325/82 102/326/82 114/327/82
f 101/325/82 114/327/82 113/328/82
f 102/329/83 103/330/83 115/331/83
f 102/329/83 115/331/83 114/332/83
f 103/333/84 104/334/84 116/335/84
f 103/333/84 116/335/84 115/336/84
f 104/337/85 105/338/85 117/339/85
f 104/337/85 117/339/85 116/340/85
f 105/341/86 106/342/86 118/343/86
f 105/341/86 118/343/86 117/344/86
f 106/345/87 107/346/87 119/347/87
f 106/345/87 119/347/87 118/348/87
f 107/349/88 108/350/88 120/351/88
f 107/349/88 120/351/88 119/352/88
f 109/353/89 110/354/89 122/355/89
f 109/353/89 122/355/89 121/356/89
f 110/357/90 111/358/90 123/359/90
f 110/357/90 123/359/90 122/360/90
f 111/361/91 112/362/91 124/363/91
f 111/361/91 124/363/91 123/364/91
f 112/365/92 113/366/92 125/367/92
f 112/365/92 125/367/92 124/368/92
f 113/369/93 114/370/93 126/371/93
f 113/369/93 126/371/93 125/372/93
f 114/373/94 115/374/94 127/375/94
f 114/373/94 127/375/94 126/376/94
f 115/377/95 116/378/95 128/379/95
f 115/377/95 128/379/95 127/380/95
f 116/381/96 117/382/96 129/383/96
f 116/381/96 129/383/96 128/384/96
f 117/385/97 118/386/97 130/387/97
f 117/385/97 130/387/97 129/388/97
f 118/389/98 119/390/98 131/391/98
f 118/389/98 131/391/98 130/392/98
f 119/393/99 120/394/99 132/395/99
f 119/393/99 132/395/99 131/396/99
f 121/397/100 122/398/100 134/399/100
f 121/397/100 134/399/100 133/400/100
f 122/401/101 123/402/101 135/403/101
f 122/401/101 135/403/101 134/404/101
f 123/405/102 124/406/102 136/407/102
f 123/405/102 136/407/102 135/408/102
f 124/409/103 125/410/103 137/411/103
f 124/409/103 137/411/103 136/412/103
f 125/413/104 126/414/104 138/415/104
f 125/413/104 138/415/104 137/416/104
f 126/417/105 127/418/105 139/419/105
f 126/417/105 139/419/105 138/420/105
f 127/421/106 128/422/106 140/423/106
f 127/421/106 140/423/106 139/424/106
f 128/425/107 129/426/107 141/427/107
f 128/425/107 141/427/107 140/428/107
f 129/429/108 130/430/108 142/431/108
f 129/429/108 142/431/108 141/432/108
f 130/433/109 131/434/109 143/435/109
f 130/433/109 143/435/109 142/436/109
f 131/437/110 132/438/110 144/439/110
f 131/437/110 144/439/110 143/440/110
f 145/441/111 146/442/111 147/443/111
f 145/441/111 147/444/111 148/445/111
f 145/441/111 148/446/111 149/447/111
f 145/441/111 149/448/111 150/449/111
f 145/441/111 150/450/111 151/451/111
f 145/441/111 151/452/111 152/453/111
f 145/441/111 152/454/111 153/455/111
f 145/441/111 153/456/111 154/457/111
f 145/441/111 154/458/111 155/459/111
f 145/441/111 155/460/111 156/461/111
f 145/441/111 156/462/111 157/463/111
f 145/441/111 157/464/111 158/465/111
f 145/441/111 158/466/111 159/467/111
f 145/441/111 159/468/111 160/469/111
f 145/441/111 160/470/111 161/471/111
f 145/441/111 161/472/111 146/473/111
