# Wavefront OBJ: SM_TeaBag_Liquid
o SM_TeaBag_Liquid
v -0.067000 0.005000 0.000000
v -0.052111 0.005000 0.014255
v -0.037222 0.005000 0.018858
v -0.022333 0.005000 0.021383
v -0.007444 0.005000 0.022540
v 0.007444 0.005000 0.022540
v 0.022333 0.005000 0.021383
v 0.037222 0.005000 0.018858
v 0.052111 0.005000 0.014255
v 0.067000 0.005000 0.000000
v -0.067000 0.045000 0.000000
v -0.052111 0.045000 0.015613
v -0.037222 0.045000 0.020654
v -0.022333 0.045000 0.023419
v -0.007444 0.045000 0.024686
v 0.007444 0.045000 0.024686
v 0.022333 0.045000 0.023419
v 0.037222 0.045000 0.020654
v 0.052111 0.045000 0.015613
v 0.067000 0.045000 0.000000
v -0.067000 0.085000 0.000000
v -0.052111 0.085000 0.012898
v -0.037222 0.085000 0.017062
v -0.022333 0.085000 0.019346
v -0.007444 0.085000 0.020393
v 0.007444 0.085000 0.020393
v 0.022333 0.085000 0.019346
v 0.037222 0.085000 0.017062
v 0.052111 0.085000 0.012898
v 0.067000 0.085000 0.000000
v -0.067000 0.125000 0.000000
v -0.052111 0.125000 0.009504
v -0.037222 0.125000 0.012572
v -0.022333 0.125000 0.014255
v -0.007444 0.125000 0.015026
v 0.007444 0.125000 0.015026
v 0.022333 0.125000 0.014255
v 0.037222 0.125000 0.012572
v 0.052111 0.125000 0.009504
v 0.067000 0.125000 0.000000
v -0.067000 0.005000 -0.000000
v -0.052111 0.005000 -0.014255
v -0.037222 0.005000 -0.018858
v -0.022333 0.005000 -0.021383
v -0.007444 0.005000 -0.022540
v 0.007444 0.005000 -0.022540
v 0.022333 0.005000 -0.021383
v 0.037222 0.005000 -0.018858
v 0.052111 0.005000 -0.014255
v 0.067000 0.005000 -0.000000
v -0.067000 0.045000 -0.000000
v -0.052111 0.045000 -0.015613
v -0.037222 0.045000 -0.020654
v -0.022333 0.045000 -0.023419
v -0.007444 0.045000 -0.024686
v 0.007444 0.045000 -0.024686
v 0.022333 0.045000 -0.023419
v 0.037222 0.045000 -0.020654
v 0.052111 0.045000 -0.015613
v 0.067000 0.045000 -0.000000
v -0.067000 0.085000 -0.000000
v -0.052111 0.085000 -0.012898
v -0.037222 0.085000 -0.017062
v -0.022333 0.085000 -0.019346
v -0.007444 0.085000 -0.020393
v 0.007444 0.085000 -0.020393
v 0.022333 0.085000 -0.019346
v 0.037222 0.085000 -0.017062
v 0.052111 0.085000 -0.012898
v 0.067000 0.085000 -0.000000
v -0.067000 0.125000 -0.000000
v -0.052111 0.125000 -0.009504
v -0.037222 0.125000 -0.012572
v -0.022333 0.125000 -0.014255
v -0.007444 0.125000 -0.015026
v 0.007444 0.125000 -0.015026
v 0.022333 0.125000 -0.014255
v 0.037222 0.125000 -0.012572
v 0.052111 0.125000 -0.009504
v 0.067000 0.125000 -0.000000
vt 0.000000 0.040000
vt 0.111111 0.040000
vt 0.111111 0.360000
vt 0.000000 0.360000
vt 0.111111 0.040000
vt 0.222222 0.040000
vt 0.222222 0.360000
vt 0.111111 0.360000
vt 0.222222 0.040000
vt 0.333333 0.040000
vt 0.333333 0.360000
vt 0.222222 0.360000
vt 0.333333 0.040000
vt 0.444444 0.040000
vt 0.444444 0.360000
vt 0.333333 0.360000
vt 0.444444 0.040000
vt 0.555556 0.040000
vt 0.555556 0.360000
vt 0.444444 0.360000
vt 0.555556 0.040000
vt 0.666667 0.040000
vt 0.666667 0.360000
vt 0.555556 0.360000
vt 0.666667 0.040000
vt 0.777778 0.040000
vt 0.777778 0.360000
vt 0.666667 0.360000
vt 0.777778 0.040000
vt 0.888889 0.040000
vt 0.888889 0.360000
vt 0.777778 0.360000
vt 0.888889 0.040000
vt 1.000000 0.040000
vt 1.000000 0.360000
vt 0.888889 0.360000
vt 0.000000 0.360000
vt 0.111111 0.360000
vt 0.111111 0.680000
vt 0.000000 0.680000
vt 0.111111 0.360000
vt 0.222222 0.360000
vt 0.222222 0.680000
vt 0.111111 0.680000
vt 0.222222 0.360000
vt 0.333333 0.360000
vt 0.333333 0.680000
vt 0.222222 0.680000
vt 0.333333 0.360000
vt 0.444444 0.360000
vt 0.444444 0.680000
vt 0.333333 0.680000
vt 0.444444 0.360000
vt 0.555556 0.360000
vt 0.555556 0.680000
vt 0.444444 0.680000
vt 0.555556 0.360000
vt 0.666667 0.360000
vt 0.666667 0.680000
vt 0.555556 0.680000
vt 0.666667 0.360000
vt 0.777778 0.360000
vt 0.777778 0.680000
vt 0.666667 0.680000
vt 0.777778 0.360000
vt 0.888889 0.360000
vt 0.888889 0.680000
vt 0.777778 0.680000
vt 0.888889 0.360000
vt 1.000000 0.360000
vt 1.000000 0.680000
vt 0.888889 0.680000
vt 0.000000 0.680000
vt 0.111111 0.680000
vt 0.111111 1.000000
vt 0.000000 1.000000
vt 0.111111 0.680000
vt 0.222222 0.680000
vt 0.222222 1.000000
vt 0.111111 1.000000
vt 0.222222 0.680000
vt 0.333333 0.680000
vt 0.333333 1.000000
vt 0.222222 1.000000
vt 0.333333 0.680000
vt 0.444444 0.680000
vt 0.444444 1.000000
vt 0.333333 1.000000
vt 0.444444 0.680000
vt 0.555556 0.680000
vt 0.555556 1.000000
vt 0.444444 1.000000
vt 0.555556 0.680000
vt 0.666667 0.680000
vt 0.666667 1.000000
vt 0.555556 1.000000
vt 0.666667 0.680000
vt 0.777778 0.680000
vt 0.777778 1.000000
vt 0.666667 1.000000
vt 0.777778 0.680000
vt 0.888889 0.680000
vt 0.888889 1.000000
vt 0.777778 1.000000
vt 0.888889 0.680000
vt 1.000000 0.680000
vt 1.000000 1.000000
vt 0.888889 1.000000
vt 0.000000 0.040000
vt 0.000000 0.360000
vt 0.111111 0.360000
vt 0.111111 0.040000
vt 0.111111 0.040000
vt 0.111111 0.360000
vt 0.222222 0.360000
vt 0.222222 0.040000
vt 0.222222 0.040000
vt 0.222222 0.360000
vt 0.333333 0.360000
vt 0.333333 0.040000
vt 0.333333 0.040000
vt 0.333333 0.360000
vt 0.444444 0.360000
vt 0.444444 0.040000
vt 0.444444 0.040000
vt 0.444444 0.360000
vt 0.555556 0.360000
vt 0.555556 0.040000
vt 0.555556 0.040000
vt 0.555556 0.360000
vt 0.666667 0.360000
vt 0.666667 0.040000
vt 0.666667 0.040000
vt 0.666667 0.360000
vt 0.777778 0.360000
vt 0.777778 0.040000
vt 0.777778 0.040000
vt 0.777778 0.360000
vt 0.888889 0.360000
vt 0.888889 0.040000
vt 0.888889 0.040000
vt 0.888889 0.360000
vt 1.000000 0.360000
vt 1.000000 0.040000
vt 0.000000 0.360000
vt 0.000000 0.680000
vt 0.111111 0.680000
vt 0.111111 0.360000
vt 0.111111 0.360000
vt 0.111111 0.680000
vt 0.222222 0.680000
vt 0.222222 0.360000
vt 0.222222 0.360000
vt 0.222222 0.680000
vt 0.333333 0.680000
vt 0.333333 0.360000
vt 0.333333 0.360000
vt 0.333333 0.680000
vt 0.444444 0.680000
vt 0.444444 0.360000
vt 0.444444 0.360000
vt 0.444444 0.680000
vt 0.555556 0.680000
vt 0.555556 0.360000
vt 0.555556 0.360000
vt 0.555556 0.680000
vt 0.666667 0.680000
vt 0.666667 0.360000
vt 0.666667 0.360000
vt 0.666667 0.680000
vt 0.777778 0.680000
vt 0.777778 0.360000
vt 0.777778 0.360000
vt 0.777778 0.680000
vt 0.888889 0.680000
vt 0.888889 0.360000
vt 0.888889 0.360000
vt 0.888889 0.680000
vt 1.000000 0.680000
vt 1.000000 0.360000
vt 0.000000 0.680000
vt 0.000000 1.000000
vt 0.111111 1.000000
vt 0.111111 0.680000
vt 0.111111 0.680000
vt 0.111111 1.000000
vt 0.222222 1.000000
vt 0.222222 0.680000
vt 0.222222 0.680000
vt 0.222222 1.000000
vt 0.333333 1.000000
vt 0.333333 0.680000
vt 0.333333 0.680000
vt 0.333333 1.000000
vt 0.444444 1.000000
vt 0.444444 0.680000
vt 0.444444 0.680000
vt 0.444444 1.000000
vt 0.555556 1.000000
vt 0.555556 0.680000
vt 0.555556 0.680000
vt 0.555556 1.000000
vt 0.666667 1.000000
vt 0.666667 0.680000
vt 0.666667 0.680000
vt 0.666667 1.000000
vt 0.777778 1.000000
vt 0.777778 0.680000
vt 0.777778 0.680000
vt 0.777778 1.000000
vt 0.888889 1.000000
vt 0.888889 0.680000
vt 0.888889 0.680000
vt 0.888889 1.000000
vt 1.000000 1.000000
vt 1.000000 0.680000
vt 0.000000 0.000000
vt 0.111111 0.000000
vt 0.111111 1.000000
vt 0.000000 1.000000
vt 0.111111 0.000000
vt 0.222222 0.000000
vt 0.222222 1.000000
vt 0.111111 1.000000
vt 0.222222 0.000000
vt 0.333333 0.000000
vt 0.333333 1.000000
vt 0.222222 1.000000
vt 0.333333 0.000000
vt 0.444444 0.000000
vt 0.444444 1.000000
vt 0.333333 1.000000
vt 0.444444 0.000000
vt 0.555556 0.000000
vt 0.555556 1.000000
vt 0.444444 1.000000
vt 0.555556 0.000000
vt 0.666667 0.000000
vt 0.666667 1.000000
vt 0.555556 1.000000
vt 0.666667 0.000000
vt 0.777778 0.000000
vt 0.777778 1.000000
vt 0.666667 1.000000
vt 0.777778 0.000000
vt 0.888889 0.000000
vt 0.888889 1.000000
vt 0.777778 1.000000
vt 0.888889 0.000000
vt 1.000000 0.000000
vt 1.000000 1.000000
vt 0.888889 1.000000
vn 0.000000 0.000000 1.000000
vn 0.000000 0.000000 1.000000
vn 0.000000 0.000000 1.000000
vn 0.000000 0.000000 1.000000
vn 0.000000 0.000000 1.000000
vn 0.000000 0.000000 1.000000
vn 0.000000 0.000000 1.000000
vn 0.000000 0.000000 1.000000
vn 0.000000 0.000000 1.000000
vn 0.000000 0.000000 1.000000
vn 0.000000 0.000000 1.000000
vn 0.000000 0.000000 1.000000
vn 0.000000 0.000000 1.000000
vn 0.000000 0.000000 1.000000
vn 0.000000 0.000000 1.000000
vn 0.000000 0.000000 1.000000
vn 0.000000 0.000000 1.000000
vn 0.000000 0.000000 1.000000
vn 0.000000 0.000000 1.000000
vn 0.000000 0.000000 1.000000
vn 0.000000 0.000000 1.000000
vn 0.000000 0.000000 1.000000
vn 0.000000 0.000000 1.000000
vn 0.000000 0.000000 1.000000
vn 0.000000 0.000000 1.000000
vn 0.000000 0.000000 1.000000
vn 0.000000 0.000000 1.000000
vn 0.000000 0.000000 -1.000000
vn 0.000000 0.000000 -1.000000
vn 0.000000 0.000000 -1.000000
vn 0.000000 0.000000 -1.000000
vn 0.000000 0.000000 -1.000000
vn 0.000000 0.000000 -1.000000
vn 0.000000 0.000000 -1.000000
vn 0.000000 0.000000 -1.000000
vn 0.000000 0.000000 -1.000000
vn 0.000000 0.000000 -1.000000
vn 0.000000 0.000000 -1.000000
vn 0.000000 0.000000 -1.000000
vn 0.000000 0.000000 -1.000000
vn 0.000000 0.000000 -1.000000
vn 0.000000 0.000000 -1.000000
vn 0.000000 0.000000 -1.000000
vn 0.000000 0.000000 -1.000000
vn 0.000000 0.000000 -1.000000
vn 0.000000 0.000000 -1.000000
vn 0.000000 0.000000 -1.000000
vn 0.000000 0.000000 -1.000000
vn 0.000000 0.000000 -1.000000
vn 0.000000 0.000000 -1.000000
vn 0.000000 0.000000 -1.000000
vn 0.000000 0.000000 -1.000000
vn 0.000000 0.000000 -1.000000
vn 0.000000 0.000000 -1.000000
vn 0.000000 1.000000 0.000000
vn 0.000000 1.000000 0.000000
vn 0.000000 1.000000 0.000000
vn 0.000000 1.000000 0.000000
vn 0.000000 1.000000 0.000000
vn 0.000000 1.000000 0.000000
vn 0.000000 1.000000 0.000000
vn 0.000000 1.000000 0.000000
vn 0.000000 1.000000 0.000000
s 1
f 1/1/1 2/2/1 12/3/1
f 1/1/1 12/3/1 11/4/1
f 2/5/2 3/6/2 13/7/2
f 2/5/2 13/7/2 12/8/2
f 3/9/3 4/10/3 14/11/3
f 3/9/3 14/11/3 13/12/3
f 4/13/4 5/14/4 15/15/4
f 4/13/4 15/15/4 14/16/4
f 5/17/5 6/18/5 16/19/5
f 5/17/5 16/19/5 15/20/5
f 6/21/6 7/22/6 17/23/6
f 6/21/6 17/23/6 16/24/6
f 7/25/7 8/26/7 18/27/7
f 7/25/7 18/27/7 17/28/7
f 8/29/8 9/30/8 19/31/8
f 8/29/8 19/31/8 18/32/8
f 9/33/9 10/34/9 20/35/9
f 9/33/9 20/35/9 19/36/9
f 11/37/10 12/38/10 22/39/10
f 11/37/10 22/39/10 21/40/10
f 12/41/11 13/42/11 23/43/11
f 12/41/11 23/43/11 22/44/11
f 13/45/12 14/46/12 24/47/12
f 13/45/12 24/47/12 23/48/12
f 14/49/13 15/50/13 25/51/13
f 14/49/13 25/51/13 24/52/13
f 15/53/14 16/54/14 26/55/14
f 15/53/14 26/55/14 25/56/14
f 16/57/15 17/58/15 27/59/15
f 16/57/15 27/59/15 26/60/15
f 17/61/16 18/62/16 28/63/16
f 17/61/16 28/63/16 27/64/16
f 18/65/17 19/66/17 29/67/17
f 18/65/17 29/67/17 28/68/17
f 19/69/18 20/70/18 30/71/18
f 19/69/18 30/71/18 29/72/18
f 21/73/19 22/74/19 32/75/19
f 21/73/19 32/75/19 31/76/19
f 22/77/20 23/78/20 33/79/20
f 22/77/20 33/79/20 32/80/20
f 23/81/21 24/82/21 34/83/21
f 23/81/21 34/83/21 33/84/21
f 24/85/22 25/86/22 35/87/22
f 24/85/22 35/87/22 34/88/22
f 25/89/23 26/90/23 36/91/23
f 25/89/23 36/91/23 35/92/23
f 26/93/24 27/94/24 37/95/24
f 26/93/24 37/95/24 36/96/24
f 27/97/25 28/98/25 38/99/25
f 27/97/25 38/99/25 37/100/25
f 28/101/26 29/102/26 39/103/26
f 28/101/26 39/103/26 38/104/26
f 29/105/27 30/106/27 40/107/27
f 29/105/27 40/107/27 39/108/27
f 41/109/28 51/110/28 52/111/28
f 41/109/28 52/111/28 42/112/28
f 42/113/29 52/114/29 53/115/29
f 42/113/29 53/115/29 43/116/29
f 43/117/30 53/118/30 54/119/30
f 43/117/30 54/119/30 44/120/30
f 44/121/31 54/122/31 55/123/31
f 44/121/31 55/123/31 45/124/31
f 45/125/32 55/126/32 56/127/32
f 45/125/32 56/127/32 46/128/32
f 46/129/33 56/130/33 57/131/33
f 46/129/33 57/131/33 47/132/33
f 47/133/34 57/134/34 58/135/34
f 47/133/34 58/135/34 48/136/34
f 48/137/35 58/138/35 59/139/35
f 48/137/35 59/139/35 49/140/35
f 49/141/36 59/142/36 60/143/36
f 49/141/36 60/143/36 50/144/36
f 51/145/37 61/146/37 62/147/37
f 51/145/37 62/147/37 52/148/37
f 52/149/38 62/150/38 63/151/38
f 52/149/38 63/151/38 53/152/38
f 53/153/39 63/154/39 64/155/39
f 53/153/39 64/155/39 54/156/39
f 54/157/40 64/158/40 65/159/40
f 54/157/40 65/159/40 55/160/40
f 55/161/41 65/162/41 66/163/41
f 55/161/41 66/163/41 56/164/41
f 56/165/42 66/166/42 67/167/42
f 56/165/42 67/167/42 57/168/42
f 57/169/43 67/170/43 68/171/43
f 57/169/43 68/171/43 58/172/43
f 58/173/44 68/174/44 69/175/44
f 58/173/44 69/175/44 59/176/44
f 59/177/45 69/178/45 70/179/45
f 59/177/45 70/179/45 60/180/45
f 61/181/46 71/182/46 72/183/46
f 61/181/46 72/183/46 62/184/46
f 62/185/47 72/186/47 73/187/47
f 62/185/47 73/187/47 63/188/47
f 63/189/48 73/190/48 74/191/48
f 63/189/48 74/191/48 64/192/48
f 64/193/49 74/194/49 75/195/49
f 64/193/49 75/195/49 65/196/49
f 65/197/50 75/198/50 76/199/50
f 65/197/50 76/199/50 66/200/50
f 66/201/51 76/202/51 77/203/51
f 66/201/51 77/203/51 67/204/51
f 67/205/52 77/206/52 78/207/52
f 67/205/52 78/207/52 68/208/52
f 68/209/53 78/210/53 79/211/53
f 68/209/53 79/211/53 69/212/53
f 69/213/54 79/214/54 80/215/54
f 69/213/54 80/215/54 70/216/54
f 31/217/55 32/218/55 72/219/55
f 31/217/55 72/219/55 71/220/55
f 32/221/56 33/222/56 73/223/56
f 32/221/56 73/223/56 72/224/56
f 33/225/57 34/226/57 74/227/57
f 33/225/57 74/227/57 73/228/57
f 34/229/58 35/230/58 75/231/58
f 34/229/58 75/231/58 74/232/58
f 35/233/59 36/234/59 76/235/59
f 35/233/59 76/235/59 75/236/59
f 36/237/60 37/238/60 77/239/60
f 36/237/60 77/239/60 76/240/60
f 37/241/61 38/242/61 78/243/61
f 37/241/61 78/243/61 77/244/61
f 38/245/62 39/246/62 79/247/62
f 38/245/62 79/247/62 78/248/62
f 39/249/63 40/250/63 80/251/63
f 39/249/63 80/251/63 79/252/63
